<svg width="16" height="16" viewBox="0 0 16 16" fill="none" xmlns="http://www.w3.org/2000/svg">
<path fill-rule="evenodd" clip-rule="evenodd" d="M8.00059 13.6667C11.1302 13.6667 13.6672 11.1297 13.6672 8.0001C13.6672 4.87052 11.1302 2.3335 8.00059 2.3335C4.87101 2.3335 2.33398 4.87052 2.33398 8.0001C2.33398 11.1297 4.87101 13.6667 8.00059 13.6667ZM8.00059 14.6667C11.6824 14.6667 14.6672 11.682 14.6672 8.0001C14.6672 4.31824 11.6824 1.3335 8.00059 1.3335C4.31872 1.3335 1.33398 4.31824 1.33398 8.0001C1.33398 11.682 4.31872 14.6667 8.00059 14.6667ZM7.34122 9.27672C7.34122 8.85856 7.39154 8.52552 7.49216 8.27762C7.59279 8.02971 7.77629 7.78628 8.04266 7.54733C8.31199 7.30539 8.49105 7.10975 8.57984 6.96041C8.66863 6.80808 8.71303 6.64828 8.71303 6.48102C8.71303 5.97624 8.48218 5.72385 8.02047 5.72385C7.80145 5.72385 7.62535 5.79255 7.49216 5.92994C7.36194 6.06435 7.29387 6.25103 7.28795 6.48998H6.00049C6.00641 5.91949 6.18843 5.47296 6.54655 5.15037C6.90763 4.82779 7.39893 4.6665 8.02047 4.6665C8.64792 4.6665 9.13478 4.82033 9.48107 5.12797C9.82735 5.43263 10.0005 5.86423 10.0005 6.42278C10.0005 6.67666 9.94425 6.9171 9.83179 7.1441C9.71932 7.36812 9.5225 7.61752 9.24133 7.89231L8.88173 8.23729C8.6568 8.45533 8.52805 8.71071 8.49549 9.00342L8.47774 9.27672H7.34122ZM7.93018 11.3555C8.31958 11.3555 8.63525 11.0398 8.63525 10.6504C8.63525 10.261 8.31958 9.94531 7.93018 9.94531C7.54077 9.94531 7.2251 10.261 7.2251 10.6504C7.2251 11.0398 7.54077 11.3555 7.93018 11.3555Z" fill="black" fill-opacity="0.54"/>
</svg>
