<svg width="202" height="79" viewBox="0 0 202 79" fill="none" xmlns="http://www.w3.org/2000/svg">
<path d="M195 0L196.453 3.92564C196.731 4.67698 197.323 5.26936 198.074 5.54738L202 7L198.074 8.45262C197.323 8.73064 196.731 9.32302 196.453 10.0744L195 14L193.547 10.0744C193.269 9.32302 192.677 8.73064 191.926 8.45262L188 7L191.926 5.54738C192.677 5.26936 193.269 4.67698 193.547 3.92564L195 0Z" fill="#B2C8EB"/>
<path d="M6.27566 27L7.57797 30.5194C7.82722 31.193 8.3583 31.7241 9.0319 31.9734L12.5513 33.2757L9.0319 34.578C8.35831 34.8272 7.82722 35.3583 7.57797 36.0319L6.27566 39.5513L4.97336 36.0319C4.72411 35.3583 4.19302 34.8272 3.51943 34.578L0 33.2757L3.51943 31.9734C4.19302 31.7241 4.7241 31.193 4.97336 30.5194L6.27566 27Z" fill="#B2C8EB"/>
<path d="M25.3416 14.9232L25 14L24.6584 14.9232C24.3609 15.7271 23.7271 16.3609 22.9232 16.6584L22 17L22.9232 17.3416C23.7271 17.6391 24.3609 18.2729 24.6584 19.0768L25 20L25.3416 19.0768C25.6391 18.2729 26.2729 17.6391 27.0768 17.3416L28 17L27.0768 16.6584C26.2729 16.3609 25.6391 15.7271 25.3416 14.9232Z" fill="#B2C8EB"/>
<path fill-rule="evenodd" clip-rule="evenodd" d="M151.224 79C151.734 76.0766 152 73.0694 152 70C152 41.2812 128.719 18 100 18C71.2812 18 48 41.2812 48 70C48 73.0694 48.2659 76.0766 48.776 79H151.224Z" fill="#31A629" fill-opacity="0.25"/>
<path fill-rule="evenodd" clip-rule="evenodd" d="M141.033 79C141.666 76.1006 142 73.0892 142 70C142 46.804 123.196 28 100 28C76.804 28 58 46.804 58 70C58 73.0892 58.3335 76.1006 58.9665 79H141.033Z" fill="#31A629" fill-opacity="0.25"/>
<path fill-rule="evenodd" clip-rule="evenodd" d="M139.815 36.5502C131.359 26.4951 119.163 19.6891 105.37 18.274L81 79H122.5L139.815 36.5502Z" fill="white" fill-opacity="0.3"/>
<path fill-rule="evenodd" clip-rule="evenodd" d="M96 74.0146L118.988 51.0263C119.652 50.3623 119.652 49.2857 118.988 48.6217C118.324 47.9576 117.248 47.9576 116.584 48.6217L96 69.2052L86.783 59.9882C86.119 59.3242 85.0424 59.3242 84.3783 59.9882C83.7143 60.6523 83.7143 61.7289 84.3783 62.3929L96 74.0146Z" fill="white"/>
</svg>
