<svg width="7" height="8" viewBox="0 0 7 8" fill="none" xmlns="http://www.w3.org/2000/svg">
<path fill-rule="evenodd" clip-rule="evenodd" d="M6.70495 0.709313C6.31161 0.31597 5.67387 0.315971 5.28053 0.709314L3.49993 2.48991L1.71943 0.709407C1.32608 0.316064 0.688349 0.316064 0.295007 0.709407C-0.0983362 1.10275 -0.0983352 1.74049 0.295008 2.13383L2.07551 3.91433L0.29506 5.69478C-0.0982828 6.08813 -0.0982828 6.72586 0.29506 7.1192C0.688403 7.51255 1.32614 7.51255 1.71948 7.1192L3.49993 5.33875L5.28048 7.1193C5.67382 7.51264 6.31155 7.51264 6.7049 7.1193C7.09824 6.72596 7.09824 6.08822 6.7049 5.69488L4.92435 3.91433L6.70495 2.13373C7.09829 1.74039 7.09829 1.10266 6.70495 0.709313Z" fill="#FF5C4C"/>
</svg>
