<svg width="24" height="24" viewBox="0 0 24 24" fill="none" xmlns="http://www.w3.org/2000/svg">
<circle cx="12" cy="12" r="9" fill="white" stroke="#2979FF" stroke-width="2"/>
<path fill-rule="evenodd" clip-rule="evenodd" d="M13.4584 6.44241C13.0268 6.15397 12.5192 6 12 6C11.3038 6 10.6361 6.27654 10.1438 6.76886C9.65152 7.26115 9.37494 7.92886 9.37494 8.62507C9.37494 9.14426 9.52889 9.65182 9.81733 10.0835C10.1058 10.5152 10.5158 10.8516 10.9954 11.0503C11.4751 11.2489 12.0029 11.301 12.5121 11.1997C13.0214 11.0984 13.4891 10.8484 13.8562 10.4813C14.2234 10.1142 14.4734 9.64646 14.5746 9.13723C14.6759 8.62803 14.624 8.10014 14.4253 7.62048C14.2266 7.1408 13.8901 6.73086 13.4584 6.44241ZM12 18.0003C10.9603 18.0003 9.93686 17.7553 9.0208 17.2871C8.10474 16.8189 7.32456 16.142 6.74986 15.3169C6.77609 13.6585 10.25 12.7502 12 12.7502C13.75 12.7502 17.2239 13.6585 17.2501 15.3169C16.6755 16.142 15.8952 16.8189 14.9792 17.2871C14.0632 17.7553 13.0397 18.0003 12 18.0003Z" fill="#7E8C99"/>
</svg>
