<svg xmlns="http://www.w3.org/2000/svg" width="40" height="40" viewBox="0 0 40 40" fill="none">
<path fill-rule="evenodd" clip-rule="evenodd" d="M20.8002 13.0002C20.8002 12.5584 20.442 12.2002 20.0002 12.2002C19.5584 12.2002 19.2002 12.5584 19.2002 13.0002V19.2001H13.0002C12.5584 19.2001 12.2002 19.5583 12.2002 20.0001C12.2002 20.4419 12.5584 20.8001 13.0002 20.8001H19.2002V27.0002C19.2002 27.442 19.5584 27.8002 20.0002 27.8002C20.442 27.8002 20.8002 27.442 20.8002 27.0002V20.8001H27.0002C27.442 20.8001 27.8002 20.4419 27.8002 20.0001C27.8002 19.5583 27.442 19.2001 27.0002 19.2001H20.8002V13.0002Z" fill="white" fill-opacity="0.4"/>
<circle cx="20" cy="20" r="19.2" stroke="white" stroke-opacity="0.4" stroke-width="1.6"/>
</svg>