<svg width="20" height="20" viewBox="0 0 20 20" fill="none" xmlns="http://www.w3.org/2000/svg">
<g clip-path="url(#clip0_4492_1769)">
<path d="M18.3333 0H1.66667C0.746192 0 0 1.11929 0 2.5V17.5C0 18.8807 0.746192 20 1.66667 20H18.3333C19.2538 20 20 18.8807 20 17.5V2.5C20 1.11929 19.2538 0 18.3333 0Z" fill="#016FD0"/>
<path fill-rule="evenodd" clip-rule="evenodd" d="M6.66235 16.9824V9.57471L19.9118 9.58654V11.6328L18.3804 13.2612L19.9118 14.9047V16.9943H17.4667L16.1673 15.5675L14.8772 16.9997L6.66235 16.9824Z" fill="#FFFFFE"/>
<path fill-rule="evenodd" clip-rule="evenodd" d="M7.54712 16.1704V10.3901H12.4725V11.7217H9.14186V12.6256H12.3931V13.9351H9.14186V14.8229H12.4725V16.1704H7.54712Z" fill="#016FD0"/>
<path fill-rule="evenodd" clip-rule="evenodd" d="M12.4479 16.1703L15.1733 13.2768L12.4478 10.3901H14.5573L16.2226 12.2221L17.8928 10.3901H19.9116V10.4356L17.2442 13.2768L19.9116 16.0883V16.1703H17.8724L16.1775 14.3199L14.5 16.1703H12.4479Z" fill="#016FD0"/>
<path fill-rule="evenodd" clip-rule="evenodd" d="M7.28021 3H10.474L11.5957 5.53468V3H15.5387L16.2186 4.89897L16.9008 3H19.9117V10.4076H4L7.28021 3Z" fill="#FFFFFE"/>
<path fill-rule="evenodd" clip-rule="evenodd" d="M7.88504 3.8042L5.30762 9.57967H7.07538L7.56164 8.42311H10.1964L10.6823 9.57967H12.4941L9.92738 3.8042H7.88504ZM8.10653 7.127L8.87949 5.28844L9.65187 7.127H8.10653Z" fill="#016FD0"/>
<path fill-rule="evenodd" clip-rule="evenodd" d="M12.47 9.57907V3.80371L14.9548 3.81221L16.2334 7.36276L17.5204 3.80371H19.9118V9.57907L18.373 9.59262V5.6255L16.9203 9.57907H15.5156L14.0329 5.61195V9.57907H12.47Z" fill="#016FD0"/>
</g>
<rect x="0.25" y="0.25" width="19.5" height="19.5" stroke="black" stroke-opacity="0.08" stroke-width="0.5"/>
<defs>
<clipPath id="clip0_4492_1769">
<rect width="20" height="20" fill="white"/>
</clipPath>
</defs>
</svg>
