<svg width="40" height="34" viewBox="0 0 40 34" fill="none" xmlns="http://www.w3.org/2000/svg">
<path d="M19.3049 4.5868L19.5956 4.86792H20H35.4874C37.4274 4.86792 39 6.44056 39 8.3805V28C39 30.7614 36.7614 33 34 33H6C3.23856 33 1 30.7614 1 28V4.51257C1 2.57263 2.57263 1 4.51258 1H15.5956L19.3049 4.5868Z" fill="#D9DDE1" stroke="#7E8C99" stroke-width="2"/>
<path d="M1 14.5805C1 13.3324 2.00234 12.3333 3.22327 12.3333H36.7767C37.9977 12.3333 39 13.3324 39 14.5805V29.454C39 31.4194 37.4204 33 35.4874 33H4.51258C2.57958 33 1 31.4194 1 29.454V14.5805Z" fill="white" stroke="#7E8C99" stroke-width="2"/>
</svg>
