<svg xmlns="http://www.w3.org/2000/svg" width="16" height="16" viewBox="0 0 16 16" fill="none">
<path d="M8.49997 11.1915C8.88681 11.0052 9.15378 10.6095 9.15378 10.1514C9.15378 9.51413 8.63721 8.99756 7.99999 8.99756C7.36276 8.99756 6.84619 9.51413 6.84619 10.1514C6.84619 10.6095 7.11316 11.0052 7.50001 11.1915V11.9546C7.50001 12.2308 7.72386 12.4546 7.99999 12.4546C8.27612 12.4546 8.49997 12.2308 8.49997 11.9546V11.1915Z" fill="#F0483F"/>
<path fill-rule="evenodd" clip-rule="evenodd" d="M4 5V6C2.89543 6 2 6.89543 2 8V13C2 14.1046 2.89543 15 4 15H12C13.1046 15 14 14.1046 14 13V8C14 6.89543 13.1046 6 12 6V5C12 2.79086 10.2091 1 8 1C5.79086 1 4 2.79086 4 5ZM11 6V5C11 3.34315 9.65685 2 8 2C6.34315 2 5 3.34315 5 5V6H11ZM3 8C3 7.44772 3.44772 7 4 7H12C12.5523 7 13 7.44772 13 8V13C13 13.5523 12.5523 14 12 14H4C3.44772 14 3 13.5523 3 13V8Z" fill="#F0483F"/>
</svg>