<svg width="24" height="24" viewBox="0 0 24 24" fill="none" xmlns="http://www.w3.org/2000/svg">
<path fill-rule="evenodd" clip-rule="evenodd" d="M18 3.6H6C5.2268 3.6 4.6 4.2268 4.6 5V19C4.6 19.7732 5.2268 20.4 6 20.4H18C18.7732 20.4 19.4 19.7732 19.4 19V5C19.4 4.2268 18.7732 3.6 18 3.6ZM6 2C4.34315 2 3 3.34315 3 5V19C3 20.6569 4.34315 22 6 22H18C19.6569 22 21 20.6569 21 19V5C21 3.34315 19.6569 2 18 2H6ZM10.7835 5.6447C11.0822 5.97026 11.0604 6.47632 10.7348 6.77502L8.55502 8.77502L8.01416 9.27126L7.47331 8.77501L6.59403 7.96824C6.26848 7.66953 6.24671 7.16347 6.54542 6.83791C6.84413 6.51236 7.35019 6.4906 7.67575 6.7893L8.01418 7.09983L9.65315 5.59607C9.9787 5.29737 10.4848 5.31914 10.7835 5.6447ZM10.7348 11.278C11.0604 10.9793 11.0822 10.4732 10.7835 10.1476C10.4848 9.82207 9.9787 9.8003 9.65315 10.099L8.01418 11.6028L7.67575 11.2922C7.35019 10.9935 6.84413 11.0153 6.54542 11.3408C6.24671 11.6664 6.26848 12.1725 6.59403 12.4712L7.47331 13.2779L8.01416 13.7742L8.55502 13.278L10.7348 11.278ZM10.7835 14.651C11.0822 14.9766 11.0604 15.4827 10.7348 15.7814L8.55502 17.7814L8.01416 18.2776L7.47331 17.7814L6.59403 16.9746C6.26848 16.6759 6.24671 16.1698 6.54542 15.8443C6.84413 15.5187 7.35019 15.4969 7.67575 15.7957L8.01418 16.1062L9.65315 14.6024C9.9787 14.3037 10.4848 14.3255 10.7835 14.651ZM13 6.7C12.5582 6.7 12.2 7.05817 12.2 7.5C12.2 7.94183 12.5582 8.3 13 8.3H16.9059C17.3477 8.3 17.7059 7.94183 17.7059 7.5C17.7059 7.05817 17.3477 6.7 16.9059 6.7H13ZM12.2 12.0029C12.2 11.5611 12.5582 11.2029 13 11.2029H16.9059C17.3477 11.2029 17.7059 11.5611 17.7059 12.0029C17.7059 12.4448 17.3477 12.8029 16.9059 12.8029H13C12.5582 12.8029 12.2 12.4448 12.2 12.0029ZM13 15.7063C12.5582 15.7063 12.2 16.0645 12.2 16.5063C12.2 16.9482 12.5582 17.3063 13 17.3063H16.9059C17.3477 17.3063 17.7059 16.9482 17.7059 16.5063C17.7059 16.0645 17.3477 15.7063 16.9059 15.7063H13Z" fill="black" fill-opacity="0.87"/>
</svg>
