<svg width="20" height="20" viewBox="0 0 20 20" fill="none" xmlns="http://www.w3.org/2000/svg">
<path fill-rule="evenodd" clip-rule="evenodd" d="M18 7.67668V15.9942C18 17.0987 17.1046 17.9942 16 17.9942H15V13.9942C15 12.3373 13.6569 10.9942 12 10.9942H8C6.34315 10.9942 5 12.3373 5 13.9942V17.9942H4C2.89543 17.9942 2 17.0987 2 15.9942V7.67668C2 6.97994 2.36259 6.33342 2.9571 5.97011L8.9571 2.30345C9.59733 1.9122 10.4027 1.9122 11.0429 2.30345L17.0429 5.97011C17.6374 6.33343 18 6.97994 18 7.67668ZM6 17.9942H14V13.9942C14 12.8896 13.1046 11.9942 12 11.9942H8C6.89543 11.9942 6 12.8896 6 13.9942V17.9942ZM5 18.9942H4C2.34315 18.9942 1 17.651 1 15.9942V7.67668C1 6.63158 1.54389 5.6618 2.43565 5.11683L8.43565 1.45016C9.39599 0.863291 10.604 0.863292 11.5644 1.45016L17.5644 5.11683C18.4561 5.6618 19 6.63158 19 7.67668V15.9942C19 17.651 17.6569 18.9942 16 18.9942H15H14H6H5Z" fill="black" fill-opacity="0.87"/>
</svg>
