<svg width="20" height="20" viewBox="0 0 20 20" fill="none" xmlns="http://www.w3.org/2000/svg">
<path fill-rule="evenodd" clip-rule="evenodd" d="M14 7.5V5C14 2.79086 12.2091 1 10 1C7.79086 1 6 2.79086 6 5V7.5H14ZM10 0C7.23858 0 5 2.23858 5 5V8.5H15V5C15 2.23858 12.7614 0 10 0Z" fill="#4F5254"/>
<path d="M2 10C2 8.34315 3.34315 7 5 7H15C16.6569 7 18 8.34315 18 10V17C18 18.6569 16.6569 20 15 20H5C3.34315 20 2 18.6569 2 17V10Z" fill="#92D08D"/>
<path fill-rule="evenodd" clip-rule="evenodd" d="M15 8H5C3.89543 8 3 8.89543 3 10V17C3 18.1046 3.89543 19 5 19H15C16.1046 19 17 18.1046 17 17V10C17 8.89543 16.1046 8 15 8ZM5 7C3.34315 7 2 8.34315 2 10V17C2 18.6569 3.34315 20 5 20H15C16.6569 20 18 18.6569 18 17V10C18 8.34315 16.6569 7 15 7H5Z" fill="#31A528"/>
<path fill-rule="evenodd" clip-rule="evenodd" d="M10.75 13.9993C11.1984 13.74 11.5 13.2552 11.5 12.7C11.5 11.8716 10.8284 11.2 10 11.2C9.17157 11.2 8.5 11.8716 8.5 12.7C8.5 13.2552 8.80165 13.74 9.25 13.9993V15.05C9.25 15.4642 9.58579 15.8 10 15.8C10.4142 15.8 10.75 15.4642 10.75 15.05V13.9993Z" fill="#4F5254"/>
</svg>
