<svg width="20" height="20" viewBox="0 0 20 20" fill="none" xmlns="http://www.w3.org/2000/svg">
<path d="M7.19999 10.8C7.64182 10.8 7.99999 10.4418 7.99999 9.99995C7.99999 9.55812 7.64182 9.19995 7.19999 9.19995C6.75817 9.19995 6.39999 9.55812 6.39999 9.99995C6.39999 10.4418 6.75817 10.8 7.19999 10.8Z" fill="black" fill-opacity="0.7"/>
<path d="M12.8 10.8002C13.2418 10.8002 13.6 10.442 13.6 10.0002C13.6 9.55837 13.2418 9.2002 12.8 9.2002C12.3582 9.2002 12 9.55837 12 10.0002C12 10.442 12.3582 10.8002 12.8 10.8002Z" fill="black" fill-opacity="0.7"/>
<path d="M9.99837 10.8C10.4402 10.8 10.7984 10.4418 10.7984 9.99995C10.7984 9.55812 10.4402 9.19995 9.99837 9.19995C9.55654 9.19995 9.19837 9.55812 9.19837 9.99995C9.19837 10.4418 9.55654 10.8 9.99837 10.8Z" fill="black" fill-opacity="0.7"/>
<path d="M17.4912 7.5L15.288 10L17.4912 12.5" stroke="black" stroke-opacity="0.7" stroke-linecap="round"/>
<path d="M2.50898 7.5L4.71219 10L2.50898 12.5" stroke="black" stroke-opacity="0.7" stroke-linecap="round"/>
</svg>
