<svg width="24" height="24" viewBox="0 0 24 24" fill="none" xmlns="http://www.w3.org/2000/svg">
<path fill-rule="evenodd" clip-rule="evenodd" d="M3.25 14C2.55964 14 2 14.597 2 15.3333V20.6667C2 21.403 2.55964 22 3.25 22H10.75C11.4404 22 12 21.403 12 20.6667V15.3333C12 14.597 11.4404 14 10.75 14H3.25ZM8.00781 17.5161C8.00781 17.9137 7.77643 18.2571 7.44115 18.4188V19.081C7.44115 19.3206 7.24714 19.5149 7.00781 19.5149C6.76849 19.5149 6.57448 19.3206 6.57448 19.081V18.4188C6.2392 18.2571 6.00781 17.9137 6.00781 17.5161C6.00781 16.9632 6.45553 16.5149 7.00781 16.5149C7.5601 16.5149 8.00781 16.9632 8.00781 17.5161Z" fill="white" fill-opacity="0.87"/>
<path d="M9.35156 14V13.0303C9.35156 11.7315 8.29873 10.6787 7 10.6787V10.6787C5.70127 10.6787 4.64844 11.7315 4.64844 13.0303V14" stroke="white" stroke-opacity="0.87" stroke-width="1.3"/>
<path d="M3.92189 8.62127C3.78573 7.66446 3.66875 6.54061 3.66797 5.49995L11.9968 2.68945L20.2236 5.49995C20.2236 7.61314 19.9585 9.43865 19.5148 11.0284C18.7362 13.8185 17.4077 15.8822 15.9977 17.5C15.5836 17.9751 15.1626 18.4117 14.7463 18.817" stroke="white" stroke-opacity="0.87" stroke-width="1.3" stroke-linecap="round"/>
</svg>
