<svg xmlns="http://www.w3.org/2000/svg" width="24" height="24" viewBox="0 0 24 24" fill="none">
<path fill-rule="evenodd" clip-rule="evenodd" d="M3.34998 6.0001C3.34998 4.53654 4.53642 3.3501 5.99998 3.3501H18C19.4635 3.3501 20.65 4.53654 20.65 6.0001V18.0001C20.65 19.4637 19.4635 20.6501 18 20.6501H5.99998C4.53642 20.6501 3.34998 19.4637 3.34998 18.0001V6.0001ZM5.99998 4.6501C5.25439 4.6501 4.64998 5.25451 4.64998 6.0001V18.0001C4.64998 18.7457 5.25439 19.3501 5.99998 19.3501H11.35V4.6501H5.99998ZM18 19.3501H12.65V11.9H19.35V18.0001C19.35 18.7457 18.7456 19.3501 18 19.3501ZM19.35 10.6H12.65V4.6501H18C18.7456 4.6501 19.35 5.25451 19.35 6.0001V10.6Z" fill="black" fill-opacity="0.4"/>
</svg>