<svg width="24" height="24" viewBox="0 0 24 24" fill="none" xmlns="http://www.w3.org/2000/svg">
<path fill-rule="evenodd" clip-rule="evenodd" d="M5.4998 2.69977C3.40112 2.69977 1.6998 4.40109 1.6998 6.49977V11.4725C1.69974 11.4816 1.69971 11.4908 1.69971 11.4999V18.2777C1.69971 19.9468 3.0528 21.2999 4.72193 21.2999H18.4997C20.5984 21.2999 22.2997 19.5986 22.2997 17.4999V13.568C22.2998 13.5638 22.2998 13.5596 22.2998 13.5554V8.50001C22.2998 6.40133 20.5985 4.70001 18.4998 4.70001H11.3591L9.81983 2.96829L9.58115 2.69977H9.22189H5.4998ZM20.6976 8.39963C20.6451 7.2312 19.6812 6.30001 18.4998 6.30001H10.9998H10.6405L10.4019 6.03149L8.86263 4.29977H5.4998C4.28478 4.29977 3.2998 5.28474 3.2998 6.49977V8.40109C3.92064 7.95955 4.67985 7.69991 5.49971 7.69991H18.4997C19.3187 7.69991 20.0771 7.95898 20.6976 8.39963ZM3.29971 13.5681C3.29977 13.5639 3.2998 13.5597 3.2998 13.5554V11.4789C3.31109 10.2735 4.2917 9.29991 5.49971 9.29991H18.4997C19.7147 9.29991 20.6997 10.2849 20.6997 11.4999V17.4999C20.6997 18.7149 19.7147 19.6999 18.4997 19.6999H4.72193C3.93646 19.6999 3.29971 19.0632 3.29971 18.2777V13.5681Z" fill="black" fill-opacity="0.87"/>
</svg>
