<svg width="24" height="24" viewBox="0 0 24 24" fill="none" xmlns="http://www.w3.org/2000/svg">
<g clip-path="url(#clip0_2801_10300)">
<path fill-rule="evenodd" clip-rule="evenodd" d="M18.8891 3.88911C19.1429 4.14295 19.1429 4.5545 18.8891 4.80834L18.0137 5.68373C19.6974 7.81679 19.5765 10.9087 17.651 12.9041C17.6279 12.928 17.6046 12.9518 17.581 12.9754L16.5203 14.0361L15.3889 12.9047L13.6919 11.2076C13.1842 11.7153 12.3611 11.7153 11.8534 11.2076L11.5705 10.9248C11.0629 10.4171 11.0629 9.59399 11.5706 9.08631L9.87349 7.38925L8.74212 6.25788L9.80278 5.19722C9.8264 5.1736 9.85018 5.15024 9.87412 5.12714C11.8695 3.20167 14.9614 3.08079 17.0945 4.76449L17.9699 3.8891C18.2237 3.63526 18.6353 3.63526 18.8891 3.88911ZM16.4496 6.32859C17.949 7.82799 17.9723 10.2445 16.5194 11.7724L11.0058 6.25877C12.5336 4.80591 14.9502 4.82918 16.4496 6.32859ZM7.54003 10.2884C7.93056 9.89787 8.56372 9.89787 8.95425 10.2884C9.34477 10.6789 9.34477 11.3121 8.95425 11.7026L8.74212 11.9147L10.8634 14.0361L11.0756 13.8239C11.4661 13.4334 12.0993 13.4334 12.4898 13.8239C12.8803 14.2145 12.8803 14.8476 12.4898 15.2381L12.2777 15.4503L12.5605 15.7331L13.6919 16.8645L12.6312 17.9251C12.6076 17.9488 12.5838 17.9721 12.5599 17.9952C10.5645 19.9207 7.4726 20.0416 5.33955 18.3579L4.35808 19.3394C4.10424 19.5932 3.69268 19.5932 3.43884 19.3394C3.185 19.0855 3.185 18.674 3.43884 18.4201L4.42031 17.4387C2.73661 15.3056 2.85749 12.2137 4.78295 10.2183C4.80605 10.1944 4.82942 10.1706 4.85304 10.147L5.9137 9.0863L7.04507 10.2177L7.32791 10.5005L7.54003 10.2884ZM5.91458 11.3499C4.46173 12.8778 4.485 15.2944 5.98441 16.7938C7.48381 18.2932 9.90036 18.3164 11.4282 16.8636L5.91458 11.3499Z" fill="black" fill-opacity="0.87"/>
</g>
<defs>
<clipPath id="clip0_2801_10300">
<rect width="24" height="24" fill="white"/>
</clipPath>
</defs>
</svg>
