<svg width="20" height="20" viewBox="0 0 20 20" fill="none" xmlns="http://www.w3.org/2000/svg">
<path fill-rule="evenodd" clip-rule="evenodd" d="M16.3527 13.3343C16.3854 13.4914 16.4127 13.6499 16.4346 13.8095C16.4772 14.1198 16.4992 14.4341 16.5 14.75H10.6814V18.8276C10.6814 19.199 10.3803 19.5 10.009 19.5C9.63761 19.5 9.33656 19.199 9.33656 18.8276V14.7595L3.5 14.75C3.50062 14.4341 3.53145 14.1198 3.57391 13.8095C3.59573 13.65 3.623 13.4916 3.65563 13.3345C3.81192 12.582 4.09121 11.8603 4.48422 11.2034C5.11888 10.1425 6.02416 9.29387 7.09518 8.75556V4.775H6.39236C5.28943 4.775 4.39468 3.88213 4.39236 2.7792L4.38758 0.5L15.6034 0.509509L15.5987 2.77921C15.5964 3.88213 14.7016 4.775 13.5987 4.775H12.9138V8.75556C13.9844 9.29443 14.8893 10.1432 15.5239 11.204C15.9168 11.8607 16.1961 12.582 16.3527 13.3343Z" fill="#92D08D"/>
<path fill-rule="evenodd" clip-rule="evenodd" d="M9.33656 14.7595V18.8276C9.33656 19.1989 9.63761 19.5 10.009 19.5C10.3803 19.5 10.6814 19.1989 10.6814 18.8276V14.75H16.5C16.4992 14.4341 16.4772 14.1198 16.4346 13.8095C16.4319 13.7897 16.4291 13.7698 16.4262 13.75C16.4058 13.6105 16.3813 13.4719 16.3527 13.3343C16.1961 12.582 15.9168 11.8607 15.5239 11.204C14.8893 10.1432 13.9844 9.29443 12.9138 8.75556V4.775H13.5987C14.7016 4.775 15.5964 3.88213 15.5987 2.77921L15.6034 0.509509L4.38758 0.5L4.39236 2.7792C4.39468 3.88213 5.28943 4.775 6.39236 4.775H7.09518V8.75556C6.02416 9.29387 5.11888 10.1425 4.48422 11.2034C4.09121 11.8603 3.81192 12.582 3.65563 13.3345C3.62705 13.4721 3.60259 13.6107 3.5823 13.7501C3.57942 13.7699 3.57662 13.7897 3.57391 13.8095C3.53145 14.1198 3.50062 14.4341 3.5 14.75L9.33656 14.7595ZM4.59434 13.7518L9.68139 13.7601V13.75H15.4138C15.4017 13.679 15.3883 13.6084 15.3736 13.538C15.2394 12.893 15.0003 12.2766 14.6657 11.7174C14.1253 10.8141 13.3599 10.0996 12.4642 9.6488L11.9138 9.37177V3.775H13.5987C14.1501 3.775 14.5975 3.32857 14.5987 2.77711L14.6013 1.50866L5.38968 1.50085L5.39236 2.7771C5.39352 3.32856 5.84089 3.775 6.39236 3.775H8.09518V9.37215L7.54426 9.64905C6.6484 10.0993 5.88273 10.8135 5.34237 11.7168C5.00778 12.2761 4.76874 12.8926 4.63473 13.5379C4.61999 13.6088 4.60652 13.6802 4.59434 13.7518Z" fill="#31A528"/>
</svg>
