<svg width="20" height="20" viewBox="0 0 20 20" fill="none" xmlns="http://www.w3.org/2000/svg">
<path d="M3 4.05C3 2.64167 4.17525 1.5 5.625 1.5H11.4078C12.1883 1.5 12.9382 1.80425 13.4981 2.34816L16.0904 4.86635C16.6719 5.43125 17 6.20746 17 7.01819V15.95C17 17.3583 15.8247 18.5 14.375 18.5H5.625C4.17525 18.5 3 17.3583 3 15.95V4.05Z" fill="#FEEAA9" style="mix-blend-mode:multiply"/>
<path fill-rule="evenodd" clip-rule="evenodd" d="M12 6.5V2H4.5C3.94772 2 3.5 2.44772 3.5 3V17C3.5 17.5523 3.94771 18 4.5 18H15.5C16.0523 18 16.5 17.5523 16.5 17V6.5H12ZM17.5 6V17C17.5 18.1046 16.6046 19 15.5 19H4.5C3.39543 19 2.5 18.1046 2.5 17V3C2.5 1.89543 3.39543 1 4.5 1H12.5L17.5 6ZM15.5858 5.5L13 2.91421V5.5H15.5858Z" fill="#E0A600"/>
<path fill-rule="evenodd" clip-rule="evenodd" d="M6 10.5C6 10.2239 6.22386 10 6.5 10H13.5C13.7761 10 14 10.2239 14 10.5C14 10.7761 13.7761 11 13.5 11H6.5C6.22386 11 6 10.7761 6 10.5ZM6 13C6 12.7239 6.22386 12.5 6.5 12.5H10.5C10.7761 12.5 11 12.7239 11 13C11 13.2761 10.7761 13.5 10.5 13.5H6.5C6.22386 13.5 6 13.2761 6 13Z" fill="#E0A600"/>
</svg>
