<svg width="20" height="20" viewBox="0 0 20 20" fill="none" xmlns="http://www.w3.org/2000/svg">
<path fill-rule="evenodd" clip-rule="evenodd" d="M12 2H5C4.44772 2 4 2.44772 4 3L13 3C13 2.44772 12.5523 2 12 2ZM3 3V4V10V11V17V18H4H13H14V17V13.5H14.5C15.8807 13.5 17 12.3807 17 11V7.2003C17.4698 7.00437 17.8 6.54072 17.8 5.99995C17.8 5.28198 17.2179 4.69995 16.5 4.69995C15.782 4.69995 15.2 5.28198 15.2 5.99995C15.2 6.54076 15.5302 7.00444 16 7.20034V11C16 11.8284 15.3284 12.5 14.5 12.5H14V3C14 1.89543 13.1046 1 12 1H5C3.89543 1 3 1.89543 3 3ZM13 4H4V10H13V4ZM13 17V11H4V17H13ZM7 6C7 5.72386 6.77614 5.5 6.5 5.5C6.22386 5.5 6 5.72386 6 6V8C6 8.27614 6.22386 8.5 6.5 8.5C6.77614 8.5 7 8.27614 7 8V6ZM10.5 5.5C10.7761 5.5 11 5.72386 11 6V8C11 8.27614 10.7761 8.5 10.5 8.5C10.2239 8.5 10 8.27614 10 8V6C10 5.72386 10.2239 5.5 10.5 5.5ZM9 6C9 5.72386 8.77614 5.5 8.5 5.5C8.22386 5.5 8 5.72386 8 6V8C8 8.27614 8.22386 8.5 8.5 8.5C8.77614 8.5 9 8.27614 9 8V6Z" fill="black" fill-opacity="0.87"/>
</svg>