<svg xmlns="http://www.w3.org/2000/svg" width="24" height="24" viewBox="0 0 24 24" fill="none">
<path fill-rule="evenodd" clip-rule="evenodd" d="M5.50007 2.84961C3.48423 2.84961 1.85007 4.48377 1.85007 6.49961V11.4728C1.85001 11.4818 1.84998 11.4908 1.84998 11.4998V18.2775C1.84998 19.8638 3.13591 21.1498 4.7222 21.1498H18.5C20.5158 21.1498 22.15 19.5156 22.15 17.4998V13.5666C22.15 13.5629 22.1501 13.5591 22.1501 13.5553V8.49985C22.1501 6.48401 20.5159 4.84985 18.5001 4.84985H11.292L9.70799 3.06778L9.51406 2.84961H9.22216H5.50007ZM20.8501 8.70688V8.49985C20.8501 7.20198 19.7979 6.14985 18.5001 6.14985H11.0001H10.7082L10.5142 5.93168L8.93026 4.14961H5.50007C4.2022 4.14961 3.15007 5.20174 3.15007 6.49961V8.70672C3.78501 8.17196 4.60487 7.84976 5.49998 7.84976H18.5C19.3952 7.84976 20.2151 8.17203 20.8501 8.70688ZM3.14997 13.5667C3.15004 13.5629 3.15007 13.5591 3.15007 13.5553V11.4781C3.16172 10.1902 4.20934 9.14976 5.49998 9.14976H18.5C19.7978 9.14976 20.85 10.2019 20.85 11.4998V17.4998C20.85 18.7976 19.7978 19.8498 18.5 19.8498H4.7222C3.85388 19.8498 3.14997 19.1458 3.14997 18.2775V13.5667Z" fill="white" fill-opacity="0.4"/>
</svg>