<svg xmlns="http://www.w3.org/2000/svg" width="24" height="24" viewBox="0 0 24 24" fill="none">
<path fill-rule="evenodd" clip-rule="evenodd" d="M12.207 2.07428L11.9981 2.00293L11.789 2.07349L3.46015 4.88399L3.01762 5.03332L3.01797 5.50036C3.01878 6.58388 3.14012 7.74121 3.27837 8.71276C3.32895 9.06817 3.65806 9.31528 4.01346 9.26471C4.36887 9.21413 4.61598 8.88502 4.56541 8.52962C4.4519 7.73196 4.35375 6.82797 4.32587 5.96388L11.9956 3.37582L19.5692 5.96319C19.5335 7.82454 19.2831 9.44038 18.8888 10.8536C18.1411 13.5327 16.8675 15.5127 15.5077 17.0729C15.1074 17.5321 14.699 17.9558 14.2929 18.3512C14.0357 18.6016 14.0302 19.0131 14.2806 19.2703C14.531 19.5275 14.9425 19.533 15.1997 19.2826C15.6262 18.8674 16.0599 18.4179 16.4877 17.927C17.9479 16.2516 19.3313 14.1041 20.1409 11.203C20.6014 9.55276 20.8736 7.66821 20.8736 5.49987V5.03505L20.4337 4.88478L12.207 2.07428ZM3.99844 13.0302C3.99844 11.3725 5.34228 10.0286 7 10.0286C8.65772 10.0286 10.0016 11.3725 10.0016 13.0302V13.9999H10.75C11.4404 13.9999 12 14.5969 12 15.3333V20.6666C12 21.403 11.4404 21.9999 10.75 21.9999H3.25C2.55964 21.9999 2 21.403 2 20.6666V15.3333C2 14.5969 2.55964 13.9999 3.25 13.9999H3.99844V13.0302ZM8.70156 13.0302V13.9999H5.29844V13.0302C5.29844 12.0904 6.06025 11.3286 7 11.3286C7.93975 11.3286 8.70156 12.0904 8.70156 13.0302ZM8.00781 17.5161C8.00781 17.9136 7.77643 18.257 7.44115 18.4187V19.0809C7.44115 19.3206 7.24714 19.5148 7.00781 19.5148C6.76849 19.5148 6.57448 19.3206 6.57448 19.0809V18.4187C6.2392 18.257 6.00781 17.9136 6.00781 17.5161C6.00781 16.9631 6.45553 16.5148 7.00781 16.5148C7.5601 16.5148 8.00781 16.9631 8.00781 17.5161Z" fill="white" fill-opacity="0.4"/>
</svg>