<svg width="20" height="20" viewBox="0 0 20 20" fill="none" xmlns="http://www.w3.org/2000/svg">
<path d="M15.1257 7.5L17.3289 10L15.1257 12.5" stroke="black" stroke-opacity="0.4" stroke-linecap="round"/>
<path d="M4.87429 7.5L2.67108 10L4.87429 12.5" stroke="black" stroke-opacity="0.4" stroke-linecap="round"/>
<path d="M7 10.8C7.44182 10.8 7.8 10.4418 7.8 9.99995C7.8 9.55812 7.44182 9.19995 7 9.19995C6.55817 9.19995 6.2 9.55812 6.2 9.99995C6.2 10.4418 6.55817 10.8 7 10.8Z" fill="black" fill-opacity="0.4"/>
<path d="M13 10.8002C13.4418 10.8002 13.8 10.442 13.8 10.0002C13.8 9.55837 13.4418 9.2002 13 9.2002C12.5582 9.2002 12.2 9.55837 12.2 10.0002C12.2 10.442 12.5582 10.8002 13 10.8002Z" fill="black" fill-opacity="0.4"/>
<path d="M9.99838 10.8C10.4402 10.8 10.7984 10.4418 10.7984 9.99995C10.7984 9.55812 10.4402 9.19995 9.99838 9.19995C9.55655 9.19995 9.19838 9.55812 9.19838 9.99995C9.19838 10.4418 9.55655 10.8 9.99838 10.8Z" fill="black" fill-opacity="0.4"/>
</svg>
