<svg width="24" height="24" viewBox="0 0 24 24" fill="none" xmlns="http://www.w3.org/2000/svg">
<path fill-rule="evenodd" clip-rule="evenodd" d="M12 20.7C16.8049 20.7 20.7 16.8049 20.7 12C20.7 7.19512 16.8049 3.3 12 3.3C7.19512 3.3 3.3 7.19512 3.3 12C3.3 16.8049 7.19512 20.7 12 20.7ZM12 22C17.5228 22 22 17.5228 22 12C22 6.47715 17.5228 2 12 2C6.47715 2 2 6.47715 2 12C2 17.5228 6.47715 22 12 22ZM12.0001 19.0241C14.2303 19.0241 16.2098 17.9504 17.4498 16.2918C16.4989 13.8904 14.4163 12.2241 12.0001 12.2241C9.58382 12.2241 7.50117 13.8904 6.55029 16.2918C7.79031 17.9504 9.7698 19.0241 12.0001 19.0241ZM12 11C13.3807 11 14.5 9.88071 14.5 8.5C14.5 7.11929 13.3807 6 12 6C10.6193 6 9.5 7.11929 9.5 8.5C9.5 9.88071 10.6193 11 12 11Z" fill="black" fill-opacity="0.87"/>
</svg>
