<svg width="24" height="24" viewBox="0 0 24 24" fill="none" xmlns="http://www.w3.org/2000/svg">
<path fill-rule="evenodd" clip-rule="evenodd" d="M12.2555 1.93242L11.9984 1.8446L11.7411 1.93145L3.41219 4.74195L2.86754 4.92574L2.86797 5.50056C2.86879 6.59397 2.99113 7.75903 3.12987 8.73398C3.19211 9.1714 3.59717 9.47554 4.0346 9.4133C4.47202 9.35105 4.77616 8.94599 4.71391 8.50857C4.60568 7.74803 4.51187 6.89296 4.47976 6.07035L11.9953 3.53431L19.4169 6.06975C19.3739 7.87313 19.1273 9.44074 18.7443 10.8133C18.0038 13.4669 16.7428 15.4275 15.3946 16.9744C14.9975 17.43 14.592 17.8507 14.1882 18.2438C13.8717 18.552 13.8649 19.0585 14.1731 19.3751C14.4813 19.6916 14.9878 19.6984 15.3044 19.3902C15.7332 18.9727 16.1698 18.5202 16.6008 18.0256C18.0726 16.3369 19.4686 14.1701 20.2854 11.2434C20.7498 9.5792 21.0236 7.68102 21.0236 5.49996V4.92787L20.4822 4.74292L12.2555 1.93242ZM3.84844 13.0303C3.84844 11.2897 5.25944 9.87872 7 9.87872C8.74056 9.87872 10.1516 11.2897 10.1516 13.0303V14H10.75C11.4404 14 12 14.597 12 15.3333V20.6667C12 21.4031 11.4404 22 10.75 22H3.25C2.55964 22 2 21.4031 2 20.6667V15.3333C2 14.597 2.55964 14 3.25 14H3.84844V13.0303ZM8.55156 13.0303V14H5.44844V13.0303C5.44844 12.1734 6.1431 11.4787 7 11.4787C7.8569 11.4787 8.55156 12.1734 8.55156 13.0303ZM8.00781 17.5161C8.00781 17.9137 7.77643 18.2571 7.44115 18.4188V19.081C7.44115 19.3206 7.24714 19.5149 7.00781 19.5149C6.76849 19.5149 6.57448 19.3206 6.57448 19.081V18.4188C6.2392 18.2571 6.00781 17.9137 6.00781 17.5161C6.00781 16.9632 6.45553 16.5149 7.00781 16.5149C7.5601 16.5149 8.00781 16.9632 8.00781 17.5161Z" fill="black" fill-opacity="0.87"/>
</svg>
