<svg width="20" height="20" viewBox="0 0 20 20" fill="none" xmlns="http://www.w3.org/2000/svg">
<path fill-rule="evenodd" clip-rule="evenodd" d="M3 19V2.69412C3 1.75848 3.7835 1 4.75 1H15.25C16.2165 1 17 1.75848 17 2.69412V19L10 14.2353L3 19Z" fill="#448AFF"/>
<path fill-rule="evenodd" clip-rule="evenodd" d="M10 13.0256L16 17.1097V2.69412C16 2.34111 15.6951 2 15.25 2H4.75C4.30495 2 4 2.34111 4 2.69412V17.1097L10 13.0256ZM3 19V2.69412C3 1.75848 3.7835 1 4.75 1H15.25C16.2165 1 17 1.75848 17 2.69412V19L10 14.2353L3 19Z" fill="#2979FF"/>
</svg>
