<svg width="20" height="20" viewBox="0 0 20 20" fill="none" xmlns="http://www.w3.org/2000/svg">
<path fill-rule="evenodd" clip-rule="evenodd" d="M2.5 5.5C2.5 5.22386 2.72386 5 3 5H17C17.2761 5 17.5 5.22386 17.5 5.5C17.5 5.77614 17.2761 6 17 6H3C2.72386 6 2.5 5.77614 2.5 5.5ZM2.5 10C2.5 9.72386 2.72386 9.5 3 9.5H17C17.2761 9.5 17.5 9.72386 17.5 10C17.5 10.2761 17.2761 10.5 17 10.5H3C2.72386 10.5 2.5 10.2761 2.5 10ZM3 14C2.72386 14 2.5 14.2239 2.5 14.5C2.5 14.7761 2.72386 15 3 15H13C13.2761 15 13.5 14.7761 13.5 14.5C13.5 14.2239 13.2761 14 13 14H3Z" fill="#2979FF"/>
</svg>
