<svg xmlns="http://www.w3.org/2000/svg" width="24" height="24" viewBox="0 0 24 24" fill="none">
<path fill-rule="evenodd" clip-rule="evenodd" d="M18 3.3H6C5.06112 3.3 4.3 4.06112 4.3 5V19C4.3 19.9389 5.06112 20.7 6 20.7H18C18.9389 20.7 19.7 19.9389 19.7 19V5C19.7 4.06112 18.9389 3.3 18 3.3ZM6 2C4.34315 2 3 3.34315 3 5V19C3 20.6569 4.34315 22 6 22H18C19.6569 22 21 20.6569 21 19V5C21 3.34315 19.6569 2 18 2H6ZM10.6729 5.74611C10.9156 6.01062 10.898 6.4218 10.6334 6.6645L8.45361 8.6645L8.01416 9.06769L7.57472 8.66449L6.69544 7.85771C6.43093 7.61501 6.41325 7.20384 6.65595 6.93932C6.89865 6.67481 7.30982 6.65713 7.57434 6.89983L8.01418 7.3034L9.75455 5.7066C10.0191 5.4639 10.4302 5.48159 10.6729 5.74611ZM10.6334 11.1674C10.898 10.9247 10.9156 10.5136 10.6729 10.249C10.4302 9.98452 10.0191 9.96683 9.75455 10.2095L8.01418 11.8063L7.57434 11.4028C7.30982 11.1601 6.89865 11.1777 6.65595 11.4423C6.41325 11.7068 6.43093 12.1179 6.69544 12.3606L7.57472 13.1674L8.01416 13.5706L8.45361 13.1674L10.6334 11.1674ZM10.6729 14.7525C10.9156 15.017 10.898 15.4281 10.6334 15.6708L8.45361 17.6708L8.01416 18.074L7.57472 17.6708L6.69544 16.8641C6.43093 16.6214 6.41325 16.2102 6.65595 15.9457C6.89865 15.6812 7.30982 15.6635 7.57434 15.9062L8.01418 16.3097L9.75455 14.7129C10.0191 14.4702 10.4302 14.4879 10.6729 14.7525ZM13 6.85C12.641 6.85 12.35 7.14102 12.35 7.5C12.35 7.85898 12.641 8.15 13 8.15H16.9059C17.2649 8.15 17.5559 7.85898 17.5559 7.5C17.5559 7.14102 17.2649 6.85 16.9059 6.85H13ZM12.35 12.0029C12.35 11.6439 12.641 11.3529 13 11.3529H16.9059C17.2649 11.3529 17.5559 11.6439 17.5559 12.0029C17.5559 12.3619 17.2649 12.6529 16.9059 12.6529H13C12.641 12.6529 12.35 12.3619 12.35 12.0029ZM13 15.8563C12.641 15.8563 12.35 16.1474 12.35 16.5063C12.35 16.8653 12.641 17.1563 13 17.1563H16.9059C17.2649 17.1563 17.5559 16.8653 17.5559 16.5063C17.5559 16.1474 17.2649 15.8563 16.9059 15.8563H13Z" fill="white" fill-opacity="0.4"/>
</svg>