<svg width="20" height="20" viewBox="0 0 20 20" fill="none" xmlns="http://www.w3.org/2000/svg">
<rect x="1" y="4" width="18" height="14" rx="4" fill="white"/>
<circle cx="7.00001" cy="10.3" r="1.3" fill="#448AFF"/>
<path d="M10 15C7 15 5.8 15 4 15C4 13.1223 5.34315 11.6001 7 11.6001C8.65685 11.6001 10 13.1223 10 15Z" fill="#448AFF"/>
<path fill-rule="evenodd" clip-rule="evenodd" d="M11 10.5C11 10.2239 11.2239 10 11.5 10H15.5C15.7761 10 16 10.2239 16 10.5C16 10.7761 15.7761 11 15.5 11H11.5C11.2239 11 11 10.7761 11 10.5Z" fill="#7E8C99"/>
<path fill-rule="evenodd" clip-rule="evenodd" d="M11 13.5C11 13.2239 11.2239 13 11.5 13H14.5C14.7761 13 15 13.2239 15 13.5C15 13.7761 14.7761 14 14.5 14H11.5C11.2239 14 11 13.7761 11 13.5Z" fill="#7E8C99"/>
<path fill-rule="evenodd" clip-rule="evenodd" d="M3.5 5C2.67157 5 2 5.67157 2 6.5V15.5C2 16.3284 2.67157 17 3.5 17H16.5C17.3284 17 18 16.3284 18 15.5V6.5C18 5.67157 17.3284 5 16.5 5H11V4H16.5C17.8807 4 19 5.11929 19 6.5V15.5C19 16.8807 17.8807 18 16.5 18H3.5C2.11929 18 1 16.8807 1 15.5V6.5C1 5.11929 2.11929 4 3.5 4H9V5H3.5Z" fill="#7E8C99"/>
<rect x="9" y="2" width="2" height="5" fill="#7E8C99"/>
</svg>
