<svg width="20" height="20" viewBox="0 0 20 20" fill="none" xmlns="http://www.w3.org/2000/svg">
<path fill-rule="evenodd" clip-rule="evenodd" d="M18 7.67643V15.9939C18 17.0985 17.1046 17.9939 16 17.9939H15V13.9939C15 12.3371 13.6569 10.9939 12 10.9939H8C6.34315 10.9939 5 12.3371 5 13.9939V17.9939H4C2.89543 17.9939 2 17.0985 2 15.9939V7.67643C2 6.9797 2.36259 6.33318 2.9571 5.96987L8.9571 2.3032C9.59733 1.91195 10.4027 1.91195 11.0429 2.3032L17.0429 5.96987C17.6374 6.33318 18 6.9797 18 7.67643ZM6 17.9939H14V13.9939C14 12.8894 13.1046 11.9939 12 11.9939H8C6.89543 11.9939 6 12.8894 6 13.9939V17.9939ZM5 18.9939H4C2.34315 18.9939 1 17.6508 1 15.9939V7.67643C1 6.63133 1.54389 5.66155 2.43565 5.11659L8.43565 1.44992C9.39599 0.863047 10.604 0.863048 11.5644 1.44992L17.5644 5.11659C18.4561 5.66155 19 6.63133 19 7.67643V15.9939C19 17.6508 17.6569 18.9939 16 18.9939H15H14H6H5Z" fill="white" fill-opacity="0.87"/>
</svg>
