<svg width="24" height="24" viewBox="0 0 24 24" fill="none" xmlns="http://www.w3.org/2000/svg">
<path fill-rule="evenodd" clip-rule="evenodd" d="M7 3.6H13.7V7.5V8.3H14.5H18.4V19C18.4 19.7732 17.7732 20.4 17 20.4H7C6.2268 20.4 5.6 19.7732 5.6 19V5C5.6 4.2268 6.2268 3.6 7 3.6ZM15.3 4.56274L17.4373 6.7H15.3V4.56274ZM20 7L15 2H7C5.34315 2 4 3.34315 4 5V19C4 20.6569 5.34315 22 7 22H17C18.6569 22 20 20.6569 20 19V7ZM7.7 12.5C7.7 12.0582 8.05817 11.7 8.5 11.7H12H15.5C15.9418 11.7 16.3 12.0582 16.3 12.5C16.3 12.9418 15.9418 13.3 15.5 13.3H12H8.5C8.05817 13.3 7.7 12.9418 7.7 12.5ZM7.7 15.5C7.7 15.0582 8.05817 14.7 8.5 14.7H12H12.5C12.9418 14.7 13.3 15.0582 13.3 15.5C13.3 15.9418 12.9418 16.3 12.5 16.3H12H8.5C8.05817 16.3 7.7 15.9418 7.7 15.5Z" fill="black" fill-opacity="0.87"/>
</svg>
