<svg width="20" height="20" viewBox="0 0 20 20" fill="none" xmlns="http://www.w3.org/2000/svg">
<path d="M5 2C3.34315 2 2 3.34315 2 5V15C2 16.6569 3.34315 18 5 18H15C16.6569 18 18 16.6569 18 15V5C18 3.34315 16.6569 2 15 2H5Z" fill="#2979FF"/>
<path fill-rule="evenodd" clip-rule="evenodd" d="M14.8198 6.70496C15.072 6.96043 15.0693 7.37198 14.8139 7.62418L8.59804 13.7606L5.17803 10.2495C4.92755 9.99233 4.93296 9.58081 5.19011 9.33033C5.44727 9.07985 5.85879 9.08526 6.10927 9.34241L8.61609 11.916L13.9005 6.69906C14.156 6.44685 14.5676 6.4495 14.8198 6.70496Z" fill="white"/>
</svg>
