<svg width="41" height="41" viewBox="0 0 41 41" fill="none" xmlns="http://www.w3.org/2000/svg">
<path fill-rule="evenodd" clip-rule="evenodd" d="M14 11H23.7574H24V11.0098C24.7068 11.0671 25.3735 11.3735 25.8787 11.8787L28.1213 14.1213C28.6839 14.6839 29 15.447 29 16.2426V26C29 27.6569 27.6569 29 26 29H14C12.3431 29 11 27.6569 11 26V14C11 12.3431 12.3431 11 14 11ZM24 12.0148C24.441 12.0687 24.8541 12.2684 25.1716 12.5858L27.4142 14.8284C27.7893 15.2035 28 15.7122 28 16.2426V26C28 27.1046 27.1046 28 26 28H14C12.8954 28 12 27.1046 12 26V14C12 12.8954 12.8954 12 14 12V17H24V12.0148ZM22 12H19V16H22V12ZM20 24C21.1046 24 22 23.1046 22 22C22 20.8954 21.1046 20 20 20C18.8954 20 18 20.8954 18 22C18 23.1046 18.8954 24 20 24ZM20 25C21.6569 25 23 23.6569 23 22C23 20.3431 21.6569 19 20 19C18.3431 19 17 20.3431 17 22C17 23.6569 18.3431 25 20 25Z" fill="white"/>
</svg>
