<svg width="24" height="24" viewBox="0 0 24 24" fill="none" xmlns="http://www.w3.org/2000/svg">
<path fill-rule="evenodd" clip-rule="evenodd" d="M6 7C6 5.89543 6.89543 5 8 5H19C20.1046 5 21 5.89543 21 7V21C21 22.1046 20.1046 23 19 23H8C6.89543 23 6 22.1046 6 21V7ZM12.5 10.5H14.5V13H17V15H14.5V17.5H12.5V15H10V13L12.5 13V10.5Z" fill="black" fill-opacity="0.87"/>
<path fill-rule="evenodd" clip-rule="evenodd" d="M15 3H4L4 17H2V3C2 1.89543 2.89543 1 4 1H15V3Z" fill="black" fill-opacity="0.87"/>
</svg>
