<svg width="20" height="20" viewBox="0 0 20 20" fill="none" xmlns="http://www.w3.org/2000/svg">
<path d="M5 2C3.34315 2 2 3.34315 2 5V15C2 16.6569 3.34315 18 5 18H15C16.6569 18 18 16.6569 18 15V5C18 3.34315 16.6569 2 15 2H5Z" fill="white" fill-opacity="0.08"/>
<path fill-rule="evenodd" clip-rule="evenodd" d="M15 3H5C3.89543 3 3 3.89543 3 5V15C3 16.1046 3.89543 17 5 17H15C16.1046 17 17 16.1046 17 15V5C17 3.89543 16.1046 3 15 3ZM5 2C3.34315 2 2 3.34315 2 5V15C2 16.6569 3.34315 18 5 18H15C16.6569 18 18 16.6569 18 15V5C18 3.34315 16.6569 2 15 2H5Z" fill="white" fill-opacity="0.54"/>
<path fill-rule="evenodd" clip-rule="evenodd" d="M14.8197 6.70494C15.0719 6.96041 15.0692 7.37196 14.8138 7.62416L8.59794 13.7606L5.17793 10.2495C4.92745 9.99231 4.93286 9.58079 5.19002 9.33031C5.44717 9.07982 5.85869 9.08523 6.10918 9.34239L8.61599 11.916L13.9004 6.69903C14.1559 6.44683 14.5675 6.44947 14.8197 6.70494Z" fill="white" fill-opacity="0.54"/>
</svg>