<svg width="20" height="20" viewBox="0 0 20 20" fill="none" xmlns="http://www.w3.org/2000/svg">
<path d="M16.9726 4.60829L9.99999 2.25293L3.02698 4.60829C3.02698 6.96301 3.30717 9.02023 4.06401 10.9047C5.06233 13.3908 6.8909 15.5764 9.99977 17.7474C10.6025 17.3266 11.157 16.9051 11.6667 16.4811" stroke="white" stroke-opacity="0.54" stroke-linecap="round"/>
<path fill-rule="evenodd" clip-rule="evenodd" d="M10 9.00415C10 8.45187 10.4477 8.00415 11 8.00415H18C18.5523 8.00415 19 8.45187 19 9.00415V11.0042H15.5C15.5 10.728 15.2761 10.5042 15 10.5042H14C13.7239 10.5042 13.5 10.728 13.5 11.0042H10V9.00415ZM13.5 12.0042H10V14.0042C10 14.5564 10.4477 15.0042 11 15.0042H18C18.5523 15.0042 19 14.5564 19 14.0042V12.0042H15.5C15.5 12.2803 15.2761 12.5042 15 12.5042H14C13.7239 12.5042 13.5 12.2803 13.5 12.0042Z" fill="white" fill-opacity="0.54"/>
<path d="M16 8.00415V7.50415C16 6.95187 15.5523 6.50415 15 6.50415H14C13.4477 6.50415 13 6.95187 13 7.50415V8.00415" stroke="white" stroke-opacity="0.54"/>
</svg>
