<svg width="20" height="20" viewBox="0 0 20 20" fill="none" xmlns="http://www.w3.org/2000/svg">
<path d="M15 10C15.5523 10 16 9.55228 16 9C16 8.44772 15.5523 8 15 8C14.4477 8 14 8.44772 14 9C14 9.55228 14.4477 10 15 10Z" fill="black" fill-opacity="0.87"/>
<path d="M7 13.5C7 13.2239 7.22386 13 7.5 13H12.5C12.7761 13 13 13.2239 13 13.5C13 13.7761 12.7761 14 12.5 14H7.5C7.22386 14 7 13.7761 7 13.5Z" fill="black" fill-opacity="0.87"/>
<path d="M7.5 15C7.22386 15 7 15.2239 7 15.5C7 15.7761 7.22386 16 7.5 16H12.5C12.7761 16 13 15.7761 13 15.5C13 15.2239 12.7761 15 12.5 15H7.5Z" fill="black" fill-opacity="0.87"/>
<path fill-rule="evenodd" clip-rule="evenodd" d="M5.5 3V6H4C2.89543 6 2 6.89543 2 8V14H5V18H15V14H18V8C18 6.89543 17.1046 6 16 6H14.5V3H5.5ZM17 13V8C17 7.44772 16.5523 7 16 7H4C3.44772 7 3 7.44772 3 8V13H5V11H15V13H17ZM6 17H14V12H6V17ZM13.5 4H6.5V6H13.5V4Z" fill="black" fill-opacity="0.87"/>
</svg>
