<svg xmlns="http://www.w3.org/2000/svg" width="20" height="20" viewBox="0 0 20 20" fill="none">
<path fill-rule="evenodd" clip-rule="evenodd" d="M15 2H17V15.6972L16 17.1972L15 15.6972V2ZM17.8321 16.2519L16.6009 18.0986L16 19L15.3991 18.0986L14.1679 16.2519C14.0584 16.0877 14 15.8946 14 15.6972V2C14 1.44772 14.4477 1 15 1H17C17.5523 1 18 1.44772 18 2V15.6972C18 15.8946 17.9416 16.0877 17.8321 16.2519ZM3 4C2.44772 4 2 4.44772 2 5C2 5.55228 2.44772 6 3 6H10.5C11.0523 6 11.5 5.55228 11.5 5C11.5 4.44772 11.0523 4 10.5 4H3ZM2.5 8C2.22386 8 2 8.22386 2 8.5C2 8.77614 2.22386 9 2.5 9H11C11.2761 9 11.5 8.77614 11.5 8.5C11.5 8.22386 11.2761 8 11 8H2.5ZM2 11.5C2 11.2239 2.22386 11 2.5 11H11C11.2761 11 11.5 11.2239 11.5 11.5C11.5 11.7761 11.2761 12 11 12H2.5C2.22386 12 2 11.7761 2 11.5ZM2.5 14C2.22386 14 2 14.2239 2 14.5C2 14.7761 2.22386 15 2.5 15H5.5C5.77614 15 6 14.7761 6 14.5C6 14.2239 5.77614 14 5.5 14H2.5ZM7.5 14.5C7.5 14.2239 7.72386 14 8 14H11C11.2761 14 11.5 14.2239 11.5 14.5C11.5 14.7761 11.2761 15 11 15H8C7.72386 15 7.5 14.7761 7.5 14.5Z" fill="white" fill-opacity="0.54"/>
</svg>