<svg width="25" height="24" viewBox="0 0 25 24" fill="none" xmlns="http://www.w3.org/2000/svg">
<path d="M11.4869 13.9153C11.4869 13.2881 11.5624 12.7885 11.7133 12.4167C11.8643 12.0448 12.1395 11.6797 12.5391 11.3212C12.9431 10.9583 13.2117 10.6649 13.3449 10.4409C13.478 10.2124 13.5446 9.97267 13.5446 9.72177C13.5446 8.96461 13.1984 8.58602 12.5058 8.58602C12.1773 8.58602 11.9131 8.68907 11.7133 8.89516C11.518 9.09677 11.4159 9.37679 11.407 9.73522H9.47583C9.48471 8.87948 9.75774 8.20968 10.2949 7.72581C10.8365 7.24194 11.5735 7 12.5058 7C13.447 7 14.1773 7.23073 14.6967 7.6922C15.2161 8.14919 15.4758 8.7966 15.4758 9.63441C15.4758 10.0152 15.3915 10.3759 15.2228 10.7164C15.0541 11.0524 14.7588 11.4265 14.3371 11.8387L13.7977 12.3562C13.4603 12.6832 13.2672 13.0663 13.2183 13.5054L13.1917 13.9153H11.4869Z" fill="white" fill-opacity="0.87"/>
<path d="M11.2938 15.9785C11.2938 15.6783 11.3937 15.4319 11.5935 15.2392C11.7977 15.0421 12.0574 14.9435 12.3726 14.9435C12.6878 14.9435 12.9453 15.0421 13.1451 15.2392C13.3493 15.4319 13.4514 15.6783 13.4514 15.9785C13.4514 16.2742 13.3515 16.5184 13.1517 16.711C12.9564 16.9037 12.6967 17 12.3726 17C12.0485 17 11.7866 16.9037 11.5868 16.711C11.3915 16.5184 11.2938 16.2742 11.2938 15.9785Z" fill="white" fill-opacity="0.87"/>
<path fill-rule="evenodd" clip-rule="evenodd" d="M12.4758 22C17.9987 22 22.4758 17.5228 22.4758 12C22.4758 6.47715 17.9987 2 12.4758 2C6.95298 2 2.47583 6.47715 2.47583 12C2.47583 17.5228 6.95298 22 12.4758 22ZM12.4758 20.7C17.2807 20.7 21.1758 16.8049 21.1758 12C21.1758 7.19512 17.2807 3.3 12.4758 3.3C7.67095 3.3 3.77583 7.19512 3.77583 12C3.77583 16.8049 7.67095 20.7 12.4758 20.7Z" fill="white" fill-opacity="0.87"/>
</svg>
