<svg width="20" height="20" viewBox="0 0 20 20" fill="none" xmlns="http://www.w3.org/2000/svg">
<path d="M6.5 2.00302C4.567 2.00302 3 3.57002 3 5.50302V14.503C3 14.7792 3.22386 15.003 3.5 15.003C3.77614 15.003 4 14.7792 4 14.503V5.50302C4 4.12231 5.11929 3.00302 6.5 3.00302H13.5C13.7761 3.00302 14 2.77916 14 2.50302C14 2.22688 13.7761 2.00302 13.5 2.00302H6.5Z" fill="black" fill-opacity="0.87"/>
<path fill-rule="evenodd" clip-rule="evenodd" d="M6.00781 8C6.00781 6.34315 7.35096 5 9.00781 5H14C15.6569 5 17 6.34315 17 8V15C17 16.6569 15.6569 18 14 18H9.00781C7.35096 18 6.00781 16.6569 6.00781 15V8ZM9.00781 6H14C15.1046 6 16 6.89543 16 8V15C16 16.1046 15.1046 17 14 17H9.00781C7.90324 17 7.00781 16.1046 7.00781 15V8C7.00781 6.89543 7.90324 6 9.00781 6Z" fill="black" fill-opacity="0.87"/>
</svg>
