<svg width="24" height="24" viewBox="0 0 24 24" fill="none" xmlns="http://www.w3.org/2000/svg">
<path d="M20.7653 4.15381C21.0192 3.89997 21.0192 3.48841 20.7653 3.23457C20.5115 2.98073 20.0999 2.98073 19.8461 3.23457L11.9999 11.0808L4.15373 3.23457C3.89988 2.98073 3.48833 2.98073 3.23449 3.23457C2.98065 3.48841 2.98065 3.89997 3.23449 4.15381L11.0807 12L3.23433 19.8463C2.98049 20.1002 2.98049 20.5117 3.23433 20.7656C3.48817 21.0194 3.89972 21.0194 4.15356 20.7656L11.9999 12.9192L19.8463 20.7656C20.1001 21.0194 20.5117 21.0194 20.7655 20.7656C21.0193 20.5117 21.0193 20.1002 20.7655 19.8463L12.9191 12L20.7653 4.15381Z" fill="white" fill-opacity="0.7"/>
</svg>
