<svg width="20" height="20" viewBox="0 0 20 20" fill="none" xmlns="http://www.w3.org/2000/svg">
<path d="M17.4194 4.22779L9.99975 1.69006L2.58077 4.2278V4.615C2.58077 7.45093 3.06293 10.2933 4.41357 12.5803C4.56569 12.8379 4.89782 12.9234 5.15541 12.7713C5.413 12.6192 5.4985 12.2871 5.34638 12.0295C4.18962 10.0707 3.70994 7.59537 3.66726 5.00112L9.99977 2.83502L16.3335 5.00132C16.2992 7.51012 15.9225 9.62872 14.9746 11.5527C13.9792 13.5731 12.3307 15.4259 9.68705 17.295C9.44278 17.4677 9.38477 17.8057 9.55747 18.05C9.73018 18.2943 10.0682 18.3523 10.3125 18.1796C13.0601 16.2369 14.8506 14.2557 15.9464 12.0315C17.0414 9.80885 17.4194 7.39052 17.4194 4.615V4.22779Z" fill="black" fill-opacity="0.54"/>
<path d="M1.67114 15.4171C1.67114 15.118 1.91366 14.8755 2.21282 14.8755H7.79314C8.09231 14.8755 8.33482 15.118 8.33482 15.4171C8.33482 15.7163 8.09231 15.9588 7.79314 15.9588H2.21282C1.91366 15.9588 1.67114 15.7163 1.67114 15.4171Z" fill="black" fill-opacity="0.54"/>
</svg>
