<svg width="20" height="20" viewBox="0 0 20 20" fill="none" xmlns="http://www.w3.org/2000/svg">
<path fill-rule="evenodd" clip-rule="evenodd" d="M11.9435 2.50439C11.9435 2.22825 12.1674 2.00439 12.4435 2.00439H17.9997V7.56395C17.9997 7.84009 17.7758 8.06395 17.4997 8.06395C17.2235 8.06395 16.9997 7.84009 16.9997 7.56395V3.7115L10.2715 10.4397C10.0763 10.6349 9.75968 10.6349 9.56442 10.4397C9.36915 10.2444 9.36915 9.92781 9.56442 9.73254L16.2926 3.00439H12.4435C12.1674 3.00439 11.9435 2.78054 11.9435 2.50439Z" fill="black" fill-opacity="0.87"/>
<path fill-rule="evenodd" clip-rule="evenodd" d="M6.5 5.0015C5.11929 5.0015 4 6.12078 4 7.5015V14.5015C4 15.8822 5.11929 17.0015 6.5 17.0015H12.5C13.8807 17.0015 15 15.8822 15 14.5015V10.8357C15 10.5596 15.2239 10.3357 15.5 10.3357C15.7761 10.3357 16 10.5596 16 10.8357V14.5015C16 16.4345 14.433 18.0015 12.5 18.0015H6.5C4.567 18.0015 3 16.4345 3 14.5015V7.5015C3 5.5685 4.567 4.0015 6.5 4.0015H9.26284C9.53898 4.0015 9.76284 4.22535 9.76284 4.5015C9.76284 4.77764 9.53898 5.0015 9.26284 5.0015H6.5Z" fill="black" fill-opacity="0.87"/>
</svg>
