<svg width="20" height="20" viewBox="0 0 20 20" fill="none" xmlns="http://www.w3.org/2000/svg">
<g clip-path="url(#clip0_5418_85655)">
<path fill-rule="evenodd" clip-rule="evenodd" d="M13.4345 2.44279C14.0202 1.857 14.97 1.857 15.5558 2.44279L17.5694 4.45639C18.1552 5.04218 18.1552 5.99193 17.5694 6.57771L7.62307 16.524C7.4209 16.7262 7.16517 16.8664 6.88599 16.9281L2.01228 18.0047L3.08419 13.1274C3.14568 12.8476 3.286 12.5912 3.48856 12.3887L13.4345 2.44279ZM14.8487 3.14989C14.6534 2.95463 14.3368 2.95463 14.1416 3.14989L12.2595 5.03192L14.9802 7.75264L16.8623 5.87061C17.0575 5.67535 17.0575 5.35876 16.8623 5.1635L14.8487 3.14989ZM14.2731 8.45974L11.5524 5.73903L4.19567 13.0958C4.12815 13.1633 4.08138 13.2488 4.06088 13.342L3.32494 16.6906L6.67027 15.9516C6.76333 15.931 6.84858 15.8843 6.91597 15.8169L14.2731 8.45974Z" fill="#2979FF"/>
</g>
<defs>
<clipPath id="clip0_5418_85655">
<rect width="20" height="20" fill="white"/>
</clipPath>
</defs>
</svg>
