<svg width="20" height="20" viewBox="0 0 20 20" fill="none" xmlns="http://www.w3.org/2000/svg">
<path fill-rule="evenodd" clip-rule="evenodd" d="M2.00132 10.101C2.00044 10.0889 2 10.0767 2 10.0644V6.2C2 4.43267 3.43271 2.99998 5.20003 3L7.4671 3.00002L9.00058 4.49463H14.8C16.5673 4.49463 18 5.92732 18 7.69463V9.90838C18.0026 9.96025 18.0039 10.0125 18.0039 10.065H17.9997C17.9907 10.3332 17.7704 10.5478 17.5 10.5478C17.2239 10.5478 17 10.324 17 10.0478V9.93632C16.9335 8.84424 16.026 7.97952 14.9172 7.98096L5.19714 7.99359C3.98323 7.99517 3 8.97968 3 10.1936L3.00011 14.8003C3.00011 16.0154 3.98509 17.0003 5.20011 17.0003H7.5C7.77614 17.0003 8 17.2242 8 17.5003C8 17.7765 7.77614 18.0003 7.5 18.0003H5.20011C3.4328 18.0003 2.00011 16.5676 2.00011 14.8003L2 10.1936C2 10.1626 2.00044 10.1317 2.00132 10.101ZM3 6.2C3 4.98496 3.98499 3.99999 5.20002 4L7.06038 4.00002L8.59386 5.49463H14.8C16.015 5.49463 17 6.47961 17 7.69463V7.78804C16.4506 7.28588 15.7189 6.97992 14.9159 6.98096L5.19584 6.99359C4.34523 6.9947 3.57249 7.32761 3 7.86979V6.2Z" fill="black" fill-opacity="0.87"/>
<path fill-rule="evenodd" clip-rule="evenodd" d="M11.0508 11.6714H11.7734V11.1677C11.7734 10.8976 11.8313 10.6463 11.9584 10.4263C12.0858 10.2057 12.2665 10.0451 12.4682 9.93194C12.8539 9.71562 13.3347 9.6626 13.7734 9.6626C14.2122 9.6626 14.693 9.71562 15.0787 9.93194C15.2804 10.0451 15.461 10.2057 15.5885 10.4263C15.7156 10.6463 15.7734 10.8976 15.7734 11.1677V11.6714H16.5012C17.3296 11.6714 18.0012 12.343 18.0012 13.1714V13.7492C17.847 13.8476 17.481 14.0175 16.8465 14.1691C16.3317 14.2921 15.6562 14.3992 14.8048 14.4479C14.6677 14.2382 14.4307 14.0996 14.1614 14.0996H13.3932C13.1245 14.0996 12.8881 14.2375 12.7508 14.4464C11.9097 14.397 11.2386 14.2908 10.7244 14.1689C10.0845 14.0172 9.71068 13.8468 9.55078 13.7467V13.1714C9.55078 12.343 10.2224 11.6714 11.0508 11.6714ZM12.8242 10.9266C12.7995 10.9693 12.7734 11.0417 12.7734 11.1677V11.6626H14.7734V11.1677C14.7734 11.0417 14.7473 10.9693 14.7226 10.9266C14.6983 10.8844 14.6593 10.8433 14.5895 10.8041C14.4323 10.716 14.1631 10.6626 13.7734 10.6626C13.3838 10.6626 13.1145 10.716 12.9574 10.8041C12.8876 10.8433 12.8486 10.8844 12.8242 10.9266Z" fill="black" fill-opacity="0.87"/>
<path d="M9.55078 14.6374V16.5004C9.55078 17.3288 10.2224 18.0004 11.0508 18.0004H16.5012C17.3296 18.0004 18.0012 17.3288 18.0012 16.5004V14.6416C17.7453 14.7486 17.422 14.8541 17.0324 14.9472C16.4628 15.0833 15.7331 15.1972 14.8292 15.2478C14.697 15.4797 14.4475 15.636 14.1614 15.636H13.3932C13.1065 15.636 12.8565 15.479 12.7245 15.2463C11.8318 15.1949 11.1077 15.0819 10.5399 14.9473C10.1411 14.8528 9.81097 14.7456 9.55078 14.6374Z" fill="black" fill-opacity="0.87"/>
</svg>
