<svg width="20" height="20" viewBox="0 0 20 20" fill="none" xmlns="http://www.w3.org/2000/svg">
<path d="M17.4194 4.22779L9.99975 1.69006L2.58077 4.2278V4.615C2.58077 6.68539 2.791 8.55843 3.35334 10.3002C3.44526 10.5848 3.75055 10.7411 4.03524 10.6492C4.31992 10.5573 4.47619 10.252 4.38428 9.9673C3.90121 8.47113 3.69185 6.8418 3.66671 5.0013L9.99977 2.83502L16.3335 5.00132C16.2992 7.51012 15.9225 9.62872 14.9746 11.5527C13.9792 13.5731 12.3307 15.4259 9.68705 17.295C9.44278 17.4677 9.38477 17.8057 9.55747 18.05C9.73018 18.2943 10.0682 18.3523 10.3125 18.1796C13.0601 16.2369 14.8506 14.2557 15.9464 12.0315C17.0414 9.80885 17.4194 7.39052 17.4194 4.615V4.22779Z" fill="white" fill-opacity="0.87"/>
<path d="M5.0018 12.0994C5.30096 12.0994 5.54348 12.3419 5.54348 12.6411V14.8754H7.79314C8.09231 14.8754 8.33482 15.1179 8.33482 15.4171C8.33482 15.7162 8.09231 15.9587 7.79314 15.9587H5.54348V18.2206C5.54348 18.5198 5.30096 18.7623 5.0018 18.7623C4.70264 18.7623 4.46012 18.5198 4.46012 18.2206V15.9587H2.21282C1.91366 15.9587 1.67114 15.7162 1.67114 15.4171C1.67114 15.1179 1.91366 14.8754 2.21282 14.8754H4.46012V12.6411C4.46012 12.3419 4.70264 12.0994 5.0018 12.0994Z" fill="white" fill-opacity="0.87"/>
</svg>
