<svg width="20" height="20" viewBox="0 0 20 20" fill="none" xmlns="http://www.w3.org/2000/svg">
<path d="M3 5.50302C3 3.57002 4.567 2.00302 6.5 2.00302H13.5C13.7761 2.00302 14 2.22688 14 2.50302C14 2.77916 13.7761 3.00302 13.5 3.00302H6.5C5.11929 3.00302 4 4.12231 4 5.50302V14.503C4 14.7792 3.77614 15.003 3.5 15.003C3.22386 15.003 3 14.7792 3 14.503V5.50302Z" fill="#2979FF"/>
<path d="M11.5022 8.87868C11.7783 8.87868 12.0022 9.10253 12.0022 9.37868V10.9997H13.6252C13.9014 10.9997 14.1252 11.2236 14.1252 11.4997C14.1252 11.7759 13.9014 11.9997 13.6252 11.9997H12.0022V13.6213C12.0022 13.8975 11.7783 14.1213 11.5022 14.1213C11.2261 14.1213 11.0022 13.8975 11.0022 13.6213V11.9997H9.3826C9.10646 11.9997 8.8826 11.7759 8.8826 11.4997C8.8826 11.2236 9.10646 10.9997 9.3826 10.9997H11.0022V9.37868C11.0022 9.10254 11.2261 8.87868 11.5022 8.87868Z" fill="#2979FF"/>
<path fill-rule="evenodd" clip-rule="evenodd" d="M9.00781 5C7.35096 5 6.00781 6.34315 6.00781 8V15C6.00781 16.6569 7.35096 18 9.00781 18H14C15.6569 18 17 16.6569 17 15V8C17 6.34315 15.6569 5 14 5H9.00781ZM14 6H9.00781C7.90324 6 7.00781 6.89543 7.00781 8V15C7.00781 16.1046 7.90324 17 9.00781 17H14C15.1046 17 16 16.1046 16 15V8C16 6.89543 15.1046 6 14 6Z" fill="#2979FF"/>
</svg>
