<svg width="20" height="20" viewBox="0 0 20 20" fill="none" xmlns="http://www.w3.org/2000/svg">
<path fill-rule="evenodd" clip-rule="evenodd" d="M10.5 2.99976H9.41465C9.20873 2.41716 8.65311 1.99976 8 1.99976C7.34689 1.99976 6.79127 2.41716 6.58535 2.99976H5.5H4C2.89543 2.99976 2 3.89519 2 4.99976V13.9998C2 15.1043 2.89543 15.9998 4 15.9998H8C8 17.1043 8.89543 17.9998 10 17.9998H16C17.1046 17.9998 18 17.1043 18 15.9998V8.99976C18 7.89519 17.1046 6.99976 16 6.99976H14V4.99976C14 3.89519 13.1046 2.99976 12 2.99976H10.5ZM10.5 3.99976H12C12.5523 3.99976 13 4.44747 13 4.99976V6.99976H10C8.89543 6.99976 8 7.89519 8 8.99976V14.9998H4C3.44772 14.9998 3 14.552 3 13.9998V4.99976C3 4.44747 3.44772 3.99976 4 3.99976H5.5C5.5 4.55204 5.94772 4.99976 6.5 4.99976H8H9.5C10.0523 4.99976 10.5 4.55204 10.5 3.99976ZM13 7.99976H14H16C16.5523 7.99976 17 8.44747 17 8.99976V15.9998C17 16.552 16.5523 16.9998 16 16.9998H10C9.44772 16.9998 9 16.552 9 15.9998V8.99976C9 8.44747 9.44772 7.99976 10 7.99976H13ZM11 9.99976C10.7239 9.99976 10.5 10.2236 10.5 10.4998C10.5 10.7759 10.7239 10.9998 11 10.9998L15 10.9998C15.2761 10.9998 15.5 10.7759 15.5 10.4998C15.5 10.2236 15.2761 9.99976 15 9.99976L11 9.99976ZM10.5 12.4998C10.5 12.2236 10.7239 11.9998 11 11.9998L15 11.9998C15.2761 11.9998 15.5 12.2236 15.5 12.4998C15.5 12.7759 15.2761 12.9998 15 12.9998L11 12.9998C10.7239 12.9998 10.5 12.7759 10.5 12.4998ZM11 13.9998C10.7239 13.9998 10.5 14.2236 10.5 14.4998C10.5 14.7759 10.7239 14.9998 11 14.9998L15 14.9998C15.2761 14.9998 15.5 14.7759 15.5 14.4998C15.5 14.2236 15.2761 13.9998 15 13.9998L11 13.9998Z" fill="white" fill-opacity="0.54"/>
</svg>
