<svg width="24" height="24" viewBox="0 0 24 24" fill="none" xmlns="http://www.w3.org/2000/svg">
<path fill-rule="evenodd" clip-rule="evenodd" d="M8.875 3L10.75 4.99826H18.25C20.3211 4.99826 22 6.61004 22 8.59826V17.5C22 19.433 20.433 21 18.5 21H18.2661C18.2607 21 18.2554 21 18.25 21H5.75C5.74464 21 5.73927 21 5.73391 21H5.5C3.567 21 2 19.433 2 17.5V6.6C2 4.61178 3.67893 3 5.75 3H8.875ZM3.3 11.8984V17.4C3.3 18.6168 4.33957 19.693 5.73629 19.7H18.2637C19.6604 19.693 20.7 18.6168 20.7 17.4V11.8984C20.7 10.6834 19.715 9.69844 18.5 9.69844H5.5C4.28497 9.69844 3.3 10.6834 3.3 11.8984ZM20.7 9.17616C20.0989 8.68977 19.3335 8.39844 18.5 8.39844H5.5C4.66653 8.39844 3.9011 8.68977 3.3 9.17615V6.6C3.3 5.37925 4.34638 4.3 5.75 4.3H8.31213L10.1871 6.29826H18.25C19.6536 6.29826 20.7 7.37751 20.7 8.59826V9.17616Z" fill="black" fill-opacity="0.87"/>
</svg>
