<svg width="24" height="24" viewBox="0 0 24 24" fill="none" xmlns="http://www.w3.org/2000/svg">
<path d="M16.9059 16.5459C19.2393 16.5459 21.2066 18.4294 21.8118 20.9998H12C12.6052 18.4294 14.5724 16.5459 16.9059 16.5459Z" fill="white" fill-opacity="0.54"/>
<path fill-rule="evenodd" clip-rule="evenodd" d="M10.75 4.99826L8.875 3H5.75C3.67893 3 2 4.61178 2 6.6V17.5C2 19.433 3.567 21 5.5 21H5.73391L5.75 21H10.6644L10.7346 20.7019C10.8151 20.3601 10.9174 20.0252 11.0401 19.7H5.73629C4.33957 19.693 3.3 18.6168 3.3 17.4V11.8984C3.3 10.6834 4.28497 9.69844 5.5 9.69844H18.5C19.715 9.69844 20.7 10.6834 20.7 11.8984V16.6852C21.1733 17.0916 21.5927 17.5694 21.9489 18.0994C21.9825 17.9047 22 17.7044 22 17.5V8.59826C22 6.61004 20.3211 4.99826 18.25 4.99826H10.75ZM18.5 8.39844C19.3335 8.39844 20.0989 8.68977 20.7 9.17616V8.59826C20.7 7.37751 19.6536 6.29826 18.25 6.29826H10.1871L8.31213 4.3H5.75C4.34638 4.3 3.3 5.37925 3.3 6.6V9.17615C3.9011 8.68977 4.66653 8.39844 5.5 8.39844H18.5Z" fill="white" fill-opacity="0.54"/>
<path d="M16.9067 15.4325C18.1366 15.4325 19.1336 14.4354 19.1336 13.2055C19.1336 11.9756 18.1366 10.9785 16.9067 10.9785C15.6767 10.9785 14.6797 11.9756 14.6797 13.2055C14.6797 14.4354 15.6767 15.4325 16.9067 15.4325Z" fill="white" fill-opacity="0.54"/>
</svg>
