<svg width="20" height="20" viewBox="0 0 20 20" fill="none" xmlns="http://www.w3.org/2000/svg">
<path fill-rule="evenodd" clip-rule="evenodd" d="M2 6C2 4.34315 3.34315 3 5 3H7.5L9 4.5H15C16.6569 4.5 18 5.84315 18 7.5V15C18 16.6569 16.6569 18 15 18H5C3.34315 18 2 16.6569 2 15V6ZM7.08579 4L8.58579 5.5H15C16.1046 5.5 17 6.39543 17 7.5V7.76389C16.4692 7.28885 15.7684 7 15 7H5C4.23165 7 3.53076 7.28885 3 7.76389V6C3 4.89543 3.89543 4 5 4H7.08579ZM3 10V15C3 16.1046 3.89543 17 5 17H15C16.1046 17 17 16.1046 17 15V10C17 8.89543 16.1046 8 15 8H5C3.89543 8 3 8.89543 3 10Z" fill="white" fill-opacity="0.87"/>
</svg>
