<svg width="20" height="20" viewBox="0 0 20 20" fill="none" xmlns="http://www.w3.org/2000/svg">
<path d="M8 8.30859C7.72386 8.30859 7.5 8.53245 7.5 8.80859V15.0039C7.5 15.2801 7.72386 15.5039 8 15.5039C8.27614 15.5039 8.5 15.2801 8.5 15.0039V8.80859C8.5 8.53245 8.27614 8.30859 8 8.30859Z" fill="black" fill-opacity="0.54"/>
<path d="M11.5 8.80859C11.5 8.53245 11.7239 8.30859 12 8.30859C12.2761 8.30859 12.5 8.53245 12.5 8.80859V15.0039C12.5 15.2801 12.2761 15.5039 12 15.5039C11.7239 15.5039 11.5 15.2801 11.5 15.0039V8.80859Z" fill="black" fill-opacity="0.54"/>
<path fill-rule="evenodd" clip-rule="evenodd" d="M7.55191 4C7.78712 2.86351 8.7938 2.00928 10 2.00928C11.2062 2.00928 12.2129 2.86351 12.4481 4H14C15.1046 4 16 4.89543 16 6V7H15V16C15 17.1046 14.1046 18 13 18H7C5.89543 18 5 17.1046 5 16V7H4V6C4 4.89543 4.89543 4 6 4H7.55191ZM8.58867 4H11.4113C11.2028 3.42226 10.6496 3.00928 10 3.00928C9.35036 3.00928 8.79718 3.42226 8.58867 4ZM6 7V16C6 16.5523 6.44772 17 7 17H13C13.5523 17 14 16.5523 14 16V7H6ZM15 6C15 5.44772 14.5523 5 14 5H6C5.44772 5 5 5.44772 5 6H15Z" fill="black" fill-opacity="0.54"/>
</svg>
