<svg width="24" height="24" viewBox="0 0 24 24" fill="none" xmlns="http://www.w3.org/2000/svg">
<path d="M8.5 14C9.32843 14 10 13.3284 10 12.5C10 11.6716 9.32843 11 8.5 11C7.67157 11 7 11.6716 7 12.5C7 13.3284 7.67157 14 8.5 14Z" fill="black" fill-opacity="0.54"/>
<path d="M8.5 14C10.433 14 12 15.7909 12 18H5C5 15.7909 6.567 14 8.5 14Z" fill="black" fill-opacity="0.54"/>
<path d="M13.8086 11.8501C13.4496 11.8501 13.1586 12.1411 13.1586 12.5001C13.1586 12.8591 13.4496 13.1501 13.8086 13.1501H17.6046C17.9636 13.1501 18.2546 12.8591 18.2546 12.5001C18.2546 12.1411 17.9636 11.8501 17.6046 11.8501H13.8086Z" fill="black" fill-opacity="0.54"/>
<path d="M13.1586 16.0001C13.1586 15.6411 13.4496 15.3501 13.8086 15.3501H16.416C16.775 15.3501 17.066 15.6411 17.066 16.0001C17.066 16.3591 16.775 16.6501 16.416 16.6501H13.8086C13.4496 16.6501 13.1586 16.3591 13.1586 16.0001Z" fill="black" fill-opacity="0.54"/>
<path fill-rule="evenodd" clip-rule="evenodd" d="M10.0492 2.79648C10.0492 2.4375 10.3402 2.14648 10.6992 2.14648H13.2992C13.6582 2.14648 13.9492 2.4375 13.9492 2.79648V5H19C20.6569 5 22 6.34315 22 8V19C22 20.6569 20.6569 22 19 22H5C3.34315 22 2 20.6569 2 19V8C2 6.34315 3.34315 5 5 5H10.0492V2.79648ZM13.9492 7.79648V6.3H19C19.9389 6.3 20.7 7.06112 20.7 8V19C20.7 19.9389 19.9389 20.7 19 20.7H5C4.06112 20.7 3.3 19.9389 3.3 19V8C3.3 7.06112 4.06112 6.3 5 6.3H10.0492V7.79648C10.0492 8.15547 10.3402 8.44648 10.6992 8.44648H13.2992C13.6582 8.44648 13.9492 8.15547 13.9492 7.79648ZM11.3492 3.44648V7.14648H12.6492V3.44648H11.3492Z" fill="black" fill-opacity="0.54"/>
</svg>
