<svg width="24" height="25" viewBox="0 0 24 25" fill="none" xmlns="http://www.w3.org/2000/svg">
<path fill-rule="evenodd" clip-rule="evenodd" d="M17.8889 17.5141C20.9249 13.9536 20.7336 8.59873 17.3462 5.26592C13.803 1.77988 8.10473 1.82621 4.6187 5.36938C1.13267 8.91255 1.17899 14.6108 4.72216 18.0969C8.10945 21.4295 13.4664 21.5338 16.9771 18.4408L20.8257 22.2273C21.0816 22.4791 21.4932 22.4757 21.7449 22.2199C21.9967 21.964 21.9934 21.5524 21.7375 21.3006L17.8889 17.5141ZM16.4345 6.1926C19.4658 9.17509 19.5055 14.0503 16.523 17.0817C13.5405 20.1131 8.66528 20.1527 5.6339 17.1702C2.60252 14.1877 2.56289 9.3125 5.54538 6.28112C8.52787 3.24973 13.4031 3.2101 16.4345 6.1926Z" fill="white" fill-opacity="0.4"/>
</svg>
