<svg width="24" height="24" viewBox="0 0 24 24" fill="none" xmlns="http://www.w3.org/2000/svg">
<path d="M20.7653 4.15375C21.0192 3.89991 21.0192 3.48835 20.7653 3.23451C20.5115 2.98067 20.0999 2.98067 19.8461 3.23451L11.9999 11.0807L4.15373 3.23451C3.89988 2.98067 3.48833 2.98067 3.23449 3.23451C2.98065 3.48835 2.98065 3.89991 3.23449 4.15375L11.0807 11.9999L3.23433 19.8463C2.98049 20.1001 2.98049 20.5117 3.23433 20.7655C3.48817 21.0194 3.89972 21.0194 4.15356 20.7655L11.9999 12.9192L19.8463 20.7655C20.1001 21.0194 20.5117 21.0194 20.7655 20.7655C21.0193 20.5117 21.0193 20.1001 20.7655 19.8463L12.9191 11.9999L20.7653 4.15375Z" fill="black" fill-opacity="0.54"/>
</svg>
