<svg width="25" height="24" viewBox="0 0 25 24" fill="none" xmlns="http://www.w3.org/2000/svg">
<path d="M13.1259 3.5001C13.1259 3.14111 12.8349 2.8501 12.4759 2.8501C12.1169 2.8501 11.8259 3.14111 11.8259 3.5001V11.0001C11.8259 11.3591 12.1169 11.6501 12.4759 11.6501C12.8349 11.6501 13.1259 11.3591 13.1259 11.0001V3.5001Z" fill="white" fill-opacity="0.54"/>
<path d="M8.14926 6.65824C8.44758 6.45855 8.52753 6.05484 8.32784 5.75652C8.12815 5.4582 7.72444 5.37824 7.42612 5.57793C5.02222 7.18705 3.43726 9.92931 3.43726 13.042C3.43726 17.9993 7.45593 22.018 12.4132 22.018C17.3705 22.018 21.3892 17.9993 21.3892 13.042C21.3892 9.92931 19.8042 7.18705 17.4003 5.57793C17.102 5.37824 16.6983 5.4582 16.4986 5.75652C16.2989 6.05484 16.3789 6.45855 16.6772 6.65824C18.736 8.03634 20.0892 10.3813 20.0892 13.042C20.0892 17.2813 16.6525 20.718 12.4132 20.718C8.1739 20.718 4.73726 17.2813 4.73726 13.042C4.73726 10.3813 6.09048 8.03634 8.14926 6.65824Z" fill="white" fill-opacity="0.54"/>
</svg>
