<svg width="20" height="20" viewBox="0 0 20 20" fill="none" xmlns="http://www.w3.org/2000/svg">
<path d="M6 6.5C6 6.22386 6.22386 6 6.5 6H13.5C13.7761 6 14 6.22386 14 6.5C14 6.77614 13.7761 7 13.5 7H6.5C6.22386 7 6 6.77614 6 6.5Z" fill="white" fill-opacity="0.87"/>
<path d="M6.5 9.5C6.22386 9.5 6 9.72386 6 10C6 10.2761 6.22386 10.5 6.5 10.5H10.1C10.3761 10.5 10.6 10.2761 10.6 10C10.6 9.72386 10.3761 9.5 10.1 9.5H6.5Z" fill="white" fill-opacity="0.87"/>
<path d="M6 13.5C6 13.2239 6.22386 13 6.5 13H7.3C7.57614 13 7.8 13.2239 7.8 13.5C7.8 13.7761 7.57614 14 7.3 14H6.5C6.22386 14 6 13.7761 6 13.5Z" fill="white" fill-opacity="0.87"/>
<path d="M9.60156 13C9.32542 13 9.10156 13.2239 9.10156 13.5C9.10156 13.7761 9.32542 14 9.60156 14H10.4016C10.6777 14 10.9016 13.7761 10.9016 13.5C10.9016 13.2239 10.6777 13 10.4016 13H9.60156Z" fill="white" fill-opacity="0.87"/>
<path d="M12.2012 13.5C12.2012 13.2239 12.425 13 12.7012 13H13.5012C13.7773 13 14.0012 13.2239 14.0012 13.5C14.0012 13.7761 13.7773 14 13.5012 14H12.7012C12.425 14 12.2012 13.7761 12.2012 13.5Z" fill="white" fill-opacity="0.87"/>
<path d="M12.6992 9.5C12.4231 9.5 12.1992 9.72386 12.1992 10C12.1992 10.2761 12.4231 10.5 12.6992 10.5H13.4992C13.7754 10.5 13.9992 10.2761 13.9992 10C13.9992 9.72386 13.7754 9.5 13.4992 9.5H12.6992Z" fill="white" fill-opacity="0.87"/>
<path fill-rule="evenodd" clip-rule="evenodd" d="M6 2C4.34315 2 3 3.34315 3 5V15C3 16.6569 4.34315 18 6 18H14C15.6569 18 17 16.6569 17 15V5C17 3.34315 15.6569 2 14 2H6ZM14 3H6C4.89543 3 4 3.89543 4 5V15C4 16.1046 4.89543 17 6 17H14C15.1046 17 16 16.1046 16 15V5C16 3.89543 15.1046 3 14 3Z" fill="white" fill-opacity="0.87"/>
</svg>
