<svg width="20" height="20" viewBox="0 0 20 20" fill="none" xmlns="http://www.w3.org/2000/svg">
<path fill-rule="evenodd" clip-rule="evenodd" d="M9 17H8V18H9C9.59735 18 10.1335 17.7381 10.5 17.3229C10.8665 17.7381 11.4027 18 12 18H13V17H12C11.4477 17 11 16.5523 11 16V14H16C17.1046 14 18 13.1046 18 12V8C18 6.89543 17.1046 6 16 6H11V4C11 3.44772 11.4477 3 12 3H13V2H12C11.4027 2 10.8665 2.26188 10.5 2.67709C10.1335 2.26188 9.59735 2 9 2H8V3L9 3C9.55186 3 9.99931 3.44703 10 3.99873V16C10 16.5523 9.55228 17 9 17ZM16 13H11L11 7H16C16.5523 7 17 7.44772 17 8V12C17 12.5523 16.5523 13 16 13Z" fill="black" fill-opacity="0.87"/>
<path d="M9 7V6H4C2.89543 6 2 6.89543 2 8V12C2 13.1046 2.89543 14 4 14H9V13H4C3.44772 13 3 12.5523 3 12V8C3 7.44772 3.44772 7 4 7H9Z" fill="black" fill-opacity="0.87"/>
<path d="M9 8H4V12H9V8Z" fill="black" fill-opacity="0.87"/>
</svg>
