<svg width="24" height="24" viewBox="0 0 24 24" fill="none" xmlns="http://www.w3.org/2000/svg">
<path fill-rule="evenodd" clip-rule="evenodd" d="M17.8889 16.8251C20.9249 13.2646 20.7336 7.90976 17.3462 4.57695C13.803 1.09092 8.10473 1.13724 4.6187 4.68041C1.13267 8.22359 1.17899 13.9219 4.72216 17.4079C8.10945 20.7406 13.4664 20.8449 16.9771 17.7518L20.8257 21.5384C21.0816 21.7901 21.4932 21.7868 21.7449 21.5309C21.9967 21.275 21.9934 20.8635 21.7375 20.6117L17.8889 16.8251ZM16.4345 5.50363C19.4658 8.48612 19.5055 13.3613 16.523 16.3927C13.5405 19.4241 8.66528 19.4637 5.6339 16.4812C2.60252 13.4987 2.56289 8.62353 5.54538 5.59215C8.52787 2.56077 13.4031 2.52114 16.4345 5.50363Z" fill="black" fill-opacity="0.54"/>
</svg>
