<svg width="24" height="24" viewBox="0 0 24 24" fill="none" xmlns="http://www.w3.org/2000/svg">
<path d="M17.372 1.97119C19.3878 1.97119 21.022 3.60535 21.022 5.62119V13.6212C21.022 13.9802 20.731 14.2712 20.372 14.2712C20.013 14.2712 19.722 13.9802 19.722 13.6212V5.62119C19.722 4.32332 18.6698 3.27119 17.372 3.27119H9.37197C9.01299 3.27119 8.72197 2.98018 8.72197 2.62119C8.72197 2.26221 9.01299 1.97119 9.37197 1.97119H17.372Z" fill="white" fill-opacity="0.54"/>
<path d="M14.8207 9.70506C15.0729 9.96053 15.0703 10.3721 14.8148 10.6243L8.59901 16.7607L5.17901 13.2496C4.92853 12.9924 4.93394 12.5809 5.19109 12.3304C5.44825 12.0799 5.85977 12.0854 6.11025 12.3425L8.61706 14.9161L13.9015 9.69915C14.157 9.44695 14.5685 9.4496 14.8207 9.70506Z" fill="white" fill-opacity="0.54"/>
<path fill-rule="evenodd" clip-rule="evenodd" d="M5 5C3.34315 5 2 6.34315 2 8V18C2 19.6569 3.34315 21 5 21H15C16.6569 21 18 19.6569 18 18V8C18 6.34315 16.6569 5 15 5H5ZM15 6.3H5C4.06112 6.3 3.3 7.06112 3.3 8V18C3.3 18.9389 4.06112 19.7 5 19.7H15C15.9389 19.7 16.7 18.9389 16.7 18V8C16.7 7.06112 15.9389 6.3 15 6.3Z" fill="white" fill-opacity="0.54"/>
</svg>
