<svg width="20" height="20" viewBox="0 0 20 20" fill="none" xmlns="http://www.w3.org/2000/svg">
<path fill-rule="evenodd" clip-rule="evenodd" d="M17.3333 9.80005C17.3333 13.8501 14.05 17.1333 10 17.1333C5.94996 17.1333 2.66675 13.8501 2.66675 9.80005C2.66675 5.75001 5.94996 2.4668 10 2.4668C14.05 2.4668 17.3333 5.75001 17.3333 9.80005ZM18.3333 9.80005C18.3333 14.4024 14.6023 18.1333 10 18.1333C5.39767 18.1333 1.66675 14.4024 1.66675 9.80005C1.66675 5.19772 5.39767 1.4668 10 1.4668C14.6023 1.4668 18.3333 5.19772 18.3333 9.80005ZM12.4145 10.3846C12.9237 10.0725 12.9237 9.33256 12.4145 9.02043L9.23085 7.06921C8.69779 6.7425 8.0128 7.12608 8.0128 7.75129V11.6537C8.0128 12.2789 8.69779 12.6625 9.23085 12.3358L12.4145 10.3846Z" fill="#31A629"/>
</svg>
