<svg width="25" height="24" viewBox="0 0 25 24" fill="none" xmlns="http://www.w3.org/2000/svg">
<path fill-rule="evenodd" clip-rule="evenodd" d="M15.4758 12C15.4758 13.6569 14.1327 15 12.4758 15C10.819 15 9.47583 13.6569 9.47583 12C9.47583 10.3431 10.819 9 12.4758 9C14.1327 9 15.4758 10.3431 15.4758 12ZM14.1758 12C14.1758 12.9389 13.4147 13.7 12.4758 13.7C11.5369 13.7 10.7758 12.9389 10.7758 12C10.7758 11.0611 11.5369 10.3 12.4758 10.3C13.4147 10.3 14.1758 11.0611 14.1758 12Z" fill="black" fill-opacity="0.87"/>
<path fill-rule="evenodd" clip-rule="evenodd" d="M20.353 18.73L22.4091 15.27C22.5325 15.05 22.4811 14.78 22.2857 14.63L20.1165 12.98C20.1577 12.66 20.1885 12.34 20.1885 12C20.1885 11.66 20.1577 11.34 20.1165 11.02L22.2857 9.37C22.4811 9.22 22.5325 8.95 22.4091 8.73L20.353 5.27C20.2605 5.11 20.0857 5.02 19.9006 5.02C19.839 5.02 19.7773 5.03 19.7259 5.05L17.166 6.05C16.6314 5.65 16.0557 5.32 15.4286 5.07L15.038 2.42C15.0071 2.18 14.7912 2 14.5342 2H10.422C10.165 2 9.94909 2.18 9.91825 2.42L9.52759 5.07C8.90048 5.32 8.32477 5.66 7.79018 6.05L5.23033 5.05C5.16864 5.03 5.10696 5.02 5.04528 5.02C4.87051 5.02 4.69574 5.11 4.60321 5.27L2.54711 8.73C2.41346 8.95 2.47514 9.22 2.67047 9.37L4.83967 11.02C4.79854 11.34 4.7677 11.67 4.7677 12C4.7677 12.33 4.79854 12.66 4.83967 12.98L2.67047 14.63C2.47514 14.78 2.42374 15.05 2.54711 15.27L4.60321 18.73C4.69574 18.89 4.87051 18.98 5.05556 18.98C5.11724 18.98 5.17892 18.97 5.23033 18.95L7.79018 17.95C8.32477 18.35 8.90048 18.68 9.52759 18.93L9.91825 21.58C9.94909 21.82 10.165 22 10.422 22H14.5342C14.7912 22 15.0071 21.82 15.038 21.58L15.4286 18.93C16.0557 18.68 16.6314 18.34 17.166 17.95L19.7259 18.95C19.7876 18.97 19.8492 18.98 19.9109 18.98C20.0857 18.98 20.2605 18.89 20.353 18.73ZM18.8271 12.8143L18.7314 13.5597L20.9227 15.2266L19.5745 17.4952L16.9754 16.4799L16.3998 16.8998C15.9327 17.2405 15.4521 17.5212 14.9472 17.7224L14.2517 17.9997L13.8536 20.7H11.1026L10.7045 17.9997L10.009 17.7224C9.495 17.5175 9.01852 17.2455 8.56901 16.9091L7.99033 16.4761L5.38166 17.4952L4.0335 15.2266L6.22485 13.5597L6.12906 12.8143C6.09145 12.5216 6.0677 12.2524 6.0677 12C6.0677 11.7476 6.09145 11.4784 6.12906 11.1857L6.22485 10.4403L4.0335 8.77345L5.38165 6.50479L7.98078 7.52013L8.55635 7.10023C9.02345 6.75946 9.50413 6.47885 10.009 6.27758L10.7045 6.00032L11.1026 3.3H13.8536L14.2517 6.00032L14.9472 6.27758C15.4612 6.48249 15.9377 6.75454 16.3872 7.09088L16.9659 7.52386L19.5746 6.50479L20.9227 8.77345L18.7314 10.4403L18.8271 11.1857C18.8649 11.4796 18.8885 11.7384 18.8885 12C18.8885 12.2616 18.8649 12.5204 18.8271 12.8143Z" fill="black" fill-opacity="0.87"/>
</svg>
