<svg width="20" height="20" viewBox="0 0 20 20" fill="none" xmlns="http://www.w3.org/2000/svg">
<path fill-rule="evenodd" clip-rule="evenodd" d="M15 8C16.6569 8 18 6.65685 18 5C18 3.34315 16.6569 2 15 2C13.3431 2 12 3.34315 12 5C12 5.15427 12.0116 5.30583 12.0341 5.45383L7.37752 8.17017C6.82898 7.45849 5.96803 7 5 7C3.34315 7 2 8.34315 2 10C2 11.6569 3.34315 13 5 13C6.02735 13 6.93409 12.4836 7.47479 11.6962L12.0654 14.3741C12.0225 14.5759 12 14.7853 12 15C12 16.6569 13.3431 18 15 18C16.6569 18 18 16.6569 18 15C18 13.3431 16.6569 12 15 12C13.9167 12 12.9674 12.5742 12.4401 13.4349L7.8964 10.7844C7.96396 10.5344 8 10.2714 8 10C8 9.66931 7.9465 9.35113 7.84767 9.05362L12.3581 6.42256C12.8649 7.36179 13.8579 8 15 8ZM15 7C16.1046 7 17 6.10457 17 5C17 3.89543 16.1046 3 15 3C13.8954 3 13 3.89543 13 5C13 6.10457 13.8954 7 15 7ZM5 12C6.10457 12 7 11.1046 7 10C7 8.89543 6.10457 8 5 8C3.89543 8 3 8.89543 3 10C3 11.1046 3.89543 12 5 12ZM17 15C17 16.1046 16.1046 17 15 17C13.8954 17 13 16.1046 13 15C13 13.8954 13.8954 13 15 13C16.1046 13 17 13.8954 17 15Z" fill="white" fill-opacity="0.87"/>
</svg>
