<svg width="20" height="20" viewBox="0 0 20 20" fill="none" xmlns="http://www.w3.org/2000/svg">
<path d="M10 13C11.6569 13 13 11.6569 13 10C13 8.34315 11.6569 7 10 7C8.34315 7 7 8.34315 7 10C7 11.6569 8.34315 13 10 13Z" fill="black" fill-opacity="0.87"/>
<path fill-rule="evenodd" clip-rule="evenodd" d="M9.99967 4C7.83557 4 6.01847 5.01373 4.67436 6.22115C3.33488 7.42441 2.41719 8.86191 2.05264 9.81324C2.00447 9.93893 2.00902 10.0787 2.06526 10.201C2.49007 11.1249 3.39673 12.5586 4.72137 13.7683C6.0481 14.9798 7.83278 16 9.99967 16C12.1685 16 13.921 14.9793 15.2312 13.7686C16.5398 12.5595 17.4405 11.1318 17.9226 10.2332C17.9967 10.0952 18.0017 9.93033 17.9363 9.78797C17.5113 8.86371 16.6038 7.43262 15.2785 6.22578C13.9511 5.01696 12.166 4 9.99967 4ZM5.3957 13.0298C4.27309 12.0047 3.47755 10.799 3.06678 9.97683C3.41983 9.17796 4.20603 7.98607 5.34263 6.96507C6.57089 5.86172 8.16023 5 9.99967 5C11.8368 5 13.3926 5.86085 14.6052 6.96515C15.7146 7.97537 16.5047 9.16159 16.9196 9.9821C16.4462 10.8235 15.6503 12.0199 14.5525 13.0342C13.356 14.1398 11.8344 15 9.99967 15C8.16302 15 6.60798 14.1369 5.3957 13.0298Z" fill="black" fill-opacity="0.87"/>
</svg>
