<svg width="20" height="20" viewBox="0 0 20 20" fill="none" xmlns="http://www.w3.org/2000/svg">
<path fill-rule="evenodd" clip-rule="evenodd" d="M6 4C6 4.55228 5.55228 5 5 5C4.44772 5 4 4.55228 4 4C4 3.44772 4.44772 3 5 3C5.55228 3 6 3.44772 6 4ZM6 5.73244C6.5978 5.38663 7 4.74028 7 4C7 2.89543 6.10457 2 5 2C3.89543 2 3 2.89543 3 4C3 4.74028 3.4022 5.38663 4 5.73244V18C4 18.5523 4.44772 19 5 19C5.55228 19 6 18.5523 6 18V14H9H10V14.5858V15V16H11H15.882H17L16.5 15L15 12L16.5 9L17 8H15.882H13H12V7V6H11H6V5.73244ZM6 13V7H11V8V8.5V9V13H10H6ZM12 9V13V13.5V14L11 15H15.382L14.1056 12.4472L13.882 12L14.1056 11.5528L15.382 9H12Z" fill="white" fill-opacity="0.54"/>
</svg>
