<svg width="20" height="20" viewBox="0 0 20 20" fill="none" xmlns="http://www.w3.org/2000/svg">
<path fill-rule="evenodd" clip-rule="evenodd" d="M10.5 3H9.41465C9.20873 2.4174 8.65311 2 8 2C7.34689 2 6.79127 2.4174 6.58535 3H5.5H4C2.89543 3 2 3.89543 2 5V14C2 15.1046 2.89543 16 4 16H8C8 17.1046 8.89543 18 10 18H16C17.1046 18 18 17.1046 18 16V9C18 7.89543 17.1046 7 16 7H14V5C14 3.89543 13.1046 3 12 3H10.5ZM10.5 4H12C12.5523 4 13 4.44772 13 5V7H10C8.89543 7 8 7.89543 8 9V15H4C3.44772 15 3 14.5523 3 14V5C3 4.44772 3.44772 4 4 4H5.5C5.5 4.55228 5.94772 5 6.5 5H8H9.5C10.0523 5 10.5 4.55228 10.5 4ZM13 8H14H16C16.5523 8 17 8.44772 17 9V16C17 16.5523 16.5523 17 16 17H10C9.44772 17 9 16.5523 9 16V9C9 8.44772 9.44772 8 10 8H13ZM11 10C10.7239 10 10.5 10.2239 10.5 10.5C10.5 10.7761 10.7239 11 11 11L15 11C15.2761 11 15.5 10.7761 15.5 10.5C15.5 10.2239 15.2761 10 15 10L11 10ZM10.5 12.5C10.5 12.2239 10.7239 12 11 12L15 12C15.2761 12 15.5 12.2239 15.5 12.5C15.5 12.7761 15.2761 13 15 13L11 13C10.7239 13 10.5 12.7761 10.5 12.5ZM11 14C10.7239 14 10.5 14.2239 10.5 14.5C10.5 14.7761 10.7239 15 11 15L15 15C15.2761 15 15.5 14.7761 15.5 14.5C15.5 14.2239 15.2761 14 15 14L11 14Z" fill="black" fill-opacity="0.54"/>
</svg>
