<svg width="24" height="24" viewBox="0 0 24 24" fill="none" xmlns="http://www.w3.org/2000/svg">
<path fill-rule="evenodd" clip-rule="evenodd" d="M5 4.3H10C10.3866 4.3 10.7 4.6134 10.7 5V7H5C4.75374 7 4.51787 7.04451 4.3 7.12592V5C4.3 4.6134 4.6134 4.3 5 4.3ZM4.3 8.99899C4.30055 8.61285 4.61374 8.3 5 8.3H10.7V10.7H4.3V8.99899ZM12 12V10.7V8.3H19C19.3866 8.3 19.7 8.6134 19.7 9V18C19.7 18.3866 19.3866 18.7 19 18.7H11.8741C11.9555 18.4821 12 18.2463 12 18V16V14.7V12ZM10.7 14.7V12H4.3V14.7H10.7ZM3 16V14.7V12V10.7V9V5C3 3.89543 3.89543 3 5 3H10C11.1046 3 12 3.89543 12 5V7H19C20.1046 7 21 7.89543 21 9V18C21 19.1046 20.1046 20 19 20H10H5C3.89543 20 3 19.1046 3 18V16ZM4.3 16H10.7V18C10.7 18.3866 10.3866 18.7 10 18.7H5C4.6134 18.7 4.3 18.3866 4.3 18V16ZM18 12H14V10.7L18 10.7V12ZM14 16H18V14.7L14 14.7V16Z" fill="black" fill-opacity="0.87"/>
</svg>
