<svg width="20" height="20" viewBox="0 0 20 20" fill="none" xmlns="http://www.w3.org/2000/svg">
<path fill-rule="evenodd" clip-rule="evenodd" d="M18 7.5C18 5.84315 16.6569 4.5 15 4.5H9L7.5 3H5C3.34315 3 2 4.34315 2 6V12C2 12.2761 2.22386 12.5 2.5 12.5C2.77614 12.5 3 12.2761 3 12V10C3 8.89543 3.89543 8 5 8H15C16.1046 8 17 8.89543 17 10V14C17 15.1046 16.1046 16 15 16H12.8125C12.5364 16 12.3125 16.2239 12.3125 16.5C12.3125 16.7761 12.5364 17 12.8125 17H15C16.6569 17 18 15.6569 18 14V7.5ZM15 5.5H8.58579L7.08579 4H5C3.89543 4 3 4.89543 3 6V7.76389C3.53076 7.28885 4.23165 7 5 7H15C15.7684 7 16.4692 7.28885 17 7.76389V7.5C17 6.39543 16.1046 5.5 15 5.5Z" fill="black" fill-opacity="0.54"/>
<path d="M12.1418 14.4971L8.92848 17.7C8.7329 17.8949 8.41632 17.8944 8.22138 17.6988C8.02644 17.5033 8.02695 17.1867 8.22253 16.9917L10.2208 15L2.65126 15C2.37511 15 2.15126 14.7761 2.15126 14.5C2.15126 14.2239 2.37512 14 2.65126 14L10.2067 14L8.22542 12.057C8.02826 11.8636 8.02518 11.5471 8.21852 11.3499C8.41187 11.1528 8.72844 11.1497 8.9256 11.343L12.1418 14.4971Z" fill="black" fill-opacity="0.54"/>
</svg>
