<svg width="20" height="20" viewBox="0 0 20 20" fill="none" xmlns="http://www.w3.org/2000/svg">
<path fill-rule="evenodd" clip-rule="evenodd" d="M7 5V9.41604C5.52906 10.0587 4.4271 11.3887 4.10002 13C4.03443 13.3231 4 13.6575 4 14H9V17C9 17.5523 9.44772 18 10 18C10.5523 18 11 17.5523 11 17V14H16C16 13.6575 15.9656 13.3231 15.9 13C15.5729 11.3887 14.4709 10.0587 13 9.41604V5C14.1046 5 15 4.10457 15 3V2H5V3C5 4.10457 5.89543 5 7 5ZM6 3C6 3.55228 6.44772 4 7 4H8V10.0704L7.40037 10.3324C6.2836 10.8203 5.43428 11.8021 5.12601 13L14.874 13C14.5657 11.8021 13.7164 10.8203 12.5996 10.3324L12 10.0704V4H13C13.5523 4 14 3.55228 14 3L6 3Z" fill="black" fill-opacity="0.87"/>
</svg>
