<svg width="24" height="24" viewBox="0 0 24 24" fill="none" xmlns="http://www.w3.org/2000/svg">
<g clip-path="url(#clip0_3009_6103)">
<path fill-rule="evenodd" clip-rule="evenodd" d="M17.6991 7.2738C17.3396 7.08878 17.0867 6.74706 17.0147 6.34924L16.8242 5.2956C16.738 4.81878 16.2536 4.43463 15.6726 4.51435L14.5808 4.66416C14.1923 4.71748 13.8004 4.59254 13.5145 4.32417L12.7219 3.58039C12.3236 3.20654 11.6764 3.20654 11.2781 3.58039L10.4855 4.32417C10.1996 4.59254 9.80772 4.71748 9.41918 4.66416L8.32735 4.51435C7.74639 4.43463 7.26199 4.81878 7.17578 5.29559L6.98526 6.34924C6.91332 6.74706 6.6604 7.08878 6.30094 7.2738L5.32686 7.77517C4.8377 8.02695 4.67861 8.5749 4.89686 9.00803L5.35388 9.91501C5.53929 10.283 5.53929 10.717 5.35388 11.085L4.89686 11.992C4.67861 12.4251 4.8377 12.9731 5.32686 13.2248L6.30094 13.7262C6.6604 13.9112 6.91332 14.2529 6.98526 14.6508L7.17577 15.7044C7.19617 15.8172 7.23883 15.9248 7.29978 16.0223H7.30109V16.0244C7.49825 16.3379 7.88478 16.5464 8.32735 16.4857L9.41918 16.3358C9.80772 16.2825 10.1996 16.4075 10.4855 16.6758L11.2781 17.4196C11.6764 17.7935 12.3236 17.7935 12.7219 17.4196L13.5145 16.6758C13.8004 16.4075 14.1923 16.2825 14.5808 16.3358L15.6726 16.4857C16.1139 16.5462 16.4995 16.3391 16.6972 16.0271V16.0124H16.7063C16.764 15.9175 16.8045 15.8134 16.8242 15.7044L17.0147 14.6508C17.0867 14.2529 17.3396 13.9112 17.6991 13.7262L18.6731 13.2248C19.1623 12.9731 19.3214 12.4251 19.1031 11.992L18.6461 11.085C18.4607 10.717 18.4607 10.283 18.6461 9.91501L19.1031 9.00803C19.3214 8.5749 19.1623 8.02695 18.6731 7.77517L17.6991 7.2738ZM5.89652 15.9357C5.92035 16.0675 5.95559 16.1946 6.00109 16.3163V23.0002V24.0214L6.9263 23.589L12.0006 21.2175L17.0728 23.5796L17.9972 24.0101V22.9904V16.321C18.0435 16.1979 18.0793 16.0692 18.1035 15.9357L18.294 14.8821L19.2681 14.3807C20.3725 13.8123 20.8131 12.4966 20.2641 11.407L19.8071 10.5L20.2641 9.59302C20.8131 8.50342 20.3725 7.18773 19.2681 6.6193L18.294 6.11792L18.1035 5.06428C17.8875 3.8697 16.7338 3.05656 15.4959 3.22642L14.4041 3.37623L13.6116 2.63245C12.713 1.78918 11.287 1.78918 10.3884 2.63245L9.59591 3.37623L8.50408 3.22642C7.2662 3.05656 6.11252 3.8697 5.89652 5.06428L5.706 6.11792L4.73192 6.6193C3.62754 7.18773 3.18688 8.50342 3.73592 9.59302L4.19294 10.5L3.73592 11.407C3.18688 12.4966 3.62754 13.8123 4.73192 14.3807L5.706 14.8821L5.89652 15.9357ZM7.30109 21.9789L7.30109 17.6283C7.66975 17.7751 8.08202 17.8315 8.50408 17.7736L9.59591 17.6238L10.3884 18.3675C11.287 19.2108 12.713 19.2108 13.6116 18.3675L14.4041 17.6238L15.4959 17.7736C15.9173 17.8314 16.329 17.7753 16.6972 17.629V21.9706L12.2745 19.911L11.9996 19.783L11.7249 19.9114L7.30109 21.9789ZM14.2 10.5C14.2 11.715 13.215 12.7 12 12.7C10.785 12.7 9.8 11.715 9.8 10.5C9.8 9.28497 10.785 8.3 12 8.3C13.215 8.3 14.2 9.28497 14.2 10.5ZM15.5 10.5C15.5 12.433 13.933 14 12 14C10.067 14 8.5 12.433 8.5 10.5C8.5 8.567 10.067 7 12 7C13.933 7 15.5 8.567 15.5 10.5Z" fill="black" fill-opacity="0.87"/>
</g>
<defs>
<clipPath id="clip0_3009_6103">
<rect width="24" height="24" fill="white"/>
</clipPath>
</defs>
</svg>
