<svg width="25" height="24" viewBox="0 0 25 24" fill="none" xmlns="http://www.w3.org/2000/svg">
<path fill-rule="evenodd" clip-rule="evenodd" d="M20.09 17.2993C15.0576 17.2368 11.0321 13.078 11.0321 8C11.0321 6.31648 11.4745 4.73298 12.2498 3.36704C8.05287 3.89911 4.77583 7.54694 4.77583 12C4.77583 16.8247 8.61912 20.7 13.3162 20.7C16.069 20.7 18.5235 19.3738 20.09 17.2993ZM20.9191 15.9675C21.4553 15.9184 21.976 15.8148 22.4758 15.662C22.2721 16.1878 22.0258 16.6919 21.7412 17.1698C21.582 17.4371 21.4109 17.6962 21.2286 17.9463C19.4359 20.4057 16.5592 22 13.3162 22C7.88151 22 3.47583 17.5228 3.47583 12C3.47583 6.82845 7.33886 2.5738 12.2925 2.05346C12.5898 2.02223 12.891 2.00446 13.1955 2.00074C13.2357 2.00025 13.2759 2 13.3162 2C13.8426 2 14.3593 2.042 14.8634 2.12289C14.479 2.48382 14.1301 2.88319 13.8226 3.315C13.6657 3.53526 13.5197 3.76396 13.3852 4.0003C12.7154 5.17692 12.3321 6.54297 12.3321 8C12.3321 12.3951 15.8198 15.9624 20.136 15.9997L20.2044 16C20.4453 16 20.6837 15.989 20.9191 15.9675Z" fill="black" fill-opacity="0.54"/>
</svg>
