<svg width="25" height="24" viewBox="0 0 25 24" fill="none" xmlns="http://www.w3.org/2000/svg">
<path fill-rule="evenodd" clip-rule="evenodd" d="M22.4758 10.5C19.1424 14.6668 15.775 18.876 12.4758 23C9.14798 18.8402 5.80815 14.6654 2.47583 10.5L6.19012 3H18.7615L22.4758 10.5ZM4.24838 9.85009L6.42592 5.45313L7.85196 9.85009H4.24838ZM10.7369 18.7453L4.66071 11.1501H8.27358L10.7369 18.7453ZM16.6781 11.1501L14.2148 18.7453L20.2909 11.1501H16.6781ZM18.5257 5.45313L20.7033 9.85009H17.0997L18.5257 5.45313ZM13.3757 4.3H17.5331L15.9703 9.11859L13.3757 4.3ZM11.5762 4.3L8.98145 9.11882L7.41859 4.3H11.5762ZM10.0642 9.85009L12.4759 5.37112L14.8877 9.85009H10.0642ZM9.64024 11.1501L12.4758 19.8932L15.3114 11.1501H9.64024Z" fill="black" fill-opacity="0.87"/>
</svg>
