<svg width="25" height="24" viewBox="0 0 25 24" fill="none" xmlns="http://www.w3.org/2000/svg">
<path d="M9.12587 2.00173C7.11003 2.00173 5.47587 3.63589 5.47587 5.65173V8.65173C5.47587 9.01071 5.76689 9.30173 6.12587 9.30173C6.48486 9.30173 6.77587 9.01071 6.77587 8.65173V5.65173C6.77587 4.35386 7.828 3.30173 9.12587 3.30173L14.1001 3.30171L19.1824 7.97299V18.35C19.1824 19.6479 18.1303 20.7 16.8324 20.7L9.12583 20.7C7.82796 20.7 6.77583 19.6479 6.77583 18.35V15.3943C6.77583 15.0354 6.48482 14.7443 6.12583 14.7443C5.76684 14.7443 5.47583 15.0354 5.47583 15.3943V18.35C5.47583 20.3658 7.10999 22 9.12583 22L16.8324 22C18.8483 22 20.4824 20.3658 20.4824 18.35V7.47109L14.6759 2.00171L9.12587 2.00173Z" fill="white" fill-opacity="0.54"/>
<path d="M10.9553 16.0947L14.9758 11.9982L10.9517 7.96416C10.7051 7.71687 10.309 7.72082 10.0671 7.97299C9.82515 8.22515 9.82901 8.63004 10.0757 8.87733L12.5546 11.3624L3.10142 11.3624C2.75592 11.3624 2.47583 11.6487 2.47583 12.0019C2.47583 12.3551 2.75591 12.6414 3.10142 12.6414L12.5722 12.6414L10.0721 15.1888C9.82737 15.4382 9.82672 15.8431 10.0706 16.0932C10.3145 16.3434 10.7106 16.344 10.9553 16.0947Z" fill="white" fill-opacity="0.54"/>
</svg>
