<svg width="25" height="24" viewBox="0 0 25 24" fill="none" xmlns="http://www.w3.org/2000/svg">
<g clip-path="url(#clip0_5515_87694)">
<path fill-rule="evenodd" clip-rule="evenodd" d="M15.9758 10.5C15.9758 12.433 14.4088 14 12.4758 14C10.5428 14 8.97584 12.433 8.97584 10.5C8.97584 8.567 10.5428 7 12.4758 7C14.4088 7 15.9758 8.567 15.9758 10.5ZM14.6758 10.5C14.6758 11.715 13.6909 12.7 12.4758 12.7C11.2608 12.7 10.2758 11.715 10.2758 10.5C10.2758 9.28497 11.2608 8.3 12.4758 8.3C13.6909 8.3 14.6758 9.28497 14.6758 10.5Z"  fill="white" fill-opacity="0.87"/>
<path fill-rule="evenodd" clip-rule="evenodd" d="M20.2829 10.5L20.7399 9.59302C21.289 8.50342 20.8483 7.18773 19.7439 6.6193L18.7698 6.11792L18.5793 5.06428C18.3633 3.8697 17.2096 3.05656 15.9718 3.22642L14.8799 3.37623L14.0874 2.63245C13.1888 1.78918 11.7628 1.78918 10.8643 2.63245L10.0717 3.37623L8.97991 3.22642C7.74204 3.05656 6.58836 3.8697 6.37236 5.06428L6.18184 6.11792L5.20775 6.6193C4.10337 7.18773 3.66271 8.50342 4.21176 9.59302L4.66878 10.5L4.21176 11.407C3.82166 12.1811 3.93118 13.0694 4.42337 13.7227L0.859772 19.006L5.62592 19.2847L7.66237 23.5962L11.0721 18.541C11.8986 19.1525 13.0506 19.153 13.8776 18.5424L17.2864 23.5962L19.3228 19.2847L24.089 19.006L20.5267 13.7248C21.0203 13.0713 21.1304 12.1819 20.7399 11.407L20.2829 10.5ZM17.4906 6.34924C17.5625 6.74706 17.8154 7.08878 18.1749 7.2738L19.149 7.77517C19.6381 8.02695 19.7972 8.5749 19.579 9.00803L19.122 9.91501C18.9365 10.283 18.9365 10.717 19.122 11.085L19.579 11.992C19.7972 12.4251 19.6381 12.9731 19.149 13.2248L18.1749 13.7262C17.8154 13.9112 17.5625 14.2529 17.4906 14.6508L17.3001 15.7044C17.2138 16.1812 16.7294 16.5654 16.1485 16.4857L15.0567 16.3358C14.6681 16.2825 14.2763 16.4075 13.9903 16.6758L13.1978 17.4196C12.7994 17.7935 12.1522 17.7935 11.7539 17.4196L10.9614 16.6758C10.6754 16.4075 10.2836 16.2825 9.89502 16.3358L8.80319 16.4857C8.22222 16.5654 7.73783 16.1812 7.65161 15.7044L7.46109 14.6508C7.38916 14.2529 7.13623 13.9112 6.77678 13.7262L5.8027 13.2248C5.31354 12.9731 5.15444 12.4251 5.3727 11.992L5.82972 11.085C6.01513 10.717 6.01513 10.283 5.82972 9.91501L5.3727 9.00803C5.15444 8.5749 5.31354 8.02695 5.8027 7.77517L6.77678 7.2738C7.13623 7.08878 7.38916 6.74706 7.46109 6.34924L7.65161 5.29559C7.73783 4.81878 8.22222 4.43463 8.80319 4.51435L9.89502 4.66416C10.2836 4.71748 10.6754 4.59254 10.9614 4.32417L11.7539 3.58039C12.1522 3.20654 12.7994 3.20654 13.1978 3.58039L13.9903 4.32417C14.2763 4.59254 14.6681 4.71748 15.0567 4.66416L16.1485 4.51435C16.7294 4.43463 17.2138 4.81878 17.3001 5.2956L17.4906 6.34924ZM10.103 17.6531L10.0717 17.6238L8.97991 17.7736C7.74204 17.9434 6.58836 17.1303 6.37236 15.9357L6.18184 14.8821L5.46006 14.5106L3.21338 17.8414L6.47192 18.0319L7.86214 20.9752L10.103 17.6531ZM17.0866 20.9752L14.8469 17.6548L14.8799 17.6238L15.9718 17.7736C17.2096 17.9434 18.3633 17.1303 18.5793 15.9357L18.7698 14.8821L19.4894 14.5117L21.7354 17.8414L18.4768 18.0319L17.0866 20.9752Z"  fill="white" fill-opacity="0.87"/>
</g>
<defs>
<clipPath id="clip0_5515_87694">
<rect width="24" height="24" fill="white" transform="translate(0.47583)"/>
</clipPath>
</defs>
</svg>
