<svg width="20" height="20" viewBox="0 0 20 20" fill="none" xmlns="http://www.w3.org/2000/svg">
<path fill-rule="evenodd" clip-rule="evenodd" d="M10.5 2.49976C10.5 2.22361 10.2761 1.99976 9.99999 1.99976C9.72385 1.99976 9.49999 2.22361 9.49999 2.49976V9.48607H2.50049C2.22435 9.48607 2.00049 9.70993 2.00049 9.98607C2.00049 10.2622 2.22435 10.4861 2.50049 10.4861H9.49999V17.4993C9.49999 17.7754 9.72385 17.9993 9.99999 17.9993C10.2761 17.9993 10.5 17.7754 10.5 17.4993V10.4861H17.5C17.7761 10.4861 18 10.2622 18 9.98607C18 9.70993 17.7761 9.48607 17.5 9.48607H10.5V2.49976Z" fill="white" fill-opacity="0.7"/>
</svg>