<svg width="20" height="20" viewBox="0 0 20 20" fill="none" xmlns="http://www.w3.org/2000/svg">
<path fill-rule="evenodd" clip-rule="evenodd" d="M5.00021 3C5.00021 4.10457 5.89564 5 7.00021 5V8.13765L2.9327 5.78927C2.69355 5.6512 2.38776 5.73314 2.24969 5.97229C2.11162 6.21143 2.19355 6.51723 2.4327 6.6553L17.159 15.1575C17.3981 15.2956 17.7039 15.2137 17.842 14.9745C17.9801 14.7354 17.8981 14.4296 17.659 14.2915L15.9525 13.3062C15.9382 13.2031 15.9207 13.101 15.9002 13C15.5731 11.3887 14.4712 10.0587 13.0002 9.41604V5C14.1048 5 15.0002 4.10457 15.0002 3V2H5.00021V3ZM14.7536 12.6141C14.3764 11.5927 13.5941 10.7668 12.5998 10.3324L12.0002 10.0704V4H13.0002C13.5525 4 14.0002 3.55228 14.0002 3L6.00021 3C6.00021 3.55228 6.44793 4 7.00021 4H8.00021V8.715L14.7536 12.6141Z" fill="white" fill-opacity="0.87"/>
<path d="M4.10023 13C4.35491 11.7454 5.07936 10.6613 6.082 9.93948L7.05722 10.5025C6.11105 11.0294 5.40205 11.9282 5.12622 13L11.383 13L13.115 14H11.0002V17C11.0002 17.5523 10.5525 18 10.0002 18C9.44793 18 9.00021 17.5523 9.00021 17V14H4.00021C4.00021 13.6575 4.03464 13.3231 4.10023 13Z" fill="white" fill-opacity="0.87"/>
</svg>
