<svg width="78" height="69" viewBox="0 0 78 69" fill="none" xmlns="http://www.w3.org/2000/svg">
<path fill-rule="evenodd" clip-rule="evenodd" d="M26.5298 2.09717L33.3853 9.39241H60.8071C68.3795 9.39241 74.5181 15.2767 74.5181 22.5353V55.0336C74.5181 62.0905 68.7887 67.8113 61.7212 67.8113H60.8659C60.8463 67.8114 60.8267 67.8114 60.8071 67.8114H15.104C15.0844 67.8114 15.0648 67.8114 15.0452 67.8113H14.1899C7.12242 67.8113 1.39307 62.0905 1.39307 55.0336V15.24C1.39307 7.98143 7.53166 2.09717 15.104 2.09717H26.5298ZM6.14619 34.5835V54.6686C6.14619 59.1108 9.94711 63.0397 15.0539 63.0653H60.8572C65.964 63.0397 69.7649 59.1108 69.7649 54.6686V34.5835C69.7649 30.1477 66.1636 26.5518 61.7212 26.5518H14.1899C9.7475 26.5518 6.14619 30.1477 6.14619 34.5835ZM69.7649 24.645C67.5672 22.8693 64.7686 21.8057 61.7212 21.8057H14.1899C11.1426 21.8057 8.34398 22.8693 6.14619 24.645V15.24C6.14619 10.7833 9.972 6.8432 15.104 6.8432H24.4718L31.3273 14.1384H60.8071C65.9391 14.1384 69.7649 18.0786 69.7649 22.5353V24.645Z" fill="#AFB3B6"/>
</svg>
