<svg xmlns="http://www.w3.org/2000/svg" width="24" height="24" viewBox="0 0 24 24" fill="none">
<path fill-rule="evenodd" clip-rule="evenodd" d="M12.6501 4.65C12.6501 4.29101 12.3591 4 12.0001 4C11.6411 4 11.3501 4.29101 11.3501 4.65V11.3496L4.65 11.3496C4.29101 11.3496 4 11.6406 4 11.9996C4 12.3586 4.29101 12.6496 4.65 12.6496L11.3501 12.6496V19.35C11.3501 19.709 11.6411 20 12.0001 20C12.3591 20 12.6501 19.709 12.6501 19.35V12.6496L19.35 12.6496C19.709 12.6496 20 12.3586 20 11.9996C20 11.6406 19.709 11.3496 19.35 11.3496L12.6501 11.3496V4.65Z" fill="black" fill-opacity="0.4"/>
</svg>