<svg width="24" height="24" viewBox="0 0 24 24" fill="none" xmlns="http://www.w3.org/2000/svg">
<path d="M9.50391 11.603V18.403" stroke="white" stroke-opacity="0.7" stroke-width="1.3" stroke-linecap="round"/>
<path d="M14.5034 11.603V18.403" stroke="white" stroke-opacity="0.7" stroke-width="1.3" stroke-linecap="round"/>
<path fill-rule="evenodd" clip-rule="evenodd" d="M10.2784 4.65232C10.2784 3.90674 10.8828 3.30232 11.6284 3.30232H12.3777C13.1233 3.30232 13.7277 3.90674 13.7277 4.65232V4.99998H10.2784V4.65232ZM8.97842 4.99998V4.65232C8.97842 3.18876 10.1649 2.00232 11.6284 2.00232H12.3777C13.8412 2.00232 15.0277 3.18877 15.0277 4.65232V4.99998H18C19.1046 4.99998 20 5.89541 20 6.99998V7.99905V9.29905H19.0523V19.4C19.0523 20.8635 17.8659 22.05 16.4023 22.05H7.60156C6.13801 22.05 4.95156 20.8635 4.95156 19.4V9.29905H4V7.99905V6.99998C4 5.89541 4.89543 4.99998 6 4.99998H8.97842ZM18 6.29998H6C5.6134 6.29998 5.3 6.61338 5.3 6.99998V7.99905H18.7V6.99998C18.7 6.61338 18.3866 6.29998 18 6.29998ZM6.25156 19.4V9.29905H17.7523V19.4C17.7523 20.1456 17.1479 20.75 16.4023 20.75H7.60156C6.85598 20.75 6.25156 20.1456 6.25156 19.4Z" fill="white" fill-opacity="0.7"/>
</svg>
