<svg width="20" height="20" viewBox="0 0 20 20" fill="none" xmlns="http://www.w3.org/2000/svg">
<path d="M11.7167 17.9999C16.0473 18.0209 20 14.4335 20 10.0695C20 5.29712 16.0473 1.99841 11.7167 2H7.98972C3.60719 1.99841 0 5.29811 0 10.0695C0 14.4345 3.60719 18.0209 7.98972 17.9999H11.7167Z" fill="#0079BE"/>
<path d="M8.00122 2.66211C3.99961 2.66339 0.757027 5.96831 0.756104 10.0472C0.757027 14.1254 3.99961 17.4301 8.00122 17.4314C12.0037 17.4301 15.2471 14.1254 15.2476 10.0472C15.247 5.96831 12.0037 2.66339 8.00122 2.66211ZM3.40872 10.0472C3.41247 8.05406 4.6342 6.35436 6.35697 5.67895V14.4145C4.6342 13.7395 3.41247 12.0407 3.40872 10.0472ZM9.64485 14.4164V5.67866C11.3682 6.35246 12.5919 8.05307 12.595 10.0472C12.5919 12.042 11.3682 13.7414 9.64485 14.4164Z" fill="white"/>
</svg>
