<svg width="253" height="183" viewBox="0 0 253 183" fill="none" xmlns="http://www.w3.org/2000/svg">
<path d="M248.747 76.0167C263.456 130.914 228.214 157.371 173.317 172.08C118.42 186.79 34.7733 199.477 12.7313 117.215C-9.31077 34.9529 44.4748 20.2731 99.3719 5.56348C173.33 -14.2535 234.037 21.1197 248.747 76.0167Z" fill="white" fill-opacity="0.08"/>
<path fill-rule="evenodd" clip-rule="evenodd" d="M113 69.0044C113 61.2724 119.268 55.0044 127 55.0044H165C172.732 55.0044 179 61.2724 179 69.0044H202V144.004C202 149.527 197.523 154.004 192 154.004H100C94.4772 154.004 90 149.527 90 144.004V69.0044L113 69.0044ZM127 63.0044C124.791 63.0044 123 64.7953 123 67.0044V79.0044C123 81.2135 124.791 83.0044 127 83.0044H165C167.209 83.0044 169 81.2135 169 79.0044V67.0044C169 64.7953 167.209 63.0044 165 63.0044H127Z" fill="#121212"/>
<path d="M169 116.004C169 128.707 158.703 139.004 146 139.004C133.297 139.004 123 128.707 123 116.004C123 103.302 133.297 93.0044 146 93.0044C158.703 93.0044 169 103.302 169 116.004Z" fill="#EB5757"/>
<path d="M169 116.004C169 128.707 158.703 139.004 146 139.004C133.297 139.004 123 128.707 123 116.004C123 103.302 133.297 93.0044 146 93.0044C158.703 93.0044 169 103.302 169 116.004Z" fill="#B82F2F"/>
<path fill-rule="evenodd" clip-rule="evenodd" d="M151 102.004H141V111.004H132V121.004H141V130.004H151V121.004H160V111.004H151V102.004Z" fill="#121212"/>
<mask id="path-5-inside-1" fill="white">
<path fill-rule="evenodd" clip-rule="evenodd" d="M146 141.004C159.807 141.004 171 129.812 171 116.004C171 102.197 159.807 91.0044 146 91.0044C132.193 91.0044 121 102.197 121 116.004C121 129.812 132.193 141.004 146 141.004ZM169 116.004C169 128.707 158.703 139.004 146 139.004C133.297 139.004 123 128.707 123 116.004C123 103.302 133.297 93.0044 146 93.0044C158.703 93.0044 169 103.302 169 116.004ZM132 111.004H141V102.004H151V111.004H160V121.004H151V130.004H141V121.004H132V111.004ZM143 113.004V104.004H149V113.004H158V119.004H149V128.004H143V119.004H134V113.004H143Z"/>
</mask>
<path d="M141 111.004V113.004H143V111.004H141ZM132 111.004V109.004H130V111.004H132ZM141 102.004V100.004H139V102.004H141ZM151 102.004H153V100.004H151V102.004ZM151 111.004H149V113.004H151V111.004ZM160 111.004H162V109.004H160V111.004ZM160 121.004V123.004H162V121.004H160ZM151 121.004V119.004H149V121.004H151ZM151 130.004V132.004H153V130.004H151ZM141 130.004H139V132.004H141V130.004ZM141 121.004H143V119.004H141V121.004ZM132 121.004H130V123.004H132V121.004ZM143 104.004V102.004H141V104.004H143ZM143 113.004V115.004H145V113.004H143ZM149 104.004H151V102.004H149V104.004ZM149 113.004H147V115.004H149V113.004ZM158 113.004H160V111.004H158V113.004ZM158 119.004V121.004H160V119.004H158ZM149 119.004V117.004H147V119.004H149ZM149 128.004V130.004H151V128.004H149ZM143 128.004H141V130.004H143V128.004ZM143 119.004H145V117.004H143V119.004ZM134 119.004H132V121.004H134V119.004ZM134 113.004V111.004H132V113.004H134ZM169 116.004C169 128.707 158.703 139.004 146 139.004V143.004C160.912 143.004 173 130.916 173 116.004H169ZM146 93.0044C158.703 93.0044 169 103.302 169 116.004H173C173 101.093 160.912 89.0044 146 89.0044V93.0044ZM123 116.004C123 103.302 133.297 93.0044 146 93.0044V89.0044C131.088 89.0044 119 101.093 119 116.004H123ZM146 139.004C133.297 139.004 123 128.707 123 116.004H119C119 130.916 131.088 143.004 146 143.004V139.004ZM146 141.004C159.807 141.004 171 129.812 171 116.004H167C167 127.602 157.598 137.004 146 137.004V141.004ZM121 116.004C121 129.812 132.193 141.004 146 141.004V137.004C134.402 137.004 125 127.602 125 116.004H121ZM146 91.0044C132.193 91.0044 121 102.197 121 116.004H125C125 104.406 134.402 95.0044 146 95.0044V91.0044ZM171 116.004C171 102.197 159.807 91.0044 146 91.0044V95.0044C157.598 95.0044 167 104.406 167 116.004H171ZM141 109.004H132V113.004H141V109.004ZM139 102.004V111.004H143V102.004H139ZM151 100.004H141V104.004H151V100.004ZM153 111.004V102.004H149V111.004H153ZM160 109.004H151V113.004H160V109.004ZM162 121.004V111.004H158V121.004H162ZM151 123.004H160V119.004H151V123.004ZM153 130.004V121.004H149V130.004H153ZM141 132.004H151V128.004H141V132.004ZM139 121.004V130.004H143V121.004H139ZM132 123.004H141V119.004H132V123.004ZM130 111.004V121.004H134V111.004H130ZM141 104.004V113.004H145V104.004H141ZM149 102.004H143V106.004H149V102.004ZM151 113.004V104.004H147V113.004H151ZM158 111.004H149V115.004H158V111.004ZM160 119.004V113.004H156V119.004H160ZM149 121.004H158V117.004H149V121.004ZM151 128.004V119.004H147V128.004H151ZM143 130.004H149V126.004H143V130.004ZM141 119.004V128.004H145V119.004H141ZM134 121.004H143V117.004H134V121.004ZM132 113.004V119.004H136V113.004H132ZM143 111.004H134V115.004H143V111.004Z" fill="#EB5757" mask="url(#path-5-inside-1)"/>
<path fill-rule="evenodd" clip-rule="evenodd" d="M121 67.0044C121 63.6907 123.686 61.0044 127 61.0044H165C168.314 61.0044 171 63.6907 171 67.0044V79.0044C171 82.3181 168.314 85.0044 165 85.0044H127C123.686 85.0044 121 82.3181 121 79.0044V67.0044ZM123 67.0044C123 64.7953 124.791 63.0044 127 63.0044H165C167.209 63.0044 169 64.7953 169 67.0044V79.0044C169 81.2135 167.209 83.0044 165 83.0044H127C124.791 83.0044 123 81.2135 123 79.0044V67.0044Z" fill="#595959"/>
<path d="M99 77.0044H113V85.0044H99V77.0044Z" fill="#595959"/>
<path d="M194 77.0044H180V85.0044H194V77.0044Z" fill="#595959"/>
<path fill-rule="evenodd" clip-rule="evenodd" d="M202 69.0044V144.004C202 149.527 197.523 154.004 192 154.004H100C94.4772 154.004 90 149.527 90 144.004V69.0044L113 69.0044C113 61.2724 119.268 55.0044 127 55.0044H165C172.732 55.0044 179 61.2724 179 69.0044H202ZM115 71.0044L92 71.0044V144.004C92 148.423 95.5817 152.004 100 152.004H192C196.418 152.004 200 148.423 200 144.004V71.0044H177V69.0044C177 62.377 171.627 57.0044 165 57.0044H127C120.373 57.0044 115 62.377 115 69.0044V71.0044Z" fill="#595959"/>
<path d="M34.357 33.001H17.4495C16.3429 33.001 15.4458 33.8936 15.4458 34.9947V45.7317C15.4458 45.9362 15.4141 46.1396 15.352 46.3345L1.56457 89.5814C1.19163 90.7512 1.00183 91.9712 1.00183 93.1984V141.045C1.00183 147.652 6.38454 153.007 13.0244 153.007H49.2849C52.2214 153.007 54.9121 151.96 56.9999 150.22C59.0878 151.96 61.7785 153.007 64.715 153.007H100.975C107.615 153.007 112.998 147.652 112.998 141.045V93.1984C112.998 91.9712 112.808 90.7512 112.435 89.5814L98.6479 46.3345C98.5857 46.1396 98.5541 45.9362 98.5541 45.7317V34.9947C98.5541 33.8936 97.657 33.001 96.5503 33.001H79.6429C78.7383 33.001 77.9459 33.604 77.7091 34.4727L74.6314 45.76C74.5807 45.9459 74.5032 46.1235 74.4012 46.2873L56.9999 74.2567L39.5986 46.2873C39.4967 46.1235 39.4192 45.9459 39.3685 45.76L36.2908 34.4727C36.054 33.604 35.2616 33.001 34.357 33.001Z" fill="#121212"/>
<path fill-rule="evenodd" clip-rule="evenodd" d="M34.357 32.0039C35.7139 32.0039 36.9025 32.9085 37.2578 34.2114L40.3355 45.4987C40.3609 45.5917 40.3996 45.6805 40.4506 45.7624L40.5102 45.8582H73.4898L73.5494 45.7624C73.6004 45.6805 73.6391 45.5917 73.6645 45.4987L76.7422 34.2114C77.0975 32.9085 78.2861 32.0039 79.643 32.0039H96.5504C98.2104 32.0039 99.556 33.3428 99.556 34.9945V45.7315C99.556 45.8338 99.5719 45.9354 99.6029 46.0329L113.39 89.2798C113.794 90.5471 114 91.8687 114 93.1982V141.045C114 148.202 108.169 154.004 100.975 154.004H64.7151C61.8275 154.004 59.1595 153.069 57 151.487C54.8405 153.069 52.1725 154.004 49.2849 154.004H13.0245C5.83126 154.004 0 148.202 0 141.045V93.1982C0 91.8687 0.205614 90.5471 0.609629 89.2798L14.3971 46.0329C14.4281 45.9354 14.444 45.8338 14.444 45.7315V34.9945C14.444 33.3428 15.7896 32.0039 17.4496 32.0039H34.357ZM57 72.3626L41.7506 47.8519H72.2494L57 72.3626ZM58.5605 150.142C60.318 151.322 62.4357 152.01 64.7151 152.01H92.7622V132.615C92.7622 126.512 91.9215 120.438 90.2636 114.562L87.0193 103.064C85.213 96.662 84.2971 90.044 84.2971 83.3946V33.9976H79.643C79.1907 33.9976 78.7945 34.2991 78.676 34.7335L75.5983 46.0208C75.5223 46.2997 75.406 46.5661 75.2532 46.8118L58.1783 74.2565L60.3593 77.762C61.6341 79.811 62.3094 82.1732 62.3094 84.583V141.045C62.3094 144.59 60.8787 147.803 58.5605 150.142ZM100.975 152.01H98.7735V132.615C98.7735 125.965 97.8575 119.347 96.0512 112.946L92.8069 101.447C91.149 95.5715 90.3084 89.4975 90.3084 83.3946V33.9976H96.5504C97.1037 33.9976 97.5523 34.4439 97.5523 34.9945V45.7315C97.5523 46.0383 97.5997 46.3433 97.693 46.6357L111.48 89.8826C111.822 90.9549 111.996 92.0732 111.996 93.1982V141.045C111.996 147.101 107.062 152.01 100.975 152.01ZM58.6555 78.8114C59.7342 80.5452 60.3057 82.5439 60.3057 84.583V141.045C60.3057 144.112 59.04 146.885 57 148.875L55.4395 150.142C53.682 151.322 51.5643 152.01 49.2849 152.01H23.3912V130.23C23.3912 125.632 23.8684 121.047 24.8151 116.547L28.1512 100.688C29.1827 95.7848 29.7026 90.7887 29.7026 85.7793L29.7026 33.9976H34.357C34.8093 33.9976 35.2055 34.2991 35.3239 34.7335L38.4017 46.0208C38.4777 46.2997 38.594 46.5661 38.7468 46.8118L58.6555 78.8114ZM23.6913 33.9976L23.6913 85.7793C23.6913 90.377 23.2141 94.9624 22.2674 99.4626L18.9313 115.321C17.8998 120.225 17.3799 125.221 17.3799 130.23V152.01H13.0245C6.93791 152.01 2.00377 147.101 2.00377 141.045V93.1982C2.00377 92.0732 2.17775 90.9549 2.51961 89.8826L16.307 46.6357C16.4003 46.3433 16.4477 46.0383 16.4477 45.7315V34.9945C16.4477 34.4439 16.8963 33.9976 17.4496 33.9976H23.6913Z" fill="#595959"/>
<path d="M71 147.023H36V154H71V147.023Z" fill="#121212"/>
<path fill-rule="evenodd" clip-rule="evenodd" d="M38 149.017H69V152.006H38V149.017ZM71 147.023V154H36V147.023H71Z" fill="#595959"/>
<path fill-rule="evenodd" clip-rule="evenodd" d="M72.908 154C57.9455 154 45.816 141.912 45.816 127C45.816 112.088 57.9455 100 72.908 100C87.8705 100 100 112.088 100 127C100 141.912 87.8705 154 72.908 154ZM72.908 137.565C67.0531 137.565 62.3067 132.835 62.3067 127C62.3067 121.165 67.0531 116.435 72.908 116.435C78.7629 116.435 83.5092 121.165 83.5092 127C83.5092 132.835 78.7629 137.565 72.908 137.565Z" fill="#121212"/>
<path fill-rule="evenodd" clip-rule="evenodd" d="M73 141.044C65.268 141.044 59 134.797 59 127.092C59 119.386 65.268 113.139 73 113.139C80.732 113.139 87 119.386 87 127.092C87 134.797 80.732 141.044 73 141.044ZM64 127.092C64 132.045 68.0294 136.061 73 136.061C77.9705 136.061 82 132.045 82 127.092C82 122.138 77.9705 118.122 73 118.122C68.0294 118.122 64 122.138 64 127.092Z" fill="#595959"/>
<path d="M72.5 110.149C81.6127 110.149 89 117.512 89 126.593H91C91 116.411 82.7172 108.156 72.5 108.156C62.2827 108.156 54 116.411 54 126.593C54 136.776 62.2827 145.031 72.5 145.031V143.037C63.3873 143.037 56 135.675 56 126.593C56 117.512 63.3873 110.149 72.5 110.149Z" fill="#595959"/>
<path d="M94 127.092C94 115.533 84.5979 106.163 73 106.163V104.17C85.7025 104.17 96 114.432 96 127.092H94Z" fill="#595959"/>
<path fill-rule="evenodd" clip-rule="evenodd" d="M72.9079 154C57.9454 154 45.8159 141.912 45.8159 127C45.8159 112.088 57.9454 100 72.9079 100C87.8705 100 100 112.088 100 127C100 141.912 87.8705 154 72.9079 154ZM47.8159 127C47.8159 140.811 59.05 152.007 72.9079 152.007C86.7659 152.007 98 140.811 98 127C98 113.189 86.7659 101.993 72.9079 101.993C59.05 101.993 47.8159 113.189 47.8159 127Z" fill="#595959"/>
<path d="M169 146.556C169 142.665 172.099 139.482 175.988 139.379L237.265 137.749C242.22 137.617 246.309 141.599 246.309 146.556C246.309 151.512 242.22 155.494 237.265 155.362L175.988 153.732C172.099 153.629 169 150.446 169 146.556Z" fill="#121212"/>
<path fill-rule="evenodd" clip-rule="evenodd" d="M237.318 139.749L176.041 141.378C173.236 141.453 171 143.749 171 146.556C171 149.362 173.236 151.658 176.041 151.733L237.318 153.362C241.148 153.464 244.309 150.387 244.309 146.556C244.309 142.724 241.148 139.647 237.318 139.749ZM175.988 139.379C172.099 139.482 169 142.665 169 146.556C169 150.446 172.099 153.629 175.988 153.732L237.265 155.362C242.22 155.494 246.309 151.512 246.309 146.556C246.309 141.599 242.22 137.617 237.265 137.749L175.988 139.379Z" fill="#595959"/>
<path d="M200.869 104.817C205.804 98.896 212.109 97.1415 214.645 97.0044C214.645 98.8549 214.028 103.46 211.561 107.079C209.094 110.698 194.77 128.188 187.916 136.481L185.86 137.098L185.243 142.238L173.318 140.593C180.445 131.135 195.935 110.739 200.869 104.817Z" fill="#121212"/>
<path fill-rule="evenodd" clip-rule="evenodd" d="M215.645 95.9487V97.0042C215.645 98.9766 215.005 103.803 212.387 107.642C209.886 111.311 195.517 128.853 188.687 137.118L188.494 137.352L186.775 137.867L186.115 143.368L171.494 141.351L172.519 139.991C179.639 130.544 195.147 110.122 200.101 104.177C205.232 98.0199 211.808 96.1561 214.591 96.0057L215.645 95.9487ZM213.584 98.1415C210.81 98.6424 205.738 100.537 201.637 105.458C196.947 111.087 182.64 129.9 175.142 139.835L184.371 141.108L184.945 136.328L187.338 135.61C194.285 127.201 208.324 110.052 210.735 106.516C212.644 103.715 213.383 100.243 213.584 98.1415Z" fill="#595959"/>
<path d="M235.484 114.079C233.512 108.618 229.498 105.755 227.738 105.006C227.262 106.317 226.515 109.736 227.332 112.933C228.149 116.129 233.797 132.194 236.518 139.828L243.389 144.761C244.166 145.32 245.209 144.575 244.927 143.66C242.074 134.409 237.259 118.994 235.484 114.079Z" fill="#121212"/>
<path fill-rule="evenodd" clip-rule="evenodd" d="M227.158 103.673L226.798 104.665C226.281 106.09 225.48 109.724 226.363 113.18C227.195 116.435 232.867 132.564 235.576 140.163L235.681 140.458L242.805 145.573C244.353 146.684 246.45 145.206 245.882 143.365C243.034 134.126 238.21 118.682 236.424 113.739C234.348 107.989 230.117 104.932 228.129 104.086L227.158 103.673ZM228.357 106.469C230.17 107.608 233.008 110.167 234.543 114.418C236.308 119.304 241.112 134.683 243.969 143.947L237.355 139.198C234.585 131.423 229.093 115.783 228.301 112.685C227.724 110.426 228.001 108.009 228.357 106.469Z" fill="#595959"/>
<path fill-rule="evenodd" clip-rule="evenodd" d="M240.557 141.543L199.464 105.485C196.082 102.518 191.674 100.991 187.181 101.23L193.143 107.076L196.119 107.498L196.531 110.397L196.547 110.414L199.446 110.825L199.847 113.649L199.952 113.752L202.773 114.152L203.163 116.9L203.356 117.09L206.1 117.479L206.479 120.152L206.761 120.428L209.427 120.806L209.796 123.403L210.165 123.766L212.754 124.133L213.112 126.655L213.57 127.103L216.081 127.46L216.428 129.906L216.974 130.441L219.408 130.787L219.744 133.158L220.378 133.779L222.735 134.114L223.061 136.409L223.783 137.117L226.062 137.441L226.377 139.661L227.187 140.455L229.389 140.768L229.693 142.913L230.592 143.793L232.716 144.095L233.01 146.164L233.735 146.876L239.839 144.954C241.326 144.485 241.729 142.571 240.557 141.543Z" fill="#121212"/>
<path fill-rule="evenodd" clip-rule="evenodd" d="M239.538 144C240.282 143.766 240.484 142.808 239.898 142.294L198.805 106.237C196.237 103.984 193.042 102.613 189.684 102.283L193.609 106.132L197.004 106.614L197.417 109.527L200.331 109.941L200.744 112.854L203.658 113.268L204.071 116.181L206.985 116.595L207.398 119.508L210.312 119.922L210.725 122.835L213.639 123.249L214.052 126.162L216.965 126.575L217.371 129.43L217.44 129.498L220.292 129.902L220.687 132.681L220.844 132.836L223.619 133.229L224.003 135.933L224.248 136.174L226.946 136.556L227.319 139.185L227.653 139.511L230.273 139.883L230.636 142.436L231.057 142.849L233.6 143.21L233.952 145.688L234.007 145.742L239.538 144ZM241.217 140.791C242.975 142.333 242.37 145.205 240.139 145.907L233.464 148.01L232.067 146.641L231.831 144.979L230.126 144.737L228.751 143.389L228.504 141.652L226.722 141.399L225.435 140.138L225.177 138.325L223.317 138.061L222.118 136.886L221.85 134.998L219.913 134.723L218.802 133.634L218.523 131.671L216.508 131.385L215.486 130.383L215.197 128.344L213.104 128.047L212.17 127.131L211.87 125.018L209.699 124.71L208.853 123.88L208.543 121.691L206.295 121.372L205.537 120.628L205.216 118.364L202.891 118.034L202.221 117.377L201.889 115.037L199.486 114.696L198.904 114.125L198.562 111.71L196.082 111.358L195.588 110.874L195.235 108.383L192.677 108.02L184.858 100.353L187.128 100.232C191.882 99.9784 196.546 101.594 200.124 104.734L241.217 140.791Z" fill="#595959"/>
<path fill-rule="evenodd" clip-rule="evenodd" d="M175.988 139.379C172.099 139.482 169 142.665 169 146.556C169 150.446 172.099 153.629 175.988 153.732L209.593 154.626L211.766 149.845H232.327C235.877 149.845 238.949 151.89 240.431 154.866C243.848 153.659 246.309 150.401 246.309 146.556C246.309 141.599 242.22 137.617 237.265 137.749L175.988 139.379Z" fill="#121212"/>
<path fill-rule="evenodd" clip-rule="evenodd" d="M210.479 147.845H232.327C235.953 147.845 239.168 149.592 241.181 152.285C243.062 151.074 244.309 148.962 244.309 146.556C244.309 142.724 241.148 139.647 237.318 139.749L176.041 141.378C173.236 141.453 171 143.749 171 146.556C171 149.362 173.236 151.658 176.041 151.733L208.321 152.591L210.479 147.845ZM209.593 154.626L175.988 153.732C172.099 153.629 169 150.446 169 146.556C169 142.665 172.099 139.482 175.988 139.379L237.265 137.749C242.22 137.617 246.309 141.599 246.309 146.556C246.309 150.401 243.848 153.659 240.431 154.866C238.949 151.89 235.877 149.845 232.327 149.845H211.766L209.593 154.626Z" fill="#595959"/>
</svg>
