<svg width="253" height="184" viewBox="0 0 253 184" fill="none" xmlns="http://www.w3.org/2000/svg">
<path d="M248.747 77.0123C263.456 131.909 228.214 158.366 173.317 173.076C118.42 187.786 34.7733 200.472 12.7313 118.21C-9.31077 35.9485 44.4748 21.2687 99.3719 6.55909C173.33 -13.2579 234.037 22.1153 248.747 77.0123Z" fill="#EEEEEE"/>
<path fill-rule="evenodd" clip-rule="evenodd" d="M113 70C113 62.268 119.268 56 127 56H165C172.732 56 179 62.268 179 70H202V145C202 150.523 197.523 155 192 155H100C94.4772 155 90 150.523 90 145V70L113 70ZM127 64C124.791 64 123 65.7909 123 68V80C123 82.2091 124.791 84 127 84H165C167.209 84 169 82.2091 169 80V68C169 65.7909 167.209 64 165 64H127Z" fill="#FAFAFA"/>
<path d="M169 117C169 129.703 158.703 140 146 140C133.297 140 123 129.703 123 117C123 104.297 133.297 94 146 94C158.703 94 169 104.297 169 117Z" fill="#EB5757"/>
<path fill-rule="evenodd" clip-rule="evenodd" d="M151 103H141V112H132V122H141V131H151V122H160V112H151V103Z" fill="white"/>
<path fill-rule="evenodd" clip-rule="evenodd" d="M146 142C159.807 142 171 130.807 171 117C171 103.193 159.807 92 146 92C132.193 92 121 103.193 121 117C121 130.807 132.193 142 146 142ZM169 117C169 129.703 158.703 140 146 140C133.297 140 123 129.703 123 117C123 104.297 133.297 94 146 94C158.703 94 169 104.297 169 117ZM132 112H141V103H151V112H160V122H151V131H141V122H132V112ZM143 114V105H149V114H158V120H149V129H143V120H134V114H143Z" fill="#B82F2F"/>
<path fill-rule="evenodd" clip-rule="evenodd" d="M121 68C121 64.6863 123.686 62 127 62H165C168.314 62 171 64.6863 171 68V80C171 83.3137 168.314 86 165 86H127C123.686 86 121 83.3137 121 80V68ZM123 68C123 65.7909 124.791 64 127 64H165C167.209 64 169 65.7909 169 68V80C169 82.2091 167.209 84 165 84H127C124.791 84 123 82.2091 123 80V68Z" fill="#AFB3B6"/>
<path d="M99 78H113V86H99V78Z" fill="#AFB3B6"/>
<path d="M194 78H180V86H194V78Z" fill="#AFB3B6"/>
<path fill-rule="evenodd" clip-rule="evenodd" d="M202 70V145C202 150.523 197.523 155 192 155H100C94.4772 155 90 150.523 90 145V70L113 70C113 62.268 119.268 56 127 56H165C172.732 56 179 62.268 179 70H202ZM115 72L92 72V145C92 149.418 95.5817 153 100 153H192C196.418 153 200 149.418 200 145V72H177V70C177 63.3726 171.627 58 165 58H127C120.373 58 115 63.3726 115 70V72Z" fill="#AFB3B6"/>
<path d="M34.2924 33H17.4168C16.3122 33 15.4168 33.8954 15.4168 35V45.7708C15.4168 45.976 15.3852 46.18 15.3232 46.3756L1.56168 89.7588C1.18944 90.9322 1 92.156 1 93.3871V141.384C1 148.012 6.37258 153.384 13 153.384H49.1922C52.1233 153.384 54.8088 152.334 56.8928 150.588C58.9767 152.334 61.6623 153.384 64.5933 153.384H100.786C107.413 153.384 112.786 148.012 112.786 141.384V93.3871C112.786 92.156 112.596 90.9322 112.224 89.7588L98.4624 46.3756C98.4004 46.18 98.3688 45.976 98.3688 45.7708V35C98.3688 33.8954 97.4734 33 96.3688 33H79.4932C78.5903 33 77.7994 33.6049 77.563 34.4763L74.491 45.7992C74.4404 45.9857 74.3631 46.1639 74.2614 46.3282L56.8928 74.3858L39.5242 46.3282C39.4225 46.1639 39.3451 45.9857 39.2945 45.7992L36.2226 34.4763C35.9862 33.6049 35.1953 33 34.2924 33Z" fill="white"/>
<path fill-rule="evenodd" clip-rule="evenodd" d="M34.2924 32C35.6467 32 36.8331 32.9074 37.1877 34.2145L40.2597 45.5374C40.285 45.6306 40.3236 45.7197 40.3745 45.8019L40.434 45.8979H73.3516L73.4111 45.8019C73.462 45.7197 73.5006 45.6306 73.5259 45.5374L76.5978 34.2145C76.9525 32.9074 78.1389 32 79.4932 32H96.3688C98.0257 32 99.3688 33.3431 99.3688 35V45.7708C99.3688 45.8734 99.3846 45.9754 99.4156 46.0732L113.177 89.4564C113.58 90.7277 113.786 92.0534 113.786 93.3871V141.384C113.786 148.564 107.965 154.384 100.786 154.384H64.5933C61.7113 154.384 59.0482 153.447 56.8928 151.859C54.7374 153.447 52.0743 154.384 49.1922 154.384H13C5.8203 154.384 0 148.564 0 141.384V93.3871C0 92.0534 0.205227 90.7277 0.608482 89.4564L14.37 46.0732C14.401 45.9754 14.4168 45.8734 14.4168 45.7708V35C14.4168 33.3431 15.7599 32 17.4168 32H34.2924ZM56.8928 72.4859L41.672 47.8979H72.1136L56.8928 72.4859ZM58.4503 150.511C60.2045 151.694 62.3183 152.384 64.5933 152.384H92.5877V132.928C92.5877 126.806 91.7486 120.713 90.0939 114.818L86.8557 103.284C85.0527 96.8618 84.1385 90.223 84.1385 83.5527V34H79.4932C79.0417 34 78.6463 34.3025 78.5281 34.7382L75.4562 46.061C75.3803 46.3408 75.2642 46.6081 75.1116 46.8546L58.0689 74.3858L60.2457 77.9023C61.5182 79.9578 62.1922 82.3273 62.1922 84.7448V141.384C62.1922 144.941 60.7642 148.164 58.4503 150.511ZM100.786 152.384H98.5877V132.928C98.5877 126.258 97.6735 119.619 95.8706 113.197L92.6323 101.662C90.9776 95.7679 90.1385 89.6747 90.1385 83.5527V34H96.3688C96.9211 34 97.3688 34.4477 97.3688 35V45.7708C97.3688 46.0786 97.4162 46.3846 97.5092 46.6779L111.271 90.0611C111.612 91.1368 111.786 92.2586 111.786 93.3871V141.384C111.786 147.46 106.861 152.384 100.786 152.384ZM58.5452 78.955C59.6219 80.6942 60.1922 82.6993 60.1922 84.7448V141.384C60.1922 144.461 58.929 147.243 56.8928 149.239L55.3353 150.511C53.5811 151.694 51.4673 152.384 49.1922 152.384H23.3472V130.536C23.3472 125.924 23.8235 121.324 24.7684 116.809L28.0983 100.9C29.1278 95.9819 29.6467 90.9701 29.6467 85.9449L29.6467 34H34.2924C34.7438 34 35.1393 34.3025 35.2575 34.7382L38.3294 46.061C38.4053 46.3408 38.5214 46.6081 38.674 46.8546L58.5452 78.955ZM23.6467 34L23.6467 85.9449C23.6467 90.5571 23.1705 95.1569 22.2256 99.6712L18.8957 115.58C17.8661 120.499 17.3472 125.51 17.3472 130.536V152.384H13C6.92487 152.384 2 147.46 2 141.384V93.3871C2 92.2586 2.17366 91.1368 2.51487 90.0611L16.2764 46.6779C16.3694 46.3846 16.4168 46.0786 16.4168 45.7708V35C16.4168 34.4477 16.8645 34 17.4168 34H23.6467Z" fill="#AFB3B6"/>
<path d="M70 148H35V155H70V148Z" fill="#FAFAFA"/>
<path fill-rule="evenodd" clip-rule="evenodd" d="M37 150H68V153H37V150ZM70 148V155H35V148H70Z" fill="#AFB3B6"/>
<path fill-rule="evenodd" clip-rule="evenodd" d="M71.908 155C56.9455 155 44.816 142.87 44.816 127.908C44.816 112.945 56.9455 100.816 71.908 100.816C86.8705 100.816 99 112.945 99 127.908C99 142.87 86.8705 155 71.908 155ZM71.908 138.509C66.0531 138.509 61.3067 133.763 61.3067 127.908C61.3067 122.053 66.0531 117.307 71.908 117.307C77.7629 117.307 82.5092 122.053 82.5092 127.908C82.5092 133.763 77.7629 138.509 71.908 138.509Z" fill="#FAFAFA"/>
<path fill-rule="evenodd" clip-rule="evenodd" d="M72 142C64.268 142 58 135.732 58 128C58 120.268 64.268 114 72 114C79.732 114 86 120.268 86 128C86 135.732 79.732 142 72 142ZM63 128C63 132.971 67.0294 137 72 137C76.9705 137 81 132.971 81 128C81 123.029 76.9705 119 72 119C67.0294 119 63 123.029 63 128Z" fill="#AFB3B6"/>
<path d="M71.5 111C80.6127 111 88 118.387 88 127.5H90C90 117.283 81.7172 109 71.5 109C61.2827 109 53 117.283 53 127.5C53 137.717 61.2827 146 71.5 146V144C62.3873 144 55 136.613 55 127.5C55 118.387 62.3873 111 71.5 111Z" fill="#AFB3B6"/>
<path d="M93 128C93 116.402 83.5979 107 72 107V105C84.7025 105 95 115.297 95 128H93Z" fill="#AFB3B6"/>
<path fill-rule="evenodd" clip-rule="evenodd" d="M71.9079 155C56.9454 155 44.8159 142.87 44.8159 127.908C44.8159 112.945 56.9454 100.816 71.9079 100.816C86.8705 100.816 99 112.945 99 127.908C99 142.87 86.8705 155 71.9079 155ZM46.8159 127.908C46.8159 141.766 58.05 153 71.9079 153C85.7659 153 97 141.766 97 127.908C97 114.05 85.7659 102.816 71.9079 102.816C58.05 102.816 46.8159 114.05 46.8159 127.908Z" fill="#AFB3B6"/>
<path d="M169 147.552C169 143.661 172.099 140.479 175.988 140.375L237.265 138.745C242.22 138.614 246.309 142.595 246.309 147.552C246.309 152.509 242.22 156.49 237.265 156.358L175.988 154.728C172.099 154.625 169 151.442 169 147.552Z" fill="#FAFAFA"/>
<path fill-rule="evenodd" clip-rule="evenodd" d="M237.318 140.745L176.041 142.374C173.236 142.449 171 144.745 171 147.552C171 150.358 173.236 152.654 176.041 152.729L237.318 154.359C241.148 154.46 244.309 151.383 244.309 147.552C244.309 143.72 241.148 140.643 237.318 140.745ZM175.988 140.375C172.099 140.479 169 143.661 169 147.552C169 151.442 172.099 154.625 175.988 154.728L237.265 156.358C242.22 156.49 246.309 152.509 246.309 147.552C246.309 142.595 242.22 138.614 237.265 138.745L175.988 140.375Z" fill="#AFB3B6"/>
<path d="M200.869 105.814C205.804 99.8921 212.109 98.1376 214.645 98.0005C214.645 99.851 214.028 104.457 211.561 108.075C209.094 111.694 194.77 129.184 187.916 137.477L185.86 138.094L185.243 143.234L173.318 141.589C180.445 132.131 195.935 111.735 200.869 105.814Z" fill="#FAFAFA"/>
<path fill-rule="evenodd" clip-rule="evenodd" d="M215.645 96.9448V98.0003C215.645 99.9727 215.005 104.799 212.387 108.638C209.886 112.307 195.517 129.849 188.687 138.114L188.494 138.348L186.775 138.863L186.115 144.364L171.494 142.347L172.519 140.987C179.639 131.54 195.147 111.118 200.101 105.173C205.232 99.016 211.808 97.1522 214.591 97.0018L215.645 96.9448ZM213.584 99.1376C210.81 99.6385 205.738 101.533 201.637 106.454C196.947 112.083 182.64 130.896 175.142 140.831L184.371 142.104L184.945 137.324L187.338 136.606C194.285 128.197 208.324 111.048 210.735 107.512C212.644 104.711 213.383 101.239 213.584 99.1376Z" fill="#AFB3B6"/>
<path d="M235.484 115.075C233.512 109.614 229.498 106.751 227.738 106.002C227.262 107.313 226.515 110.732 227.332 113.929C228.149 117.125 233.797 133.191 236.518 140.824L243.389 145.757C244.166 146.316 245.209 145.571 244.927 144.656C242.074 135.405 237.259 119.99 235.484 115.075Z" fill="#FAFAFA"/>
<path fill-rule="evenodd" clip-rule="evenodd" d="M227.158 104.669L226.798 105.661C226.281 107.086 225.48 110.72 226.363 114.176C227.195 117.431 232.867 133.56 235.576 141.159L235.681 141.454L242.805 146.569C244.353 147.681 246.45 146.202 245.882 144.361C243.034 135.122 238.21 119.678 236.424 114.735C234.348 108.986 230.117 105.928 228.129 105.082L227.158 104.669ZM228.357 107.465C230.17 108.604 233.008 111.163 234.543 115.415C236.308 120.3 241.112 135.679 243.969 144.943L237.355 140.194C234.585 132.419 229.093 116.779 228.301 113.681C227.724 111.422 228.001 109.005 228.357 107.465Z" fill="#AFB3B6"/>
<path fill-rule="evenodd" clip-rule="evenodd" d="M240.557 142.539L199.464 106.481C196.082 103.514 191.674 101.987 187.181 102.226L193.143 108.072L196.119 108.494L196.531 111.393L196.547 111.41L199.446 111.821L199.847 114.645L199.952 114.748L202.773 115.148L203.163 117.896L203.356 118.086L206.1 118.475L206.479 121.148L206.761 121.424L209.427 121.802L209.796 124.399L210.165 124.762L212.754 125.129L213.112 127.651L213.57 128.1L216.081 128.456L216.428 130.902L216.974 131.438L219.408 131.783L219.744 134.154L220.378 134.776L222.735 135.11L223.061 137.406L223.783 138.113L226.062 138.437L226.377 140.657L227.187 141.451L229.389 141.764L229.693 143.909L230.592 144.789L232.716 145.091L233.01 147.16L233.735 147.872L239.839 145.95C241.326 145.481 241.729 143.567 240.557 142.539Z" fill="#FAFAFA"/>
<path fill-rule="evenodd" clip-rule="evenodd" d="M239.538 144.996C240.282 144.762 240.484 143.805 239.898 143.29L198.805 107.233C196.237 104.981 193.042 103.609 189.684 103.28L193.609 107.128L197.004 107.61L197.417 110.523L200.331 110.937L200.744 113.85L203.658 114.264L204.071 117.177L206.985 117.591L207.398 120.504L210.312 120.918L210.725 123.831L213.639 124.245L214.052 127.158L216.965 127.572L217.371 130.426L217.44 130.494L220.292 130.899L220.687 133.678L220.844 133.832L223.619 134.226L224.003 136.929L224.248 137.17L226.946 137.553L227.319 140.181L227.653 140.508L230.273 140.879L230.636 143.432L231.057 143.846L233.6 144.206L233.952 146.684L234.007 146.738L239.538 144.996ZM241.217 141.787C242.975 143.33 242.37 146.201 240.139 146.904L233.464 149.006L232.067 147.637L231.831 145.975L230.126 145.733L228.751 144.385L228.504 142.648L226.722 142.395L225.435 141.134L225.177 139.322L223.317 139.057L222.118 137.882L221.85 135.995L219.913 135.72L218.802 134.631L218.523 132.668L216.508 132.382L215.486 131.379L215.197 129.341L213.104 129.044L212.17 128.127L211.87 126.014L209.699 125.706L208.853 124.876L208.543 122.687L206.295 122.368L205.537 121.624L205.216 119.36L202.891 119.03L202.221 118.373L201.889 116.033L199.486 115.692L198.904 115.121L198.562 112.706L196.082 112.354L195.588 111.87L195.235 109.379L192.677 109.016L184.858 101.349L187.128 101.228C191.882 100.974 196.546 102.59 200.124 105.73L241.217 141.787Z" fill="#AFB3B6"/>
<path fill-rule="evenodd" clip-rule="evenodd" d="M175.988 140.375C172.099 140.479 169 143.661 169 147.552C169 151.442 172.099 154.625 175.988 154.728L209.593 155.622L211.766 150.841H232.327C235.877 150.841 238.949 152.886 240.431 155.862C243.848 154.655 246.309 151.397 246.309 147.552C246.309 142.595 242.22 138.614 237.265 138.745L175.988 140.375Z" fill="white"/>
<path fill-rule="evenodd" clip-rule="evenodd" d="M210.479 148.841H232.327C235.953 148.841 239.168 150.588 241.181 153.281C243.062 152.07 244.309 149.958 244.309 147.552C244.309 143.72 241.148 140.643 237.318 140.745L176.041 142.374C173.236 142.449 171 144.745 171 147.552C171 150.358 173.236 152.654 176.041 152.729L208.321 153.587L210.479 148.841ZM209.593 155.622L175.988 154.728C172.099 154.625 169 151.442 169 147.552C169 143.661 172.099 140.479 175.988 140.375L237.265 138.745C242.22 138.614 246.309 142.595 246.309 147.552C246.309 151.397 243.848 154.655 240.431 155.862C238.949 152.886 235.877 150.841 232.327 150.841H211.766L209.593 155.622Z" fill="#AFB3B6"/>
</svg>
