<svg width="24" height="24" viewBox="0 0 24 24" fill="none" xmlns="http://www.w3.org/2000/svg">
<path fill-rule="evenodd" clip-rule="evenodd" d="M3.06068 3.44002L3.06066 3.44003L5.67204 6.05138L6.73948 7.11883L8.90898 9.28832L15.2123 15.5917L17.225 17.6044L18.3125 18.6918L20.7383 21.1177L19.6777 22.1783L16.9568 19.4575C15.5083 20.1535 14.0017 20.5007 12.5 20.5007C8.43734 20.5007 4.3479 17.9209 1.48833 12.9047C1.16915 12.3448 1.17027 11.657 1.49025 11.0976C2.40502 9.4983 3.43682 8.14839 4.55017 7.05083L2 4.50066L3.06066 3.44L3.06068 3.44002ZM6.91193 5.16998L8.00507 6.26313C9.47972 5.40886 11.0092 5.00066 12.5 5.00066C15.8546 5.00066 19.4537 7.11786 22.2021 11.8473C22.2609 11.9484 22.2607 12.0724 22.2045 12.1712C21.0921 14.1268 19.8174 15.632 18.4672 16.7252L19.5324 17.7905C20.9976 16.5751 22.3495 14.95 23.5083 12.9128C23.8294 12.3485 23.8253 11.655 23.499 11.0936C20.5704 6.05413 16.5441 3.50066 12.5 3.50066C10.588 3.50066 8.68773 4.06026 6.91193 5.16998ZM16.2424 14.5004C16.7209 13.7854 17 12.9256 17 12.0007C17 9.51538 14.9853 7.50066 12.5 7.50066C11.575 7.50066 10.7152 7.77974 10.0002 8.25828L16.2424 14.5004ZM2.7923 11.8423C3.65091 10.3412 4.60211 9.10218 5.60989 8.11055L8.1928 10.6935C8.06742 11.1071 8 11.546 8 12.0007C8 14.4859 10.0147 16.5007 12.5 16.5007C12.9546 16.5007 13.3935 16.4332 13.8072 16.3079L15.8207 18.3214C14.7125 18.7805 13.5917 19.0007 12.5 19.0007C9.12132 19.0007 5.4648 16.8513 2.79145 12.1618C2.73573 12.0641 2.7353 11.942 2.7923 11.8423Z" fill="black"/>
</svg>
