<svg width="24" height="24" viewBox="0 0 24 24" fill="none" xmlns="http://www.w3.org/2000/svg">
<path d="M13.5 4.25C13.5 4.94036 12.9404 5.5 12.25 5.5C11.5596 5.5 11 4.94036 11 4.25C11 3.55964 11.5596 3 12.25 3C12.9404 3 13.5 3.55964 13.5 4.25Z" fill="white" fill-opacity="0.87"/>
<path d="M13.5 19.75C13.5 20.4404 12.9404 21 12.25 21C11.5596 21 11 20.4404 11 19.75C11 19.0596 11.5596 18.5 12.25 18.5C12.9404 18.5 13.5 19.0596 13.5 19.75Z" fill="white" fill-opacity="0.87"/>
<path d="M13.5 12C13.5 12.6904 12.9404 13.25 12.25 13.25C11.5596 13.25 11 12.6904 11 12C11 11.3096 11.5596 10.75 12.25 10.75C12.9404 10.75 13.5 11.3096 13.5 12Z" fill="white" fill-opacity="0.87"/>
</svg>
