<svg width="24" height="24" viewBox="0 0 24 24" fill="none" xmlns="http://www.w3.org/2000/svg">
<g clip-path="url(#clip0_5035_86269)">
<path fill-rule="evenodd" clip-rule="evenodd" d="M16.3548 2.50047C16.9991 1.8561 18.0438 1.8561 18.6882 2.50047L21.5166 5.32889C22.161 5.97326 22.161 7.01798 21.5166 7.66235L8.98887 20.1901C8.76648 20.4125 8.48517 20.5667 8.17807 20.6345L2.03049 21.9927L3.38259 15.8404C3.45023 15.5326 3.60459 15.2506 3.82741 15.0278L16.3548 2.50047ZM17.769 3.41971C17.6323 3.28302 17.4107 3.28302 17.274 3.41971L14.7985 5.89517L18.1219 9.21857L20.5974 6.74311C20.7341 6.60642 20.7341 6.38482 20.5974 6.24813L17.769 3.41971ZM17.2027 10.1378L13.8793 6.81441L4.74665 15.9471C4.69938 15.9943 4.66664 16.0541 4.65229 16.1194L3.73696 20.2843L7.89764 19.3652C7.96278 19.3508 8.02245 19.3181 8.06963 19.2709L17.2027 10.1378Z" fill="black" fill-opacity="0.87"/>
</g>
<defs>
<clipPath id="clip0_5035_86269">
<rect width="24" height="24" fill="white"/>
</clipPath>
</defs>
</svg>
