<svg width="24" height="24" viewBox="0 0 24 24" fill="none" xmlns="http://www.w3.org/2000/svg">
<path fill-rule="evenodd" clip-rule="evenodd" d="M12.5 19C9.12132 19 5.4648 16.8507 2.79145 12.1612C2.73573 12.0634 2.7353 11.9413 2.7923 11.8417C5.48725 7.13013 9.0944 5 12.5 5C15.8546 5 19.4537 7.1172 22.2021 11.8466C22.2609 11.9477 22.2607 12.0717 22.2045 12.1705C19.5109 16.9058 15.8665 19 12.5 19ZM12.5 20.5C8.43734 20.5 4.3479 17.9202 1.48833 12.9041C1.16915 12.3442 1.17027 11.6563 1.49025 11.0969C4.36945 6.06325 8.40793 3.5 12.5 3.5C16.5441 3.5 20.5704 6.05347 23.499 11.0929C23.8253 11.6543 23.8294 12.3478 23.5083 12.9122C20.6244 17.982 16.5444 20.5 12.5 20.5ZM12.5 16.5C14.9853 16.5 17 14.4853 17 12C17 9.51472 14.9853 7.5 12.5 7.5C10.0147 7.5 8 9.51472 8 12C8 14.4853 10.0147 16.5 12.5 16.5Z" fill="black"/>
</svg>
