<svg width="24" height="24" viewBox="0 0 24 24" fill="none" xmlns="http://www.w3.org/2000/svg">
<path d="M13.5 5.25C13.5 5.94036 12.9404 6.5 12.25 6.5C11.5596 6.5 11 5.94036 11 5.25C11 4.55964 11.5596 4 12.25 4C12.9404 4 13.5 4.55964 13.5 5.25Z" fill="#2979FF"/>
<path d="M13.5 18.75C13.5 19.4404 12.9404 20 12.25 20C11.5596 20 11 19.4404 11 18.75C11 18.0596 11.5596 17.5 12.25 17.5C12.9404 17.5 13.5 18.0596 13.5 18.75Z" fill="#2979FF"/>
<path d="M13.5 12C13.5 12.6904 12.9404 13.25 12.25 13.25C11.5596 13.25 11 12.6904 11 12C11 11.3096 11.5596 10.75 12.25 10.75C12.9404 10.75 13.5 11.3096 13.5 12Z" fill="#2979FF"/>
</svg>
