<svg width="24" height="24" viewBox="0 0 24 24" fill="none" xmlns="http://www.w3.org/2000/svg">
<path fill-rule="evenodd" clip-rule="evenodd" d="M20.2 10.1781V18.6812C20.2 19.6201 19.4389 20.3812 18.5 20.3812H16.5V15.6812C16.5 14.0243 15.1569 12.6812 13.5 12.6812H9.5C7.84315 12.6812 6.5 14.0243 6.5 15.6812V20.3812H4.5C3.56112 20.3812 2.8 19.6201 2.8 18.6812V10.1781C2.8 8.95877 3.40075 7.81772 4.40603 7.12765L10.5379 2.91844C11.1176 2.52052 11.8824 2.52052 12.4621 2.91844L18.594 7.12765C19.5992 7.81772 20.2 8.95877 20.2 10.1781ZM7.8 20.3812V15.6812C7.8 14.7423 8.56112 13.9812 9.5 13.9812H13.5C14.4389 13.9812 15.2 14.7423 15.2 15.6812V20.3812H7.8ZM6.5 21.6812L4.5 21.6812C2.84315 21.6812 1.5 20.3381 1.5 18.6812V10.1781C1.5 8.53035 2.31182 6.98839 3.6703 6.05587L9.80218 1.84666C10.8251 1.14445 12.1749 1.14445 13.1978 1.84666L19.3297 6.05587C20.6882 6.98839 21.5 8.53035 21.5 10.1781V18.6812C21.5 20.3381 20.1569 21.6812 18.5 21.6812L16.5 21.6812H15.2H7.8H6.5Z" fill="black" fill-opacity="0.87"/>
</svg>
