<svg xmlns="http://www.w3.org/2000/svg" width="16" height="16" viewBox="0 0 16 16" fill="none">
<path fill-rule="evenodd" clip-rule="evenodd" d="M11.5876 2.51968L13.5675 4.49958L11.9917 6.07535L10.0118 4.09545L11.5876 2.51968ZM9.30471 4.80256L3.50486 10.6024L2.9323 13.1549L5.48476 12.5823L11.2846 6.78246L9.30471 4.80256ZM5.70364 13.5581L2.69023 14.234L1.61108 14.4761L1.85315 13.3969L2.52911 10.3835C2.57059 10.1986 2.66375 10.0293 2.79775 9.8953L10.8805 1.81258C11.271 1.42205 11.9042 1.42205 12.2947 1.81258L14.2746 3.79248C14.6651 4.183 14.6651 4.81617 14.2746 5.20669L6.19187 13.2894C6.05787 13.4234 5.88855 13.5166 5.70364 13.5581Z" fill="#82B1FF"/>
</svg>