<svg xmlns="http://www.w3.org/2000/svg" width="16" height="16" viewBox="0 0 16 16" fill="none">
<path fill-rule="evenodd" clip-rule="evenodd" d="M11.5876 2.51965L13.5675 4.49955L11.9917 6.07532L10.0118 4.09542L11.5876 2.51965ZM9.30471 4.80253L3.50486 10.6024L2.9323 13.1548L5.48476 12.5823L11.2846 6.78242L9.30471 4.80253ZM5.70364 13.558L2.69023 14.234L1.61108 14.476L1.85315 13.3969L2.52911 10.3835C2.57059 10.1986 2.66375 10.0293 2.79775 9.89527L10.8805 1.81255C11.271 1.42202 11.9042 1.42202 12.2947 1.81255L14.2746 3.79245C14.6651 4.18297 14.6651 4.81614 14.2746 5.20666L6.19187 13.2894C6.05787 13.4234 5.88855 13.5165 5.70364 13.558Z" fill="#2979FF"/>
</svg>