<svg xmlns="http://www.w3.org/2000/svg" width="24" height="24" viewBox="0 0 24 24"><defs><style>.cls-1 { fill-rule: evenodd; }</style></defs><path id="edit" class="cls-1" d="M1548.38 1192.44l-12.5 12.5a1.692 1.692 0 0 1-.97.48l-4.7.65a1.131 1.131 0 0 1-1.28-1.28l.65-4.7a1.692 1.692 0 0 1 .48-.97l12.5-12.5a2.155 2.155 0 0 1 3.06 0l2.76 2.76a2.155 2.155 0 0 1 0 3.06zm-17.23 7.86l-.57 4.12 4.12-.57a.086.086 0 0 0 .06-.03l9.04-9.04-3.58-3.58-9.04 9.04a.086.086 0 0 0-.03.06zm16.11-9.8l-2.76-2.76a.573.573 0 0 0-.82 0l-2.34 2.34 3.58 3.58 2.34-2.34a.573.573 0 0 0 0-.82z" transform="translate(-1526.985 -1184.03)"/></svg>