<svg width="148" height="123" viewBox="0 0 148 123" fill="none" xmlns="http://www.w3.org/2000/svg">
<g id="empty-state">
<path id="Vector" fill-rule="evenodd" clip-rule="evenodd" d="M136.118 8.80901C110.656 -11.185 73.5301 8.98295 45.8305 26.481C19.3153 43.2307 -7.47256 65.2852 1.91609 93.5853C10.9277 120.749 48.5159 123.454 79.249 122.28C101.752 121.42 119.111 107.676 128.599 88.7451C142.061 61.8828 160.424 27.8952 136.118 8.80901Z" fill="#B2C8EB" fill-opacity="0.35"/>
<path id="Vector 38" d="M12 12.5L17.5 18M23 23.5L17.5 18M17.5 18L23 12.5L12 23.5" stroke="#B2C8EB" stroke-opacity="0.35" stroke-width="2" stroke-linecap="round"/>
<path id="Vector 37" d="M16 84.5L21.5 90M27 95.5L21.5 90M21.5 90L27 84.5L16 95.5" stroke="#B2C8EB" stroke-opacity="0.35" stroke-width="2" stroke-linecap="round"/>
<path id="Vector 36" d="M125 16.5L130.5 22M136 27.5L130.5 22M130.5 22L136 16.5L125 27.5" stroke="#B2C8EB" stroke-opacity="0.35" stroke-width="2" stroke-linecap="round"/>
<g id="Group 652">
<path id="Union" d="M74.312 45.8099L74.6014 46.0842H75H105.975C110.426 46.0842 114 49.6165 114 53.9324V92.402C114 98.3286 109.094 103.167 103 103.167H47C40.9061 103.167 36 98.3286 36 92.402V46.3482C36 42.0323 39.5742 38.5 44.0252 38.5H66.6013L74.312 45.8099Z" fill="#82A5DB" fill-opacity="0.24" stroke="#82A5DB" stroke-width="2"/>
<g id="Group 651">
<path id="Rectangle" d="M18 36.0161C18 34.0786 19.5792 32.5 21.537 32.5H40.5686L51 42.8833V66.9839C51 68.9214 49.4208 70.5 47.463 70.5H21.537C19.5792 70.5 18 68.9214 18 66.9839V36.0161Z" fill="white" stroke="#82A5DB" stroke-width="2"/>
<line id="Line" x1="27.9937" y1="51.2222" x2="38.2517" y2="51.2222" stroke="#82A5DB" stroke-width="2" stroke-linecap="round"/>
<line id="Line_2" x1="27.9937" y1="57.0286" x2="33.0904" y2="57.0286" stroke="#82A5DB" stroke-width="2" stroke-linecap="round"/>
<path id="Rectangle 2" d="M39.25 32.5H40.3358L51 43.1642V44.25H41.25C40.1454 44.25 39.25 43.3546 39.25 42.25V32.5Z" fill="white" stroke="#82A5DB" stroke-width="2"/>
</g>
<g id="Login48">
<path id="Vector_2" d="M94.2821 39.5H119.718C120.964 39.5 122 40.53 122 41.8333V60.1667C122 61.47 120.964 62.5 119.718 62.5H94.2821C93.0363 62.5 92 61.47 92 60.1667V41.8333C92 40.53 93.0363 39.5 94.2821 39.5Z" fill="white" stroke="#82A5DB" stroke-width="2"/>
<path id="Vector_3" fill-rule="evenodd" clip-rule="evenodd" d="M108 52.3064V54.5C108 55.0523 107.552 55.5 107 55.5C106.448 55.5 106 55.0523 106 54.5V52.3064C105.333 52.0714 104.77 51.609 104.412 51.0009C104.054 50.3928 103.924 49.6781 104.043 48.9833C104.163 48.2884 104.525 47.6581 105.066 47.2036C105.607 46.7492 106.292 46.5 107 46.5C107.708 46.5 108.393 46.7492 108.934 47.2036C109.475 47.6581 109.837 48.2884 109.957 48.9833C110.076 49.6781 109.946 50.3928 109.588 51.0009C109.23 51.609 108.667 52.0714 108 52.3064Z" fill="#82A5DB"/>
<path id="Rectangle 2177" d="M97 34.5C97 28.9772 101.477 24.5 107 24.5C112.523 24.5 117 28.9772 117 34.5V39.5H97V34.5Z" stroke="#82A5DB" stroke-width="2"/>
</g>
<path id="Rectangle_2" d="M36 65.9282C36 62.933 38.4358 60.5 41.4465 60.5H108.553C111.564 60.5 114 62.933 114 65.9282V95.3724C114 99.7876 110.41 103.372 105.975 103.372H44.0252C39.5903 103.372 36 99.7876 36 95.3724V65.9282Z" fill="white" stroke="#82A5DB" stroke-width="2"/>
<g id="Group 653">
<circle id="Ellipse 67" cx="93" cy="77.6111" r="6.11111" stroke="#82A5DB" stroke-width="2"/>
<path id="Rectangle 2158" d="M78 95.3554C78 92.7938 79.3826 90.5259 81.6495 89.6915C84.5572 88.6211 88.6482 87.5 93 87.5C97.3518 87.5 101.443 88.6211 104.35 89.6915C106.617 90.5259 108 92.7938 108 95.3554V95.7444C108 96.9595 107.015 97.9444 105.8 97.9444H80.2C78.985 97.9444 78 96.9595 78 95.7444V95.3554Z" fill="white" stroke="#82A5DB" stroke-width="2"/>
</g>
</g>
</g>
</svg>
