<svg width="24" height="24" viewBox="0 0 24 24" fill="none" xmlns="http://www.w3.org/2000/svg">
<path d="M13.0646 7.98343C13.0878 7.41556 12.6337 6.9425 12.0654 6.9425L11.9381 6.94251C11.3696 6.94252 10.9154 7.41592 10.939 7.98399L11.1831 13.8634H12.8237L13.0646 7.98343Z" fill="#EB5757"/>
<path fill-rule="evenodd" clip-rule="evenodd" d="M22 12C22 17.5228 17.5228 22 12 22C6.47715 22 2 17.5228 2 12C2 6.47715 6.47715 2 12 2C17.5228 2 22 6.47715 22 12ZM20.7 12C20.7 16.8049 16.8049 20.7 12 20.7C7.19512 20.7 3.3 16.8049 3.3 12C3.3 7.19512 7.19512 3.3 12 3.3C16.8049 3.3 20.7 7.19512 20.7 12Z" fill="#EB5757"/>
<circle cx="11.9998" cy="16.1138" r="1.12185" fill="#EB5757"/>
</svg>
