<svg xmlns="http://www.w3.org/2000/svg" width="21" height="20" viewBox="0 0 21 20" fill="none">
<path fill-rule="evenodd" clip-rule="evenodd" d="M6.86835 14.773C6.55594 15.0854 6.0494 15.0854 5.73698 14.773C5.42456 14.4606 5.42456 13.9541 5.73698 13.6417L9.36857 10.0101L5.73687 6.37838C5.42445 6.06596 5.42445 5.55943 5.73687 5.24701C6.04929 4.93459 6.55582 4.93459 6.86824 5.24701L10.4999 8.8787L14.1316 5.24701C14.444 4.93459 14.9506 4.93459 15.263 5.24701C15.5754 5.55943 15.5754 6.06596 15.263 6.37838L11.6313 10.0101L15.2629 13.6417C15.5753 13.9541 15.5753 14.4606 15.2629 14.773C14.9505 15.0854 14.4439 15.0854 14.1315 14.773L10.4999 11.1414L6.86835 14.773Z" fill="#EB5757"/>
</svg>