<svg width="20" height="20" viewBox="0 0 20 20" fill="none" xmlns="http://www.w3.org/2000/svg">
<path fill-rule="evenodd" clip-rule="evenodd" d="M15.9511 14.6828L13.7618 13.8275L13.3191 14.1506C12.9255 14.4377 12.5189 14.6753 12.0903 14.8462L11.5553 15.0595L11.2201 17.3334H8.78363L8.4484 15.0595L7.9134 14.8462C7.47782 14.6725 7.07439 14.4421 6.69435 14.1577L6.24922 13.8247L4.05262 14.6828L2.85508 12.6676L4.70202 11.2627L4.62833 10.6893C4.59677 10.4436 4.57652 10.2154 4.57652 10.0001C4.57652 9.78479 4.59677 9.55652 4.62833 9.31088L4.70202 8.73749L2.85508 7.33261L4.05262 5.3174L6.24186 6.17262L6.68462 5.84961C7.07819 5.56249 7.48484 5.32484 7.9134 5.15399L8.4484 4.94071L8.78363 2.66675H11.2201L11.5553 4.94071L12.0903 5.15399C12.5259 5.32764 12.9293 5.55806 13.3094 5.84242L13.7545 6.17549L15.9511 5.3174L17.1486 7.33261L15.3017 8.73749L15.3754 9.31088C15.4071 9.5575 15.4272 9.77707 15.4272 10.0001C15.4272 10.2231 15.4071 10.4427 15.3754 10.6893L15.3017 11.2627L17.1486 12.6676L15.9511 14.6828ZM18.2777 12.7251L16.5643 15.6084C16.4872 15.7417 16.3415 15.8168 16.1959 15.8168C16.1445 15.8168 16.0931 15.8084 16.0417 15.7917L13.9085 14.9584C13.463 15.2834 12.9832 15.5668 12.4606 15.7751L12.1351 17.9834C12.1094 18.1834 11.9295 18.3334 11.7153 18.3334H8.28843C8.07425 18.3334 7.89434 18.1834 7.86864 17.9834L7.54309 15.7751C7.0205 15.5668 6.54074 15.2918 6.09525 14.9584L3.96204 15.7917C3.9192 15.8084 3.8678 15.8168 3.8164 15.8168C3.66219 15.8168 3.51655 15.7417 3.43945 15.6084L1.72602 12.7251C1.62322 12.5418 1.66605 12.3167 1.82883 12.1917L3.63649 10.8167C3.60222 10.5501 3.57652 10.2751 3.57652 10.0001C3.57652 9.72508 3.60222 9.45008 3.63649 9.18342L1.82883 7.80842C1.66605 7.68342 1.61465 7.45842 1.72602 7.27508L3.43945 4.39175C3.51655 4.25842 3.66219 4.18342 3.80783 4.18342C3.85923 4.18342 3.91064 4.19175 3.96204 4.20842L6.09525 5.04175C6.54074 4.71675 7.0205 4.43342 7.54309 4.22508L7.86864 2.01675C7.89434 1.81675 8.07425 1.66675 8.28843 1.66675H11.7153C11.9295 1.66675 12.1094 1.81675 12.1351 2.01675L12.4606 4.22508C12.9832 4.43342 13.463 4.70842 13.9085 5.04175L16.0417 4.20842C16.0845 4.19175 16.1359 4.18342 16.1873 4.18342C16.3415 4.18342 16.4872 4.25842 16.5643 4.39175L18.2777 7.27508C18.3805 7.45842 18.3377 7.68342 18.1749 7.80842L16.3672 9.18342C16.4015 9.45008 16.4272 9.71675 16.4272 10.0001C16.4272 10.2834 16.4015 10.5501 16.3672 10.8167L18.1749 12.1917C18.3377 12.3167 18.3805 12.5418 18.2777 12.7251Z" fill="white" fill-opacity="0.54"/>
<circle cx="10" cy="10" r="2" stroke="white" stroke-opacity="0.54"/>
</svg>
