<svg width="24" height="24" viewBox="0 0 24 24" fill="none" xmlns="http://www.w3.org/2000/svg">
<path fill-rule="evenodd" clip-rule="evenodd" d="M12 22C17.5228 22 22 17.5228 22 12C22 6.47715 17.5228 2 12 2C6.47715 2 2 6.47715 2 12C2 17.5228 6.47715 22 12 22ZM12 20.7C16.8049 20.7 20.7 16.8049 20.7 12C20.7 7.19512 16.8049 3.3 12 3.3C7.19512 3.3 3.3 7.19512 3.3 12C3.3 16.8049 7.19512 20.7 12 20.7ZM17.267 9.51107C17.5201 9.25652 17.519 8.84497 17.2644 8.59184C17.0099 8.3387 16.5983 8.33985 16.3452 8.5944L10.4717 14.5007L7.66314 11.5637C7.41503 11.3043 7.00358 11.2951 6.74413 11.5432C6.48468 11.7913 6.47548 12.2028 6.72358 12.4622L9.9928 15.8809L10.4535 16.3627L10.9235 15.89L17.267 9.51107Z" fill="white" fill-opacity="0.54"/>
</svg>
