<svg width="20" height="20" viewBox="0 0 20 20" fill="none" xmlns="http://www.w3.org/2000/svg">
<path fill-rule="evenodd" clip-rule="evenodd" d="M10 18C14.4183 18 18 14.4183 18 10C18 5.58172 14.4183 2 10 2C5.58172 2 2 5.58172 2 10C2 14.4183 5.58172 18 10 18ZM10 16.96C13.8439 16.96 16.96 13.8439 16.96 10C16.96 6.1561 13.8439 3.04 10 3.04C6.1561 3.04 3.04 6.1561 3.04 10C3.04 13.8439 6.1561 16.96 10 16.96ZM14.3061 8.10043C14.5592 7.84588 14.5581 7.43432 14.3036 7.18119C14.049 6.92806 13.6374 6.92921 13.3843 7.18375L8.77951 11.8143L6.62481 9.56105C6.3767 9.3016 5.96525 9.2924 5.7058 9.54051C5.44635 9.78861 5.43715 10.2001 5.68525 10.4595L8.30062 13.1945L8.76129 13.6762L9.2313 13.2036L14.3061 8.10043Z" fill="white" fill-opacity="0.54"/>
</svg>
