<svg width="20" height="20" viewBox="0 0 20 20" fill="none" xmlns="http://www.w3.org/2000/svg">
<path d="M10.0001 10.7738L12.561 13.3347C12.6764 13.4501 12.804 13.5057 12.944 13.5014C13.0839 13.4971 13.2143 13.4346 13.335 13.3139C13.4557 13.1932 13.5161 13.0642 13.5161 12.9269C13.5161 12.7896 13.4557 12.6609 13.335 12.5408L10.7741 9.9894L13.335 7.438C13.4504 7.32323 13.5094 7.19586 13.5121 7.0559C13.5147 6.91596 13.4557 6.78562 13.335 6.6649C13.2143 6.54416 13.0853 6.4838 12.948 6.4838C12.8107 6.4838 12.6817 6.54416 12.561 6.6649L10.0001 9.2258L7.43914 6.6649C7.32377 6.54951 7.19957 6.49048 7.06656 6.48782C6.93356 6.48514 6.8067 6.54416 6.68598 6.6649C6.56524 6.78562 6.50487 6.91462 6.50487 7.0519C6.50487 7.18918 6.56464 7.31818 6.68417 7.4389L9.22604 9.99982L6.66514 12.5607C6.54976 12.6761 6.4942 12.8003 6.49848 12.9333C6.50274 13.0663 6.56524 13.1932 6.68598 13.3139C6.8067 13.4346 6.9357 13.495 7.07298 13.495C7.21026 13.495 7.33866 13.4352 7.45819 13.3157L10.0001 10.7738ZM10.0072 17.5831C8.96398 17.5831 7.98148 17.3858 7.05971 16.991C6.13791 16.5963 5.3311 16.0532 4.63925 15.3617C3.94739 14.6701 3.40401 13.864 3.0091 12.9432C2.6142 12.0224 2.41675 11.0386 2.41675 9.99167C2.41675 8.94475 2.61411 7.96388 3.00883 7.04905C3.40355 6.1342 3.94668 5.33085 4.63821 4.63901C5.32975 3.94714 6.13591 3.40376 7.05669 3.00886C7.97746 2.61396 8.9613 2.4165 10.0082 2.4165C11.0551 2.4165 12.036 2.61387 12.9508 3.00859C13.8657 3.40331 14.669 3.94643 15.3609 4.63796C16.0527 5.3295 16.5961 6.13404 16.991 7.05157C17.3859 7.9691 17.5834 8.94946 17.5834 9.99267C17.5834 11.0359 17.386 12.0184 16.9913 12.9402C16.5966 13.862 16.0534 14.6688 15.3619 15.3606C14.6704 16.0525 13.8658 16.5959 12.9483 16.9908C12.0308 17.3857 11.0504 17.5831 10.0072 17.5831Z" fill="black" fill-opacity="0.54"/>
</svg>
