<svg xmlns="http://www.w3.org/2000/svg" width="24" height="24" viewBox="0 0 24 24" fill="none">
<path fill-rule="evenodd" clip-rule="evenodd" d="M12 2.77778C9.61837 2.77778 7.71429 4.73989 7.71429 7.12656V9H6V7.12656C6 3.72786 8.70098 1 12 1C15.299 1 18 3.72786 18 7.12656L18 9L16.2857 9L16.2857 7.12656C16.2857 4.73989 14.3816 2.77778 12 2.77778ZM18 9C19.6569 9 21 10.3431 21 12V20C21 21.6569 19.6569 23 18 23H6C4.34315 23 3 21.6569 3 20V12C3 10.3431 4.34315 9 6 9H18ZM6 10.3C5.06112 10.3 4.3 11.0611 4.3 12V20C4.3 20.9389 5.06112 21.7 6 21.7H18C18.9389 21.7 19.7 20.9389 19.7 20V12C19.7 11.0611 18.9389 10.3 18 10.3H6ZM14 14.8781C14 15.5732 13.5978 16.1802 13 16.5049V18.061C13 18.5796 12.5523 19 12 19C11.4477 19 11 18.5796 11 18.061V16.5049C10.4022 16.1802 10 15.5732 10 14.8781C10 13.8408 10.8954 13 12 13C13.1046 13 14 13.8408 14 14.8781Z" fill="white" fill-opacity="0.87"/>
</svg>