<svg width="20" height="20" viewBox="0 0 20 20" fill="none" xmlns="http://www.w3.org/2000/svg">
<path fill-rule="evenodd" clip-rule="evenodd" d="M2 4.5C2 3.67157 2.67157 3 3.5 3H7.29289L9.14645 4.85355L9.29289 5H9.5H16.5C17.3284 5 18 5.67157 18 6.5V7.49982C17.5822 7.18597 17.0628 7 16.5 7H3.5C2.9372 7 2.41783 7.18597 2 7.49982V4.5ZM2 9.5V14.5C2 15.3284 2.67157 16 3.5 16H16.5C17.3284 16 18 15.3284 18 14.5V9.5C18 8.67157 17.3284 8 16.5 8H3.5C2.67157 8 2 8.67157 2 9.5ZM1 9.5V4.5C1 3.11929 2.11929 2 3.5 2H7.5H7.70711L7.85355 2.14645L9.70711 4H16.5C17.8807 4 19 5.11929 19 6.5V9.5V14.5C19 15.8807 17.8807 17 16.5 17H3.5C2.11929 17 1 15.8807 1 14.5V9.5Z" fill="white" fill-opacity="0.87"/>
</svg>
