<svg width="24" height="24" viewBox="0 0 24 24" fill="none" xmlns="http://www.w3.org/2000/svg">
<path fill-rule="evenodd" clip-rule="evenodd" d="M2 7C2 5.34314 3.34314 4 5 4H10L12 6H19C20.6569 6 22 7.34314 22 9V18C22 19.6569 20.6569 21 19 21H5C3.34314 21 2 19.6569 2 18V7ZM9.17157 6L11.1716 8H19C19.5523 8 20 8.44775 20 9V10.1707C19.6872 10.0601 19.3506 10 19 10H5C4.64935 10 4.31281 10.0601 4 10.1707V7C4 6.44775 4.44769 6 5 6H9.17157ZM4 13V18C4 18.5522 4.44769 19 5 19H19C19.5523 19 20 18.5522 20 18V13C20 12.4478 19.5523 12 19 12H5C4.44769 12 4 12.4478 4 13Z" fill="#000"/>
</svg>
