<svg width="24" height="24" viewBox="0 0 24 24" fill="none" xmlns="http://www.w3.org/2000/svg">
<path fill-rule="evenodd" clip-rule="evenodd" d="M2.01562 11.0772V6.64219C2.01562 4.62633 3.64981 2.99217 5.66566 2.99219L8.85793 2.99222L10.7498 4.70947H18.3517C20.3675 4.70947 22.0017 6.34363 22.0017 8.35947V11.1988C22.0029 11.2384 22.0036 11.2781 22.0036 11.318V17.3617C22.0036 19.3775 20.3694 21.0117 18.3536 21.0117H5.65782C3.64198 21.0117 2.00781 19.3775 2.00781 17.3617V11.318C2.00781 11.2371 2.01044 11.1568 2.01562 11.0772ZM3.31562 6.64219C3.31562 5.34431 4.36777 4.29217 5.66565 4.29219L8.3559 4.29222L10.2478 6.00947H18.3517C19.6495 6.00947 20.7017 7.0616 20.7017 8.35947V8.52341C20.067 7.98956 19.2478 7.66797 18.3536 7.66797H5.65781C4.76633 7.66797 3.94949 7.98757 3.31562 8.51845V6.64219ZM3.30781 11.9529C3.31296 11.9199 3.31562 11.8862 3.31562 11.8518V11.125C3.41379 9.91737 4.42493 8.96797 5.65781 8.96797H18.3536C19.6194 8.96797 20.6515 9.96882 20.7017 11.2224V11.8465C20.7017 11.8634 20.7023 11.8802 20.7036 11.8967V17.3617C20.7036 18.6596 19.6514 19.7117 18.3536 19.7117H5.65782C4.35995 19.7117 3.30781 18.6596 3.30781 17.3617V11.9529Z" fill="white" fill-opacity="0.87"/>
</svg>
