<svg xmlns="http://www.w3.org/2000/svg" width="24" height="24" viewBox="0 0 24 24"><defs><style>.cls-1 { fill-rule: evenodd; }</style></defs><path id="go-fill" class="cls-1" d="M1318 1254h-12a3 3 0 0 1-3-3v-14a3 3 0 0 1 3-3h12a3 3 0 0 1 3 3v14a3 3 0 0 1-3 3zm1-17a1 1 0 0 0-1-1h-12a1 1 0 0 0-1 1v14a1 1 0 0 0 1 1h12a1 1 0 0 0 1-1v-14zm-12 4v-2h10l-.01 2.01zm5.99 4.02h-6v-2.02h6v2.02zm-3.99 4h-2v-2.02h2v2.02zm4 0h-2v-2.02h2v2.02zm4-4h-2v-2.02h2v2.02zm0 4h-2v-2.02h2v2.02z" transform="translate(-1300 -1232)"/></svg>