<svg width="360" height="208" viewBox="0 15 360 208" fill="none" xmlns="http://www.w3.org/2000/svg">
<g clip-path="url(#clip0)">
<circle cx="180" cy="171" r="152" fill="#B0BEC5"/>
<path d="M299.643 77.2365C296.75 77.3053 293.755 77.2505 290.741 77.1952C283.958 77.0709 277.071 76.9447 271.005 78.2219C263.647 79.7709 255.301 80.6417 247.782 80.9998C245.254 81.1201 242.868 81.8017 240.485 82.4824C238.197 83.136 235.912 83.7888 233.505 83.9441C230.825 84.117 228.116 84.0761 225.417 84.0353C224.24 84.0175 223.064 83.9998 221.894 83.9998C216.608 83.9998 211.369 84.4977 206.121 84.9966L206.119 84.997C200.851 85.4979 195.573 85.9998 190.227 85.9998H178.949C168.801 85.9998 157.766 86.1074 148.005 88.9998C142.012 90.7754 135.808 91.103 129.615 91.4301C123.862 91.7338 118.118 92.0371 112.56 93.4998C108.075 94.6799 101.605 94.9998 97.0046 94.9998C92.28 94.9998 89.2375 96.0845 85.3997 97.4529C85.0193 97.5885 84.6311 97.7269 84.2327 97.8673C83.6445 98.0746 83.0342 98.2863 82.3936 98.4998C72.3562 101.845 63.8242 102 53.449 102H44.5273C45.9133 99.2842 47.3784 96.6157 48.9197 93.9976C49.3184 93.999 49.717 93.9998 50.1157 93.9998C59.3132 93.9998 68.8096 92.4557 78.1057 90.9442L78.1086 90.9439C81.0813 90.4605 84.0334 89.9805 86.949 89.5553C103.598 87.1273 120.162 85.2337 137.005 84.9998C155.095 84.7484 173.142 81.1686 190.671 77.4998C191.726 77.2791 192.771 77.0667 193.807 76.856C200.272 75.5419 206.415 74.2932 212.56 71.4998C214.44 70.6454 224.438 72.0393 231.793 73.0648L231.797 73.0652C235.479 73.5788 238.499 73.9998 239.505 73.9998C249.745 73.9998 257.5 72.4998 265.255 70.9998C273.009 69.4998 280.764 67.9998 291.005 67.9998H291.782C294.522 70.9716 297.145 74.0529 299.643 77.2365Z" fill="#CCD3DA"/>
<path d="M64.7324 71.9131C65.0508 71.8554 65.3625 71.7985 65.6663 71.7432C68.1138 71.2974 70.0315 70.948 70.6057 70.9718C74.9705 71.1527 79.3035 71.9367 83.6357 72.7206L83.6379 72.721C87.3757 73.3972 91.113 74.0735 94.8699 74.362C97.249 74.5447 100.055 73.4245 102.786 72.334C104.575 71.6194 106.333 70.9176 107.917 70.6037C114.996 69.2013 122.17 68.2321 129.323 67.2658L129.326 67.2654C135.52 66.4287 141.698 65.5941 147.785 64.4824C155.813 63.016 163.888 64.208 172.006 65.4065C177.521 66.2207 183.056 67.0379 188.611 67.0264C192.001 67.0193 195.444 66.9087 198.906 66.7975C207.207 66.5309 215.617 66.2609 223.684 67.4065C233.381 68.7838 244.189 69.2348 253.869 67.4292C257.958 66.6664 262.188 65.8064 266.234 64.9207C267.135 64.7233 267.531 64.2161 267.92 63.7191C268.238 63.3122 268.551 62.9121 269.131 62.6948C271.761 61.7101 274.381 60.4785 277.009 59.2433L277.014 59.2415C278.338 58.6189 279.665 57.9955 280.996 57.4022C274.015 51.1917 266.458 45.6148 258.415 40.7619C241.124 40.5578 223.501 41.0192 207.396 47.3615C202.399 49.329 197.011 49.1936 191.649 49.0589C186.436 48.9279 181.247 48.7975 176.467 50.5999C172.448 52.1146 165.175 52.5834 160.841 52.3646C155.496 52.0949 150.428 52.9546 145.338 53.818C141.302 54.5028 137.251 55.19 133.038 55.3176C130.098 55.4068 126.477 56.6233 123.221 57.7172L123.208 57.7219C122.05 58.1107 120.938 58.4841 119.92 58.7853C116.281 59.8623 112.594 60.4551 108.919 61.046L108.914 61.0468C105.924 61.5276 102.942 62.0072 99.9988 62.7455C93.9297 64.2681 87.823 64.2454 81.6055 61.8726C79.9485 61.2403 77.979 60.6948 75.8647 60.2749C71.9531 63.9551 68.2368 67.8402 64.7324 71.9131Z" fill="#CCD3DA"/>
<path fill-rule="evenodd" clip-rule="evenodd" d="M297 73.963C283.308 57.4721 266.195 43.9226 246.75 34.4028L243 36.0002V84.5002L216 96.0002V223H243H270H297V73.963Z" fill="#90A4AE"/>
<path d="M146 105H214L243 147H118L146 105Z" fill="#90A4AE"/>
<path d="M250 154.578C250 152.268 249.333 150.006 248.079 148.065L223.796 110.487C221.585 107.066 217.79 105 213.717 105H147.503C143.447 105 139.664 107.05 137.45 110.449L112.946 148.052C111.676 150.001 111 152.277 111 154.603V195H250V154.578ZM126 141L140.504 116.826C142.673 113.212 146.579 111 150.794 111H209.988C214.049 111 217.836 113.055 220.049 116.46L236 141H126Z" fill="#7E94A0"/>
<path d="M118 153C118 149.686 120.686 147 124 147H237C240.314 147 243 149.686 243 153V195H118V153Z" fill="#90A4AE"/>
<path d="M223.833 195C221.97 195 220.133 194.566 218.466 193.733L207.534 188.267C205.867 187.434 204.03 187 202.167 187H159C157.03 187 155.091 187.485 153.353 188.412L143.647 193.588C141.909 194.515 139.97 195 138 195H111V218.497C111 220.229 111.697 221.961 112.742 223H132.251C133.296 221.614 133.992 219.536 133.992 217.804V208H227.008V217.804C227.008 219.536 227.704 221.614 228.749 223H248.258C249.303 221.614 250 219.536 250 217.804V195H223.833Z" fill="#5A6A78"/>
<path d="M217.15 165.183C213.518 166.614 212.198 171.077 214.467 174.253L218.205 179.487C219.332 181.064 221.15 182 223.088 182H243V155L217.15 165.183ZM118 182H137.912C139.85 182 141.668 181.064 142.795 179.487L146.533 174.253C148.802 171.077 147.482 166.614 143.85 165.183L118 155V182Z" fill="#CCD3DA"/>
<path d="M156 174.5C156 172.015 158.015 170 160.5 170H200.5C202.985 170 205 172.015 205 174.5C205 176.985 202.985 179 200.5 179H160.5C158.015 179 156 176.985 156 174.5Z" fill="#5A6A78"/>
<path fill-rule="evenodd" clip-rule="evenodd" d="M65 71.6031C68.1658 67.9437 71.5033 64.4368 75 61.0952V88.7593L92 96.0001V116H104V223H92H76H75H65H38V116.663C42.8705 103.943 49.401 92.0441 57.3265 81.2317L65 84.5001V71.6031Z" fill="#90A4AE"/>
</g>
<defs>
<radialGradient id="paint0_radial" cx="0" cy="0" r="1" gradientUnits="userSpaceOnUse" gradientTransform="translate(179.52 223) rotate(-90) scale(223 360)">
<stop stop-color="#CFD8DC"/>
<stop offset="1" stop-color="#78909C"/>
</radialGradient>
<clipPath id="clip0">
<rect width="360" height="223" fill="white"/>
</clipPath>
</defs>
</svg>
