<svg width="393" height="152" viewBox="0 0 393 152" fill="none" xmlns="http://www.w3.org/2000/svg">
<rect y="31" width="157.954" height="105.303" rx="8" fill="#7B1FA2"/>
<path fill-rule="evenodd" clip-rule="evenodd" d="M19.043 49.8042C16.8338 49.8042 15.043 51.5951 15.043 53.8042V96.5751C15.043 98.7843 16.8338 100.575 19.043 100.575H52.4119C54.621 100.575 56.4119 98.7843 56.4119 96.5751V53.8042C56.4119 51.5951 54.621 49.8042 52.4119 49.8042H19.043ZM73.5748 49.8042C71.3656 49.8042 69.5748 51.5951 69.5748 53.8042V57.0866C69.5748 59.2958 71.3656 61.0866 73.5748 61.0866H135.15C137.359 61.0866 139.15 59.2958 139.15 57.0866V53.8042C139.15 51.5951 137.359 49.8042 135.15 49.8042H73.5748ZM69.5748 76.3691C69.5748 74.1599 71.3656 72.3691 73.5748 72.3691H135.15C137.359 72.3691 139.15 74.1599 139.15 76.3691V79.6515C139.15 81.8606 137.359 83.6515 135.15 83.6515H73.5748C71.3656 83.6515 69.5748 81.8606 69.5748 79.6515V76.3691ZM73.5748 94.9339C71.3656 94.9339 69.5748 96.7248 69.5748 98.9339V102.216C69.5748 104.426 71.3656 106.216 73.5748 106.216H99.4221C101.631 106.216 103.422 104.426 103.422 102.216V98.9339C103.422 96.7248 101.631 94.9339 99.4221 94.9339H73.5748Z" fill="#AA47BB"/>
<circle cx="248.353" cy="180.883" r="72.1168" fill="#7B1FA2"/>
<path d="M295.644 126.5C310.008 126.5 321.653 138.145 321.653 152.509V192.706H295.644V126.5Z" fill="#7B1FA2"/>
<path d="M201.064 126.5C186.7 126.5 175.055 138.145 175.055 152.509V192.706H201.064V126.5Z" fill="#7B1FA2"/>
<path fill-rule="evenodd" clip-rule="evenodd" d="M232.837 89.8506H248.353H263.87C263.844 100.07 266.974 106.402 273.181 113.495L248.353 134.776L223.526 113.495C229.733 106.402 232.863 100.07 232.837 89.8506Z" fill="#E596CE"/>
<path d="M267.766 106.073C261.998 107.825 255.877 108.766 249.536 108.766C242.453 108.766 235.645 107.591 229.296 105.426C231.666 100.986 232.853 96.1591 232.836 89.8506H263.87C263.853 96.4669 265.159 101.454 267.766 106.073Z" fill="#C672C5"/>
<circle cx="287.368" cy="55.5655" r="10.6402" fill="#7B1FA2"/>
<path d="M220.216 57.9297C220.216 63.8062 215.452 68.5699 209.576 68.5699C203.699 68.5699 198.936 63.8062 198.936 57.9297C198.936 52.0533 203.699 47.2896 209.576 47.2896C215.452 47.2896 220.216 52.0533 220.216 57.9297Z" fill="#7B1FA2"/>
<ellipse cx="248.354" cy="53.2011" rx="46.1075" ry="49.6542" fill="#E696CE"/>
<path fill-rule="evenodd" clip-rule="evenodd" d="M297.957 55.6152C297.991 54.8149 298.008 54.01 298.008 53.2009C298.008 23.8189 275.777 0 248.353 0C220.93 0 198.699 23.8189 198.699 53.2009C198.699 55.1969 198.802 57.1672 199.002 59.106C212.549 55.8755 224.879 48.7354 234.084 38.1268C243.757 43.6117 254.327 47.9903 265.644 51.0228C276.465 53.9221 287.308 55.4142 297.957 55.6152Z" fill="#7B1FA2"/>
<rect x="77" y="103" width="127.184" height="84.7892" fill="#AA47BB"/>
<path d="M77 103H204.184L140.592 155.993L77 103Z" fill="#C76FC5"/>
<rect x="311" y="201.287" width="127.286" height="72.5838" rx="6" transform="rotate(-90 311 201.287)" fill="#AA47BB" stroke="#7B1FA2" stroke-width="4"/>
<rect x="329.514" y="72" width="35.5568" height="10.9405" rx="3" fill="#7B1FA2"/>
</svg>
