<svg width="360" height="192" viewBox="0 0 360 192" fill="none" xmlns="http://www.w3.org/2000/svg">
<g clip-path="url(#clip0)">
<path d="M229.692 -52.3081C233.015 -60.7661 244.985 -60.7661 248.308 -52.3081L354.635 218.343C357.212 224.904 352.376 232 345.327 232H132.673C125.624 232 120.788 224.904 123.365 218.343L229.692 -52.3081Z" fill="#7986CB"/>
<path opacity="0.4" d="M97.398 108.812C102.701 108.812 107 104.503 107 99.1875C107 93.8718 102.701 89.5625 97.398 89.5625C95.8447 89.5625 94.3775 89.9322 93.0792 90.5887C91.1486 85.5647 86.2868 82 80.5944 82C73.2079 82 67.22 88.0022 67.22 95.4062C67.22 95.9927 67.2576 96.5704 67.3305 97.137C66.477 96.6902 65.5063 96.4375 64.4767 96.4375C61.0675 96.4375 58.3039 99.2077 58.3039 102.625C58.3039 106.042 61.0675 108.812 64.4765 108.812C64.4766 108.812 64.4765 108.812 64.4765 108.812H97.398Z" fill="#E8EAF6"/>
<path opacity="0.5" fill-rule="evenodd" clip-rule="evenodd" d="M230.123 48.3351C233.112 40.721 243.888 40.721 246.877 48.3351L250.623 57.8735C253.612 65.4877 264.388 65.4877 267.377 57.8735L271.123 48.3351C274.112 40.721 284.888 40.721 287.877 48.3351L344.174 191.711C346.493 197.615 342.14 204 335.797 204H308H268C268 204 268 204 268 204C268 204 268 204 268 204H142.203C135.86 204 131.507 197.615 133.826 191.711L190.123 48.3352C193.112 40.7211 203.888 40.7211 206.877 48.3352L210.123 56.6002C213.112 64.2143 223.888 64.2143 226.877 56.6002L230.123 48.3351Z" fill="#3240A7"/>
<path d="M132.19 53.7523C135.509 45.2849 147.491 45.2848 150.81 53.7523L199.65 178.351C202.221 184.91 197.385 192 190.34 192H92.6606C85.6156 192 80.7793 184.91 83.3503 178.351L132.19 53.7523Z" fill="#7986CB"/>
<path d="M145.69 72.9166C141.128 67.3661 131.6 68.2911 128.693 75.6919L125.617 83.5212C122.474 84.104 119.58 86.1609 118.193 89.6919L83.3651 178.343C80.949 184.494 85.0488 191.115 91.3783 191.919C91.8003 191.972 92.2321 192 92.6727 192H190.328C197.376 192 202.212 184.904 199.635 178.343L164.808 89.6919C162.437 83.6567 155.663 81.9279 150.77 84.5055L147.308 75.6919C146.892 74.6346 146.342 73.7095 145.69 72.9166Z" fill="#5C6BC0"/>
<path d="M96.6917 80.7099C100.013 72.2491 111.987 72.2491 115.308 80.71L153.639 178.346C156.215 184.906 151.378 192 144.331 192H67.669C60.6217 192 55.7853 184.906 58.3607 178.346L96.6917 80.7099Z" fill="#7986CB"/>
<path d="M115.303 111.598C111.975 103.155 100.026 103.155 96.6969 111.598L90.8044 126.545C85.9058 123.91 79.0756 125.626 76.6926 131.692L58.3651 178.344C55.7879 184.904 60.6244 192 67.6727 192H132.309C139.362 192 144.199 184.894 141.612 178.332L115.303 111.598Z" fill="#5C6BC0"/>
<path d="M8 192C8 192 208 95.25 353 192L8 192Z" fill="#3F51B5"/>
<path d="M139.361 85H228.524C229.979 85 231.375 85.5795 232.404 86.6109C233.433 87.6424 234.011 89.0413 234.011 90.5V211.5C234.011 212.959 233.433 214.358 232.404 215.389C231.375 216.421 229.979 217 228.524 217H139.361V85Z" fill="#283593"/>
<path d="M175.026 104.625H198.346C198.709 104.625 199.058 104.77 199.316 105.028C199.573 105.286 199.717 105.635 199.717 106C199.717 106.365 199.573 106.714 199.316 106.972C199.058 107.23 198.709 107.375 198.346 107.375H175.026C174.662 107.375 174.314 107.23 174.056 106.972C173.799 106.714 173.655 106.365 173.655 106C173.655 105.635 173.799 105.286 174.056 105.028C174.314 104.77 174.662 104.625 175.026 104.625Z" fill="#3949AB"/>
<path d="M168.168 110.125H205.204C205.568 110.125 205.917 110.27 206.174 110.528C206.431 110.786 206.576 111.135 206.576 111.5C206.576 111.865 206.431 112.214 206.174 112.472C205.917 112.73 205.568 112.875 205.204 112.875H168.168C167.804 112.875 167.455 112.73 167.198 112.472C166.94 112.214 166.796 111.865 166.796 111.5C166.796 111.135 166.94 110.786 167.198 110.528C167.455 110.27 167.804 110.125 168.168 110.125Z" fill="#3949AB"/>
<path fill-rule="evenodd" clip-rule="evenodd" d="M176.956 172.97C178.517 173.564 180.147 174.019 181.83 174.32C183.406 174.603 185.029 174.75 186.686 174.75C188.163 174.75 189.613 174.633 191.028 174.408C192.786 174.127 194.489 173.68 196.119 173.081C200.936 171.313 205.12 168.23 208.239 164.266C209.066 163.216 209.817 162.104 210.486 160.938C210.518 160.883 210.549 160.827 210.581 160.771C212.834 156.779 214.12 152.165 214.12 147.25C214.12 142.335 212.834 137.721 210.581 133.729C209.896 132.516 209.123 131.361 208.269 130.272L208.239 130.234C205.185 126.351 201.108 123.314 196.416 121.53C194.855 120.936 193.225 120.481 191.542 120.18C189.966 119.897 188.343 119.75 186.686 119.75C185.208 119.75 183.758 119.867 182.344 120.092C180.586 120.373 178.883 120.82 177.253 121.419C172.436 123.187 168.252 126.27 165.132 130.234C164.306 131.284 163.555 132.396 162.886 133.562C162.854 133.617 162.823 133.673 162.791 133.729C160.538 137.721 159.251 142.335 159.251 147.25C159.251 152.165 160.538 156.779 162.791 160.771C163.475 161.984 164.249 163.139 165.103 164.228L165.132 164.266C168.187 168.149 172.264 171.186 176.956 172.97ZM184.628 160.345V170.535C183.027 170.395 181.473 170.093 179.981 169.644C178.863 166.997 177.931 164.104 177.226 161.017C179.608 160.655 182.082 160.426 184.628 160.345ZM204.092 162.806C202.523 164.568 200.692 166.091 198.661 167.312C199.25 165.536 199.763 163.688 200.193 161.778C201.53 162.079 202.831 162.423 204.092 162.806ZM209.916 149.312C209.599 152.943 208.454 156.336 206.672 159.3C204.843 158.691 202.938 158.164 200.967 157.725C201.394 155.013 201.659 152.2 201.744 149.312H209.916ZM206.672 135.2C208.454 138.164 209.599 141.557 209.916 145.188H201.744C201.659 142.3 201.394 139.487 200.967 136.775C202.938 136.336 204.843 135.809 206.672 135.2ZM198.661 127.188C200.692 128.409 202.523 129.932 204.092 131.694C202.831 132.077 201.53 132.421 200.193 132.722C199.763 130.812 199.25 128.964 198.661 127.188ZM188.743 123.965C190.344 124.105 191.899 124.407 193.391 124.856C194.509 127.503 195.441 130.396 196.146 133.483C193.764 133.845 191.289 134.074 188.743 134.155V123.965ZM188.743 170.535C190.344 170.395 191.899 170.093 193.391 169.644C194.509 166.997 195.441 164.104 196.146 161.017C193.764 160.655 191.289 160.426 188.743 160.345V170.535ZM169.28 131.694C170.849 129.932 172.679 128.409 174.711 127.188C174.122 128.964 173.609 130.812 173.178 132.722C171.842 132.421 170.541 132.077 169.28 131.694ZM163.456 145.188C163.773 141.557 164.917 138.164 166.7 135.2C168.528 135.809 170.434 136.336 172.405 136.775C171.978 139.487 171.713 142.3 171.627 145.188H163.456ZM166.7 159.3C164.917 156.336 163.773 152.943 163.456 149.312H171.627C171.713 152.2 171.978 155.013 172.405 157.725C170.434 158.164 168.528 158.691 166.7 159.3ZM174.711 167.312C172.679 166.091 170.849 164.568 169.28 162.806C170.541 162.423 171.842 162.079 173.178 161.778C173.609 163.688 174.122 165.536 174.711 167.312ZM184.628 123.965C183.027 124.105 181.473 124.407 179.981 124.856C178.863 127.503 177.931 130.396 177.226 133.483C179.608 133.845 182.082 134.074 184.628 134.155V123.965ZM197.627 145.188C197.544 142.553 197.303 139.995 196.921 137.536C194.282 137.944 191.547 138.198 188.743 138.282V145.188H197.627ZM184.628 138.282C181.824 138.198 179.09 137.944 176.451 137.536C176.069 139.995 175.828 142.553 175.745 145.188H184.628V138.282ZM175.745 149.312C175.828 151.947 176.069 154.505 176.451 156.964C179.09 156.556 181.824 156.302 184.628 156.218V149.312H175.745ZM188.743 156.218C191.547 156.302 194.282 156.556 196.921 156.964C197.303 154.505 197.544 151.947 197.627 149.312H188.743V156.218Z" fill="#3949AB"/>
</g>
<defs>
<radialGradient id="paint0_radial" cx="0" cy="0" r="1" gradientUnits="userSpaceOnUse" gradientTransform="translate(179.52 192) rotate(-90) scale(192 360)">
<stop stop-color="#B39DDB"/>
<stop offset="1" stop-color="#3949AB"/>
</radialGradient>
<clipPath id="clip0">
<rect width="360" height="192" fill="white"/>
</clipPath>
</defs>
</svg>
