<svg width="360" height="192" viewBox="0 0 360 192" fill="none" xmlns="http://www.w3.org/2000/svg">
<g clip-path="url(#clip0)">
<path fill-rule="evenodd" clip-rule="evenodd" d="M180.558 117.563C176.251 122.977 170.679 127.341 164.29 130.208C157.102 144.328 142.43 154 125.5 154C101.476 154 82 134.524 82 110.5C82 92.8135 92.5552 77.5924 107.71 70.7923C114.898 56.6721 129.57 47 146.5 47C161.323 47 174.415 54.4146 182.269 65.7373C185.3 64.6138 188.578 64 192 64C207.464 64 220 76.536 220 92C220 107.464 207.464 120 192 120C187.924 120 184.052 119.129 180.558 117.563Z" fill="#00707A"/>
<path d="M7 191.477C7 191.477 207 132 352 191.477V213H7V191.477Z" fill="#00707A"/>
<rect x="133.034" y="126.927" width="113.793" height="55.0725" fill="#26A69A"/>
<rect x="137" y="151" width="43" height="31" fill="#00707A"/>
<path d="M282 126.928L260.276 87L238.552 126.928V182H282V126.928Z" fill="#4DB6AC"/>
<rect x="244" y="139" width="33" height="31" fill="#26A69A"/>
<path d="M124.707 127H238.5L260.621 87H146.828L124.707 127Z" fill="#00707A"/>
<path d="M133.5 77.8226C113.808 77.5331 97.5916 92.881 97.3021 112.573C97.3021 132.843 119.6 162.96 133.5 179.466C147.4 163.25 169.698 133.133 169.698 112.573C169.408 92.881 153.192 77.5331 133.5 77.8226ZM133.5 135.739C121.627 135.739 111.781 125.893 111.781 114.021C111.781 102.148 121.627 92.3018 133.5 92.3018C145.373 92.3018 155.219 102.148 155.219 114.021C155.219 125.893 145.373 135.739 133.5 135.739Z" fill="#26A69A"/>
<path fill-rule="evenodd" clip-rule="evenodd" d="M97.3021 112.573C97.5917 92.8811 113.808 77.5332 133.5 77.8228C153.192 77.5332 169.408 92.8811 169.698 112.573C169.698 131.354 151.093 158.108 137.278 174.959C135.969 176.555 134.703 178.063 133.5 179.467C132.307 178.05 131.053 176.534 129.756 174.932C115.938 157.865 97.3021 131.104 97.3021 112.573ZM133.5 72.0306C156.265 71.7408 175.152 89.5405 175.489 112.488L175.49 112.53V112.573C175.49 124.551 169.153 138.397 161.771 150.639C154.239 163.131 144.973 174.981 137.897 183.236L133.461 188.412L129.07 183.197C122.014 174.818 112.756 162.905 105.229 150.422C97.8584 138.199 91.5104 124.417 91.5104 112.573V112.53L91.5111 112.488C91.8485 89.5405 110.735 71.7408 133.5 72.0306ZM117.573 114.021C117.573 122.695 124.826 129.948 133.5 129.948C142.174 129.948 149.427 122.695 149.427 114.021C149.427 105.346 142.174 98.0936 133.5 98.0936C124.826 98.0936 117.573 105.346 117.573 114.021ZM111.781 114.021C111.781 125.894 121.627 135.739 133.5 135.739C145.373 135.739 155.219 125.894 155.219 114.021C155.219 102.148 145.373 92.302 133.5 92.302C121.627 92.302 111.781 102.148 111.781 114.021Z" fill="#00707A"/>
<path fill-rule="evenodd" clip-rule="evenodd" d="M222 53.625C222 65.0159 231.212 74.25 242.576 74.25C242.576 74.25 242.576 74.25 242.576 74.25H270.696C270.696 74.25 270.696 74.25 270.696 74.25C277.515 74.25 283.042 68.7095 283.042 61.875C283.042 55.0405 277.515 49.5 270.696 49.5C267.831 49.5 265.193 50.4788 263.098 52.121C262.329 41.4323 253.435 33 242.576 33C231.212 33 222 42.2341 222 53.625Z" fill="#26A69A"/>
</g>
<defs>
<radialGradient id="paint0_radial" cx="0" cy="0" r="1" gradientUnits="userSpaceOnUse" gradientTransform="translate(179.52 192) rotate(-90) scale(192 360)">
<stop stop-color="#26A69A"/>
<stop offset="1" stop-color="#00838F"/>
</radialGradient>
<clipPath id="clip0">
<rect width="360" height="192" fill="white"/>
</clipPath>
</defs>
</svg>
