<svg width="360" height="152" viewBox="0 40 360 152" fill="none" xmlns="http://www.w3.org/2000/svg">
<g clip-path="url(#clip0)">
<circle cx="138.118" cy="105.091" r="28.4891" transform="rotate(0.279806 138.118 105.091)" fill="#A6A6A6" stroke="#8A8A8A" stroke-width="4"/>
<path d="M140.439 110.274C140.443 109.417 140.224 108.743 139.784 108.253C139.343 107.762 138.567 107.297 137.455 106.858C136.343 106.418 135.317 105.974 134.376 105.525C133.435 105.075 132.625 104.556 131.946 103.966C131.267 103.377 130.747 102.696 130.387 101.924C130.027 101.152 129.85 100.218 129.855 99.1222C129.864 97.2885 130.52 95.7834 131.821 94.6071C133.122 93.4198 134.853 92.7338 137.013 92.5491L137.03 89.1149L139.741 89.1281L139.724 92.6274C141.802 92.9305 143.429 93.7577 144.604 95.1089C145.791 96.4494 146.379 98.1504 146.369 100.212L140.607 100.184C140.613 99.0554 140.39 98.1862 139.938 97.5764C139.486 96.9665 138.84 96.6596 137.999 96.6555C137.249 96.6518 136.663 96.8768 136.24 97.3305C135.829 97.7733 135.621 98.3908 135.617 99.1829C135.613 99.9858 135.849 100.627 136.324 101.107C136.799 101.576 137.564 102.03 138.619 102.469C139.673 102.897 140.666 103.347 141.595 103.818C142.536 104.279 143.346 104.803 144.025 105.393C144.704 105.982 145.235 106.668 145.618 107.451C146 108.234 146.189 109.174 146.184 110.27C146.175 112.125 145.548 113.636 144.303 114.802C143.07 115.967 141.391 116.643 139.264 116.828L139.248 120.099L136.538 120.086L136.554 116.798C134.078 116.537 132.178 115.719 130.855 114.345C129.543 112.961 128.893 111.146 128.904 108.9L134.649 108.928C134.643 110.165 134.923 111.11 135.488 111.764C136.064 112.407 136.881 112.731 137.938 112.736C138.71 112.74 139.32 112.526 139.765 112.094C140.21 111.651 140.435 111.045 140.439 110.274Z" fill="#8A8A8A"/>
<ellipse cx="195.568" cy="91.9856" rx="28.4857" ry="28.4857" transform="rotate(15.2798 195.568 91.9856)" fill="#A6A6A6" stroke="#8A8A8A" stroke-width="4"/>
<path d="M196.408 97.2241C196.619 96.4515 196.585 95.7907 196.306 95.2415C196.027 94.6923 195.439 94.085 194.542 93.4196C193.645 92.7542 192.826 92.1049 192.086 91.4717C191.345 90.8385 190.739 90.1739 190.269 89.4779C189.799 88.7819 189.495 88.042 189.357 87.2582C189.218 86.4743 189.284 85.5885 189.554 84.6008C190.006 82.9481 190.961 81.7483 192.42 81.0013C193.881 80.2446 195.609 80.0441 197.603 80.3997L198.449 77.3046L200.892 77.9719L200.03 81.1258C201.833 81.9019 203.101 83.0417 203.835 84.5454C204.582 86.042 204.701 87.7194 204.194 89.5775L199 88.1588C199.278 87.1417 199.287 86.3034 199.027 85.6439C198.767 84.9843 198.258 84.551 197.5 84.3439C196.824 84.1592 196.24 84.2205 195.749 84.5277C195.271 84.8279 194.934 85.3349 194.739 86.0488C194.542 86.7725 194.599 87.4082 194.912 87.956C195.227 88.4941 195.807 89.0888 196.653 89.7402C197.502 90.3818 198.288 91.0276 199.013 91.6776C199.751 92.3206 200.355 92.99 200.826 93.686C201.296 94.382 201.609 95.1296 201.765 95.9288C201.921 96.7281 201.864 97.6216 201.594 98.6093C201.137 100.282 200.206 101.493 198.801 102.244C197.407 102.998 195.727 103.202 193.764 102.854L192.958 105.803L190.516 105.136L191.325 102.172C189.154 101.337 187.637 100.14 186.775 98.5806C185.926 97.0141 185.778 95.2186 186.331 93.1943L191.509 94.6088C191.205 95.7237 191.228 96.6444 191.58 97.3711C191.945 98.0908 192.603 98.5807 193.556 98.841C194.253 99.0312 194.854 98.9854 195.36 98.7033C195.869 98.4115 196.219 97.9184 196.408 97.2241Z" fill="#8A8A8A"/>
<circle cx="114.001" cy="157.722" r="37.584" transform="rotate(-29.7202 114.001 157.722)" fill="#A6A6A6" stroke="#8A8A8A" stroke-width="4"/>
<path d="M119.975 162.044C119.424 161.077 118.741 160.461 117.927 160.196C117.113 159.931 115.938 159.912 114.403 160.14C112.868 160.367 111.425 160.534 110.075 160.639C108.725 160.745 107.477 160.687 106.331 160.465C105.185 160.243 104.16 159.815 103.254 159.18C102.348 158.546 101.542 157.611 100.837 156.375C99.6564 154.307 99.416 152.19 100.116 150.022C100.808 147.843 102.309 145.948 104.618 144.338L102.407 140.466L105.464 138.721L107.716 142.667C110.249 141.658 112.616 141.532 114.814 142.289C117.019 143.025 118.784 144.556 120.111 146.88L113.615 150.589C112.888 149.317 112.073 148.484 111.17 148.092C110.266 147.699 109.34 147.774 108.392 148.315C107.546 148.798 107.033 149.431 106.852 150.216C106.677 150.981 106.845 151.81 107.354 152.703C107.871 153.608 108.552 154.177 109.398 154.408C110.236 154.626 111.391 154.64 112.862 154.45C114.326 154.246 115.734 154.108 117.085 154.034C118.442 153.941 119.693 154.005 120.839 154.227C121.985 154.449 123.027 154.875 123.966 155.508C124.904 156.14 125.726 157.074 126.432 158.309C127.626 160.401 127.902 162.507 127.26 164.625C126.63 166.737 125.18 168.586 122.909 170.175L125.015 173.863L121.959 175.608L119.843 171.901C116.889 173.214 114.222 173.528 111.843 172.842C109.469 172.137 107.56 170.518 106.114 167.986L112.592 164.288C113.388 165.683 114.316 166.564 115.375 166.933C116.441 167.281 117.57 167.115 118.761 166.435C119.633 165.938 120.179 165.302 120.399 164.527C120.612 163.74 120.471 162.912 119.975 162.044Z" fill="#8A8A8A"/>
<path d="M278.315 123.558C281.244 134.49 293.697 130.252 290.993 120.161C288.289 110.071 281.528 111.882 284.231 121.973C286.935 132.064 301.529 129.055 298.6 118.123" stroke="#BB7761" stroke-width="4"/>
<path d="M284 148.721C284 182.417 256.786 209.721 223.231 209.721C189.676 209.721 162.461 182.417 162.461 148.721C162.461 115.025 189.676 87.7212 223.231 87.7212C256.786 87.7212 284 115.025 284 148.721Z" fill="#E39982" stroke="#BB7761" stroke-width="4"/>
<path d="M198.154 168.795C198.154 172.178 196.276 175.414 192.893 177.879C189.512 180.342 184.742 181.927 179.384 181.927C174.027 181.927 169.257 180.342 165.876 177.879C162.493 175.414 160.615 172.178 160.615 168.795C160.615 165.412 162.493 162.176 165.876 159.711C169.257 157.248 174.027 155.663 179.384 155.663C184.742 155.663 189.512 157.248 192.893 159.711C196.276 162.176 198.154 165.412 198.154 168.795Z" fill="#E39982" stroke="#BB7761" stroke-width="4"/>
<ellipse cx="171.506" cy="168.795" rx="2.14854" ry="4.32353" fill="#BB7761"/>
<ellipse cx="181.533" cy="168.795" rx="2.14854" ry="4.32353" fill="#BB7761"/>
<ellipse cx="188.806" cy="146.044" rx="2.86472" ry="2.88235" fill="#BB7761"/>
<ellipse cx="175.294" cy="146.044" rx="2.86472" ry="2.88235" fill="#BB7761"/>
<mask id="path-15-inside-1" fill="white">
<path fill-rule="evenodd" clip-rule="evenodd" d="M176.953 132.389C177.536 128.036 176.161 123.469 172.827 120.123C169.37 116.653 163.364 118.281 158.671 119.553C155.66 120.369 153.188 121.039 152.276 120.123C153.188 121.039 152.521 123.519 151.708 126.542C150.44 131.253 148.818 137.28 152.276 140.75C155.609 144.096 160.16 145.476 164.497 144.891C164.906 141.834 166.282 138.881 168.623 136.531C170.965 134.181 173.907 132.8 176.953 132.389Z"/>
</mask>
<path fill-rule="evenodd" clip-rule="evenodd" d="M176.953 132.389C177.536 128.036 176.161 123.469 172.827 120.123C169.37 116.653 163.364 118.281 158.671 119.553C155.66 120.369 153.188 121.039 152.276 120.123C153.188 121.039 152.521 123.519 151.708 126.542C150.44 131.253 148.818 137.28 152.276 140.75C155.609 144.096 160.16 145.476 164.497 144.891C164.906 141.834 166.282 138.881 168.623 136.531C170.965 134.181 173.907 132.8 176.953 132.389Z" fill="#E39982"/>
<path d="M172.827 120.123L175.65 117.289L175.65 117.289L172.827 120.123ZM176.953 132.389L177.485 136.361L180.505 135.954L180.91 132.923L176.953 132.389ZM158.671 119.553L157.63 115.684L157.63 115.684L158.671 119.553ZM151.708 126.542L147.853 125.497L147.853 125.497L151.708 126.542ZM164.497 144.891L165.029 148.863L168.049 148.456L168.454 145.425L164.497 144.891ZM170.004 122.957C172.42 125.382 173.42 128.687 172.996 131.856L180.91 132.923C181.652 127.384 179.901 121.556 175.65 117.289L170.004 122.957ZM159.712 123.422C162.145 122.762 164.4 122.168 166.421 122.062C168.412 121.957 169.42 122.37 170.004 122.957L175.65 117.289C172.777 114.406 169.053 113.898 166.004 114.058C162.985 114.216 159.89 115.072 157.63 115.684L159.712 123.422ZM149.452 122.957C150.521 124.029 151.804 124.389 152.72 124.509C153.632 124.628 154.52 124.557 155.237 124.457C156.649 124.259 158.294 123.806 159.712 123.422L157.63 115.684C156.036 116.116 154.94 116.406 154.135 116.519C153.744 116.573 153.655 116.549 153.753 116.561C153.855 116.575 154.487 116.675 155.099 117.289L149.452 122.957ZM155.562 127.586C155.945 126.163 156.397 124.513 156.593 123.095C156.693 122.376 156.764 121.484 156.645 120.569C156.526 119.65 156.167 118.362 155.099 117.289L149.452 122.957C148.84 122.342 148.74 121.708 148.727 121.605C148.714 121.507 148.739 121.597 148.684 121.99C148.572 122.797 148.283 123.897 147.853 125.497L155.562 127.586ZM155.099 137.916C154.515 137.33 154.103 136.319 154.207 134.32C154.313 132.292 154.905 130.028 155.562 127.586L147.853 125.497C147.243 127.766 146.39 130.871 146.233 133.902C146.073 136.962 146.579 140.7 149.452 143.584L155.099 137.916ZM163.965 140.92C160.809 141.346 157.515 140.341 155.099 137.916L149.452 143.584C153.704 147.85 159.51 149.607 165.029 148.863L163.965 140.92ZM168.454 145.425C168.751 143.207 169.745 141.072 171.447 139.364L165.8 133.697C162.818 136.69 161.062 140.46 160.54 144.358L168.454 145.425ZM171.447 139.364C173.148 137.657 175.276 136.659 177.485 136.361L176.422 128.418C172.538 128.941 168.782 130.704 165.8 133.697L171.447 139.364Z" fill="#BB7761" mask="url(#path-15-inside-1)"/>
<mask id="path-17-inside-2" fill="white">
<path fill-rule="evenodd" clip-rule="evenodd" d="M211.119 144.892C215.457 145.476 220.007 144.096 223.341 140.75C226.798 137.28 225.176 131.253 223.908 126.542C223.095 123.519 222.428 121.039 223.341 120.123C222.428 121.039 219.957 120.369 216.946 119.553C212.252 118.281 206.246 116.653 202.789 120.123C199.456 123.469 198.08 128.036 198.663 132.389C201.71 132.8 204.651 134.181 206.993 136.531C209.334 138.881 210.71 141.834 211.119 144.892Z"/>
</mask>
<path fill-rule="evenodd" clip-rule="evenodd" d="M211.119 144.892C215.457 145.476 220.007 144.096 223.341 140.75C226.798 137.28 225.176 131.253 223.908 126.542C223.095 123.519 222.428 121.039 223.341 120.123C222.428 121.039 219.957 120.369 216.946 119.553C212.252 118.281 206.246 116.653 202.789 120.123C199.456 123.469 198.08 128.036 198.663 132.389C201.71 132.8 204.651 134.181 206.993 136.531C209.334 138.881 210.71 141.834 211.119 144.892Z" fill="#E39982"/>
<path d="M211.119 144.892L207.162 145.425L207.568 148.456L210.588 148.863L211.119 144.892ZM223.908 126.542L220.054 127.586L220.054 127.586L223.908 126.542ZM216.946 119.553L215.905 123.422L216.946 119.553ZM202.789 120.123L205.612 122.957L205.612 122.957L202.789 120.123ZM198.663 132.389L194.706 132.923L195.111 135.954L198.131 136.361L198.663 132.389ZM220.517 137.916C218.101 140.341 214.808 141.346 211.651 140.92L210.588 148.863C216.106 149.607 221.913 147.85 226.164 143.584L220.517 137.916ZM220.054 127.586C220.711 130.028 221.304 132.292 221.409 134.32C221.513 136.319 221.102 137.33 220.517 137.916L226.164 143.584C229.037 140.7 229.543 136.962 229.384 133.902C229.226 130.871 228.374 127.766 227.763 125.497L220.054 127.586ZM220.517 117.289C219.449 118.362 219.09 119.65 218.971 120.569C218.852 121.485 218.923 122.376 219.023 123.096C219.22 124.513 219.671 126.164 220.054 127.586L227.763 125.497C227.333 123.898 227.044 122.797 226.932 121.99C226.877 121.597 226.902 121.507 226.889 121.605C226.876 121.708 226.776 122.342 226.164 122.957L220.517 117.289ZM215.905 123.422C217.322 123.806 218.967 124.259 220.379 124.457C221.096 124.557 221.984 124.628 222.896 124.509C223.812 124.389 225.095 124.029 226.164 122.957L220.517 117.289C221.129 116.675 221.762 116.575 221.864 116.562C221.961 116.549 221.872 116.573 221.481 116.519C220.676 116.406 219.58 116.116 217.987 115.684L215.905 123.422ZM205.612 122.957C206.197 122.37 207.204 121.957 209.195 122.062C211.216 122.168 213.472 122.762 215.905 123.422L217.987 115.684C215.726 115.072 212.632 114.216 209.612 114.058C206.563 113.898 202.839 114.406 199.966 117.289L205.612 122.957ZM202.62 131.856C202.196 128.687 203.196 125.382 205.612 122.957L199.966 117.289C195.715 121.556 193.964 127.384 194.706 132.923L202.62 131.856ZM198.131 136.361C200.341 136.659 202.468 137.657 204.17 139.364L209.816 133.697C206.834 130.705 203.078 128.941 199.195 128.418L198.131 136.361ZM204.17 139.364C205.871 141.072 206.865 143.207 207.162 145.425L215.076 144.358C214.555 140.46 212.798 136.69 209.816 133.697L204.17 139.364Z" fill="#BB7761" mask="url(#path-17-inside-2)"/>
<path fill-rule="evenodd" clip-rule="evenodd" d="M197.423 109.81C205.18 98.5677 217.669 90.8661 232 89.6087C230.631 89.4886 229.246 89.4272 227.846 89.4272C211.791 89.4272 197.613 97.494 189.116 109.81H197.423Z" fill="#BB7761"/>
</g>
<defs>
<radialGradient id="paint0_radial" cx="0" cy="0" r="1" gradientUnits="userSpaceOnUse" gradientTransform="translate(179.52 192) rotate(-90) scale(192 360)">
<stop stop-color="#BDBDBD"/>
<stop offset="1" stop-color="#757575"/>
</radialGradient>
<clipPath id="clip0">
<rect width="360" height="192" fill="white"/>
</clipPath>
</defs>
</svg>
