<svg width="18" height="17" viewBox="0 0 18 17" fill="none" xmlns="http://www.w3.org/2000/svg">
<path fill-rule="evenodd" clip-rule="evenodd" d="M5.26667 3.13333C5.26667 1.95513 6.22179 1 7.4 1C8.57821 1 9.53333 1.95513 9.53333 3.13333V4H11.8C12.9046 4 13.8 4.89543 13.8 6V8H15C16.1046 8 17 8.89543 17 10C17 11.1046 16.1046 12 15 12H13.8V14C13.8 15.1046 12.9046 16 11.8 16H9.53333V15.1333C9.53333 13.9551 8.57821 13 7.4 13C6.22179 13 5.26667 13.9551 5.26667 15.1333V16H3C1.89543 16 1 15.1046 1 14V12H2.2C3.30457 12 4.2 11.1046 4.2 10C4.2 8.89543 3.30457 8 2.2 8H1V6C1 4.89543 1.89543 4 3 4H5.26667V3.13333Z" fill="#515357"/>
<path d="M9.53333 4H9.13333V4.4H9.53333V4ZM13.8 8H13.4V8.4H13.8V8ZM13.8 12V11.6H13.4V12H13.8ZM9.53333 16H9.13333V16.4H9.53333V16ZM5.26667 16V16.4H5.66667V16H5.26667ZM1 12V11.6H0.6V12H1ZM1 8H0.6V8.4H1V8ZM5.26667 4V4.4H5.66667V4H5.26667ZM7.4 0.6C6.00088 0.6 4.86667 1.73421 4.86667 3.13333H5.66667C5.66667 2.17604 6.44271 1.4 7.4 1.4V0.6ZM9.93333 3.13333C9.93333 1.73421 8.79912 0.6 7.4 0.6V1.4C8.35729 1.4 9.13333 2.17604 9.13333 3.13333H9.93333ZM9.93333 4V3.13333H9.13333V4H9.93333ZM9.53333 4.4H11.8V3.6H9.53333V4.4ZM11.8 4.4C12.6837 4.4 13.4 5.11634 13.4 6H14.2C14.2 4.67452 13.1255 3.6 11.8 3.6V4.4ZM13.4 6V8H14.2V6H13.4ZM15 7.6H13.8V8.4H15V7.6ZM17.4 10C17.4 8.67452 16.3255 7.6 15 7.6V8.4C15.8837 8.4 16.6 9.11634 16.6 10H17.4ZM15 12.4C16.3255 12.4 17.4 11.3255 17.4 10H16.6C16.6 10.8837 15.8837 11.6 15 11.6V12.4ZM13.8 12.4H15V11.6H13.8V12.4ZM13.4 12V14H14.2V12H13.4ZM13.4 14C13.4 14.8837 12.6837 15.6 11.8 15.6V16.4C13.1255 16.4 14.2 15.3255 14.2 14H13.4ZM11.8 15.6H9.53333V16.4H11.8V15.6ZM9.93333 16V15.1333H9.13333V16H9.93333ZM9.93333 15.1333C9.93333 13.7342 8.79912 12.6 7.4 12.6V13.4C8.35729 13.4 9.13333 14.176 9.13333 15.1333H9.93333ZM7.4 12.6C6.00088 12.6 4.86667 13.7342 4.86667 15.1333H5.66667C5.66667 14.176 6.44271 13.4 7.4 13.4V12.6ZM4.86667 15.1333V16H5.66667V15.1333H4.86667ZM5.26667 15.6H3V16.4H5.26667V15.6ZM3 15.6C2.11635 15.6 1.4 14.8837 1.4 14H0.6C0.6 15.3255 1.67452 16.4 3 16.4V15.6ZM1.4 14V12H0.6V14H1.4ZM1 12.4H2.2V11.6H1V12.4ZM2.2 12.4C3.52548 12.4 4.6 11.3255 4.6 10H3.8C3.8 10.8837 3.08366 11.6 2.2 11.6V12.4ZM4.6 10C4.6 8.67452 3.52548 7.6 2.2 7.6V8.4C3.08365 8.4 3.8 9.11634 3.8 10H4.6ZM2.2 7.6H1V8.4H2.2V7.6ZM1.4 8V6H0.6V8H1.4ZM1.4 6C1.4 5.11634 2.11634 4.4 3 4.4V3.6C1.67452 3.6 0.6 4.67452 0.6 6H1.4ZM3 4.4H5.26667V3.6H3V4.4ZM4.86667 3.13333V4H5.66667V3.13333H4.86667Z" fill="#515357"/>
</svg>
