<svg xmlns="http://www.w3.org/2000/svg" width="21" height="20" viewBox="0 0 21 20" fill="none">
<path fill-rule="evenodd" clip-rule="evenodd" d="M10.3335 17.3335C14.3835 17.3335 17.6667 14.0503 17.6667 10.0002C17.6667 5.9502 14.3835 2.66699 10.3335 2.66699C6.28345 2.66699 3.00024 5.9502 3.00024 10.0002C3.00024 14.0503 6.28345 17.3335 10.3335 17.3335ZM10.3335 18.3335C14.9358 18.3335 18.6667 14.6026 18.6667 10.0002C18.6667 5.39792 14.9358 1.66699 10.3335 1.66699C5.73117 1.66699 2.00024 5.39792 2.00024 10.0002C2.00024 14.6026 5.73117 18.3335 10.3335 18.3335ZM9.50941 11.5963C9.50941 11.0736 9.57231 10.6573 9.69809 10.3474C9.82388 10.0375 10.0533 9.73321 10.3862 9.43453C10.7229 9.13211 10.9467 8.88756 11.0577 8.70088C11.1687 8.51047 11.2242 8.31072 11.2242 8.10164C11.2242 7.47067 10.9356 7.15518 10.3585 7.15518C10.0847 7.15518 9.86457 7.24105 9.69809 7.4128C9.53531 7.58081 9.45022 7.81416 9.44282 8.11284H7.8335C7.8409 7.39973 8.06842 6.84156 8.51607 6.43833C8.96742 6.03511 9.58155 5.8335 10.3585 5.8335C11.1428 5.8335 11.7514 6.02577 12.1842 6.41033C12.6171 6.79116 12.8335 7.33066 12.8335 8.02884C12.8335 8.34619 12.7632 8.64674 12.6226 8.93049C12.482 9.21051 12.236 9.52227 11.8846 9.86575L11.4351 10.297C11.1539 10.5695 10.9929 10.8888 10.9523 11.2546L10.9301 11.5963H9.50941ZM10.2454 14.1943C10.7321 14.1943 11.1267 13.7997 11.1267 13.313C11.1267 12.8262 10.7321 12.4316 10.2454 12.4316C9.75861 12.4316 9.36401 12.8262 9.36401 13.313C9.36401 13.7997 9.75861 14.1943 10.2454 14.1943Z" fill="black" fill-opacity="0.87"/>
</svg>