<svg xmlns="http://www.w3.org/2000/svg" width="20" height="20" viewBox="0 0 20 20" fill="none">
<path fill-rule="evenodd" clip-rule="evenodd" d="M10 17C13.866 17 17 13.866 17 10C17 6.13401 13.866 3 10 3C6.13401 3 3 6.13401 3 10C3 13.866 6.13401 17 10 17ZM10 18C14.4183 18 18 14.4183 18 10C18 5.58172 14.4183 2 10 2C5.58172 2 2 5.58172 2 10C2 14.4183 5.58172 18 10 18ZM10.9354 6.5882C10.9354 7.10452 10.5169 7.52308 10.0006 7.52308C9.48423 7.52308 9.06567 7.10452 9.06567 6.5882C9.06567 6.07188 9.48423 5.65332 10.0006 5.65332C10.5169 5.65332 10.9354 6.07188 10.9354 6.5882ZM10.8334 8.48096H9.16675V14.1667H10.8334V8.48096Z" fill="white" fill-opacity="0.4"/>
</svg>