<svg xmlns="http://www.w3.org/2000/svg" width="24" height="24" viewBox="0 0 24 24" fill="none">
<path fill-rule="evenodd" clip-rule="evenodd" d="M20.7 10.4968V18.9999C20.7 19.9388 19.9389 20.6999 19 20.6999L17 20.6999V15.9999C17 14.343 15.6569 12.9999 14 12.9999H10C8.34315 12.9999 7 14.343 7 15.9999V20.6999L5 20.6999C4.06112 20.6999 3.3 19.9388 3.3 18.9999V10.4968C3.3 9.27744 3.90075 8.13639 4.90603 7.44632L11.0379 3.23711C11.6176 2.83919 12.3824 2.83919 12.9621 3.23711L19.094 7.44632C20.0992 8.13639 20.7 9.27744 20.7 10.4968ZM8.3 20.6999V15.9999C8.3 15.061 9.06112 14.2999 10 14.2999H14C14.9389 14.2999 15.7 15.061 15.7 15.9999V20.6999H8.3ZM7 21.9999L5 21.9999C3.34315 21.9999 2 20.6567 2 18.9999V10.4968C2 8.84903 2.81182 7.30706 4.1703 6.37454L10.3022 2.16533C11.3251 1.46312 12.6749 1.46312 13.6978 2.16533L19.8297 6.37454C21.1882 7.30706 22 8.84903 22 10.4968V18.9999C22 20.6567 20.6569 21.9999 19 21.9999L17 21.9999H15.7H8.3H7Z" fill="white" fill-opacity="0.54"/>
</svg>