<svg xmlns="http://www.w3.org/2000/svg" width="24" height="24" viewBox="0 0 24 24" fill="none">
<path fill-rule="evenodd" clip-rule="evenodd" d="M2.84998 2.5001C2.84998 2.14111 3.14099 1.8501 3.49998 1.8501H20.5C20.859 1.8501 21.15 2.14111 21.15 2.5001C21.15 2.85908 20.859 3.1501 20.5 3.1501H3.49998C3.14099 3.1501 2.84998 2.85908 2.84998 2.5001ZM2.84998 8.5001C2.84998 6.48426 4.48414 4.8501 6.49998 4.8501H17.5C19.5158 4.8501 21.15 6.48426 21.15 8.5001V15.5001C21.15 17.5159 19.5158 19.1501 17.5 19.1501H6.49998C4.48414 19.1501 2.84998 17.5159 2.84998 15.5001V8.5001ZM6.49998 6.1501C5.20211 6.1501 4.14998 7.20223 4.14998 8.5001V15.5001C4.14998 16.798 5.20211 17.8501 6.49998 17.8501H17.5C18.7978 17.8501 19.85 16.798 19.85 15.5001V8.5001C19.85 7.20223 18.7978 6.1501 17.5 6.1501H6.49998ZM3.49998 20.8501C3.14099 20.8501 2.84998 21.1411 2.84998 21.5001C2.84998 21.8591 3.14099 22.1501 3.49998 22.1501H20.5C20.859 22.1501 21.15 21.8591 21.15 21.5001C21.15 21.1411 20.859 20.8501 20.5 20.8501H3.49998ZM13.7143 9.71438C13.7143 10.6612 12.9468 11.4287 12 11.4287C11.0533 11.4287 10.2857 10.6612 10.2857 9.71438C10.2857 8.76761 11.0533 8.0001 12 8.0001C12.9468 8.0001 13.7143 8.76761 13.7143 9.71438ZM12 11.4288C9.79084 11.4288 7.99998 13.7911 7.99998 16.0002H16C16 13.7911 14.2091 11.4288 12 11.4288Z" fill="black" fill-opacity="0.54"/>
</svg>