<svg xmlns="http://www.w3.org/2000/svg" width="24" height="24" viewBox="0 0 24 24" fill="none">
<path fill-rule="evenodd" clip-rule="evenodd" d="M11.3 7.7V3.3H12.7V7.7H11.3ZM10 3C10 2.44772 10.4477 2 11 2H13C13.5523 2 14 2.44772 14 3V5H19C20.6569 5 22 6.34315 22 8V19C22 20.6569 20.6569 22 19 22H5C3.34315 22 2 20.6569 2 19V8C2 6.34315 3.34315 5 5 5H10V3ZM14 6.3V8C14 8.55228 13.5523 9 13 9H11C10.4477 9 10 8.55228 10 8V6.3H5C4.06112 6.3 3.3 7.06112 3.3 8V19C3.3 19.9389 4.06112 20.7 5 20.7H19C19.9389 20.7 20.7 19.9389 20.7 19V8C20.7 7.06112 19.9389 6.3 19 6.3H14ZM10 12.5C10 13.3284 9.32843 14 8.5 14C7.67157 14 7 13.3284 7 12.5C7 11.6716 7.67157 11 8.5 11C9.32843 11 10 11.6716 10 12.5ZM8.5 14C10.433 14 12 16.067 12 18H5C5 16.067 6.567 14 8.5 14ZM12.85 12.5C12.85 12.141 13.141 11.85 13.5 11.85H15H18.5C18.859 11.85 19.15 12.141 19.15 12.5C19.15 12.859 18.859 13.15 18.5 13.15H15H13.5C13.141 13.15 12.85 12.859 12.85 12.5ZM13.5 14.85C13.141 14.85 12.85 15.141 12.85 15.5C12.85 15.859 13.141 16.15 13.5 16.15H15H16.5C16.859 16.15 17.15 15.859 17.15 15.5C17.15 15.141 16.859 14.85 16.5 14.85H15H13.5Z" fill="white" fill-opacity="0.54"/>
</svg>