<svg width="24" height="24" viewBox="0 0 24 24" fill="none" xmlns="http://www.w3.org/2000/svg">
<path fill-rule="evenodd" clip-rule="evenodd" d="M12 3C13.6569 3 15 4.34315 15 6H19C20.6569 6 22 7.34315 22 9V18C22 19.6569 20.6569 21 19 21H5C3.34315 21 2 19.6569 2 18V9C2 7.34315 3.34315 6 5 6L9 6C9 4.34315 10.3431 3 12 3ZM13.7 6C13.7 5.06112 12.9389 4.3 12 4.3C11.0611 4.3 10.3 5.06112 10.3 6L13.7 6ZM5 7.3C4.06112 7.3 3.3 8.06112 3.3 9V11.2918C3.3 11.4274 3.31672 11.5187 3.33404 11.5724C3.34229 11.5979 3.34909 11.6105 3.35211 11.6153C3.82557 12.0739 5.33674 13.189 9.17874 13.5699C9.54775 12.6498 10.448 12 11.5 12H12.5C13.552 12 14.4523 12.6498 14.8213 13.5699C18.6632 13.189 20.1744 12.0739 20.6479 11.6153L20.6462 11.6176L20.6479 11.6153C20.6509 11.6105 20.6577 11.5979 20.666 11.5724C20.6833 11.5187 20.7 11.4274 20.7 11.2918V9C20.7 8.06112 19.9389 7.3 19 7.3H5ZM14.9741 14.8609C14.7992 16.0706 13.7582 17 12.5 17H11.5C10.2418 17 9.20076 16.0706 9.02586 14.8609C6.07673 14.5652 4.31954 13.8485 3.3 13.2065V18C3.3 18.9389 4.06112 19.7 5 19.7H19C19.9389 19.7 20.7 18.9389 20.7 18V13.2065C19.6805 13.8485 17.9233 14.5652 14.9741 14.8609ZM10.3 14.5C10.3 13.8373 10.8373 13.3 11.5 13.3H12.5C13.1627 13.3 13.7 13.8373 13.7 14.5C13.7 15.1627 13.1627 15.7 12.5 15.7H11.5C10.8373 15.7 10.3 15.1627 10.3 14.5Z" fill="white" fill-opacity="0.7"/>
</svg>
