<svg width="24" height="24" viewBox="0 0 24 24" fill="none" xmlns="http://www.w3.org/2000/svg">
<path fill-rule="evenodd" clip-rule="evenodd" d="M7.58819 6.54611C8.3637 6.47206 9.95873 6.34922 12.0032 6.34922C14.0469 6.34922 15.6441 6.47196 16.4217 6.54603C16.5238 6.55576 16.6205 6.61927 16.6731 6.7264L18.2206 9.87714C18.3941 10.2305 18.7677 10.4402 19.1597 10.4044L20.5318 10.279L21.5914 11.1466C21.6831 11.2216 21.7305 11.338 21.7175 11.4558L21.2218 15.9477L21.0994 16.8039C20.9227 17.3507 20.41 17.7377 19.815 17.7377H4.18629C3.58832 17.7377 3.07403 17.347 2.89953 16.7967L2.79822 16.0876L2.32166 11.4616C2.3095 11.3436 2.35794 11.2275 2.45035 11.1531L3.53544 10.2796L4.83487 10.4034C5.22703 10.4407 5.60156 10.2321 5.77633 9.8791L7.33745 6.72548C7.39022 6.61888 7.48651 6.55582 7.58819 6.54611ZM1.29496 14.1813L1.0285 11.5948C0.971196 11.0385 1.19956 10.4911 1.63519 10.1404L2.76781 9.22868C3.00146 9.0406 3.29934 8.95125 3.59793 8.97969L4.71819 9.08637L6.17239 6.14874C6.41727 5.65406 6.89843 5.30606 7.46462 5.252C8.27106 5.17499 9.9084 5.04922 12.0032 5.04922C14.0971 5.04922 15.7366 5.17488 16.5449 5.25189C17.1131 5.30601 17.5957 5.65603 17.8399 6.15329L19.2813 9.08787L20.4747 8.9788C20.7752 8.95134 21.0745 9.04309 21.3079 9.23426L22.415 10.1407C22.8472 10.4946 23.071 11.0432 23.0097 11.5984L22.7229 14.1964C22.8927 14.3436 23 14.5609 23 14.8033V19C23 19.5523 22.5523 20 22 20H21C20.4582 20 20.017 19.5691 20.0005 19.0313C19.9392 19.0355 19.8773 19.0377 19.815 19.0377H4.18629C4.12354 19.0377 4.06125 19.0355 3.99952 19.0312C3.98304 19.569 3.54185 20 3 20H2C1.44772 20 1 19.5523 1 19V14.8033C1 14.5525 1.11491 14.3286 1.29496 14.1813Z" fill="black" fill-opacity="0.7"/>
<path d="M6.32742 12.671C6.18789 12.4251 5.95075 12.2497 5.67472 12.1883L4.23678 11.8685C3.57818 11.7221 2.96651 12.2565 3.02324 12.9288L3.03032 13.0127C3.06555 13.4302 3.35735 13.7815 3.76133 13.8927L6.46112 14.636C6.89043 14.7542 7.24846 14.2946 7.02874 13.9073L6.32742 12.671Z" fill="black" fill-opacity="0.7"/>
<path d="M17.6987 12.671C17.8382 12.4251 18.0754 12.2497 18.3514 12.1883L19.7893 11.8685C20.4479 11.7221 21.0596 12.2565 21.0029 12.9288L20.9958 13.0127C20.9606 13.4302 20.6688 13.7815 20.2648 13.8927L17.565 14.636C17.1357 14.7542 16.7777 14.2946 16.9974 13.9073L17.6987 12.671Z" fill="black" fill-opacity="0.7"/>
<path d="M9.13477 15.5002H14.8996" stroke="black" stroke-opacity="0.7" stroke-width="1.3" stroke-linecap="round"/>
<path d="M6.99902 9.69067H16.9986" stroke="black" stroke-opacity="0.7" stroke-width="1.3" stroke-linecap="round"/>
<path d="M2.63623 7.05859L3.70163 7.18912" stroke="black" stroke-opacity="0.7" stroke-width="1.3" stroke-linecap="round"/>
<path d="M21.3623 6.99316L20.2969 7.12369" stroke="black" stroke-opacity="0.7" stroke-width="1.3" stroke-linecap="round"/>
</svg>
