<svg width="20" height="20" viewBox="0 0 20 20" fill="none" xmlns="http://www.w3.org/2000/svg">
<path fill-rule="evenodd" clip-rule="evenodd" d="M14.932 6.07512L14.8821 5.92259C14.8629 5.8918 14.8337 5.84756 14.793 5.79088C14.6815 5.63564 14.5272 5.44714 14.3583 5.26877C14.2533 5.15793 14.1588 5.068 14.0807 5H5.93025C5.8562 5.06625 5.76699 5.15291 5.6671 5.25974C5.49878 5.43974 5.34007 5.63414 5.21903 5.80056C5.15892 5.88323 5.11619 5.94788 5.08995 5.9908L5.08195 6.00407L5.02792 6.13613L3.1476 9H16.8524L14.932 6.07512ZM19 8.62692V14V17.3137C19 17.5425 18.9098 17.817 18.7744 18H16.2481C16.1128 17.817 16.0226 17.5425 16.0226 17.3137V15.9869H3.97744V17.3137C3.97744 17.5425 3.88722 17.817 3.75188 18H1.22556C1.09023 17.8627 1 17.634 1 17.4052V14V8.62692L3.25 5.2C3.475 4.65 4.825 3 5.5 3H14.5C15.175 3 16.57 4.65 16.75 5.2L19 8.62692ZM13.6667 13L13 11L17 10V13H13.6667ZM6.33333 13H3V10L7 11L6.33333 13Z" fill="black"/>
</svg>
