<svg width="24" height="24" viewBox="0 0 24 24" fill="none" xmlns="http://www.w3.org/2000/svg">
<path d="M18.35 9C18.35 10.1169 17.9539 11.4881 17.3107 12.9582C16.6727 14.4166 15.8165 15.9169 14.9516 17.276C14.088 18.6332 13.2232 19.8379 12.5738 20.7038C12.355 20.9954 12.161 21.2483 12 21.4552C11.839 21.2483 11.645 20.9954 11.4262 20.7038C10.7768 19.8379 9.91203 18.6332 9.04838 17.276C8.1835 15.9169 7.32729 14.4166 6.68925 12.9582C6.04607 11.4881 5.65 10.1169 5.65 9C5.65 5.49299 8.49299 2.65 12 2.65C15.507 2.65 18.35 5.49299 18.35 9Z" stroke="white" stroke-opacity="0.7" stroke-width="1.3"/>
<circle cx="12" cy="9" r="2.35" stroke="white" stroke-opacity="0.7" stroke-width="1.3"/>
</svg>
