<svg width="24" height="24" viewBox="0 0 24 24" fill="none" xmlns="http://www.w3.org/2000/svg">
<circle cx="12" cy="8" r="1.35" stroke="white" stroke-opacity="0.7" stroke-width="1.3"/>
<path d="M7.66516 16.5386H11.7977H16.3553" stroke="white" stroke-opacity="0.7" stroke-width="1.3" stroke-linecap="round" stroke-linejoin="round"/>
<path d="M8.71302 13.35C9.01563 11.8109 10.3722 10.65 12 10.65C13.6278 10.65 14.9844 11.8109 15.287 13.35H15.2804H15.2589H15.2374H15.216H15.1946H15.1733H15.152H15.1308H15.1097H15.0886H15.0675H15.0465H15.0256H15.0047H14.9839H14.9631H14.9424H14.9217H14.9011H14.8805H14.86H14.8395H14.8191H14.7987H14.7784H14.7582H14.738H14.7178H14.6977H14.6776H14.6576H14.6377H14.6178H14.5979H14.5781H14.5583H14.5386H14.519H14.4994H14.4798H14.4603H14.4408H14.4214H14.4021H14.3827H14.3635H14.3442H14.3251H14.3059H14.2868H14.2678H14.2488H14.2299H14.211H14.1921H14.1733H14.1546H14.1358H14.1172H14.0985H14.08H14.0614H14.0429H14.0245H14.0061H13.9877H13.9694H13.9512H13.9329H13.9147H13.8966H13.8785H13.8604H13.8424H13.8245H13.8065H13.7887H13.7708H13.753H13.7352H13.7175H13.6999H13.6822H13.6646H13.6471H13.6295H13.6121H13.5946H13.5772H13.5599H13.5426H13.5253H13.5081H13.4909H13.4737H13.4566H13.4395H13.4224H13.4054H13.3885H13.3715H13.3546H13.3378H13.321H13.3042H13.2874H13.2707H13.2541H13.2374H13.2208H13.2043H13.1877H13.1712H13.1548H13.1384H13.122H13.1056H13.0893H13.073H13.0568H13.0405H13.0244H13.0082H12.9921H12.976H12.96H12.944H12.928H12.912H12.8961H12.8802H12.8644H12.8486H12.8328H12.817H12.8013H12.7856H12.7699H12.7543H12.7387H12.7231H12.7076H12.6921H12.6766H12.6611H12.6457H12.6303H12.6149H12.5996H12.5843H12.569H12.5538H12.5386H12.5234H12.5082H12.4931H12.478H12.4629H12.4478H12.4328H12.4178H12.4028H12.3879H12.3729H12.3581H12.3432H12.3283H12.3135H12.2987H12.284H12.2692H12.2545H12.2398H12.2251H12.2105H12.1959H12.1813H12.1667H12.1522H12.1376H12.1231H12.1087H12.0942H12.0798H12.0654H12.051H12.0366H12.0223H12.0079H11.9936H11.9794H11.9651H11.9509H11.9366H11.9224H11.9083H11.8941H11.88H11.8659H11.8518H11.8377H11.8236H11.8096H11.7956H11.7816H11.7676H11.7536H11.7397H11.7258H11.7119H11.698H11.6841H11.6703H11.6564H11.6426H11.6288H11.615H11.6012H11.5875H11.5738H11.56H11.5463H11.5326H11.519H11.5053H11.4917H11.478H11.4644H11.4508H11.4372H11.4237H11.4101H11.3966H11.383H11.3695H11.356H11.3425H11.329H11.3156H11.3021H11.2887H11.2753H11.2619H11.2484H11.2351H11.2217H11.2083H11.195H11.1816H11.1683H11.1549H11.1416H11.1283H11.115H11.1017H11.0885H11.0752H11.062H11.0487H11.0355H11.0222H11.009H10.9958H10.9826H10.9694H10.9562H10.943H10.9299H10.9167H10.9035H10.8904H10.8772H10.8641H10.851H10.8379H10.8247H10.8116H10.7985H10.7854H10.7723H10.7592H10.7461H10.7331H10.72H10.7069H10.6938H10.6808H10.6677H10.6547H10.6416H10.6285H10.6155H10.6025H10.5894H10.5764H10.5633H10.5503H10.5373H10.5242H10.5112H10.4982H10.4852H10.4721H10.4591H10.4461H10.4331H10.4201H10.407H10.394H10.381H10.368H10.355H10.3419H10.3289H10.3159H10.3029H10.2898H10.2768H10.2638H10.2507H10.2377H10.2247H10.2116H10.1986H10.1856H10.1725H10.1595H10.1464H10.1333H10.1203H10.1072H10.0942H10.0811H10.068H10.0549H10.0418H10.0287H10.0157H10.0025H9.98944H9.97633H9.96321H9.95009H9.93695H9.92382H9.91067H9.89752H9.88436H9.8712H9.85803H9.84485H9.83166H9.81847H9.80526H9.79205H9.77883H9.7656H9.75237H9.73912H9.72586H9.7126H9.69933H9.68604H9.67275H9.65945H9.64613H9.63281H9.61947H9.60613H9.59277H9.5794H9.56603H9.55264H9.53923H9.52582H9.51239H9.49896H9.48551H9.47204H9.45857H9.44508H9.43158H9.41806H9.40454H9.39099H9.37744H9.36387H9.35028H9.33669H9.32307H9.30945H9.2958H9.28215H9.26847H9.25478H9.24108H9.22736H9.21363H9.19987H9.18611H9.17232H9.15852H9.1447H9.13087H9.11701H9.10314H9.08926H9.07535H9.06143H9.04749H9.03353H9.01955H9.00555H8.99154H8.9775H8.96345H8.94937H8.93528H8.92117H8.90703H8.89288H8.87871H8.86451H8.8503H8.83606H8.82181H8.80753H8.79323H8.77891H8.76457H8.7502H8.73581H8.72141H8.71302Z" stroke="white" stroke-opacity="0.7" stroke-width="1.3"/>
<rect x="3.65" y="2.65" width="16.7" height="17.7" rx="2.35" stroke="white" stroke-opacity="0.7" stroke-width="1.3"/>
</svg>
