<svg width="24" height="24" viewBox="0 0 24 24" fill="none" xmlns="http://www.w3.org/2000/svg">
<path fill-rule="evenodd" clip-rule="evenodd" d="M10.7803 5.99997L15.6535 4.98546C16.4823 4.81292 17.2712 5.27261 17.572 5.99997H18.93C18.5867 4.43729 17.0321 3.37059 15.3886 3.71274L4.38857 6.00273C2.99721 6.29239 2 7.51857 2 8.93976V8.99997C2 7.34312 3.34315 5.99997 5 5.99997H10.7803Z" fill="white" fill-opacity="0.7"/>
<path fill-rule="evenodd" clip-rule="evenodd" d="M19 7.3H5C4.06112 7.3 3.3 8.06112 3.3 9V17C3.3 17.9389 4.06112 18.7 5 18.7H19C19.9389 18.7 20.7 17.9389 20.7 17V9C20.7 8.06112 19.9389 7.3 19 7.3ZM5 6C3.34315 6 2 7.34315 2 9V17C2 18.6569 3.34315 20 5 20H19C20.6569 20 22 18.6569 22 17V9C22 7.34315 20.6569 6 19 6H5Z" fill="white" fill-opacity="0.7"/>
<circle cx="17" cy="13" r="1.35" stroke="white" stroke-opacity="0.7" stroke-width="1.3"/>
</svg>
