<svg width="24" height="24" viewBox="0 0 24 24" fill="none" xmlns="http://www.w3.org/2000/svg">
<path fill-rule="evenodd" clip-rule="evenodd" d="M4 6.3H20C20.3866 6.3 20.7 6.6134 20.7 7V8H3.3V7C3.3 6.6134 3.6134 6.3 4 6.3ZM2 11V8V7C2 5.89543 2.89543 5 4 5H20C21.1046 5 22 5.89543 22 7V17C22 18.1046 21.1046 19 20 19H4C2.89543 19 2 18.1046 2 17V11ZM3.3 11H20.7V17C20.7 17.3866 20.3866 17.7 20 17.7H4C3.6134 17.7 3.3 17.3866 3.3 17V11Z" fill="black" fill-opacity="0.7"/>
<rect x="5" y="14" width="7" height="2" rx="1" fill="black" fill-opacity="0.7"/>
</svg>
