<svg width="20" height="20" viewBox="0 0 20 20" fill="none" xmlns="http://www.w3.org/2000/svg">
<path fill-rule="evenodd" clip-rule="evenodd" d="M2.59645 3.77778C1.60209 4.07892 0.957727 4.96306 1.00216 5.90619C1.00073 5.93728 1 5.96855 1 6V16C1 17.1046 1.89543 18 3 18H17C18.1046 18 19 17.1046 19 16V6C19 4.89543 18.1046 4 17 4H15.9977V3.6C15.9977 2.66667 15.4373 2 14.7369 2H14.5501L2.59645 3.77778ZM17 6H3L3 16H17V6ZM13 13C14.1046 13 15 12.1046 15 11C15 9.89543 14.1046 9 13 9C11.8954 9 11 9.89543 11 11C11 12.1046 11.8954 13 13 13Z" fill="black"/>
</svg>
