<svg width="195" height="43" viewBox="0 0 195 43" fill="none" xmlns="http://www.w3.org/2000/svg">
<path d="M0.0205078 3.70288L14.2571 17.4795H14.1524V24.6882L20.7943 31.1156L27.1537 24.9617V17.6517L20.7944 23.8055L14.2571 17.4795H27.1538L27.1537 17.6517L41.5682 3.70288V19.7287L20.7944 39.8314L0.0205078 19.7287V3.70288Z" fill="#00A591"/>
<path d="M109.401 15.2933H119.704L113.265 7.01416H102.501L109.401 15.2933Z" fill="white" fill-opacity="0.7"/>
<path d="M137.276 7.01416L124.856 21.9172L124.856 35.9921H114.921V21.9171L126.512 7.01416H137.276Z" fill="white" fill-opacity="0.7"/>
<path d="M56.9648 7.0144H66.072L76.8353 17.7777L87.5986 7.0144H96.706V35.9924H87.5986L87.5986 18.6056L76.8353 29.3689L66.0722 18.6058V35.9924H56.9648V7.0144Z" fill="white" fill-opacity="0.7"/>
<path d="M193.576 7.0144H184.468V35.9924H193.576V7.0144Z" fill="white" fill-opacity="0.7"/>
<path d="M161.647 21.9174L175.722 35.9924H164.131L151.35 23.2119V35.9925H142.243V7.01442H151.35V20.6229L164.959 7.0144H176.55L161.647 21.9174Z" fill="white" fill-opacity="0.7"/>
</svg>
