<svg width="170" height="48" viewBox="0 0 170 48" fill="none" xmlns="http://www.w3.org/2000/svg">
<g clip-path="url(#clip0_8238_99859)">
<path d="M26.3973 0.876212C26.3973 0.392294 26.7896 0 27.2736 0C27.7575 0 28.1498 0.392294 28.1498 0.876212V9.58263C28.1498 10.0666 27.7575 10.4588 27.2736 10.4588C26.7896 10.4588 26.3973 10.0666 26.3973 9.58263V0.876212Z" fill="#0070C5"/>
<path d="M19.0392 2.31935C18.8897 1.85912 19.1415 1.3648 19.6018 1.21526C20.062 1.06572 20.5563 1.31759 20.7058 1.77782L23.3963 10.0581C23.5458 10.5184 23.2939 11.0127 22.8337 11.1622C22.3735 11.3118 21.8792 11.0599 21.7296 10.5996L19.0392 2.31935Z" fill="#0070C5"/>
<path d="M34.9452 1.21543C34.4849 1.06589 33.9906 1.31776 33.8411 1.77799L31.1506 10.0583C31.0011 10.5185 31.253 11.0128 31.7132 11.1624C32.1734 11.3119 32.6678 11.0601 32.8173 10.5998L35.5077 2.31952C35.6573 1.85929 35.4054 1.36497 34.9452 1.21543Z" fill="#0070C5"/>
<path d="M3.32348 25.7025C2.83956 25.7025 2.44727 25.3102 2.44727 24.8263C2.44727 24.3424 2.83956 23.9501 3.32348 23.9501H12.0299C12.5138 23.9501 12.9061 24.3424 12.9061 24.8263C12.9061 25.3102 12.5138 25.7025 12.0299 25.7025H3.32348Z" fill="#0070C5"/>
<path d="M41.6467 24.8263C41.6467 25.3102 42.039 25.7025 42.5229 25.7025H51.2231C51.707 25.7025 52.0993 25.3102 52.0993 24.8263C52.0993 24.3424 51.707 23.9501 51.2231 23.9501H42.5229C42.039 23.9501 41.6467 24.3424 41.6467 24.8263Z" fill="#0070C5"/>
<path d="M3.66241 17.1544C3.51287 17.6146 3.76474 18.109 4.22497 18.2585L12.5053 20.9489C12.9655 21.0985 13.4598 20.8466 13.6094 20.3864C13.7589 19.9261 13.507 19.4318 13.0468 19.2823L4.7665 16.5918C4.30627 16.4423 3.81195 16.6942 3.66241 17.1544Z" fill="#0070C5"/>
<path d="M41.5058 30.3718C41.0456 30.2222 40.7937 29.7279 40.9433 29.2677C41.0928 28.8075 41.5871 28.5556 42.0474 28.7051L50.3217 31.3936C50.782 31.5432 51.0338 32.0375 50.8843 32.4977C50.7348 32.958 50.2404 33.2098 49.7802 33.0603L41.5058 30.3718Z" fill="#0070C5"/>
<path d="M7.3826 11.4577C6.99111 11.1733 6.90432 10.6253 7.18876 10.2338C7.4732 9.8423 8.02116 9.75551 8.41265 10.04L15.4563 15.1575C15.8478 15.4419 15.9346 15.9899 15.6501 16.3814C15.3657 16.7729 14.8177 16.8596 14.4262 16.5752L7.3826 11.4577Z" fill="#0070C5"/>
<path d="M38.9018 33.2746C38.6173 33.6661 38.7041 34.2141 39.0956 34.4985L46.1342 39.6124C46.5257 39.8968 47.0737 39.81 47.3581 39.4185C47.6425 39.027 47.5557 38.4791 47.1642 38.1946L40.1257 33.0808C39.7342 32.7964 39.1862 32.8831 38.9018 33.2746Z" fill="#0070C5"/>
<path d="M12.6809 4.74139C12.2895 5.02583 12.2027 5.57379 12.4871 5.96529L17.6046 13.0089C17.889 13.4004 18.437 13.4872 18.8285 13.2028C19.22 12.9183 19.3068 12.3704 19.0223 11.9789L13.9048 4.93524C13.6204 4.54374 13.0724 4.45695 12.6809 4.74139Z" fill="#0070C5"/>
<path d="M35.528 37.6783C35.2435 37.2868 35.3303 36.7388 35.7218 36.4544C36.1133 36.17 36.6613 36.2567 36.9457 36.6482L42.0595 43.6868C42.344 44.0783 42.2572 44.6263 41.8657 44.9107C41.4742 45.1952 40.9262 45.1084 40.6418 44.7169L35.528 37.6783Z" fill="#0070C5"/>
<path d="M50.8844 17.1544C51.034 17.6146 50.7821 18.109 50.3219 18.2585L42.0416 20.9489C41.5813 21.0985 41.087 20.8466 40.9375 20.3864C40.7879 19.9261 41.0398 19.4318 41.5 19.2823L49.7803 16.5918C50.2406 16.4423 50.7349 16.6942 50.8844 17.1544Z" fill="#0070C5"/>
<path d="M13.041 30.3718C13.5012 30.2222 13.7531 29.7279 13.6035 29.2677C13.454 28.8075 12.9597 28.5556 12.4995 28.7051L4.2251 31.3936C3.76487 31.5432 3.513 32.0375 3.66254 32.4977C3.81208 32.958 4.3064 33.2098 4.76663 33.0603L13.041 30.3718Z" fill="#0070C5"/>
<path d="M47.1642 11.4577C47.5557 11.1733 47.6425 10.6253 47.3581 10.2338C47.0736 9.8423 46.5257 9.75551 46.1342 10.04L39.0905 15.1575C38.699 15.4419 38.6123 15.9899 38.8967 16.3814C39.1811 16.7729 39.7291 16.8596 40.1206 16.5752L47.1642 11.4577Z" fill="#0070C5"/>
<path d="M15.6451 33.2746C15.9295 33.6661 15.8427 34.2141 15.4512 34.4985L8.41264 39.6124C8.02114 39.8968 7.47318 39.81 7.18874 39.4185C6.9043 39.027 6.99109 38.4791 7.38259 38.1946L14.4212 33.0808C14.8127 32.7964 15.3606 32.8831 15.6451 33.2746Z" fill="#0070C5"/>
<path d="M41.8659 4.74139C42.2574 5.02583 42.3442 5.57379 42.0597 5.96529L36.9422 13.0089C36.6578 13.4004 36.1098 13.4872 35.7183 13.2028C35.3268 12.9183 35.24 12.3704 35.5245 11.9789L40.642 4.93524C40.9264 4.54374 41.4744 4.45695 41.8659 4.74139Z" fill="#0070C5"/>
<path d="M19.0189 37.6783C19.3033 37.2868 19.2165 36.7388 18.825 36.4544C18.4335 36.17 17.8856 36.2567 17.6011 36.6482L12.4873 43.6868C12.2029 44.0783 12.2897 44.6263 12.6812 44.9107C13.0727 45.1952 13.6206 45.1084 13.9051 44.7169L19.0189 37.6783Z" fill="#0070C5"/>
<path d="M27.2744 18.5898C23.8297 18.5898 21.0372 21.3824 21.0372 24.8271C21.0372 27.3537 22.5395 29.5313 24.7034 30.5117L25.4239 30.8382L19.8733 47.402C19.7195 47.8608 19.2229 48.1081 18.7641 47.9544C18.3052 47.8006 18.0579 47.304 18.2117 46.8451L23.2723 31.7435C20.8895 30.3618 19.2848 27.7826 19.2848 24.8271C19.2848 20.4145 22.8619 16.8374 27.2744 16.8374C31.687 16.8374 35.2641 20.4145 35.2641 24.8271C35.2641 27.7869 33.6548 30.3692 31.2662 31.7495L36.067 46.8582C36.2136 47.3194 35.9585 47.8121 35.4973 47.9586C35.0361 48.1052 34.5435 47.8501 34.3969 47.3889L29.1363 30.8331L29.8455 30.5117C32.0094 29.5313 33.5117 27.3537 33.5117 24.8271C33.5117 21.3824 30.7192 18.5898 27.2744 18.5898Z" fill="#0070C5"/>
<path d="M69.026 15.7087V34.0001H66.3485V15.7087H59.7676V13.4822H75.621V15.7087H69.026Z" fill="#0070C5"/>
<path d="M79.8063 34.0001V23.16C79.9894 22.7335 80.229 22.3636 80.525 22.0501C80.8444 21.7119 81.2343 21.4488 81.6946 21.2609C82.155 21.073 82.6858 20.9791 83.287 20.9791C83.5313 20.9791 83.7474 20.9885 83.9353 21.0073C84.1326 21.0167 84.3392 21.0449 84.5553 21.0918L84.5694 18.668C84.4755 18.621 84.3064 18.5788 84.0621 18.5412C83.8178 18.4942 83.6018 18.4707 83.4139 18.4707C82.5871 18.4707 81.8731 18.6492 81.2719 19.0062C80.68 19.3538 80.1915 19.8423 79.8063 20.4718L79.7873 20.5026L79.7359 18.7526H77.1993V34.0001H79.8063Z" fill="#0070C5"/>
<path d="M96.3805 32.4916C95.935 33.0214 95.3754 33.4444 94.7015 33.7605C93.9405 34.1081 93.0152 34.2819 91.9254 34.2819C91.1832 34.2819 90.5021 34.1739 89.8821 33.9578C89.2714 33.7417 88.7453 33.4082 88.3038 32.9572C87.8622 32.5063 87.5193 31.9191 87.2751 31.1958C87.0402 30.4724 86.9228 29.6034 86.9228 28.5887V18.7526H89.5298V28.6169C89.5298 29.3027 89.6049 29.8711 89.7552 30.3221C89.9149 30.7636 90.1263 31.1159 90.3894 31.379C90.6618 31.6326 90.9624 31.8111 91.2913 31.9144C91.6295 32.0178 91.9771 32.0695 92.3341 32.0695C93.4426 32.0695 94.321 31.8581 94.9693 31.4353C95.576 31.0308 96.0222 30.4988 96.308 29.8391V18.7526H98.9291V34.0001H96.4348L96.3805 32.4916Z" fill="#0070C5"/>
<path fill-rule="evenodd" clip-rule="evenodd" d="M109.23 34.2819C108.169 34.2819 107.206 34.1034 106.341 33.7464C105.487 33.38 104.749 32.868 104.129 32.2104C103.518 31.5528 103.049 30.773 102.72 29.8711C102.391 28.9692 102.227 27.9828 102.227 26.9118V26.3199C102.227 25.0798 102.41 23.976 102.776 23.0083C103.143 22.0313 103.641 21.2046 104.27 20.5282C104.899 19.8517 105.613 19.3397 106.412 18.9921C107.21 18.6445 108.037 18.4707 108.892 18.4707C109.982 18.4707 110.921 18.6586 111.71 19.0344C112.509 19.4102 113.162 19.9363 113.669 20.6127C114.177 21.2797 114.552 22.0689 114.797 22.9802C115.041 23.882 115.163 24.8685 115.163 25.9395V27.1091H104.85C104.867 27.7593 104.964 28.3747 105.144 28.9551C105.35 29.5846 105.646 30.1389 106.031 30.618C106.426 31.0971 106.9 31.4729 107.455 31.7453C108.018 32.0178 108.657 32.154 109.371 32.154C110.292 32.154 111.072 31.9661 111.71 31.5903C112.349 31.2145 112.908 30.7119 113.387 30.0825L114.966 31.3367C114.637 31.8346 114.219 32.309 113.712 32.76C113.204 33.2109 112.579 33.5773 111.837 33.8591C111.105 34.141 110.236 34.2819 109.23 34.2819ZM105.144 23.882C105.048 24.2231 104.976 24.5895 104.926 24.9812H112.556V24.7839C112.518 24.1075 112.378 23.4499 112.133 22.811C111.898 22.1722 111.523 21.6461 111.006 21.2327C110.489 20.8194 109.785 20.6127 108.892 20.6127C108.3 20.6127 107.755 20.7395 107.257 20.9932C106.76 21.2374 106.332 21.6038 105.975 22.0924C105.618 22.5809 105.341 23.1774 105.144 23.882Z" fill="#0070C5"/>
<path d="M128.48 23.6009V13.4822H125.76V34.0001H128.48V27.0594L130.995 24.4486L138.246 34.0001H141.487L132.799 22.5363L140.867 13.4822H137.597L130.706 21.1482L128.48 23.6009Z" fill="#0070C5"/>
<path fill-rule="evenodd" clip-rule="evenodd" d="M149.449 34.2819C148.387 34.2819 147.424 34.1034 146.56 33.7464C145.705 33.38 144.967 32.868 144.347 32.2104C143.737 31.5528 143.267 30.773 142.938 29.8711C142.609 28.9692 142.445 27.9828 142.445 26.9118V26.3199C142.445 25.0798 142.628 23.976 142.995 23.0083C143.361 22.0313 143.859 21.2046 144.488 20.5282C145.118 19.8517 145.832 19.3397 146.63 18.9921C147.429 18.6445 148.256 18.4707 149.111 18.4707C150.2 18.4707 151.14 18.6586 151.929 19.0344C152.727 19.4102 153.38 19.9363 153.888 20.6127C154.395 21.2797 154.771 22.0689 155.015 22.9802C155.259 23.882 155.381 24.8685 155.381 25.9395V27.1091H145.069C145.085 27.7593 145.183 28.3747 145.362 28.9551C145.569 29.5846 145.865 30.1389 146.25 30.618C146.644 31.0971 147.119 31.4729 147.673 31.7453C148.237 32.0178 148.876 32.154 149.59 32.154C150.51 32.154 151.29 31.9661 151.929 31.5903C152.568 31.2145 153.127 30.7119 153.606 30.0825L155.184 31.3367C154.855 31.8346 154.437 32.309 153.93 32.76C153.423 33.2109 152.798 33.5773 152.056 33.8591C151.323 34.141 150.454 34.2819 149.449 34.2819ZM145.362 23.882C145.267 24.2231 145.194 24.5895 145.145 24.9812H152.774V24.7839C152.737 24.1075 152.596 23.4499 152.352 22.811C152.117 22.1722 151.741 21.6461 151.224 21.2327C150.708 20.8194 150.003 20.6127 149.111 20.6127C148.519 20.6127 147.974 20.7395 147.476 20.9932C146.978 21.2374 146.55 21.6038 146.193 22.0924C145.836 22.5809 145.559 23.1774 145.362 23.882Z" fill="#0070C5"/>
<path d="M161.994 33.8356L156.551 18.7526H159.398L163.214 30.1602L166.754 18.7526H169.544L163.428 36.3534C163.287 36.7292 163.099 37.1332 162.864 37.5653C162.639 38.0069 162.348 38.4249 161.991 38.8195C161.634 39.2141 161.201 39.5335 160.694 39.7777C160.196 40.0314 159.6 40.1582 158.904 40.1582C158.698 40.1582 158.435 40.13 158.115 40.0737C157.796 40.0173 157.57 39.9703 157.439 39.9328L157.425 37.819C157.5 37.8284 157.617 37.8378 157.777 37.8472C157.946 37.8659 158.064 37.8753 158.129 37.8753C158.721 37.8753 159.224 37.7955 159.637 37.6358C160.051 37.4855 160.398 37.2271 160.68 36.8607C160.971 36.5037 161.22 36.0105 161.427 35.3811L161.994 33.8356Z" fill="#0070C5"/>
</g>
<defs>
<clipPath id="clip0_8238_99859">
<rect width="169" height="48" fill="white" transform="translate(0.996094)"/>
</clipPath>
</defs>
</svg>
