<svg width="212" height="48" viewBox="0 0 212 48" fill="none" xmlns="http://www.w3.org/2000/svg">
<path fill-rule="evenodd" clip-rule="evenodd" d="M11.8249 11.7017V34.1035C11.8249 34.8034 11.8688 34.9344 12.5267 34.9777L16.1207 35.2843V38.7407H0.735749V35.2849L4.50464 34.9783C5.11867 34.9344 5.20639 34.7595 5.20639 34.1035V18.9968C5.20639 18.3698 4.73295 18.4738 1.4381 19.5854L0.222656 15.998L7.75263 11.7017H11.8249ZM26.3526 11.837H28.9397C32.0507 11.837 34.6372 12.5801 34.6372 16.7802C34.6372 21.7233 31.4378 22.3793 28.5449 22.3793H26.3526V11.837ZM29.5525 27.0597H26.3526V34.0597C26.3526 34.7601 26.397 34.8472 27.0549 34.9344L33.3226 35.2843V38.7401H16.14V35.2843L18.9013 34.9777C19.5141 34.8911 19.603 34.7601 19.603 34.1035V11.7498C19.603 11.0939 19.5147 10.9183 18.9013 10.8744L16.14 10.5684V7.06874H30.9992C39.109 7.06874 41.5627 11.356 41.5627 16.3864C41.5627 23.9977 36.9611 27.0603 29.5525 27.0603V27.0597ZM54.1046 32.9666C53.0971 33.7098 51.6065 34.5418 50.1159 34.5418C48.6697 34.5418 47.6177 33.8853 47.6177 32.1352C47.6177 30.3856 48.5381 29.7291 51.1234 29.5548L54.1046 29.3359V32.9673V32.9666ZM74.2547 24.6116C77.7171 25.3986 81.6188 26.6238 81.6188 31.742C81.6188 37.0784 77.2797 39.2662 71.7126 39.2662C68.1078 39.2662 64.5834 38.41 63.3541 37.8569V38.7407H55.2882L54.8496 36.3785L54.6304 36.3353C52.9649 37.9537 50.7731 39.2662 47.2662 39.2662C41.7441 39.2662 40.8664 35.5044 40.8664 32.7911C40.8664 28.4173 43.585 26.405 49.0638 26.0551L54.1046 25.7052V23.2991C54.1046 21.243 53.8859 19.8433 51.1673 19.8433C49.0644 19.8433 47.968 20.1494 47.968 22.7743L41.7868 22.2488C41.7868 16.3437 47.1791 15.5116 51.2117 15.5116C57.8747 15.5116 60.5483 17.3062 60.5483 23.4302V34.0603C60.5483 34.7601 60.5922 34.8478 61.2495 34.935L63.0333 35.2314V31.3476L67.7232 31.6981L68.1618 34.1913C68.2051 34.5851 68.294 34.7601 68.6881 34.8472C69.2138 35.0228 70.3974 35.2849 72.0635 35.2849C74.3862 35.2849 75.7008 34.6296 75.7008 33.0105C75.7008 31.261 73.9476 30.7355 71.7126 30.3417C68.0308 29.6858 63.2087 28.8988 63.2087 23.1681C63.2087 17.7433 67.8548 15.5116 72.8956 15.5116C76.3581 15.5116 79.7335 16.2998 80.9615 16.7802V23.1236L76.271 22.8181L75.8324 20.5426C75.7891 20.1926 75.7008 20.0183 75.395 19.9305C74.8248 19.7562 73.7728 19.5806 72.5892 19.5806C70.3974 19.5806 69.17 20.4115 69.17 21.8111C69.17 23.6051 71.581 23.9983 74.2547 24.6116ZM201.64 32.2229C200.456 33.2294 198.834 34.1041 197.344 34.1041C194.582 34.1041 193.355 31.7414 193.355 27.4986C193.355 23.6051 194.626 20.5864 197.871 20.5864C199.141 20.5864 200.544 21.1552 201.64 21.8995V32.2229ZM208.916 34.9789L211.019 35.2855V38.7413H202.866L202.429 36.2914L202.122 36.2469C200.281 38.0409 198.133 39.2656 194.933 39.2656C189.761 39.2656 186.43 35.9847 186.43 27.6297C186.43 18.8369 190.856 15.5122 195.722 15.5122C198.265 15.5122 200.237 16.387 201.903 17.6122V10.9622C201.903 10.5245 201.727 10.2185 201.333 10.0874L198.922 9.25596L199.404 5.7124H208.215V34.1468C208.215 34.8034 208.259 34.8911 208.916 34.9783V34.9789ZM135.102 19.7988C134.489 19.886 134.226 20.1055 134.051 20.6736L128.659 38.7401H121.733L118.314 24.0867H118.052L114.588 38.7407H106.698L101.175 20.6309C101 20.1055 100.78 20.0177 100.254 19.8866L99.8282 19.7958V23.1236L95.1383 22.8181L94.6997 20.5426C94.6564 20.1926 94.5681 20.0183 94.2623 19.9305C93.6915 19.7562 92.6401 19.5806 91.4565 19.5806C89.2647 19.5806 88.0367 20.4115 88.0367 21.8111C88.0367 23.6051 90.4483 23.9995 93.1219 24.6116C96.5844 25.3986 100.486 26.6238 100.486 31.742C100.486 37.079 96.147 39.2662 90.5793 39.2662C86.5905 39.2662 82.6895 38.2159 81.9 37.691V31.3482L86.5905 31.6981L87.0291 34.1913C87.0724 34.5851 87.1613 34.7601 87.5554 34.8472C88.0811 35.0228 89.2647 35.2849 90.9308 35.2849C93.2529 35.2849 94.5681 34.6296 94.5681 33.0105C94.5681 31.261 92.8149 30.7355 90.5793 30.3417C86.8975 29.6858 82.076 28.8988 82.076 23.1681C82.076 17.7433 86.7221 15.5116 91.7629 15.5116C94.6258 15.5116 97.4262 16.0503 99.0051 16.509L99.1156 15.9499H110.205V19.5806L107.75 19.8433L111.257 32.1352H111.564L115.464 16.518H122.084L125.854 32.1352H126.117L129.404 19.8433L126.906 19.5806L127.475 15.9499H136.681V17.2395C136.134 18.0436 135.652 18.8907 135.241 19.7724L135.102 19.7995V19.7988ZM180.427 20.8925C179.288 20.8925 177.93 21.8544 177.272 22.4238V34.0158C177.272 34.7156 177.316 34.8466 177.974 34.8911L182.313 35.2404V38.7407H167.978V35.1972L169.952 34.9344C170.565 34.8466 170.653 34.7156 170.653 34.0597V21.2418C170.653 20.7608 170.521 20.4548 170.084 20.3237L167.975 19.5842C167.908 19.4411 167.832 19.3028 167.761 19.1634L168.199 15.9493H175.913L176.439 19.4483H176.702C178.148 17.2178 180.077 15.5116 182.883 15.5116C183.89 15.5116 185.907 15.6865 186.696 15.9054V23.8673L181.437 23.6923L180.998 21.3734C180.91 20.9796 180.779 20.8925 180.427 20.8925Z" fill="#4E5F89"/>
<path fill-rule="evenodd" clip-rule="evenodd" d="M151.539 12.6458C159.503 12.6458 165.958 19.1058 165.958 27.0749C165.958 35.044 159.503 41.5041 151.539 41.5041C143.575 41.5041 137.119 35.044 137.119 27.0749C137.119 19.1058 143.575 12.6458 151.539 12.6458Z" fill="#198CFF"/>
<path fill-rule="evenodd" clip-rule="evenodd" d="M133.515 27.0748C133.515 17.1132 141.584 9.03833 151.539 9.03833C161.494 9.03833 169.563 17.1132 169.563 27.0748C169.563 37.0369 161.494 45.1112 151.539 45.1112C141.584 45.1112 133.515 37.0369 133.515 27.0748ZM137.119 27.0748C137.119 35.0439 143.575 41.5039 151.539 41.5039C159.503 41.5039 165.958 35.0439 165.958 27.0748C165.958 19.1057 159.503 12.6456 151.539 12.6456C143.575 12.6456 137.119 19.1057 137.119 27.0748Z" fill="white"/>
<path opacity="0.5" d="M132.914 27.0749C132.914 37.3683 141.253 45.7126 151.539 45.7126C161.825 45.7126 170.164 37.3683 170.164 27.0749C170.164 16.7821 161.825 8.43726 151.539 8.43726C141.253 8.43726 132.914 16.7821 132.914 27.0749ZM133.515 27.0749C133.515 17.1146 141.584 9.03847 151.539 9.03847C161.494 9.03847 169.563 17.1146 169.563 27.0749C169.563 37.0353 161.494 45.1114 151.539 45.1114C141.584 45.1114 133.515 37.0353 133.515 27.0749ZM137.72 27.0737C137.72 34.7104 143.907 40.9005 151.539 40.9005C159.17 40.9005 165.358 34.7104 165.358 27.0737C165.358 19.4377 159.17 13.247 151.539 13.247C143.907 13.247 137.72 19.4377 137.72 27.0737ZM137.119 27.0749C137.119 19.107 143.575 12.6458 151.539 12.6458C159.503 12.6458 165.958 19.107 165.958 27.0749C165.958 35.0428 159.504 41.5041 151.539 41.5041C143.574 41.5041 137.119 35.0428 137.119 27.0749Z" fill="black"/>
<path fill-rule="evenodd" clip-rule="evenodd" d="M157.739 42.1522C163.224 39.8129 167.069 34.3803 167.069 28.0501C167.069 19.5838 160.192 12.7203 151.709 12.7203C143.226 12.7203 136.35 19.5838 136.35 28.0501C136.35 36.4912 143.186 43.3372 151.634 43.3775C151.608 43.3781 151.583 43.3799 151.557 43.3799C142.654 43.3799 135.437 36.1767 135.437 27.2914C135.437 18.406 142.654 11.2029 151.557 11.2029C160.46 11.2029 167.677 18.406 167.677 27.2914C167.677 33.9907 163.573 39.7311 157.739 42.1522ZM151.246 43.5603C161.191 43.5603 169.253 35.5142 169.253 25.5893C169.253 24.6635 169.182 23.7544 169.047 22.8664C169.382 24.236 169.563 25.6657 169.563 27.1381C169.563 37.0641 161.501 45.109 151.556 45.109C142.538 45.109 135.069 38.4938 133.755 29.861C135.676 37.7231 142.776 43.5603 151.246 43.5603Z" fill="black" fill-opacity="0.1"/>
<path fill-rule="evenodd" clip-rule="evenodd" d="M151.539 16.2529C157.512 16.2529 162.354 21.0981 162.354 27.0748C162.354 33.0514 157.512 37.8966 151.539 37.8966C145.566 37.8966 140.724 33.0514 140.724 27.0748C140.724 21.0981 145.566 16.2529 151.539 16.2529Z" fill="#F2F2F2"/>
<path d="M151.539 16.2531C145.566 16.2531 140.724 21.0983 140.724 27.0749C140.724 33.0516 145.566 37.8968 151.539 37.8968C157.512 37.8968 162.354 33.0516 162.354 27.0749C162.354 21.0983 157.512 16.2531 151.539 16.2531ZM151.539 15.6519C157.843 15.6519 162.954 20.7664 162.954 27.0749C162.954 33.3841 157.843 38.498 151.539 38.498C145.235 38.498 140.123 33.3841 140.123 27.0749C140.123 20.7664 145.235 15.6519 151.539 15.6519Z" fill="black" fill-opacity="0.25"/>
<path fill-rule="evenodd" clip-rule="evenodd" d="M156.345 27.0748C156.345 28.3504 155.839 29.5738 154.938 30.4758C154.036 31.3777 152.814 31.8845 151.539 31.8845C150.264 31.8845 149.042 31.3777 148.14 30.4758C147.239 29.5738 146.732 28.3504 146.732 27.0748C146.732 25.7992 147.239 24.5758 148.14 23.6738C149.042 22.7718 150.264 22.2651 151.539 22.2651C152.814 22.2651 154.036 22.7718 154.938 23.6738C155.839 24.5758 156.345 25.7992 156.345 27.0748Z" fill="black" fill-opacity="0.05"/>
<path d="M155.745 27.0748C155.745 25.9586 155.301 24.8882 154.513 24.0989C153.724 23.3097 152.654 22.8663 151.539 22.8663C150.423 22.8663 149.354 23.3097 148.565 24.0989C147.776 24.8882 147.333 25.9586 147.333 27.0748C147.333 28.1909 147.776 29.2614 148.565 30.0506C149.354 30.8399 150.423 31.2833 151.539 31.2833C152.654 31.2833 153.724 30.8399 154.513 30.0506C155.301 29.2614 155.745 28.1909 155.745 27.0748ZM156.345 27.0748C156.345 28.3504 155.839 29.5738 154.938 30.4758C154.036 31.3777 152.814 31.8845 151.539 31.8845C150.264 31.8845 149.042 31.3777 148.14 30.4758C147.239 29.5738 146.732 28.3504 146.732 27.0748C146.732 25.7992 147.239 24.5758 148.14 23.6738C149.042 22.7718 150.264 22.2651 151.539 22.2651C152.814 22.2651 154.036 22.7718 154.938 23.6738C155.839 24.5758 156.345 25.7992 156.345 27.0748Z" fill="black" fill-opacity="0.15"/>
<path d="M156.345 27.0747C156.345 25.7991 155.839 24.5758 154.938 23.6738C154.036 22.7718 152.814 22.265 151.539 22.265C150.264 22.265 149.042 22.7718 148.14 23.6738C147.239 24.5758 146.732 25.7991 146.732 27.0747C146.732 28.3504 147.239 29.5737 148.14 30.4757C149.042 31.3777 150.264 31.8845 151.539 31.8845C152.814 31.8845 154.036 31.3777 154.938 30.4757C155.839 29.5737 156.345 28.3504 156.345 27.0747ZM156.946 27.0747C156.946 28.5098 156.377 29.8861 155.362 30.9008C154.348 31.9156 152.973 32.4857 151.539 32.4857C150.105 32.4857 148.729 31.9156 147.715 30.9008C146.701 29.8861 146.132 28.5098 146.132 27.0747C146.132 25.6397 146.701 24.2634 147.715 23.2486C148.729 22.2339 150.105 21.6638 151.539 21.6638C152.973 21.6638 154.348 22.2339 155.362 23.2486C156.377 24.2634 156.946 25.6397 156.946 27.0747Z" fill="white"/>
<path fill-rule="evenodd" clip-rule="evenodd" d="M149.136 24.8853V19.8604H153.942V28.2353L152.741 29.3511L153.942 30.467V35.492H149.136V27.1176L150.337 26.0012L149.136 24.8853Z" fill="white"/>
<path fill-rule="evenodd" clip-rule="evenodd" d="M149.136 24.2839V19.259H153.942V27.6339L152.741 28.7498L153.942 29.8656V34.8906H149.136V26.5162L150.337 25.3998L149.136 24.2839Z" fill="#4D4D4D"/>
<path fill-rule="evenodd" clip-rule="evenodd" d="M149.737 24.7991V20.4614H153.341V27.8912L152.44 28.9211V29.5271L153.341 30.6748V34.8905H149.737V27.4475L150.638 26.4392V25.8296L149.737 24.7991Z" fill="#808080"/>
</svg>
