<svg width="169" height="48" viewBox="0 0 169 48" fill="none" xmlns="http://www.w3.org/2000/svg">
<g clip-path="url(#clip0_8238_100567)">
<path d="M25.4013 0.876212C25.4013 0.392294 25.7935 0 26.2775 0C26.7614 0 27.1537 0.392294 27.1537 0.876212V9.58263C27.1537 10.0666 26.7614 10.4588 26.2775 10.4588C25.7935 10.4588 25.4013 10.0666 25.4013 9.58263V0.876212Z" fill="#1C86D7"/>
<path d="M18.0431 2.31935C17.8936 1.85912 18.1454 1.3648 18.6057 1.21526C19.0659 1.06572 19.5602 1.31759 19.7098 1.77782L22.4002 10.0581C22.5497 10.5184 22.2979 11.0127 21.8376 11.1622C21.3774 11.3118 20.8831 11.0599 20.7335 10.5996L18.0431 2.31935Z" fill="#1C86D7"/>
<path d="M33.9491 1.21543C33.4888 1.06589 32.9945 1.31776 32.845 1.77799L30.1545 10.0583C30.005 10.5185 30.2569 11.0128 30.7171 11.1624C31.1773 11.3119 31.6717 11.0601 31.8212 10.5998L34.5116 2.31952C34.6612 1.85929 34.4093 1.36497 33.9491 1.21543Z" fill="#1C86D7"/>
<path d="M2.32738 25.7025C1.84347 25.7025 1.45117 25.3102 1.45117 24.8263C1.45117 24.3424 1.84347 23.9501 2.32738 23.9501H11.0338C11.5177 23.9501 11.91 24.3424 11.91 24.8263C11.91 25.3102 11.5177 25.7025 11.0338 25.7025H2.32738Z" fill="#1C86D7"/>
<path d="M40.6506 24.8263C40.6506 25.3102 41.0429 25.7025 41.5268 25.7025H50.227C50.7109 25.7025 51.1032 25.3102 51.1032 24.8263C51.1032 24.3424 50.7109 23.9501 50.227 23.9501H41.5268C41.0429 23.9501 40.6506 24.3424 40.6506 24.8263Z" fill="#1C86D7"/>
<path d="M2.66632 17.1544C2.51678 17.6146 2.76865 18.109 3.22888 18.2585L11.5092 20.9489C11.9694 21.0985 12.4637 20.8466 12.6133 20.3864C12.7628 19.9261 12.5109 19.4318 12.0507 19.2823L3.77041 16.5918C3.31017 16.4423 2.81586 16.6942 2.66632 17.1544Z" fill="#1C86D7"/>
<path d="M40.5098 30.3718C40.0495 30.2222 39.7977 29.7279 39.9472 29.2677C40.0967 28.8075 40.591 28.5556 41.0513 28.7051L49.3256 31.3936C49.7859 31.5432 50.0377 32.0375 49.8882 32.4977C49.7387 32.958 49.2443 33.2098 48.7841 33.0603L40.5098 30.3718Z" fill="#1C86D7"/>
<path d="M6.38651 11.4577C5.99501 11.1733 5.90822 10.6253 6.19266 10.2338C6.4771 9.8423 7.02506 9.75551 7.41656 10.04L14.4602 15.1575C14.8517 15.4419 14.9385 15.9899 14.654 16.3814C14.3696 16.7729 13.8216 16.8596 13.4302 16.5752L6.38651 11.4577Z" fill="#1C86D7"/>
<path d="M37.9057 33.2746C37.6212 33.6661 37.708 34.2141 38.0995 34.4985L45.1381 39.6124C45.5296 39.8968 46.0776 39.81 46.362 39.4185C46.6464 39.027 46.5597 38.4791 46.1681 38.1946L39.1296 33.0808C38.7381 32.7964 38.1901 32.8831 37.9057 33.2746Z" fill="#1C86D7"/>
<path d="M11.6849 4.74139C11.2934 5.02583 11.2066 5.57379 11.491 5.96529L16.6085 13.0089C16.893 13.4004 17.4409 13.4872 17.8324 13.2028C18.2239 12.9183 18.3107 12.3704 18.0263 11.9789L12.9088 4.93524C12.6243 4.54374 12.0764 4.45695 11.6849 4.74139Z" fill="#1C86D7"/>
<path d="M34.5319 37.6783C34.2474 37.2868 34.3342 36.7388 34.7257 36.4544C35.1172 36.17 35.6652 36.2567 35.9496 36.6482L41.0634 43.6868C41.3479 44.0783 41.2611 44.6263 40.8696 44.9107C40.4781 45.1952 39.9301 45.1084 39.6457 44.7169L34.5319 37.6783Z" fill="#1C86D7"/>
<path d="M49.8883 17.1544C50.0379 17.6146 49.786 18.109 49.3258 18.2585L41.0455 20.9489C40.5852 21.0985 40.0909 20.8466 39.9414 20.3864C39.7918 19.9261 40.0437 19.4318 40.5039 19.2823L48.7842 16.5918C49.2445 16.4423 49.7388 16.6942 49.8883 17.1544Z" fill="#1C86D7"/>
<path d="M12.0449 30.3718C12.5051 30.2222 12.757 29.7279 12.6075 29.2677C12.4579 28.8075 11.9636 28.5556 11.5034 28.7051L3.22901 31.3936C2.76877 31.5432 2.51691 32.0375 2.66645 32.4977C2.81599 32.958 3.3103 33.2098 3.77054 33.0603L12.0449 30.3718Z" fill="#1C86D7"/>
<path d="M46.1681 11.4577C46.5596 11.1733 46.6464 10.6253 46.362 10.2338C46.0775 9.8423 45.5296 9.75551 45.1381 10.04L38.0944 15.1575C37.7029 15.4419 37.6162 15.9899 37.9006 16.3814C38.185 16.7729 38.733 16.8596 39.1245 16.5752L46.1681 11.4577Z" fill="#1C86D7"/>
<path d="M14.649 33.2746C14.9334 33.6661 14.8466 34.2141 14.4551 34.4985L7.41654 39.6124C7.02504 39.8968 6.47709 39.81 6.19265 39.4185C5.90821 39.027 5.995 38.4791 6.3865 38.1946L13.4251 33.0808C13.8166 32.7964 14.3645 32.8831 14.649 33.2746Z" fill="#1C86D7"/>
<path d="M40.8698 4.74139C41.2613 5.02583 41.3481 5.57379 41.0636 5.96529L35.9461 13.0089C35.6617 13.4004 35.1137 13.4872 34.7222 13.2028C34.3307 12.9183 34.2439 12.3704 34.5284 11.9789L39.6459 4.93524C39.9303 4.54374 40.4783 4.45695 40.8698 4.74139Z" fill="#1C86D7"/>
<path d="M18.0228 37.6783C18.3072 37.2868 18.2204 36.7388 17.8289 36.4544C17.4374 36.17 16.8895 36.2567 16.605 36.6482L11.4912 43.6868C11.2068 44.0783 11.2936 44.6263 11.6851 44.9107C12.0766 45.1952 12.6245 45.1084 12.909 44.7169L18.0228 37.6783Z" fill="#1C86D7"/>
<path d="M26.2784 18.5898C22.8336 18.5898 20.0411 21.3824 20.0411 24.8271C20.0411 27.3537 21.5434 29.5313 23.7073 30.5117L24.4278 30.8382L18.8772 47.402C18.7234 47.8608 18.2268 48.1081 17.768 47.9544C17.3091 47.8006 17.0618 47.304 17.2156 46.8451L22.2762 31.7435C19.8934 30.3618 18.2887 27.7826 18.2887 24.8271C18.2887 20.4145 21.8658 16.8374 26.2784 16.8374C30.6909 16.8374 34.268 20.4145 34.268 24.8271C34.268 27.7869 32.6587 30.3692 30.2701 31.7495L35.071 46.8582C35.2175 47.3194 34.9624 47.8121 34.5012 47.9586C34.04 48.1052 33.5474 47.8501 33.4008 47.3889L28.1402 30.8331L28.8494 30.5117C31.0133 29.5313 32.5156 27.3537 32.5156 24.8271C32.5156 21.3824 29.7231 18.5898 26.2784 18.5898Z" fill="#1C86D7"/>
<path d="M68.0299 15.7087V34.0001H65.3524V15.7087H58.7715V13.4822H74.6249V15.7087H68.0299Z" fill="#1C86D7"/>
<path d="M78.8102 34.0001V23.16C78.9933 22.7335 79.2329 22.3636 79.5289 22.0501C79.8483 21.7119 80.2382 21.4488 80.6986 21.2609C81.1589 21.073 81.6897 20.9791 82.2909 20.9791C82.5352 20.9791 82.7513 20.9885 82.9392 21.0073C83.1365 21.0167 83.3431 21.0449 83.5592 21.0918L83.5733 18.668C83.4794 18.621 83.3103 18.5788 83.066 18.5412C82.8217 18.4942 82.6057 18.4707 82.4178 18.4707C81.591 18.4707 80.8771 18.6492 80.2758 19.0062C79.6839 19.3538 79.1954 19.8423 78.8102 20.4718L78.7912 20.5026L78.7398 18.7526H76.2032V34.0001H78.8102Z" fill="#1C86D7"/>
<path d="M95.3844 32.4916C94.9389 33.0214 94.3793 33.4444 93.7054 33.7605C92.9445 34.1081 92.0191 34.2819 90.9293 34.2819C90.1871 34.2819 89.506 34.1739 88.886 33.9578C88.2753 33.7417 87.7492 33.4082 87.3077 32.9572C86.8661 32.5063 86.5232 31.9191 86.279 31.1958C86.0441 30.4724 85.9267 29.6034 85.9267 28.5887V18.7526H88.5337V28.6169C88.5337 29.3027 88.6088 29.8711 88.7591 30.3221C88.9189 30.7636 89.1302 31.1159 89.3933 31.379C89.6657 31.6326 89.9664 31.8111 90.2952 31.9144C90.6334 32.0178 90.981 32.0695 91.338 32.0695C92.4465 32.0695 93.3249 31.8581 93.9732 31.4353C94.5799 31.0308 95.0262 30.4988 95.3119 29.8391V18.7526H97.933V34.0001H95.4387L95.3844 32.4916Z" fill="#1C86D7"/>
<path fill-rule="evenodd" clip-rule="evenodd" d="M108.234 34.2819C107.173 34.2819 106.21 34.1034 105.345 33.7464C104.49 33.38 103.753 32.868 103.133 32.2104C102.522 31.5528 102.053 30.773 101.724 29.8711C101.395 28.9692 101.231 27.9828 101.231 26.9118V26.3199C101.231 25.0798 101.414 23.976 101.78 23.0083C102.146 22.0313 102.644 21.2046 103.274 20.5282C103.903 19.8517 104.617 19.3397 105.416 18.9921C106.214 18.6445 107.041 18.4707 107.896 18.4707C108.986 18.4707 109.925 18.6586 110.714 19.0344C111.513 19.4102 112.166 19.9363 112.673 20.6127C113.18 21.2797 113.556 22.0689 113.801 22.9802C114.045 23.882 114.167 24.8685 114.167 25.9395V27.1091H103.854C103.87 27.7593 103.968 28.3747 104.148 28.9551C104.354 29.5846 104.65 30.1389 105.035 30.618C105.43 31.0971 105.904 31.4729 106.459 31.7453C107.022 32.0178 107.661 32.154 108.375 32.154C109.296 32.154 110.076 31.9661 110.714 31.5903C111.353 31.2145 111.912 30.7119 112.391 30.0825L113.97 31.3367C113.641 31.8346 113.223 32.309 112.715 32.76C112.208 33.2109 111.583 33.5773 110.841 33.8591C110.108 34.141 109.239 34.2819 108.234 34.2819ZM104.148 23.882C104.052 24.2231 103.98 24.5895 103.93 24.9812H111.56V24.7839C111.522 24.1075 111.381 23.4499 111.137 22.811C110.902 22.1722 110.527 21.6461 110.01 21.2327C109.493 20.8194 108.788 20.6127 107.896 20.6127C107.304 20.6127 106.759 20.7395 106.261 20.9932C105.763 21.2374 105.336 21.6038 104.979 22.0924C104.622 22.5809 104.345 23.1774 104.148 23.882Z" fill="#1C86D7"/>
<path d="M127.484 23.6009V13.4822H124.764V34.0001H127.484V27.0594L129.999 24.4486L137.25 34.0001H140.491L131.803 22.5363L139.871 13.4822H136.601L129.71 21.1482L127.484 23.6009Z" fill="#1C86D7"/>
<path fill-rule="evenodd" clip-rule="evenodd" d="M148.453 34.2819C147.391 34.2819 146.428 34.1034 145.564 33.7464C144.709 33.38 143.971 32.868 143.351 32.2104C142.741 31.5528 142.271 30.773 141.942 29.8711C141.613 28.9692 141.449 27.9828 141.449 26.9118V26.3199C141.449 25.0798 141.632 23.976 141.999 23.0083C142.365 22.0313 142.863 21.2046 143.492 20.5282C144.122 19.8517 144.836 19.3397 145.634 18.9921C146.433 18.6445 147.26 18.4707 148.114 18.4707C149.204 18.4707 150.144 18.6586 150.933 19.0344C151.731 19.4102 152.384 19.9363 152.892 20.6127C153.399 21.2797 153.775 22.0689 154.019 22.9802C154.263 23.882 154.385 24.8685 154.385 25.9395V27.1091H144.073C144.089 27.7593 144.187 28.3747 144.366 28.9551C144.573 29.5846 144.869 30.1389 145.254 30.618C145.648 31.0971 146.123 31.4729 146.677 31.7453C147.241 32.0178 147.88 32.154 148.594 32.154C149.514 32.154 150.294 31.9661 150.933 31.5903C151.572 31.2145 152.131 30.7119 152.61 30.0825L154.188 31.3367C153.859 31.8346 153.441 32.309 152.934 32.76C152.427 33.2109 151.802 33.5773 151.06 33.8591C150.327 34.141 149.458 34.2819 148.453 34.2819ZM144.366 23.882C144.27 24.2231 144.198 24.5895 144.149 24.9812H151.778V24.7839C151.741 24.1075 151.6 23.4499 151.356 22.811C151.121 22.1722 150.745 21.6461 150.228 21.2327C149.712 20.8194 149.007 20.6127 148.114 20.6127C147.523 20.6127 146.978 20.7395 146.48 20.9932C145.982 21.2374 145.554 21.6038 145.197 22.0924C144.84 22.5809 144.563 23.1774 144.366 23.882Z" fill="#1C86D7"/>
<path d="M160.997 33.8356L155.555 18.7526H158.402L162.218 30.1602L165.758 18.7526H168.548L162.432 36.3534C162.291 36.7292 162.103 37.1332 161.868 37.5653C161.643 38.0069 161.351 38.4249 160.994 38.8195C160.637 39.2141 160.205 39.5335 159.698 39.7777C159.2 40.0314 158.604 40.1582 157.908 40.1582C157.702 40.1582 157.439 40.13 157.119 40.0737C156.8 40.0173 156.574 39.9703 156.443 39.9328L156.429 37.819C156.504 37.8284 156.621 37.8378 156.781 37.8472C156.95 37.8659 157.068 37.8753 157.133 37.8753C157.725 37.8753 158.228 37.7955 158.641 37.6358C159.054 37.4855 159.402 37.2271 159.684 36.8607C159.975 36.5037 160.224 36.0105 160.431 35.3811L160.997 33.8356Z" fill="#1C86D7"/>
</g>
<defs>
<clipPath id="clip0_8238_100567">
<rect width="169" height="48" fill="white"/>
</clipPath>
</defs>
</svg>
