<svg width="195" height="48" viewBox="0 0 195 48" fill="none" xmlns="http://www.w3.org/2000/svg">
<path fill-rule="evenodd" clip-rule="evenodd" d="M87.6223 25.4399H97.3021L99.2381 21.9599H87.6223V17.1599H99.2381L101.174 13.6799H83.8643V34.3199H101.516V30.8399H87.6223V25.4399ZM109.601 25.4399H119.281L121.217 21.9599H109.601V17.1599H121.217L123.153 13.6799H105.843V34.3199H123.495V30.8399H109.601V25.4399ZM155.267 25.4399H164.947L166.883 21.9599H155.267V17.1599H166.883L168.819 13.6799H151.509V34.3199H169.16V30.8399H155.267V25.4399ZM79.6507 13.7999H74.64L64.9602 24.1199L74.64 34.4399H79.6507C77.2592 31.9199 71.6791 25.9199 69.9709 24.1199C71.6791 22.3199 77.2592 16.1999 79.6507 13.7999ZM59.7217 34.3199H63.4797V13.7999H59.7217V34.3199ZM187.609 26.0399C190.456 25.9199 192.961 23.7599 192.961 19.9199C192.961 14.8799 189.659 13.7999 185.104 13.7999H173.488V34.4399H177.246V17.1599H184.534C187.609 17.1599 189.203 17.6399 189.203 20.0399C189.203 22.4399 187.609 22.9199 184.534 22.9199H180.548L178.726 26.2799H183.168L188.748 34.4399H193.417L187.609 26.0399ZM138.754 13.7999H127.936V34.4399H131.694V17.2799H139.552C141.715 17.2799 143.651 17.5199 143.651 20.1599C143.651 22.7999 141.715 23.0399 139.552 23.0399H135.11L133.174 26.5199H138.754C142.057 26.5199 147.409 26.5199 147.409 20.2799C147.409 13.7999 141.943 13.7999 138.754 13.7999Z" fill="white"/>
<path fill-rule="evenodd" clip-rule="evenodd" d="M26.3547 0.359863C14.0556 0.359863 4.03418 10.9199 4.03418 24.1199C4.03418 37.1999 14.0556 47.8799 26.3547 47.8799C38.6537 47.8799 48.6752 37.1999 48.6752 24.1199C48.6752 10.9199 38.6537 0.359863 26.3547 0.359863Z" fill="black"/>
<path fill-rule="evenodd" clip-rule="evenodd" d="M44.006 30.2399L36.9454 23.9999L44.006 17.7599L46.1697 20.6399L42.2978 23.9999L46.1697 27.3599L44.006 30.2399ZM41.2728 37.1999L32.7318 29.8799H25.6713V44.7599H22.2549V26.2799H33.9845L43.4366 34.3199L41.2728 37.1999ZM36.2621 42.1199L32.3902 38.7599V43.9199L28.9738 44.8799V33.4799H31.8208L39.1091 39.9599L36.2621 42.1199ZM18.8385 38.9999L15.4221 42.2399V6.23986L18.8385 9.47986V38.9999ZM12.1195 34.5599L8.70312 31.4399V17.5199L12.1195 14.1599V34.5599ZM22.141 3.35986H25.5574V18.2399H32.618L41.159 10.9199L43.3227 13.7999L33.8706 21.8399H22.141V3.35986ZM28.9738 3.83986L32.3902 4.79986V9.95986L36.2621 6.59986L39.1091 8.75986L31.8208 15.2399H28.9738V3.83986Z" fill="#FFC700"/>
</svg>
