<svg width="188" height="48" viewBox="0 0 188 48" fill="none" xmlns="http://www.w3.org/2000/svg">
<path d="M56.0501 33.7644C57.3528 33.7644 58.4629 33.4731 59.3801 32.8904C60.2782 32.3315 60.9935 31.5225 61.4381 30.5627C61.8867 29.5773 62.1189 28.5071 62.1189 27.4244C62.1189 26.3417 61.8867 25.2716 61.4381 24.2862C60.9921 23.3281 60.277 22.5204 59.3801 21.9613C58.4629 21.3845 57.3528 21.096 56.0501 21.096H53.7944C53.7104 21.0964 53.6299 21.1299 53.5705 21.1894C53.5111 21.2488 53.4775 21.3293 53.4771 21.4133V33.4471C53.4771 33.5313 53.5106 33.612 53.5701 33.6715C53.6296 33.731 53.7103 33.7644 53.7944 33.7644H56.0501ZM48.6775 17.3838C48.6775 17.342 48.6857 17.3006 48.7018 17.262C48.7178 17.2234 48.7413 17.1884 48.7709 17.1589C48.8005 17.1294 48.8357 17.1061 48.8743 17.0902C48.913 17.0743 48.9544 17.0663 48.9962 17.0665H56.4957C58.6455 17.0665 60.5204 17.5352 62.1203 18.4726C63.6706 19.3595 64.9423 20.6617 65.7922 22.2325C66.6288 23.8394 67.0656 25.6243 67.0656 27.436C67.0656 29.2476 66.6288 31.0326 65.7922 32.6395C64.9477 34.2146 63.6747 35.5186 62.1203 36.4008C60.5223 37.3276 58.6475 37.7911 56.4957 37.7911H48.9962C48.9544 37.7912 48.913 37.7832 48.8743 37.7673C48.8357 37.7515 48.8005 37.7281 48.7709 37.6986C48.7413 37.6692 48.7178 37.6341 48.7018 37.5955C48.6857 37.5569 48.6775 37.5156 48.6775 37.4738V17.3838Z" fill="#10363D"/>
<path d="M87.3807 36.444C86.0096 35.2143 85.2885 33.5134 85.2173 31.3415C85.2158 31.2986 85.2229 31.256 85.2382 31.2159C85.2535 31.1759 85.2768 31.1394 85.3065 31.1086C85.3363 31.0778 85.3719 31.0533 85.4114 31.0365C85.4508 31.0198 85.4932 31.0112 85.5361 31.0112H89.7055C89.7867 31.0111 89.8649 31.0421 89.924 31.0979C89.983 31.1537 90.0183 31.2301 90.0228 31.3112C90.0718 32.2928 90.3703 33.0712 90.9184 33.6461C91.5203 34.2778 92.3443 34.5936 93.3903 34.5936C94.2778 34.5936 94.9638 34.3961 95.4484 34.0009C95.933 33.6057 96.1733 33.0433 96.1695 32.3135C96.1695 31.6818 95.9873 31.1737 95.6229 30.7891C95.2585 30.4045 94.6023 30.0247 93.6543 29.6498L89.9233 28.1989C88.5416 27.6855 87.4955 26.9504 86.785 25.9937C86.0745 25.0371 85.7192 23.8872 85.7192 22.544C85.6967 21.4168 86.011 20.3085 86.6221 19.361C87.2564 18.4163 88.1512 17.6759 89.1978 17.2294C90.3131 16.7256 91.6111 16.4737 93.0918 16.4737C94.5936 16.4737 95.9166 16.7453 97.0608 17.2886C98.1491 17.784 99.0733 18.5801 99.7245 19.5831C100.313 20.5231 100.638 21.604 100.665 22.7127C100.667 22.7558 100.66 22.7988 100.645 22.8392C100.63 22.8797 100.607 22.9166 100.578 22.9479C100.548 22.9792 100.512 23.0041 100.473 23.0212C100.433 23.0383 100.391 23.0472 100.348 23.0473H96.1868C96.1057 23.0471 96.0276 23.0159 95.9687 22.9602C95.9097 22.9045 95.8743 22.8283 95.8695 22.7473C95.8233 21.9253 95.5796 21.2849 95.1383 20.8263C94.6451 20.3129 93.9345 20.0567 93.0067 20.0576C92.2366 20.0576 91.6308 20.2393 91.1852 20.6042C90.9661 20.7849 90.792 21.0141 90.6766 21.2737C90.5612 21.5332 90.5077 21.816 90.5203 22.0998C90.5173 22.3764 90.5738 22.6504 90.6861 22.9032C90.7983 23.1561 90.9636 23.3818 91.1708 23.5651C91.6044 23.9708 92.3346 24.3804 93.3615 24.7938L96.7968 26.1553C98.2169 26.7091 99.2678 27.4691 99.9495 28.4354C100.631 29.4017 100.972 30.5862 100.971 31.989C100.996 33.1829 100.666 34.3574 100.023 35.3638C99.3689 36.3499 98.444 37.1261 97.3593 37.5992C96.2142 38.1213 94.8816 38.3828 93.3615 38.3838C90.8155 38.3838 88.8219 37.7372 87.3807 36.444Z" fill="#10363D"/>
<path d="M122.324 16.7492H126.482C126.524 16.749 126.565 16.7571 126.604 16.7729C126.642 16.7888 126.677 16.8122 126.707 16.8417C126.736 16.8712 126.76 16.9062 126.775 16.9448C126.791 16.9834 126.799 17.0247 126.799 17.0665V33.2106C126.8 33.2949 126.833 33.3756 126.893 33.435C126.953 33.4945 127.034 33.5279 127.118 33.5279H134.185C134.269 33.5279 134.35 33.5612 134.41 33.6207C134.469 33.6802 134.503 33.7609 134.503 33.8452V37.4738C134.503 37.5155 134.495 37.5569 134.479 37.5955C134.463 37.6341 134.44 37.6691 134.41 37.6986C134.38 37.7281 134.345 37.7514 134.307 37.7673C134.268 37.7832 134.226 37.7912 134.185 37.791H122.324C122.282 37.7912 122.241 37.7832 122.202 37.7673C122.164 37.7514 122.129 37.728 122.099 37.6985C122.07 37.669 122.046 37.634 122.03 37.5954C122.015 37.5568 122.007 37.5155 122.007 37.4738V17.0665C122.007 17.0247 122.015 16.9834 122.03 16.9448C122.046 16.9062 122.07 16.8712 122.099 16.8417C122.129 16.8122 122.164 16.7888 122.202 16.7729C122.241 16.7571 122.282 16.749 122.324 16.7492Z" fill="#10363D"/>
<path d="M156.787 17.0665H161.194C161.252 17.0667 161.308 17.0824 161.357 17.1118C161.406 17.1413 161.447 17.1834 161.474 17.2338L167.98 29.3642C168.014 29.4263 168.067 29.4753 168.132 29.5036C168.197 29.5319 168.269 29.5379 168.338 29.5205C168.407 29.5032 168.467 29.4635 168.511 29.4078C168.555 29.3521 168.578 29.2835 168.579 29.2128V17.3866C168.579 17.3026 168.612 17.2221 168.672 17.1627C168.731 17.1033 168.812 17.0697 168.896 17.0694H172.849C172.891 17.0692 172.932 17.0772 172.971 17.0931C173.009 17.1089 173.045 17.1323 173.074 17.1618C173.104 17.1913 173.127 17.2263 173.143 17.2649C173.159 17.3035 173.168 17.3449 173.168 17.3866V37.4766C173.168 37.5184 173.159 37.5598 173.143 37.5984C173.127 37.637 173.104 37.672 173.074 37.7015C173.045 37.731 173.009 37.7543 172.971 37.7702C172.932 37.786 172.891 37.7941 172.849 37.7939H168.45C168.392 37.7957 168.334 37.7812 168.283 37.7522C168.232 37.7232 168.19 37.6808 168.162 37.6295L161.655 25.4991C161.621 25.4371 161.569 25.3879 161.504 25.3591C161.44 25.3303 161.368 25.3237 161.3 25.3402C161.232 25.3567 161.171 25.3954 161.127 25.4503C161.083 25.5051 161.059 25.573 161.057 25.6433V37.4694C161.057 37.5537 161.023 37.6344 160.964 37.6939C160.904 37.7533 160.823 37.7867 160.739 37.7867H156.786C156.701 37.7867 156.621 37.7533 156.561 37.6938C156.502 37.6343 156.468 37.5536 156.468 37.4694V17.3838C156.468 17.2996 156.502 17.2189 156.561 17.1594C156.621 17.0999 156.701 17.0665 156.786 17.0665" fill="#10363D"/>
<path d="M175.566 17.0665H187.601C187.686 17.0665 187.766 17.0998 187.826 17.1593C187.886 17.2188 187.92 17.2995 187.92 17.3838V20.597C187.92 20.6815 187.886 20.7626 187.827 20.8224C187.767 20.8822 187.686 20.9157 187.601 20.9157H180.363C180.279 20.9157 180.198 20.9491 180.138 21.0086C180.078 21.068 180.045 21.1487 180.044 21.233V25.3044C180.044 25.3889 180.078 25.47 180.137 25.5298C180.197 25.5895 180.278 25.6231 180.363 25.6231H187.601C187.644 25.6229 187.686 25.6312 187.725 25.6475C187.764 25.6638 187.799 25.6878 187.829 25.7181C187.859 25.7483 187.882 25.7842 187.898 25.8236C187.913 25.8631 187.921 25.9052 187.92 25.9476V29.0729C187.92 29.1147 187.912 29.156 187.896 29.1946C187.88 29.2332 187.856 29.2683 187.827 29.2978C187.797 29.3272 187.762 29.3506 187.723 29.3664C187.684 29.3823 187.643 29.3904 187.601 29.3902H180.363C180.279 29.3902 180.198 29.4236 180.138 29.483C180.078 29.5425 180.045 29.6232 180.044 29.7075V33.6317C180.044 33.6735 180.052 33.7149 180.068 33.7535C180.084 33.7921 180.108 33.8271 180.138 33.8566C180.167 33.8861 180.202 33.9094 180.241 33.9253C180.28 33.9411 180.321 33.9492 180.363 33.949H187.601C187.686 33.949 187.767 33.9826 187.827 34.0424C187.886 34.1021 187.92 34.1832 187.92 34.2677V37.481C187.92 37.5653 187.886 37.646 187.826 37.7054C187.766 37.7649 187.686 37.7983 187.601 37.7983H175.566C175.482 37.7983 175.401 37.7648 175.342 37.7053C175.282 37.6458 175.249 37.5651 175.249 37.481V17.3838C175.249 17.2996 175.282 17.2189 175.342 17.1594C175.401 17.0999 175.482 17.0665 175.566 17.0665Z" fill="#10363D"/>
<path d="M73.3249 30.3391L75.3729 23.1021C75.3866 23.053 75.416 23.0098 75.4567 22.979C75.4973 22.9482 75.5469 22.9315 75.5978 22.9315C75.6488 22.9315 75.6984 22.9482 75.739 22.979C75.7797 23.0098 75.8091 23.053 75.8228 23.1021L77.8708 30.3391C77.884 30.3848 77.8864 30.433 77.8778 30.4798C77.8691 30.5266 77.8496 30.5707 77.8209 30.6087C77.7922 30.6466 77.7551 30.6774 77.7124 30.6984C77.6697 30.7195 77.6227 30.7303 77.5751 30.73H73.6206C73.5731 30.73 73.5262 30.719 73.4837 30.6978C73.4412 30.6767 73.4042 30.646 73.3755 30.6081C73.3469 30.5702 73.3274 30.5262 73.3186 30.4796C73.3098 30.4329 73.312 30.3848 73.3249 30.3391ZM84.9376 37.4853L78.0496 17.2251C78.0342 17.1788 78.0045 17.1386 77.9649 17.1101C77.9253 17.0817 77.8777 17.0664 77.8289 17.0665H73.3379C73.2891 17.0662 73.2414 17.0814 73.2017 17.1099C73.1621 17.1384 73.1325 17.1787 73.1172 17.2251L66.2581 37.4853C66.2462 37.5204 66.2428 37.5578 66.2482 37.5945C66.2536 37.6312 66.2677 37.666 66.2893 37.6962C66.3108 37.7263 66.3393 37.7509 66.3722 37.7679C66.4051 37.7849 66.4417 37.7938 66.4787 37.7939H70.9755C71.0447 37.794 71.112 37.7715 71.1672 37.7299C71.2224 37.6882 71.2624 37.6297 71.2813 37.5632L72.1466 34.4941H79.0433L79.9086 37.5632C79.9277 37.6296 79.9678 37.688 80.023 37.7296C80.0781 37.7712 80.1453 37.7938 80.2144 37.7939H84.7112C84.7483 37.7938 84.7848 37.7849 84.8177 37.7679C84.8507 37.7509 84.8791 37.7263 84.9006 37.6962C84.9222 37.666 84.9363 37.6312 84.9417 37.5945C84.9471 37.5578 84.9438 37.5204 84.9319 37.4853" fill="#10363D"/>
<path d="M143.01 30.3391L145.058 23.1021C145.071 23.053 145.101 23.0098 145.141 22.979C145.182 22.9481 145.232 22.9315 145.283 22.9315C145.333 22.9315 145.383 22.9481 145.424 22.979C145.464 23.0098 145.494 23.053 145.507 23.1021L147.557 30.3391C147.57 30.3849 147.571 30.433 147.562 30.4797C147.553 30.5263 147.534 30.5703 147.505 30.6081C147.476 30.6459 147.439 30.6766 147.397 30.6977C147.354 30.7189 147.307 30.7299 147.26 30.73H143.305C143.258 30.7289 143.212 30.7171 143.171 30.6955C143.129 30.6738 143.093 30.643 143.065 30.6053C143.037 30.5675 143.019 30.5239 143.01 30.4778C143.002 30.4317 143.004 30.3842 143.017 30.3391H143.01ZM154.622 37.4853L147.734 17.228C147.719 17.1816 147.689 17.1413 147.65 17.1127C147.61 17.0842 147.562 17.069 147.514 17.0694H143.023C142.974 17.069 142.926 17.0842 142.886 17.1127C142.847 17.1413 142.817 17.1816 142.802 17.228L135.943 37.4853C135.931 37.5205 135.927 37.558 135.933 37.5948C135.938 37.6316 135.953 37.6665 135.974 37.6967C135.996 37.7269 136.025 37.7515 136.058 37.7684C136.091 37.7853 136.128 37.794 136.165 37.7939H140.66C140.73 37.7941 140.797 37.7717 140.852 37.73C140.908 37.6884 140.948 37.6298 140.967 37.5631L141.833 34.4941H148.728L149.593 37.5631C149.612 37.6295 149.652 37.688 149.708 37.7296C149.763 37.7712 149.83 37.7938 149.899 37.7939H154.396C154.433 37.7938 154.469 37.7849 154.502 37.7679C154.535 37.7509 154.564 37.7263 154.585 37.6961C154.607 37.666 154.621 37.6311 154.626 37.5945C154.632 37.5578 154.628 37.5204 154.617 37.4853" fill="#10363D"/>
<path d="M119.502 17.0665H115.341C115.257 17.0665 115.176 17.0999 115.116 17.1594C115.057 17.2189 115.024 17.2996 115.024 17.3838V25.127C115.024 25.1688 115.015 25.2103 114.999 25.249C114.983 25.2876 114.96 25.3228 114.93 25.3524C114.901 25.382 114.865 25.4054 114.827 25.4215C114.788 25.4375 114.747 25.4457 114.705 25.4457H108.176C108.134 25.4457 108.093 25.4375 108.054 25.4214C108.016 25.4054 107.981 25.3819 107.951 25.3523C107.922 25.3227 107.898 25.2875 107.882 25.2488C107.867 25.2102 107.858 25.1688 107.859 25.127V17.2251C107.858 17.1408 107.824 17.0601 107.765 17.0007C107.705 16.9412 107.624 16.9078 107.54 16.9078H103.379C103.295 16.9082 103.215 16.9418 103.155 17.0012C103.096 17.0606 103.062 17.1411 103.062 17.2251V37.4737C103.062 37.5578 103.096 37.6383 103.155 37.6977C103.215 37.7571 103.295 37.7906 103.379 37.791H107.54C107.624 37.791 107.705 37.7576 107.765 37.6982C107.824 37.6387 107.858 37.558 107.859 37.4737V29.8776C107.859 29.7935 107.892 29.7128 107.952 29.6533C108.011 29.5938 108.092 29.5603 108.176 29.5603H114.705C114.789 29.5603 114.87 29.5937 114.93 29.6532C114.989 29.7126 115.023 29.7933 115.024 29.8776V37.4737C115.024 37.5579 115.057 37.6386 115.116 37.6981C115.176 37.7576 115.257 37.791 115.341 37.791H119.502C119.586 37.791 119.666 37.7576 119.726 37.6981C119.785 37.6386 119.819 37.5579 119.819 37.4737V17.3838C119.819 17.2996 119.785 17.2189 119.726 17.1594C119.666 17.0999 119.586 17.0665 119.502 17.0665Z" fill="#10363D"/>
<path d="M10.8354 15.4063L15.8056 17.2588C16.6087 17.5468 17.5782 17.1619 17.5782 16.5583V2.6494C17.5782 2.35726 17.3369 2.08867 16.9483 1.94883L11.9862 0.097731C11.1817 -0.190249 10.2054 0.193263 10.2054 0.78999V14.7058C10.2054 14.9979 10.4468 15.2679 10.8354 15.4063Z" fill="#10363D"/>
<path d="M25.0097 21.5342L20.0395 19.6817C19.6523 19.5419 19.4096 19.2733 19.4096 18.9812V6.19654C19.4096 5.59981 20.3872 5.2163 21.1904 5.50428L26.1606 7.35676C26.5492 7.49521 26.7906 7.75689 26.7906 8.04902V20.8337C26.7906 21.4373 25.8129 21.8222 25.0097 21.5342Z" fill="#10363D"/>
<path d="M25.0097 44.484L20.0395 42.6315V42.6287C19.6523 42.4903 19.4096 42.2217 19.4096 41.9296V29.1477C19.4096 28.544 20.3872 28.1591 21.1904 28.4471L26.1606 30.2996C26.5492 30.4394 26.7906 30.708 26.7906 31.0002V43.7848C26.7906 44.3885 25.8129 44.772 25.0097 44.484Z" fill="#10363D"/>
<path d="M15.8056 47.9024L10.8354 46.0499C10.4468 45.9101 10.2054 45.6415 10.2054 45.3493V31.4764C10.2054 30.8728 11.1817 30.4893 11.9862 30.7773L16.9483 32.6284C17.3369 32.7682 17.5782 33.0368 17.5782 33.3289V47.2018C17.5782 47.8068 16.6087 48.1903 15.8056 47.9024Z" fill="#10363D"/>
<path d="M8.381 3.17136C8.381 2.87922 8.13828 2.61755 7.74966 2.47079L2.78082 0.618307C1.97768 0.330327 1 0.715223 1 1.31887V44.8287C1 45.1209 1.24135 45.3909 1.62997 45.5293L6.60017 47.3832C7.40332 47.6698 8.381 47.2863 8.381 46.6826V3.17136Z" fill="#10363D"/>
<path d="M30.3917 12.8699L35.3619 14.7224H35.3687C35.7573 14.8622 36 15.1308 36 15.423V36.4206C36 37.0242 35.0223 37.4077 34.2192 37.1197L29.249 35.2673C28.8604 35.1288 28.619 34.8602 28.619 34.5681V13.5705C28.619 12.9668 29.5885 12.5819 30.3917 12.8699Z" fill="#10363D"/>
</svg>
