<svg width="48" height="48" viewBox="0 0 48 48" fill="none" xmlns="http://www.w3.org/2000/svg">
<path fill-rule="evenodd" clip-rule="evenodd" d="M23.9996 5.41934C34.2615 5.41934 42.5802 13.7381 42.5802 24C42.5802 34.2619 34.2615 42.5806 23.9996 42.5806C13.7377 42.5806 5.41895 34.2619 5.41895 24C5.41895 13.7381 13.7377 5.41934 23.9996 5.41934Z" fill="#198CFF"/>
<path fill-rule="evenodd" clip-rule="evenodd" d="M0.774414 24C0.774414 11.1724 11.1726 0.7742 24.0002 0.7742C36.8278 0.7742 47.226 11.1724 47.226 24C47.226 36.8284 36.8278 47.2258 24.0002 47.2258C11.1726 47.2258 0.774414 36.8284 0.774414 24ZM5.41957 24C5.41957 34.2619 13.7383 42.5807 24.0002 42.5807C34.2622 42.5807 42.5809 34.2619 42.5809 24C42.5809 13.7381 34.2622 5.41936 24.0002 5.41936C13.7383 5.41936 5.41957 13.7381 5.41957 24Z" fill="white"/>
<path opacity="0.5" d="M0 24C0 37.255 10.7458 48 24 48C37.2542 48 48 37.255 48 24C48 10.7458 37.2542 0 24 0C10.7458 0 0 10.7458 0 24ZM0.774194 24C0.774194 11.1739 11.1716 0.774194 24 0.774194C36.8284 0.774194 47.2258 11.1739 47.2258 24C47.2258 36.8261 36.8284 47.2258 24 47.2258C11.1716 47.2258 0.774194 36.8261 0.774194 24ZM6.19355 23.9985C6.19355 33.8323 14.1662 41.8034 24 41.8034C33.8338 41.8034 41.8064 33.8323 41.8064 23.9985C41.8064 14.1654 33.8338 6.19355 24 6.19355C14.1662 6.19355 6.19355 14.1654 6.19355 23.9985ZM5.41935 24C5.41935 13.7396 13.7373 5.41935 24 5.41935C34.2627 5.41935 42.5806 13.7396 42.5806 24C42.5806 34.2604 34.2635 42.5806 24 42.5806C13.7365 42.5806 5.41935 34.2604 5.41935 24Z" fill="black"/>
<path fill-rule="evenodd" clip-rule="evenodd" d="M31.9898 43.4152C39.0574 40.4029 44.0115 33.4072 44.0115 25.2558C44.0115 14.3536 35.1501 5.51537 24.2192 5.51537C13.2884 5.51537 4.42773 14.3536 4.42773 25.2558C4.42773 36.1254 13.2365 44.9412 24.1232 44.9931C24.0891 44.9938 24.0566 44.9961 24.0233 44.9961C12.5513 44.9961 3.25173 35.7205 3.25173 24.2787C3.25173 12.8369 12.5513 3.56131 24.0233 3.56131C35.4953 3.56131 44.7949 12.8369 44.7949 24.2787C44.7949 32.9056 39.5072 40.2976 31.9898 43.4152ZM23.6223 45.2284C36.4375 45.2284 46.8257 34.8674 46.8257 22.087C46.8257 20.8947 46.7351 19.7241 46.5609 18.5807C46.9921 20.3443 47.2259 22.1853 47.2259 24.0813C47.2259 36.8632 36.837 47.2227 24.0226 47.2227C12.4019 47.2227 2.77792 38.7043 1.08398 27.5876C3.55986 37.7118 12.7085 45.2284 23.6223 45.2284Z" fill="black" fill-opacity="0.1"/>
<path fill-rule="evenodd" clip-rule="evenodd" d="M23.9999 10.0645C31.6962 10.0645 37.9354 16.3037 37.9354 24C37.9354 31.6963 31.6962 37.9355 23.9999 37.9355C16.3037 37.9355 10.0645 31.6963 10.0645 24C10.0645 16.3037 16.3037 10.0645 23.9999 10.0645Z" fill="#F2F2F2"/>
<path d="M23.9997 10.0645C16.3035 10.0645 10.0642 16.3037 10.0642 24C10.0642 31.6963 16.3035 37.9355 23.9997 37.9355C31.696 37.9355 37.9352 31.6963 37.9352 24C37.9352 16.3037 31.696 10.0645 23.9997 10.0645ZM23.9997 9.29031C32.1233 9.29031 38.7094 15.8764 38.7094 24C38.7094 32.1244 32.1233 38.7097 23.9997 38.7097C15.8761 38.7097 9.29004 32.1244 9.29004 24C9.29004 15.8764 15.8761 9.29031 23.9997 9.29031Z" fill="black" fill-opacity="0.25"/>
<path fill-rule="evenodd" clip-rule="evenodd" d="M30.1937 24C30.1937 25.6426 29.5412 27.218 28.3797 28.3795C27.2182 29.541 25.6428 30.1936 24.0002 30.1936C22.3576 30.1936 20.7822 29.541 19.6207 28.3795C18.4592 27.218 17.8066 25.6426 17.8066 24C17.8066 22.3574 18.4592 20.782 19.6207 19.6205C20.7822 18.459 22.3576 17.8065 24.0002 17.8065C25.6428 17.8065 27.2182 18.459 28.3797 19.6205C29.5412 20.782 30.1937 22.3574 30.1937 24Z" fill="black" fill-opacity="0.05"/>
<path d="M29.4195 24C29.4195 22.5627 28.8486 21.1843 27.8322 20.1679C26.8159 19.1516 25.4375 18.5807 24.0002 18.5807C22.5629 18.5807 21.1844 19.1516 20.1681 20.1679C19.1518 21.1843 18.5808 22.5627 18.5808 24C18.5808 25.4373 19.1518 26.8157 20.1681 27.8321C21.1844 28.8484 22.5629 29.4194 24.0002 29.4194C25.4375 29.4194 26.8159 28.8484 27.8322 27.8321C28.8486 26.8157 29.4195 25.4373 29.4195 24ZM30.1937 24C30.1937 25.6426 29.5412 27.218 28.3797 28.3795C27.2182 29.541 25.6428 30.1936 24.0002 30.1936C22.3576 30.1936 20.7822 29.541 19.6207 28.3795C18.4592 27.218 17.8066 25.6426 17.8066 24C17.8066 22.3574 18.4592 20.782 19.6207 19.6205C20.7822 18.459 22.3576 17.8065 24.0002 17.8065C25.6428 17.8065 27.2182 18.459 28.3797 19.6205C29.5412 20.782 30.1937 22.3574 30.1937 24Z" fill="black" fill-opacity="0.15"/>
<path d="M30.1935 24C30.1935 22.3574 29.541 20.782 28.3795 19.6205C27.218 18.459 25.6426 17.8065 24 17.8065C22.3573 17.8065 20.782 18.459 19.6205 19.6205C18.4589 20.782 17.8064 22.3574 17.8064 24C17.8064 25.6426 18.4589 27.218 19.6205 28.3795C20.782 29.541 22.3573 30.1935 24 30.1935C25.6426 30.1935 27.218 29.541 28.3795 28.3795C29.541 27.218 30.1935 25.6426 30.1935 24ZM30.9677 24C30.9677 25.848 30.2336 27.6202 28.9269 28.9269C27.6202 30.2336 25.8479 30.9677 24 30.9677C22.152 30.9677 20.3797 30.2336 19.073 28.9269C17.7663 27.6202 17.0322 25.848 17.0322 24C17.0322 22.152 17.7663 20.3798 19.073 19.0731C20.3797 17.7664 22.152 17.0323 24 17.0323C25.8479 17.0323 27.6202 17.7664 28.9269 19.0731C30.2336 20.3798 30.9677 22.152 30.9677 24Z" fill="white"/>
<path fill-rule="evenodd" clip-rule="evenodd" d="M20.9033 21.1804V14.7097H27.0969V25.4942L25.5485 26.9311L27.0969 28.368V34.8387H20.9033V24.055L22.4517 22.6173L20.9033 21.1804Z" fill="white"/>
<path fill-rule="evenodd" clip-rule="evenodd" d="M20.9033 20.4062V13.9355H27.0969V24.72L25.5485 26.1569L27.0969 27.5938V34.0645H20.9033V23.2808L22.4517 21.8431L20.9033 20.4062Z" fill="#4D4D4D"/>
<path fill-rule="evenodd" clip-rule="evenodd" d="M21.6777 21.0697V15.4839H26.3229V25.0514L25.1616 26.3776V27.158L26.3229 28.6359V34.0645H21.6777V24.48L22.839 23.1817V22.3967L21.6777 21.0697Z" fill="#808080"/>
</svg>
