<svg width="48" height="48" viewBox="0 0 48 48" fill="none" xmlns="http://www.w3.org/2000/svg">
<path fill-rule="evenodd" clip-rule="evenodd" d="M23.7602 0.359985C10.8002 0.359985 0.240234 10.92 0.240234 24.12C0.240234 37.2 10.8002 47.88 23.7602 47.88C36.7202 47.88 47.2802 37.2 47.2802 24.12C47.2802 10.92 36.7202 0.359985 23.7602 0.359985Z" fill="black"/>
<path fill-rule="evenodd" clip-rule="evenodd" d="M42.3602 30.24L34.9202 24L42.3602 17.76L44.6402 20.64L40.5602 24L44.6402 27.36L42.3602 30.24ZM39.4802 37.2L30.4802 29.88H23.0402V44.76H19.4402V26.28H31.8002L41.7602 34.32L39.4802 37.2ZM34.2002 42.12L30.1202 38.76V43.92L26.5202 44.88V33.48H29.5202L37.2002 39.96L34.2002 42.12ZM15.8402 39L12.2402 42.24V6.23999L15.8402 9.47999V39ZM8.76016 34.56L5.16016 31.44V17.52L8.76016 14.16V34.56ZM19.3202 3.35999H22.9202V18.24H30.3602L39.3602 10.92L41.6402 13.8L31.6802 21.84H19.3202V3.35999ZM26.5202 3.83999L30.1202 4.79999V9.95999L34.2002 6.59999L37.2002 8.75999L29.5202 15.24H26.5202V3.83999Z" fill="#FFC700"/>
</svg>
