<svg width="186" height="48" viewBox="0 0 186 48" fill="none" xmlns="http://www.w3.org/2000/svg">
<g clip-path="url(#clip0_8235_100309)">
<path d="M0.226137 11.6015C0.377262 11.493 0.617512 11.4375 0.945595 11.4375H4.03139C4.41501 11.4375 4.67464 11.4853 4.81285 11.5809C4.94976 11.6765 5.01822 11.9154 5.01822 12.2965V31.2388C5.01822 32.3018 5.2856 33.0523 5.82035 33.4888C6.3551 33.9254 7.08747 34.1437 8.02135 34.1437H15.2314C15.5324 34.1437 15.8786 34.1695 16.0839 34.3413C16.2279 34.461 16.249 34.5493 16.2948 34.7406C16.3148 34.8241 16.3394 34.9271 16.381 35.0608C16.5179 35.5025 16.7918 37.6144 16.7918 37.6144C16.7918 37.8301 16.7918 37.989 16.6497 38.135C16.5089 38.2796 16.2144 38.3959 15.978 38.4618C15.7429 38.5263 15.2883 38.5625 14.6179 38.5625H7.23989C5.81389 38.5625 4.6333 38.3571 3.70201 37.949C2.76943 37.5395 2.0293 36.9931 1.48035 36.3111C0.930845 35.6275 0.537988 34.8316 0.32947 33.9797C0.106925 33.0831 -0.00370906 32.1625 9.48427e-05 31.2388V12.2965C9.48427e-05 11.9425 0.0750115 11.71 0.226137 11.6015Z" fill="black"/>
<path d="M51.6668 32.4723C51.6836 33.4772 51.5079 34.3607 51.1411 35.1202C50.7864 35.8667 50.257 36.5168 49.5975 37.015C48.8912 37.5382 48.0922 37.923 47.2428 38.1491C46.2785 38.4122 45.2844 38.5502 44.2849 38.5599C42.9464 38.5733 41.6092 38.4705 40.2885 38.2525C39.6039 38.1388 38.9426 37.9812 38.3058 37.7771C37.6969 37.5871 37.1077 37.3388 36.5465 37.0357C36.1642 36.842 36.0712 36.541 36.2662 36.1341L37.1381 34.008C37.2608 33.7794 37.3835 33.6335 37.5101 33.5689C37.6354 33.503 37.8369 33.5301 38.1172 33.6515C39.0343 34.0636 40.0508 34.3775 41.1655 34.597C42.2815 34.8166 43.2684 34.92 44.1286 34.9045C45.1878 34.8851 45.9809 34.6642 46.5053 34.2405C47.0271 33.8156 47.2829 33.2783 47.2725 32.6234C47.2596 31.8949 46.9083 31.3227 46.2185 30.9068C45.5288 30.4921 44.498 30.0452 43.125 29.566C42.1969 29.2523 41.2858 28.8902 40.3957 28.481C39.6194 28.1193 38.9749 27.7086 38.4608 27.2526C37.9668 26.8222 37.5644 26.2969 37.2776 25.7078C37.0025 25.1343 36.8578 24.4704 36.8449 23.716C36.822 22.9322 36.9646 22.1523 37.2634 21.4272C37.5589 20.7279 38.0125 20.1067 38.5887 19.6124C39.1789 19.0996 39.9165 18.6902 40.8 18.3853C41.6848 18.0818 42.7065 17.919 43.869 17.8984C44.9362 17.8803 46.003 17.9564 47.0568 18.1257C48.1212 18.2962 49.1493 18.5739 50.1413 18.9588C50.3441 19.0557 50.4668 19.1784 50.5081 19.3295C50.5481 19.5038 50.5446 19.6853 50.4978 19.8578L49.6647 22.0214C49.5924 22.2242 49.4994 22.3391 49.3857 22.3663C49.2733 22.3921 49.1144 22.3701 48.9104 22.2991C47.9197 21.9633 47.0504 21.7411 46.3038 21.6274C45.5546 21.515 44.7525 21.466 43.8935 21.4815C42.9584 21.497 42.2802 21.7049 41.8579 22.1015C41.4355 22.4993 41.2275 22.9359 41.2366 23.4138C41.243 23.7651 41.3167 24.0661 41.4613 24.3141C41.6034 24.5634 41.8294 24.792 42.1356 25.0013C42.443 25.2079 42.8447 25.4223 43.3407 25.6393C43.8367 25.8576 44.4412 26.0863 45.1529 26.3239C45.9667 26.612 46.761 26.9181 47.5386 27.2449C48.3136 27.5704 49.0034 27.9682 49.6053 28.4332C50.2072 28.9021 50.6967 29.4588 51.0752 30.1059C51.4524 30.753 51.65 31.5423 51.6655 32.4723H51.6668Z" fill="black"/>
<path d="M65.5031 38.0019C64.6515 38.2711 63.77 38.4342 62.8784 38.4875C62.0027 38.5366 61.3207 38.5625 60.8324 38.5625C58.7219 38.5625 57.2287 38.1272 56.3555 37.2553C55.4798 36.3834 55.0432 35.0517 55.0432 33.2589L55.1439 22.6569H52.3023C52.0414 22.6569 51.907 22.5923 51.7985 22.4812C51.6913 22.3701 51.6358 22.2616 51.6849 22.0782C51.7365 21.8974 52.4392 20.102 52.4392 20.102C52.458 20.0729 52.5055 19.9751 52.5567 19.8697C52.6215 19.7363 52.6922 19.5908 52.7182 19.5569C52.7957 19.4587 52.9068 19.389 53.2116 19.389H55.1116V15.7736C55.1116 15.3545 55.2822 15.228 55.404 15.1376C55.4256 15.1216 55.4457 15.1068 55.463 15.0916C55.5792 14.9921 55.7781 14.8927 56.0623 14.7932L58.8265 14.0479C59.0306 13.9975 59.1985 14.0169 59.3276 14.1035C59.4555 14.1913 59.5214 14.3721 59.5214 14.646V19.389H63.399C63.6819 19.389 63.8549 19.4458 63.9195 19.5569C63.9841 19.6693 64.0164 19.8126 64.0164 19.987V22.0214C64.0164 22.2461 63.9841 22.4089 63.9195 22.507C63.8549 22.6065 63.6819 22.6569 63.399 22.6569H59.5201V32.6983C59.5201 33.4953 59.7139 34.0429 60.0988 34.3413C60.4863 34.641 61.0766 34.7895 61.8748 34.7895C62.6173 34.7801 63.3585 34.7241 64.0939 34.6216L64.7694 34.5286C65.0265 34.4795 65.1931 34.4847 65.2706 34.5467C65.3481 34.61 65.3998 34.7275 65.4256 34.9019L65.8493 37.2915C65.8751 37.4426 65.8816 37.573 65.8686 37.6841C65.8557 37.7965 65.7343 37.9037 65.5031 38.0019Z" fill="black"/>
<path fill-rule="evenodd" clip-rule="evenodd" d="M32.869 37.2426C33.3456 37.0165 33.5833 36.6019 33.5833 35.9974V24.6837C33.5833 22.4724 32.9762 20.7867 31.7621 19.6307C30.5466 18.4747 28.6375 17.896 26.0322 17.896C24.9291 17.896 23.7537 17.9774 22.5021 18.1401C21.3206 18.2863 20.1604 18.5712 19.0456 18.9887C18.7201 19.114 18.6064 19.3788 18.7072 19.7805L19.2329 21.9312C19.2833 22.1559 19.3711 22.2954 19.4964 22.3445C19.6204 22.3949 19.8219 22.382 20.0983 22.3083C20.7235 22.1055 21.5372 21.9299 22.5395 21.7787C23.5406 21.6289 24.4667 21.5527 25.3192 21.5527C26.12 21.5527 26.7711 21.6354 27.2722 21.7981C27.7721 21.9622 28.1673 22.1934 28.4567 22.4956C28.7399 22.7906 28.9404 23.155 29.0379 23.5522C29.1374 23.9539 29.1878 24.3931 29.1878 24.871V25.5142H24.9808C23.4786 25.5142 22.2063 25.7028 21.1678 26.08C20.128 26.4572 19.2833 26.9532 18.6323 27.5693C17.9965 28.1622 17.5134 28.9 17.2243 29.7199C16.935 30.5362 16.7916 31.3849 16.7916 32.2645C16.7869 33.09 16.9138 33.9111 17.1675 34.6967C17.4224 35.4717 17.8831 36.1629 18.5005 36.6962C19.1399 37.262 20.004 37.714 21.0929 38.0537C22.183 38.3922 23.5535 38.5627 25.2068 38.5627C25.8075 38.5627 26.4391 38.5446 27.103 38.5058C27.7669 38.4671 28.4373 38.3986 29.1128 38.2992C29.7897 38.1971 30.4471 38.0602 31.0865 37.8832C31.7246 37.7076 32.3188 37.4945 32.869 37.2426ZM25.544 28.87H29.1516V34.4138C28.8248 34.5404 28.467 34.6412 28.0795 34.7161C27.692 34.791 27.3226 34.8543 26.9713 34.9047C26.6416 34.9533 26.3096 34.9848 25.9767 34.999C25.6628 35.0119 25.4187 35.017 25.2443 35.017C24.0418 35.017 23.0782 34.8039 22.351 34.3764C21.6238 33.9488 21.2621 33.1958 21.2621 32.1134C21.2621 31.359 21.4055 30.7687 21.6935 30.3412C21.9828 29.915 22.3445 29.5869 22.7837 29.3595C23.2215 29.1348 23.6853 28.9966 24.1735 28.9462C24.6618 28.8958 25.1177 28.87 25.544 28.87Z" fill="black"/>
<path fill-rule="evenodd" clip-rule="evenodd" d="M72.923 37.7152C72.923 38.0924 72.8649 38.3274 72.7473 38.4217C72.6311 38.516 72.1519 38.5625 71.7889 38.5625H69.3528C69.0686 38.5625 68.8478 38.5083 68.6915 38.4011C68.5365 38.2939 68.459 38.0652 68.459 37.7165V13.7587C68.459 13.4525 68.5262 12.9294 68.5765 12.684C68.5891 12.6237 68.5994 12.5699 68.6088 12.5211C68.6554 12.2783 68.6785 12.1583 68.8323 11.9658C69.0299 11.7191 69.3309 11.5499 69.7364 11.4595C69.8843 11.427 69.9872 11.4354 70.1184 11.4461C70.1958 11.4524 70.2831 11.4595 70.3952 11.4595H77.7964C79.092 11.4595 80.2764 11.6674 81.3524 12.0847C82.4284 12.5019 83.348 13.0922 84.1127 13.8594C84.888 14.6431 85.4962 15.576 85.9004 16.6016C86.3279 17.6647 86.5423 18.8272 86.5423 20.0904C86.5423 20.8163 86.4312 21.6843 86.2117 22.6931C85.9921 23.7006 85.5503 24.6758 84.8903 25.6162C84.229 26.5591 83.3015 27.3573 82.1106 28.0161C80.9184 28.6748 79.3503 29.0042 77.4077 29.0042H72.923V37.7152ZM81.8859 18.9214C81.7438 18.3841 81.4971 17.8933 81.147 17.4489C80.7983 17.0059 80.3113 16.6378 79.69 16.3407C79.0674 16.0449 78.2769 15.8977 77.3185 15.8977H72.6763V24.8515H77.396C79.0287 24.8515 80.2209 24.4343 80.9727 23.6012C81.7231 22.768 82.1003 21.705 82.1003 20.4146C82.1003 19.9574 82.0279 19.4601 81.8859 18.9227V18.9214Z" fill="#D32D27"/>
<path d="M118.308 35.1215C117.953 35.8675 117.424 36.517 116.765 37.0151C116.058 37.5382 115.259 37.9229 114.41 38.1492C113.446 38.4122 112.452 38.5503 111.452 38.5599C110.114 38.5733 108.777 38.4705 107.457 38.2525C106.772 38.1389 106.11 37.9813 105.473 37.7772C104.864 37.587 104.275 37.3388 103.714 37.0358C103.331 36.842 103.238 36.5411 103.433 36.1342L104.305 34.0081C104.428 33.7795 104.551 33.6335 104.677 33.5689C104.803 33.5031 105.004 33.5302 105.284 33.6516C106.201 34.0637 107.218 34.3775 108.333 34.5971C109.449 34.8167 110.436 34.92 111.295 34.9045C112.356 34.8852 113.148 34.6643 113.671 34.2406C114.194 33.8157 114.45 33.2783 114.438 32.6234C114.426 31.8949 114.076 31.324 113.386 30.9068C112.696 30.4922 111.665 30.0453 110.292 29.5661C109.364 29.2524 108.453 28.8902 107.563 28.4811C106.787 28.1194 106.142 27.7087 105.628 27.2527C105.134 26.8224 104.732 26.297 104.445 25.7079C104.17 25.1344 104.025 24.4704 104.012 23.7161C103.989 22.9322 104.132 22.1523 104.431 21.4273C104.726 20.728 105.18 20.1068 105.756 19.6125C106.346 19.0997 107.084 18.6902 107.967 18.3854C108.851 18.0819 109.874 17.9191 111.036 17.8984C112.103 17.8804 113.17 17.9565 114.224 18.1258C115.288 18.2963 116.317 18.574 117.309 18.9589C117.511 19.0558 117.634 19.1785 117.674 19.3296C117.714 19.5038 117.711 19.6852 117.665 19.8579L116.831 22.0214C116.76 22.2242 116.665 22.3392 116.553 22.3663C116.439 22.3922 116.282 22.3702 116.078 22.2992C115.087 21.9633 114.218 21.7412 113.47 21.6275C112.722 21.5151 111.92 21.466 111.061 21.4815C110.126 21.497 109.447 21.705 109.025 22.1015C108.601 22.4994 108.395 22.9359 108.404 23.4139C108.41 23.7652 108.484 24.0662 108.629 24.3142C108.771 24.5634 108.997 24.7921 109.303 25.0013C109.61 25.208 110.012 25.4224 110.508 25.6394C111.004 25.8577 111.608 26.0863 112.32 26.324C113.134 26.612 113.928 26.9182 114.706 27.2449C115.481 27.5704 116.171 27.9683 116.773 28.4333C117.374 28.9022 117.864 29.4589 118.241 30.106C118.618 30.7531 118.817 31.5423 118.833 32.4723C118.851 33.4772 118.675 34.3607 118.308 35.1202V35.1215Z" fill="#D32D27"/>
<path d="M133.81 35.1202C134.175 34.3607 134.351 33.4772 134.334 32.4723H134.333C134.317 31.5423 134.12 30.7531 133.742 30.106C133.364 29.4589 132.874 28.9022 132.273 28.4333C131.671 27.9683 130.981 27.5704 130.206 27.2449C129.42 26.9154 128.625 26.6083 127.821 26.324C127.108 26.0863 126.505 25.8577 126.008 25.6394C125.512 25.4224 125.11 25.208 124.803 25.0013C124.497 24.7921 124.271 24.5634 124.129 24.3142C123.984 24.0662 123.91 23.7652 123.904 23.4139C123.895 22.9359 124.103 22.4994 124.525 22.1015C124.946 21.705 125.627 21.497 126.561 21.4815C127.42 21.466 128.222 21.5151 128.971 21.6275C129.718 21.7412 130.587 21.9633 131.578 22.2992C131.782 22.3702 131.939 22.3922 132.053 22.3663C132.167 22.3392 132.26 22.2242 132.332 22.0214L133.165 19.8579C133.212 19.6853 133.216 19.5039 133.175 19.3296C133.134 19.1785 133.013 19.0558 132.809 18.9589C131.817 18.574 130.788 18.2963 129.724 18.1258C128.66 17.9553 127.597 17.8804 126.536 17.8984C125.374 17.9191 124.352 18.0819 123.469 18.3854C122.584 18.6902 121.846 19.0997 121.256 19.6125C120.667 20.1266 120.224 20.7298 119.931 21.4273C119.632 22.1524 119.49 22.9323 119.512 23.7161C119.525 24.4704 119.67 25.1344 119.945 25.7079C120.232 26.2969 120.634 26.8223 121.128 27.2527C121.642 27.7087 122.287 28.1194 123.063 28.4811C123.953 28.8902 124.864 29.2524 125.792 29.5661C127.165 30.0453 128.196 30.4922 128.886 30.9068C129.576 31.324 129.927 31.8949 129.94 32.6234C129.95 33.2783 129.694 33.8157 129.173 34.2406C128.648 34.6643 127.855 34.8852 126.796 34.9045C125.937 34.92 124.949 34.8167 123.833 34.5971C122.718 34.3775 121.702 34.0637 120.784 33.6516C120.504 33.5302 120.303 33.5031 120.177 33.5689C120.051 33.6335 119.928 33.7795 119.805 34.0081L118.933 36.1342C118.738 36.5411 118.831 36.842 119.214 37.0358C119.775 37.3388 120.364 37.587 120.973 37.7772C121.622 37.9834 122.285 38.1423 122.957 38.2525C124.277 38.4706 125.614 38.5735 126.952 38.5599C127.952 38.5503 128.946 38.4122 129.91 38.1492C130.759 37.9229 131.558 37.5381 132.265 37.0151C132.924 36.5168 133.454 35.8668 133.81 35.1202Z" fill="#D32D27"/>
<path fill-rule="evenodd" clip-rule="evenodd" d="M100.751 35.9987C100.751 36.6019 100.513 37.0165 100.036 37.2426C99.4596 37.5031 98.8631 37.7174 98.2524 37.8832C97.6144 38.0602 96.9569 38.1984 96.2801 38.2992C95.6136 38.3985 94.943 38.4674 94.2702 38.5058C93.6063 38.5446 92.9747 38.5627 92.3741 38.5627C90.7207 38.5627 89.349 38.3935 88.2601 38.0537C87.1712 37.714 86.3071 37.262 85.6677 36.6962C85.0507 36.1626 84.59 35.4715 84.3347 34.6967C84.0813 33.911 83.9544 33.09 83.9589 32.2645C83.9589 31.3849 84.1022 30.5362 84.3903 29.7199C84.6798 28.8999 85.1633 28.1621 85.7995 27.5693C86.4505 26.9532 87.2965 26.4572 88.335 26.08C89.3748 25.7028 90.6458 25.5142 92.148 25.5142H96.355V24.871C96.355 24.3931 96.3059 23.9539 96.2051 23.5522C96.1082 23.1548 95.9076 22.7903 95.6239 22.4956C95.3346 22.1934 94.9393 21.9609 94.4394 21.7981C93.9383 21.6341 93.2873 21.5527 92.4864 21.5527C91.6339 21.5527 90.5037 21.7775 89.8773 21.979C89.6021 22.0552 89.4019 22.0668 89.2766 22.0177C89.1514 21.966 89.0635 21.8278 89.0144 21.6018L88.4874 19.4525C88.388 19.0507 88.5004 18.786 88.8259 18.6607C89.8773 18.2577 92.0976 17.896 93.1994 17.896C95.8047 17.896 97.7138 18.4747 98.928 19.6307C100.142 20.7867 100.751 22.4724 100.751 24.6837V35.9987ZM92.7112 28.87C92.2849 28.87 91.829 28.8958 91.3407 28.9462C90.8555 28.9951 90.384 29.1354 89.9509 29.3595C89.5117 29.5869 89.1501 29.915 88.8607 30.3412C88.5727 30.7675 88.4293 31.359 88.4293 32.1134C88.4293 33.1945 88.7923 33.9488 89.5182 34.3764C90.2454 34.8039 91.209 35.017 92.4115 35.017C92.5859 35.017 92.83 35.0119 93.1439 34.999C93.4565 34.986 93.7884 34.955 94.1385 34.9047C94.4898 34.8543 94.8592 34.791 95.2467 34.7161C95.6342 34.6412 95.992 34.5404 96.3188 34.4138V28.87H92.7112Z" fill="#D32D27"/>
<path d="M144.667 32.1042C146.807 32.1042 148.542 30.3694 148.542 28.2292C148.542 26.0891 146.807 24.3542 144.667 24.3542C142.527 24.3542 140.792 26.0891 140.792 28.2292C140.792 30.3694 142.527 32.1042 144.667 32.1042Z" fill="#D32D27"/>
<path d="M158.875 32.1042C161.016 32.1042 162.75 30.3694 162.75 28.2292C162.75 26.0891 161.016 24.3542 158.875 24.3542C156.735 24.3542 155 26.0891 155 28.2292C155 30.3694 156.735 32.1042 158.875 32.1042Z" fill="#D32D27"/>
<path d="M173.084 32.1042C175.224 32.1042 176.959 30.3694 176.959 28.2292C176.959 26.0891 175.224 24.3542 173.084 24.3542C170.944 24.3542 169.209 26.0891 169.209 28.2292C169.209 30.3694 170.944 32.1042 173.084 32.1042Z" fill="#D32D27"/>
<path d="M184.709 16.604C183.991 16.604 183.417 17.1827 183.417 17.8957V37.2707C183.417 37.9746 183.996 38.5623 184.709 38.5623C185.427 38.5623 186.001 37.9837 186.001 37.2707V17.8957C186.001 17.1917 185.422 16.604 184.709 16.604Z" fill="#D32D27"/>
</g>
<defs>
<clipPath id="clip0_8235_100309">
<rect width="186" height="48" fill="white"/>
</clipPath>
</defs>
</svg>
