<svg width="48" height="48" viewBox="0 0 48 48" fill="none" xmlns="http://www.w3.org/2000/svg">
<path fill-rule="evenodd" clip-rule="evenodd" d="M29 3H14C11.2386 3 9 5.23858 9 8V20H8C6.34315 20 5 21.3431 5 23V35C5 36.6569 6.34315 38 8 38H9V40C9 42.7614 11.2386 45 14 45H34C36.7614 45 39 42.7614 39 40V38H40C41.6569 38 43 36.6569 43 35V23C43 21.3431 41.6569 20 40 20H39V13L29 3ZM11 40V38H37V40C37 41.6569 35.6569 43 34 43H14C12.3431 43 11 41.6569 11 40ZM11 20H37V15H27V5H14C12.3431 5 11 6.34315 11 8V20ZM29 5.82843L36.1716 13H29V5.82843ZM17.7589 34.2137C16.9389 34.6107 15.8682 34.8091 14.5468 34.8091C12.8232 34.8091 11.4678 34.3025 10.4807 33.2893C9.49357 32.276 9 30.9259 9 29.2389C9 27.4422 9.55363 25.985 10.6609 24.8672C11.7734 23.7495 13.2149 23.1907 14.9855 23.1907C16.0823 23.1907 17.0068 23.3291 17.7589 23.6059V26.0424C17.0068 25.5932 16.1502 25.3686 15.1892 25.3686C14.1342 25.3686 13.2828 25.7003 12.6352 26.3636C11.9875 27.0269 11.6637 27.9253 11.6637 29.0587C11.6637 30.145 11.9692 31.012 12.5803 31.6597C13.1914 32.3021 14.014 32.6233 15.0482 32.6233C16.0353 32.6233 16.9389 32.3831 17.7589 31.9026V34.2137ZM19.6723 34.1824V31.6754C20.1267 32.0566 20.6203 32.3439 21.153 32.5371C21.6858 32.7252 22.2237 32.8192 22.7669 32.8192C23.0855 32.8192 23.3623 32.7905 23.5974 32.733C23.8376 32.6756 24.0361 32.5972 24.1928 32.498C24.3547 32.3935 24.4748 32.2734 24.5532 32.1376C24.6315 31.9966 24.6707 31.8451 24.6707 31.6832C24.6707 31.4638 24.608 31.268 24.4827 31.0956C24.3573 30.9233 24.185 30.764 23.9656 30.6177C23.7515 30.4715 23.4955 30.3304 23.1978 30.1947C22.9001 30.0589 22.5789 29.9204 22.2342 29.7794C21.3567 29.4138 20.7013 28.9673 20.2677 28.4397C19.8395 27.9122 19.6253 27.275 19.6253 26.5281C19.6253 25.9432 19.7428 25.4418 19.9779 25.0239C20.2129 24.6009 20.5315 24.2535 20.9337 23.982C21.3411 23.7104 21.8111 23.5119 22.3439 23.3865C22.8766 23.256 23.4407 23.1907 24.0361 23.1907C24.6211 23.1907 25.1382 23.2272 25.5873 23.3004C26.0417 23.3683 26.4596 23.4753 26.8408 23.6216V25.9641C26.6528 25.8335 26.4465 25.7186 26.2219 25.6193C26.0026 25.5201 25.7754 25.4392 25.5403 25.3765C25.3053 25.3086 25.0703 25.259 24.8352 25.2276C24.6054 25.1963 24.386 25.1806 24.1771 25.1806C23.8899 25.1806 23.6287 25.2093 23.3937 25.2668C23.1587 25.319 22.9602 25.3948 22.7983 25.494C22.6364 25.5932 22.511 25.7134 22.4222 25.8544C22.3334 25.9902 22.289 26.1443 22.289 26.3166C22.289 26.5046 22.3386 26.6744 22.4379 26.8258C22.5371 26.9721 22.6781 27.1131 22.8609 27.2489C23.0437 27.3795 23.2657 27.5101 23.5269 27.6406C23.788 27.766 24.0831 27.8966 24.4122 28.0324C24.8613 28.2204 25.2635 28.4215 25.6187 28.6356C25.979 28.8445 26.2872 29.0822 26.5431 29.3485C26.799 29.6149 26.9949 29.9204 27.1307 30.2652C27.2665 30.6047 27.3344 31.0016 27.3344 31.456C27.3344 32.0827 27.2143 32.6103 26.974 33.0385C26.739 33.4616 26.4178 33.8063 26.0104 34.0727C25.603 34.3338 25.1277 34.5219 24.5845 34.6368C24.0466 34.7517 23.4773 34.8091 22.8766 34.8091C22.2603 34.8091 21.6727 34.7569 21.1139 34.6524C20.5602 34.548 20.0797 34.3913 19.6723 34.1824ZM35.1393 34.6133L39.0095 23.3787H36.3615L34.0347 31.1661C33.9093 31.584 33.8284 31.9678 33.7918 32.3178H33.7448C33.7187 31.994 33.643 31.6205 33.5176 31.1975L31.1751 23.3787H28.4487L32.2719 34.6133H35.1393Z" fill="black" fill-opacity="0.54"/>
</svg>
