<svg width="48" height="48" viewBox="0 0 48 48" fill="none" xmlns="http://www.w3.org/2000/svg">
<g clip-path="url(#clip0_9444_109469)">
<circle cx="24" cy="24" r="24" fill="#2979FF" fill-opacity="0.16"/>
<path d="M47.2 24C47.2 36.813 36.813 47.2 24 47.2C11.187 47.2 0.8 36.813 0.8 24C0.8 11.187 11.187 0.8 24 0.8C36.813 0.8 47.2 11.187 47.2 24Z" stroke="#2979FF" stroke-width="1.6"/>
<path d="M14.6667 21.6668C15.5871 21.6668 16.3333 22.413 16.3333 23.3334C16.3333 24.2539 15.5871 25.0001 14.6667 25.0001C13.7462 25.0001 13 24.2539 13 23.3334C13 22.413 13.7462 21.6668 14.6667 21.6668Z" fill="#2962FF"/>
<path d="M32.6667 21.6668C33.5871 21.6668 34.3333 22.413 34.3333 23.3334C34.3333 24.2539 33.5871 25.0001 32.6667 25.0001C31.7462 25.0001 31 24.2539 31 23.3334C31 22.413 31.7462 21.6668 32.6667 21.6668Z" fill="#2962FF"/>
<path d="M23.6667 21.6668C24.5871 21.6668 25.3333 22.413 25.3333 23.3334C25.3333 24.2539 24.5871 25.0001 23.6667 25.0001C22.7462 25.0001 22 24.2539 22 23.3334C22 22.413 22.7462 21.6668 23.6667 21.6668Z" fill="#2962FF"/>
</g>
<defs>
<clipPath id="clip0_9444_109469">
<rect width="48" height="48" fill="white" transform="translate(0 48) rotate(-90)"/>
</clipPath>
</defs>
</svg>
