<svg width="218" height="48" viewBox="0 0 218 48" fill="none" xmlns="http://www.w3.org/2000/svg">
<path fill-rule="evenodd" clip-rule="evenodd" d="M49.3223 35.5762H49.2414V38.5596H44.5482V7.99996H49.2414V21.5462H49.3223C50.9271 18.8047 53.2737 17.4339 56.3619 17.4339C58.9782 17.4339 61.0213 18.3612 62.4913 20.2158C63.9748 22.0569 64.7165 24.5296 64.7165 27.6339C64.7165 31.0877 63.8871 33.8561 62.2283 35.9391C60.5696 38.0087 58.3039 39.0434 55.4314 39.0434C52.7342 39.0434 50.6978 37.8877 49.3223 35.5762ZM49.2009 27.3719V29.932C49.2009 31.4371 49.6797 32.7138 50.6372 33.762C51.6081 34.8102 52.8354 35.3343 54.3188 35.3343C56.0585 35.3343 57.4206 34.6624 58.4051 33.3185C59.403 31.9612 59.902 30.0731 59.902 27.6541C59.902 25.6249 59.4367 24.0391 58.5062 22.8968C57.5892 21.7411 56.3417 21.1632 54.7639 21.1632C53.0916 21.1632 51.743 21.7545 50.7181 22.9371C49.7066 24.1197 49.2009 25.598 49.2009 27.3719Z" fill="#0D5BE4"/>
<path d="M71.8775 13.5837C71.1088 13.5837 70.448 13.3351 69.8951 12.8379C69.3557 12.3407 69.086 11.709 69.086 10.943C69.086 10.177 69.3557 9.53869 69.8951 9.02802C70.448 8.51735 71.1088 8.26201 71.8775 8.26201C72.6732 8.26201 73.3475 8.51735 73.9004 9.02802C74.4534 9.53869 74.7298 10.177 74.7298 10.943C74.7298 11.6687 74.4534 12.2936 73.9004 12.8177C73.3475 13.3284 72.6732 13.5837 71.8775 13.5837Z" fill="#0D5BE4"/>
<path d="M74.2039 38.5596H69.5108V17.9177H74.2039V38.5596Z" fill="#0D5BE4"/>
<path d="M87.6561 39.0233C89.1531 39.0233 90.3601 38.7948 91.2771 38.3379V34.6288C90.6972 35.0857 90.0094 35.3142 89.2138 35.3142C88.1753 35.3142 87.4336 35.0521 86.9886 34.528C86.5435 34.0039 86.321 33.1304 86.321 31.9075V21.5865H91.2771V17.9177H86.321V11.8098L81.6279 13.1403V17.9177H78.1687V21.5865H81.6279V33.2581C81.6279 37.1015 83.6373 39.0233 87.6561 39.0233Z" fill="#0D5BE4"/>
<path d="M113.145 38.5596H111.405L106.894 22.9976C106.772 22.5675 106.665 21.9897 106.57 21.264H106.469C106.442 21.5731 106.307 22.1375 106.064 22.9573L101.007 38.5596H99.2675L93.0168 17.9177H95.0801L99.8946 34.3869C100.016 34.817 100.11 35.3948 100.178 36.1205H100.34C100.367 35.7308 100.495 35.1529 100.724 34.3869L105.984 17.9177H107.258L111.951 34.3869C112.059 34.7766 112.153 35.3545 112.234 36.1205H112.396C112.396 35.7308 112.511 35.1529 112.74 34.3869L117.656 17.9177H119.577L113.145 38.5596Z" fill="#0D5BE4"/>
<path fill-rule="evenodd" clip-rule="evenodd" d="M136.003 34.4272V38.5596H137.864V25.1343C137.864 22.6213 137.278 20.7063 136.104 19.3893C134.945 18.0723 133.299 17.4138 131.169 17.4138C130.009 17.4138 128.768 17.6288 127.446 18.0588C126.138 18.4889 125.1 19.0063 124.331 19.611V21.8486C126.489 20.0209 128.707 19.1071 130.987 19.1071C134.331 19.1071 136.003 21.3245 136.003 25.7592L129.631 26.7067C124.844 27.4592 122.45 29.6363 122.45 33.2379C122.45 34.9177 123.023 36.3086 124.169 37.4106C125.316 38.5126 126.873 39.0636 128.842 39.0636C130.38 39.0636 131.775 38.647 133.03 37.8138C134.297 36.9671 135.262 35.8383 135.922 34.4272H136.003ZM125.727 29.7909C126.604 29.0921 128.128 28.5881 130.299 28.279L136.003 27.4525V29.4683C136.003 31.7932 135.342 33.6948 134.021 35.1731C132.699 36.6379 131.04 37.3703 129.045 37.3703C127.588 37.3703 126.448 36.9739 125.626 36.181C124.817 35.3881 124.412 34.3802 124.412 33.1573C124.412 31.5984 124.85 30.4762 125.727 29.7909Z" fill="#0D5BE4"/>
<path d="M153.865 19.8529C153.245 19.4094 152.517 19.1877 151.681 19.1877C150.049 19.1877 148.68 20.0276 147.574 21.7075C146.468 23.3873 145.915 25.7727 145.915 28.8636V38.5596H144.095V17.9177H145.915V22.4936H145.996C146.468 20.9213 147.217 19.6984 148.242 18.8249C149.267 17.9513 150.454 17.5146 151.802 17.5146C152.571 17.5146 153.259 17.6355 153.865 17.8774V19.8529Z" fill="#0D5BE4"/>
<path fill-rule="evenodd" clip-rule="evenodd" d="M171.626 34.8102V38.5596H173.488V7.99996H171.626V21.2237H171.546C170.224 18.6838 168.012 17.4138 164.91 17.4138C162.105 17.4138 159.82 18.4486 158.053 20.5181C156.3 22.5743 155.423 25.2687 155.423 28.6015C155.423 31.8671 156.226 34.4272 157.83 36.2818C159.449 38.1363 161.532 39.0636 164.081 39.0636C165.74 39.0636 167.23 38.6806 168.552 37.9146C169.873 37.1486 170.871 36.1138 171.546 34.8102H171.626ZM169.786 21.1229C171.013 22.4533 171.626 24.0794 171.626 26.0011V29.8513C171.626 31.9478 170.979 33.7284 169.684 35.1932C168.39 36.6446 166.562 37.3703 164.202 37.3703C162.193 37.3703 160.548 36.5976 159.267 35.0521C157.999 33.4932 157.365 31.2893 157.365 28.4403C157.365 25.5375 158.073 23.2596 159.489 21.6067C160.905 19.9403 162.699 19.1071 164.87 19.1071C166.933 19.1071 168.572 19.779 169.786 21.1229Z" fill="#0D5BE4"/>
<path fill-rule="evenodd" clip-rule="evenodd" d="M180.588 28.3193C180.588 31.1549 181.242 33.3723 182.55 34.9715C183.872 36.5707 185.679 37.3703 187.971 37.3703C190.291 37.3703 192.557 36.517 194.768 34.8102V36.7857C192.624 38.3043 190.23 39.0636 187.587 39.0636C184.917 39.0636 182.759 38.1094 181.114 36.2011C179.469 34.2928 178.646 31.5984 178.646 28.1177C178.646 25.1075 179.502 22.5743 181.215 20.5181C182.941 18.4486 185.18 17.4138 187.931 17.4138C190.507 17.4138 192.483 18.3142 193.858 20.115C195.234 21.9158 195.921 24.3751 195.921 27.4928V28.3193H180.588ZM193.979 26.626C193.899 24.2474 193.325 22.3996 192.26 21.0826C191.195 19.7656 189.725 19.1071 187.85 19.1071C185.908 19.1071 184.297 19.7588 183.015 21.0624C181.748 22.3525 180.966 24.2071 180.669 26.626H193.979Z" fill="#0D5BE4"/>
<path d="M215.139 26.5454V38.5596H217V26.0011C217 23.2462 216.407 21.1296 215.22 19.6513C214.033 18.1596 212.32 17.4138 210.082 17.4138C206.872 17.4138 204.512 18.8316 203.002 21.6671H202.921V17.9177H201.06V38.5596H202.921V26.7067C202.921 24.5565 203.561 22.7557 204.842 21.3043C206.124 19.8395 207.762 19.1071 209.758 19.1071C213.345 19.1071 215.139 21.5865 215.139 26.5454Z" fill="#0D5BE4"/>
<path fill-rule="evenodd" clip-rule="evenodd" d="M4 10.8027C4 9.78937 4.82437 8.97292 5.84128 8.97292H29.778C30.7949 8.97292 31.6193 9.78937 31.6193 10.8027V27.6404C31.6193 34.3415 17.8096 42 17.8096 42C17.8096 42 4 34.3415 4 27.6404V10.8027ZM17.8097 12.6426H26.0954C27.1123 12.6426 27.9367 13.4638 27.9367 14.4771V26.6432C27.9367 31.669 17.8097 37.4129 17.8097 37.4129C17.8096 30.9175 17.8096 24.7285 17.8097 17.8627L17.8097 12.6426Z" fill="#0D5BE4"/>
</svg>
