<svg width="195" height="48" viewBox="0 0 195 48" fill="none" xmlns="http://www.w3.org/2000/svg">
<path d="M0.0205078 6.70288L14.2571 20.4795H14.1524V27.6882L20.7943 34.1156L27.1537 27.9617V20.6517L20.7944 26.8055L14.2571 20.4795H27.1538L27.1537 20.6517L41.5682 6.70288V22.7287L20.7944 42.8314L0.0205078 22.7287V6.70288Z" fill="#00A591"/>
<path d="M109.401 18.2933H119.704L113.265 10.0142H102.501L109.401 18.2933Z" fill="black" fill-opacity="0.7"/>
<path d="M137.276 10.0142L124.856 24.9172L124.856 38.9921H114.921V24.9171L126.512 10.0142H137.276Z" fill="black" fill-opacity="0.7"/>
<path d="M56.9648 10.0144H66.072L76.8353 20.7777L87.5986 10.0144H96.706V38.9924H87.5986L87.5986 21.6056L76.8353 32.3689L66.0722 21.6058V38.9924H56.9648V10.0144Z" fill="black" fill-opacity="0.7"/>
<path d="M193.576 10.0144H184.468V38.9924H193.576V10.0144Z" fill="black" fill-opacity="0.7"/>
<path d="M161.647 24.9174L175.722 38.9924H164.131L151.35 26.2119V38.9925H142.243V10.0144H151.35V23.6229L164.959 10.0144H176.55L161.647 24.9174Z" fill="black" fill-opacity="0.7"/>
</svg>
