<svg width="177" height="48" viewBox="0 0 177 48" fill="none" xmlns="http://www.w3.org/2000/svg">
<g clip-path="url(#clip0_8235_100401)">
<path d="M28 48.0195C41.2548 48.0195 52 37.2744 52 24.0195C52 10.7647 41.2548 0.0195312 28 0.0195312C14.7452 0.0195312 4 10.7647 4 24.0195C4 37.2744 14.7452 48.0195 28 48.0195Z" fill="url(#paint0_linear_8235_100401)"/>
<path d="M27.9368 11.9768H37.6921C38.3573 11.9716 39.015 12.1181 39.6153 12.4048C40.1977 12.6804 40.716 13.0747 41.1366 13.5627H41.1614C41.4846 13.9397 41.7475 14.3645 41.9407 14.8216C42.1438 15.3001 42.2546 15.8124 42.2677 16.3321V16.3569C42.2687 17.3244 42.1503 18.288 41.916 19.2265L41.9407 19.1507C41.7227 20.3759 41.5047 21.609 41.2872 22.8506L40.6337 26.5758C40.4494 27.6509 40.265 28.7207 40.0807 29.7855C39.8964 30.8498 39.7037 31.9117 39.5025 32.9708C39.2326 34.1698 38.6113 35.2612 37.7178 36.1052C36.8453 36.9528 35.7277 37.5035 34.5236 37.6775L34.473 37.7023C34.3388 37.7191 34.1961 37.7318 34.0459 37.7402C33.8953 37.7486 33.7447 37.7528 33.5936 37.7523H22.3029C21.5792 37.7584 20.8616 37.6213 20.1907 37.3491C19.5363 37.1068 18.9281 36.7536 18.3934 36.3054C17.8615 35.8558 17.4143 35.3146 17.0732 34.7069C16.7205 34.0987 16.4744 33.4344 16.3458 32.7435V32.6934C15.5917 28.4307 14.8287 24.1764 14.0582 19.9305C13.9913 19.5109 13.9159 19.0871 13.8322 18.659C13.7485 18.2314 13.6811 17.8076 13.6306 17.3875C13.6142 17.2701 13.5969 17.1442 13.5805 17.0105C13.5632 16.8687 13.5548 16.7256 13.5557 16.5824C13.5553 14.3963 15.1051 12.5176 17.2515 12.1017L17.2762 12.0769C17.455 12.0418 17.6355 12.0165 17.817 12.0011C18.0098 11.9847 18.2067 11.9763 18.4079 11.9763H27.9372L27.9368 11.9768ZM25.3956 29.597V32.2148C25.3905 32.5872 25.5355 32.9456 25.7989 33.2089C26.0608 33.4826 26.4257 33.6332 26.8047 33.6234H29.0675C29.8436 33.6183 30.4709 32.9895 30.4756 32.2134V27.0296C30.4737 26.9374 30.4952 26.8462 30.5387 26.7653C30.5804 26.69 30.6477 26.632 30.7287 26.6016C33.0139 25.2178 33.9355 22.3646 32.8909 19.9057C32.6168 19.2672 32.2247 18.6866 31.7349 18.194C30.7259 17.1915 29.3608 16.6306 27.9386 16.6339C27.7029 16.6339 27.468 16.6507 27.2346 16.6839C26.9997 16.7176 26.7654 16.7597 26.5305 16.8102H26.5806C24.9554 17.1541 23.602 18.2735 22.9602 19.8056L22.9354 19.8304C22.8152 20.1434 22.7267 20.4671 22.6715 20.7979C22.6126 21.1426 22.5836 21.4916 22.5836 21.8416C22.5738 22.8118 22.8212 23.7671 23.3003 24.6105C23.7531 25.4231 24.3959 26.1141 25.1734 26.6245L25.1982 26.6493C25.259 26.6773 25.3109 26.7208 25.3488 26.7756C25.383 26.828 25.4003 26.8893 25.3989 26.9519V29.5946L25.3956 29.597Z" fill="white"/>
<path d="M70.6709 39V14.52H86.5109V18.84H75.6389V24.564H84.3509V28.812H75.6389V34.68H86.5109V39H70.6709Z" fill="black" fill-opacity="0.87"/>
<path d="M94.5465 39H89.7225V21H94.5105V22.008C96.1425 21.048 97.6425 20.568 99.0105 20.568C101.41 20.568 103.066 21.276 103.978 22.692C104.89 24.108 105.346 26.292 105.346 29.244V39H100.522V29.388C100.522 27.852 100.342 26.724 99.9825 26.004C99.6225 25.26 98.9025 24.888 97.8225 24.888C96.8385 24.888 95.8905 25.056 94.9785 25.392L94.5465 25.536V39Z" fill="black" fill-opacity="0.87"/>
<path d="M109.171 46.56V21H113.959V21.972C115.519 21.036 116.887 20.568 118.063 20.568C120.487 20.568 122.275 21.3 123.427 22.764C124.579 24.204 125.155 26.664 125.155 30.144C125.155 33.624 124.519 36.048 123.247 37.416C121.975 38.76 119.887 39.432 116.983 39.432C116.191 39.432 115.339 39.36 114.427 39.216L113.995 39.144V46.56H109.171ZM117.127 24.888C116.239 24.888 115.339 25.068 114.427 25.428L113.995 25.608V35.04C115.075 35.184 115.951 35.256 116.623 35.256C118.015 35.256 118.963 34.848 119.467 34.032C119.995 33.216 120.259 31.824 120.259 29.856C120.259 26.544 119.215 24.888 117.127 24.888Z" fill="black" fill-opacity="0.87"/>
<path d="M142.091 26.616V34.104C142.139 34.68 142.235 35.088 142.379 35.328C142.523 35.544 142.823 35.7 143.279 35.796L143.135 39.432C141.911 39.432 140.927 39.348 140.183 39.18C139.463 39.012 138.731 38.676 137.987 38.172C136.259 39.012 134.495 39.432 132.695 39.432C128.975 39.432 127.115 37.464 127.115 33.528C127.115 31.608 127.631 30.252 128.663 29.46C129.695 28.644 131.279 28.164 133.415 28.02L137.267 27.732V26.616C137.267 25.872 137.099 25.368 136.763 25.104C136.427 24.816 135.887 24.672 135.143 24.672L128.375 24.96L128.231 21.612C130.799 20.916 133.235 20.568 135.539 20.568C137.867 20.568 139.535 21.048 140.543 22.008C141.575 22.968 142.091 24.504 142.091 26.616ZM133.991 31.368C132.647 31.488 131.975 32.208 131.975 33.528C131.975 34.848 132.563 35.508 133.739 35.508C134.651 35.508 135.647 35.364 136.727 35.076L137.267 34.932V31.08L133.991 31.368Z" fill="black" fill-opacity="0.87"/>
<path d="M159.164 25.5C156.188 25.116 154.1 24.924 152.9 24.924C151.724 24.924 150.956 25.032 150.596 25.248C150.26 25.464 150.092 25.812 150.092 26.292C150.092 26.748 150.32 27.072 150.776 27.264C151.256 27.432 152.456 27.696 154.376 28.056C156.32 28.392 157.7 28.956 158.516 29.748C159.332 30.54 159.74 31.824 159.74 33.6C159.74 37.488 157.328 39.432 152.504 39.432C150.92 39.432 149 39.216 146.744 38.784L145.592 38.568L145.736 34.536C148.712 34.92 150.776 35.112 151.928 35.112C153.104 35.112 153.896 35.004 154.304 34.788C154.736 34.548 154.952 34.2 154.952 33.744C154.952 33.288 154.724 32.952 154.268 32.736C153.836 32.52 152.684 32.256 150.812 31.944C148.964 31.632 147.584 31.104 146.672 30.36C145.76 29.616 145.304 28.296 145.304 26.4C145.304 24.48 145.952 23.04 147.248 22.08C148.544 21.096 150.212 20.604 152.252 20.604C153.668 20.604 155.6 20.832 158.048 21.288L159.236 21.504L159.164 25.5Z" fill="black" fill-opacity="0.87"/>
<path d="M175.694 25.5C172.718 25.116 170.63 24.924 169.43 24.924C168.254 24.924 167.486 25.032 167.126 25.248C166.79 25.464 166.622 25.812 166.622 26.292C166.622 26.748 166.85 27.072 167.306 27.264C167.786 27.432 168.986 27.696 170.906 28.056C172.85 28.392 174.23 28.956 175.046 29.748C175.862 30.54 176.27 31.824 176.27 33.6C176.27 37.488 173.858 39.432 169.034 39.432C167.45 39.432 165.53 39.216 163.274 38.784L162.122 38.568L162.266 34.536C165.242 34.92 167.306 35.112 168.458 35.112C169.634 35.112 170.426 35.004 170.834 34.788C171.266 34.548 171.482 34.2 171.482 33.744C171.482 33.288 171.254 32.952 170.798 32.736C170.366 32.52 169.214 32.256 167.342 31.944C165.494 31.632 164.114 31.104 163.202 30.36C162.29 29.616 161.834 28.296 161.834 26.4C161.834 24.48 162.482 23.04 163.778 22.08C165.074 21.096 166.742 20.604 168.782 20.604C170.198 20.604 172.13 20.832 174.578 21.288L175.766 21.504L175.694 25.5Z" fill="black" fill-opacity="0.87"/>
</g>
<defs>
<linearGradient id="paint0_linear_8235_100401" x1="27.9998" y1="0.0193391" x2="27.9998" y2="48.0193" gradientUnits="userSpaceOnUse">
<stop stop-color="#365DC9"/>
<stop offset="1" stop-color="#222C94"/>
</linearGradient>
<clipPath id="clip0_8235_100401">
<rect width="177" height="48" fill="white"/>
</clipPath>
</defs>
</svg>
