<svg width="202" height="48" viewBox="0 0 202 48" fill="none" xmlns="http://www.w3.org/2000/svg">
<path fill-rule="evenodd" clip-rule="evenodd" d="M11.2534 11.7017V34.1035C11.2534 34.8034 11.2951 34.9344 11.9213 34.9777L15.3415 35.2843V38.7407H0.700208V35.2849L4.28693 34.9783C4.87129 34.9344 4.95477 34.7595 4.95477 34.1035V18.9968C4.95477 18.3698 4.50421 18.4738 1.36861 19.5854L0.211914 15.998L7.37794 11.7017H11.2534ZM25.0789 11.837H27.541C30.5016 11.837 32.9631 12.5801 32.9631 16.7802C32.9631 21.7233 29.9183 22.3793 27.1652 22.3793H25.0789V11.837ZM28.1241 27.0597H25.0789V34.0597C25.0789 34.7601 25.1212 34.8472 25.7473 34.9344L31.712 35.2843V38.7401H15.3599V35.2843L17.9877 34.9777C18.5709 34.8911 18.6555 34.7601 18.6555 34.1035V11.7498C18.6555 11.0939 18.5715 10.9183 17.9877 10.8744L15.3599 10.5684V7.06874H29.5009C37.2187 7.06874 39.5538 11.356 39.5538 16.3864C39.5538 23.9977 35.1747 27.0603 28.1241 27.0603V27.0597ZM51.4896 32.9666C50.5307 33.7098 49.1122 34.5418 47.6936 34.5418C46.3173 34.5418 45.3162 33.8853 45.3162 32.1352C45.3162 30.3856 46.1921 29.7291 48.6524 29.5548L51.4896 29.3359V32.9673V32.9666ZM70.6657 24.6116C73.9608 25.3986 77.6739 26.6238 77.6739 31.742C77.6739 37.0784 73.5445 39.2662 68.2465 39.2662C64.8159 39.2662 61.4619 38.41 60.292 37.8569V38.7407H52.6159L52.1985 36.3785L51.9899 36.3353C50.4049 37.9537 48.3191 39.2662 44.9817 39.2662C39.7265 39.2662 38.8912 35.5044 38.8912 32.7911C38.8912 28.4173 41.4784 26.405 46.6924 26.0551L51.4896 25.7052V23.2991C51.4896 21.243 51.2814 19.8433 48.6942 19.8433C46.693 19.8433 45.6496 20.1494 45.6496 22.7743L39.7671 22.2488C39.7671 16.3437 44.8988 15.5116 48.7365 15.5116C55.0774 15.5116 57.6218 17.3062 57.6218 23.4302V34.0603C57.6218 34.7601 57.6636 34.8478 58.2891 34.935L59.9867 35.2314V31.3476L64.4499 31.6981L64.8673 34.1913C64.9085 34.5851 64.9931 34.7601 65.3682 34.8472C65.8685 35.0228 66.9949 35.2849 68.5804 35.2849C70.7909 35.2849 72.0419 34.6296 72.0419 33.0105C72.0419 31.261 70.3735 30.7355 68.2465 30.3417C64.7427 29.6858 60.1536 28.8988 60.1536 23.1681C60.1536 17.7433 64.5752 15.5116 69.3723 15.5116C72.6675 15.5116 75.8797 16.2998 77.0484 16.7802V23.1236L72.5846 22.8181L72.1672 20.5426C72.126 20.1926 72.0419 20.0183 71.7509 19.9305C71.2083 19.7562 70.2071 19.5806 69.0807 19.5806C66.9949 19.5806 65.8268 20.4115 65.8268 21.8111C65.8268 23.6051 68.1213 23.9983 70.6657 24.6116ZM191.895 32.2229C190.768 33.2294 189.224 34.1041 187.806 34.1041C185.178 34.1041 184.01 31.7414 184.01 27.4986C184.01 23.6051 185.22 20.5864 188.308 20.5864C189.516 20.5864 190.852 21.1552 191.895 21.8995V32.2229ZM198.819 34.9789L200.82 35.2855V38.7413H193.061L192.645 36.2914L192.353 36.2469C190.601 38.0409 188.557 39.2656 185.512 39.2656C180.59 39.2656 177.42 35.9847 177.42 27.6297C177.42 18.8369 181.632 15.5122 186.263 15.5122C188.683 15.5122 190.559 16.387 192.145 17.6122V10.9622C192.145 10.5245 191.977 10.2185 191.602 10.0874L189.308 9.25596L189.767 5.7124H198.152V34.1468C198.152 34.8034 198.194 34.8911 198.819 34.9783V34.9789ZM128.573 19.7988C127.989 19.886 127.739 20.1055 127.572 20.6736L122.441 38.7401H115.85L112.596 24.0867H112.347L109.05 38.7407H101.541L96.2854 20.6309C96.1188 20.1055 95.9094 20.0177 95.4089 19.8866L95.0032 19.7958V23.1236L90.54 22.8181L90.1226 20.5426C90.0814 20.1926 89.9973 20.0183 89.7063 19.9305C89.1631 19.7562 88.1625 19.5806 87.0361 19.5806C84.9502 19.5806 83.7816 20.4115 83.7816 21.8111C83.7816 23.6051 86.0766 23.9995 88.621 24.6116C91.9162 25.3986 95.6297 26.6238 95.6297 31.742C95.6297 37.079 91.4999 39.2662 86.2013 39.2662C82.4053 39.2662 78.6928 38.2159 77.9415 37.691V31.3482L82.4053 31.6981L82.8227 34.1913C82.8639 34.5851 82.9485 34.7601 83.3236 34.8472C83.8239 35.0228 84.9502 35.2849 86.5358 35.2849C88.7457 35.2849 89.9973 34.6296 89.9973 33.0105C89.9973 31.261 88.3288 30.7355 86.2013 30.3417C82.6975 29.6858 78.109 28.8988 78.109 23.1681C78.109 17.7433 82.5305 15.5116 87.3277 15.5116C90.0522 15.5116 92.7173 16.0503 94.2199 16.509L94.325 15.9499H104.879V19.5806L102.543 19.8433L105.88 32.1352H106.172L109.884 16.518H116.184L119.772 32.1352H120.022L123.15 19.8433L120.773 19.5806L121.314 15.9499H130.075V17.2395C129.555 18.0436 129.096 18.8907 128.705 19.7724L128.573 19.7995V19.7988ZM171.707 20.8925C170.623 20.8925 169.331 21.8544 168.704 22.4238V34.0158C168.704 34.7156 168.746 34.8466 169.372 34.8911L173.502 35.2404V38.7407H159.86V35.1972L161.738 34.9344C162.322 34.8466 162.405 34.7156 162.405 34.0597V21.2418C162.405 20.7608 162.28 20.4548 161.864 20.3237L159.857 19.5842C159.792 19.4411 159.721 19.3028 159.653 19.1634L160.07 15.9493H167.411L167.912 19.4483H168.162C169.538 17.2178 171.374 15.5116 174.044 15.5116C175.002 15.5116 176.922 15.6865 177.673 15.9054V23.8673L172.668 23.6923L172.25 21.3734C172.167 20.9796 172.042 20.8925 171.707 20.8925Z" fill="white"/>
<path fill-rule="evenodd" clip-rule="evenodd" d="M144.214 12.6458C151.793 12.6458 157.936 19.1058 157.936 27.0749C157.936 35.044 151.793 41.5041 144.214 41.5041C136.635 41.5041 130.491 35.044 130.491 27.0749C130.491 19.1058 136.635 12.6458 144.214 12.6458Z" fill="#198CFF"/>
<path fill-rule="evenodd" clip-rule="evenodd" d="M127.062 27.0748C127.062 17.1132 134.741 9.03833 144.214 9.03833C153.688 9.03833 161.367 17.1132 161.367 27.0748C161.367 37.0369 153.688 45.1112 144.214 45.1112C134.741 45.1112 127.062 37.0369 127.062 27.0748ZM130.491 27.0748C130.491 35.0439 136.635 41.5039 144.214 41.5039C151.793 41.5039 157.936 35.0439 157.936 27.0748C157.936 19.1057 151.793 12.6456 144.214 12.6456C136.635 12.6456 130.491 19.1057 130.491 27.0748Z" fill="white"/>
<path opacity="0.5" d="M126.49 27.0749C126.49 37.3683 134.426 45.7126 144.215 45.7126C154.004 45.7126 161.94 37.3683 161.94 27.0749C161.94 16.7821 154.004 8.43726 144.215 8.43726C134.426 8.43726 126.49 16.7821 126.49 27.0749ZM127.062 27.0749C127.062 17.1146 134.741 9.03847 144.215 9.03847C153.689 9.03847 161.368 17.1146 161.368 27.0749C161.368 37.0353 153.689 45.1114 144.215 45.1114C134.741 45.1114 127.062 37.0353 127.062 27.0749ZM131.064 27.0737C131.064 34.7104 136.952 40.9005 144.215 40.9005C151.477 40.9005 157.366 34.7104 157.366 27.0737C157.366 19.4377 151.477 13.247 144.215 13.247C136.952 13.247 131.064 19.4377 131.064 27.0737ZM130.492 27.0749C130.492 19.107 136.636 12.6458 144.215 12.6458C151.794 12.6458 157.937 19.107 157.937 27.0749C157.937 35.0428 151.795 41.5041 144.215 41.5041C136.635 41.5041 130.492 35.0428 130.492 27.0749Z" fill="black"/>
<path fill-rule="evenodd" clip-rule="evenodd" d="M150.115 42.1522C155.335 39.8129 158.994 34.3803 158.994 28.0501C158.994 19.5838 152.449 12.7203 144.376 12.7203C136.303 12.7203 129.76 19.5838 129.76 28.0501C129.76 36.4912 136.265 43.3372 144.305 43.3775C144.28 43.3781 144.256 43.3799 144.232 43.3799C135.759 43.3799 128.891 36.1767 128.891 27.2914C128.891 18.406 135.759 11.2029 144.232 11.2029C152.704 11.2029 159.572 18.406 159.572 27.2914C159.572 33.9907 155.667 39.7311 150.115 42.1522ZM143.936 43.5603C153.4 43.5603 161.072 35.5142 161.072 25.5893C161.072 24.6635 161.005 23.7544 160.876 22.8664C161.195 24.236 161.367 25.6657 161.367 27.1381C161.367 37.0641 153.695 45.109 144.231 45.109C135.649 45.109 128.541 38.4938 127.29 29.861C129.118 37.7231 135.875 43.5603 143.936 43.5603Z" fill="black" fill-opacity="0.1"/>
<path fill-rule="evenodd" clip-rule="evenodd" d="M144.214 16.2529C149.898 16.2529 154.506 21.0981 154.506 27.0748C154.506 33.0514 149.898 37.8966 144.214 37.8966C138.53 37.8966 133.922 33.0514 133.922 27.0748C133.922 21.0981 138.53 16.2529 144.214 16.2529Z" fill="#F2F2F2"/>
<path d="M144.215 16.2531C138.531 16.2531 133.923 21.0983 133.923 27.0749C133.923 33.0516 138.531 37.8968 144.215 37.8968C149.899 37.8968 154.507 33.0516 154.507 27.0749C154.507 21.0983 149.899 16.2531 144.215 16.2531ZM144.215 15.6519C150.214 15.6519 155.078 20.7664 155.078 27.0749C155.078 33.3841 150.214 38.498 144.215 38.498C138.216 38.498 133.351 33.3841 133.351 27.0749C133.351 20.7664 138.216 15.6519 144.215 15.6519Z" fill="black" fill-opacity="0.25"/>
<path fill-rule="evenodd" clip-rule="evenodd" d="M148.788 27.0748C148.788 28.3504 148.306 29.5738 147.449 30.4758C146.591 31.3777 145.428 31.8845 144.214 31.8845C143.001 31.8845 141.838 31.3777 140.98 30.4758C140.122 29.5738 139.64 28.3504 139.64 27.0748C139.64 25.7992 140.122 24.5758 140.98 23.6738C141.838 22.7718 143.001 22.2651 144.214 22.2651C145.428 22.2651 146.591 22.7718 147.449 23.6738C148.306 24.5758 148.788 25.7992 148.788 27.0748Z" fill="black" fill-opacity="0.05"/>
<path d="M148.217 27.0748C148.217 25.9586 147.794 24.8882 147.045 24.0989C146.294 23.3097 145.275 22.8663 144.214 22.8663C143.152 22.8663 142.135 23.3097 141.384 24.0989C140.633 24.8882 140.212 25.9586 140.212 27.0748C140.212 28.1909 140.633 29.2614 141.384 30.0506C142.135 30.8399 143.152 31.2833 144.214 31.2833C145.275 31.2833 146.294 30.8399 147.045 30.0506C147.794 29.2614 148.217 28.1909 148.217 27.0748ZM148.788 27.0748C148.788 28.3504 148.306 29.5738 147.449 30.4758C146.591 31.3777 145.428 31.8845 144.214 31.8845C143.001 31.8845 141.838 31.3777 140.98 30.4758C140.122 29.5738 139.64 28.3504 139.64 27.0748C139.64 25.7992 140.122 24.5758 140.98 23.6738C141.838 22.7718 143.001 22.2651 144.214 22.2651C145.428 22.2651 146.591 22.7718 147.449 23.6738C148.306 24.5758 148.788 25.7992 148.788 27.0748Z" fill="black" fill-opacity="0.15"/>
<path d="M148.789 27.0747C148.789 25.7991 148.307 24.5758 147.45 23.6738C146.591 22.7718 145.428 22.265 144.215 22.265C143.002 22.265 141.839 22.7718 140.98 23.6738C140.123 24.5758 139.64 25.7991 139.64 27.0747C139.64 28.3504 140.123 29.5737 140.98 30.4757C141.839 31.3777 143.002 31.8845 144.215 31.8845C145.428 31.8845 146.591 31.3777 147.45 30.4757C148.307 29.5737 148.789 28.3504 148.789 27.0747ZM149.361 27.0747C149.361 28.5098 148.819 29.8861 147.853 30.9008C146.888 31.9156 145.58 32.4857 144.215 32.4857C142.85 32.4857 141.541 31.9156 140.576 30.9008C139.611 29.8861 139.069 28.5098 139.069 27.0747C139.069 25.6397 139.611 24.2634 140.576 23.2486C141.541 22.2339 142.85 21.6638 144.215 21.6638C145.58 21.6638 146.888 22.2339 147.853 23.2486C148.819 24.2634 149.361 25.6397 149.361 27.0747Z" fill="white"/>
<path fill-rule="evenodd" clip-rule="evenodd" d="M141.928 24.8853V19.8604H146.501V28.2353L145.358 29.3511L146.501 30.467V35.492H141.928V27.1176L143.071 26.0012L141.928 24.8853Z" fill="white"/>
<path fill-rule="evenodd" clip-rule="evenodd" d="M141.928 24.2839V19.259H146.501V27.6339L145.358 28.7498L146.501 29.8656V34.8906H141.928V26.5162L143.071 25.3998L141.928 24.2839Z" fill="#4D4D4D"/>
<path fill-rule="evenodd" clip-rule="evenodd" d="M142.5 24.7991V20.4614H145.93V27.8912L145.072 28.9211V29.5271L145.93 30.6748V34.8905H142.5V27.4475L143.357 26.4392V25.8296L142.5 24.7991Z" fill="#808080"/>
</svg>
