<svg width="204" height="48" viewBox="0 0 204 48" fill="none" xmlns="http://www.w3.org/2000/svg">
<path fill-rule="evenodd" clip-rule="evenodd" d="M27.6934 0.359863C14.7697 0.359863 4.23926 10.9199 4.23926 24.1199C4.23926 37.1999 14.7697 47.8799 27.6934 47.8799C40.6171 47.8799 51.1475 37.1999 51.1475 24.1199C51.1475 10.9199 40.6171 0.359863 27.6934 0.359863ZM92.0725 25.4399H102.244L104.278 21.9599H92.0725V17.1599H104.278L106.313 13.6799H88.1236V34.3199H106.672V30.8399H92.0725V25.4399ZM115.168 25.4399H125.339L127.373 21.9599H115.168V17.1599H127.373L129.408 13.6799H111.219V34.3199H129.767V30.8399H115.168V25.4399ZM163.153 25.4399H173.324L175.359 21.9599H163.153V17.1599H175.359L177.393 13.6799H159.204V34.3199H177.752V30.8399H163.153V25.4399ZM83.6961 13.7999H78.4308L68.2594 24.1199L78.4308 34.4399H83.6961C81.1831 31.9199 75.3196 25.9199 73.5246 24.1199C75.3196 22.3199 81.1831 16.1999 83.6961 13.7999ZM62.7549 34.3199H66.7038V13.7999H62.7549V34.3199ZM197.137 26.0399C200.129 25.9199 202.762 23.7599 202.762 19.9199C202.762 14.8799 199.291 13.7999 194.505 13.7999H182.299V34.4399H186.248V17.1599H193.906C197.137 17.1599 198.813 17.6399 198.813 20.0399C198.813 22.4399 197.137 22.9199 193.906 22.9199H189.718L187.804 26.2799H192.471L198.334 34.4399H203.24L197.137 26.0399ZM145.802 13.7999H134.434V34.4399H138.382V17.2799H146.639C148.913 17.2799 150.947 17.5199 150.947 20.1599C150.947 22.7999 148.913 23.0399 146.639 23.0399H141.972L139.938 26.5199H145.802C149.272 26.5199 154.896 26.5199 154.896 20.2799C154.896 13.7999 149.152 13.7999 145.802 13.7999Z" fill="black"/>
<path fill-rule="evenodd" clip-rule="evenodd" d="M46.2413 30.2399L38.8221 23.9999L46.2413 17.7599L48.5149 20.6399L44.4464 23.9999L48.5149 27.3599L46.2413 30.2399ZM43.3694 37.1999L34.3946 29.8799H26.9754V44.7599H23.3855V26.2799H35.7109L45.643 34.3199L43.3694 37.1999ZM38.1042 42.1199L34.0356 38.7599V43.9199L30.4457 44.8799V33.4799H33.4373L41.0958 39.9599L38.1042 42.1199ZM19.7956 38.9999L16.2057 42.2399V6.23986L19.7956 9.47986V38.9999ZM12.7354 34.5599L9.14551 31.4399V17.5199L12.7354 14.1599V34.5599ZM23.2658 3.35986H26.8558V18.2399H34.2749L43.2497 10.9199L45.5233 13.7999L35.5912 21.8399H23.2658V3.35986ZM30.4457 3.83986L34.0356 4.79986V9.95986L38.1042 6.59986L41.0958 8.75986L33.4373 15.2399H30.4457V3.83986Z" fill="#FFC700"/>
</svg>
