<svg width="206" height="48" viewBox="0 0 206 48" fill="none" xmlns="http://www.w3.org/2000/svg">
<path d="M61 30.1158C61 36.7462 58.9011 42.8761 55.3446 47.8509L41.3333 24.4942L39.76 26.9034L40.94 32.9266L31.5 16.2625L25.6 26.3011L26.78 32.9266L21.8633 24.4942L7.76263 48C4.1411 42.9988 2 36.8125 2 30.1158C2 13.4833 15.2076 0 31.5 0C47.7924 0 61 13.4833 61 30.1158Z" fill="#00A19B"/>
<path fill-rule="evenodd" clip-rule="evenodd" d="M159.477 27.7483C160.96 26.5967 161.702 24.8498 161.702 22.5076C161.702 20.2825 160.97 18.5746 159.506 17.384C158.12 16.2324 156.305 15.6566 154.061 15.6566H146.156V37H150.577V29.4756H153.914C156.198 29.4756 158.052 28.8998 159.477 27.7483ZM156.754 21.0144C157.086 21.4438 157.252 21.9708 157.252 22.5954C157.252 23.5323 156.901 24.2349 156.198 24.7034C155.515 25.1523 154.685 25.3768 153.709 25.3768H150.577V19.814H153.68C154.324 19.814 154.91 19.9019 155.437 20.0775C155.983 20.2532 156.422 20.5655 156.754 21.0144Z" fill="#00A19B"/>
<path fill-rule="evenodd" clip-rule="evenodd" d="M164.199 36.0924C165.155 36.8926 166.287 37.2927 167.595 37.2927C169.469 37.2927 170.913 36.5901 171.928 35.1848H171.987C171.987 36.0045 172.016 36.6096 172.075 37H176.027C175.949 36.1021 175.91 35.3214 175.91 34.6578V27.9825C175.91 26.1087 175.324 24.6546 174.153 23.6201C173.002 22.5856 171.499 22.0782 169.644 22.0977C168.63 22.0977 167.654 22.2636 166.717 22.5954C165.799 22.9077 165.009 23.4249 164.345 24.1471C163.682 24.8303 163.262 25.6793 163.086 26.6943L166.834 27.5433C166.99 26.9187 167.302 26.4308 167.771 26.0794C168.239 25.7281 168.795 25.5524 169.44 25.5524C170.142 25.5524 170.698 25.7281 171.108 26.0794C171.518 26.4112 171.723 26.8406 171.723 27.3676C171.723 28.0313 171.343 28.3631 170.581 28.3631H169.176C167.888 28.3631 166.726 28.5583 165.692 28.9486C163.74 29.6318 162.764 30.92 162.764 32.8133V32.9304C162.764 34.2186 163.242 35.2726 164.199 36.0924ZM170.933 33.3403C170.406 33.9063 169.703 34.1893 168.825 34.1893C168.298 34.1893 167.868 34.0625 167.536 33.8087C167.205 33.5355 167.039 33.1646 167.039 32.6962C167.039 32.1692 167.273 31.7593 167.741 31.4665C168.171 31.1737 168.649 31.0273 169.176 31.0273H171.723V31.3787C171.723 32.1594 171.46 32.8133 170.933 33.3403Z" fill="#00A19B"/>
<path d="M184.892 37.322C183.253 37.322 181.926 36.9512 180.911 36.2095C180.442 35.8777 180.052 35.5068 179.74 35.0969C179.134 34.3943 178.803 33.6428 178.744 32.8426L182.492 32.0521C182.55 32.5986 182.784 33.0573 183.194 33.4281C183.624 33.838 184.17 34.0429 184.834 34.0429C185.361 34.0429 185.771 33.9161 186.063 33.6623C186.376 33.4086 186.532 33.1158 186.532 32.784C186.532 32.1594 186.063 31.7398 185.127 31.5251L183.282 31.1152C180.491 30.4906 179.095 29.0755 179.095 26.8699C179.095 25.5427 179.622 24.4204 180.676 23.503C181.75 22.5661 183.077 22.0977 184.658 22.0977C186.786 22.0977 188.386 22.7613 189.46 24.0886C190.045 24.7912 190.387 25.5232 190.484 26.2844L186.795 27.0749C186.698 26.5284 186.464 26.1087 186.093 25.8159C185.722 25.5036 185.253 25.3475 184.687 25.3475C184.219 25.3475 183.829 25.4646 183.516 25.6988C183.224 25.933 183.077 26.2258 183.077 26.5772C183.077 27.1237 183.458 27.475 184.219 27.6311L186.239 28.0703C187.664 28.3436 188.757 28.8706 189.518 29.6513C190.279 30.432 190.66 31.3787 190.66 32.4912C190.66 33.7599 190.192 34.8627 189.255 35.7996C188.201 36.8145 186.747 37.322 184.892 37.322Z" fill="#00A19B"/>
<path d="M195.035 36.2095C196.05 36.9512 197.377 37.322 199.017 37.322C200.871 37.322 202.325 36.8145 203.379 35.7996C204.316 34.8627 204.784 33.7599 204.784 32.4912C204.784 31.3787 204.404 30.432 203.642 29.6513C202.881 28.8706 201.788 28.3436 200.363 28.0703L198.343 27.6311C197.582 27.475 197.201 27.1237 197.201 26.5772C197.201 26.2258 197.348 25.933 197.64 25.6988C197.953 25.4646 198.343 25.3475 198.812 25.3475C199.378 25.3475 199.846 25.5036 200.217 25.8159C200.588 26.1087 200.822 26.5284 200.92 27.0749L204.609 26.2844C204.511 25.5232 204.169 24.7912 203.584 24.0886C202.51 22.7613 200.91 22.0977 198.782 22.0977C197.201 22.0977 195.874 22.5661 194.801 23.503C193.747 24.4204 193.22 25.5427 193.22 26.8699C193.22 29.0755 194.615 30.4906 197.406 31.1152L199.251 31.5251C200.188 31.7398 200.656 32.1594 200.656 32.784C200.656 33.1158 200.5 33.4086 200.188 33.6623C199.895 33.9161 199.485 34.0429 198.958 34.0429C198.294 34.0429 197.748 33.838 197.318 33.4281C196.909 33.0573 196.674 32.5986 196.616 32.0521L192.868 32.8426C192.927 33.6428 193.259 34.3943 193.864 35.0969C194.176 35.5068 194.566 35.8777 195.035 36.2095Z" fill="#00A19B"/>
<path d="M87.1941 37L77.8838 22.332V37H73.5215V15.6567H78.6451L87.8382 30.0905V15.6567H92.2006V37H87.1941Z" fill="white"/>
<path d="M95.9138 29.7685C95.9138 28.3827 96.2749 27.0847 96.9971 25.8745C97.6997 24.6839 98.6659 23.7568 99.8955 23.0932C101.164 22.4295 102.501 22.0977 103.907 22.0977C105.37 22.0977 106.698 22.4295 107.888 23.0932C109.098 23.7373 110.055 24.6449 110.758 25.816C111.46 26.9481 111.812 28.2363 111.812 29.6806C111.812 31.1055 111.46 32.4034 110.758 33.5745C110.035 34.7652 109.069 35.6825 107.859 36.3266C106.649 36.9903 105.312 37.3221 103.848 37.3221C102.404 37.3221 101.067 37 99.837 36.3559C98.6268 35.6728 97.6802 34.7652 96.9971 33.6331C96.2749 32.423 95.9138 31.1347 95.9138 29.7685ZM101.301 27.0456C100.618 27.7678 100.276 28.6559 100.276 29.7099C100.276 30.7639 100.618 31.652 101.301 32.3742C102.004 33.0768 102.862 33.4282 103.877 33.4282C104.873 33.4282 105.722 33.0768 106.424 32.3742C107.108 31.7105 107.449 30.8224 107.449 29.7099C107.449 28.6169 107.108 27.7288 106.424 27.0456C105.722 26.343 104.863 25.9916 103.848 25.9916C102.853 25.9916 102.004 26.343 101.301 27.0456Z" fill="white"/>
<path d="M124.261 22.4491V26.6065C123.754 26.5284 123.305 26.4894 122.915 26.4894C121.841 26.4894 120.992 26.8505 120.367 27.5726C119.762 28.2948 119.46 29.3098 119.46 30.6175V37H115.273V22.4491H119.313V24.557H119.343C120.065 23.0541 121.324 22.3027 123.12 22.3027C123.451 22.3027 123.832 22.3515 124.261 22.4491Z" fill="white"/>
<path d="M141.276 37H137.148V35.1555H137.089C136.113 36.5804 134.61 37.2928 132.58 37.2928C130.511 37.2928 128.823 36.5121 127.515 34.9506C126.266 33.4867 125.642 31.7398 125.642 29.7099C125.642 27.7581 126.305 26.0112 127.632 24.4692C128.96 22.9273 130.628 22.1563 132.639 22.1563C133.205 22.1563 133.839 22.2539 134.542 22.4491C135.44 22.7028 136.25 23.2591 136.972 24.1179H137.03V14.8076H141.276V37ZM136.123 32.3742C136.806 31.652 137.148 30.7639 137.148 29.7099C137.148 28.6559 136.806 27.7678 136.123 27.0456C135.44 26.3625 134.581 26.0209 133.546 26.0209C132.531 26.0209 131.682 26.3625 130.999 27.0456C130.297 27.7483 129.945 28.6364 129.945 29.7099C129.945 30.7834 130.297 31.6715 130.999 32.3742C131.663 33.0768 132.512 33.4282 133.546 33.4282C134.561 33.4282 135.42 33.0768 136.123 32.3742Z" fill="white"/>
</svg>
