<svg width="20" height="20" viewBox="0 0 20 20" fill="none" xmlns="http://www.w3.org/2000/svg">
<path fill-rule="evenodd" clip-rule="evenodd" d="M6.3686 14.7733C6.05618 15.0857 5.54965 15.0857 5.23723 14.7733C4.92481 14.4609 4.92481 13.9543 5.23723 13.6419L8.86881 10.0103L5.23711 6.37862C4.9247 6.06621 4.9247 5.55967 5.23711 5.24725C5.54953 4.93483 6.05607 4.93483 6.36849 5.24725L10.0002 8.87895L13.6319 5.24725C13.9443 4.93483 14.4508 4.93483 14.7632 5.24725C15.0757 5.55967 15.0757 6.06621 14.7632 6.37862L11.1316 10.0103L14.7631 13.6419C15.0756 13.9543 15.0756 14.4609 14.7631 14.7733C14.4507 15.0857 13.9442 15.0857 13.6318 14.7733L10.0002 11.1417L6.3686 14.7733Z" fill="#EB5757"/>
</svg>
