<svg width="48" height="48" viewBox="0 0 48 48" fill="none" xmlns="http://www.w3.org/2000/svg">
<g clip-path="url(#clip0_8235_100384)">
<path d="M24.0068 48.0196C37.2617 48.0196 48.0068 37.2745 48.0068 24.0196C48.0068 10.7648 37.2617 0.0196533 24.0068 0.0196533C10.752 0.0196533 0.00683594 10.7648 0.00683594 24.0196C0.00683594 37.2745 10.752 48.0196 24.0068 48.0196Z" fill="url(#paint0_linear_8235_100384)"/>
<path d="M23.9841 12H33.759C34.4255 11.9948 35.0846 12.1415 35.686 12.4289C36.2696 12.705 36.789 13.1001 37.2104 13.589H37.2352C37.5591 13.9669 37.8226 14.3925 38.0162 14.8504C38.2196 15.33 38.3307 15.8433 38.3438 16.364V16.3889C38.3448 17.3583 38.2262 18.3239 37.9913 19.2642L38.0162 19.1883C37.7977 20.4159 37.5793 21.6515 37.3613 22.8956L36.7065 26.6283C36.5218 27.7054 36.3371 28.7775 36.1524 29.8443C35.9677 30.9108 35.7746 31.9748 35.573 33.0361C35.3026 34.2375 34.6801 35.3311 33.7848 36.1767C32.9105 37.0261 31.7907 37.5778 30.5841 37.7522L30.5335 37.777C30.399 37.7939 30.256 37.8065 30.1055 37.815C29.9546 37.8234 29.8037 37.8276 29.6523 37.8272H18.339C17.6138 37.8333 16.8948 37.6959 16.2226 37.4231C15.5668 37.1803 14.9574 36.8264 14.4216 36.3773C13.8887 35.9268 13.4405 35.3845 13.0988 34.7756C12.7454 34.1662 12.4988 33.5006 12.3699 32.8083V32.7581C11.6143 28.4868 10.8498 24.224 10.0777 19.9697C10.0107 19.5492 9.93523 19.1245 9.85132 18.6956C9.76741 18.2672 9.69991 17.8425 9.64929 17.4215C9.63288 17.3039 9.61554 17.1778 9.59913 17.0437C9.58179 16.9017 9.57335 16.7583 9.57429 16.6148C9.57382 14.4244 11.1268 12.5419 13.2774 12.1251L13.3023 12.1003C13.4813 12.0651 13.6623 12.0398 13.8441 12.0244C14.0373 12.0079 14.2346 11.9995 14.4362 11.9995H23.9846L23.9841 12ZM21.4379 29.6554V32.2786C21.4327 32.6517 21.578 33.0108 21.8419 33.2747C22.1044 33.5489 22.4701 33.6998 22.8498 33.69H25.1171C25.8948 33.6848 26.5233 33.0548 26.528 32.2772V27.0829C26.5262 26.9906 26.5477 26.8992 26.5913 26.8181C26.633 26.7426 26.7005 26.6845 26.7816 26.654C29.0715 25.2675 29.9949 22.4086 28.9482 19.9448C28.6735 19.305 28.2807 18.7233 27.7899 18.2297C26.7788 17.2251 25.411 16.6631 23.986 16.6664C23.7498 16.6664 23.5144 16.6833 23.2805 16.7165C23.0452 16.7503 22.8104 16.7925 22.5751 16.8431H22.6252C20.9968 17.1876 19.6407 18.3094 18.9976 19.8445L18.9727 19.8694C18.8523 20.1829 18.7637 20.5073 18.7083 20.8387C18.6493 21.1842 18.6202 21.5339 18.6202 21.8845C18.6104 22.8567 18.8583 23.8139 19.3383 24.659C19.7921 25.4733 20.4362 26.1656 21.2152 26.677L21.2401 26.7019C21.301 26.73 21.353 26.7736 21.391 26.8284C21.4252 26.8809 21.4426 26.9423 21.4412 27.0051V29.6531L21.4379 29.6554Z" fill="white"/>
</g>
<defs>
<linearGradient id="paint0_linear_8235_100384" x1="24.0067" y1="0.0194611" x2="24.0067" y2="48.0195" gradientUnits="userSpaceOnUse">
<stop stop-color="#365DC9"/>
<stop offset="1" stop-color="#222C94"/>
</linearGradient>
<clipPath id="clip0_8235_100384">
<rect width="48" height="48" fill="white"/>
</clipPath>
</defs>
</svg>
