<svg width="48" height="48" viewBox="0 0 48 48" fill="none" xmlns="http://www.w3.org/2000/svg">
<path d="M0 15C0 6.71573 6.71573 0 15 0H33C41.2843 0 48 6.71573 48 15V33C48 41.2843 41.2843 48 33 48H15C6.71573 48 0 41.2843 0 33V15Z" fill="#0E353D"/>
<path d="M19.6442 18.5001L22.7797 19.6857C23.2863 19.87 23.8979 19.6236 23.8979 19.2373V10.3356C23.8979 10.1487 23.7457 9.97676 23.5005 9.88727L20.3702 8.70256C19.8627 8.51826 19.2468 8.7637 19.2468 9.14561V18.0517C19.2468 18.2387 19.399 18.4115 19.6442 18.5001Z" fill="white"/>
<path d="M28.5862 22.4219L25.4507 21.2363C25.2064 21.1468 25.0533 20.9749 25.0533 20.788V12.6058C25.0533 12.2239 25.67 11.9784 26.1767 12.1628L29.3122 13.3483C29.5574 13.437 29.7096 13.6044 29.7096 13.7914V21.9736C29.7096 22.3599 29.0928 22.6062 28.5862 22.4219Z" fill="white"/>
<path d="M28.5862 37.1098L25.4507 35.9242V35.9224C25.2064 35.8338 25.0533 35.6619 25.0533 35.4749V27.2945C25.0533 26.9082 25.67 26.6619 26.1767 26.8462L29.3122 28.0318C29.5574 28.1213 29.7096 28.2932 29.7096 28.4801V36.6623C29.7096 37.0486 29.0928 37.2941 28.5862 37.1098Z" fill="white"/>
<path d="M22.7797 39.2975L19.6442 38.1119C19.399 38.0224 19.2468 37.8505 19.2468 37.6636V28.7849C19.2468 28.3986 19.8627 28.1532 20.3702 28.3375L23.5005 29.5222C23.7457 29.6117 23.8979 29.7836 23.8979 29.9705V38.8492C23.8979 39.2364 23.2863 39.4818 22.7797 39.2975Z" fill="white"/>
<path d="M18.0958 10.6697C18.0958 10.4827 17.9427 10.3152 17.6975 10.2213L14.5629 9.03573C14.0562 8.85142 13.4395 9.09776 13.4395 9.48409V37.3304C13.4395 37.5174 13.5917 37.6902 13.8369 37.7788L16.9724 38.9652C17.479 39.1487 18.0958 38.9032 18.0958 38.5169V10.6697Z" fill="white"/>
<path d="M31.9814 16.8768L35.1169 18.0624H35.1212C35.3663 18.1518 35.5195 18.3237 35.5195 18.5107V31.9492C35.5195 32.3355 34.9027 32.581 34.396 32.3967L31.2605 31.2111C31.0154 31.1225 30.8631 30.9506 30.8631 30.7636V17.3251C30.8631 16.9388 31.4747 16.6925 31.9814 16.8768Z" fill="white"/>
</svg>
