<svg width="24" height="24" viewBox="0 0 24 24" fill="none" xmlns="http://www.w3.org/2000/svg">
<path fill-rule="evenodd" clip-rule="evenodd" d="M22 12C22 17.5228 17.5228 22 12 22C6.47715 22 2 17.5228 2 12C2 6.47715 6.47715 2 12 2C17.5228 2 22 6.47715 22 12ZM20.7 12C20.7 16.8049 16.8049 20.7 12 20.7C7.19512 20.7 3.3 16.8049 3.3 12C3.3 7.19512 7.19512 3.3 12 3.3C16.8049 3.3 20.7 7.19512 20.7 12Z" fill="white" fill-opacity="0.54"/>
<circle cx="12.0008" cy="7.90554" r="1.12185" fill="white" fill-opacity="0.54"/>
<rect x="11" y="10.1768" width="2" height="6.82289" fill="white" fill-opacity="0.54"/>
</svg>
