<svg width="320" height="336" viewBox="0 0 320 336" fill="none" xmlns="http://www.w3.org/2000/svg">              
<defs> 
    <style> 
        .shield { 
            transform-origin: center center;    
            animation: scale-shield 4s ease-in-out;                     
        }
        .front_side {  
            animation: fill-opacity-front 4s ease-in-out;       
        }
        .top_side {  
            animation: fill-opacity-top 4s ease-in-out;          
        }
        .bottom_side {       
            animation: fill-opacity-bottom 4s ease-in-out;         
        }
        .fingerprint { 
            transform-origin: 178px 207px;            
            animation: scale-fingerprint 4s;
        }
        .circle {
            transform-origin: 178px 207px;            
            animation: scale-circle 4s;
        }
        .lap {
            transform-origin: 174px 174px;  
            animation: rotate-lap 4s; 
                      fill-opasity 4s;
        }
        .watch {
           transform-origin: 172px 146px;   
           animation: rotate-watch 4s; 
                      fill-opasity 4s;
        }
        .browsers {         
            transform-origin: 160px 166px;                  
            animation: scale-browsers 4s; 
        }
        @keyframes scale-shield {                              
            0% {     
                transform: scale(0);               
            }             
            10% {      
                transform: scale(1.1);     
            }   
            17% {          
                transform: scale(1);        
            }         
        }         
        @keyframes fill-opacity-front {                           
            0%, 28% {  
            fill-opacity:0.1 
            }
            35%, 36% {     
               fill-opacity:1                                
            }
            42%, 100% {    
               fill-opacity:0.1                 
            }     
        }      
        @keyframes fill-opacity-top {                             
            0%, 28% {
            fill-opacity:0.3 
            }
            35%, 36% {     
               fill-opacity: 1                    
            }
            42%, 100% {    
               fill-opacity: 0.3                 
            }  
        } 
        @keyframes fill-opacity-bottom {                             
             0%, 28% {
            fill-opacity:0.2 
            }
            35%, 36% {     
               fill-opacity: 1              
            }
            42%, 100% {    
               fill-opacity: 0.2                 
            }    
        }  
        @keyframes fill-opasity {                                                 
            0%, 34% {
            fill-opacity:0 
            }
            35% {     
            fill-opacity:1          
            }    
        } 
        @keyframes scale-fingerprint {                                                                              
            0%, 23% {     
                transform: scale(0);               
            }            
            25% {          
                transform: scale(2.5);                           
            }    
            30% {          
                transform: scale(0.7);    
            }  
            35% {          
                transform: scale(1);    
            }                
        }         
        @keyframes scale-circle {                                                             
            0%, 35% {     
                transform: scale(0);               
            }       
            36% {          
                transform: scale(0.7);    
            }   
            40% {                            
                transform: scale(1);    
            }   
        }    
        @keyframes scale-browsers {                                                                                
            0%, 30% {     
                transform: rotate(-45deg) scale(0);                 
            }             
            42% {          
                transform: rotate(-4deg) scale(1);       
            } 
            43% {          
                transform: rotate(0 deg) scale(1);      
            }         
        }     
        @keyframes rotate-watch {                                                                                      
            0%, 36% {     
                transform: rotate(0deg) scale(1);   
                fill-opacity:0                
            }             
            42% {          
                transform: rotate(0deg) scale(0.9);     
                fill-opacity:1    
            } 
            55% {          
                transform: rotate(-10deg) scale(1.2);                  
            }     
            70%, 100% {          
                transform: rotate(0deg) scale(1);        
            }  
                    }     
        @keyframes rotate-lap {                                                                                        
            0%, 36% {     
                transform: rotate(0deg);       
                fill-opacity:0                
            }             
            42% {          
                transform: rotate(0deg);     
                fill-opacity:1    
            } 
            55% {          
                transform: rotate(4deg);                
            }     
            70%, 100% {          
                transform: rotate(0deg);        
            }    
        }    
    </style>    
</defs>

<g class="browsers">     
    <path d="M92.0501 94.9999C101.968 94.9728 110 86.9244 110 77C110 74.0538 109.292 71.2729 108.037 68.8181H91.9999L99.0874 81.0908L91.146 94.9801C91.4124 94.9925 91.6803 94.9992 91.9496 94.9999H92.0501Z" fill="#B2C8EB"/>
    <path d="M76.8574 67.2644C80.0606 62.2925 85.6458 59 92 59C98.9949 59 105.058 62.99 108.037 68.8182H91.9999L84.9165 81.0909H76.8574V67.2644Z" fill="#82A5DB"/>
    <path d="M91.1461 94.9801C81.6015 94.5343 74 86.6549 74 77C74 73.4147 75.0482 70.0742 76.8549 67.2683L84.9125 81.0908H99.0875L91.1461 94.9801Z" fill="#668FCA"/>
    <path d="M92.0002 85.1818C96.5189 85.1818 100.182 81.5186 100.182 76.9999C100.182 72.4812 96.5189 68.8181 92.0002 68.8181C87.4815 68.8181 83.8184 72.4812 83.8184 76.9999C83.8184 81.5186 87.4815 85.1818 92.0002 85.1818Z" fill="#F1F1F1"/>
    <path d="M92 83.5455C95.615 83.5455 98.5455 80.615 98.5455 77C98.5455 73.3851 95.615 70.4546 92 70.4546C88.3851 70.4546 85.4546 73.3851 85.4546 77C85.4546 80.615 88.3851 83.5455 92 83.5455Z" fill="#3A6EC7"/>
    <path d="M285.477 189.877C284.694 188.052 283.106 186.082 281.862 185.46C282.749 187.123 283.365 188.909 283.687 190.755L283.69 190.784C281.653 185.867 278.199 183.882 275.376 179.564C275.234 179.345 275.091 179.127 274.952 178.896C274.872 178.764 274.809 178.645 274.753 178.535C274.636 178.316 274.546 178.084 274.484 177.844C274.485 177.833 274.48 177.823 274.473 177.814C274.465 177.806 274.455 177.801 274.444 177.799C274.432 177.796 274.421 177.796 274.41 177.799C274.407 177.799 274.404 177.803 274.401 177.804C274.398 177.805 274.392 177.809 274.388 177.811L274.395 177.799C269.868 180.366 268.331 185.116 268.192 187.493C266.383 187.613 264.654 188.258 263.23 189.344C263.082 189.222 262.926 189.108 262.765 189.003C262.355 187.611 262.337 186.138 262.714 184.738C261.052 185.517 259.575 186.623 258.376 187.984H258.368C257.654 187.107 257.704 184.217 257.745 183.613C257.534 183.695 257.332 183.799 257.143 183.922C256.513 184.358 255.923 184.847 255.382 185.383C254.765 185.989 254.201 186.644 253.697 187.34V187.343V187.34C252.539 188.93 251.717 190.727 251.279 192.626L251.255 192.741C251.221 192.895 251.099 193.664 251.078 193.831C251.078 193.844 251.075 193.856 251.074 193.869C250.916 194.663 250.818 195.467 250.781 196.275V196.365C250.789 200.731 252.488 204.937 255.541 208.15C258.595 211.364 262.781 213.352 267.275 213.722C271.768 214.093 276.242 212.819 279.813 210.152C283.384 207.485 285.792 203.618 286.563 199.316C286.593 199.091 286.618 198.868 286.645 198.64C287.016 195.67 286.614 192.656 285.476 189.874L285.477 189.877ZM264.706 203.537C264.79 203.576 264.869 203.619 264.956 203.656L264.968 203.664C264.881 203.623 264.793 203.581 264.706 203.537V203.537ZM283.691 190.789V190.772L283.694 190.791L283.691 190.789Z" fill="#B2C8EB"/>
    <path d="M268.83 193.01C268.801 193.445 267.217 194.942 266.663 194.942C261.539 194.942 260.707 197.943 260.707 197.943C260.933 200.471 262.753 202.554 264.951 203.652C265.052 203.703 265.154 203.748 265.256 203.793C265.432 203.869 265.608 203.939 265.785 204.003C266.539 204.261 267.33 204.409 268.13 204.441C277.113 204.849 278.853 194.04 272.37 190.902C273.899 190.709 275.448 191.073 276.715 191.924C275.924 190.571 274.776 189.445 273.389 188.66C272.002 187.876 270.426 187.462 268.82 187.458C268.606 187.458 268.397 187.476 268.186 187.49C266.378 187.61 264.649 188.255 263.225 189.341C263.5 189.566 263.81 189.866 264.463 190.49C265.686 191.657 268.823 192.865 268.83 193.007L268.83 193.01Z" fill="#3A6EC7"/>
    <path d="M275.154 189.89C275.812 190.516 276.376 191.228 276.828 192.006C276.927 192.079 277.02 192.151 277.099 192.221C281.185 195.868 279.044 201.023 278.884 201.388C282.203 198.74 284.325 194.823 283.688 190.78C281.649 185.859 278.191 183.873 275.373 179.555C275.231 179.337 275.088 179.118 274.949 178.887C274.869 178.755 274.806 178.636 274.75 178.527C274.633 178.307 274.543 178.076 274.482 177.836C274.482 177.825 274.478 177.814 274.47 177.806C274.462 177.797 274.452 177.792 274.441 177.791C274.43 177.788 274.418 177.788 274.407 177.791C274.404 177.791 274.401 177.795 274.398 177.796C274.395 177.797 274.389 177.801 274.385 177.802C273.688 178.123 269.554 184.462 275.157 189.883L275.154 189.89Z" fill="#82A5DB"/>
    <path d="M260.707 197.941C260.707 197.941 261.539 194.939 266.664 194.939C267.217 194.939 268.802 193.442 268.831 193.008C266.627 193.781 264.199 193.688 262.065 192.75C261.03 192.242 259.877 191.999 258.717 192.044C257.558 192.089 256.429 192.421 255.439 193.008C255.815 193.795 256.418 194.459 257.176 194.92C257.933 195.382 258.813 195.621 259.708 195.608C259.374 198.461 260.932 201.785 264.702 203.532C264.786 203.571 264.865 203.614 264.952 203.651C262.751 202.55 260.934 200.468 260.707 197.942V197.941Z" fill="#82A5DB"/>
    <path d="M48.6816 197.803C38.7945 197.803 30.7793 205.819 30.7793 215.708C30.7793 225.311 38.3378 233.148 47.829 233.592C48.1122 233.606 48.3959 233.613 48.6818 233.613C53.2653 233.613 57.4454 231.89 60.6127 229.057C58.5142 230.449 56.0608 231.249 53.4388 231.249C49.1755 231.249 45.3573 229.134 42.7894 225.798C40.8098 223.461 39.5276 220.006 39.4403 216.129V215.286C39.5276 211.409 40.8097 207.954 42.7888 205.617C45.3572 202.281 49.1752 200.166 53.4383 200.166C56.0609 200.166 58.5148 200.967 60.6135 202.36C57.4617 199.54 53.3069 197.82 48.7489 197.803C48.7262 197.803 48.7039 197.802 48.6812 197.802L48.6816 197.803Z" fill="#B2C8EB"/>
    <path d="M42.7891 205.618C44.4319 203.678 46.5536 202.509 48.8716 202.509C54.0836 202.509 58.3078 208.419 58.3078 215.709C58.3078 222.999 54.0832 228.909 48.8716 228.909C46.5536 228.909 44.4319 227.739 42.7895 225.8C45.3574 229.135 49.1752 231.251 53.4389 231.251C56.0611 231.251 58.5145 230.45 60.6129 229.058C64.2772 225.779 66.5845 221.014 66.5845 215.709C66.5845 210.405 64.2776 205.639 60.6142 202.361C58.5152 200.968 56.0614 200.167 53.439 200.167C49.1757 200.167 45.3575 202.283 42.7896 205.618" fill="#3A6EC7"/>
    <path d="M209.168 50.8978C209.43 50.9873 209.714 50.8481 209.803 50.5868C209.893 50.3256 209.754 50.0413 209.492 49.9518C181.433 40.3412 149.904 44.2478 121.818 59.2427C121.574 59.3727 121.482 59.6756 121.612 59.9192C121.743 60.1628 122.045 60.2549 122.289 60.1248C150.17 45.2392 181.411 41.3908 209.168 50.8978Z" fill="#B2C8EB"/>
    <path d="M258.928 88.9563C258.779 88.724 258.469 88.6565 258.237 88.8057C258.005 88.9548 257.937 89.2641 258.086 89.4965C270.761 109.242 276.728 133.761 275.359 159.375C275.345 159.65 275.556 159.886 275.832 159.901C276.108 159.915 276.343 159.704 276.358 159.428C277.737 133.63 271.728 108.898 258.928 88.9563Z" fill="#B2C8EB"/>
    <path d="M70.9796 106.905C71.1344 106.676 71.0746 106.365 70.8459 106.211C70.6172 106.056 70.3064 106.116 70.1516 106.344C68.4626 108.839 66.8331 111.402 65.2673 114.031C52.564 135.36 45.7032 158.295 44.2998 180.483C44.2824 180.759 44.4917 180.997 44.7673 181.014C45.0429 181.031 45.2804 180.822 45.2979 180.547C46.691 158.518 53.5033 135.737 66.1265 114.542C67.6823 111.93 69.3015 109.384 70.9796 106.905Z" fill="#B2C8EB"/>
    <path d="M255.312 227.217C255.454 226.98 255.376 226.673 255.139 226.532C254.901 226.39 254.595 226.468 254.453 226.705C239.982 251.003 220.04 269.579 198.008 281.274C197.764 281.403 197.671 281.706 197.8 281.95C197.93 282.193 198.233 282.286 198.477 282.157C220.674 270.375 240.75 251.669 255.312 227.217Z" fill="#B2C8EB"/>
    <path d="M60.256 248.097C60.1168 247.859 59.8106 247.778 59.5721 247.917C59.3336 248.057 59.2532 248.363 59.3924 248.601C67.5772 262.624 78.9522 274.511 93.3207 283.068C104.819 289.916 117.279 294.063 130.116 295.712C130.39 295.747 130.64 295.554 130.675 295.28C130.71 295.006 130.517 294.755 130.243 294.72C117.537 293.088 105.208 288.984 93.8324 282.209C79.6176 273.743 68.3605 261.982 60.256 248.097Z" fill="#B2C8EB"/>
    <path d="M257.779 64.7671C257.779 69.541 255.883 74.1194 252.507 77.495C249.132 80.8707 244.553 82.7671 239.779 82.7671C235.005 82.7671 230.427 80.8706 227.051 77.495C223.676 74.1193 221.779 69.541 221.779 64.7671C221.779 59.9932 223.676 55.4148 227.051 52.0392C230.427 48.6635 235.005 46.7671 239.779 46.7671C244.553 46.7671 249.132 48.6635 252.507 52.0392C255.883 55.4148 257.779 59.9932 257.779 64.7671V64.7671Z" fill="#C9D9F1"/>
    <path d="M256.779 64.7671C256.779 69.2758 254.988 73.5998 251.8 76.7879C248.612 79.976 244.288 81.7671 239.779 81.7671C235.271 81.7671 230.947 79.976 227.758 76.7879C224.57 73.5998 222.779 69.2758 222.779 64.7671C222.779 60.2584 224.57 55.9344 227.758 52.7463C230.947 49.5582 235.271 47.7671 239.779 47.7671C244.288 47.7671 248.612 49.5582 251.8 52.7463C254.988 55.9344 256.779 60.2584 256.779 64.7671V64.7671Z" fill="#82A5DB"/>
    <path fill-rule="evenodd" clip-rule="evenodd" d="M248.979 73.9666C251.418 71.5267 252.789 68.2176 252.789 64.7671C252.789 61.3166 251.418 58.0075 248.979 55.5676C246.539 53.1278 243.23 51.7571 239.779 51.7571C236.329 51.7571 233.019 53.1278 230.58 55.5676C228.14 58.0075 226.769 61.3166 226.769 64.7671C226.769 68.2176 228.14 71.5267 230.58 73.9665C233.019 76.4064 236.329 77.7771 239.779 77.7771C243.23 77.7771 246.539 76.4064 248.979 73.9666ZM250.393 75.3808C253.208 72.5658 254.789 68.748 254.789 64.7671C254.789 60.7862 253.208 56.9683 250.393 54.1534C247.578 51.3385 243.76 49.7571 239.779 49.7571C235.798 49.7571 231.98 51.3385 229.165 54.1534C226.35 56.9683 224.769 60.7862 224.769 64.7671C224.769 68.748 226.35 72.5658 229.165 75.3808C231.98 78.1957 235.798 79.7771 239.779 79.7771C243.76 79.7771 247.578 78.1957 250.393 75.3808Z" fill="#C9D9F1"/>
    <path d="M241.74 67.03L238.184 63.2898L250.8 54.7671L241.74 67.03Z" fill="#3A6EC7"/>
    <path d="M241.74 67.0301L238.183 63.2899L229.124 75.5529L241.74 67.0301Z" fill="white"/>
    <path d="M229.124 75.5527L241.74 67.03L250.8 54.7671L229.124 75.5527Z" fill="#2962FF" fill-opacity="0.35"/>
    <path d="M179.832 304.292C179.366 304.536 178.886 304.75 178.395 304.935C176.829 305.52 175.171 305.819 173.5 305.815C167.048 305.815 161.427 301.377 161.427 295.682C161.436 294.918 161.648 294.17 162.041 293.516C162.435 292.861 162.997 292.323 163.668 291.958C157.832 292.204 156.332 298.285 156.332 301.848C156.332 311.921 165.616 312.942 167.616 312.942C168.695 312.942 170.321 312.629 171.298 312.321L171.476 312.261C175.233 310.962 178.436 308.423 180.557 305.061C180.622 304.959 180.651 304.838 180.64 304.717C180.628 304.596 180.577 304.483 180.493 304.395C180.41 304.307 180.3 304.249 180.18 304.23C180.06 304.212 179.938 304.233 179.832 304.292V304.292Z" fill="#3A6EC7"/>
    <path d="M162.742 311.23C161.525 310.475 160.472 309.486 159.641 308.32C158.695 307.023 158.043 305.535 157.733 303.96C157.422 302.384 157.46 300.76 157.844 299.201C158.227 297.642 158.948 296.186 159.954 294.935C160.96 293.684 162.227 292.668 163.667 291.958C164.093 291.758 164.82 291.395 165.786 291.413C166.467 291.418 167.138 291.58 167.746 291.888C168.353 292.195 168.882 292.639 169.289 293.185C169.84 293.92 170.143 294.811 170.156 295.73C170.156 295.701 173.491 284.876 159.248 284.876C153.263 284.876 148.341 290.556 148.341 295.54C148.317 298.176 148.881 300.785 149.992 303.176C151.807 307.049 154.981 310.12 158.912 311.807C162.843 313.494 167.256 313.679 171.314 312.326C169.893 312.774 168.392 312.908 166.914 312.72C165.436 312.532 164.017 312.025 162.754 311.235L162.742 311.23Z" fill="#82A5DB"/>
    <path d="M169.095 298.609C168.985 298.752 168.645 298.95 168.645 299.381C168.645 299.737 168.877 300.079 169.289 300.367C171.249 301.73 174.946 301.55 174.955 301.55C176.408 301.547 177.833 301.154 179.083 300.412C180.343 299.676 181.389 298.624 182.116 297.359C182.844 296.094 183.229 294.661 183.232 293.202C183.267 290.146 182.141 288.115 181.686 287.215C178.796 281.563 172.56 278.313 165.778 278.313C161.191 278.312 156.789 280.117 153.523 283.337C150.257 286.557 148.39 290.934 148.325 295.52C148.391 290.537 153.343 286.514 159.233 286.514C159.71 286.514 162.432 286.56 164.96 287.887C167.188 289.057 168.355 290.469 169.166 291.87C170.009 293.324 170.159 295.162 170.159 295.895C170.159 296.627 169.785 297.712 169.095 298.609V298.609Z" fill="#B2C8EB"/>
</g>

<g class="shield">    
    <path fill-rule="evenodd" clip-rule="evenodd" d="M145.691 240.288C145.691 240.288 106.577 220.975 88.7524 193.739C70.928 166.503 69.0015 140.017 69.0015 140.017C69.0015 140.017 82.6366 133.424 109.405 112.367C132.471 94.2234 142.905 80.8016 145.35 77.4356C145.742 76.8952 145.929 76.614 145.929 76.614C145.929 76.614 146.19 76.8435 146.697 77.2639C149.948 79.9628 163.318 90.5287 182.702 98.7536C205.106 108.26 217.484 111.04 217.484 111.04C217.484 111.04 219.342 130.583 205.106 166.998C186.556 214.447 145.691 240.288 145.691 240.288ZM145.628 239.136C145.925 238.939 146.359 238.648 146.914 238.263C148.055 237.473 149.711 236.287 151.757 234.716C155.851 231.573 161.506 226.887 167.739 220.725C180.21 208.397 194.966 190.188 204.174 166.634C211.265 148.498 214.339 134.584 215.643 125.226C216.295 120.546 216.504 117.005 216.552 114.643C216.575 113.462 216.559 112.575 216.536 111.989C216.534 111.936 216.532 111.886 216.53 111.839C216.147 111.743 215.615 111.606 214.938 111.422C213.413 111.009 211.152 110.361 208.19 109.414C202.266 107.522 193.542 104.439 182.311 99.6742C171.036 94.8898 161.785 89.32 155.352 84.9459C152.134 82.7584 149.62 80.8684 147.907 79.523C147.151 78.9298 146.552 78.4424 146.116 78.0818C145.795 78.5221 145.351 79.1165 144.775 79.8548C143.426 81.5823 141.353 84.0976 138.442 87.2704C132.621 93.6163 123.451 102.591 110.024 113.153C96.6143 123.701 86.4857 130.634 79.7004 134.933C76.3077 137.083 73.7509 138.575 72.0377 139.531C71.1811 140.01 70.5354 140.354 70.1016 140.58C70.0873 140.587 70.0733 140.595 70.0595 140.602C70.0741 140.745 70.0917 140.91 70.1128 141.097C70.1987 141.86 70.3417 142.987 70.5688 144.425C71.023 147.303 71.8138 151.43 73.1581 156.404C75.8475 166.355 80.7481 179.682 89.5891 193.192C98.3942 206.646 112.501 218.195 124.471 226.403C130.446 230.5 135.868 233.75 139.794 235.975C141.757 237.088 143.345 237.944 144.441 238.52C144.944 238.785 145.344 238.991 145.628 239.136Z" fill="#B2C8EB"/>
    <path d="M177.513 90.814L147.055 77.7236C150.556 80.5518 159.771 87.5172 168.626 92.7533C177.481 97.9895 189.982 102.315 195.125 103.824L177.513 90.814Z" fill="#B2C8EB" fill-opacity="0.6"/>   
    <path d="M205.106 166.998C219.342 130.583 217.484 111.04 217.484 111.04C217.484 111.04 205.106 108.26 182.702 98.7536C160.298 89.2474 145.929 76.614 145.929 76.614C145.929 76.614 136.174 91.3107 109.405 112.367C82.6366 133.424 69.0015 140.017 69.0015 140.017C69.0015 140.017 70.928 166.503 88.7524 193.739C106.577 220.975 145.691 240.288 145.691 240.288C145.691 240.288 186.556 214.447 205.106 166.998Z" fill="url(#paint0_linear_11537_102661)"/>

<path class="bottom_side"
     d="M136.407 235.174C129.269 228.843 122.514 221.657 117.41 213.858C98.5611 185.057 96.5239 157.69 96.5239 157.69L69.001 140.018C69.001 140.018 70.9275 166.503 88.7519 193.739C101.113 212.628 123.715 227.706 136.407 235.174Z" fill="white" fill-opacity="0.2"
     />
<path class="top_side"
    d="M177.054 91.0991L146.299 77.8584C142.474 83.1726 128.829 99.5251 101.597 119.639C101.597 119.639 84.7925 132.657 70.5527 140.342L96.9629 157.45C108.715 151.082 129.642 135.238 129.642 135.238C150.909 119.644 167.272 103.91 177.054 91.0991Z" fill="white" fill-opacity="0.3"
    />

<g class="lap">
    <path d="M144.527 213.332C143.007 213.332 140.148 211.569 139.099 210.663C138.327 209.998 137.82 209.068 137.651 208.041L129.798 160.844C129.4 158.452 130.595 155.564 133.586 154.912L199.335 136.188C199.963 136.055 200.529 135.982 201.024 135.982C201.615 135.982 202.11 136.079 202.52 136.26C202.749 136.369 203.002 136.477 203.28 136.586C204.522 137.106 206.078 137.758 206.296 138.857L213.358 186.128C213.817 188.399 212.502 190.646 210.391 191.274L144.865 213.272C144.781 213.32 144.66 213.332 144.527 213.332Z" fill="url(#paint0_linear_11537_102844)"/>
    <path fill-rule="evenodd" clip-rule="evenodd" d="M206.701 138.19C206.073 137.252 204.736 136.69 203.648 136.233C203.381 136.121 203.129 136.015 202.906 135.911C202.447 135.706 201.868 135.585 201.169 135.585C200.638 135.585 200.035 135.657 199.335 135.802L133.441 154.334C130.112 155.058 128.761 158.332 129.195 160.954L137.048 208.151C137.253 209.371 137.856 210.398 138.701 211.135C139.415 211.754 140.979 212.796 142.464 213.423C142.853 213.618 143.267 213.759 143.697 213.841C143.993 213.911 144.273 213.95 144.527 213.95C144.681 213.95 144.82 213.935 144.949 213.904C145.265 213.876 145.584 213.816 145.902 213.72L166.834 206.561L210.56 191.879C211.162 191.699 211.705 191.408 212.174 191.032C214.218 190.084 215.397 187.78 214.926 185.466L207.779 141.021C207.559 139.912 207.261 138.919 206.701 138.19ZM202.411 137.022C202.086 136.865 201.663 136.793 201.169 136.793C200.71 136.793 200.18 136.853 199.589 136.962L133.719 155.481C131.077 156.061 130.039 158.61 130.389 160.724L138.242 207.922C138.387 208.816 138.833 209.625 139.497 210.193C139.647 210.323 139.824 210.463 140.02 210.607C139.929 210.339 139.858 210.06 139.81 209.77L131.861 161.896C131.427 159.274 132.235 156.894 135.564 156.17L202.001 137.156C202.171 137.12 202.336 137.088 202.496 137.062C202.467 137.049 202.439 137.036 202.411 137.022Z" fill="#305594"/>
    <path d="M136.915 160.616L144.448 208.671L210.28 186.694L202.954 141.625L136.915 160.616Z" fill="#82A5DB"/>
    <defs>
    <linearGradient id="paint0_linear_11537_102844" x1="132.62" y1="156.125" x2="131.158" y2="160.247" gradientUnits="userSpaceOnUse">
    <stop stop-color="white"/>
    <stop offset="1" stop-color="#BDD0EE"/>
    </linearGradient>
    </defs>
</g>
<g class="watch">
    <path d="M170.03 131.393C170.978 130.177 172.152 128.734 174.371 127.747C172.705 127.284 171.056 128.797 169.962 129.994C168.574 131.511 166.918 134.43 166.618 135.786C166.399 136.777 166.719 137.81 167.651 138.05C166.931 135.237 169.147 132.525 170.03 131.393Z" fill="#E9F0FC"/>
    <path d="M177.365 162.515C179.526 162.876 181.557 161.175 182.289 160.154C179.501 158.22 177.792 155.625 176.493 151.588L169.441 153.674C170.542 158.055 173.833 161.926 177.365 162.515Z" fill="#C1D3EF"/>
    <path d="M179.184 136.443C178.898 134.506 180.041 132.65 181.885 132.056L190.119 129.404C192.433 128.658 194.867 130.178 195.245 132.605L197.69 148.301C197.989 150.22 197.34 151.65 195.521 152.273L186.087 155.789C183.747 156.59 181.892 154.811 181.528 152.339L179.184 136.443Z" fill="#82A5DB"/>
    <path d="M181.661 139.541C181.818 140.594 181.249 141.551 180.391 141.679C179.533 141.807 178.71 141.057 178.553 140.004C178.396 138.952 178.964 137.994 179.823 137.867C180.681 137.739 181.504 138.488 181.661 139.541Z" fill="white"/>
    <path d="M180.516 145.923C180.473 145.624 180.704 145.343 181.033 145.295C181.361 145.247 181.663 145.451 181.706 145.749L182.342 150.114C182.386 150.412 182.155 150.693 181.826 150.741C181.498 150.789 181.196 150.586 181.152 150.287L180.516 145.923Z" fill="white"/>
    <path d="M181.152 132.519C181.152 132.519 181.354 131.995 181.231 131.204C180.795 128.391 175.646 125.49 172.861 126.166C171.879 126.404 171.575 126.036 171.669 125.923C171.764 125.81 174.14 125.06 179.136 124.394C182.114 123.998 185.84 125.921 188.966 127.283C191.084 128.206 192.779 128.764 192.869 128.78L181.152 132.519Z" fill="white"/>
    <path d="M194.901 153.235L185.922 156.613C185.888 159.662 183.399 162.508 182.022 163.394C182.512 163.267 186.667 162.488 189.446 160.945C192.225 159.402 192.364 157.223 194.901 153.235Z" fill="#B2C8EB"/>
    <path d="M181.25 131.231C181.172 130.628 180.803 129.982 180.309 129.388C179.804 128.782 179.127 128.178 178.35 127.657C176.81 126.625 174.792 125.865 172.877 126.176C171.873 126.339 170.886 126.946 169.99 127.731C169.087 128.524 168.234 129.537 167.5 130.584C166.765 131.632 166.139 132.729 165.693 133.7C165.258 134.648 164.963 135.542 164.956 136.163C164.946 137.056 165.146 137.777 165.529 138.389C165.882 138.956 166.302 139.566 167.21 140.13L167.212 140.132C167.421 140.285 167.442 140.867 167.479 141.912C167.536 143.513 167.632 146.199 168.505 150.086C169.174 153.06 170.593 155.063 173.68 154.283C176.503 153.57 176.04 150.224 175.777 148.324C175.752 148.146 175.729 147.981 175.711 147.832C175.121 143.017 175.525 140.048 175.989 138.547C176.108 138.162 176.227 137.869 176.328 137.622C176.548 137.083 176.679 136.76 176.526 136.166C176.302 135.298 176.154 135.135 176.154 135.135L175.29 136.509C174.502 136.825 173.002 137.184 171.482 137.548C170.475 137.789 169.459 138.032 168.635 138.266C168.349 138.38 168.096 138.514 167.879 138.658C167.2 138.655 166.612 138.237 166.377 137.86C166.108 137.428 165.948 136.9 165.956 136.174C165.96 135.781 166.173 135.052 166.602 134.117C167.021 133.205 167.617 132.16 168.319 131.158C169.022 130.155 169.823 129.208 170.65 128.483C171.484 127.751 172.301 127.283 173.038 127.163C174.605 126.908 176.365 127.53 177.793 128.488C178.5 128.962 179.104 129.504 179.54 130.028C179.986 130.564 180.216 131.033 180.258 131.359C180.312 131.781 180.181 132.324 180.001 132.809C179.915 133.041 179.824 133.243 179.755 133.387C179.705 133.491 179.674 133.55 179.645 133.604C179.513 133.843 179.597 134.152 179.837 134.286C180.314 134.467 180.509 134.127 180.656 133.821C180.735 133.656 180.839 133.425 180.939 133.156C181.131 132.637 181.336 131.903 181.25 131.231Z" fill="#E9F0FC"/>
    <path d="M168.548 138.308C167.6 138.339 167.576 135.968 168.594 134.131C169.825 131.909 171.774 129.401 173.708 128.437C176.218 127.187 177.368 128.61 179.323 129.901C175.454 133.262 175.999 136.391 175.298 136.628C174.862 136.776 169.496 138.277 168.548 138.308Z" fill="#B2C8EB"/>
    <path d="M174.073 148.877C174.157 150.143 173.414 151.222 172.415 151.288C171.416 151.354 170.539 150.382 170.455 149.116C170.371 147.851 171.114 146.771 172.113 146.705C173.112 146.639 173.989 147.612 174.073 148.877Z" fill="#CADAF3"/>
    <path fill-rule="evenodd" clip-rule="evenodd" d="M174.446 155.558C173.85 155.859 173.776 156.624 174.056 157.179C174.337 157.734 174.997 158.128 175.593 157.826C176.189 157.525 176.263 156.76 175.983 156.205C175.703 155.65 175.042 155.257 174.446 155.558ZM174.681 156.863C174.502 156.51 174.639 156.245 174.762 156.183C174.885 156.12 175.18 156.168 175.358 156.521C175.537 156.874 175.4 157.139 175.277 157.202C175.154 157.264 174.86 157.216 174.681 156.863Z" fill="#305594"/>
    <path fill-rule="evenodd" clip-rule="evenodd" d="M170.106 149.139C170.015 147.763 170.825 146.44 172.09 146.356C173.354 146.273 174.331 147.478 174.422 148.854C174.513 150.231 173.703 151.554 172.438 151.637C171.174 151.721 170.197 150.516 170.106 149.139ZM172.136 147.055C171.402 147.103 170.728 147.939 170.804 149.093C170.88 150.247 171.658 150.987 172.392 150.939C173.126 150.891 173.8 150.055 173.724 148.901C173.647 147.747 172.869 147.006 172.136 147.055Z" fill="#305594"/>
    <path fill-rule="evenodd" clip-rule="evenodd" d="M173.305 133.599C172.709 133.297 172.049 133.691 171.768 134.245C171.487 134.8 171.561 135.565 172.157 135.866C172.753 136.168 173.413 135.774 173.694 135.22C173.975 134.665 173.901 133.9 173.305 133.599ZM172.392 134.561C172.571 134.208 172.866 134.161 172.989 134.223C173.112 134.285 173.248 134.551 173.07 134.904C172.891 135.257 172.596 135.304 172.473 135.242C172.35 135.18 172.214 134.914 172.392 134.561Z" fill="#305594"/>
    <path fill-rule="evenodd" clip-rule="evenodd" d="M196.029 152.831C195.075 154.14 194.405 155.433 193.784 156.633C192.679 158.765 191.748 160.531 189.625 161.642C186.405 163.326 182.526 164.193 178.932 164.688C176.877 165.009 174.99 164.252 173.533 163.298C171.816 162.173 170.521 160.669 169.931 159.829C167.756 156.738 165.482 150.493 165.173 139.928C165.169 139.789 165.164 139.584 165.159 139.414L165.146 138.906C165.102 138.839 165.06 138.773 165.02 138.707C164.57 137.986 164.345 137.15 164.356 136.156C164.364 135.4 164.709 134.406 165.148 133.45C165.61 132.445 166.254 131.316 167.009 130.24C167.762 129.166 168.645 128.114 169.595 127.281C170.23 126.723 170.939 126.226 171.694 125.905C171.743 125.877 171.856 125.833 172.034 125.774C172.143 125.737 172.253 125.703 172.363 125.674C172.469 125.643 172.587 125.61 172.718 125.576C172.953 125.513 173.228 125.444 173.544 125.371C174.774 125.086 176.624 124.73 179.136 124.395C181.732 124.049 184.897 125.466 187.737 126.738C188.155 126.925 188.566 127.109 188.966 127.284C190.065 127.763 191.05 128.143 191.757 128.401C192.083 128.52 192.35 128.613 192.541 128.677C194.25 129.147 195.639 130.585 195.937 132.497L198.382 148.193C198.547 149.249 198.463 150.249 198.021 151.097C197.613 151.88 196.936 152.461 196.029 152.831ZM191.501 129.217L181.798 132.314C181.724 132.716 181.606 133.083 181.502 133.365C181.394 133.655 181.282 133.904 181.197 134.081L181.196 134.084C181.127 134.228 180.99 134.51 180.744 134.706C180.606 134.816 180.431 134.902 180.221 134.929C180.016 134.955 179.814 134.919 179.624 134.847L179.583 134.831L179.545 134.81C179.463 134.765 179.39 134.71 179.325 134.649C179.148 135.213 179.093 135.824 179.184 136.443L179.384 137.796C179.589 137.653 179.823 137.556 180.078 137.518C181.103 137.365 182.081 138.225 182.262 139.438C182.442 140.652 181.758 141.759 180.733 141.912C180.475 141.951 180.221 141.925 179.981 141.846L180.473 145.183C180.614 145.06 180.791 144.977 180.982 144.949C181.027 144.943 181.072 144.939 181.116 144.939C181.497 144.933 182.201 144.96 182.288 145.623L182.898 149.808C183.018 150.717 182.312 151.011 181.972 151.069C181.941 151.077 181.909 151.083 181.877 151.088C181.69 151.115 181.5 151.088 181.333 151.014L181.528 152.339C181.655 153.196 181.96 153.969 182.402 154.581C182.217 154.16 182.305 153.643 182.673 153.314C183.126 152.909 183.822 152.949 184.227 153.402C184.47 153.675 184.691 153.963 184.894 154.249C185.184 154.657 185.566 155.252 185.784 155.878L195.944 152.105C197.236 151.508 197.804 150.42 197.758 148.999C197.561 149.992 196.867 150.848 195.874 151.223L188.45 154.025C186.661 154.701 184.705 153.552 184.424 151.66L182.071 135.842C181.854 134.385 182.727 132.986 184.132 132.541L191.452 130.221C192.801 129.794 194.2 130.369 194.901 131.486C194.268 130.156 192.948 129.283 191.501 129.217ZM193.047 153.942L194.886 153.257C194.188 154.329 193.647 155.373 193.154 156.326C192.999 156.625 192.849 156.915 192.7 157.194C191.78 158.92 190.924 160.172 189.3 161.021C187.566 161.929 184.889 162.756 182.565 163.278C182.388 163.318 182.213 163.356 182.042 163.393C183.297 162.521 184.204 161.384 184.817 160.297C185.269 159.496 185.576 158.7 185.752 158.013C185.84 157.67 185.898 157.341 185.922 157.041C185.933 156.906 185.939 156.76 185.932 156.611L193.047 153.942ZM183.681 156.448C183.301 156.304 182.946 156.096 182.625 155.834C181.661 155.048 181.038 153.813 180.836 152.441L179.2 141.345C178.869 141.003 178.63 140.532 178.549 139.992C178.468 139.448 178.561 138.925 178.78 138.501L178.492 136.545C178.338 135.502 178.538 134.477 179.009 133.606C179.031 133.507 179.068 133.409 179.119 133.317C179.143 133.272 179.169 133.222 179.215 133.127C179.278 132.996 179.36 132.812 179.439 132.601C179.611 132.136 179.698 131.707 179.663 131.436C179.644 131.287 179.517 130.965 179.164 130.517C177.566 132.016 176.849 133.439 176.459 134.535C176.539 134.635 176.731 134.913 176.806 135.086C176.888 135.273 176.99 135.563 177.107 136.016C177.253 136.581 177.198 136.991 177.05 137.418C177.002 137.559 176.939 137.712 176.878 137.862C176.859 137.91 176.839 137.957 176.82 138.004C176.738 138.209 176.65 138.44 176.562 138.724C176.131 140.12 175.724 142.999 176.307 147.76C176.323 147.894 176.345 148.048 176.368 148.218C176.393 148.393 176.419 148.585 176.445 148.79C177.321 152.551 178.495 154.989 179.608 156.571C180.111 157.285 181.228 158.585 182.687 159.573C182.762 159.455 182.834 159.335 182.901 159.216C183.26 158.581 183.493 157.965 183.62 157.468C183.684 157.219 183.717 157.015 183.73 156.863C183.741 156.726 183.722 156.587 183.681 156.448ZM182.285 160.147C180.738 159.097 179.567 157.73 179.036 156.974C178.163 155.733 177.274 154.021 176.508 151.653C176.416 152.307 176.217 152.968 175.822 153.535C175.385 154.163 174.734 154.636 173.827 154.865C172.123 155.296 170.774 154.97 169.775 154.03C169.646 153.909 169.525 153.779 169.41 153.642C170.139 155.881 170.967 157.478 171.73 158.563C172.205 159.239 173.311 160.522 174.738 161.457C176.167 162.393 177.747 162.876 179.315 162.334C180.596 161.891 181.573 161.069 182.285 160.147ZM168.123 148.205C168.231 148.798 168.357 149.425 168.505 150.086C169.174 153.06 170.593 155.063 173.68 154.284C176.503 153.571 176.04 150.224 175.777 148.324C175.752 148.147 175.729 147.982 175.711 147.833C175.122 143.018 175.526 140.048 175.989 138.547C176.108 138.162 176.227 137.869 176.328 137.622C176.548 137.083 176.679 136.761 176.526 136.166C176.492 136.036 176.461 135.922 176.431 135.822C176.346 135.537 176.276 135.365 176.228 135.264C176.185 135.418 176.147 135.561 176.111 135.697C176.078 135.82 176.047 135.936 176.016 136.046C175.961 136.236 175.902 136.421 175.824 136.571C175.748 136.718 175.624 136.888 175.411 136.96C175.179 137.038 173.716 137.454 172.204 137.851C171.445 138.05 170.668 138.246 170.02 138.395C169.459 138.523 168.964 138.624 168.665 138.651L168.663 138.651C168.625 138.655 168.591 138.657 168.56 138.658C168.548 138.658 168.537 138.659 168.525 138.659L168.415 138.665C168.116 138.684 167.914 138.696 167.554 138.625C167.017 138.519 166.574 138.176 166.377 137.861C166.108 137.429 165.948 136.9 165.956 136.174C165.96 135.781 166.173 135.052 166.602 134.118C167.021 133.205 167.617 132.161 168.319 131.158C169.022 130.155 169.823 129.209 170.65 128.484C171.484 127.752 172.301 127.283 173.038 127.163C174.605 126.908 176.365 127.531 177.793 128.488C178.501 128.962 179.104 129.504 179.54 130.028C179.986 130.565 180.216 131.033 180.258 131.36C180.312 131.781 180.181 132.324 180.001 132.809C179.915 133.042 179.824 133.244 179.755 133.387C179.705 133.492 179.675 133.55 179.645 133.605C179.513 133.844 179.597 134.152 179.837 134.286C180.314 134.468 180.509 134.128 180.656 133.821C180.735 133.657 180.839 133.425 180.939 133.156C181.094 132.737 181.258 132.178 181.27 131.625C181.266 131.496 181.255 131.355 181.231 131.205C181.191 130.944 181.11 130.683 180.995 130.424C180.825 130.074 180.587 129.723 180.309 129.389C179.804 128.783 179.127 128.178 178.35 127.658C176.81 126.626 174.792 125.865 172.878 126.176C171.873 126.34 170.886 126.946 169.99 127.732C169.087 128.524 168.234 129.537 167.5 130.584C166.765 131.633 166.139 132.73 165.693 133.7C165.258 134.648 164.963 135.543 164.956 136.163C164.946 137.056 165.147 137.777 165.529 138.39C165.837 138.885 166.197 139.413 166.887 139.914C167.038 140.024 167.205 140.132 167.391 140.239L167.438 140.957L167.435 140.955C167.454 141.214 167.466 141.533 167.479 141.912C167.489 142.177 167.499 142.472 167.514 142.797C167.648 144.799 167.859 146.597 168.123 148.205ZM167.484 136.919C167.483 137.336 167.54 137.73 167.678 138.038C167.568 138.017 167.461 137.981 167.36 137.932C167.146 137.829 166.991 137.688 166.911 137.58L166.878 137.529C166.681 137.208 166.549 136.798 166.556 136.181C166.559 135.924 166.722 135.295 167.147 134.368C167.551 133.491 168.127 132.477 168.81 131.503C169.495 130.526 170.265 129.619 171.046 128.935C171.843 128.235 172.558 127.849 173.134 127.756C173.534 127.691 173.954 127.691 174.384 127.748C174.125 127.852 173.849 127.977 173.552 128.124C172.526 128.636 171.52 129.542 170.623 130.584C169.722 131.63 168.914 132.833 168.288 133.961C167.751 134.931 167.487 136.041 167.484 136.919ZM175.698 128.084L175.657 128.065C176.276 128.288 176.889 128.605 177.459 128.987C177.933 129.304 178.352 129.651 178.697 129.996C176.99 131.593 176.214 133.128 175.793 134.32C175.628 134.786 175.516 135.208 175.428 135.54C175.397 135.656 175.369 135.761 175.343 135.854C175.289 136.042 175.245 136.167 175.204 136.247C175.188 136.278 175.176 136.295 175.169 136.302C174.913 136.386 173.508 136.785 172.026 137.174C171.271 137.372 170.501 137.566 169.863 137.712C169.21 137.862 168.733 137.952 168.537 137.958C168.484 137.96 168.41 137.944 168.328 137.774C168.241 137.595 168.183 137.304 168.184 136.921C168.187 136.163 168.42 135.169 168.901 134.301C169.506 133.208 170.288 132.046 171.153 131.041C172.022 130.032 172.957 129.203 173.865 128.751C174.65 128.36 175.239 128.159 175.698 128.084ZM175.662 125.649C176.549 125.894 177.451 126.286 178.282 126.773C179.177 127.299 180.008 127.948 180.653 128.669C181.292 129.384 181.786 130.213 181.923 131.097C181.946 131.248 181.96 131.391 181.966 131.525L190.68 128.744C190.096 128.519 189.416 128.244 188.686 127.925C188.272 127.745 187.853 127.557 187.43 127.368C186.226 126.828 184.993 126.276 183.761 125.839C182.096 125.248 180.549 124.913 179.228 125.089C177.834 125.275 176.648 125.467 175.662 125.649ZM179.501 140.567C179.732 140.891 180.058 141.021 180.288 140.986C180.639 140.934 181.09 140.453 180.969 139.644C180.849 138.835 180.277 138.507 179.927 138.559C179.675 138.597 179.373 138.854 179.266 139.294C179.237 139.473 179.235 139.671 179.267 139.885C179.306 140.153 179.39 140.38 179.501 140.567ZM181.083 145.642C180.914 145.667 180.852 145.796 180.863 145.873L181.499 150.237C181.51 150.314 181.607 150.42 181.776 150.395C181.945 150.37 182.007 150.241 181.996 150.165L181.36 145.8C181.349 145.723 181.252 145.617 181.083 145.642Z" fill="#305594"/>
    <path fill-rule="evenodd" clip-rule="evenodd" d="M166.786 140.57C167.146 150.65 169.343 156.214 171.239 158.908C171.745 159.629 172.902 160.973 174.409 161.959C175.916 162.946 177.695 163.529 179.511 162.901C181.387 162.252 182.654 160.873 183.423 159.511C183.807 158.831 184.061 158.165 184.201 157.617C184.271 157.342 184.312 157.104 184.327 156.912C184.343 156.712 184.33 156.594 184.317 156.545C184.108 155.776 183.556 155.061 183.034 154.469C182.853 154.265 182.867 153.945 183.072 153.761C183.278 153.578 183.594 153.595 183.778 153.801C184.003 154.053 184.209 154.322 184.405 154.597C184.725 155.047 185.117 155.677 185.282 156.283C185.339 156.493 185.344 156.742 185.324 156.993C185.303 157.252 185.251 157.547 185.17 157.864C185.008 158.499 184.721 159.247 184.294 160.002C183.442 161.512 182.007 163.096 179.838 163.846C177.609 164.617 175.498 163.868 173.861 162.796C172.223 161.723 170.98 160.279 170.421 159.484C168.339 156.525 166.079 150.412 165.773 139.91C165.771 139.859 165.769 139.798 165.768 139.734C166.082 140.039 166.336 140.277 166.786 140.57Z" fill="#E9F0FC"/>
</g>

<path d="M217.563 113.755C217.535 120.281 216.263 138.458 205.106 166.998C186.555 214.447 145.691 240.288 145.691 240.288C145.691 240.288 142.017 238.474 136.408 235.174C155.628 252.222 177.621 263.081 177.621 263.081C177.621 263.081 220.833 235.755 240.449 185.58C255.503 147.073 253.538 126.407 253.538 126.407C253.538 126.407 240.745 123.533 217.563 113.755Z" fill="url(#paint1_linear_11537_102661)" fill-opacity="0.5"/>
<path d="M217.134 111.978L207.716 109.259C217.134 114.017 236.793 121.792 246.475 124.478L217.134 111.978Z" fill="white"/>
<path d="M122.859 140.257L106.834 194.396C97.7266 173.847 96.5239 157.69 96.5239 157.69C96.5239 157.69 105.387 153.01 122.859 140.257Z" fill="white" fill-opacity="0.2"
/>
<path d="M95.4963 124.147C89.2925 128.62 79.4557 135.539 70.5566 140.342L96.9668 157.45C104.495 153.302 115.678 145.515 122.844 140.286L95.4963 124.147Z" fill="url(#paint3_linear_11537_102661)"/>
<path d="M177.054 91.0991L146.299 77.8584C143.935 81.143 136.412 90.2102 125.351 100.245L154.79 114.729C164.292 106.285 171.873 97.9406 177.054 91.0991Z" fill="white" fill-opacity="0.3"/>
<path d="M177.054 91.0991L146.299 77.8584C145.331 79.2038 142.348 83.0035 139.826 85.7039L169.689 100.022C172.508 96.8885 175.192 93.5369 177.054 91.0991Z" fill="url(#paint4_linear_11537_102661)"/>
<path d="M132.501 231.582L172.342 96.9857C176.032 92.6844 177.62 90.2744 177.62 90.2744C177.62 90.2744 193.067 103.362 216.758 113.414C224.105 116.532 230.433 118.966 235.667 120.839L198.576 246.145C186.778 257.291 177.62 263.082 177.62 263.082C177.62 263.082 152.508 250.683 132.501 231.582Z" fill="white" fill-opacity="0.2"/>
<path d="M162.374 254.376L205.639 108.213C209.094 109.981 212.812 111.74 216.758 113.414C240.449 123.467 253.538 126.407 253.538 126.407C253.538 126.407 255.503 147.073 240.449 185.58C220.833 235.755 177.62 263.082 177.62 263.082C177.62 263.082 171.252 259.937 162.374 254.376Z" fill="white" fill-opacity="0.2"/>
                    
<path class="front_side"
    d="M240.449 185.58C255.503 147.073 253.538 126.407 253.538 126.407C253.538 126.407 240.449 123.467 216.758 113.414C193.067 103.362 177.621 90.2742 177.621 90.2742C177.621 90.2742 167.557 105.544 139.25 127.81C110.943 150.077 96.5244 157.69 96.5244 157.69C96.5244 157.69 98.5616 185.056 117.41 213.858C136.259 242.659 177.621 263.082 177.621 263.082C177.621 263.082 220.833 235.755 240.449 185.58Z" fill="white" fill-opacity="0.1"
    />

<path fill-rule="evenodd" clip-rule="evenodd" d="M177.04 91.1031L145.539 77.5322L145.934 76.6138L177.54 90.2295C177.604 90.2572 177.659 90.2968 177.705 90.3446C177.892 90.501 178.392 90.9132 179.184 91.5335C183.664 95.0469 197.482 105.235 216.758 113.414C230.125 119.086 240.117 122.494 246.287 124.386L217.079 111.959L217.471 111.039L253.536 126.384L253.527 126.404L253.538 126.407C253.538 126.407 255.503 147.073 240.449 185.58C220.833 235.755 177.621 263.082 177.621 263.082C177.621 263.082 136.259 242.659 117.41 213.858C100.342 187.777 97.0592 162.872 96.5914 158.4L69.279 140.704C69.0472 140.554 68.9811 140.244 69.1312 140.012C69.2814 139.781 69.591 139.714 69.8227 139.865L96.9639 157.45C99.5743 156.005 113.798 147.831 139.25 127.81C162.124 109.817 173.086 96.393 176.451 91.903C176.683 91.5934 176.879 91.3263 177.04 91.1031ZM251.611 127.989C251.317 127.913 250.98 127.823 250.6 127.721C248.974 127.28 246.569 126.59 243.424 125.585C237.132 123.575 227.88 120.306 215.977 115.255C203.992 110.17 194.098 104.32 187.199 99.7409C183.748 97.4503 181.042 95.4748 179.193 94.0676C178.749 93.7298 178.355 93.4247 178.011 93.1557C177.771 93.4753 177.496 93.8361 177.184 94.2368C175.765 96.0583 173.588 98.7039 170.524 102.044C164.396 108.725 154.724 118.182 140.486 129.382C126.29 140.549 115.563 148.052 108.369 152.772C104.773 155.132 102.059 156.796 100.238 157.873C99.5976 158.253 99.0673 158.559 98.6478 158.798C98.7382 159.572 98.8846 160.686 99.1118 162.098C99.5873 165.051 100.416 169.301 101.828 174.444C104.652 184.734 109.798 198.574 119.084 212.762C128.294 226.836 143.09 238.964 155.715 247.621C162.006 251.935 167.715 255.357 171.849 257.701C173.916 258.872 175.587 259.772 176.738 260.378C177.021 260.527 177.273 260.658 177.491 260.771C177.74 260.603 178.036 260.401 178.377 260.165C179.572 259.337 181.31 258.093 183.461 256.441C187.764 253.138 193.714 248.208 200.273 241.724C213.4 228.747 228.911 209.599 238.586 184.852C246.058 165.74 249.29 151.098 250.658 141.277C251.342 136.366 251.561 132.658 251.61 130.197C251.629 129.292 251.624 128.555 251.611 127.989Z" fill="#B2C8EB"/>

<linearGradient id="paint0_linear_11537_102661" x1="224.576" y1="110.411" x2="81.4257" y2="181.194" gradientUnits="userSpaceOnUse">
<stop stop-color="#B2C8EB" stop-opacity="0.5"/>
<stop offset="1" stop-color="#B2C8EB" stop-opacity="0.15"/>
</linearGradient>
<linearGradient id="paint1_linear_11537_102661" x1="151.427" y1="254.881" x2="234.782" y2="118.758" gradientUnits="userSpaceOnUse">
<stop stop-color="white"/>
<stop offset="1" stop-color="white" stop-opacity="0"/>
</linearGradient>
<linearGradient id="paint2_linear_11537_102661" x1="90.0049" y1="153.427" x2="70.8225" y2="181.388" gradientUnits="userSpaceOnUse">
<stop stop-color="#B2C8EB" stop-opacity="0.5"/>
<stop offset="1" stop-color="#B2C8EB" stop-opacity="0.2"/>
</linearGradient>     
<linearGradient id="paint3_linear_11537_102661" x1="85.7793" y1="157.794" x2="110.784" y2="130.794" gradientUnits="userSpaceOnUse">
<stop offset="0.0001" stop-color="white" stop-opacity="0.5"/>
<stop offset="0.00974973" stop-color="white" stop-opacity="0.6"/>
<stop offset="1" stop-color="white" stop-opacity="0.05"/>
</linearGradient>
<linearGradient id="paint4_linear_11537_102661" x1="161.453" y1="82.3611" x2="155.701" y2="95.5084" gradientUnits="userSpaceOnUse">
<stop stop-color="white" stop-opacity="0.6"/>
<stop offset="0.0001" stop-color="white" stop-opacity="0.5"/>
<stop offset="1" stop-color="white" stop-opacity="0.05"/>
</linearGradient>
</g>

<circle class="circle"
    fill="#ffffff" cx="178px" cy="207px" r="28" fill-opacity="0.4"
/>
<g class="fingerprint" fill="#2979FF">
<path d="M175.253 225.436C175.489 225.554 175.762 225.573 176.013 225.489C176.263 225.405 176.47 225.226 176.588 224.99C179.348 219.456 180.426 213.235 179.69 207.095C179.658 206.831 179.523 206.589 179.314 206.425C179.106 206.26 178.84 206.185 178.575 206.216C178.311 206.247 178.07 206.382 177.905 206.591C177.74 206.8 177.665 207.066 177.696 207.33C178.387 213.084 177.376 218.914 174.79 224.1C174.732 224.218 174.699 224.347 174.691 224.478C174.683 224.609 174.701 224.74 174.744 224.864C174.787 224.989 174.854 225.103 174.941 225.201C175.028 225.299 175.134 225.379 175.253 225.436Z" />
<path d="M191.439 220.51C191.31 220.537 191.176 220.537 191.047 220.512C190.793 220.457 190.57 220.305 190.426 220.088C190.283 219.872 190.229 219.607 190.278 219.352C191.174 214.89 191.356 210.314 190.816 205.795C190.566 203.693 189.773 201.692 188.516 199.99C188.437 199.885 188.38 199.766 188.347 199.639C188.315 199.512 188.308 199.38 188.326 199.251C188.345 199.121 188.389 198.996 188.455 198.884C188.522 198.771 188.61 198.673 188.715 198.594C188.82 198.516 188.939 198.459 189.066 198.426C189.192 198.394 189.324 198.386 189.454 198.405C189.583 198.423 189.708 198.467 189.821 198.534C189.933 198.601 190.032 198.689 190.11 198.794C191.568 200.768 192.488 203.087 192.781 205.524C193.347 210.254 193.158 215.044 192.219 219.714C192.195 219.844 192.146 219.968 192.074 220.078C192.002 220.189 191.909 220.284 191.8 220.358C191.691 220.432 191.568 220.484 191.439 220.51Z"/>
<path d="M164.046 218.411C164.168 218.46 164.297 218.485 164.428 218.485C164.559 218.484 164.689 218.457 164.809 218.407C164.93 218.356 165.04 218.282 165.132 218.189C165.224 218.096 165.297 217.986 165.346 217.864C166.535 214.948 166.965 211.777 166.594 208.65C166.332 206.441 166.679 204.203 167.598 202.177C168.516 200.152 169.972 198.416 171.806 197.158C173.64 195.9 175.783 195.168 178.003 195.041C180.223 194.914 182.436 195.397 184.402 196.437C184.635 196.561 184.909 196.587 185.161 196.509C185.414 196.431 185.625 196.256 185.749 196.022C185.873 195.789 185.899 195.515 185.821 195.263C185.743 195.01 185.568 194.798 185.334 194.675C183.047 193.461 180.471 192.898 177.886 193.044C175.301 193.191 172.806 194.042 170.67 195.506C168.535 196.97 166.84 198.991 165.771 201.349C164.702 203.708 164.298 206.314 164.605 208.885C164.935 211.677 164.551 214.508 163.488 217.111C163.439 217.233 163.415 217.363 163.416 217.495C163.418 217.626 163.445 217.756 163.497 217.877C163.549 217.998 163.624 218.107 163.718 218.199C163.813 218.29 163.924 218.362 164.046 218.411Z"/>
<path d="M180.833 225.638C180.588 225.735 180.314 225.731 180.072 225.627C179.951 225.576 179.842 225.501 179.75 225.406C179.658 225.312 179.585 225.201 179.537 225.078C179.488 224.956 179.465 224.825 179.467 224.694C179.469 224.562 179.497 224.432 179.55 224.312C181.912 218.804 182.783 212.771 182.077 206.82C182.032 206.371 181.898 205.935 181.682 205.538C181.467 205.142 181.174 204.792 180.822 204.51C180.47 204.227 180.066 204.018 179.632 203.893C179.198 203.769 178.744 203.732 178.295 203.785C177.847 203.838 177.414 203.979 177.021 204.201C176.628 204.423 176.284 204.722 176.007 205.078C175.73 205.435 175.528 205.843 175.41 206.279C175.293 206.715 175.264 207.17 175.324 207.617C175.486 208.988 175.544 210.368 175.5 211.748C175.491 212.012 175.378 212.262 175.185 212.443C174.992 212.624 174.735 212.721 174.471 212.713C174.207 212.704 173.957 212.591 173.776 212.398C173.595 212.205 173.498 211.948 173.506 211.684C173.547 210.405 173.493 209.124 173.343 207.852C173.252 207.145 173.302 206.427 173.49 205.74C173.678 205.052 174.001 204.409 174.439 203.846C174.878 203.284 175.423 202.814 176.044 202.464C176.665 202.114 177.349 201.891 178.057 201.807C178.764 201.723 179.482 201.78 180.168 201.975C180.853 202.17 181.493 202.499 182.051 202.943C182.609 203.386 183.073 203.936 183.417 204.561C183.761 205.185 183.978 205.872 184.055 206.58C184.805 212.884 183.882 219.275 181.38 225.109C181.275 225.351 181.078 225.541 180.833 225.638Z"/>
<path d="M170.959 224.108C171.191 224.233 171.462 224.262 171.715 224.187C171.967 224.112 172.18 223.941 172.306 223.71C173.304 221.836 174.08 219.853 174.619 217.801C174.686 217.545 174.648 217.273 174.515 217.044C174.382 216.816 174.163 216.65 173.907 216.583C173.651 216.515 173.379 216.553 173.151 216.686C172.922 216.82 172.756 217.038 172.689 217.294C172.189 219.197 171.469 221.036 170.544 222.773C170.424 223.005 170.401 223.276 170.478 223.525C170.556 223.775 170.728 223.985 170.959 224.108Z"/>
<path d="M186.779 206.926C186.598 206.771 186.479 206.557 186.443 206.321L186.451 206.31C186.316 205.159 185.926 204.053 185.31 203.072C184.694 202.091 183.868 201.259 182.891 200.637C181.914 200.015 180.81 199.619 179.661 199.476C178.511 199.334 177.345 199.45 176.245 199.814C175.994 199.899 175.72 199.88 175.482 199.763C175.245 199.645 175.064 199.438 174.979 199.186C174.895 198.935 174.914 198.661 175.031 198.423C175.149 198.186 175.356 198.005 175.607 197.92C176.986 197.463 178.45 197.318 179.891 197.496C181.333 197.675 182.717 198.171 183.944 198.95C185.17 199.729 186.208 200.771 186.982 202C187.756 203.229 188.247 204.616 188.42 206.058C188.452 206.319 188.379 206.582 188.218 206.79C188.056 206.997 187.82 207.133 187.559 207.167H187.427C187.189 207.167 186.959 207.081 186.779 206.926Z"/>
<path d="M185.366 224.312C185.616 224.39 185.886 224.367 186.119 224.247C186.352 224.128 186.528 223.922 186.61 223.674C187.857 219.941 188.55 216.045 188.667 212.111C188.671 211.98 188.649 211.85 188.603 211.727C188.556 211.605 188.486 211.493 188.396 211.397C188.307 211.302 188.199 211.225 188.08 211.171C187.96 211.118 187.831 211.088 187.7 211.084C187.57 211.08 187.439 211.102 187.317 211.149C187.194 211.195 187.082 211.265 186.987 211.355C186.892 211.445 186.815 211.552 186.761 211.672C186.708 211.791 186.678 211.92 186.674 212.051C186.564 215.795 185.906 219.503 184.721 223.056C184.68 223.181 184.665 223.312 184.676 223.443C184.686 223.574 184.723 223.701 184.783 223.818C184.843 223.935 184.925 224.038 185.025 224.123C185.125 224.208 185.241 224.272 185.366 224.312Z"/>
<path d="M167.606 221.891C167.475 221.88 167.348 221.844 167.232 221.784C167.115 221.724 167.01 221.642 166.925 221.541C166.84 221.441 166.776 221.325 166.736 221.2C166.696 221.074 166.681 220.942 166.692 220.811C166.703 220.68 166.74 220.553 166.801 220.436C168.719 216.721 169.477 212.514 168.978 208.363C168.712 206.093 169.248 203.801 170.493 201.884C170.642 201.674 170.866 201.53 171.118 201.482C171.371 201.434 171.632 201.486 171.847 201.626C172.063 201.765 172.216 201.983 172.275 202.233C172.334 202.484 172.294 202.747 172.163 202.968C171.174 204.497 170.751 206.324 170.967 208.132C171.512 212.679 170.678 217.285 168.575 221.353C168.515 221.47 168.433 221.573 168.333 221.658C168.233 221.743 168.117 221.807 167.993 221.847C167.868 221.887 167.736 221.902 167.606 221.891Z"/>   
</g>
</svg>
