<svg width="320" height="336" viewBox="0 0 320 336" fill="none" xmlns="http://www.w3.org/2000/svg">              
<defs> 
    <style> 
        .shield { 
            transform-origin: center center;  
            animation: scale-shield 4s ease-in-out;                     
        }
        .front_side {  
            animation: fill-opacity-front 4s ease-in-out;       
        }
        .top_side {  
            animation: fill-opacity-top 4s ease-in-out;          
        }
        .bottom_side {       
            animation: fill-opacity-bottom 4s ease-in-out;         
        }
        .fingerprint { 
            transform-origin: 178px 207px;           
            animation: scale-fingerprint 4s;
        }
        .circle {
            transform-origin: 178px 207px;            
            animation: scale-circle 4s;
        }
        .devices {
           animation: fill-opasity-devices 4s;
        }
        .screen {
           animation: fill-color-screen 4s; 
        }
        .monitor {
           animation: fill-color-monitor 4s; 
        }
        .browsers {   
            transform-origin: 160px 166px;                  
            animation: scale-browsers 4s; 
        }
        @keyframes scale-shield {                             
            0% {     
                transform: scale(0);               
            }             
            10% {       
                transform: scale(1.1);     
            }   
            17% {          
                transform: scale(1);      
            }         
        }         
        @keyframes fill-opacity-front {                           
            0%, 28% {  
            fill-opacity:0.1 
            }
            35%, 36% {     
               fill-opacity:1                                
            }
            42%, 100% {    
               fill-opacity: 0.1                 
            }     
        }      
        @keyframes fill-opacity-top {                           
            0%, 28% {
            fill-opacity:0.3 
            }
            35%, 36% {     
               fill-opacity: 1                    
            }
            42%, 100% {    
               fill-opacity: 0.3                 
            }  
        } 
        @keyframes fill-opacity-bottom {                             
             0%, 28% {
            fill-opacity:0.2 
            }
            35%, 36% {     
               fill-opacity: 1              
            }
            42%, 100% {    
               fill-opacity: 0.2                 
            }    
        }  
        @keyframes fill-opasity-devices {                                    
            0%, 34% {
            fill-opacity:0 
            }
            35% {     
               fill-opacity:1          
            }    
        } 
        @keyframes scale-fingerprint {                                                                              
            0%, 23% {     
                transform: scale(0);               
            }            
            25% {          
                transform: scale(2.5);                        
            }    
            30% {          
                transform: scale(0.7);    
            }  
            35% {          
                transform: scale(1);    
            }                
        }         
        @keyframes scale-circle {                                                             
            0%, 35% {     
                transform: scale(0);               
            }       
            36% {          
                transform: scale(0.7);    
            }   
            40% {                            
                transform: scale(1);    
            }   
        }    
        @keyframes fill-color-screen {                                       
            0%, 65% {     
               fill: #DDE7F5;               
            }  
            70% {    
               fill: #82A5DB;            
            }  
            75% {     
               fill: #DDE7F5;                 
            }  
            80%, 100% {    
               fill: #82A5DB;                         
            } 
        } 
        @keyframes fill-color-monitor {                                   
            0%, 65% {     
               fill: #8EAEDF;               
            }  
            70% {    
               fill: #305594;            
            }  
            75% {     
               fill: #8EAEDF;               
            }  
            80%, 100% {    
               fill: #305594;            
            } 
        }  
        @keyframes scale-browsers {                                                                               
            0%, 30% {     
                transform: rotate(-45deg) scale(0);                 
            }             
            42% {          
                transform: rotate(-4deg) scale(1);       
            } 
            43% {          
                transform: rotate(0 deg) scale(1);      
            }         
        }       
    </style>     
</defs>

<g class="browsers">
    <path d="M92.0501 94.9999C101.968 94.9728 110 86.9244 110 77C110 74.0538 109.292 71.2729 108.037 68.8181H91.9999L99.0874 81.0908L91.146 94.9801C91.4124 94.9925 91.6803 94.9992 91.9496 94.9999H92.0501Z" fill="#B2C8EB"/>
    <path d="M76.8574 67.2644C80.0606 62.2925 85.6458 59 92 59C98.9949 59 105.058 62.99 108.037 68.8182H91.9999L84.9165 81.0909H76.8574V67.2644Z" fill="#82A5DB"/>
    <path d="M91.1461 94.9801C81.6015 94.5343 74 86.6549 74 77C74 73.4147 75.0482 70.0742 76.8549 67.2683L84.9125 81.0908H99.0875L91.1461 94.9801Z" fill="#668FCA"/>
    <path d="M92.0002 85.1818C96.5189 85.1818 100.182 81.5186 100.182 76.9999C100.182 72.4812 96.5189 68.8181 92.0002 68.8181C87.4815 68.8181 83.8184 72.4812 83.8184 76.9999C83.8184 81.5186 87.4815 85.1818 92.0002 85.1818Z" fill="#F1F1F1"/>
    <path d="M92 83.5455C95.615 83.5455 98.5455 80.615 98.5455 77C98.5455 73.3851 95.615 70.4546 92 70.4546C88.3851 70.4546 85.4546 73.3851 85.4546 77C85.4546 80.615 88.3851 83.5455 92 83.5455Z" fill="#3A6EC7"/>
    <path d="M285.477 189.877C284.694 188.052 283.106 186.082 281.862 185.46C282.749 187.123 283.365 188.909 283.687 190.755L283.69 190.784C281.653 185.867 278.199 183.882 275.376 179.564C275.234 179.345 275.091 179.127 274.952 178.896C274.872 178.764 274.809 178.645 274.753 178.535C274.636 178.316 274.546 178.084 274.484 177.844C274.485 177.833 274.48 177.823 274.473 177.814C274.465 177.806 274.455 177.801 274.444 177.799C274.432 177.796 274.421 177.796 274.41 177.799C274.407 177.799 274.404 177.803 274.401 177.804C274.398 177.805 274.392 177.809 274.388 177.811L274.395 177.799C269.868 180.366 268.331 185.116 268.192 187.493C266.383 187.613 264.654 188.258 263.23 189.344C263.082 189.222 262.926 189.108 262.765 189.003C262.355 187.611 262.337 186.138 262.714 184.738C261.052 185.517 259.575 186.623 258.376 187.984H258.368C257.654 187.107 257.704 184.217 257.745 183.613C257.534 183.695 257.332 183.799 257.143 183.922C256.513 184.358 255.923 184.847 255.382 185.383C254.765 185.989 254.201 186.644 253.697 187.34V187.343V187.34C252.539 188.93 251.717 190.727 251.279 192.626L251.255 192.741C251.221 192.895 251.099 193.664 251.078 193.831C251.078 193.844 251.075 193.856 251.074 193.869C250.916 194.663 250.818 195.467 250.781 196.275V196.365C250.789 200.731 252.488 204.937 255.541 208.15C258.595 211.364 262.781 213.352 267.275 213.722C271.768 214.093 276.242 212.819 279.813 210.152C283.384 207.485 285.792 203.618 286.563 199.316C286.593 199.091 286.618 198.868 286.645 198.64C287.016 195.67 286.614 192.656 285.476 189.874L285.477 189.877ZM264.706 203.537C264.79 203.576 264.869 203.619 264.956 203.656L264.968 203.664C264.881 203.623 264.793 203.581 264.706 203.537ZM283.691 190.789V190.772L283.694 190.791L283.691 190.789Z" fill="#B2C8EB"/>
    <path d="M268.83 193.01C268.801 193.445 267.217 194.942 266.663 194.942C261.539 194.942 260.707 197.943 260.707 197.943C260.933 200.471 262.753 202.554 264.951 203.652C265.052 203.703 265.154 203.748 265.256 203.793C265.432 203.869 265.608 203.939 265.785 204.003C266.539 204.261 267.33 204.409 268.13 204.441C277.113 204.849 278.853 194.04 272.37 190.902C273.899 190.709 275.448 191.073 276.715 191.924C275.924 190.571 274.776 189.445 273.389 188.66C272.002 187.876 270.426 187.462 268.82 187.458C268.606 187.458 268.397 187.476 268.186 187.49C266.378 187.61 264.649 188.255 263.225 189.341C263.5 189.566 263.81 189.866 264.463 190.49C265.686 191.657 268.823 192.865 268.83 193.007L268.83 193.01Z" fill="#3A6EC7"/>
    <path d="M275.154 189.89C275.812 190.516 276.376 191.228 276.828 192.006C276.927 192.079 277.02 192.151 277.099 192.221C281.185 195.868 279.044 201.023 278.884 201.388C282.203 198.74 284.325 194.823 283.688 190.78C281.649 185.859 278.191 183.873 275.373 179.555C275.231 179.337 275.088 179.118 274.949 178.887C274.869 178.755 274.806 178.636 274.75 178.527C274.633 178.307 274.543 178.076 274.482 177.836C274.482 177.825 274.478 177.814 274.47 177.806C274.462 177.797 274.452 177.792 274.441 177.791C274.43 177.788 274.418 177.788 274.407 177.791C274.404 177.791 274.401 177.795 274.398 177.796C274.395 177.797 274.389 177.801 274.385 177.802C273.688 178.123 269.554 184.462 275.157 189.883L275.154 189.89Z" fill="#82A5DB"/>
    <path d="M260.707 197.941C260.707 197.941 261.539 194.939 266.664 194.939C267.217 194.939 268.802 193.442 268.831 193.008C266.627 193.781 264.199 193.688 262.065 192.75C261.03 192.242 259.877 191.999 258.717 192.044C257.558 192.089 256.429 192.421 255.439 193.008C255.815 193.795 256.418 194.459 257.176 194.92C257.933 195.382 258.813 195.621 259.708 195.608C259.374 198.461 260.932 201.785 264.702 203.532C264.786 203.571 264.865 203.614 264.952 203.651C262.751 202.55 260.934 200.468 260.707 197.942V197.941Z" fill="#82A5DB"/>
    <path d="M48.6816 197.803C38.7945 197.803 30.7793 205.819 30.7793 215.708C30.7793 225.311 38.3378 233.148 47.829 233.592C48.1122 233.606 48.3959 233.613 48.6818 233.613C53.2653 233.613 57.4454 231.89 60.6127 229.057C58.5142 230.449 56.0608 231.249 53.4388 231.249C49.1755 231.249 45.3573 229.134 42.7894 225.798C40.8098 223.461 39.5276 220.006 39.4403 216.129V215.286C39.5276 211.409 40.8097 207.954 42.7888 205.617C45.3572 202.281 49.1752 200.166 53.4383 200.166C56.0609 200.166 58.5148 200.967 60.6135 202.36C57.4617 199.54 53.3069 197.82 48.7489 197.803C48.7262 197.803 48.7039 197.802 48.6812 197.802L48.6816 197.803Z" fill="#B2C8EB"/>
    <path d="M42.7891 205.618C44.4319 203.678 46.5536 202.509 48.8716 202.509C54.0836 202.509 58.3078 208.419 58.3078 215.709C58.3078 222.999 54.0832 228.909 48.8716 228.909C46.5536 228.909 44.4319 227.739 42.7895 225.8C45.3574 229.135 49.1752 231.251 53.4389 231.251C56.0611 231.251 58.5145 230.45 60.6129 229.058C64.2772 225.779 66.5845 221.014 66.5845 215.709C66.5845 210.405 64.2776 205.639 60.6142 202.361C58.5152 200.968 56.0614 200.167 53.439 200.167C49.1757 200.167 45.3575 202.283 42.7896 205.618" fill="#3A6EC7"/>
    <path d="M251.832 74.3042C251.366 74.5476 250.886 74.7621 250.395 74.9465C248.829 75.5323 247.171 75.8308 245.5 75.8275C239.048 75.8275 233.427 71.3886 233.427 65.6923C233.436 64.9283 233.648 64.1804 234.041 63.5257C234.435 62.871 234.997 62.3332 235.668 61.968C229.832 62.2135 228.332 68.2957 228.332 71.8591C228.332 81.9342 237.616 82.9556 239.616 82.9556C240.695 82.9556 242.321 82.642 243.298 82.3338L243.476 82.2738C247.233 80.9748 250.436 78.4353 252.557 75.0733C252.622 74.9709 252.651 74.8498 252.64 74.7291C252.628 74.6084 252.577 74.4949 252.493 74.4067C252.41 74.3185 252.3 74.2605 252.18 74.242C252.06 74.2234 251.938 74.2453 251.832 74.3042Z" fill="#3A6EC7"/>
    <path d="M234.742 81.2427C233.525 80.4877 232.472 79.4985 231.641 78.3325C230.695 77.0354 230.043 75.547 229.733 73.9715C229.422 72.396 229.46 70.7716 229.844 69.2123C230.227 67.6531 230.948 66.1966 231.954 64.9451C232.96 63.6937 234.227 62.6775 235.667 61.9679C236.093 61.7674 236.82 61.4047 237.786 61.4224C238.467 61.4274 239.138 61.59 239.746 61.8976C240.353 62.2052 240.882 62.6493 241.289 63.1952C241.84 63.9305 242.143 64.8214 242.156 65.7399C242.156 65.7113 245.491 54.8848 231.248 54.8848C225.263 54.8848 220.341 60.566 220.341 65.5504C220.317 68.1871 220.881 70.7959 221.992 73.1872C223.807 77.0609 226.981 80.133 230.912 81.8202C234.843 83.5073 239.256 83.692 243.314 82.3391C241.893 82.7871 240.392 82.9216 238.914 82.7333C237.436 82.5449 236.017 82.0382 234.754 81.2481L234.742 81.2427Z" fill="#82A5DB"/>
    <path d="M241.095 68.6201C240.985 68.7633 240.645 68.961 240.645 69.3919C240.645 69.7479 240.877 70.0902 241.289 70.3779C243.249 71.7416 246.946 71.5616 246.955 71.5616C248.408 71.5581 249.833 71.1649 251.083 70.4229C252.343 69.687 253.389 68.6343 254.116 67.3694C254.844 66.1044 255.229 64.6711 255.232 63.2116C255.267 60.1555 254.141 58.1236 253.686 57.2235C250.796 51.5709 244.56 48.3198 237.778 48.3198C233.191 48.3194 228.789 50.1247 225.523 53.3453C222.257 56.566 220.39 60.9431 220.325 65.5299C220.391 60.5469 225.343 56.5226 231.233 56.5226C231.71 56.5226 234.432 56.5689 236.96 57.8958C239.188 59.0659 240.355 60.4787 241.166 61.8792C242.009 63.3343 242.159 65.1726 242.159 65.9049C242.159 66.6372 241.785 67.7227 241.095 68.6201Z" fill="#B2C8EB"/>
    <path fill-rule="evenodd" clip-rule="evenodd" d="M183.323 279.936C180.885 277.947 175.823 280.437 173.112 282.121C179.765 283.824 183.854 289.17 183.854 296.005C183.854 296.24 183.869 296.466 183.884 296.701C183.907 297.053 183.931 297.424 183.909 297.875L164.086 297.893C164.214 301.54 166.193 303.115 169.069 303.115C171.359 303.115 172.825 301.961 173.265 299.799L183.707 299.817C181.802 305.937 176.471 310.133 168.868 310.133C167.765 310.133 166.718 310.062 165.723 309.919C161.603 312.615 156.484 314.735 153.625 312.937C150.595 311.024 151.214 306.466 152.733 302.354C156.081 293.477 162.576 287.266 165.882 285.286C166.138 285.158 165.973 284.828 165.698 284.956C163.954 285.864 157.373 289.298 153.094 296.002C153.094 295.967 153.094 295.931 153.094 295.896C153.094 291.681 154.779 288.035 157.82 285.25C160.495 282.831 164.013 281.548 168.373 281.548C169.456 281.548 170.495 281.629 171.486 281.786C174.938 279.771 181.188 276.792 183.946 279.276C185.283 280.486 185.008 283.582 184.092 285.891C184.019 286.203 183.634 286.148 183.707 285.818C184.147 284.535 185.155 281.42 183.323 279.936ZM155.478 303.706C154.055 306.921 153.346 310.217 154.963 311.434C157.13 313.06 161.558 311.676 164.773 309.758C162.439 309.299 160.42 308.421 158.7 307.128C157.427 306.158 156.343 304.998 155.478 303.706ZM168.758 288.768C166.376 288.768 164.105 290.142 164.05 293.312H173.302C173.302 290.215 171.268 288.768 168.758 288.768Z" fill="#668FCA"/>
    <path d="M209.168 50.8978C209.43 50.9873 209.714 50.8481 209.803 50.5868C209.893 50.3256 209.754 50.0413 209.492 49.9518C181.433 40.3412 149.904 44.2478 121.818 59.2427C121.574 59.3727 121.482 59.6756 121.612 59.9192C121.743 60.1628 122.045 60.2549 122.289 60.1248C150.17 45.2392 181.411 41.3908 209.168 50.8978Z" fill="#B2C8EB"/>
    <path d="M258.928 88.9563C258.779 88.724 258.469 88.6565 258.237 88.8057C258.005 88.9548 257.937 89.2641 258.086 89.4965C270.761 109.242 276.728 133.761 275.359 159.375C275.345 159.65 275.556 159.886 275.832 159.901C276.108 159.915 276.343 159.704 276.358 159.428C277.737 133.63 271.728 108.898 258.928 88.9563Z" fill="#B2C8EB"/>
    <path d="M70.9796 106.905C71.1344 106.676 71.0746 106.365 70.8459 106.211C70.6172 106.056 70.3064 106.116 70.1516 106.344C68.4626 108.839 66.8331 111.402 65.2673 114.031C52.564 135.36 45.7032 158.295 44.2998 180.483C44.2824 180.759 44.4917 180.997 44.7673 181.014C45.0429 181.031 45.2804 180.822 45.2979 180.547C46.691 158.518 53.5033 135.737 66.1265 114.542C67.6823 111.93 69.3015 109.384 70.9796 106.905Z" fill="#B2C8EB"/>
    <path d="M255.312 227.217C255.454 226.98 255.376 226.673 255.139 226.532C254.901 226.39 254.595 226.468 254.453 226.705C239.982 251.003 220.04 269.579 198.008 281.274C197.764 281.403 197.671 281.706 197.8 281.95C197.93 282.193 198.233 282.286 198.477 282.157C220.674 270.375 240.75 251.669 255.312 227.217Z" fill="#B2C8EB"/>
    <path d="M60.256 248.097C60.1168 247.859 59.8106 247.778 59.5721 247.917C59.3336 248.057 59.2532 248.363 59.3924 248.601C67.5772 262.624 78.9522 274.511 93.3207 283.068C104.819 289.916 117.279 294.063 130.116 295.712C130.39 295.747 130.64 295.554 130.675 295.28C130.71 295.006 130.517 294.755 130.243 294.72C117.537 293.088 105.208 288.984 93.8324 282.209C79.6176 273.743 68.3605 261.982 60.256 248.097Z" fill="#B2C8EB"/>
</g>

<g class="shield">    
    <path fill-rule="evenodd" clip-rule="evenodd" d="M145.691 240.288C145.691 240.288 106.577 220.975 88.7524 193.739C70.928 166.503 69.0015 140.017 69.0015 140.017C69.0015 140.017 82.6366 133.424 109.405 112.367C132.471 94.2234 142.905 80.8016 145.35 77.4356C145.742 76.8952 145.929 76.614 145.929 76.614C145.929 76.614 146.19 76.8435 146.697 77.2639C149.948 79.9628 163.318 90.5287 182.702 98.7536C205.106 108.26 217.484 111.04 217.484 111.04C217.484 111.04 219.342 130.583 205.106 166.998C186.556 214.447 145.691 240.288 145.691 240.288ZM145.628 239.136C145.925 238.939 146.359 238.648 146.914 238.263C148.055 237.473 149.711 236.287 151.757 234.716C155.851 231.573 161.506 226.887 167.739 220.725C180.21 208.397 194.966 190.188 204.174 166.634C211.265 148.498 214.339 134.584 215.643 125.226C216.295 120.546 216.504 117.005 216.552 114.643C216.575 113.462 216.559 112.575 216.536 111.989C216.534 111.936 216.532 111.886 216.53 111.839C216.147 111.743 215.615 111.606 214.938 111.422C213.413 111.009 211.152 110.361 208.19 109.414C202.266 107.522 193.542 104.439 182.311 99.6742C171.036 94.8898 161.785 89.32 155.352 84.9459C152.134 82.7584 149.62 80.8684 147.907 79.523C147.151 78.9298 146.552 78.4424 146.116 78.0818C145.795 78.5221 145.351 79.1165 144.775 79.8548C143.426 81.5823 141.353 84.0976 138.442 87.2704C132.621 93.6163 123.451 102.591 110.024 113.153C96.6143 123.701 86.4857 130.634 79.7004 134.933C76.3077 137.083 73.7509 138.575 72.0377 139.531C71.1811 140.01 70.5354 140.354 70.1016 140.58C70.0873 140.587 70.0733 140.595 70.0595 140.602C70.0741 140.745 70.0917 140.91 70.1128 141.097C70.1987 141.86 70.3417 142.987 70.5688 144.425C71.023 147.303 71.8138 151.43 73.1581 156.404C75.8475 166.355 80.7481 179.682 89.5891 193.192C98.3942 206.646 112.501 218.195 124.471 226.403C130.446 230.5 135.868 233.75 139.794 235.975C141.757 237.088 143.345 237.944 144.441 238.52C144.944 238.785 145.344 238.991 145.628 239.136Z" fill="#B2C8EB"/>
    <path d="M177.513 90.814L147.055 77.7236C150.556 80.5518 159.771 87.5172 168.626 92.7533C177.481 97.9895 189.982 102.315 195.125 103.824L177.513 90.814Z" fill="#B2C8EB" fill-opacity="0.6"/>   
    <path d="M205.106 166.998C219.342 130.583 217.484 111.04 217.484 111.04C217.484 111.04 205.106 108.26 182.702 98.7536C160.298 89.2474 145.929 76.614 145.929 76.614C145.929 76.614 136.174 91.3107 109.405 112.367C82.6366 133.424 69.0015 140.017 69.0015 140.017C69.0015 140.017 70.928 166.503 88.7524 193.739C106.577 220.975 145.691 240.288 145.691 240.288C145.691 240.288 186.556 214.447 205.106 166.998Z" fill="url(#paint0_linear_11537_102661)"/>

<path class="bottom_side"
     d="M136.407 235.174C129.269 228.843 122.514 221.657 117.41 213.858C98.5611 185.057 96.5239 157.69 96.5239 157.69L69.001 140.018C69.001 140.018 70.9275 166.503 88.7519 193.739C101.113 212.628 123.715 227.706 136.407 235.174Z" fill="white" fill-opacity="0.2"
     />
<path class="top_side"
    d="M177.054 91.0991L146.299 77.8584C142.474 83.1726 128.829 99.5251 101.597 119.639C101.597 119.639 84.7925 132.657 70.5527 140.342L96.9629 157.45C108.715 151.082 129.642 135.238 129.642 135.238C150.909 119.644 167.272 103.91 177.054 91.0991Z" fill="white" fill-opacity="0.3"
    />
<g class="devices"> 
<path d="M170.46 179.374C169.89 179.374 168.394 178.202 167.834 177.761C167.735 177.686 167.656 177.622 167.596 177.577C167.14 177.235 166.883 176.709 166.883 176.138V136.988C166.883 136.05 167.517 135.256 168.429 135.053L217.187 120.915C217.311 120.886 217.495 120.84 217.619 120.84C217.946 120.84 218.479 120.931 218.756 121.109C219.456 121.577 221.598 122.617 221.598 123.451V160.786C221.598 161.748 220.959 162.597 220.048 162.865L170.51 179.374C170.5 179.369 170.485 179.374 170.46 179.374Z" fill="white"/>
<path fill-rule="evenodd" clip-rule="evenodd" d="M170.426 179.534C170.404 179.53 170.382 179.525 170.359 179.52C170.268 179.499 170.178 179.471 170.091 179.438C169.143 179.099 167.59 178.088 167.204 177.796C166.719 177.424 166.392 176.838 166.392 176.158V137.008C166.392 135.966 167.12 135.058 168.136 134.83L217.246 120.845C217.39 120.811 217.533 120.796 217.672 120.796C218.053 120.796 218.562 120.923 219.147 121.284C219.733 121.645 220.339 121.996 220.92 122.376C221.423 122.67 221.779 123.121 221.779 123.693V160.851C221.779 161.913 221.076 162.856 220.05 163.153L171.386 179.488C171.386 179.488 170.732 179.593 170.426 179.534ZM219.627 122.317L170.509 136.189C169.488 136.417 168.765 137.32 168.765 138.368V177.518C168.765 177.849 168.842 178.158 168.978 178.431C168.622 178.224 168.212 177.949 167.749 177.588C167.73 177.572 167.711 177.557 167.692 177.542L167.641 177.502L167.61 177.478L167.56 177.439C167.54 177.424 167.522 177.411 167.506 177.399C167.115 177.101 166.892 176.65 166.892 176.158V137.008C166.892 136.19 167.447 135.495 168.24 135.316L217.355 121.332C217.459 121.307 217.568 121.292 217.672 121.292C218.292 121.292 219.11 122.017 219.627 122.317Z" fill="#8EAEDF"/>
<path d="M219.743 160.406L171.083 176.565V138.508L219.743 124.385V160.406Z" fill="#DDE7F5"/>  
<path d="M137.55 221.486C136.806 221.486 134.853 219.957 134.122 219.381C133.992 219.283 133.889 219.199 133.811 219.141C133.216 218.694 132.88 218.007 132.88 217.262V166.156C132.88 164.932 133.708 163.895 134.898 163.629L198.547 145.175C198.709 145.136 198.949 145.077 199.11 145.077C199.537 145.077 200.233 145.195 200.595 145.428C201.509 146.038 204.306 147.396 204.306 148.484V197.221C204.306 198.478 203.471 199.586 202.281 199.936L137.614 221.486C137.601 221.48 137.582 221.486 137.55 221.486Z" fill="url(#paint0_linear_11537_102628)"/>
<path class="monitor"
    fill-rule="evenodd" clip-rule="evenodd" d="M137.505 221.695C137.477 221.69 137.448 221.684 137.418 221.677C137.299 221.649 137.182 221.614 137.068 221.571C135.83 221.127 133.803 219.807 133.299 219.427C132.666 218.941 132.239 218.176 132.239 217.289V166.182C132.239 164.822 133.19 163.637 134.515 163.339L198.624 145.083C198.812 145.038 198.999 145.018 199.18 145.018C199.678 145.018 200.342 145.184 201.106 145.656C201.87 146.127 202.661 146.585 203.42 147.082C204.076 147.464 204.542 148.054 204.542 148.801V197.306C204.542 198.693 203.624 199.924 202.285 200.312L138.758 221.635C138.758 221.635 137.905 221.773 137.505 221.695ZM201.732 147.005L137.613 165.113C136.281 165.411 135.337 166.59 135.337 167.957V219.063C135.337 219.496 135.437 219.899 135.614 220.255C135.15 219.985 134.615 219.627 134.011 219.155C133.985 219.134 133.961 219.114 133.937 219.096L133.87 219.043L133.83 219.012L133.764 218.961C133.738 218.942 133.715 218.924 133.694 218.908C133.183 218.52 132.892 217.93 132.892 217.289V166.182C132.892 165.114 133.616 164.207 134.651 163.973L198.766 145.718C198.902 145.686 199.044 145.666 199.18 145.666C199.99 145.666 201.057 146.613 201.732 147.005Z" fill="#305594"/>
<path class="screen"
    d="M201.883 196.725L138.363 217.819V168.139L201.883 149.703V196.725Z" fill="#82A5DB"/>          
<defs>
<linearGradient id="paint0_linear_11537_102628" x1="135.255" y1="164.241" x2="133.997" y2="166.892" gradientUnits="userSpaceOnUse">
<stop stop-color="white"/>
<stop offset="1" stop-color="#BDD0EE"/>
</linearGradient>
</defs>
</g> 
<path d="M217.563 113.755C217.535 120.281 216.263 138.458 205.106 166.998C186.555 214.447 145.691 240.288 145.691 240.288C145.691 240.288 142.017 238.474 136.408 235.174C155.628 252.222 177.621 263.081 177.621 263.081C177.621 263.081 220.833 235.755 240.449 185.58C255.503 147.073 253.538 126.407 253.538 126.407C253.538 126.407 240.745 123.533 217.563 113.755Z" fill="url(#paint1_linear_11537_102661)" fill-opacity="0.5"/>
<path d="M217.134 111.978L207.716 109.259C217.134 114.017 236.793 121.792 246.475 124.478L217.134 111.978Z" fill="white"/>
<path d="M122.859 140.257L106.834 194.396C97.7266 173.847 96.5239 157.69 96.5239 157.69C96.5239 157.69 105.387 153.01 122.859 140.257Z" fill="white" fill-opacity="0.2"
/>
<path d="M95.4963 124.147C89.2925 128.62 79.4557 135.539 70.5566 140.342L96.9668 157.45C104.495 153.302 115.678 145.515 122.844 140.286L95.4963 124.147Z" fill="url(#paint3_linear_11537_102661)"/>
<path d="M177.054 91.0991L146.299 77.8584C143.935 81.143 136.412 90.2102 125.351 100.245L154.79 114.729C164.292 106.285 171.873 97.9406 177.054 91.0991Z" fill="white" fill-opacity="0.3"/>
<path d="M177.054 91.0991L146.299 77.8584C145.331 79.2038 142.348 83.0035 139.826 85.7039L169.689 100.022C172.508 96.8885 175.192 93.5369 177.054 91.0991Z" fill="url(#paint4_linear_11537_102661)"/>
<path d="M132.501 231.582L172.342 96.9857C176.032 92.6844 177.62 90.2744 177.62 90.2744C177.62 90.2744 193.067 103.362 216.758 113.414C224.105 116.532 230.433 118.966 235.667 120.839L198.576 246.145C186.778 257.291 177.62 263.082 177.62 263.082C177.62 263.082 152.508 250.683 132.501 231.582Z" fill="white" fill-opacity="0.2"/>
<path d="M162.374 254.376L205.639 108.213C209.094 109.981 212.812 111.74 216.758 113.414C240.449 123.467 253.538 126.407 253.538 126.407C253.538 126.407 255.503 147.073 240.449 185.58C220.833 235.755 177.62 263.082 177.62 263.082C177.62 263.082 171.252 259.937 162.374 254.376Z" fill="white" fill-opacity="0.2"/>
                    
<path class="front_side"
    d="M240.449 185.58C255.503 147.073 253.538 126.407 253.538 126.407C253.538 126.407 240.449 123.467 216.758 113.414C193.067 103.362 177.621 90.2742 177.621 90.2742C177.621 90.2742 167.557 105.544 139.25 127.81C110.943 150.077 96.5244 157.69 96.5244 157.69C96.5244 157.69 98.5616 185.056 117.41 213.858C136.259 242.659 177.621 263.082 177.621 263.082C177.621 263.082 220.833 235.755 240.449 185.58Z" fill="white" fill-opacity="0.1"
    />

<path fill-rule="evenodd" clip-rule="evenodd" d="M177.04 91.1031L145.539 77.5322L145.934 76.6138L177.54 90.2295C177.604 90.2572 177.659 90.2968 177.705 90.3446C177.892 90.501 178.392 90.9132 179.184 91.5335C183.664 95.0469 197.482 105.235 216.758 113.414C230.125 119.086 240.117 122.494 246.287 124.386L217.079 111.959L217.471 111.039L253.536 126.384L253.527 126.404L253.538 126.407C253.538 126.407 255.503 147.073 240.449 185.58C220.833 235.755 177.621 263.082 177.621 263.082C177.621 263.082 136.259 242.659 117.41 213.858C100.342 187.777 97.0592 162.872 96.5914 158.4L69.279 140.704C69.0472 140.554 68.9811 140.244 69.1312 140.012C69.2814 139.781 69.591 139.714 69.8227 139.865L96.9639 157.45C99.5743 156.005 113.798 147.831 139.25 127.81C162.124 109.817 173.086 96.393 176.451 91.903C176.683 91.5934 176.879 91.3263 177.04 91.1031ZM251.611 127.989C251.317 127.913 250.98 127.823 250.6 127.721C248.974 127.28 246.569 126.59 243.424 125.585C237.132 123.575 227.88 120.306 215.977 115.255C203.992 110.17 194.098 104.32 187.199 99.7409C183.748 97.4503 181.042 95.4748 179.193 94.0676C178.749 93.7298 178.355 93.4247 178.011 93.1557C177.771 93.4753 177.496 93.8361 177.184 94.2368C175.765 96.0583 173.588 98.7039 170.524 102.044C164.396 108.725 154.724 118.182 140.486 129.382C126.29 140.549 115.563 148.052 108.369 152.772C104.773 155.132 102.059 156.796 100.238 157.873C99.5976 158.253 99.0673 158.559 98.6478 158.798C98.7382 159.572 98.8846 160.686 99.1118 162.098C99.5873 165.051 100.416 169.301 101.828 174.444C104.652 184.734 109.798 198.574 119.084 212.762C128.294 226.836 143.09 238.964 155.715 247.621C162.006 251.935 167.715 255.357 171.849 257.701C173.916 258.872 175.587 259.772 176.738 260.378C177.021 260.527 177.273 260.658 177.491 260.771C177.74 260.603 178.036 260.401 178.377 260.165C179.572 259.337 181.31 258.093 183.461 256.441C187.764 253.138 193.714 248.208 200.273 241.724C213.4 228.747 228.911 209.599 238.586 184.852C246.058 165.74 249.29 151.098 250.658 141.277C251.342 136.366 251.561 132.658 251.61 130.197C251.629 129.292 251.624 128.555 251.611 127.989Z" fill="#B2C8EB"/>

<linearGradient id="paint0_linear_11537_102661" x1="224.576" y1="110.411" x2="81.4257" y2="181.194" gradientUnits="userSpaceOnUse">
<stop stop-color="#B2C8EB" stop-opacity="0.5"/>
<stop offset="1" stop-color="#B2C8EB" stop-opacity="0.15"/>
</linearGradient>
<linearGradient id="paint1_linear_11537_102661" x1="151.427" y1="254.881" x2="234.782" y2="118.758" gradientUnits="userSpaceOnUse">
<stop stop-color="white"/>
<stop offset="1" stop-color="white" stop-opacity="0"/>
</linearGradient>
<linearGradient id="paint2_linear_11537_102661" x1="90.0049" y1="153.427" x2="70.8225" y2="181.388" gradientUnits="userSpaceOnUse">
<stop stop-color="#B2C8EB" stop-opacity="0.5"/>
<stop offset="1" stop-color="#B2C8EB" stop-opacity="0.2"/>
</linearGradient>
<linearGradient id="paint3_linear_11537_102661" x1="85.7793" y1="157.794" x2="110.784" y2="130.794" gradientUnits="userSpaceOnUse">
<stop offset="0.0001" stop-color="white" stop-opacity="0.5"/>
<stop offset="0.00974973" stop-color="white" stop-opacity="0.6"/>
<stop offset="1" stop-color="white" stop-opacity="0.05"/>
</linearGradient>
<linearGradient id="paint4_linear_11537_102661" x1="161.453" y1="82.3611" x2="155.701" y2="95.5084" gradientUnits="userSpaceOnUse">
<stop stop-color="white" stop-opacity="0.6"/>
<stop offset="0.0001" stop-color="white" stop-opacity="0.5"/>
<stop offset="1" stop-color="white" stop-opacity="0.05"/>
</linearGradient>
</g>

<circle class="circle"
    fill="#ffffff" cx="178px" cy="207px" r="28" fill-opacity="0.4"
/>
<g class="fingerprint" fill="#2979FF">
<path d="M175.253 225.436C175.489 225.554 175.762 225.573 176.013 225.489C176.263 225.405 176.47 225.226 176.588 224.99C179.348 219.456 180.426 213.235 179.69 207.095C179.658 206.831 179.523 206.589 179.314 206.425C179.106 206.26 178.84 206.185 178.575 206.216C178.311 206.247 178.07 206.382 177.905 206.591C177.74 206.8 177.665 207.066 177.696 207.33C178.387 213.084 177.376 218.914 174.79 224.1C174.732 224.218 174.699 224.347 174.691 224.478C174.683 224.609 174.701 224.74 174.744 224.864C174.787 224.989 174.854 225.103 174.941 225.201C175.028 225.299 175.134 225.379 175.253 225.436Z" />
<path d="M191.439 220.51C191.31 220.537 191.176 220.537 191.047 220.512C190.793 220.457 190.57 220.305 190.426 220.088C190.283 219.872 190.229 219.607 190.278 219.352C191.174 214.89 191.356 210.314 190.816 205.795C190.566 203.693 189.773 201.692 188.516 199.99C188.437 199.885 188.38 199.766 188.347 199.639C188.315 199.512 188.308 199.38 188.326 199.251C188.345 199.121 188.389 198.996 188.455 198.884C188.522 198.771 188.61 198.673 188.715 198.594C188.82 198.516 188.939 198.459 189.066 198.426C189.192 198.394 189.324 198.386 189.454 198.405C189.583 198.423 189.708 198.467 189.821 198.534C189.933 198.601 190.032 198.689 190.11 198.794C191.568 200.768 192.488 203.087 192.781 205.524C193.347 210.254 193.158 215.044 192.219 219.714C192.195 219.844 192.146 219.968 192.074 220.078C192.002 220.189 191.909 220.284 191.8 220.358C191.691 220.432 191.568 220.484 191.439 220.51Z"/>
<path d="M164.046 218.411C164.168 218.46 164.297 218.485 164.428 218.485C164.559 218.484 164.689 218.457 164.809 218.407C164.93 218.356 165.04 218.282 165.132 218.189C165.224 218.096 165.297 217.986 165.346 217.864C166.535 214.948 166.965 211.777 166.594 208.65C166.332 206.441 166.679 204.203 167.598 202.177C168.516 200.152 169.972 198.416 171.806 197.158C173.64 195.9 175.783 195.168 178.003 195.041C180.223 194.914 182.436 195.397 184.402 196.437C184.635 196.561 184.909 196.587 185.161 196.509C185.414 196.431 185.625 196.256 185.749 196.022C185.873 195.789 185.899 195.515 185.821 195.263C185.743 195.01 185.568 194.798 185.334 194.675C183.047 193.461 180.471 192.898 177.886 193.044C175.301 193.191 172.806 194.042 170.67 195.506C168.535 196.97 166.84 198.991 165.771 201.349C164.702 203.708 164.298 206.314 164.605 208.885C164.935 211.677 164.551 214.508 163.488 217.111C163.439 217.233 163.415 217.363 163.416 217.495C163.418 217.626 163.445 217.756 163.497 217.877C163.549 217.998 163.624 218.107 163.718 218.199C163.813 218.29 163.924 218.362 164.046 218.411Z"/>
<path d="M180.833 225.638C180.588 225.735 180.314 225.731 180.072 225.627C179.951 225.576 179.842 225.501 179.75 225.406C179.658 225.312 179.585 225.201 179.537 225.078C179.488 224.956 179.465 224.825 179.467 224.694C179.469 224.562 179.497 224.432 179.55 224.312C181.912 218.804 182.783 212.771 182.077 206.82C182.032 206.371 181.898 205.935 181.682 205.538C181.467 205.142 181.174 204.792 180.822 204.51C180.47 204.227 180.066 204.018 179.632 203.893C179.198 203.769 178.744 203.732 178.295 203.785C177.847 203.838 177.414 203.979 177.021 204.201C176.628 204.423 176.284 204.722 176.007 205.078C175.73 205.435 175.528 205.843 175.41 206.279C175.293 206.715 175.264 207.17 175.324 207.617C175.486 208.988 175.544 210.368 175.5 211.748C175.491 212.012 175.378 212.262 175.185 212.443C174.992 212.624 174.735 212.721 174.471 212.713C174.207 212.704 173.957 212.591 173.776 212.398C173.595 212.205 173.498 211.948 173.506 211.684C173.547 210.405 173.493 209.124 173.343 207.852C173.252 207.145 173.302 206.427 173.49 205.74C173.678 205.052 174.001 204.409 174.439 203.846C174.878 203.284 175.423 202.814 176.044 202.464C176.665 202.114 177.349 201.891 178.057 201.807C178.764 201.723 179.482 201.78 180.168 201.975C180.853 202.17 181.493 202.499 182.051 202.943C182.609 203.386 183.073 203.936 183.417 204.561C183.761 205.185 183.978 205.872 184.055 206.58C184.805 212.884 183.882 219.275 181.38 225.109C181.275 225.351 181.078 225.541 180.833 225.638Z"/>
<path d="M170.959 224.108C171.191 224.233 171.462 224.262 171.715 224.187C171.967 224.112 172.18 223.941 172.306 223.71C173.304 221.836 174.08 219.853 174.619 217.801C174.686 217.545 174.648 217.273 174.515 217.044C174.382 216.816 174.163 216.65 173.907 216.583C173.651 216.515 173.379 216.553 173.151 216.686C172.922 216.82 172.756 217.038 172.689 217.294C172.189 219.197 171.469 221.036 170.544 222.773C170.424 223.005 170.401 223.276 170.478 223.525C170.556 223.775 170.728 223.985 170.959 224.108Z"/>
<path d="M186.779 206.926C186.598 206.771 186.479 206.557 186.443 206.321L186.451 206.31C186.316 205.159 185.926 204.053 185.31 203.072C184.694 202.091 183.868 201.259 182.891 200.637C181.914 200.015 180.81 199.619 179.661 199.476C178.511 199.334 177.345 199.45 176.245 199.814C175.994 199.899 175.72 199.88 175.482 199.763C175.245 199.645 175.064 199.438 174.979 199.186C174.895 198.935 174.914 198.661 175.031 198.423C175.149 198.186 175.356 198.005 175.607 197.92C176.986 197.463 178.45 197.318 179.891 197.496C181.333 197.675 182.717 198.171 183.944 198.95C185.17 199.729 186.208 200.771 186.982 202C187.756 203.229 188.247 204.616 188.42 206.058C188.452 206.319 188.379 206.582 188.218 206.79C188.056 206.997 187.82 207.133 187.559 207.167H187.427C187.189 207.167 186.959 207.081 186.779 206.926Z"/>
<path d="M185.366 224.312C185.616 224.39 185.886 224.367 186.119 224.247C186.352 224.128 186.528 223.922 186.61 223.674C187.857 219.941 188.55 216.045 188.667 212.111C188.671 211.98 188.649 211.85 188.603 211.727C188.556 211.605 188.486 211.493 188.396 211.397C188.307 211.302 188.199 211.225 188.08 211.171C187.96 211.118 187.831 211.088 187.7 211.084C187.57 211.08 187.439 211.102 187.317 211.149C187.194 211.195 187.082 211.265 186.987 211.355C186.892 211.445 186.815 211.552 186.761 211.672C186.708 211.791 186.678 211.92 186.674 212.051C186.564 215.795 185.906 219.503 184.721 223.056C184.68 223.181 184.665 223.312 184.676 223.443C184.686 223.574 184.723 223.701 184.783 223.818C184.843 223.935 184.925 224.038 185.025 224.123C185.125 224.208 185.241 224.272 185.366 224.312Z"/>
<path d="M167.606 221.891C167.475 221.88 167.348 221.844 167.232 221.784C167.115 221.724 167.01 221.642 166.925 221.541C166.84 221.441 166.776 221.325 166.736 221.2C166.696 221.074 166.681 220.942 166.692 220.811C166.703 220.68 166.74 220.553 166.801 220.436C168.719 216.721 169.477 212.514 168.978 208.363C168.712 206.093 169.248 203.801 170.493 201.884C170.642 201.674 170.866 201.53 171.118 201.482C171.371 201.434 171.632 201.486 171.847 201.626C172.063 201.765 172.216 201.983 172.275 202.233C172.334 202.484 172.294 202.747 172.163 202.968C171.174 204.497 170.751 206.324 170.967 208.132C171.512 212.679 170.678 217.285 168.575 221.353C168.515 221.47 168.433 221.573 168.333 221.658C168.233 221.743 168.117 221.807 167.993 221.847C167.868 221.887 167.736 221.902 167.606 221.891Z"/>   
</g>
</svg>
