<svg width="20" height="20" viewBox="0 0 20 20" fill="none" xmlns="http://www.w3.org/2000/svg">
<path d="M15.0652 12.0839H16.5085C16.5497 12.0839 16.6459 12.0702 16.6871 12.0702C16.962 12.0154 17.1957 11.7688 17.1957 11.4262C17.1957 11.0974 16.962 10.8508 16.6871 10.7823C16.6459 10.7686 16.5634 10.7686 16.5085 10.7686H15.0652V12.0839Z" fill="url(#paint0_linear_4492_1764)"/>
<path d="M16.3438 3C14.9692 3 13.8421 4.1098 13.8421 5.49363V8.08319H17.3747C17.4572 8.08319 17.5533 8.08319 17.6221 8.09689C18.4193 8.13799 19.0104 8.54902 19.0104 9.26149C19.0104 9.82326 18.6117 10.3028 17.8695 10.3987V10.4261C18.6804 10.4809 19.299 10.9331 19.299 11.6318C19.299 12.3854 18.6117 12.8786 17.7046 12.8786H13.8284V17.9481H17.4984C18.8729 17.9481 20 16.8383 20 15.4544V3H16.3438Z" fill="url(#paint1_linear_4492_1764)"/>
<path d="M17.017 9.42557C17.017 9.09679 16.7834 8.87755 16.5085 8.83645C16.4809 8.83645 16.4122 8.82275 16.371 8.82275H15.0652V10.0284H16.371C16.4122 10.0284 16.4947 10.0284 16.5085 10.0147C16.7834 9.97365 17.017 9.75441 17.017 9.42557Z" fill="url(#paint2_linear_4492_1764)"/>
<path d="M2.51538 3C1.14083 3 0.0137453 4.1098 0.0137453 5.49363V11.6455C0.714759 11.9881 1.44326 12.2072 2.17175 12.2072C3.03769 12.2072 3.50508 11.6866 3.50508 10.9742V8.06949H5.64933V10.9605C5.64933 12.084 4.9483 13.0019 2.57035 13.0019C1.12713 13.0019 0 12.6868 0 12.6868V17.9344H3.66999C5.04454 17.9344 6.17164 16.8246 6.17164 15.4407V3H2.51538Z" fill="url(#paint3_linear_4492_1764)"/>
<path d="M9.42913 3C8.05459 3 6.92749 4.1098 6.92749 5.49363V8.75456C7.55979 8.22018 8.65937 7.87765 10.4325 7.95984C11.381 8.00094 12.3981 8.26128 12.3981 8.26128V9.31628C11.8896 9.05594 11.2848 8.82306 10.5013 8.76826C9.15422 8.67231 8.34325 9.32998 8.34325 10.4809C8.34325 11.6455 9.15422 12.3031 10.5013 12.1935C11.2848 12.1387 11.8896 11.8921 12.3981 11.6455V12.7005C12.3981 12.7005 11.3947 12.9608 10.4325 13.0019C8.65937 13.0842 7.55979 12.7416 6.92749 12.2072V17.9618H10.5975C11.972 17.9618 13.0991 16.852 13.0991 15.4681V3H9.42913Z" fill="url(#paint4_linear_4492_1764)"/>
<defs>
<linearGradient id="paint0_linear_4492_1764" x1="13.8396" y1="11.4279" x2="20.0163" y2="11.4279" gradientUnits="userSpaceOnUse">
<stop stop-color="#007940"/>
<stop offset="0.2285" stop-color="#00873F"/>
<stop offset="0.7433" stop-color="#40A737"/>
<stop offset="1" stop-color="#5CB531"/>
</linearGradient>
<linearGradient id="paint1_linear_4492_1764" x1="13.8396" y1="10.468" x2="20.0169" y2="10.468" gradientUnits="userSpaceOnUse">
<stop stop-color="#007940"/>
<stop offset="0.2285" stop-color="#00873F"/>
<stop offset="0.7433" stop-color="#40A737"/>
<stop offset="1" stop-color="#5CB531"/>
</linearGradient>
<linearGradient id="paint2_linear_4492_1764" x1="13.8394" y1="9.42389" x2="20.0165" y2="9.42389" gradientUnits="userSpaceOnUse">
<stop stop-color="#007940"/>
<stop offset="0.2285" stop-color="#00873F"/>
<stop offset="0.7433" stop-color="#40A737"/>
<stop offset="1" stop-color="#5CB531"/>
</linearGradient>
<linearGradient id="paint3_linear_4492_1764" x1="0.0108373" y1="10.468" x2="6.28326" y2="10.468" gradientUnits="userSpaceOnUse">
<stop stop-color="#1F286F"/>
<stop offset="0.4751" stop-color="#004E94"/>
<stop offset="0.8261" stop-color="#0066B1"/>
<stop offset="1" stop-color="#006FBC"/>
</linearGradient>
<linearGradient id="paint4_linear_4492_1764" x1="6.89197" y1="10.468" x2="12.9839" y2="10.468" gradientUnits="userSpaceOnUse">
<stop stop-color="#6C2C2F"/>
<stop offset="0.1735" stop-color="#882730"/>
<stop offset="0.5731" stop-color="#BE1833"/>
<stop offset="0.8585" stop-color="#DC0436"/>
<stop offset="1" stop-color="#E60039"/>
</linearGradient>
</defs>
</svg>
