<svg width="20" height="20" viewBox="0 0 20 20" fill="none" xmlns="http://www.w3.org/2000/svg">
<path d="M11.25 4.25C11.25 4.94036 10.6904 5.5 10 5.5C9.30964 5.5 8.75 4.94036 8.75 4.25C8.75 3.55964 9.30964 3 10 3C10.6904 3 11.25 3.55964 11.25 4.25Z" fill="black" fill-opacity="0.54"/>
<path d="M11.25 15.75C11.25 16.4404 10.6904 17 10 17C9.30964 17 8.75 16.4404 8.75 15.75C8.75 15.0596 9.30964 14.5 10 14.5C10.6904 14.5 11.25 15.0596 11.25 15.75Z" fill="black" fill-opacity="0.54"/>
<path d="M11.25 10C11.25 10.6904 10.6904 11.25 10 11.25C9.30964 11.25 8.75 10.6904 8.75 10C8.75 9.30964 9.30964 8.75 10 8.75C10.6904 8.75 11.25 9.30964 11.25 10Z" fill="black" fill-opacity="0.54"/>
</svg>
