<svg width="24" height="24" viewBox="0 0 24 24" fill="none" xmlns="http://www.w3.org/2000/svg">
<path fill-rule="evenodd" clip-rule="evenodd" d="M20.7 12C20.7 16.8049 16.8049 20.7 12 20.7C7.19512 20.7 3.3 16.8049 3.3 12C3.3 7.19512 7.19512 3.3 12 3.3C16.8049 3.3 20.7 7.19512 20.7 12ZM22 12C22 17.5228 17.5228 22 12 22C6.47715 22 2 17.5228 2 12C2 6.47715 6.47715 2 12 2C17.5228 2 22 6.47715 22 12ZM11.2438 8.82917C10.7121 8.47474 10 8.85586 10 9.49481V14.5052C10 15.1441 10.7121 15.5253 11.2438 15.1708L15.0015 12.6656C15.4765 12.349 15.4765 11.651 15.0015 11.3344L11.2438 8.82917Z" fill="white"/>
</svg>
