<svg width="24" height="24" viewBox="0 0 24 24" fill="none" xmlns="http://www.w3.org/2000/svg">
<path fill-rule="evenodd" clip-rule="evenodd" d="M12 2.40298C9.61266 2.40298 7.74259 4.31073 7.74259 6.58255V8.39997H6V6.58255C6 3.24198 8.72233 0.599976 12 0.599976C15.2777 0.599976 18 3.24198 18 6.58255L18 8.39998L16.2574 8.39997L16.2574 6.58255C16.2574 4.31073 14.3873 2.40298 12 2.40298Z" fill="black" fill-opacity="0.54"/>
<path d="M19.1538 8.40002H4.84615C3.82655 8.40002 3 9.25964 3 10.32V20.88C3 21.9404 3.82655 22.8 4.84615 22.8H19.1538C20.1734 22.8 21 21.9404 21 20.88V10.32C21 9.25964 20.1734 8.40002 19.1538 8.40002Z" fill="#92D08D"/>
<path fill-rule="evenodd" clip-rule="evenodd" d="M19.125 22.8H4.875C4.37772 22.8 3.90081 22.5977 3.54917 22.2377C3.19754 21.8776 3 21.3892 3 20.88V10.32C3 9.81081 3.19754 9.32245 3.54917 8.96238C3.90081 8.60231 4.37772 8.40002 4.875 8.40002H19.125C19.6223 8.40002 20.0992 8.60231 20.4508 8.96238C20.8025 9.32245 21 9.81081 21 10.32V20.88C21 21.3892 20.8025 21.8776 20.4508 22.2377C20.0992 22.5977 19.6223 22.8 19.125 22.8ZM20.0625 10.32C20.0625 10.0654 19.9637 9.82124 19.7879 9.6412C19.6121 9.46117 19.3736 9.36002 19.125 9.36002H4.875C4.62636 9.36002 4.3879 9.46117 4.21209 9.6412C4.03627 9.82124 3.9375 10.0654 3.9375 10.32V20.88C3.9375 21.1346 4.03627 21.3788 4.21209 21.5588C4.3879 21.7389 4.62636 21.84 4.875 21.84H19.125C19.3736 21.84 19.6121 21.7389 19.7879 21.5588C19.9637 21.3788 20.0625 21.1346 20.0625 20.88V10.32Z" fill="#31A528"/>
<path d="M12.9001 16.4938C13.4955 16.173 13.9001 15.5438 13.9001 14.8201C13.9001 13.7707 13.0495 12.92 12.0001 12.92C10.9508 12.92 10.1001 13.7707 10.1001 14.8201C10.1001 15.5438 10.5047 16.173 11.1001 16.4938V18.0401C11.1001 18.5372 11.5031 18.9401 12.0001 18.9401C12.4972 18.9401 12.9001 18.5372 12.9001 18.0401V16.4938Z" fill="black" fill-opacity="0.54"/>
</svg>
