<svg width="40" height="40" viewBox="0 0 40 40" fill="none" xmlns="http://www.w3.org/2000/svg">
<path d="M25 1H10C7.23858 1 5 3.23858 5 6V34C5 36.7614 7.23858 39 10 39H30C32.7614 39 35 36.7614 35 34V11L25 1Z" fill="#FEEAA9"/>
<path d="M10 1.8H24.6686L34.2 11.3314V33.6154C34.2 36.2043 32.2648 38.2 30 38.2H10C7.7352 38.2 5.8 36.2043 5.8 33.6154V6.38461C5.8 3.79574 7.7352 1.8 10 1.8Z" fill="#FEEAA9" stroke="#E0A600" stroke-width="1.6"/>
<path d="M23.8 1.8H24.6686L34.2 11.3314V12.2H23.8V1.8Z" stroke="#E0A600" stroke-width="1.6"/>
<path d="M12 19.2C11.5582 19.2 11.2 19.5582 11.2 20C11.2 20.4418 11.5582 20.8 12 20.8V19.2ZM28 20.8C28.4418 20.8 28.8 20.4418 28.8 20C28.8 19.5582 28.4418 19.2 28 19.2V20.8ZM12 20.8H28V19.2H12V20.8Z" fill="#E0A600"/>
<path d="M12 26.2C11.5582 26.2 11.2 26.5582 11.2 27C11.2 27.4418 11.5582 27.8 12 27.8V26.2ZM21 27.8C21.4418 27.8 21.8 27.4418 21.8 27C21.8 26.5582 21.4418 26.2 21 26.2V27.8ZM12 27.8H21V26.2H12V27.8Z" fill="#E0A600"/>
</svg>
