<svg width="20" height="20" viewBox="0 0 20 20" fill="none" xmlns="http://www.w3.org/2000/svg">
<path d="M12.6986 5.2832H7.28613V14.7162H12.6986V5.2832Z" fill="#FF5A00"/>
<path d="M7.64628 10C7.64628 8.08349 8.57505 6.38252 10.0002 5.28349C8.95133 4.48349 7.62828 4 6.18511 4C2.76628 4 0 6.68349 0 10C0 13.3165 2.76628 16 6.18511 16C7.62828 16 8.95133 15.5165 10.0002 14.7165C8.57305 13.633 7.64628 11.9165 7.64628 10Z" fill="#EB001B"/>
<path d="M20 10C20 13.3165 17.2337 16 13.8149 16C12.3717 16 11.0486 15.5165 9.99976 14.7165C11.4429 13.6155 12.3537 11.9165 12.3537 10C12.3537 8.08349 11.4249 6.38252 9.99976 5.28349C11.0466 4.48349 12.3697 4 13.8129 4C17.2337 4 20 6.70097 20 10Z" fill="#F79E1B"/>
</svg>
