<svg width="24" height="24" viewBox="0 0 24 24" fill="none" xmlns="http://www.w3.org/2000/svg">
<path fill-rule="evenodd" clip-rule="evenodd" d="M10.3382 7.50986C10.5921 7.7637 11.0036 7.7637 11.2574 7.50986L12.9192 5.84816C14.3641 4.40322 16.7068 4.40322 18.1517 5.84816C19.5967 7.2931 19.5967 9.63581 18.1517 11.0807L16.49 12.7425C16.2362 12.9963 16.2362 13.4078 16.49 13.6617C16.7439 13.9155 17.1554 13.9155 17.4093 13.6617L19.071 12C21.0236 10.0474 21.0236 6.88154 19.071 4.92892C17.1184 2.9763 13.9525 2.9763 11.9999 4.92892L10.3382 6.59062C10.0844 6.84446 10.0844 7.25602 10.3382 7.50986ZM7.50978 11.2575C7.76363 11.0037 7.76362 10.5921 7.50978 10.3383C7.25594 10.0844 6.84439 10.0844 6.59055 10.3383L4.92884 12C2.97622 13.9526 2.97622 17.1184 4.92884 19.0711C6.88147 21.0237 10.0473 21.0237 11.9999 19.0711L13.6616 17.4094C13.9155 17.1555 13.9155 16.744 13.6616 16.4901C13.4078 16.2363 12.9962 16.2363 12.7424 16.4901L11.0807 18.1518C9.63573 19.5968 7.29302 19.5968 5.84808 18.1518C4.40314 16.7069 4.40314 14.3642 5.84808 12.9192L7.50978 11.2575Z" fill="white" fill-opacity="0.54"/>
<line x1="9.7019" y1="14.4395" x2="14.4395" y2="9.70191" stroke="white" stroke-opacity="0.54" stroke-width="1.3" stroke-linecap="round"/>
</svg>
