<svg width="20" height="20" viewBox="0 0 20 20" fill="none" xmlns="http://www.w3.org/2000/svg">
<path fill-rule="evenodd" clip-rule="evenodd" d="M5.03615 9.30994C5.38073 6.0445 8.14319 3.5 11.5 3.5C15.0898 3.5 18 6.41015 18 10C18 13.5899 15.0898 16.5 11.5 16.5C11.2238 16.5 11 16.7239 11 17C11 17.2761 11.2238 17.5 11.5 17.5C15.6421 17.5 19 14.1421 19 10C19 5.85786 15.6421 2.5 11.5 2.5C7.76723 2.5 4.6714 5.22688 4.09588 8.79724L2.10616 5.46047C1.96473 5.2233 1.65781 5.14568 1.42063 5.28711C1.18346 5.42854 1.10584 5.73546 1.24727 5.97263L3.96943 10.5377L4.22752 10.9705L4.65831 10.709L9.80526 7.58513C10.0413 7.44185 10.1165 7.13434 9.97327 6.89827C9.82999 6.66221 9.52247 6.58699 9.28641 6.73027L5.03615 9.30994Z" fill="black" fill-opacity="0.54"/>
</svg>
