<svg width="20" height="20" viewBox="0 0 20 20" fill="none" xmlns="http://www.w3.org/2000/svg">
<circle cx="10" cy="6" r="3.5" stroke="white" stroke-opacity="0.87"/>
<path fill-rule="evenodd" clip-rule="evenodd" d="M11.3546 11.8628V11.8477C11.3546 11.5803 11.384 11.3193 11.4399 11.0673C10.9686 11.0241 10.4874 11 10 11C7.01014 11 4.25307 11.9053 2.59882 12.5881C1.59174 13.0038 1 14.009 1 15.0985V16.5C1 17.3284 1.67157 18 2.5 18H10.0191C10.0065 17.9064 10 17.811 10 17.7143V17H2.5C2.22386 17 2 16.7761 2 16.5V15.0985C2 14.3606 2.3945 13.7543 2.98036 13.5125C4.5765 12.8536 7.19522 12 10 12C10.3505 12 10.6981 12.0133 11.0411 12.0379C11.1404 11.9727 11.2452 11.9141 11.3546 11.8628Z" fill="white" fill-opacity="0.87"/>
<path fill-rule="evenodd" clip-rule="evenodd" d="M13.5617 11.5985C13.5617 10.5463 14.4146 9.69336 15.4668 9.69336C16.519 9.69336 17.3719 10.5463 17.3719 11.5985V11.7703H18.3719V11.5985C18.3719 9.99403 17.0713 8.69336 15.4668 8.69336C13.8623 8.69336 12.5617 9.99403 12.5617 11.5985L12.5617 13.9175H12C11.4477 13.9175 11 14.3652 11 14.9175V18.4965C11 19.0488 11.4477 19.4965 12 19.4965H18.9333C19.4856 19.4965 19.9333 19.0488 19.9333 18.4965V14.9175C19.9333 14.3652 19.4856 13.9175 18.9333 13.9175H13.5617V11.5985ZM12 14.9175H18.9333V18.4965H12V14.9175Z" fill="white" fill-opacity="0.87"/>
</svg>
