<svg width="20" height="20" viewBox="0 0 20 20" fill="none" xmlns="http://www.w3.org/2000/svg">
<path d="M10 3C12.7894 3 15.2071 4.62835 16.335 6.98636L13.4973 6.98619C13.2209 6.98618 12.9968 7.21001 12.9968 7.48613C12.9968 7.76226 13.2209 7.98611 13.4973 7.98613L18 7.9864L18 3.4807C18 3.20457 17.7759 2.9807 17.4995 2.98067C17.2231 2.98064 16.999 3.20446 16.999 3.48058L16.999 6.09497C15.6287 3.65202 13.0037 2 10 2C5.57764 2 2 5.58129 2 10C2 14.4187 5.58582 18 10.0082 18C14.0414 18 17.378 15.0217 17.9348 11.1457C17.9741 10.8723 17.7842 10.6188 17.5107 10.5795C17.2372 10.5402 16.9837 10.7301 16.9444 11.0035C16.4575 14.3934 13.5374 16.9996 10.0082 16.9996C6.13753 16.9996 3.00055 13.8653 3.00055 10C3.00055 6.13466 6.12936 3 10 3Z" fill="white" fill-opacity="0.87"/>
<path fill-rule="evenodd" clip-rule="evenodd" d="M9.27148 10.5C9.27148 10.0082 9.03487 9.55894 8.66928 9.28526C8.41876 9.09773 8.10768 8.98666 7.77066 8.98666C6.94178 8.98666 6.26984 9.67125 6.26984 10.5C6.26984 11.3287 6.94178 11.9878 7.77066 11.9878C8.59954 11.9878 9.27148 11.3287 9.27148 10.5ZM7.77066 10.9874C8.04695 10.9874 8.27093 10.7762 8.27093 10.5C8.27093 10.2238 8.04695 9.98705 7.77066 9.98705C7.49437 9.98705 7.27039 10.2238 7.27039 10.5C7.27039 10.7762 7.49437 10.9874 7.77066 10.9874Z" fill="white" fill-opacity="0.87"/>
<path fill-rule="evenodd" clip-rule="evenodd" d="M7.77066 13.9886C9.16825 13.9886 10.3733 13.1707 10.9353 11.9878H11.4989V12.487C11.4989 13.3158 12.1709 13.9876 12.9998 13.9876C13.8286 13.9876 14.5006 13.3158 14.5006 12.487V11.9025C15.0835 11.6965 15.5012 11.1406 15.5012 10.4872C15.5012 9.6585 14.8292 8.98666 14.0004 8.98666H10.9353C10.3733 7.80379 9.16825 6.98589 7.77066 6.98589C5.83661 6.98589 4.26875 8.56625 4.26875 10.5C4.26875 12.4337 5.83661 13.9886 7.77066 13.9886ZM7.77066 12.9882C8.9808 12.9882 9.99023 12.129 10.222 10.9874H12.4995V12.4863C12.4995 12.7626 12.7235 12.9872 12.9998 12.9872C13.2761 12.9872 13.5 12.7633 13.5 12.487V10.9874H14.0004C14.2767 10.9874 14.5006 10.7635 14.5006 10.4872C14.5006 10.211 14.2767 9.98705 14.0004 9.98705H10.222L10.2212 9.98321C9.98796 8.84356 8.97944 7.98627 7.77066 7.98627C6.38919 7.98627 5.26929 9.11875 5.26929 10.5C5.26929 11.8812 6.38919 12.9882 7.77066 12.9882Z" fill="white" fill-opacity="0.87"/>
</svg>
