<svg width="20" height="20" viewBox="0 0 20 20" fill="none" xmlns="http://www.w3.org/2000/svg">
<path fill-rule="evenodd" clip-rule="evenodd" d="M 6.48 6.48 C 6.48 4.62 8.087 3.164 10 3.164 C 11.913 3.164 13.52 4.62 13.52 6.48 L 13.52 7.236 L 6.48 7.236 L 6.48 6.48 Z M 10 2 C 7.348 2 5.2 4.005 5.2 6.48 L 5.2 7.236 L 5.2 7.454 L 4.619 7.454 C 3.172 7.454 2 8.471 2 9.724 L 2 15.73 C 2 16.983 3.172 18 4.619 18 L 15.381 18 C 16.828 18 18 16.983 18 15.73 L 18 9.724 C 18 8.471 16.828 7.454 15.381 7.454 L 14.8 7.454 L 14.8 7.236 L 14.8 6.48 C 14.8 4.005 12.652 2 10 2 Z M 3.28 9.724 C 3.28 9.164 3.821 8.619 4.619 8.619 L 15.381 8.619 C 16.179 8.619 16.72 9.164 16.72 9.724 L 16.72 15.73 C 16.72 16.29 16.179 16.836 15.381 16.836 L 4.619 16.836 C 3.821 16.836 3.28 16.29 3.28 15.73 L 3.28 9.724 Z M 7.936 13.852 C 8.5 13.675 8.904 13.193 8.904 12.627 C 8.904 11.908 8.253 11.326 7.452 11.326 C 6.651 11.326 6 11.908 6 12.627 C 6 13.193 6.404 13.675 6.968 13.852 L 6.968 14.794 C 6.968 15.033 7.185 15.227 7.452 15.227 C 7.719 15.227 7.936 15.033 7.936 14.794 L 7.936 13.852 Z M 14 12.627 C 14 13.193 13.596 13.675 13.032 13.852 L 13.032 14.794 C 13.032 15.033 12.815 15.227 12.548 15.227 C 12.281 15.227 12.064 15.033 12.064 14.794 L 12.064 13.852 C 11.5 13.675 11.096 13.193 11.096 12.627 C 11.096 11.908 11.747 11.326 12.548 11.326 C 13.349 11.326 14 11.908 14 12.627 Z" fill="white" fill-opacity="0.87"></path>
</svg>