<svg width="20" height="20" viewBox="0 0 20 20" fill="none" xmlns="http://www.w3.org/2000/svg">
<path d="M11.5433 5.73894L14.3695 8.56516L15.0766 7.85806L12.2504 5.03183L11.5433 5.73894Z" fill="black" fill-opacity="0.87"/>
<path fill-rule="evenodd" clip-rule="evenodd" d="M7.68868 16.6634C7.55468 16.7974 7.38537 16.8905 7.20046 16.932L2.01399 18.0954L3.1774 12.909C3.21888 12.7241 3.31204 12.5547 3.44604 12.4207L13.7775 2.08928C14.168 1.69876 14.8012 1.69876 15.1917 2.08928L18.0201 4.91771C18.4107 5.30823 18.4107 5.9414 18.0201 6.33192L7.68868 16.6634ZM14.4846 2.79639L17.313 5.62481L6.98158 15.9563L3.33521 16.7742L4.15315 13.1278L14.4846 2.79639Z" fill="black" fill-opacity="0.87"/>
</svg>
