<svg width="20" height="20" viewBox="0 0 20 20" fill="none" xmlns="http://www.w3.org/2000/svg">
<path d="M9 18C9 18.5523 9.44772 19 10 19C10.5523 19 11 18.5523 11 18H9ZM9 14V18H11V14H9Z" fill="white" fill-opacity="0.87"/>
<path fill-rule="evenodd" clip-rule="evenodd" d="M5.41666 1.99902H4.91666V2.49902C4.91666 3.09541 5.08827 3.72486 5.52281 4.21168C5.87718 4.60868 6.37323 4.87358 6.99999 4.9643V8.11593L2.75724 5.57028C2.52045 5.4282 2.21332 5.50499 2.07124 5.74178C1.92917 5.97857 2.00595 6.2857 2.24274 6.42777L17.2427 15.4278C17.4795 15.5698 17.7867 15.4931 17.9287 15.2563C18.0708 15.0195 17.994 14.7124 17.7572 14.5703L15.988 13.5087C15.9847 13.4265 15.9806 13.3414 15.9759 13.2568C15.9608 12.9837 15.9367 12.6729 15.8983 12.4839C15.5756 10.8939 14.3095 9.81828 13 9.17937V4.9643C13.6267 4.87358 14.1228 4.60868 14.4772 4.21168C14.9117 3.72486 15.0833 3.09541 15.0833 2.49902V1.99902H14.5833H5.41666ZM14.9454 12.8832C14.9367 12.7972 14.9275 12.7281 14.9183 12.6828C14.666 11.4398 13.5857 10.519 12.2998 9.9572L12 9.82621V9.49902V4.49902V3.99902H12.5C13.133 3.99902 13.5084 3.79531 13.7311 3.54576C13.8648 3.39602 13.9613 3.20964 14.0191 2.99902H5.98085C6.03867 3.20964 6.13518 3.39602 6.26884 3.54576C6.49158 3.79531 6.867 3.99902 7.49999 3.99902H7.99999V4.49902V8.71593L14.9454 12.8832ZM6.31591 10.7851C6.52995 10.6106 6.56202 10.2956 6.38754 10.0816C6.21306 9.86757 5.8981 9.83551 5.68407 10.01C4.9279 10.6264 4.31219 11.4468 4.10167 12.4839C4.03494 12.8126 3.99999 13.1525 3.99999 13.5V14H4.49999C5.88401 14 6.74669 13.9998 7.64458 13.9995L7.75941 13.9995C8.69965 13.9993 9.70391 13.999 11.4029 13.999C11.679 13.999 11.9029 13.7752 11.9029 13.499C11.9029 13.2229 11.679 12.999 11.4029 12.999C9.70379 12.999 8.69943 12.9993 7.75915 12.9995L7.64415 12.9995H7.64188C6.86536 12.9997 6.11485 12.9999 5.03025 13C5.04331 12.8929 5.06051 12.7871 5.08168 12.6828C5.23443 11.9303 5.68685 11.2979 6.31591 10.7851Z" fill="white" fill-opacity="0.87"/>
</svg>
