<svg xmlns="http://www.w3.org/2000/svg" width="20" height="20" viewBox="0 0 20 20" fill="none">
<path fill-rule="evenodd" clip-rule="evenodd" d="M13 6C13 7.65685 11.6569 9 10 9C8.34315 9 7 7.65685 7 6C7 4.34315 8.34315 3 10 3C11.6569 3 13 4.34315 13 6ZM14 6C14 8.20914 12.2091 10 10 10C7.79086 10 6 8.20914 6 6C6 3.79086 7.79086 2 10 2C12.2091 2 14 3.79086 14 6ZM18 15.0985V16.5C18 16.7761 17.7761 17 17.5 17H2.5C2.22386 17 2 16.7761 2 16.5V15.0985C2 14.3606 2.3945 13.7543 2.98036 13.5125C4.5765 12.8536 7.19522 12 10 12C12.8048 12 15.4235 12.8536 17.0196 13.5125C17.6055 13.7543 18 14.3606 18 15.0985ZM1 15.0985C1 14.009 1.59174 13.0038 2.59882 12.5881C4.25307 11.9053 7.01014 11 10 11C12.9899 11 15.7469 11.9053 17.4012 12.5881C18.4083 13.0038 19 14.009 19 15.0985V16.5C19 17.3284 18.3284 18 17.5 18H2.5C1.67157 18 1 17.3284 1 16.5V15.0985Z" fill="black" fill-opacity="0.87"/>
</svg>