<svg width="20" height="20" viewBox="0 0 20 20" fill="none" xmlns="http://www.w3.org/2000/svg">
<path d="M1.5 5.5C1.5 4.39543 2.39543 3.5 3.5 3.5H16.5C17.6046 3.5 18.5 4.39543 18.5 5.5V12.5C18.5 13.6046 17.6046 14.5 16.5 14.5H3.5C2.39543 14.5 1.5 13.6046 1.5 12.5V5.5Z" stroke="black" stroke-opacity="0.87"/>
<path d="M5 17.5H15" stroke="black" stroke-opacity="0.87" stroke-linecap="round"/>
<circle cx="10" cy="8.99023" r="1" fill="black" fill-opacity="0.87"/>
<path fill-rule="evenodd" clip-rule="evenodd" d="M5.90979 8.99987C5.90979 8.6685 6.17842 8.39987 6.50979 8.39987H7.05027C7.18268 7.74759 7.52672 7.17215 8.00761 6.74836L7.73563 6.27729C7.56995 5.99032 7.66827 5.62336 7.95525 5.45768C8.24222 5.29199 8.60918 5.39032 8.77486 5.67729L9.04822 6.15076C9.34448 6.05286 9.66118 5.99988 9.99026 5.99988C10.3324 5.99988 10.6612 6.05716 10.9676 6.16266L10.9509 6.15307L11.2256 5.67729C11.3913 5.39032 11.7583 5.29199 12.0452 5.45768C12.3322 5.62337 12.4305 5.99032 12.2649 6.27729L11.9902 6.75307L11.9552 6.73288C12.4589 7.16986 12.8156 7.77195 12.9409 8.45493V8.39987H13.4903C13.8216 8.39987 14.0903 8.6685 14.0903 8.99987C14.0903 9.33124 13.8216 9.59987 13.4903 9.59987H12.9409V9.54482C12.8155 10.228 12.4587 10.8303 11.9547 11.2673L11.9904 11.2467L12.2651 11.7225C12.4308 12.0094 12.3325 12.3764 12.0455 12.5421C11.7585 12.7078 11.3916 12.6094 11.2259 12.3225L10.9512 11.8467L10.9682 11.8369C10.6617 11.9425 10.3327 11.9999 9.99026 11.9999C9.66111 11.9999 9.34434 11.9469 9.04802 11.8489L8.77462 12.3225C8.60893 12.6094 8.24198 12.7078 7.955 12.5421C7.66803 12.3764 7.5697 12.0094 7.73539 11.7225L8.00745 11.2512C7.52664 10.8275 7.18266 10.2521 7.05027 9.59987H6.50979C6.17842 9.59987 5.90979 9.33124 5.90979 8.99987ZM11.9903 8.99987C11.9903 7.89531 11.0948 6.99988 9.99026 6.99988C8.88569 6.99988 7.99026 7.89531 7.99026 8.99987C7.99026 10.1044 8.88569 10.9999 9.99026 10.9999C11.0948 10.9999 11.9903 10.1044 11.9903 8.99987Z" fill="black" fill-opacity="0.87"/>
<rect x="9" y="15" width="2" height="2" fill="black" fill-opacity="0.87"/>
</svg>
