<svg xmlns="http://www.w3.org/2000/svg" width="24" height="24" viewBox="0 0 24 24" fill="none">
<path fill-rule="evenodd" clip-rule="evenodd" d="M7 3.3H13.85V7.5V8.15H14.5H18.7V19C18.7 19.9389 17.9389 20.7 17 20.7H7C6.06112 20.7 5.3 19.9389 5.3 19V5C5.3 4.06112 6.06112 3.3 7 3.3ZM15.15 3.98848L18.0115 6.85H15.15V3.98848ZM20 7L15 2H7C5.34315 2 4 3.34315 4 5V19C4 20.6569 5.34315 22 7 22H17C18.6569 22 20 20.6569 20 19V7ZM7.85 12.5C7.85 12.141 8.14102 11.85 8.5 11.85H12H15.5C15.859 11.85 16.15 12.141 16.15 12.5C16.15 12.859 15.859 13.15 15.5 13.15H12H8.5C8.14102 13.15 7.85 12.859 7.85 12.5ZM7.85 15.5C7.85 15.141 8.14102 14.85 8.5 14.85H12H12.5C12.859 14.85 13.15 15.141 13.15 15.5C13.15 15.859 12.859 16.15 12.5 16.15H12H8.5C8.14102 16.15 7.85 15.859 7.85 15.5Z" fill="white" fill-opacity="0.87"/>
</svg>