<svg width="20" height="20" viewBox="0 0 20 20" fill="none" xmlns="http://www.w3.org/2000/svg">
<path fill-rule="evenodd" clip-rule="evenodd" d="M15.8844 6.19675C14.634 4.28092 12.4713 3.01611 10.0131 3.01611C6.14455 3.01611 3.00928 6.14916 3.00928 10.013C3.00928 13.8768 6.14455 17.0099 10.0131 17.0099C10.8571 17.0099 11.6652 16.861 12.4131 16.5884C12.6726 16.4939 12.9596 16.6276 13.0541 16.887C13.1486 17.1465 13.0149 17.4335 12.7555 17.528C11.8994 17.8399 10.9755 18.0099 10.0131 18.0099C5.59313 18.0099 2.00928 14.43 2.00928 10.013C2.00928 5.59601 5.59313 2.01611 10.0131 2.01611C12.823 2.01611 15.2945 3.46324 16.7219 5.65018C16.8728 5.88143 16.8077 6.19124 16.5764 6.34217C16.3452 6.4931 16.0354 6.428 15.8844 6.19675ZM10.0002 9.16667C11.1508 9.16667 12.0836 8.23393 12.0836 7.08333C12.0836 5.93274 11.1508 5 10.0002 5C8.84966 5 7.91692 5.93274 7.91692 7.08333C7.91692 8.23393 8.84966 9.16667 10.0002 9.16667ZM10.5002 11.5C10.5002 11.0217 10.724 10.5957 11.0727 10.321C10.7272 10.2329 10.3683 10.1865 10.0001 10.1865C7.9866 10.1865 6.25106 11.5751 5.45866 13.5762C6.49201 14.9585 8.14158 15.8532 10.0001 15.8532C11.8587 15.8532 13.5083 14.9585 14.5416 13.5762C14.4631 13.3779 14.3753 13.1856 14.2788 13H12.0002C11.1717 13 10.5002 12.3284 10.5002 11.5ZM14.7531 7.94674C14.9483 7.75148 15.2649 7.75148 15.4602 7.94674L18.6568 11.1434L19.0107 11.4973L18.6564 11.8508L15.4567 15.044C15.2612 15.2391 14.9446 15.2388 14.7495 15.0433C14.5545 14.8478 14.5548 14.5313 14.7503 14.3362L17.0944 11.9969L12.0002 11.9966C11.7241 11.9966 11.5002 11.7728 11.5002 11.4966C11.5002 11.2205 11.7241 10.9966 12.0002 10.9966L17.0961 10.9969L14.7531 8.65385C14.5578 8.45858 14.5578 8.142 14.7531 7.94674Z" fill="white" fill-opacity="0.87"/>
</svg>
