<svg width="20" height="20" viewBox="0 0 20 20" fill="none" xmlns="http://www.w3.org/2000/svg">
<circle cx="10" cy="10" r="8.5" stroke="white" stroke-opacity="0.87"/>
<path d="M13.6135 12.9341L12.5272 12.5097L12.2719 12.41L12.0505 12.5715C11.8092 12.7476 11.5579 12.8948 11.2914 13.001L11.0239 13.1077L10.9819 13.3926L10.8185 14.5006H9.18394L9.0206 13.3926L8.97861 13.1077L8.71111 13.001C8.44106 12.8934 8.19136 12.7507 7.95678 12.5751L7.73421 12.4086L7.47529 12.5097L6.38899 12.9341L5.58153 11.5753L6.48465 10.8883L6.7147 10.7133L6.67786 10.4266C6.65865 10.2771 6.64596 10.1355 6.64596 10.0003C6.64596 9.86514 6.65865 9.72349 6.67786 9.57399L6.7147 9.28731L6.48465 9.11231L5.58153 8.42532L6.38899 7.06647L7.47529 7.49084L7.73053 7.59056L7.95192 7.42905C8.19326 7.25297 8.44457 7.1058 8.71111 6.99954L8.97861 6.8929L9.0206 6.60801L9.18394 5.5H10.8185L10.9819 6.60801L11.0239 6.8929L11.2914 6.99954C11.5614 7.1072 11.8111 7.24992 12.0457 7.42545L12.2683 7.59199L12.5272 7.49084L13.6135 7.06647L14.4209 8.42532L13.5178 9.11231L13.2878 9.28731L13.3246 9.57399C13.3439 9.72398 13.3565 9.86044 13.3565 10.0003C13.3565 10.1401 13.3439 10.2766 13.3246 10.4266L13.2878 10.7133L13.5178 10.8883L14.4209 11.5753L13.6135 12.9341Z" stroke="white" stroke-opacity="0.87"/>
<path d="M11.0001 10.0001C11.0001 10.5524 10.5523 11.0002 10 11.0002C9.44775 11.0002 9 10.5524 9 10.0001C9 9.44774 9.44775 9 10 9C10.5523 9 11.0001 9.44774 11.0001 10.0001Z" stroke="white" stroke-opacity="0.87"/>
</svg>
