<svg width="20" height="20" viewBox="0 0 20 20" fill="none" xmlns="http://www.w3.org/2000/svg">
<circle cx="10" cy="10" r="9.5" stroke="white" stroke-opacity="0.87"/>
<path d="M10.0001 3.33325C10.577 3.33325 11.1409 3.50433 11.6205 3.82481C12.1001 4.1453 12.474 4.60077 12.6947 5.13374C12.9155 5.66668 12.9733 6.2532 12.8607 6.81897C12.7481 7.38477 12.4704 7.90443 12.0625 8.31232C11.6545 8.72022 11.1349 8.99803 10.5691 9.11056C10.0033 9.22309 9.41689 9.16529 8.88395 8.94452C8.35096 8.72378 7.89544 8.35001 7.57495 7.87035C7.25447 7.39072 7.08341 6.82678 7.08341 6.24992C7.08341 5.47637 7.39073 4.73449 7.9377 4.18752C8.48468 3.64051 9.22651 3.33325 10.0001 3.33325Z" fill="white" fill-opacity="0.87"/>
<path d="M6.68994 15.8741C7.70775 16.3944 8.84494 16.6666 10.0001 16.6666C11.1552 16.6666 12.2924 16.3944 13.3102 15.8741C14.328 15.3539 15.1949 14.6019 15.8334 13.6851C15.8043 11.8425 11.9445 10.8333 10.0001 10.8333C8.05565 10.8333 4.19589 11.8425 4.16675 13.6851C4.80528 14.6019 5.67213 15.3539 6.68994 15.8741Z" fill="white" fill-opacity="0.87"/>
</svg>
