<svg width="20" height="20" viewBox="0 0 20 20" fill="none" xmlns="http://www.w3.org/2000/svg">
<path fill-rule="evenodd" clip-rule="evenodd" d="M4.5 3C3.67157 3 3 3.67157 3 4.5V7.49982C3.41783 7.18597 3.9372 7 4.5 7H15.5C16.0628 7 16.5822 7.18597 17 7.49982V6.5C17 5.67157 16.3284 5 15.5 5H9H8.79289L8.64645 4.85355L6.79289 3H4.5ZM3 14.5V9.5C3 8.67157 3.67157 8 4.5 8H15.5C16.3284 8 17 8.67157 17 9.5V11H18V9.5V6.5C18 5.11929 16.8807 4 15.5 4H9.20711L7.35355 2.14645L7.20711 2H7H4.5C3.11929 2 2 3.11929 2 4.5V9.5V14.5C2 15.8807 3.11929 17 4.5 17H12V16H4.5C3.67157 16 3 15.3284 3 14.5Z" fill="black" fill-opacity="0.54"/>
<line x1="17.35" y1="13.65" x2="12.65" y2="13.65" stroke="black" stroke-opacity="0.54" stroke-width="1.3" stroke-linecap="round"/>
</svg>
