<svg width="20" height="20" viewBox="0 0 20 20" fill="none" xmlns="http://www.w3.org/2000/svg">
<path d="M3.5 9.5C3.5 8.39543 4.39543 7.5 5.5 7.5H14.5C15.6046 7.5 16.5 8.39543 16.5 9.5V15.5C16.5 16.6046 15.6046 17.5 14.5 17.5H5.5C4.39543 17.5 3.5 16.6046 3.5 15.5V9.5Z" stroke="black" stroke-opacity="0.87"/>
<path d="M6.5 7V6C6.5 4.067 8.067 2.5 10 2.5V2.5C11.933 2.5 13.5 4.067 13.5 6V7" stroke="black" stroke-opacity="0.87"/>
<path fill-rule="evenodd" clip-rule="evenodd" d="M10.6 13.4536C11.016 13.2368 11.3 12.8015 11.3 12.3C11.3 11.582 10.718 11 10 11C9.28204 11 8.70001 11.582 8.70001 12.3C8.70001 12.8015 8.98403 13.2367 9.4 13.4536V14.4C9.4 14.7314 9.66863 15 10 15C10.3314 15 10.6 14.7314 10.6 14.4V13.4536Z" fill="black" fill-opacity="0.87"/>
</svg>
