<svg width="20" height="20" viewBox="0 0 20 20" fill="none" xmlns="http://www.w3.org/2000/svg">
<circle cx="7.00001" cy="10.3" r="1.3" fill="black" fill-opacity="0.87"/>
<path d="M10 15C7 15 5.8 15 4 15C4 13.1223 5.34315 11.6001 7 11.6001C8.65685 11.6001 10 13.1223 10 15Z" fill="black" fill-opacity="0.87"/>
<path d="M11.5 10.5H15.5" stroke="black" stroke-opacity="0.87" stroke-linecap="round"/>
<path d="M11.5 13.5H14.5" stroke="black" stroke-opacity="0.87" stroke-linecap="round"/>
<path d="M11 4.5H16.5C17.6046 4.5 18.5 5.39543 18.5 6.5V15.5C18.5 16.6046 17.6046 17.5 16.5 17.5H3.5C2.39543 17.5 1.5 16.6046 1.5 15.5V6.5C1.5 5.39543 2.39543 4.5 3.5 4.5H9" stroke="black" stroke-opacity="0.87"/>
<rect x="9" y="2" width="2" height="5" fill="black" fill-opacity="0.87"/>
</svg>
