<svg width="20" height="20" viewBox="0 0 20 20" fill="none" xmlns="http://www.w3.org/2000/svg">
<path fill-rule="evenodd" clip-rule="evenodd" d="M4.71755 7.00001C5.80455 4.90235 7.99509 3.47021 10.5191 3.47021C14.1255 3.47021 17.049 6.39375 17.049 10.0001C17.049 13.6065 14.1255 16.53 10.5191 16.53C7.23088 16.53 4.50955 14.099 4.05577 10.9364C4.01655 10.663 3.76317 10.4733 3.48983 10.5125C3.21648 10.5517 3.02669 10.8051 3.06591 11.0784C3.58932 14.7264 6.72638 17.53 10.5191 17.53C14.6778 17.53 18.049 14.1588 18.049 10.0001C18.049 5.84147 14.6778 2.47021 10.5191 2.47021C7.73368 2.47021 5.30238 3.98256 4 6.22949V3.50123C4 3.22508 3.77614 3.00123 3.5 3.00123C3.22386 3.00123 3 3.22508 3 3.50123V7.50001V8.00001H3.5H7.50009C7.77623 8.00001 8.00009 7.77615 8.00009 7.50001C8.00009 7.22386 7.77623 7.00001 7.50009 7.00001L4.71755 7.00001Z" fill="white" fill-opacity="0.87"/>
<path fill-rule="evenodd" clip-rule="evenodd" d="M13.8897 12.4074C13.7315 12.6337 13.4197 12.6888 13.1934 12.5306L10.213 10.4466L9.99951 10.2973V10.0368V7.50586C9.99951 7.22972 10.2234 7.00586 10.4995 7.00586C10.7757 7.00586 10.9995 7.22972 10.9995 7.50586V9.7763L13.7665 11.7111C13.9928 11.8693 14.0479 12.1811 13.8897 12.4074Z" fill="white" fill-opacity="0.87"/>
</svg>
