<svg width="20" height="20" viewBox="0 0 20 20" fill="none" xmlns="http://www.w3.org/2000/svg">
<path d="M9 18C9 18.5523 9.44772 19 10 19C10.5523 19 11 18.5523 11 18H9ZM9 14V18H11V14H9Z" fill="white" fill-opacity="0.87"/>
<path fill-rule="evenodd" clip-rule="evenodd" d="M7.5 4.5V9.5C6.15163 10.0891 4.89151 11.1073 4.59168 12.5843C4.53156 12.8805 4.5 13.187 4.5 13.501C8.16667 13.501 9.54167 13.501 15.5 13.501C15.5 13.187 15.4684 12.8805 15.4083 12.5843C15.1085 11.1073 13.8484 10.0891 12.5 9.5V4.5C14 4.5 14.5833 3.51252 14.5833 2.5H5.41667C5.41667 3.51252 6 4.5 7.5 4.5Z" stroke="white" stroke-opacity="0.87"/>
</svg>
