<svg width="20" height="20" viewBox="0 0 20 20" fill="none" xmlns="http://www.w3.org/2000/svg">
<path d="M10.4961 3.5H4.5C3.39543 3.5 2.5 4.39543 2.5 5.5V15.5C2.5 16.6046 3.39543 17.5 4.5 17.5H15.5C16.6046 17.5 17.5 16.6046 17.5 15.5V8.5" stroke="black" stroke-opacity="0.87" stroke-linecap="round"/>
<path d="M16.9435 1.65954L18.3577 3.07375C18.553 3.26901 18.553 3.5856 18.3577 3.78086L9.97103 12.1676C9.89783 12.2408 9.80371 12.2894 9.70166 12.3069L7.30018 12.7171L7.7104 10.3156C7.72783 10.2136 7.77651 10.1194 7.84971 10.0462L16.2364 1.65954C16.4317 1.46428 16.7483 1.46428 16.9435 1.65954Z" stroke="black" stroke-opacity="0.87"/>
</svg>
