<svg width="20" height="20" viewBox="0 0 20 20" fill="none" xmlns="http://www.w3.org/2000/svg">
<path fill-rule="evenodd" clip-rule="evenodd" d="M9.9997 18.3334C13.3437 15.9982 15.3106 13.6473 16.3844 10.9731C17.1985 8.94614 17.4999 6.73332 17.4999 4.20051L9.99993 1.66699L2.49951 4.20051C2.49951 6.73332 2.8009 8.94614 3.61498 10.9731C4.68881 13.6473 6.65568 15.9982 9.9997 18.3334ZM15.9774 9C16.2963 7.75216 16.4541 6.40487 16.4912 4.91529L9.99999 2.72253V8.99988H4.02201C3.87635 8.42996 3.76429 7.8393 3.68199 7.2238C3.84395 8.43513 4.12118 9.5503 4.54294 10.6004C5.46591 12.8989 7.12348 14.9879 9.9997 17.1034L9.99999 8.99988L15.9774 9Z" fill="black" fill-opacity="0.87"/>
</svg>
