<svg width="20" height="20" viewBox="0 0 20 20" fill="none" xmlns="http://www.w3.org/2000/svg">
<path fill-rule="evenodd" clip-rule="evenodd" d="M10 0C11.1046 0 12 0.895431 12 2H14H15C16.1046 2 17 2.89543 17 4V16C17 17.1046 16.1046 18 15 18H5C3.89543 18 3 17.1046 3 16V4C3 2.89543 3.89543 2 5 2H6H8C8 0.895431 8.89543 0 10 0ZM14 3H15C15.5523 3 16 3.44772 16 4V16C16 16.5523 15.5523 17 15 17H5C4.44772 17 4 16.5523 4 16V4C4 3.44772 4.44772 3 5 3H6V4C6 4.55228 6.44772 5 7 5H13C13.5523 5 14 4.55228 14 4V3ZM9.99995 2.79995C10.4418 2.79995 10.8 2.44178 10.8 1.99995C10.8 1.55812 10.4418 1.19995 9.99995 1.19995C9.55812 1.19995 9.19995 1.55812 9.19995 1.99995C9.19995 2.44178 9.55812 2.79995 9.99995 2.79995ZM6 9.5C6 9.22386 6.22386 9 6.5 9H13.5C13.7761 9 14 9.22386 14 9.5C14 9.77614 13.7761 10 13.5 10H6.5C6.22386 10 6 9.77614 6 9.5ZM6.5 12C6.22386 12 6 12.2239 6 12.5C6 12.7761 6.22386 13 6.5 13H11.5C11.7761 13 12 12.7761 12 12.5C12 12.2239 11.7761 12 11.5 12H6.5Z" fill="white" fill-opacity="0.87"/>
</svg>
