<svg width="20" height="20" viewBox="0 0 20 20" fill="none" xmlns="http://www.w3.org/2000/svg">
<path d="M1.5 6.5C1.5 5.39543 2.39543 4.5 3.5 4.5H16.5C17.6046 4.5 18.5 5.39543 18.5 6.5V15.5C18.5 16.6046 17.6046 17.5 16.5 17.5H3.5C2.39543 17.5 1.5 16.6046 1.5 15.5V6.5Z" stroke="black" stroke-opacity="0.87"/>
<path d="M7 4V4C7 3.17157 7.67157 2.5 8.5 2.5H11.5C12.3284 2.5 13 3.17157 13 4V4" stroke="black" stroke-opacity="0.87"/>
<path fill-rule="evenodd" clip-rule="evenodd" d="M15 11C15 13.7614 12.7614 16 10 16C7.23858 16 5 13.7614 5 11C5 8.23858 7.23858 6 10 6C12.7614 6 15 8.23858 15 11ZM9 10.0001V8.00009H11V10.0001H13V12.0001H11V14.0001H9V12.0001H7V10.0001H9Z" fill="black" fill-opacity="0.87"/>
</svg>
