<svg width="20" height="20" viewBox="0 0 20 20" fill="none" xmlns="http://www.w3.org/2000/svg">
<path fill-rule="evenodd" clip-rule="evenodd" d="M5.03627 9.30994C5.38086 6.0445 8.14332 3.5 11.5001 3.5C15.0899 3.5 18.0001 6.41015 18.0001 10C18.0001 13.5899 15.0899 16.5 11.5001 16.5C11.2239 16.5 11.0001 16.7239 11.0001 17C11.0001 17.2761 11.2239 17.5 11.5001 17.5C15.6422 17.5 19.0001 14.1421 19.0001 10C19.0001 5.85786 15.6422 2.5 11.5001 2.5C7.76735 2.5 4.67153 5.22688 4.09601 8.79724L2.10628 5.46047C1.96485 5.2233 1.65793 5.14568 1.42075 5.28711C1.18358 5.42854 1.10596 5.73546 1.24739 5.97263L3.96956 10.5377L4.22765 10.9705L4.65843 10.709L9.80538 7.58513C10.0414 7.44185 10.1167 7.13434 9.97339 6.89827C9.83011 6.66221 9.52259 6.58699 9.28653 6.73027L5.03627 9.30994Z" fill="white" fill-opacity="0.87"/>
</svg>
