<svg width="20" height="20" viewBox="0 0 20 20" fill="none" xmlns="http://www.w3.org/2000/svg">
<path fill-rule="evenodd" clip-rule="evenodd" d="M3.09671 7L4.91275 3.77992L5.9571 7H3.09671ZM8.8817 16.0175L3.24111 8H6.28142L8.8817 16.0175ZM16.7589 8L11.1183 16.0175L13.7186 8H16.7589ZM15.0872 3.77994L16.9033 7H14.0429L15.0872 3.77994ZM10.6945 3.01172H14.2851L13.0605 6.78777L10.6945 3.01172ZM9.30549 3.01172L6.93955 6.78779L5.71488 3.01172H9.30549ZM7.98666 7H12.0134L10 3.78668L7.98666 7ZM7.3327 8L10 16.2242L12.6673 8H7.3327ZM15.2381 2.01172H4.76189L1.66666 7.5L9.38865 18.476L9.99999 19.345L10.6113 18.476L18.3333 7.5L15.2381 2.01172Z" fill="black" fill-opacity="0.87"/>
</svg>
