<svg width="20" height="20" viewBox="0 0 20 20" fill="none" xmlns="http://www.w3.org/2000/svg">
<path fill-rule="evenodd" clip-rule="evenodd" d="M4.5 3C3.67157 3 3 3.67157 3 4.5V7.49982C3.41783 7.18597 3.9372 7 4.5 7H15.5C16.0628 7 16.5822 7.18597 17 7.49982V6.5C17 5.67157 16.3284 5 15.5 5H9H8.79289L8.64645 4.85355L6.79289 3H4.5ZM3 14.5V9.5C3 8.67157 3.67157 8 4.5 8H15.5C16.3284 8 17 8.67157 17 9.5V11H18V9.5V6.5C18 5.11929 16.8807 4 15.5 4H9.20711L7.35355 2.14645L7.20711 2H7H4.5C3.11929 2 2 3.11929 2 4.5V9.5V14.5C2 15.8807 3.11929 17 4.5 17H11V16H4.5C3.67157 16 3 15.3284 3 14.5Z" fill="black" fill-opacity="0.87"/>
<path fill-rule="evenodd" clip-rule="evenodd" d="M13.5 16.65C13.5 17.009 13.791 17.3 14.15 17.3C14.509 17.3 14.8 17.009 14.8 16.65V14.3H17.15C17.509 14.3 17.8 14.009 17.8 13.65C17.8 13.291 17.509 13 17.15 13H14.8V10.65C14.8 10.291 14.509 10 14.15 10C13.791 10 13.5 10.291 13.5 10.65V13H11.15C10.791 13 10.5 13.291 10.5 13.65C10.5 14.009 10.791 14.3 11.15 14.3H13.5V16.65Z" fill="black" fill-opacity="0.87"/>
</svg>
