<svg width="24" height="24" viewBox="0 0 24 24" fill="none" xmlns="http://www.w3.org/2000/svg">
<g clip-path="url(#clip0_2404_2210)">
<path fill-rule="evenodd" clip-rule="evenodd" d="M18.8891 3.88911C19.1429 4.14295 19.1429 4.5545 18.8891 4.80834L18.0137 5.68373C19.7176 7.84238 19.5733 10.983 17.581 12.9754L17.4395 13.1168L16.5203 14.0361L15.6011 13.1168L13.6919 11.2076C13.1842 11.7153 12.3611 11.7153 11.8534 11.2076L11.5705 10.9248C11.0629 10.4171 11.0629 9.59399 11.5706 9.08631L9.66136 7.17712L8.74212 6.25788L9.66136 5.33864L9.80278 5.19722C11.7952 3.20483 14.9358 3.06059 17.0945 4.76449L17.9699 3.8891C18.2237 3.63526 18.6353 3.63526 18.8891 3.88911ZM16.6617 12.0562L16.5203 12.1976L10.5806 6.25788L10.722 6.11646C12.3622 4.47625 15.0215 4.47626 16.6617 6.11646C18.3019 7.75666 18.3019 10.416 16.6617 12.0562ZM7.54003 10.2884C7.93056 9.89787 8.56372 9.89787 8.95425 10.2884C9.34477 10.6789 9.34477 11.3121 8.95425 11.7026L8.74212 11.9147L10.8634 14.0361L11.0756 13.8239C11.4661 13.4334 12.0993 13.4334 12.4898 13.8239C12.8803 14.2145 12.8803 14.8476 12.4898 15.2381L12.2777 15.4503L12.7726 15.9452L13.6919 16.8645L12.7726 17.7837L12.6312 17.9251C10.6388 19.9175 7.4982 20.0618 5.33955 18.3579L4.35808 19.3394C4.10424 19.5932 3.69268 19.5932 3.43884 19.3394C3.185 19.0855 3.185 18.674 3.43884 18.4201L4.42031 17.4387C2.71641 15.28 2.86065 12.1393 4.85304 10.147L4.99446 10.0055L5.9137 9.0863L6.83293 10.0055L7.32791 10.5005L7.54003 10.2884ZM11.8534 16.8645L5.9137 10.9248L5.77227 11.0662C4.13207 12.7064 4.13207 15.3657 5.77227 17.0059C7.41248 18.6461 10.0718 18.6461 11.712 17.0059L11.8534 16.8645Z" fill="white" fill-opacity="0.87"/>
</g>
<defs>
<clipPath id="clip0_2404_2210">
<rect width="24" height="24" fill="white"/>
</clipPath>
</defs>
</svg>
