<svg width="20" height="20" viewBox="0 0 20 20" fill="none" xmlns="http://www.w3.org/2000/svg">
<path fill-rule="evenodd" clip-rule="evenodd" d="M17 5C17 6.10457 16.1046 7 15 7C13.8954 7 13 6.10457 13 5C13 3.89543 13.8954 3 15 3C16.1046 3 17 3.89543 17 5ZM18 5C18 6.65685 16.6569 8 15 8C14.0052 8 13.1235 7.51578 12.5777 6.77018L7.87008 9.12398C7.95456 9.4011 8 9.69524 8 10C8 10.3048 7.95456 10.5989 7.87008 10.876L12.5777 13.2298C13.1235 12.4842 14.0052 12 15 12C16.6569 12 18 13.3431 18 15C18 16.6569 16.6569 18 15 18C13.3431 18 12 16.6569 12 15C12 14.6952 12.0454 14.4011 12.1299 14.124L7.42233 11.7702C6.87653 12.5158 5.99481 13 5 13C3.34315 13 2 11.6569 2 10C2 8.34315 3.34315 7 5 7C5.99481 7 6.87653 7.48422 7.42233 8.22982L12.1299 5.87602C12.0454 5.5989 12 5.30476 12 5C12 3.34315 13.3431 2 15 2C16.6569 2 18 3.34315 18 5ZM15 17C16.1046 17 17 16.1046 17 15C17 13.8954 16.1046 13 15 13C13.8954 13 13 13.8954 13 15C13 16.1046 13.8954 17 15 17ZM7 10C7 11.1046 6.10457 12 5 12C3.89543 12 3 11.1046 3 10C3 8.89543 3.89543 8 5 8C6.10457 8 7 8.89543 7 10Z" fill="black" fill-opacity="0.87"/>
</svg>
