<svg width="20" height="20" viewBox="0 0 20 20" fill="none" xmlns="http://www.w3.org/2000/svg">
<path fill-rule="evenodd" clip-rule="evenodd" d="M10.1593 1.76802L9.99861 1.71313L9.83775 1.76741L2.89702 4.1095L2.55661 4.22436L2.55688 4.58363C2.55756 5.48381 2.65839 6.44611 2.77347 7.25479C2.81238 7.52818 3.06554 7.71827 3.33893 7.67936C3.61232 7.64046 3.8024 7.3873 3.7635 7.11391C3.66744 6.43891 3.58445 5.67188 3.56253 4.94033L9.99663 2.7692L16.3501 4.93974C16.3225 6.50698 16.1128 7.86692 15.781 9.05586C15.156 11.2956 14.0911 12.9509 12.9547 14.2548C12.6203 14.6385 12.2791 14.9924 11.94 15.3225C11.7422 15.5152 11.738 15.8317 11.9306 16.0296C12.1232 16.2274 12.4398 16.2317 12.6376 16.039C12.9923 15.6937 13.3529 15.3199 13.7086 14.9118C14.9222 13.5193 16.0715 11.7351 16.7442 9.32466C17.1269 7.95334 17.3532 6.38666 17.3532 4.58325V4.22569L17.0149 4.1101L10.1593 1.76802ZM3.37402 10.8585C3.37402 9.5001 4.47524 8.39888 5.83366 8.39888C7.19208 8.39888 8.29329 9.5001 8.29329 10.8585V11.6665H8.95866C9.53395 11.6665 10.0003 12.1639 10.0003 12.7776V17.222C10.0003 17.8357 9.53395 18.3331 8.95866 18.3331H2.70866C2.13336 18.3331 1.66699 17.8357 1.66699 17.222V12.7776C1.66699 12.1639 2.13336 11.6665 2.70866 11.6665H3.37402V10.8585ZM7.29329 10.8585V11.6665H4.37402V10.8585C4.37402 10.0524 5.02752 9.39888 5.83366 9.39888C6.63979 9.39888 7.29329 10.0524 7.29329 10.8585ZM6.6735 14.5966C6.6735 14.9279 6.48068 15.214 6.20128 15.3488V15.9006C6.20128 16.1003 6.03961 16.2622 5.84017 16.2622C5.64073 16.2622 5.47906 16.1003 5.47906 15.9006V15.3488C5.19966 15.214 5.00684 14.9279 5.00684 14.5966C5.00684 14.1358 5.37993 13.7622 5.84017 13.7622C6.30041 13.7622 6.6735 14.1358 6.6735 14.5966Z" fill="white" fill-opacity="0.87"/>
</svg>
