<svg width="20" height="20" viewBox="0 0 20 20" fill="none" xmlns="http://www.w3.org/2000/svg">
<path fill-rule="evenodd" clip-rule="evenodd" d="M2 4.5C2 3.67157 2.67157 3 3.5 3H7.29289L9.14645 4.85355L9.29289 5H9.5H16.5C17.3284 5 18 5.67157 18 6.5V7.26756C17.7058 7.09739 17.3643 7 17 7H3.5C2.9372 7 2.41783 7.18597 2 7.49982V4.5ZM2 9.5V14.5C2 15.3284 2.67157 16 3.5 16H7.5C7.77614 16 8 16.2239 8 16.5C8 16.7761 7.77614 17 7.5 17H3.5C2.11929 17 1 15.8807 1 14.5V9.5V4.5C1 3.11929 2.11929 2 3.5 2H7.5H7.70711L7.85355 2.14645L9.70711 4H16.5C17.8807 4 19 5.11929 19 6.5V9C19 9.27614 18.7761 9.5 18.5 9.5C18.2239 9.5 18 9.27614 18 9C18 8.44772 17.5523 8 17 8H3.5C2.67157 8 2 8.67157 2 9.5Z" fill="white" fill-opacity="0.87"/>
<path fill-rule="evenodd" clip-rule="evenodd" d="M10 13C10 12.4477 10.4477 12 11 12H18C18.5523 12 19 12.4477 19 13V15H15.5C15.5 14.7239 15.2761 14.5 15 14.5H14C13.7239 14.5 13.5 14.7239 13.5 15H10V13ZM13.5 16H10V18C10 18.5523 10.4477 19 11 19H18C18.5523 19 19 18.5523 19 18V16H15.5C15.5 16.2761 15.2761 16.5 15 16.5H14C13.7239 16.5 13.5 16.2761 13.5 16Z" fill="white" fill-opacity="0.87"/>
<path d="M16 12V11.5C16 10.9477 15.5523 10.5 15 10.5H14C13.4477 10.5 13 10.9477 13 11.5V12" stroke="white" stroke-opacity="0.87"/>
</svg>
