<svg width="20" height="20" viewBox="0 0 20 20" fill="none" xmlns="http://www.w3.org/2000/svg">
<path d="M11 4.83333C11 4.3731 11.3731 4 11.8333 4H15.1667C15.6269 4 16 4.3731 16 4.83333V8.16667C16 8.6269 15.6269 9 15.1667 9H11.8333C11.3731 9 11 8.6269 11 8.16667V4.83333Z" stroke="white" stroke-opacity="0.54"/>
<path d="M3.99951 4.83333C3.99951 4.3731 4.37261 4 4.83285 4H8.16618C8.62642 4 8.99951 4.3731 8.99951 4.83333V8.16667C8.99951 8.6269 8.62642 9 8.16618 9H4.83285C4.37261 9 3.99951 8.6269 3.99951 8.16667V4.83333Z" stroke="white" stroke-opacity="0.54"/>
<path d="M3.99951 11.8338C3.99951 11.3736 4.37261 11.0005 4.83285 11.0005H8.16618C8.62642 11.0005 8.99951 11.3736 8.99951 11.8338V15.1672C8.99951 15.6274 8.62642 16.0005 8.16618 16.0005H4.83285C4.37261 16.0005 3.99951 15.6274 3.99951 15.1672V11.8338Z" stroke="white" stroke-opacity="0.54"/>
<path d="M1.50146 5.5V2.33333C1.50146 1.8731 1.87456 1.5 2.3348 1.5H5.5" stroke="white" stroke-opacity="0.54" stroke-linecap="round" stroke-linejoin="round"/>
<path d="M14.5 1.49951L17.6672 1.49951C18.1274 1.49951 18.5005 1.87261 18.5005 2.33284L18.5005 5.5" stroke="white" stroke-opacity="0.54" stroke-linecap="round" stroke-linejoin="round"/>
<path d="M18.5005 14.5L18.5005 17.6662C18.5005 18.1264 18.1274 18.4995 17.6672 18.4995L14.5 18.4995" stroke="white" stroke-opacity="0.54" stroke-linecap="round" stroke-linejoin="round"/>
<path d="M5.5 18.4995L2.3348 18.4995C1.87456 18.4995 1.50146 18.1264 1.50146 17.6662L1.50146 14.5" stroke="white" stroke-opacity="0.54" stroke-linecap="round" stroke-linejoin="round"/>
<path fill-rule="evenodd" clip-rule="evenodd" d="M12.5 6.1C12.5 5.76863 12.7686 5.5 13.1 5.5H13.9C14.2314 5.5 14.5 5.76863 14.5 6.1V6.9C14.5 7.23137 14.2314 7.5 13.9 7.5H13.1C12.7686 7.5 12.5 7.23137 12.5 6.9V6.1Z" fill="white" fill-opacity="0.54"/>
<path fill-rule="evenodd" clip-rule="evenodd" d="M5.49951 6.1C5.49951 5.76863 5.76814 5.5 6.09951 5.5H6.89951C7.23088 5.5 7.49951 5.76863 7.49951 6.1V6.9C7.49951 7.23137 7.23088 7.5 6.89951 7.5H6.09951C5.76814 7.5 5.49951 7.23137 5.49951 6.9V6.1Z" fill="white" fill-opacity="0.54"/>
<path fill-rule="evenodd" clip-rule="evenodd" d="M5.49951 13.1005C5.49951 12.7691 5.76814 12.5005 6.09951 12.5005H6.89951C7.23088 12.5005 7.49951 12.7691 7.49951 13.1005V13.9005C7.49951 14.2319 7.23088 14.5005 6.89951 14.5005H6.09951C5.76814 14.5005 5.49951 14.2319 5.49951 13.9005V13.1005Z" fill="white" fill-opacity="0.54"/>
<path fill-rule="evenodd" clip-rule="evenodd" d="M12.5 13.1005C12.5 12.7691 12.7686 12.5005 13.1 12.5005H13.9C14.2314 12.5005 14.5 12.7691 14.5 13.1005V13.9005C14.5 14.2319 14.2314 14.5005 13.9 14.5005H13.1C12.7686 14.5005 12.5 14.2319 12.5 13.9005V13.1005Z" fill="white" fill-opacity="0.54"/>
<path fill-rule="evenodd" clip-rule="evenodd" d="M10.5 11.1005C10.5 10.7691 10.7686 10.5005 11.1 10.5005H11.9C12.2314 10.5005 12.5 10.7691 12.5 11.1005V11.9005C12.5 12.2319 12.2314 12.5005 11.9 12.5005H11.1C10.7686 12.5005 10.5 12.2319 10.5 11.9005V11.1005Z" fill="white" fill-opacity="0.54"/>
<path fill-rule="evenodd" clip-rule="evenodd" d="M10.5 15.1005C10.5 14.7691 10.7686 14.5005 11.1 14.5005H11.9C12.2314 14.5005 12.5 14.7691 12.5 15.1005V15.9005C12.5 16.2319 12.2314 16.5005 11.9 16.5005H11.1C10.7686 16.5005 10.5 16.2319 10.5 15.9005V15.1005Z" fill="white" fill-opacity="0.54"/>
<path fill-rule="evenodd" clip-rule="evenodd" d="M14.5 11.1C14.5 10.7686 14.7686 10.5 15.1 10.5H15.9C16.2314 10.5 16.5 10.7686 16.5 11.1V11.9C16.5 12.2314 16.2314 12.5 15.9 12.5H15.1C14.7686 12.5 14.5 12.2314 14.5 11.9V11.1Z" fill="white" fill-opacity="0.54"/>
<path fill-rule="evenodd" clip-rule="evenodd" d="M14.5 15.1005C14.5 14.7691 14.7686 14.5005 15.1 14.5005H15.9C16.2314 14.5005 16.5 14.7691 16.5 15.1005V15.9005C16.5 16.2319 16.2314 16.5005 15.9 16.5005H15.1C14.7686 16.5005 14.5 16.2319 14.5 15.9005V15.1005Z" fill="white" fill-opacity="0.54"/>
</svg>
