<svg width="20" height="20" viewBox="0 0 20 20" fill="none" xmlns="http://www.w3.org/2000/svg">
<path fill-rule="evenodd" clip-rule="evenodd" d="M3 4.5C3 3.67157 3.67157 3 4.5 3H6.79289L8.64645 4.85355L8.79289 5H9H15.5C16.3284 5 17 5.67157 17 6.5V7.49982C16.5822 7.18597 16.0628 7 15.5 7H4.5C3.9372 7 3.41783 7.18597 3 7.49982V4.5ZM3 9.5V14.5C3 15.3284 3.67157 16 4.5 16H11V17H4.5C3.11929 17 2 15.8807 2 14.5V9.5V4.5C2 3.11929 3.11929 2 4.5 2H7H7.20711L7.35355 2.14645L9.20711 4H15.5C16.8807 4 18 5.11929 18 6.5V9.5V11H17V9.5C17 8.67157 16.3284 8 15.5 8H4.5C3.67157 8 3 8.67157 3 9.5ZM14.15 17.3C13.791 17.3 13.5 17.009 13.5 16.65V14.3H11.15C10.791 14.3 10.5 14.009 10.5 13.65C10.5 13.291 10.791 13 11.15 13H13.5V10.65C13.5 10.291 13.791 10 14.15 10C14.509 10 14.8 10.291 14.8 10.65V13H17.15C17.509 13 17.8 13.291 17.8 13.65C17.8 14.009 17.509 14.3 17.15 14.3H14.8V16.65C14.8 17.009 14.509 17.3 14.15 17.3Z" fill="white" fill-opacity="0.87"/>
</svg>
