<svg width="20" height="20" viewBox="0 0 20 20" fill="none" xmlns="http://www.w3.org/2000/svg">
<path fill-rule="evenodd" clip-rule="evenodd" d="M10.1593 1.76826L9.99861 1.71338L9.83775 1.76766L2.89702 4.10974L2.55661 4.22461L2.55688 4.58387C2.55756 5.48406 2.65839 6.44635 2.77347 7.25503C2.81238 7.52842 3.06554 7.71851 3.33893 7.67961C3.61232 7.6407 3.8024 7.38754 3.7635 7.11415C3.66744 6.43916 3.58445 5.67212 3.56253 4.94057L9.99663 2.76945L16.3501 4.93999C16.3225 6.50723 16.1128 7.86717 15.781 9.0561C15.156 11.2958 14.0911 12.9512 12.9547 14.255C12.6203 14.6388 12.2791 14.9927 11.94 15.3228C11.7422 15.5154 11.738 15.832 11.9306 16.0298C12.1232 16.2277 12.4398 16.2319 12.6376 16.0393C12.9923 15.6939 13.3529 15.3201 13.7086 14.9121C14.9222 13.5196 16.0715 11.7354 16.7442 9.3249C17.1269 7.95358 17.3532 6.3869 17.3532 4.5835V4.22594L17.0149 4.11035L10.1593 1.76826ZM3.37402 10.8588C3.37402 9.50034 4.47524 8.39913 5.83366 8.39913C7.19208 8.39913 8.29329 9.50034 8.29329 10.8588V11.6667H8.95866C9.53395 11.6667 10.0003 12.1642 10.0003 12.7778V17.2223C10.0003 17.8359 9.53395 18.3334 8.95866 18.3334H2.70866C2.13336 18.3334 1.66699 17.8359 1.66699 17.2223V12.7778C1.66699 12.1642 2.13336 11.6667 2.70866 11.6667H3.37402V10.8588ZM7.29329 10.8588V11.6667H4.37402V10.8588C4.37402 10.0526 5.02752 9.39913 5.83366 9.39913C6.63979 9.39913 7.29329 10.0526 7.29329 10.8588ZM6.6735 14.5968C6.6735 14.9281 6.48068 15.2143 6.20128 15.349V15.9009C6.20128 16.1006 6.03961 16.2624 5.84017 16.2624C5.64073 16.2624 5.47906 16.1006 5.47906 15.9009V15.349C5.19966 15.2143 5.00684 14.9281 5.00684 14.5968C5.00684 14.136 5.37993 13.7624 5.84017 13.7624C6.30041 13.7624 6.6735 14.136 6.6735 14.5968Z" fill="black" fill-opacity="0.87"/>
</svg>
