<svg width="20" height="20" viewBox="0 0 20 20" fill="none" xmlns="http://www.w3.org/2000/svg">
<path fill-rule="evenodd" clip-rule="evenodd" d="M4 5H16C16.5523 5 17 5.44772 17 6V6.2L10 9.93333L3 6.2V6C3 5.44772 3.44772 5 4 5ZM3 7.33333V15C3 15.5523 3.44772 16 4 16H16C16.5523 16 17 15.5523 17 15V7.33333L10.2353 10.9412L10 11.0667L9.76471 10.9412L3 7.33333ZM2 6C2 4.89543 2.89543 4 4 4H16C17.1046 4 18 4.89543 18 6V15C18 16.1046 17.1046 17 16 17H4C2.89543 17 2 16.1046 2 15V6Z" fill="white" fill-opacity="0.87"/>
</svg>
