<svg width="20" height="20" viewBox="0 0 20 20" fill="none" xmlns="http://www.w3.org/2000/svg">
<path fill-rule="evenodd" clip-rule="evenodd" d="M3.66667 3H16.3333C16.7015 3 17 3.29848 17 3.66667V11.3333C17 11.7015 16.7015 12 16.3333 12H16V8.66667C16 7.74619 15.2538 7 14.3333 7H11.6667C10.7462 7 10 7.74619 10 8.66667V12H9.5H9H3.66667C3.29848 12 3 11.7015 3 11.3333V3.66667C3 3.29848 3.29848 3 3.66667 3ZM9 13H3.66667C2.74619 13 2 12.2538 2 11.3333V3.66667C2 2.74619 2.74619 2 3.66667 2H16.3333C17.2538 2 18 2.74619 18 3.66667V11.3333C18 12.2538 17.2538 13 16.3333 13H16V16.3333C16 17.2538 15.2538 18 14.3333 18H11.6667C10.7462 18 10 17.2538 10 16.3333V16H5.54097C5.08096 16 4.83034 15.4628 5.12589 15.1103L5.88195 14.2086C5.99278 14.0764 6.15645 14 6.32896 14H9V13ZM11.6667 8H14.3333C14.7015 8 15 8.29848 15 8.66667V16H11V8.66667C11 8.29848 11.2985 8 11.6667 8Z" fill="black" fill-opacity="0.87"/>
</svg>
