<svg width="20" height="20" viewBox="0 0 20 20" fill="none" xmlns="http://www.w3.org/2000/svg">
<circle cx="10" cy="6" r="3.5" stroke="white" stroke-opacity="0.87"/>
<path fill-rule="evenodd" clip-rule="evenodd" d="M13.2565 12.3495C12.2383 12.1396 11.1344 12 10 12C7.19522 12 4.5765 12.8536 2.98036 13.5125C2.3945 13.7543 2 14.3606 2 15.0985V16.5C2 16.7761 2.22386 17 2.5 17H12V18H2.5C1.67157 18 1 17.3284 1 16.5V15.0985C1 14.009 1.59174 13.0038 2.59882 12.5881C4.25307 11.9053 7.01014 11 10 11C11.3075 11 12.5704 11.1731 13.7161 11.425C13.5183 11.7047 13.3621 12.0159 13.2565 12.3495Z" fill="white" fill-opacity="0.87"/>
<path fill-rule="evenodd" clip-rule="evenodd" d="M15.1001 13.3667C15.1001 12.6119 15.712 12 16.4668 12C17.2216 12 17.8334 12.6119 17.8334 13.3667V14.1665H15.1001L15.1001 13.3667ZM14.1001 14.1665L14.1001 13.3667C14.1001 12.0596 15.1597 11 16.4668 11C17.7738 11 18.8334 12.0596 18.8334 13.3667V14.1665H18.9333C19.4856 14.1665 19.9333 14.6142 19.9333 15.1665V18.4998C19.9333 19.0521 19.4856 19.4998 18.9333 19.4998H14C13.4477 19.4998 13 19.0521 13 18.4998V15.1665C13 14.6142 13.4477 14.1665 14 14.1665H14.1001ZM14 15.1665H18.9333V18.4998H14L14 15.1665Z" fill="white" fill-opacity="0.87"/>
</svg>
