<svg width="20" height="20" viewBox="0 0 20 20" fill="none" xmlns="http://www.w3.org/2000/svg">
<path fill-rule="evenodd" clip-rule="evenodd" d="M11.0725 10.321C10.7239 10.5957 10.5 11.0217 10.5 11.5C10.5 12.3284 11.1716 13 12 13H14.2787C14.3751 13.1856 14.4629 13.3779 14.5414 13.5762C13.5081 14.9585 11.8585 15.8532 9.99996 15.8532C8.14142 15.8532 6.49185 14.9585 5.4585 13.5762C6.2509 11.5751 7.98644 10.1865 9.99996 10.1865C10.3681 10.1865 10.727 10.2329 11.0725 10.321Z" fill="black" fill-opacity="0.87"/>
<circle cx="9.99984" cy="7.08333" r="2.08333" fill="black" fill-opacity="0.87"/>
<path d="M12.0001 11.4966L18.3031 11.4969M18.3031 11.4969L15.1033 14.6901M18.3031 11.4969L15.1064 8.30029" stroke="black" stroke-opacity="0.87" stroke-linecap="round"/>
<path d="M16.3027 5.92347C14.9638 3.87208 12.6467 2.51611 10.0127 2.51611C5.86843 2.51611 2.50887 5.87259 2.50887 10.013C2.50887 14.1534 5.86843 17.5099 10.0127 17.5099C10.9159 17.5099 11.7819 17.3505 12.5839 17.0582" stroke="black" stroke-opacity="0.87" stroke-linecap="round"/>
</svg>
