<svg width="20" height="20" viewBox="0 0 20 20" fill="none" xmlns="http://www.w3.org/2000/svg">
<path fill-rule="evenodd" clip-rule="evenodd" d="M4 3.5C4 2.67157 4.67157 2 5.5 2H12V5.5V6H12.5H16V15.5C16 16.3284 15.3284 17 14.5 17H5.5C4.67157 17 4 16.3284 4 15.5V3.5ZM15.7929 5L13 2.20711V5H15.7929ZM5.5 1C4.11929 1 3 2.11929 3 3.5V15.5C3 16.8807 4.11929 18 5.5 18H14.5C15.8807 18 17 16.8807 17 15.5V5V4.79289L16.8536 4.64645L13.3536 1.14645L13.2071 1H13H5.5Z" fill="white" fill-opacity="0.87"/>
<path d="M6.5 10.5H13.5M6.5 13.5H11.5" stroke="white" stroke-opacity="0.87" stroke-linecap="round"/>
</svg>
