<svg width="20" height="20" viewBox="0 0 20 20" fill="none" xmlns="http://www.w3.org/2000/svg">
<path d="M8.93503 12.6771C8.93503 12.9643 8.70222 13.1971 8.41504 13.1971C8.12786 13.1971 7.89505 12.9643 7.89506 12.6771C7.89506 11.6 7.89506 10.4 7.89506 7.32001C7.89505 7.03282 8.12786 6.8 8.41504 6.8C8.70222 6.8 8.93503 7.03282 8.93503 7.32001C8.93503 10.7437 8.93503 9.56969 8.93503 12.6771Z" fill="black" fill-opacity="0.87"/>
<path fill-rule="evenodd" clip-rule="evenodd" d="M2 10C2 14.4183 5.58172 18 10 18C14.4183 18 18 14.4183 18 10C18 5.58172 14.4183 2 10 2C5.58172 2 2 5.58172 2 10ZM10 16.96C6.1561 16.96 3.04 13.8439 3.04 10C3.04 6.1561 6.1561 3.04 10 3.04C13.8439 3.04 16.96 6.1561 16.96 10C16.96 13.8439 13.8439 16.96 10 16.96Z" fill="black" fill-opacity="0.87"/>
<path d="M12.1352 12.6771C12.1352 12.9643 11.9023 13.1971 11.6152 13.1971C11.328 13.1971 11.0952 12.9643 11.0952 12.6771C11.0952 11.6 11.0952 10.4 11.0952 7.32001C11.0952 7.03282 11.328 6.8 11.6152 6.8C11.9023 6.8 12.1352 7.03282 12.1352 7.32001C12.1352 10.7437 12.1352 9.56969 12.1352 12.6771Z" fill="black" fill-opacity="0.87"/>
</svg>
