<svg width="20" height="20" viewBox="0 0 20 20" fill="none" xmlns="http://www.w3.org/2000/svg">
<path d="M11.5433 5.73894L14.3695 8.56516L15.0766 7.85806L12.2504 5.03183L11.5433 5.73894Z" fill="white" fill-opacity="0.87"/>
<path fill-rule="evenodd" clip-rule="evenodd" d="M7.6887 16.6634C7.5547 16.7974 7.38538 16.8905 7.20047 16.932L2.01401 18.0954L3.17741 12.909C3.21889 12.7241 3.31206 12.5547 3.44606 12.4207L13.7775 2.08928C14.168 1.69876 14.8012 1.69876 15.1917 2.08928L18.0202 4.91771C18.4107 5.30823 18.4107 5.9414 18.0202 6.33192L7.6887 16.6634ZM14.4846 2.79639L17.3131 5.62481L6.98159 15.9563L3.33523 16.7742L4.15317 13.1278L14.4846 2.79639Z" fill="white" fill-opacity="0.87"/>
</svg>
