<svg width="20" height="20" viewBox="0 0 20 20" fill="none" xmlns="http://www.w3.org/2000/svg">
<path fill-rule="evenodd" clip-rule="evenodd" d="M10.3114 1.26287C10.2157 1.22239 10.1105 1.2 10 1.2C9.55817 1.2 9.2 1.55817 9.2 2H9.20001C9.20001 2 9.20001 2.00001 9.20001 2.00001C9.20001 2.44184 9.55818 2.80001 10 2.80001C10.4418 2.80001 10.8 2.44184 10.8 2.00001C10.8 1.89667 10.7804 1.7979 10.7447 1.70722C10.666 1.50714 10.509 1.34644 10.3114 1.26287ZM10 0C8.89543 0 8 0.895431 8 2H6H4.5C3.11929 2 2 3.11929 2 4.5V15.5C2 16.8807 3.11929 18 4.5 18H15.5C16.8807 18 18 16.8807 18 15.5V4.5C18 3.11929 16.8807 2 15.5 2H14H12C12 0.895431 11.1046 0 10 0ZM14 3H15.5C16.3284 3 17 3.67157 17 4.5V15.5C17 16.3284 16.3284 17 15.5 17H4.5C3.67157 17 3 16.3284 3 15.5V4.5C3 3.67157 3.67157 3 4.5 3H6V5C6 5.55228 6.44772 6 7 6H13C13.5523 6 14 5.55228 14 5V3ZM6.6 10C6.26863 10 6 10.2686 6 10.6C6 10.9314 6.26863 11.2 6.6 11.2H13.4C13.7314 11.2 14 10.9314 14 10.6C14 10.2686 13.7314 10 13.4 10H6.6ZM6 13.6C6 13.2686 6.26863 13 6.6 13H11.4C11.7314 13 12 13.2686 12 13.6C12 13.9314 11.7314 14.2 11.4 14.2H6.6C6.26863 14.2 6 13.9314 6 13.6Z" fill="black" fill-opacity="0.87"/>
</svg>
