<svg width="20" height="20" viewBox="0 0 20 20" fill="none" xmlns="http://www.w3.org/2000/svg">
<circle cx="10" cy="8.74992" r="2.41667" stroke="white" stroke-opacity="0.87"/>
<path fill-rule="evenodd" clip-rule="evenodd" d="M12.1394 3.80432C11.8405 3.84533 11.5391 3.74923 11.3191 3.54279L10.6586 2.92297C10.2946 2.58134 9.70538 2.58134 9.34135 2.92297L8.68091 3.54279C8.46093 3.74923 8.15951 3.84533 7.86064 3.80432L6.95078 3.67948C6.42454 3.60727 5.97797 3.95489 5.8978 4.39825L5.73904 5.27629C5.6837 5.58231 5.48915 5.84516 5.21264 5.98748L4.40091 6.40529C3.95384 6.63541 3.80321 7.14125 4.00629 7.54428L4.38714 8.30009C4.52977 8.58313 4.52977 8.91703 4.38714 9.20007L4.00629 9.95589C3.80321 10.3589 3.95384 10.8648 4.40091 11.0949L5.21264 11.5127C5.48915 11.655 5.6837 11.9179 5.73904 12.2239L5.8978 13.1019C5.97797 13.5453 6.42454 13.8929 6.95078 13.8207L7.86064 13.6958C8.15951 13.6548 8.46093 13.7509 8.68091 13.9574L9.34135 14.5772C9.70538 14.9188 10.2946 14.9188 10.6586 14.5772L11.3191 13.9574C11.5391 13.7509 11.8405 13.6548 12.1394 13.6958L13.0492 13.8207C13.5755 13.8929 14.022 13.5453 14.1022 13.1019L14.261 12.2239C14.3163 11.9179 14.5108 11.655 14.7873 11.5127L15.5991 11.0949C16.0462 10.8648 16.1968 10.3589 15.9937 9.95589L15.6128 9.20007C15.4702 8.91703 15.4702 8.58313 15.6128 8.30009L15.9937 7.54427C16.1968 7.14125 16.0462 6.63541 15.5991 6.40529L14.7873 5.98748C14.5108 5.84516 14.3163 5.58231 14.261 5.27629L14.1022 4.39825C14.022 3.95489 13.5755 3.60727 13.0492 3.67948L12.1394 3.80432ZM3.11326 7.99427C2.65572 7.08626 3.02294 5.98986 3.94326 5.51616L4.75499 5.09835L4.91376 4.22032C5.09376 3.22483 6.05516 2.54721 7.08673 2.68876L7.99658 2.81361L8.65703 2.19379C9.40582 1.49107 10.5942 1.49107 11.343 2.19379L12.0034 2.81361L12.9133 2.68876C13.9448 2.54721 14.9062 3.22483 15.0862 4.22032L15.245 5.09835L16.0567 5.51616C16.977 5.98986 17.3443 7.08626 16.8867 7.99427L16.5059 8.75008L16.8867 9.5059C17.2191 10.1655 17.1162 10.9246 16.6822 11.4721L19.1114 15.0735L19.6021 15.801L18.7261 15.8522L15.6787 16.0304L14.3776 18.785L14.0023 19.5795L13.511 18.851L11.2014 15.427C10.4992 15.9693 9.49882 15.9689 8.79701 15.4258L6.48666 18.851L5.99531 19.5795L5.62004 18.785L4.31898 16.0304L1.27155 15.8522L0.395508 15.801L0.886224 15.0735L3.31647 11.4705C2.88356 10.9231 2.7812 10.1649 3.11326 9.50589L3.49411 8.75008L3.11326 7.99427ZM4.11626 12.073L2.20598 14.9052L4.67355 15.0495L4.96975 15.0668L5.09647 15.3351L6.14897 17.5634L8.05342 14.7399L7.99658 14.6866L7.08673 14.8114C6.05516 14.9529 5.09376 14.2753 4.91376 13.2798L4.75499 12.4018L4.11626 12.073ZM15.245 12.4018L15.882 12.0739L17.7917 14.9052L15.3241 15.0495L15.0279 15.0668L14.9012 15.3351L13.8487 17.5634L11.9451 14.7413L12.0034 14.6866L12.9133 14.8114C13.9448 14.9529 14.9062 14.2753 15.0862 13.2798L15.245 12.4018Z" fill="white" fill-opacity="0.87"/>
</svg>
