<svg width="20" height="20" viewBox="0 0 20 20" fill="none" xmlns="http://www.w3.org/2000/svg">
<path d="M9.17592 11.5963C9.17592 11.0736 9.23881 10.6573 9.36459 10.3474C9.49038 10.0375 9.71976 9.73321 10.0527 9.43453C10.3894 9.13211 10.6132 8.88756 10.7242 8.70088C10.8352 8.51047 10.8907 8.31072 10.8907 8.10164C10.8907 7.47067 10.6021 7.15518 10.025 7.15518C9.7512 7.15518 9.53108 7.24105 9.36459 7.4128C9.20181 7.58081 9.11672 7.81416 9.10932 8.11284H7.5C7.5074 7.39973 7.73492 6.84156 8.18258 6.43833C8.63393 6.03511 9.24806 5.8335 10.025 5.8335C10.8093 5.8335 11.4179 6.02578 11.8507 6.41033C12.2836 6.79116 12.5 7.33066 12.5 8.02884C12.5 8.34619 12.4297 8.64674 12.2891 8.93049C12.1485 9.21051 11.9025 9.52227 11.5511 9.86575L11.1016 10.297C10.8204 10.5695 10.6595 10.8888 10.6188 11.2546L10.5966 11.5963H9.17592Z" fill="black" fill-opacity="0.87"/>
<circle cx="10" cy="10" r="7.83325" stroke="black" stroke-opacity="0.87"/>
<circle cx="9.91187" cy="13.313" r="0.881348" fill="black" fill-opacity="0.87"/>
</svg>
