<svg width="24" height="24" viewBox="0 0 24 24" fill="none" xmlns="http://www.w3.org/2000/svg">
<path fill-rule="evenodd" clip-rule="evenodd" d="M12 10.7C13.4912 10.7 14.7 9.49117 14.7 8C14.7 6.50883 13.4912 5.3 12 5.3C10.5088 5.3 9.3 6.50883 9.3 8C9.3 9.49117 10.5088 10.7 12 10.7ZM12 12C14.2091 12 16 10.2091 16 8C16 5.79086 14.2091 4 12 4C9.79086 4 8 5.79086 8 8C8 10.2091 9.79086 12 12 12ZM14.7 18.7H4.5C4.38954 18.7 4.3 18.6105 4.3 18.5V17.0985C4.3 16.4661 4.63533 15.9794 5.09482 15.7898C6.67353 15.1381 9.25074 14.3 12 14.3C13.4167 14.3 14.7877 14.5226 16 14.8275L16 13.4896C14.7806 13.2032 13.4164 13 12 13C9.01014 13 6.25307 13.9053 4.59882 14.5881C3.59174 15.0038 3 16.009 3 17.0985V18.5C3 19.3284 3.67157 20 4.5 20L16.0001 20L14.7 18.7Z" fill="white" fill-opacity="0.54"/>
<path fill-rule="evenodd" clip-rule="evenodd" d="M15.4597 15.5406C15.2059 15.2867 14.7943 15.2867 14.5405 15.5406C14.2866 15.7944 14.2866 16.206 14.5405 16.4598L17.5405 19.4598L18.0001 19.9194L18.4597 19.4598L21.4597 16.4598C21.7136 16.206 21.7136 15.7944 21.4597 15.5406C21.2059 15.2867 20.7943 15.2867 20.5405 15.5406L18.6501 17.4309L18.6501 12C18.6501 11.641 18.3591 11.35 18.0001 11.35C17.6412 11.35 17.3501 11.641 17.3501 12L17.3501 17.431L15.4597 15.5406Z" fill="white" fill-opacity="0.54"/>
</svg>
