<svg width="20" height="20" viewBox="0 0 20 20" fill="none" xmlns="http://www.w3.org/2000/svg">
<path fill-rule="evenodd" clip-rule="evenodd" d="M16.3364 7.00054C15.2091 4.64344 12.8009 3.01611 10.013 3.01611C6.1445 3.01611 3.00923 6.14916 3.00923 10.013C3.00923 13.8768 6.1445 17.0099 10.013 17.0099C13.5403 17.0099 16.4588 14.4047 16.9455 11.0161C16.9847 10.7428 17.2381 10.553 17.5115 10.5923C17.7848 10.6315 17.9746 10.8849 17.9353 11.1583C17.3789 15.0328 14.0441 18.0099 10.013 18.0099C5.59308 18.0099 2.00923 14.43 2.00923 10.013C2.00923 5.59601 5.59308 2.01611 10.013 2.01611C13.0151 2.01611 15.6305 3.66749 17 6.10949L17 3.49612C17 3.2201 17.224 2.99637 17.5003 2.9964C17.7765 2.99644 18.0005 3.22022 18.0005 3.49624L18.0005 7.50044V8.00018L17.5003 8.00015L13.5003 7.99992C13.224 7.9999 13.0001 7.77613 13 7.50011C13 7.2241 13.224 7.00035 13.5002 7.00037L16.3364 7.00054Z" fill="black" fill-opacity="0.87"/>
<mask id="path-2-outside-1_886_3232" maskUnits="userSpaceOnUse" x="4.27637" y="7" width="12" height="7" fill="black">
<rect fill="white" x="4.27637" y="7" width="12" height="7"/>
<path fill-rule="evenodd" clip-rule="evenodd" d="M9.27637 10.5C9.27637 11.3284 8.60479 12 7.77637 12C6.94794 12 6.27637 11.3284 6.27637 10.5C6.27637 9.67157 6.94794 9 7.77637 9C8.60479 9 9.27637 9.67157 9.27637 10.5ZM10.2264 11C9.99472 12.1411 8.98585 13 7.77637 13C6.39566 13 5.27637 11.8807 5.27637 10.5C5.27637 9.11929 6.39566 8 7.77637 8C8.98585 8 9.99472 8.85888 10.2264 10H10.3755H14.0027C14.2788 10 14.5027 10.2239 14.5027 10.5C14.5027 10.7761 14.2788 11 14.0027 11H13.5026V12.499C13.5026 12.7752 13.2788 12.999 13.0026 12.999C12.7265 12.999 12.5026 12.7752 12.5026 12.499V11H10.3755H10.2264Z"/>
</mask>
<path d="M10.2264 11L9.24634 10.8011L9.40895 10H10.2264V11ZM10.2264 10V11H9.40895L9.24634 10.1989L10.2264 10ZM13.5026 11H12.5026V10H13.5026V11ZM12.5026 11V10H13.5026V11H12.5026ZM7.77637 11C8.05251 11 8.27637 10.7761 8.27637 10.5H10.2764C10.2764 11.8807 9.15708 13 7.77637 13V11ZM7.27637 10.5C7.27637 10.7761 7.50022 11 7.77637 11V13C6.39566 13 5.27637 11.8807 5.27637 10.5H7.27637ZM7.77637 10C7.50022 10 7.27637 10.2239 7.27637 10.5H5.27637C5.27637 9.11929 6.39566 8 7.77637 8V10ZM8.27637 10.5C8.27637 10.2239 8.05251 10 7.77637 10V8C9.15708 8 10.2764 9.11929 10.2764 10.5H8.27637ZM7.77637 12C8.50089 12 9.10745 11.4853 9.24634 10.8011L11.2064 11.1989C10.882 12.7969 9.4708 14 7.77637 14V12ZM6.27637 10.5C6.27637 11.3284 6.94794 12 7.77637 12V14C5.84337 14 4.27637 12.433 4.27637 10.5H6.27637ZM7.77637 9C6.94794 9 6.27637 9.67157 6.27637 10.5H4.27637C4.27637 8.567 5.84337 7 7.77637 7V9ZM9.24634 10.1989C9.10745 9.51468 8.50089 9 7.77637 9V7C9.4708 7 10.882 8.20308 11.2064 9.80107L9.24634 10.1989ZM10.3755 11H10.2264V9H10.3755V11ZM14.0027 11H10.3755V9H14.0027V11ZM13.5027 10.5C13.5027 10.7761 13.7265 11 14.0027 11V9C14.8311 9 15.5027 9.67157 15.5027 10.5H13.5027ZM14.0027 10C13.7265 10 13.5027 10.2239 13.5027 10.5H15.5027C15.5027 11.3284 14.8311 12 14.0027 12V10ZM13.5026 10H14.0027V12H13.5026V10ZM14.5026 11V12.499H12.5026V11H14.5026ZM14.5026 12.499C14.5026 13.3274 13.831 13.999 13.0026 13.999V11.999C12.7265 11.999 12.5026 12.2229 12.5026 12.499H14.5026ZM13.0026 13.999C12.1742 13.999 11.5026 13.3275 11.5026 12.499H13.5026C13.5026 12.2229 13.2788 11.999 13.0026 11.999V13.999ZM11.5026 12.499V11H13.5026V12.499H11.5026ZM10.3755 10H12.5026V12H10.3755V10ZM10.2264 10H10.3755V12H10.2264V10Z" fill="black" fill-opacity="0.87" mask="url(#path-2-outside-1_886_3232)"/>
</svg>
