<svg width="20" height="20" viewBox="0 0 20 20" fill="none" xmlns="http://www.w3.org/2000/svg">
<path fill-rule="evenodd" clip-rule="evenodd" d="M16.1099 7.74061C15.14 5.25162 12.7647 3.50147 9.99996 3.50146C6.92468 3.50146 4.33126 5.6668 3.61784 8.60574C3.5527 8.87409 3.28235 9.03882 3.014 8.97368C2.74565 8.90854 2.58092 8.6382 2.64606 8.36985C3.4624 5.0069 6.43862 2.50146 9.99996 2.50146C13.0306 2.50146 15.6376 4.31587 16.8503 6.92909L17.6115 4.51908C17.6947 4.25576 17.9756 4.10972 18.2389 4.1929C18.5022 4.27607 18.6483 4.55696 18.5651 4.82028L17.3506 8.66506L17.1988 9.14572L16.7194 8.99L12.9483 7.76511C12.6856 7.6798 12.5419 7.39774 12.6272 7.1351C12.7125 6.87247 12.9945 6.72871 13.2572 6.81402L16.1099 7.74061Z" fill="black" fill-opacity="0.87"/>
<path fill-rule="evenodd" clip-rule="evenodd" d="M2.37933 15.5063C2.2978 15.7702 2.01783 15.9179 1.754 15.8364C1.49017 15.7549 1.34238 15.4749 1.42391 15.2111L2.61437 11.3588L2.76319 10.8772L3.24357 11.0299L7.02225 12.2313C7.28541 12.3149 7.43092 12.5961 7.34726 12.8593C7.26359 13.1224 6.98243 13.2679 6.71927 13.1843L3.86062 12.2754C4.84598 14.7584 7.2322 16.4938 9.99697 16.4765C13.0722 16.4573 15.652 14.2758 16.3471 11.3325C16.4106 11.0638 16.6799 10.8973 16.9486 10.9608C17.2174 11.0243 17.3838 11.2936 17.3203 11.5623C16.525 14.9303 13.5645 17.4543 10.0032 17.4765C6.97266 17.4954 4.35449 15.6974 3.12547 13.0918L2.37933 15.5063Z" fill="black" fill-opacity="0.87"/>
</svg>
