<svg width="20" height="20" viewBox="0 0 20 20" fill="none" xmlns="http://www.w3.org/2000/svg">
<rect x="2" y="2.5" width="16" height="6" rx="3" stroke="#57B250"/>
<circle cx="5.746" cy="5.49995" r="1.3" fill="#57B250"/>
<circle cx="10" cy="5.49995" r="1.3" fill="#57B250"/>
<circle cx="14.254" cy="5.49995" r="1.3" fill="#57B250"/>
<path fill-rule="evenodd" clip-rule="evenodd" d="M4.5 11C4.5 10.7239 4.27614 10.5 4 10.5C3.72386 10.5 3.5 10.7239 3.5 11C3.5 13.2091 5.29086 15 7.5 15H14.7929L12.6464 17.1464C12.4512 17.3417 12.4512 17.6583 12.6464 17.8536C12.8417 18.0488 13.1583 18.0488 13.3536 17.8536L16.3536 14.8536L16.7071 14.5L16.3536 14.1464L13.3536 11.1464C13.1583 10.9512 12.8417 10.9512 12.6464 11.1464C12.4512 11.3417 12.4512 11.6583 12.6464 11.8536L14.7929 14H7.5C5.84315 14 4.5 12.6569 4.5 11Z" fill="#57B250"/>
</svg>
