<svg width="24" height="24" viewBox="0 0 24 24" fill="none" xmlns="http://www.w3.org/2000/svg">
<path fill-rule="evenodd" clip-rule="evenodd" d="M12 10.7C13.4912 10.7 14.7 9.49117 14.7 8C14.7 6.50883 13.4912 5.3 12 5.3C10.5088 5.3 9.3 6.50883 9.3 8C9.3 9.49117 10.5088 10.7 12 10.7ZM12 12C14.2091 12 16 10.2091 16 8C16 5.79086 14.2091 4 12 4C9.79086 4 8 5.79086 8 8C8 10.2091 9.79086 12 12 12ZM15 18.7H4.5C4.38954 18.7 4.3 18.6105 4.3 18.5V17.0985C4.3 16.4661 4.63533 15.9794 5.09482 15.7898C6.67353 15.1381 9.25074 14.3 12 14.3C12.1455 14.3 12.2905 14.3023 12.4349 14.3069C12.7433 14.1125 13.1085 14 13.5 14H15V13.2813C14.0526 13.1096 13.0404 13 12 13C9.01014 13 6.25307 13.9053 4.59882 14.5881C3.59174 15.0038 3 16.009 3 17.0985V18.5C3 19.3284 3.67157 20 4.5 20H15.2676C15.0974 19.7058 15 19.3643 15 19V18.7Z" fill="white" fill-opacity="0.87"/>
<path d="M16.9968 12C17.3558 12 17.6468 12.291 17.6468 12.65V15.3312H20.3464C20.7054 15.3312 20.9964 15.6222 20.9964 15.9812C20.9964 16.3402 20.7054 16.6312 20.3464 16.6312H17.6468V19.3455C17.6468 19.7044 17.3558 19.9954 16.9968 19.9954C16.6378 19.9954 16.3468 19.7044 16.3468 19.3455V16.6312H13.65C13.291 16.6312 13 16.3402 13 15.9812C13 15.6222 13.291 15.3312 13.65 15.3312H16.3468V12.65C16.3468 12.291 16.6378 12 16.9968 12Z" fill="white" fill-opacity="0.87"/>
</svg>

