<svg width="21" height="20" viewBox="0 0 21 20" fill="none" xmlns="http://www.w3.org/2000/svg">
<path fill-rule="evenodd" clip-rule="evenodd" d="M17.5 5C17.5 6.10457 16.6046 7 15.5 7C14.3954 7 13.5 6.10457 13.5 5C13.5 3.89543 14.3954 3 15.5 3C16.6046 3 17.5 3.89543 17.5 5ZM18.5 5C18.5 6.65685 17.1569 8 15.5 8C14.5052 8 13.6235 7.51578 13.0777 6.77018L8.37008 9.12398C8.45456 9.4011 8.5 9.69524 8.5 10C8.5 10.3048 8.45456 10.5989 8.37008 10.876L13.0777 13.2298C13.6235 12.4842 14.5052 12 15.5 12C17.1569 12 18.5 13.3431 18.5 15C18.5 16.6569 17.1569 18 15.5 18C13.8431 18 12.5 16.6569 12.5 15C12.5 14.6952 12.5454 14.4011 12.6299 14.124L7.92233 11.7702C7.37653 12.5158 6.49481 13 5.5 13C3.84315 13 2.5 11.6569 2.5 10C2.5 8.34315 3.84315 7 5.5 7C6.49481 7 7.37653 7.48422 7.92233 8.22982L12.6299 5.87602C12.5454 5.5989 12.5 5.30476 12.5 5C12.5 3.34315 13.8431 2 15.5 2C17.1569 2 18.5 3.34315 18.5 5ZM15.5 17C16.6046 17 17.5 16.1046 17.5 15C17.5 13.8954 16.6046 13 15.5 13C14.3954 13 13.5 13.8954 13.5 15C13.5 16.1046 14.3954 17 15.5 17ZM7.5 10C7.5 11.1046 6.60457 12 5.5 12C4.39543 12 3.5 11.1046 3.5 10C3.5 8.89543 4.39543 8 5.5 8C6.60457 8 7.5 8.89543 7.5 10Z" fill="black" fill-opacity="0.87"/>
</svg>
