<svg width="21" height="20" viewBox="0 0 21 20" fill="none" xmlns="http://www.w3.org/2000/svg">
<path fill-rule="evenodd" clip-rule="evenodd" d="M17.75 5C17.75 6.10457 16.8546 7 15.75 7C14.6454 7 13.75 6.10457 13.75 5C13.75 3.89543 14.6454 3 15.75 3C16.8546 3 17.75 3.89543 17.75 5ZM18.75 5C18.75 6.65685 17.4069 8 15.75 8C14.7552 8 13.8735 7.51578 13.3277 6.77018L8.62008 9.12398C8.70456 9.4011 8.75 9.69524 8.75 10C8.75 10.3048 8.70456 10.5989 8.62008 10.876L13.3277 13.2298C13.8735 12.4842 14.7552 12 15.75 12C17.4069 12 18.75 13.3431 18.75 15C18.75 16.6569 17.4069 18 15.75 18C14.0931 18 12.75 16.6569 12.75 15C12.75 14.6952 12.7954 14.4011 12.8799 14.124L8.17233 11.7702C7.62653 12.5158 6.74481 13 5.75 13C4.09315 13 2.75 11.6569 2.75 10C2.75 8.34315 4.09315 7 5.75 7C6.74481 7 7.62653 7.48422 8.17233 8.22982L12.8799 5.87602C12.7954 5.5989 12.75 5.30476 12.75 5C12.75 3.34315 14.0931 2 15.75 2C17.4069 2 18.75 3.34315 18.75 5ZM15.75 17C16.8546 17 17.75 16.1046 17.75 15C17.75 13.8954 16.8546 13 15.75 13C14.6454 13 13.75 13.8954 13.75 15C13.75 16.1046 14.6454 17 15.75 17ZM7.75 10C7.75 11.1046 6.85457 12 5.75 12C4.64543 12 3.75 11.1046 3.75 10C3.75 8.89543 4.64543 8 5.75 8C6.85457 8 7.75 8.89543 7.75 10Z" fill="white" fill-opacity="0.87"/>
</svg>
