<svg xmlns="http://www.w3.org/2000/svg" width="24" height="24" viewBox="0 0 24 24"><defs><style>.cls-1 { fill-rule: evenodd; }</style></defs><path id="move" class="cls-1" d="M1547 1491h-7.68l2-2.01h4.86a1.777 1.777 0 0 0 1.82-1.73v-9.53a1.785 1.785 0 0 0-1.82-1.74h-9.67l-2.18-2.98h-5.02a1.524 1.524 0 0 0-1.31 1.68v8.31h-2v-9.02c.01-1.93.8-2.98 3-2.98h6.5l1.98 2.98h9.52a3.011 3.011 0 0 1 3 3.01v11.01a3 3 0 0 1-3 3zm-13.41-10.59l1.41-1.41 7 7.01-7 7-1.41-1.41 4.58-4.59h-12.17v-2.01h12.17zm-1.59 8.58h2.16l-2 2.01h-3.16a2.987 2.987 0 0 1-2.82-2h5.82v-.01z" transform="translate(-1526 -1470)"/></svg>