<svg width="24" height="24" viewBox="0 0 24 24" fill="none" xmlns="http://www.w3.org/2000/svg">
<path fill-rule="evenodd" clip-rule="evenodd" d="M19.6615 13.4429C18.3729 16.7311 16.0127 19.1403 12 22.0117C7.98728 19.1403 5.62709 16.7311 4.33854 13.4429C3.36166 10.9505 3 8.22959 3 5.11522L12.0003 2L21 5.11522C21 8.22959 20.6383 10.9505 19.6615 13.4429ZM18.7623 11.0167C19.1328 9.56264 19.326 7.99023 19.3823 6.24839L12.0004 3.69317V11.0166H5.23763C5.3995 11.6519 5.59523 12.2646 5.8282 12.859C6.85649 15.4831 8.67684 17.54 12 20.0294L12.0004 11.0166L18.7623 11.0167Z" fill="black" fill-opacity="0.87"/>
</svg>
