<svg width="24" height="24" viewBox="0 0 24 24" fill="none" xmlns="http://www.w3.org/2000/svg">
<path fill-rule="evenodd" clip-rule="evenodd" d="M5.50005 2.69971C3.40137 2.69971 1.70005 4.40102 1.70005 6.49971V11.4724C1.69998 11.4816 1.69995 11.4907 1.69995 11.4999V18.2776C1.69995 19.9468 3.05305 21.2999 4.72217 21.2999H18.5C20.5986 21.2999 22.2999 19.5985 22.2999 17.4999V13.568C22.3 13.5638 22.3 13.5596 22.3 13.5554V8.49995C22.3 6.40127 20.5987 4.69995 18.5 4.69995H11.3593L9.82007 2.96823L9.5814 2.69971H9.22214H5.50005ZM20.6978 8.39957C20.6453 7.23113 19.6814 6.29995 18.5 6.29995H11H10.6408L10.4021 6.03143L8.86287 4.29971H5.50005C4.28502 4.29971 3.30005 5.28468 3.30005 6.49971V8.40103C3.92088 7.95949 4.6801 7.69985 5.49995 7.69985H18.5C19.3189 7.69985 20.0773 7.95892 20.6978 8.39957ZM3.29995 13.5681C3.30002 13.5638 3.30005 13.5596 3.30005 13.5554V11.4788C3.31134 10.2735 4.29194 9.29985 5.49995 9.29985H18.5C19.715 9.29985 20.7 10.2848 20.7 11.4999V17.4999C20.7 18.7149 19.715 19.6999 18.5 19.6999H4.72217C3.9367 19.6999 3.29995 19.0631 3.29995 18.2776V13.5681Z" fill="white" fill-opacity="0.87"/>
</svg>
