<svg width="24" height="24" viewBox="0 0 24 24" fill="none" xmlns="http://www.w3.org/2000/svg">
<path d="M7 9.00043V7.3629C7 4.39217 9.25082 2.00781 12 2.00781C14.7492 2.00781 17 4.39217 17 7.3629L17 9.00043" stroke="white" stroke-opacity="0.87" stroke-width="2"/>
<path d="M3.8 12C3.8 10.785 4.78497 9.8 6 9.8H18C19.215 9.8 20.2 10.785 20.2 12V20C20.2 21.215 19.215 22.2 18 22.2H6C4.78497 22.2 3.8 21.215 3.8 20V12Z" stroke="white" stroke-opacity="0.87" stroke-width="1.6"/>
<path d="M13 16.5049C13.5978 16.1802 14 15.5732 14 14.8781C14 13.8408 13.1046 13 12 13C10.8954 13 10 13.8408 10 14.8781C10 15.5732 10.4022 16.1802 11 16.5049V18.061C11 18.5796 11.4477 19 12 19C12.5523 19 13 18.5796 13 18.061V16.5049Z" fill="white" fill-opacity="0.87"/>
</svg>
