<svg xmlns="http://www.w3.org/2000/svg" width="24" height="24" viewBox="0 0 24 24" fill="none">
  <path fill-rule="evenodd" clip-rule="evenodd" d="M15.5 2.6H5.5C5.00294 2.6 4.6 3.00294 4.6 3.5V3.7H16.4V3.5C16.4 3.00294 15.9971 2.6 15.5 2.6ZM4.6 12.7V5.3H16.4V12.7H4.6ZM16.4 21.4V14.3H4.6V21.4H16.4ZM5.5 1C4.11929 1 3 2.11929 3 3.5V21.4V23H4.6H16.4H18V21.4V17.8001H19.2C20.7464 17.8001 22 16.5465 22 15.0001V9.7116C22.4552 9.43912 22.7599 8.94121 22.7599 8.37213C22.7599 7.51057 22.0615 6.81213 21.1999 6.81213C20.3383 6.81213 19.6399 7.51057 19.6399 8.37213C19.6399 8.9413 19.9447 9.43928 20.4 9.71173V15.0001C20.4 15.6628 19.8627 16.2001 19.2 16.2001H18V3.5C18 2.11929 16.8807 1 15.5 1H5.5ZM7.8 7.5C7.8 7.05817 7.44183 6.7 7 6.7C6.55817 6.7 6.2 7.05817 6.2 7.5V10.5C6.2 10.9418 6.55817 11.3 7 11.3C7.44183 11.3 7.8 10.9418 7.8 10.5V7.5ZM14 6.7C14.4418 6.7 14.8 7.05817 14.8 7.5V10.5C14.8 10.9418 14.4418 11.3 14 11.3C13.5582 11.3 13.2 10.9418 13.2 10.5V7.5C13.2 7.05817 13.5582 6.7 14 6.7ZM11.3 7.5C11.3 7.05817 10.9418 6.7 10.5 6.7C10.0582 6.7 9.7 7.05817 9.7 7.5V10.5C9.7 10.9418 10.0582 11.3 10.5 11.3C10.9418 11.3 11.3 10.9418 11.3 10.5V7.5Z" fill="black" fill-opacity="0.87"/>
</svg>