<svg width="24" height="24" viewBox="0 0 24 24" fill="none" xmlns="http://www.w3.org/2000/svg">
<path d="M8.5 12.5H12H15.5" stroke="white" stroke-opacity="0.87" stroke-width="1.3" stroke-linecap="round"/>
<path d="M8.5 15.5H12H12.5" stroke="white" stroke-opacity="0.87" stroke-width="1.3" stroke-linecap="round"/>
<path fill-rule="evenodd" clip-rule="evenodd" d="M13.85 3.3H7C6.06112 3.3 5.3 4.06112 5.3 5V19C5.3 19.9389 6.06112 20.7 7 20.7H17C17.9389 20.7 18.7 19.9389 18.7 19V8.15H14.5H13.85V7.5V3.3ZM18.0115 6.85L15.15 3.98848V6.85H18.0115ZM15 2L20 7V19C20 20.6569 18.6569 22 17 22H7C5.34315 22 4 20.6569 4 19V5C4 3.34315 5.34315 2 7 2H15Z" fill="white" fill-opacity="0.87"/>
</svg>
