<svg width="24" height="24" viewBox="0 0 24 24" fill="none" xmlns="http://www.w3.org/2000/svg">
<path fill-rule="evenodd" clip-rule="evenodd" d="M12 2.77778C9.61837 2.77778 7.71429 4.73989 7.71429 7.12656V9H6V7.12656C6 3.72786 8.70098 1 12 1C15.299 1 18 3.72786 18 7.12656L18 9L16.2857 9L16.2857 7.12656C16.2857 4.73989 14.3816 2.77778 12 2.77778Z" fill="black" fill-opacity="0.87"/>
<path d="M3.65 12C3.65 10.7021 4.70213 9.65 6 9.65H18C19.2979 9.65 20.35 10.7021 20.35 12V20C20.35 21.2979 19.2979 22.35 18 22.35H6C4.70213 22.35 3.65 21.2979 3.65 20V12Z" stroke="black" stroke-opacity="0.87" stroke-width="1.3"/>
<path d="M13 16.5049C13.5978 16.1802 14 15.5732 14 14.8781C14 13.8408 13.1046 13 12 13C10.8954 13 10 13.8408 10 14.8781C10 15.5732 10.4022 16.1802 11 16.5049V18.061C11 18.5796 11.4477 19 12 19C12.5523 19 13 18.5796 13 18.061V16.5049Z" fill="black" fill-opacity="0.87"/>
</svg>
