<svg width="24" height="24" viewBox="0 0 24 24" fill="none" xmlns="http://www.w3.org/2000/svg">
<path fill-rule="evenodd" clip-rule="evenodd" d="M12 18C14.7614 18 17 15.7614 17 13C17 10.2386 14.7614 8 12 8C9.23858 8 7 10.2386 7 13C7 15.7614 9.23858 18 12 18ZM11 12V10H13V12H15V14H13V16H11V14H9V12H11Z" fill="white" fill-opacity="0.87"/>
<path fill-rule="evenodd" clip-rule="evenodd" d="M10 0.699707C8.17746 0.699707 6.7 2.17717 6.7 3.99971H8.3C8.3 3.06082 9.06112 2.29971 10 2.29971H14C14.9389 2.29971 15.7 3.06082 15.7 3.99971H17.3C17.3 2.17717 15.8225 0.699707 14 0.699707H10ZM4 5.59995H20C20.2209 5.59995 20.4 5.77904 20.4 5.99995V20C20.4 20.2209 20.2209 20.4 20 20.4H4C3.77909 20.4 3.6 20.2209 3.6 20V5.99995C3.6 5.77904 3.77909 5.59995 4 5.59995ZM2 5.99995C2 4.89538 2.89543 3.99995 4 3.99995H20C21.1046 3.99995 22 4.89538 22 5.99995V20C22 21.1045 21.1046 22 20 22H4C2.89543 22 2 21.1045 2 20V5.99995Z" fill="white" fill-opacity="0.87"/>
</svg>
