<svg width="24" height="24" viewBox="0 0 24 24" fill="none" xmlns="http://www.w3.org/2000/svg">
<path d="M11.2946 11.9845C11.1549 12.356 11.0851 12.8551 11.0851 13.4818H12.6622L12.6869 13.0722C12.7321 12.6335 12.9107 12.2508 13.2229 11.924L13.7219 11.407C14.112 10.9952 14.3852 10.6214 14.5412 10.2857C14.6973 9.94547 14.7753 9.58512 14.7753 9.20463C14.7753 8.36754 14.5351 7.72071 14.0545 7.26411C13.574 6.80304 12.8984 6.57251 12.0277 6.57251C11.1652 6.57251 10.4834 6.81424 9.98237 7.29769C9.48541 7.78114 9.23282 8.45036 9.22461 9.30535H11.0112C11.0194 8.94724 11.1139 8.66746 11.2946 8.46602C11.4794 8.26011 11.7238 8.15715 12.0277 8.15715C12.6684 8.15715 12.9888 8.53541 12.9888 9.29192C12.9888 9.5426 12.9271 9.78209 12.8039 10.0104C12.6807 10.2342 12.4322 10.5274 12.0585 10.89C11.6889 11.2481 11.4342 11.6129 11.2946 11.9845Z" fill="white" fill-opacity="0.87"/>
<path d="M11.1837 14.8046C10.9989 14.9971 10.9065 15.2433 10.9065 15.5432C10.9065 15.8386 10.9968 16.0826 11.1775 16.2751C11.3623 16.4676 11.6047 16.5638 11.9045 16.5638C12.2043 16.5638 12.4446 16.4676 12.6253 16.2751C12.8101 16.0826 12.9025 15.8386 12.9025 15.5432C12.9025 15.2433 12.808 14.9971 12.6191 14.8046C12.4343 14.6076 12.1961 14.5092 11.9045 14.5092C11.6129 14.5092 11.3726 14.6076 11.1837 14.8046Z" fill="white" fill-opacity="0.87"/>
<path d="M5.43586 14.0262C4.18729 11.5228 3.69483 8.76709 3.65295 5.50589L11.9996 2.68609L20.347 5.5059C20.3051 8.76706 19.8125 11.5227 18.5637 14.0261C17.3041 16.5512 15.2486 18.8727 11.9996 21.2037C8.7505 18.8727 6.69523 16.5512 5.43586 14.0262Z" stroke="white" stroke-opacity="0.87" stroke-width="1.3"/>
</svg>
