<svg xmlns="http://www.w3.org/2000/svg" width="24" height="24" viewBox="0 0 24 24" fill="none">
  <path fill-rule="evenodd" clip-rule="evenodd" d="M7.3 7.16003C7.3 4.44344 9.43631 2.3 12 2.3C14.5637 2.3 16.7 4.44344 16.7 7.16003V8.5H7.3V7.16003ZM6 8.5V7.16003C6 3.75794 8.68629 1 12 1C15.3137 1 18 3.75794 18 7.16003V8.5H18.7273C20.5347 8.5 22 9.89777 22 11.622V19.878C22 21.6022 20.5348 23 18.7273 23H5.27273C3.46525 23 2 21.6022 2 19.878V11.622C2 9.89777 3.46525 8.5 5.27273 8.5H6ZM18 9.8H18.7273C19.8752 9.8 20.7 10.6728 20.7 11.622V19.878C20.7 20.8272 19.8752 21.7 18.7273 21.7H5.27273C4.12478 21.7 3.3 20.8272 3.3 19.878V11.622C3.3 10.6728 4.12478 9.8 5.27273 9.8H6H7.3H16.7H18ZM9.42001 17.2975C10.125 17.0521 10.63 16.39 10.63 15.6117C10.63 14.6245 9.81741 13.8242 8.81501 13.8242C7.81261 13.8242 7 14.6245 7 15.6117C7 16.39 7.50506 17.0521 8.21001 17.2975V18.5909C8.21001 18.92 8.48087 19.1867 8.81501 19.1867C9.14914 19.1867 9.42001 18.92 9.42001 18.5909V17.2975ZM17 15.6117C17 16.39 16.495 17.0521 15.79 17.2975V18.5909C15.79 18.92 15.5191 19.1867 15.185 19.1867C14.8509 19.1867 14.58 18.92 14.58 18.5909V17.2975C13.8751 17.0521 13.37 16.39 13.37 15.6117C13.37 14.6245 14.1826 13.8242 15.185 13.8242C16.1874 13.8242 17 14.6245 17 15.6117Z" fill="black" fill-opacity="0.87"/>
</svg>