<svg xmlns="http://www.w3.org/2000/svg" width="24" height="24" viewBox="0 0 24 24" fill="none">
  <path fill-rule="evenodd" clip-rule="evenodd" d="M7.6 7.16003C7.6 4.60163 9.60939 2.6 12 2.6C14.3906 2.6 16.4 4.60163 16.4 7.16003V8.2H7.6V7.16003ZM12 1C8.68629 1 6 3.75794 6 7.16003V8.2V8.5H5.27273C3.46525 8.5 2 9.89777 2 11.622V19.878C2 21.6022 3.46525 23 5.27273 23H18.7273C20.5348 23 22 21.6022 22 19.878V11.622C22 9.89777 20.5347 8.5 18.7273 8.5H18V8.2V7.16003C18 3.75794 15.3137 1 12 1ZM3.6 11.622C3.6 10.8517 4.27698 10.1 5.27273 10.1H18.7273C19.723 10.1 20.4 10.8517 20.4 11.622V19.878C20.4 20.6483 19.723 21.4 18.7273 21.4H5.27273C4.27698 21.4 3.6 20.6483 3.6 19.878V11.622ZM9.42001 17.2975C10.125 17.0521 10.63 16.39 10.63 15.6117C10.63 14.6245 9.81741 13.8242 8.81501 13.8242C7.81261 13.8242 7 14.6245 7 15.6117C7 16.39 7.50506 17.0521 8.21001 17.2975V18.5909C8.21001 18.92 8.48087 19.1867 8.81501 19.1867C9.14914 19.1867 9.42001 18.92 9.42001 18.5909V17.2975ZM17 15.6117C17 16.39 16.495 17.0521 15.79 17.2975V18.5909C15.79 18.92 15.5191 19.1867 15.185 19.1867C14.8509 19.1867 14.58 18.92 14.58 18.5909V17.2975C13.8751 17.0521 13.37 16.39 13.37 15.6117C13.37 14.6245 14.1826 13.8242 15.185 13.8242C16.1874 13.8242 17 14.6245 17 15.6117Z" fill="white" fill-opacity="0.87"/>
</svg>