<svg width="24" height="24" viewBox="0 0 24 24" fill="none" xmlns="http://www.w3.org/2000/svg">
<path d="M8.85576 6.00077L8.85624 5.49976L8.40571 5.2806C7.54058 4.85977 7.18494 4.38047 7.00898 3.90772C6.88563 3.5763 6.83658 3.21726 6.81715 2.80439H17.1911C17.1711 3.21281 17.1218 3.57285 17.0005 3.90595C16.8253 4.38731 16.4752 4.86796 15.6422 5.28446L15.2005 5.50534L15.2 5.99923L15.1957 10.5322L15.1952 11.0471L15.6636 11.2608C17.5837 12.1368 18.8854 14.0831 19.1512 16.1969H13H12.1988L12.2 16.9981L12.2 17L12.2 17.0012L12.2 22C12.2 22.1105 12.1105 22.2 12 22.2C11.8895 22.2 11.8 22.1105 11.8 22V17L11.8 16.9981L11.8012 16.1969H11H4.85518C5.12613 14.0826 6.45209 12.1459 8.38398 11.2629L8.85092 11.0495L8.85141 10.5361L8.85576 6.00077Z" stroke="white" stroke-opacity="0.87" stroke-width="1.6"/>
</svg>
