<svg width="24" height="24" viewBox="0 0 24 24" fill="none" xmlns="http://www.w3.org/2000/svg">
<path fill-rule="evenodd" clip-rule="evenodd" d="M5.5002 2.84985C3.48436 2.84985 1.85019 4.48401 1.85019 6.49985V11.4731C1.85013 11.482 1.8501 11.491 1.8501 11.5V18.2778C1.8501 19.8641 3.13603 21.15 4.72232 21.15H18.5001C20.5159 21.15 22.1501 19.5158 22.1501 17.5V13.5669C22.1502 13.5631 22.1502 13.5593 22.1502 13.5555V8.5001C22.1502 6.48426 20.516 4.8501 18.5002 4.8501H11.2921L9.70811 3.06803L9.51418 2.84985H9.22228H5.5002ZM20.8502 8.70713V8.5001C20.8502 7.20223 19.7981 6.1501 18.5002 6.1501H11.0002H10.7083L10.5144 5.93192L8.93038 4.14985H5.5002C4.20233 4.14985 3.15019 5.20198 3.15019 6.49985V8.70696C3.78514 8.17221 4.60499 7.85 5.5001 7.85H18.5001C19.3953 7.85 20.2152 8.17227 20.8502 8.70713ZM3.1501 13.5669C3.15016 13.5631 3.15019 13.5593 3.15019 13.5555V11.4783C3.16184 10.1904 4.20947 9.15 5.5001 9.15H18.5001C19.798 9.15 20.8501 10.2021 20.8501 11.5V17.5C20.8501 18.7979 19.798 19.85 18.5001 19.85H4.72232C3.85401 19.85 3.1501 19.1461 3.1501 18.2778V13.5669Z" fill="black" fill-opacity="0.87"/>
</svg>
