<svg width="24" height="24" viewBox="0 0 24 24" fill="none" xmlns="http://www.w3.org/2000/svg">
<path d="M8.5 12.5H12H15.5" stroke="black" stroke-opacity="0.87" stroke-width="1.6" stroke-linecap="round"/>
<path d="M8.5 15.5H12H12.5" stroke="black" stroke-opacity="0.87" stroke-width="1.6" stroke-linecap="round"/>
<path fill-rule="evenodd" clip-rule="evenodd" d="M13.7 3.6H7C6.2268 3.6 5.6 4.2268 5.6 5V19C5.6 19.7732 6.2268 20.4 7 20.4H17C17.7732 20.4 18.4 19.7732 18.4 19V8.3H14.5H13.7V7.5V3.6ZM17.4373 6.7L15.3 4.56274V6.7H17.4373ZM15 2L20 7V19C20 20.6569 18.6569 22 17 22H7C5.34315 22 4 20.6569 4 19V5C4 3.34315 5.34315 2 7 2H15Z" fill="black" fill-opacity="0.87"/>
</svg>
