<svg width="24" height="24" viewBox="0 0 24 24" fill="none" xmlns="http://www.w3.org/2000/svg">
<path d="M8.70576 6.00062L8.70615 5.59355L8.34009 5.41549C7.44445 4.97981 7.05934 4.47303 6.8684 3.96004C6.72225 3.56738 6.67588 3.14078 6.66123 2.65439H17.3473C17.3321 3.13514 17.2851 3.56273 17.1415 3.95727C16.952 4.4777 16.5736 4.98647 15.7093 5.41862L15.3504 5.59809L15.35 5.99938L15.3457 10.5323L15.3453 10.9507L15.7258 11.1243C17.7491 12.0474 19.0968 14.1218 19.3191 16.3469H13H12.349L12.35 16.9979L12.35 17V17.001V22C12.35 22.1933 12.1933 22.35 12 22.35C11.8067 22.35 11.65 22.1933 11.65 22V17L11.65 16.9979L11.651 16.3469H11H4.68699C4.91353 14.1194 6.28769 12.0561 8.32162 11.1265L8.70101 10.9531L8.70141 10.5359L8.70576 6.00062Z" stroke="black" stroke-opacity="0.87" stroke-width="1.3"/>
</svg>
