<svg width="24" height="24" viewBox="0 0 24 24" fill="none" xmlns="http://www.w3.org/2000/svg">
<path fill-rule="evenodd" clip-rule="evenodd" d="M19.4 5.5C19.4 6.54934 18.5493 7.4 17.5 7.4C16.4507 7.4 15.6 6.54934 15.6 5.5C15.6 4.45066 16.4507 3.6 17.5 3.6C18.5493 3.6 19.4 4.45066 19.4 5.5ZM21 5.5C21 7.433 19.433 9 17.5 9C16.4637 9 15.5326 8.54963 14.8918 7.83395L9.87517 10.5703C9.95654 10.8663 10 11.1781 10 11.5C10 11.9047 9.93132 12.2933 9.80497 12.6549L15.0549 15.9957C15.6857 15.3797 16.5485 15 17.5 15C19.433 15 21 16.567 21 18.5C21 20.433 19.433 22 17.5 22C15.567 22 14 20.433 14 18.5C14 18.0953 14.0687 17.7067 14.195 17.3451L8.94515 14.0042C8.31426 14.6203 7.45147 15 6.5 15C4.567 15 3 13.433 3 11.5C3 9.567 4.567 8 6.5 8C7.53629 8 8.46738 8.45037 9.10824 9.16605L14.1248 6.42973C14.0435 6.13367 14 5.82191 14 5.5C14 3.567 15.567 2 17.5 2C19.433 2 21 3.567 21 5.5ZM17.5 20.4C18.5493 20.4 19.4 19.5493 19.4 18.5C19.4 17.4507 18.5493 16.6 17.5 16.6C16.4507 16.6 15.6 17.4507 15.6 18.5C15.6 19.5493 16.4507 20.4 17.5 20.4ZM8.4 11.5C8.4 12.5493 7.54934 13.4 6.5 13.4C5.45066 13.4 4.6 12.5493 4.6 11.5C4.6 10.4507 5.45066 9.6 6.5 9.6C7.54934 9.6 8.4 10.4507 8.4 11.5Z" fill="white" fill-opacity="0.87"/>
</svg>

