<svg width="24" height="24" viewBox="0 0 24 24" fill="none" xmlns="http://www.w3.org/2000/svg">
<path fill-rule="evenodd" clip-rule="evenodd" d="M12 22.0117C16.0127 19.1403 18.3729 16.7311 19.6615 13.4429C20.6383 10.9505 21 8.22959 21 5.11522L12.0003 2L3 5.11522C3 8.22959 3.36166 10.9505 4.33854 13.4429C5.62709 16.7311 7.98728 19.1403 12 22.0117ZM19.173 11.0167C19.5557 9.48236 19.7451 7.82573 19.7896 5.99412L12.0004 3.29789V11.0166H4.82695C4.82695 11.0166 4.73737 11.1612 5.45205 12.9846C6.5596 15.8109 8.54863 17.898 12 20.4992L12.0004 11.0166L19.173 11.0167Z" fill="black" fill-opacity="0.87"/>
</svg>
