<svg width="24" height="24" viewBox="0 0 24 24" fill="none" xmlns="http://www.w3.org/2000/svg">
<path fill-rule="evenodd" clip-rule="evenodd" d="M19.7 5.5C19.7 6.71503 18.715 7.7 17.5 7.7C16.285 7.7 15.3 6.71503 15.3 5.5C15.3 4.28497 16.285 3.3 17.5 3.3C18.715 3.3 19.7 4.28497 19.7 5.5ZM21 5.5C21 7.433 19.433 9 17.5 9C16.4086 9 15.4339 8.50044 14.792 7.71751L9.83128 10.4233C9.94082 10.7625 10 11.1244 10 11.5C10 11.9588 9.91172 12.397 9.75122 12.7985L14.9475 16.1052C15.586 15.4249 16.4934 15 17.5 15C19.433 15 21 16.567 21 18.5C21 20.433 19.433 22 17.5 22C15.567 22 14 20.433 14 18.5C14 18.0412 14.0883 17.603 14.2488 17.2015L9.05249 13.8948C8.41398 14.5751 7.50662 15 6.5 15C4.567 15 3 13.433 3 11.5C3 9.567 4.567 8 6.5 8C7.59141 8 8.56615 8.49956 9.20802 9.28249L14.1687 6.57665C14.0592 6.23747 14 5.87564 14 5.5C14 3.567 15.567 2 17.5 2C19.433 2 21 3.567 21 5.5ZM17.5 20.7C18.715 20.7 19.7 19.715 19.7 18.5C19.7 17.285 18.715 16.3 17.5 16.3C16.285 16.3 15.3 17.285 15.3 18.5C15.3 19.715 16.285 20.7 17.5 20.7ZM8.7 11.5C8.7 12.715 7.71503 13.7 6.5 13.7C5.28497 13.7 4.3 12.715 4.3 11.5C4.3 10.285 5.28497 9.3 6.5 9.3C7.71503 9.3 8.7 10.285 8.7 11.5Z" fill="white" fill-opacity="0.87"/>
</svg>
