<svg width="24" height="24" viewBox="0 0 24 24" fill="none" xmlns="http://www.w3.org/2000/svg">
<path d="M12.0275 6.42236C11.136 6.42236 10.6067 6.56282 9.87806 7.18959C9.14943 7.81636 9.05471 9.10608 9.05469 9.44922C9.37424 9.44922 11.154 9.44922 11.154 9.44922C11.154 8.88373 11.3918 8.30701 12.0275 8.30701C12.8758 8.30701 12.9944 9.3406 12.6721 9.93844C12.5601 10.1417 12.3253 10.4219 11.9539 10.7822C11.5729 11.1513 11.3034 11.5341 11.154 11.9316C10.9509 12.4719 10.935 13.0611 10.935 13.6317H12.8033L12.8363 13.0843C12.8784 12.6811 13.0423 12.33 13.3312 12.0275L13.8297 11.511L13.8306 11.51C14.2266 11.092 14.5119 10.7041 14.6774 10.3481C14.8426 9.98792 14.9252 9.6062 14.9252 9.20448C14.9252 8.33791 14.6755 7.64742 14.158 7.15549C13.6418 6.66033 12.9245 6.42236 12.0275 6.42236Z" fill="white" fill-opacity="0.87"/>
<path d="M11.9043 14.359C11.575 14.359 11.2946 14.472 11.0753 14.7006C10.8603 14.9246 10.7563 15.2096 10.7563 15.5431C10.7563 15.8717 10.858 16.1539 11.068 16.3776L11.0692 16.3788C11.2859 16.6046 11.5692 16.7137 11.9043 16.7137C12.2391 16.7137 12.5209 16.6047 12.7339 16.3782C12.9481 16.1548 13.0524 15.8724 13.0524 15.5431C13.0524 15.2092 12.946 14.9242 12.7272 14.7006C12.5117 14.4716 12.2331 14.359 11.9043 14.359Z" fill="white" fill-opacity="0.87"/>
<path d="M5.57009 13.9592C4.3487 11.5103 3.85573 8.81243 3.80451 5.61301L11.9996 2.84442L20.1955 5.61303C20.1442 8.8124 19.6511 11.5103 18.4295 13.9592C17.1948 16.4344 15.1837 18.7193 11.9996 21.0189C8.8154 18.7193 6.80457 16.4344 5.57009 13.9592Z" stroke="white" stroke-opacity="0.87" stroke-width="1.6"/>
</svg>
