<svg xmlns="http://www.w3.org/2000/svg" width="24" height="24" viewBox="0 0 24 24" fill="none">
  <path fill-rule="evenodd" clip-rule="evenodd" d="M15.5 2.3H5.5C4.83726 2.3 4.3 2.83726 4.3 3.5V3.85H16.7V3.5C16.7 2.83726 16.1627 2.3 15.5 2.3ZM4.3 12.85V5.15H16.7V12.85H4.3ZM16.7 21.7V14.15H4.3V21.7H16.7ZM5.5 1C4.11929 1 3 2.11929 3 3.5V21.7V23H4.3H16.7H18V21.7V17.6501H19.2C20.6636 17.6501 21.85 16.4636 21.85 15.0001V9.79063C22.387 9.54413 22.7599 9.00168 22.7599 8.37213C22.7599 7.51057 22.0615 6.81213 21.1999 6.81213C20.3383 6.81213 19.6399 7.51057 19.6399 8.37213C19.6399 9.00176 20.0129 9.54427 20.55 9.79073V15.0001C20.55 15.7457 19.9456 16.3501 19.2 16.3501H18V3.5C18 2.11929 16.8807 1 15.5 1H5.5ZM7.65 7.5C7.65 7.14102 7.35898 6.85 7 6.85C6.64102 6.85 6.35 7.14102 6.35 7.5V10.5C6.35 10.859 6.64102 11.15 7 11.15C7.35898 11.15 7.65 10.859 7.65 10.5V7.5ZM14 6.85C14.359 6.85 14.65 7.14102 14.65 7.5V10.5C14.65 10.859 14.359 11.15 14 11.15C13.641 11.15 13.35 10.859 13.35 10.5V7.5C13.35 7.14102 13.641 6.85 14 6.85ZM11.15 7.5C11.15 7.14102 10.859 6.85 10.5 6.85C10.141 6.85 9.85 7.14102 9.85 7.5V10.5C9.85 10.859 10.141 11.15 10.5 11.15C10.859 11.15 11.15 10.859 11.15 10.5V7.5Z" fill="black" fill-opacity="0.87"/>
</svg>