<svg width="24" height="24" viewBox="0 0 24 24" fill="none" xmlns="http://www.w3.org/2000/svg">
<path fill-rule="evenodd" clip-rule="evenodd" d="M12 18C14.7614 18 17 15.7614 17 13C17 10.2386 14.7614 8 12 8C9.23858 8 7 10.2386 7 13C7 15.7614 9.23858 18 12 18ZM11 12V10H13V12H15V14H13V16H11V14H9V12H11Z" fill="white" fill-opacity="0.87"/>
<path fill-rule="evenodd" clip-rule="evenodd" d="M10 0.849609C8.2603 0.849609 6.85 2.25991 6.85 3.99961H8.15C8.15 2.97788 8.97827 2.14961 10 2.14961H14C15.0217 2.14961 15.85 2.97788 15.85 3.99961H17.15C17.15 2.25991 15.7397 0.849609 14 0.849609H10ZM4 5.29985H20C20.3866 5.29985 20.7 5.61325 20.7 5.99985V19.9999C20.7 20.3865 20.3866 20.6999 20 20.6999H4C3.6134 20.6999 3.3 20.3865 3.3 19.9999V5.99985C3.3 5.61325 3.6134 5.29985 4 5.29985ZM2 5.99985C2 4.89528 2.89543 3.99985 4 3.99985H20C21.1046 3.99985 22 4.89528 22 5.99985V19.9999C22 21.1044 21.1046 21.9999 20 21.9999H4C2.89543 21.9999 2 21.1044 2 19.9999V5.99985Z" fill="white" fill-opacity="0.87"/>
</svg>

