<svg width="202" height="94" viewBox="0 0 202 94" fill="none" xmlns="http://www.w3.org/2000/svg">
<path fill-rule="evenodd" clip-rule="evenodd" d="M171.339 59.1038C173.061 54.3934 174 49.3064 174 44C174 19.6995 154.301 0 130 0C115.534 0 102.698 6.98131 94.6782 17.7586C88.8847 13.5094 81.7354 11 74 11C54.67 11 39 26.67 39 46C39 48.4002 39.2416 50.744 39.7018 53.0083C39.4686 53.0028 39.2346 53 39 53C22.9837 53 10 65.9837 10 82C10 86.2798 10.9271 90.3431 12.5915 94H193.4C194.435 91.1956 195 88.1638 195 85C195 71.429 184.603 60.2865 171.339 59.1038Z" fill="#B2C8EB" fill-opacity="0.35"/>
<path fill-rule="evenodd" clip-rule="evenodd" d="M57 35C55.8954 35 55 35.8954 55 37V94H157V37C157 35.8954 156.105 35 155 35H57Z" fill="#82A5DB" fill-opacity="0.7"/>
<path d="M60.9044 37C59.3003 37 58 38.5607 58 40.4858L58 43.5141C58 45.5 57 47 55 47V94H157V47L94.7124 47C93.1102 47 91.8111 45.443 91.808 43.521V40.4858C91.808 38.5607 90.5077 37 88.9036 37H60.9044Z" fill="#CEDBF5"/>
<path d="M65 54.5C65 52.0147 67.0147 50 69.5 50H142.5C144.985 50 147 52.0147 147 54.5C147 56.9853 144.985 59 142.5 59H69.5C67.0147 59 65 56.9853 65 54.5Z" fill="#E3ECFB"/>
<path d="M69 54.5C69 53.6716 69.6716 53 70.5 53H103.5C104.328 53 105 53.6716 105 54.5C105 55.3284 104.328 56 103.5 56H70.5C69.6716 56 69 55.3284 69 54.5Z" fill="#82A5DB"/>
<path d="M140 34.9841C140 34.4406 139.552 34 139 34H125C124.448 34 124 34.4406 124 34.9841V84L132 78.0019L140 84L140 34.9841Z" fill="#82A5DB"/>
<path d="M98.0155 40C98.2916 40 98.5155 40.2239 98.5155 40.5V42.2509H100.266C100.543 42.2509 100.766 42.4748 100.766 42.7509C100.766 43.027 100.543 43.2509 100.266 43.2509H98.5155V45.0018C98.5155 45.2779 98.2916 45.5018 98.0155 45.5018C97.7393 45.5018 97.5155 45.2779 97.5155 45.0018V43.2509H95.7647C95.4886 43.2509 95.2647 43.027 95.2647 42.7509C95.2647 42.4748 95.4886 42.2509 95.7647 42.2509H97.5155V40.5C97.5155 40.2239 97.7393 40 98.0155 40Z" fill="#82A5DB"/>
<path d="M84.1464 40.8055C84.3417 40.6102 84.6583 40.6102 84.8536 40.8055L86.0917 42.0436L87.3299 40.8054C87.5252 40.6101 87.8418 40.6101 88.037 40.8054C88.2323 41.0006 88.2323 41.3172 88.037 41.5125L86.7988 42.7507L88.0368 43.9887C88.232 44.184 88.232 44.5006 88.0368 44.6958C87.8415 44.8911 87.5249 44.8911 87.3297 44.6958L86.0917 43.4578L84.8538 44.6957C84.6585 44.891 84.342 44.891 84.1467 44.6957C83.9514 44.5005 83.9514 44.1839 84.1467 43.9886L85.3846 42.7507L84.1464 41.5126C83.9512 41.3173 83.9512 41.0008 84.1464 40.8055Z" fill="#82A5DB"/>
<path d="M195 15L196.453 18.9256C196.731 19.677 197.323 20.2694 198.074 20.5474L202 22L198.074 23.4526C197.323 23.7306 196.731 24.323 196.453 25.0744L195 29L193.547 25.0744C193.269 24.323 192.677 23.7306 191.926 23.4526L188 22L191.926 20.5474C192.677 20.2694 193.269 19.677 193.547 18.9256L195 15Z" fill="#B2C8EB"/>
<path d="M6.27566 42L7.57797 45.5194C7.82722 46.193 8.3583 46.7241 9.0319 46.9734L12.5513 48.2757L9.0319 49.578C8.35831 49.8272 7.82722 50.3583 7.57797 51.0319L6.27566 54.5513L4.97336 51.0319C4.72411 50.3583 4.19302 49.8272 3.51943 49.578L0 48.2757L3.51943 46.9734C4.19302 46.7241 4.7241 46.193 4.97336 45.5194L6.27566 42Z" fill="#B2C8EB"/>
<path d="M25.3416 29.9232L25 29L24.6584 29.9232C24.3609 30.7271 23.7271 31.3609 22.9232 31.6584L22 32L22.9232 32.3416C23.7271 32.6391 24.3609 33.2729 24.6584 34.0768L25 35L25.3416 34.0768C25.6391 33.2729 26.2729 32.6391 27.0768 32.3416L28 32L27.0768 31.6584C26.2729 31.3609 25.6391 30.7271 25.3416 29.9232Z" fill="#B2C8EB"/>
<path d="M89.5638 14.6422C84.8758 12.3109 79.591 11 74 11C54.67 11 39 26.67 39 46C39 48.4002 39.2416 50.744 39.7018 53.0083C39.4686 53.0028 39.2346 53 39 53C22.9837 53 10 65.9837 10 82C10 86.2798 10.9271 90.3431 12.5915 94L57.5 94L89.5638 14.6422Z" fill="white" fill-opacity="0.25"/>
<path d="M107 94H148.5L172.816 33.818C169.308 19.0093 158.315 7.09581 144.054 2.29213L107 94Z" fill="white" fill-opacity="0.25"/>
</svg>
