<svg width="202" height="94" viewBox="0 0 202 94" fill="none" xmlns="http://www.w3.org/2000/svg">
<path d="M171.339 59.1038C173.061 54.3934 174 49.3064 174 44C174 19.6995 154.301 0 130 0C115.534 0 102.698 6.98131 94.6782 17.7586C88.8847 13.5094 81.7354 11 74 11C54.67 11 39 26.67 39 46C39 48.4002 39.2416 50.744 39.7018 53.0083C39.4686 53.0028 39.2346 53 39 53C22.9837 53 10 65.9837 10 82C10 86.2798 10.9271 90.3431 12.5915 94H193.4C194.435 91.1956 195 88.1638 195 85C195 71.429 184.603 60.2865 171.339 59.1038Z" fill="#B2C8EB" fill-opacity="0.35"/>
<path d="M78 35C75.7909 35 74 36.7909 74 39V94H132V52L115 35H78Z" fill="#CBDAF2"/>
<path d="M115 35L132 52H115V35Z" fill="#82A5DB" fill-opacity="0.7"/>
<path d="M88 73C87.4477 73 87 73.4477 87 74C87 74.5523 87.4477 75 88 75H118C118.552 75 119 74.5523 119 74C119 73.4477 118.552 73 118 73H88Z" fill="#82A5DB"/>
<path d="M88 82C87.4477 82 87 82.4477 87 83C87 83.5523 87.4477 84 88 84H108C108.552 84 109 83.5523 109 83C109 82.4477 108.552 82 108 82H88Z" fill="#82A5DB"/>
<path d="M195 15L196.453 18.9256C196.731 19.677 197.323 20.2694 198.074 20.5474L202 22L198.074 23.4526C197.323 23.7306 196.731 24.323 196.453 25.0744L195 29L193.547 25.0744C193.269 24.323 192.677 23.7306 191.926 23.4526L188 22L191.926 20.5474C192.677 20.2694 193.269 19.677 193.547 18.9256L195 15Z" fill="#B2C8EB"/>
<path d="M6.27566 42L7.57797 45.5194C7.82722 46.193 8.3583 46.7241 9.0319 46.9734L12.5513 48.2757L9.0319 49.578C8.35831 49.8272 7.82722 50.3583 7.57797 51.0319L6.27566 54.5513L4.97336 51.0319C4.72411 50.3583 4.19302 49.8272 3.51943 49.578L0 48.2757L3.51943 46.9734C4.19302 46.7241 4.7241 46.193 4.97336 45.5194L6.27566 42Z" fill="#B2C8EB"/>
<path d="M25.3416 29.9232L25 29L24.6584 29.9232C24.3609 30.7271 23.7271 31.3609 22.9232 31.6584L22 32L22.9232 32.3416C23.7271 32.6391 24.3609 33.2729 24.6584 34.0768L25 35L25.3416 34.0768C25.6391 33.2729 26.2729 32.6391 27.0768 32.3416L28 32L27.0768 31.6584C26.2729 31.3609 25.6391 30.7271 25.3416 29.9232Z" fill="#B2C8EB"/>
<path d="M89.5638 14.6422C84.8758 12.3109 79.591 11 74 11C54.67 11 39 26.67 39 46C39 48.4002 39.2416 50.744 39.7018 53.0083C39.4686 53.0028 39.2346 53 39 53C22.9837 53 10 65.9837 10 82C10 86.2798 10.9271 90.3431 12.5915 94H57.5L89.5638 14.6422Z" fill="white" fill-opacity="0.25"/>
<path d="M107 94H148.5L172.816 33.818C169.308 19.0093 158.315 7.09582 144.054 2.29213L107 94Z" fill="white" fill-opacity="0.25"/>
</svg>
