<svg width="202" height="94" viewBox="0 0 202 94" fill="none" xmlns="http://www.w3.org/2000/svg">
<path d="M171.339 59.1038C173.061 54.3934 174 49.3064 174 44C174 19.6995 154.301 0 130 0C115.534 0 102.698 6.98131 94.6782 17.7586C88.8847 13.5094 81.7354 11 74 11C54.67 11 39 26.67 39 46C39 48.4002 39.2416 50.744 39.7018 53.0083C39.4686 53.0028 39.2346 53 39 53C22.9837 53 10 65.9837 10 82C10 86.2798 10.9271 90.3431 12.5915 94H193.4C194.435 91.1956 195 88.1638 195 85C195 71.429 184.603 60.2865 171.339 59.1038Z" fill="#B2C8EB" fill-opacity="0.35"/>
<path d="M195 15L196.453 18.9256C196.731 19.677 197.323 20.2694 198.074 20.5474L202 22L198.074 23.4526C197.323 23.7306 196.731 24.323 196.453 25.0744L195 29L193.547 25.0744C193.269 24.323 192.677 23.7306 191.926 23.4526L188 22L191.926 20.5474C192.677 20.2694 193.269 19.677 193.547 18.9256L195 15Z" fill="#B2C8EB"/>
<path d="M6.27566 42L7.57797 45.5194C7.82722 46.193 8.3583 46.7241 9.0319 46.9734L12.5513 48.2757L9.0319 49.578C8.35831 49.8272 7.82722 50.3583 7.57797 51.0319L6.27566 54.5513L4.97336 51.0319C4.72411 50.3583 4.19302 49.8272 3.51943 49.578L0 48.2757L3.51943 46.9734C4.19302 46.7241 4.7241 46.193 4.97336 45.5194L6.27566 42Z" fill="#B2C8EB"/>
<path d="M25.3416 29.9232L25 29L24.6584 29.9232C24.3609 30.7271 23.7271 31.3609 22.9232 31.6584L22 32L22.9232 32.3416C23.7271 32.6391 24.3609 33.2729 24.6584 34.0768L25 35L25.3416 34.0768C25.6391 33.2729 26.2729 32.6391 27.0768 32.3416L28 32L27.0768 31.6584C26.2729 31.3609 25.6391 30.7271 25.3416 29.9232Z" fill="#B2C8EB"/>
<path d="M102.072 28.0955C102.342 27.9682 102.654 27.9682 102.924 28.0955L142.425 46.7278C142.804 46.9063 143.031 47.3075 142.992 47.7243C141.101 67.7683 132.608 83.0271 122.629 94H82.3671C72.388 83.0271 63.8948 67.7683 62.0044 47.7243C61.9651 47.3075 62.1925 46.9063 62.571 46.7278L102.072 28.0955Z" fill="#CBDAF2"/>
<path fill-rule="evenodd" clip-rule="evenodd" d="M94.7966 59.1424C94.7966 54.8884 98.2452 51.4398 102.499 51.4398C106.753 51.4398 110.202 54.8884 110.202 59.1424V62.9926H113.086C113.638 62.9926 114.086 63.4403 114.086 63.9926V79C114.086 79.5523 113.638 80 113.086 80H91.9106C91.3584 80 90.9106 79.5523 90.9106 79L90.9106 63.9926C90.9106 63.4403 91.3584 62.9926 91.9106 62.9926H94.7966V59.1424ZM108.702 59.1424V62.9926H96.2966V59.1424C96.2966 55.7168 99.0736 52.9398 102.499 52.9398C105.925 52.9398 108.702 55.7168 108.702 59.1424ZM104.816 69.5713C104.816 70.5886 104.161 71.4528 103.249 71.7646V74.7857C103.249 75.1999 102.914 75.5357 102.499 75.5357C102.085 75.5357 101.749 75.1999 101.749 74.7857V71.765C100.837 71.4534 100.181 70.589 100.181 69.5713C100.181 68.2914 101.219 67.2538 102.499 67.2538C103.779 67.2538 104.816 68.2914 104.816 69.5713Z" fill="#82A5DB"/>
<path d="M89.5638 14.6422C84.8758 12.3109 79.591 11 74 11C54.67 11 39 26.67 39 46C39 48.4002 39.2416 50.744 39.7018 53.0083C39.4686 53.0028 39.2346 53 39 53C22.9837 53 10 65.9837 10 82C10 86.2798 10.9271 90.3431 12.5915 94L57.5 94L89.5638 14.6422Z" fill="white" fill-opacity="0.25"/>
<path d="M107 94H148.5L172.816 33.818C169.308 19.0093 158.315 7.0958 144.054 2.29211L107 94Z" fill="white" fill-opacity="0.25"/>
</svg>
