<svg width="202" height="79" viewBox="0 0 202 79" fill="none" xmlns="http://www.w3.org/2000/svg">
<path d="M195 0L196.453 3.92564C196.731 4.67698 197.323 5.26936 198.074 5.54738L202 7L198.074 8.45262C197.323 8.73064 196.731 9.32302 196.453 10.0744L195 14L193.547 10.0744C193.269 9.32302 192.677 8.73064 191.926 8.45262L188 7L191.926 5.54738C192.677 5.26936 193.269 4.67698 193.547 3.92564L195 0Z" fill="#B2C8EB"/>
<path d="M6.27566 27L7.57797 30.5194C7.82722 31.193 8.3583 31.7241 9.0319 31.9734L12.5513 33.2757L9.0319 34.578C8.35831 34.8272 7.82722 35.3583 7.57797 36.0319L6.27566 39.5513L4.97336 36.0319C4.72411 35.3583 4.19302 34.8272 3.51943 34.578L0 33.2757L3.51943 31.9734C4.19302 31.7241 4.7241 31.193 4.97336 30.5194L6.27566 27Z" fill="#B2C8EB"/>
<path d="M25.3416 14.9232L25 14L24.6584 14.9232C24.3609 15.7271 23.7271 16.3609 22.9232 16.6584L22 17L22.9232 17.3416C23.7271 17.6391 24.3609 18.2729 24.6584 19.0768L25 20L25.3416 19.0768C25.6391 18.2729 26.2729 17.6391 27.0768 17.3416L28 17L27.0768 16.6584C26.2729 16.3609 25.6391 15.7271 25.3416 14.9232Z" fill="#B2C8EB"/>
<path d="M50 24C50 21.7909 51.7909 20 54 20H73.2769C74.3439 20 75.3306 20.5667 75.8682 21.4884L78.5 26H145C147.209 26 149 27.7909 149 30V79H50V24Z" fill="#B2C8EB" fill-opacity="0.35"/>
<path d="M50 40C50 37.7909 51.7909 36 54 36H145C147.209 36 149 37.7909 149 40V79H50V40Z" fill="#B2C8EB" fill-opacity="0.5"/>
<path d="M140 26L118.557 79H77L98.4434 26H140Z" fill="white" fill-opacity="0.3"/>
</svg>
