<svg width="202" height="94" viewBox="0 0 202 94" fill="none" xmlns="http://www.w3.org/2000/svg">
<path fill-rule="evenodd" clip-rule="evenodd" d="M171.339 59.1038C173.061 54.3934 174 49.3064 174 44C174 19.6995 154.301 0 130 0C115.534 0 102.698 6.98131 94.6782 17.7586C88.8847 13.5094 81.7354 11 74 11C54.67 11 39 26.67 39 46C39 48.4002 39.2416 50.744 39.7018 53.0083C39.4686 53.0028 39.2346 53 39 53C22.9837 53 10 65.9837 10 82C10 86.2798 10.9271 90.3431 12.5915 94H193.4C194.435 91.1956 195 88.1638 195 85C195 71.429 184.603 60.2865 171.339 59.1038Z" fill="#B2C8EB" fill-opacity="0.35"/>
<path d="M195 15L196.453 18.9256C196.731 19.677 197.323 20.2694 198.074 20.5474L202 22L198.074 23.4526C197.323 23.7306 196.731 24.323 196.453 25.0744L195 29L193.547 25.0744C193.269 24.323 192.677 23.7306 191.926 23.4526L188 22L191.926 20.5474C192.677 20.2694 193.269 19.677 193.547 18.9256L195 15Z" fill="#B2C8EB"/>
<path d="M6.27566 42L7.57797 45.5194C7.82722 46.193 8.3583 46.7241 9.0319 46.9734L12.5513 48.2757L9.0319 49.578C8.35831 49.8272 7.82722 50.3583 7.57797 51.0319L6.27566 54.5513L4.97336 51.0319C4.72411 50.3583 4.19302 49.8272 3.51943 49.578L0 48.2757L3.51943 46.9734C4.19302 46.7241 4.7241 46.193 4.97336 45.5194L6.27566 42Z" fill="#B2C8EB"/>
<path d="M25.3416 29.9232L25 29L24.6584 29.9232C24.3609 30.7271 23.7271 31.3609 22.9232 31.6584L22 32L22.9232 32.3416C23.7271 32.6391 24.3609 33.2729 24.6584 34.0768L25 35L25.3416 34.0768C25.6391 33.2729 26.2729 32.6391 27.0768 32.3416L28 32L27.0768 31.6584C26.2729 31.3609 25.6391 30.7271 25.3416 29.9232Z" fill="#B2C8EB"/>
<path fill-rule="evenodd" clip-rule="evenodd" d="M89.5638 14.6422C84.8758 12.3109 79.591 11 74 11C54.67 11 39 26.67 39 46C39 48.4002 39.2416 50.744 39.7018 53.0083C39.4686 53.0028 39.2346 53 39 53C22.9837 53 10 65.9837 10 82C10 86.2798 10.9271 90.3431 12.5915 94H57.5L89.5638 14.6422ZM107 94H148.5L172.816 33.818C169.308 19.0093 158.315 7.0958 144.054 2.29211L107 94Z" fill="white" fill-opacity="0.25"/>
<path fill-rule="evenodd" clip-rule="evenodd" d="M52 42C52 40.8954 52.8954 40 54 40H152C153.105 40 154 40.8954 154 42V94H52V42ZM93 45.5C93 44.1193 94.1193 43 95.5 43H110.5C111.881 43 113 44.1193 113 45.5C113 46.8807 111.881 48 110.5 48H95.5C94.1193 48 93 46.8807 93 45.5Z" fill="#82A5DB" fill-opacity="0.7"/>
<path fill-rule="evenodd" clip-rule="evenodd" d="M151 54H55V94H151V54Z" fill="#E3ECFB"/>
<path d="M95 32C95 31.4477 95.4477 31 96 31H110C110.552 31 111 31.4477 111 32V44C111 44.5523 110.552 45 110 45H96C95.4477 45 95 44.5523 95 44V32Z" fill="#CBDAF2"/>
<path fill-rule="evenodd" clip-rule="evenodd" d="M74.0404 85.365C73.0095 85.6411 68.3361 86.9239 66.405 87.9909C64.3381 89.3552 65.0532 93.9993 65.0532 93.9993H93.9468C93.9468 93.9993 94.6619 89.3552 92.5949 87.9909C90.7685 86.9585 86.002 85.6457 84.9595 85.3652C84.6287 86.8496 82.3106 87.9995 79.5 87.9995C76.6893 87.9995 74.371 86.8494 74.0404 85.365Z" fill="#B2C8EB"/>
<path d="M78.9999 63.9996V68.3569C77.4457 70.194 75.3681 71.2386 73.6945 71.8144L73.6936 72.1346C73.6878 74.1058 73.6832 75.6918 74.1244 77.1429C74.5344 78.1088 75.1139 78.923 75.7628 79.5779C77.0446 80.8715 78.5492 81.4995 79.5002 81.4995C80.452 81.4995 81.9566 80.8748 83.2378 79.5836C83.8821 78.9344 84.458 78.1276 84.8675 77.1695C85.3169 75.7112 85.3122 74.1179 85.3064 72.1346L85.3056 71.8144C83.632 71.2386 81.5543 70.194 80.0002 68.3569V63.9996C83.8403 60.5556 92.4606 71.0715 90.7433 87.1714C88.5874 86.3582 85.7374 85.5745 84.9598 85.3653L84.9592 85.3679C84.9103 85.3482 84.8649 85.3303 84.8233 85.3144C83.5901 84.8431 83.4558 84.2932 83.3763 83.3144V80.815C82.0889 81.9011 80.6247 82.4995 79.5002 82.4995C78.375 82.4995 76.9107 81.8976 75.6237 80.8096V83.3144C75.5442 84.2932 75.41 84.8431 74.1768 85.3144C74.1353 85.3303 74.09 85.3481 74.0413 85.3677L74.0407 85.365C73.2662 85.5725 70.4358 86.3481 68.257 87.1735C66.5386 71.0724 75.1596 60.5555 78.9999 63.9996Z" fill="#82A5DB"/>
<path d="M106 83C106 83.5523 106.448 84 107 84H137C137.553 84 138 83.5523 138 83C138 82.4477 137.553 82 137 82H107C106.448 82 106 82.4477 106 83Z" fill="#82A5DB"/>
<path d="M107 75C106.448 75 106 74.5523 106 74C106 73.4477 106.448 73 107 73H127C127.553 73 128 73.4477 128 74C128 74.5523 127.553 75 127 75H107Z" fill="#82A5DB"/>
</svg>
