<svg width="246" height="179" viewBox="0 0 246 179" fill="none" xmlns="http://www.w3.org/2000/svg">
<g clip-path="url(#clip0)">
<path fill-rule="evenodd" clip-rule="evenodd" d="M15.2985 109.707C6.21305 97.1018 0.920654 83.7215 0.920654 71.0167C0.920654 27.0334 46.7047 0 107 0C127.277 0 149.636 1.56092 170.384 5.80895C176.027 2.13481 182.764 0 190 0C207.365 0 221.859 12.2952 225.25 28.655C238.043 39.021 246 52.8243 246 71.0167C246 89.4744 240.552 106.021 231 119.968C230.498 120.701 229.984 121.456 229.457 122.229C222.223 132.848 212.596 146.979 198.234 158H201C202.105 158 203 158.895 203 160V164C203 165.105 202.105 166 201 166H189V169C189 172.866 185.866 176 182 176C178.681 176 175.901 173.69 175.181 170.59C166.664 173.586 157.005 175.372 146 175.372H86.496C85.4078 175.778 84.2298 176 83 176H19C13.4772 176 9 171.523 9 166V119C9 114.785 11.608 111.179 15.2985 109.707Z" fill="#AFB3B6" fill-opacity="0.2"/>
<path fill-rule="evenodd" clip-rule="evenodd" d="M195 69.6349C211.407 67.2169 224 53.079 224 36C224 17.2223 208.778 2 190 2C171.222 2 156 17.2223 156 36C156 39.4802 156.523 42.8383 157.494 46H155.407C154.491 42.8251 154 39.4699 154 36C154 16.1177 170.118 0 190 0C209.882 0 226 16.1177 226 36C226 54.1856 212.516 69.2218 195 71.6556V69.6349ZM176.619 35.3142L173.394 34.0922C173.876 27.4771 178.138 21.8733 184.044 19.4647C184.18 19.4062 184.323 19.3662 184.47 19.346C184.549 19.3345 184.628 19.3289 184.708 19.3291V19.3289C185.469 19.3246 186.189 19.9194 186.326 20.6648C186.463 21.4102 186 22.2203 185.287 22.4844C180.256 24.536 176.682 29.437 176.619 35.1914V35.3142ZM182.74 37.6333L179.555 36.4263C179.57 36.1241 179.58 35.8199 179.582 35.5139C179.577 35.4575 179.577 35.4008 179.582 35.3443C179.577 35.2878 179.577 35.2311 179.582 35.1746C179.674 29.2324 184.581 24.4016 190.567 24.4016C194.426 24.4016 197.843 26.3907 199.797 29.4064C200.268 30.126 200.038 31.2086 199.314 31.6759C198.591 32.1433 197.505 31.9104 197.038 31.1877C195.666 29.0695 193.297 27.659 190.567 27.659C186.343 27.659 182.935 31.0044 182.852 35.1916V35.3443V35.4631C182.848 36.1945 182.811 36.9184 182.74 37.6333ZM188.73 39.9024L185.8 38.7926C186.091 38.4224 186.535 38.168 187.007 38.1435V38.1438C187.937 38.0903 188.788 38.9881 188.73 39.9024ZM194.665 42.1511L191.558 40.9738C191.87 39.2001 192.039 37.3763 192.048 35.5139C192.043 35.4575 192.043 35.4008 192.048 35.3443C192.048 34.5112 191.403 33.8683 190.567 33.8683C189.73 33.8683 189.085 34.5112 189.085 35.3443C189.096 36.2042 188.313 36.9946 187.45 36.9946C186.587 36.9946 185.804 36.2042 185.815 35.3443C185.815 32.7508 187.963 30.611 190.567 30.611V30.6105C193.106 30.6105 195.216 32.6501 195.318 35.1572C195.318 35.1631 195.318 35.169 195.318 35.1749C195.318 35.1804 195.318 35.186 195.318 35.1916V35.3443V35.4631C195.31 37.7491 195.086 39.9846 194.665 42.1511ZM195 57.7974C199.14 51.3035 201.534 43.602 201.534 35.3443C201.552 34.4746 200.755 33.6726 199.882 33.6817C199.02 33.6904 198.246 34.4859 198.264 35.3443C198.264 40.8801 197.099 46.1305 195 50.8827V57.7974ZM170.534 33.0089L167.394 31.8192C167.557 30.7344 167.795 29.6735 168.104 28.6429C168.292 27.9783 168.944 27.4729 169.637 27.4555V27.4554C170.674 27.4287 171.551 28.5908 171.238 29.576C170.905 30.6826 170.669 31.8297 170.534 33.0089ZM167 36.7778V41.3217C166.947 41.3012 166.894 41.2774 166.843 41.2504C166.051 40.8302 165.75 39.6959 166.231 38.9409C166.589 38.2704 166.853 37.5459 167 36.7778ZM190.567 12C182.297 12 174.996 16.2779 170.829 22.7391C170.359 23.4586 170.592 24.5404 171.317 25.0042C172.042 25.468 173.127 25.2288 173.588 24.5034C177.174 18.9429 183.428 15.2574 190.567 15.2574C195.593 15.2574 200.167 17.0697 203.697 20.0924C204.33 20.7278 205.509 20.6867 206.096 20.0087C206.682 19.3308 206.549 18.1625 205.825 17.6326C201.726 14.1224 196.389 12 190.567 12ZM190.567 18.1923C189.703 18.1798 188.907 18.9601 188.907 19.821C188.907 20.6818 189.703 21.4623 190.567 21.4496C198.282 21.4496 204.497 27.658 204.497 35.3443C204.492 35.4008 204.492 35.4575 204.497 35.5139C204.483 39.2652 204 42.8938 203.118 46.3717C202.912 47.2009 203.48 48.1417 204.312 48.3499C205.143 48.5581 206.09 47.9964 206.302 47.169C207.254 43.4174 207.757 39.503 207.767 35.4631V35.3443L207.767 35.2749C207.767 35.2474 207.767 35.2199 207.767 35.1916V35.1747C207.673 25.8073 199.991 18.1924 190.567 18.1924V18.1923ZM208.806 21.806C208.213 21.8005 207.631 22.1474 207.353 22.6683C207.074 23.1891 207.11 23.8627 207.443 24.3508C209.501 27.4818 210.71 31.2188 210.73 35.2425C210.73 35.2774 210.73 35.3096 210.73 35.3443C210.725 35.4008 210.725 35.4575 210.73 35.5139C210.719 38.9314 210.361 42.2637 209.708 45.4895C209.535 46.3304 210.148 47.2522 210.993 47.4214C211.838 47.5906 212.76 46.9764 212.927 46.1342C213.624 42.6875 213.991 39.1262 214 35.48V35.4631V35.3443L214 35.2929C214 35.2592 214 35.226 214 35.1916V35.1747C213.966 30.5331 212.567 26.1937 210.185 22.5695C209.893 22.1062 209.355 21.808 208.806 21.806V21.806ZM203.22 49.6291C202.587 49.6727 201.999 50.1182 201.789 50.7148C201.227 52.2525 200.586 53.7565 199.865 55.2106C199.444 55.9786 199.788 57.0644 200.575 57.4522C201.363 57.84 202.438 57.4527 202.794 56.6527C203.568 55.0927 204.251 53.4847 204.855 51.8345C205.049 51.3271 204.966 50.7236 204.642 50.2868C204.318 49.8499 203.764 49.5935 203.22 49.6291Z" fill="#AFB3B6"/>
<mask id="path-3-outside-1" maskUnits="userSpaceOnUse" x="49" y="12" width="148" height="167" fill="black">
<rect fill="white" x="49" y="12" width="148" height="167"/>
<path fill-rule="evenodd" clip-rule="evenodd" d="M83 109H51V42.278L79 31.6699V46H101V23.335L123 15L145 23.335V46H167V31.6699L195 42.278V82.0307C194.669 82.0103 194.336 82 194 82H189C189 78.134 185.866 75 182 75C178.134 75 175 78.134 175 82H170C161.163 82 154 89.1634 154 98V104C154 112.837 161.163 120 170 120H175V146.75L123 176L93 159.125V119C93 113.477 88.5228 109 83 109ZM189 138.875L195 135.5V119.969C194.669 119.99 194.336 120 194 120H189V138.875ZM195 92.083V109.917C194.675 109.972 194.341 110 194 110H170C166.686 110 164 107.314 164 104V98C164 94.6863 166.686 92 170 92H194C194.341 92 194.675 92.0284 195 92.083Z"/>
</mask>
<path fill-rule="evenodd" clip-rule="evenodd" d="M83 109H51V42.278L79 31.6699V46H101V23.335L123 15L145 23.335V46H167V31.6699L195 42.278V82.0307C194.669 82.0103 194.336 82 194 82H189C189 78.134 185.866 75 182 75C178.134 75 175 78.134 175 82H170C161.163 82 154 89.1634 154 98V104C154 112.837 161.163 120 170 120H175V146.75L123 176L93 159.125V119C93 113.477 88.5228 109 83 109ZM189 138.875L195 135.5V119.969C194.669 119.99 194.336 120 194 120H189V138.875ZM195 92.083V109.917C194.675 109.972 194.341 110 194 110H170C166.686 110 164 107.314 164 104V98C164 94.6863 166.686 92 170 92H194C194.341 92 194.675 92.0284 195 92.083Z" fill="#5BB254" fill-opacity="0.3"/>
<path d="M51 109H49V111H51V109ZM51 42.278L50.2914 40.4077L49 40.897V42.278H51ZM79 31.6699H81V28.7735L78.2914 29.7996L79 31.6699ZM79 46H77V48H79V46ZM101 46V48H103V46H101ZM101 23.335L100.291 21.4647L99 21.9539V23.335H101ZM123 15L123.709 13.1297L123 12.8613L122.291 13.1297L123 15ZM145 23.335H147V21.9539L145.709 21.4647L145 23.335ZM145 46H143V48H145V46ZM167 46V48H169V46H167ZM167 31.6699L167.709 29.7996L165 28.7735V31.6699H167ZM195 42.278H197V40.897L195.709 40.4077L195 42.278ZM195 82.0307L194.877 84.0269L197 84.1579V82.0307H195ZM189 82H187V84H189V82ZM175 82V84H177V82H175ZM175 120H177V118H175V120ZM175 146.75L175.981 148.493L177 147.92V146.75H175ZM123 176L122.019 177.743L123 178.295L123.981 177.743L123 176ZM93 159.125H91V160.295L92.0195 160.868L93 159.125ZM189 138.875H187V142.295L189.981 140.618L189 138.875ZM195 135.5L195.981 137.243L197 136.67V135.5H195ZM195 119.969H197V117.842L194.877 117.973L195 119.969ZM189 120V118H187V120H189ZM195 109.917L195.331 111.889L197 111.609V109.917H195ZM195 92.083H197V90.3905L195.331 90.1105L195 92.083ZM51 111H83V107H51V111ZM49 42.278V109H53V42.278H49ZM78.2914 29.7996L50.2914 40.4077L51.7086 44.1483L79.7086 33.5402L78.2914 29.7996ZM81 46V31.6699H77V46H81ZM101 44H79V48H101V44ZM99 23.335V46H103V23.335H99ZM122.291 13.1297L100.291 21.4647L101.709 25.2052L123.709 16.8703L122.291 13.1297ZM145.709 21.4647L123.709 13.1297L122.291 16.8703L144.291 25.2052L145.709 21.4647ZM147 46V23.335H143V46H147ZM167 44H145V48H167V44ZM165 31.6699V46H169V31.6699H165ZM195.709 40.4077L167.709 29.7996L166.291 33.5402L194.291 44.1483L195.709 40.4077ZM197 82.0307V42.278H193V82.0307H197ZM195.123 80.0345C194.751 80.0116 194.377 80 194 80V84C194.295 84 194.587 84.0091 194.877 84.0269L195.123 80.0345ZM194 80H189V84H194V80ZM191 82C191 77.0294 186.971 73 182 73V77C184.761 77 187 79.2386 187 82H191ZM182 73C177.029 73 173 77.0294 173 82H177C177 79.2386 179.239 77 182 77V73ZM175 80H170V84H175V80ZM170 80C160.059 80 152 88.0589 152 98H156C156 90.268 162.268 84 170 84V80ZM152 98V104H156V98H152ZM152 104C152 113.941 160.059 122 170 122V118C162.268 118 156 111.732 156 104H152ZM170 122H175V118H170V122ZM173 120V146.75H177V120H173ZM123.981 177.743L175.981 148.493L174.019 145.007L122.019 174.257L123.981 177.743ZM92.0195 160.868L122.019 177.743L123.981 174.257L93.9805 157.382L92.0195 160.868ZM91 119V159.125H95V119H91ZM83 111C87.4183 111 91 114.582 91 119H95C95 112.373 89.6274 107 83 107V111ZM189.981 140.618L195.981 137.243L194.019 133.757L188.019 137.132L189.981 140.618ZM197 135.5V119.969H193V135.5H197ZM194 122C194.377 122 194.751 121.988 195.123 121.965L194.877 117.973C194.587 117.991 194.295 118 194 118V122ZM189 122H194V118H189V122ZM191 138.875V120H187V138.875H191ZM197 109.917V92.083H193V109.917H197ZM194.669 107.945C194.453 107.981 194.229 108 194 108V112C194.452 112 194.897 111.962 195.331 111.889L194.669 107.945ZM194 108H170V112H194V108ZM170 108C167.791 108 166 106.209 166 104H162C162 108.418 165.582 112 170 112V108ZM166 104V98H162V104H166ZM166 98C166 95.7909 167.791 94 170 94V90C165.582 90 162 93.5817 162 98H166ZM170 94H194V90H170V94ZM194 94C194.229 94 194.453 94.0191 194.669 94.0554L195.331 90.1105C194.897 90.0377 194.452 90 194 90V94Z" fill="#5BB254" mask="url(#path-3-outside-1)"/>
<path fill-rule="evenodd" clip-rule="evenodd" d="M101 23.335L123 15V176L93 159.125V119C93 113.477 88.5228 109 83 109H51V42.278L79 31.6699V46H101V23.335Z" fill="#5BB254"/>
<path d="M128 121.155V110.212C131.336 109.03 134.148 106.703 135.938 103.644C137.729 100.585 138.382 96.9896 137.784 93.4934C137.186 89.9977 135.374 86.8265 132.668 84.5402C129.963 82.254 126.539 81 123 81C119.462 81 116.037 82.254 113.332 84.5402C110.626 86.8265 108.814 89.9977 108.216 93.4934C107.618 96.9896 108.271 100.585 110.062 103.644C111.852 106.703 114.664 109.03 118 110.212V121.155H128Z" fill="#479540"/>
<path fill-rule="evenodd" clip-rule="evenodd" d="M83 111H19C14.5817 111 11 114.582 11 119V166C11 170.418 14.5817 174 19 174H83C87.4183 174 91 170.418 91 166V119C91 114.582 87.4183 111 83 111ZM19 109C13.4772 109 9 113.477 9 119V166C9 171.523 13.4772 176 19 176H83C88.5229 176 93 171.523 93 166V119C93 113.477 88.5228 109 83 109H19Z" fill="#AFB3B6"/>
<path fill-rule="evenodd" clip-rule="evenodd" d="M77 109V98C77 83.6406 65.3594 72 51 72C36.6406 72 25 83.6406 25 98V109H35V98C35 89.1634 42.1634 82 51 82C59.8366 82 67 89.1634 67 98V109H77Z" fill="#AFB3B6"/>
<path d="M35 137.5L47 149.5L67.5 129" stroke="#AFB3B6" stroke-width="10"/>
<path fill-rule="evenodd" clip-rule="evenodd" d="M187 84V82C187 79.2386 184.761 77 182 77C179.239 77 177 79.2386 177 82V84H170C162.268 84 156 90.268 156 98V104C156 111.732 162.268 118 170 118H177V169C177 171.761 179.239 174 182 174C184.761 174 187 171.761 187 169V164H201V160H191V150H197V144H187V118H194C201.732 118 208 111.732 208 104V98C208 90.268 201.732 84 194 84H187ZM189 82C189 78.134 185.866 75 182 75C178.134 75 175 78.134 175 82H170C161.163 82 154 89.1634 154 98V104C154 112.837 161.163 120 170 120H175V169C175 172.866 178.134 176 182 176C185.866 176 189 172.866 189 169V166H201C202.105 166 203 165.105 203 164V160C203 158.895 202.105 158 201 158H193V152H197C198.105 152 199 151.105 199 150V144C199 142.895 198.105 142 197 142H189V120H194C202.837 120 210 112.837 210 104V98C210 89.1634 202.837 82 194 82H189ZM162 98C162 93.5817 165.582 90 170 90H194C198.418 90 202 93.5817 202 98V104C202 108.418 198.418 112 194 112H170C165.582 112 162 108.418 162 104V98ZM170 92C166.686 92 164 94.6863 164 98V104C164 107.314 166.686 110 170 110H194C197.314 110 200 107.314 200 104V98C200 94.6863 197.314 92 194 92H170Z" fill="#AFB3B6"/>
</g>
<defs>
<clipPath id="clip0">
<rect width="246" height="179" fill="white"/>
</clipPath>
</defs>
</svg>
