<svg width="246" height="169" viewBox="0 0 246 169" fill="none" xmlns="http://www.w3.org/2000/svg">
<path d="M59.0002 72.5C59.0002 68.0817 62.5819 64.5 67.0002 64.5H179C183.418 64.5 187 68.0817 187 72.5V80.5C187 84.9183 183.418 88.5 179 88.5H67.0002C62.5819 88.5 59.0002 84.9183 59.0002 80.5V72.5Z" fill="#AFB3B6" fill-opacity="0.2"/>
<path fill-rule="evenodd" clip-rule="evenodd" d="M230.623 110.316C239.757 97.6786 245.079 84.2579 245.079 71.5167C245.079 27.5334 199.295 0.5 139 0.5C78.7045 0.500004 9.44143e-05 14.3019 -9.15522e-05 71.5167C-0.000170707 95.8391 9.46037 116.842 25.3046 132.953L9.00015 161.287L21.4515 168.5L25.9445 160.692L35.283 166.102L42.4717 153.609L33.1332 148.199L36.3421 142.623C38.4857 144.244 40.7067 145.794 43.0002 147.27V135.737C50.9374 136.26 58.8611 132.34 63.1072 124.961C63.9763 123.45 64.6433 121.879 65.1166 120.277C65.7206 120.423 66.3514 120.5 67.0002 120.5H156V160C156 162.122 156.845 164.157 158.349 165.657C159.853 167.157 161.893 168 164.021 168H224.979C227.106 168 229.146 167.157 230.651 165.657C232.155 164.157 233 162.122 233 160V116C233 113.878 232.155 111.843 230.651 110.343C230.642 110.334 230.632 110.325 230.623 110.316ZM43.0002 121.212C45.9457 121.812 49.0702 120.504 50.6559 117.748C52.641 114.298 51.4629 109.887 48.0246 107.895C46.4432 106.979 44.6591 106.735 43.0002 107.073V121.212ZM43.0002 92.549C47.1215 92.2704 51.3673 93.1746 55.2134 95.4026C57.2701 96.594 59.0573 98.074 60.5534 99.7621C62.0098 97.7837 64.355 96.5 67.0002 96.5H179C183.418 96.5 187 100.082 187 104.5V108H203V32.5H43.0002V92.549Z" fill="#AFB3B6" fill-opacity="0.2"/>
<mask id="path-2-inside-1" fill="white">
<path fill-rule="evenodd" clip-rule="evenodd" d="M39.8333 122.119C35.4385 119.573 33.9377 113.94 36.4711 109.538C39.0067 105.131 44.6283 103.617 49.0271 106.165C53.422 108.711 54.9227 114.343 52.3894 118.746C49.8538 123.152 44.2321 124.667 39.8333 122.119ZM43.0002 107.073V121.212C42.2582 121.061 41.5276 120.789 40.8358 120.388C37.3975 118.396 36.2194 113.985 38.2046 110.535C39.2767 108.672 41.0521 107.471 43.0002 107.073ZM45.0002 121.332V106.95C46.0341 107.032 47.0666 107.34 48.0246 107.895C51.4629 109.887 52.641 114.298 50.6559 117.748C49.4277 119.882 47.2764 121.149 45.0002 121.332Z"/>
<path d="M197.432 144.712V151.321H191.368V144.712C189.346 143.998 187.641 142.593 186.555 140.745C185.47 138.897 185.074 136.726 185.436 134.614C185.799 132.503 186.898 130.587 188.538 129.207C190.178 127.826 192.255 127.068 194.4 127.068C196.545 127.068 198.622 127.826 200.262 129.207C201.902 130.587 203.001 132.503 203.364 134.614C203.727 136.726 203.33 138.897 202.245 140.745C201.159 142.593 199.454 143.998 197.432 144.712Z"/>
<path fill-rule="evenodd" clip-rule="evenodd" d="M203 32.5C203 28.0817 199.418 24.5 195 24.5H51.0002C46.5819 24.5 43.0002 28.0817 43.0002 32.5V92.549C36.0682 93.0175 29.4881 96.8322 25.7532 103.323C21.0582 111.482 22.2612 121.434 28.035 128.208L9.00015 161.287L21.4505 168.499L21.4517 168.5L25.9445 160.692L35.283 166.102L42.4716 153.609L33.1332 148.199L40.4863 135.421C41.3215 135.577 42.1609 135.682 43.0002 135.737V160.5C43.0002 164.918 46.5819 168.5 51.0002 168.5H195C195.981 168.5 196.922 168.323 197.79 168H224.979C227.106 168 229.146 167.157 230.651 165.657C232.155 164.157 233 162.122 233 160V116C233 113.878 232.155 111.843 230.651 110.343C229.146 108.843 227.106 108 224.979 108H222V99.264C222 92.2984 219.103 85.618 213.945 80.6926C210.848 77.7349 207.089 75.5554 203 74.2861V32.5ZM201 73.7442V48.5H45.0002V92.507C48.4796 92.5962 51.9871 93.5337 55.2134 95.4026C57.2701 96.594 59.0573 98.074 60.5534 99.7621C62.0098 97.7837 64.355 96.5 67.0002 96.5H167.153C167.46 93.7221 168.229 91.0229 169.416 88.5H67.0002C62.5819 88.5 59.0002 84.9183 59.0002 80.5V72.5C59.0002 68.0817 62.5819 64.5 67.0002 64.5H179C183.418 64.5 187 68.0817 187 72.5V73.9955C189.419 73.3406 191.941 73 194.5 73C196.708 73 198.889 73.2537 201 73.7442ZM187 78.1301C189.392 77.3633 191.922 76.9604 194.5 76.9604C196.721 76.9604 198.907 77.2596 201 77.8331V108H187V104.5C187 100.082 183.418 96.5 179 96.5H171.212C171.582 93.6868 172.513 90.972 173.946 88.5H179C183.418 88.5 187 84.9183 187 80.5V78.1301ZM185 74.6168V72.5C185 69.1863 182.314 66.5 179 66.5H67.0002C63.6864 66.5 61.0002 69.1863 61.0002 72.5V80.5C61.0002 83.8137 63.6864 86.5 67.0002 86.5H170.466C171.695 84.3886 173.234 82.4312 175.054 80.6926C177.897 77.9775 181.298 75.9183 185 74.6168ZM175.255 86.5C176.027 85.4485 176.899 84.4547 177.865 83.5322C179.936 81.5542 182.36 79.9806 185 78.8697V80.5C185 83.8137 182.314 86.5 179 86.5H175.255ZM167.012 98.5H67.0002C64.8226 98.5 62.916 99.66 61.8645 101.396C65.3808 106.243 66.7614 112.404 65.5938 118.334C66.0449 118.443 66.5158 118.5 67.0002 118.5H156V116C156 113.878 156.845 111.843 158.349 110.343C159.853 108.843 161.893 108 164.021 108H167V99.264C167 99.0089 167.004 98.7542 167.012 98.5ZM156 120.5H67.0002C66.3514 120.5 65.7206 120.423 65.1166 120.277C64.6433 121.879 63.9763 123.45 63.1072 124.961C59.2182 131.719 52.2441 135.576 45.0002 135.775V160.5C45.0002 163.814 47.6864 166.5 51.0002 166.5H159.345C158.993 166.248 158.66 165.966 158.349 165.657C156.845 164.157 156 162.122 156 160V152.5H133C128.582 152.5 125 148.918 125 144.5V136.5C125 132.082 128.582 128.5 133 128.5H156V120.5ZM156 130.5H133C129.686 130.5 127 133.186 127 136.5V144.5C127 147.814 129.686 150.5 133 150.5H156V130.5ZM171.045 98.5H179C182.314 98.5 185 101.186 185 104.5V108H171.032V99.264C171.032 99.0089 171.036 98.7542 171.045 98.5ZM203 108V78.4751C206.028 79.5936 208.805 81.307 211.135 83.5322C215.524 87.7241 217.968 93.3853 217.968 99.264V108H203ZM30.4716 127.984L11.7283 160.556L20.7184 165.764L25.2114 157.956L34.5499 163.366L39.7436 154.34L30.4051 148.93L39.4598 133.195L40.8531 133.455C48.7763 134.933 57.114 131.366 61.3737 123.963C66.7809 114.567 63.5694 102.554 54.2109 97.1332C44.8563 91.7143 32.8916 94.9274 27.4867 104.32C23.226 111.724 24.315 120.76 29.5571 126.911L30.4716 127.984ZM167 109.979H164.021C162.432 109.979 160.904 110.608 159.774 111.735C158.644 112.863 158.005 114.397 158.005 116V160C158.005 161.603 158.644 163.137 159.774 164.265C160.904 165.392 162.432 166.021 164.021 166.021H224.979C226.568 166.021 228.096 165.392 229.225 164.265C230.356 163.137 230.995 161.603 230.995 160V116C230.995 114.397 230.356 112.863 229.225 111.735C228.096 110.608 226.568 109.979 224.979 109.979H222V110H167V109.979Z"/>
</mask>
<path fill-rule="evenodd" clip-rule="evenodd" d="M39.8333 122.119C35.4385 119.573 33.9377 113.94 36.4711 109.538C39.0067 105.131 44.6283 103.617 49.0271 106.165C53.422 108.711 54.9227 114.343 52.3894 118.746C49.8538 123.152 44.2321 124.667 39.8333 122.119ZM43.0002 107.073V121.212C42.2582 121.061 41.5276 120.789 40.8358 120.388C37.3975 118.396 36.2194 113.985 38.2046 110.535C39.2767 108.672 41.0521 107.471 43.0002 107.073ZM45.0002 121.332V106.95C46.0341 107.032 47.0666 107.34 48.0246 107.895C51.4629 109.887 52.641 114.298 50.6559 117.748C49.4277 119.882 47.2764 121.149 45.0002 121.332Z" fill="#AFB3B6"/>
<path d="M197.432 144.712V151.321H191.368V144.712C189.346 143.998 187.641 142.593 186.555 140.745C185.47 138.897 185.074 136.726 185.436 134.614C185.799 132.503 186.898 130.587 188.538 129.207C190.178 127.826 192.255 127.068 194.4 127.068C196.545 127.068 198.622 127.826 200.262 129.207C201.902 130.587 203.001 132.503 203.364 134.614C203.727 136.726 203.33 138.897 202.245 140.745C201.159 142.593 199.454 143.998 197.432 144.712Z" fill="#AFB3B6"/>
<path fill-rule="evenodd" clip-rule="evenodd" d="M203 32.5C203 28.0817 199.418 24.5 195 24.5H51.0002C46.5819 24.5 43.0002 28.0817 43.0002 32.5V92.549C36.0682 93.0175 29.4881 96.8322 25.7532 103.323C21.0582 111.482 22.2612 121.434 28.035 128.208L9.00015 161.287L21.4505 168.499L21.4517 168.5L25.9445 160.692L35.283 166.102L42.4716 153.609L33.1332 148.199L40.4863 135.421C41.3215 135.577 42.1609 135.682 43.0002 135.737V160.5C43.0002 164.918 46.5819 168.5 51.0002 168.5H195C195.981 168.5 196.922 168.323 197.79 168H224.979C227.106 168 229.146 167.157 230.651 165.657C232.155 164.157 233 162.122 233 160V116C233 113.878 232.155 111.843 230.651 110.343C229.146 108.843 227.106 108 224.979 108H222V99.264C222 92.2984 219.103 85.618 213.945 80.6926C210.848 77.7349 207.089 75.5554 203 74.2861V32.5ZM201 73.7442V48.5H45.0002V92.507C48.4796 92.5962 51.9871 93.5337 55.2134 95.4026C57.2701 96.594 59.0573 98.074 60.5534 99.7621C62.0098 97.7837 64.355 96.5 67.0002 96.5H167.153C167.46 93.7221 168.229 91.0229 169.416 88.5H67.0002C62.5819 88.5 59.0002 84.9183 59.0002 80.5V72.5C59.0002 68.0817 62.5819 64.5 67.0002 64.5H179C183.418 64.5 187 68.0817 187 72.5V73.9955C189.419 73.3406 191.941 73 194.5 73C196.708 73 198.889 73.2537 201 73.7442ZM187 78.1301C189.392 77.3633 191.922 76.9604 194.5 76.9604C196.721 76.9604 198.907 77.2596 201 77.8331V108H187V104.5C187 100.082 183.418 96.5 179 96.5H171.212C171.582 93.6868 172.513 90.972 173.946 88.5H179C183.418 88.5 187 84.9183 187 80.5V78.1301ZM185 74.6168V72.5C185 69.1863 182.314 66.5 179 66.5H67.0002C63.6864 66.5 61.0002 69.1863 61.0002 72.5V80.5C61.0002 83.8137 63.6864 86.5 67.0002 86.5H170.466C171.695 84.3886 173.234 82.4312 175.054 80.6926C177.897 77.9775 181.298 75.9183 185 74.6168ZM175.255 86.5C176.027 85.4485 176.899 84.4547 177.865 83.5322C179.936 81.5542 182.36 79.9806 185 78.8697V80.5C185 83.8137 182.314 86.5 179 86.5H175.255ZM167.012 98.5H67.0002C64.8226 98.5 62.916 99.66 61.8645 101.396C65.3808 106.243 66.7614 112.404 65.5938 118.334C66.0449 118.443 66.5158 118.5 67.0002 118.5H156V116C156 113.878 156.845 111.843 158.349 110.343C159.853 108.843 161.893 108 164.021 108H167V99.264C167 99.0089 167.004 98.7542 167.012 98.5ZM156 120.5H67.0002C66.3514 120.5 65.7206 120.423 65.1166 120.277C64.6433 121.879 63.9763 123.45 63.1072 124.961C59.2182 131.719 52.2441 135.576 45.0002 135.775V160.5C45.0002 163.814 47.6864 166.5 51.0002 166.5H159.345C158.993 166.248 158.66 165.966 158.349 165.657C156.845 164.157 156 162.122 156 160V152.5H133C128.582 152.5 125 148.918 125 144.5V136.5C125 132.082 128.582 128.5 133 128.5H156V120.5ZM156 130.5H133C129.686 130.5 127 133.186 127 136.5V144.5C127 147.814 129.686 150.5 133 150.5H156V130.5ZM171.045 98.5H179C182.314 98.5 185 101.186 185 104.5V108H171.032V99.264C171.032 99.0089 171.036 98.7542 171.045 98.5ZM203 108V78.4751C206.028 79.5936 208.805 81.307 211.135 83.5322C215.524 87.7241 217.968 93.3853 217.968 99.264V108H203ZM30.4716 127.984L11.7283 160.556L20.7184 165.764L25.2114 157.956L34.5499 163.366L39.7436 154.34L30.4051 148.93L39.4598 133.195L40.8531 133.455C48.7763 134.933 57.114 131.366 61.3737 123.963C66.7809 114.567 63.5694 102.554 54.2109 97.1332C44.8563 91.7143 32.8916 94.9274 27.4867 104.32C23.226 111.724 24.315 120.76 29.5571 126.911L30.4716 127.984ZM167 109.979H164.021C162.432 109.979 160.904 110.608 159.774 111.735C158.644 112.863 158.005 114.397 158.005 116V160C158.005 161.603 158.644 163.137 159.774 164.265C160.904 165.392 162.432 166.021 164.021 166.021H224.979C226.568 166.021 228.096 165.392 229.225 164.265C230.356 163.137 230.995 161.603 230.995 160V116C230.995 114.397 230.356 112.863 229.225 111.735C228.096 110.608 226.568 109.979 224.979 109.979H222V110H167V109.979Z" fill="#AFB3B6"/>
<path fill-rule="evenodd" clip-rule="evenodd" d="M39.8333 122.119C35.4385 119.573 33.9377 113.94 36.4711 109.538C39.0067 105.131 44.6283 103.617 49.0271 106.165C53.422 108.711 54.9227 114.343 52.3894 118.746C49.8538 123.152 44.2321 124.667 39.8333 122.119ZM43.0002 107.073V121.212C42.2582 121.061 41.5276 120.789 40.8358 120.388C37.3975 118.396 36.2194 113.985 38.2046 110.535C39.2767 108.672 41.0521 107.471 43.0002 107.073ZM45.0002 121.332V106.95C46.0341 107.032 47.0666 107.34 48.0246 107.895C51.4629 109.887 52.641 114.298 50.6559 117.748C49.4277 119.882 47.2764 121.149 45.0002 121.332Z" stroke="#AFB3B6" stroke-width="2" mask="url(#path-2-inside-1)"/>
<path d="M197.432 144.712V151.321H191.368V144.712C189.346 143.998 187.641 142.593 186.555 140.745C185.47 138.897 185.074 136.726 185.436 134.614C185.799 132.503 186.898 130.587 188.538 129.207C190.178 127.826 192.255 127.068 194.4 127.068C196.545 127.068 198.622 127.826 200.262 129.207C201.902 130.587 203.001 132.503 203.364 134.614C203.727 136.726 203.33 138.897 202.245 140.745C201.159 142.593 199.454 143.998 197.432 144.712Z" stroke="#AFB3B6" stroke-width="2" mask="url(#path-2-inside-1)"/>
<path fill-rule="evenodd" clip-rule="evenodd" d="M203 32.5C203 28.0817 199.418 24.5 195 24.5H51.0002C46.5819 24.5 43.0002 28.0817 43.0002 32.5V92.549C36.0682 93.0175 29.4881 96.8322 25.7532 103.323C21.0582 111.482 22.2612 121.434 28.035 128.208L9.00015 161.287L21.4505 168.499L21.4517 168.5L25.9445 160.692L35.283 166.102L42.4716 153.609L33.1332 148.199L40.4863 135.421C41.3215 135.577 42.1609 135.682 43.0002 135.737V160.5C43.0002 164.918 46.5819 168.5 51.0002 168.5H195C195.981 168.5 196.922 168.323 197.79 168H224.979C227.106 168 229.146 167.157 230.651 165.657C232.155 164.157 233 162.122 233 160V116C233 113.878 232.155 111.843 230.651 110.343C229.146 108.843 227.106 108 224.979 108H222V99.264C222 92.2984 219.103 85.618 213.945 80.6926C210.848 77.7349 207.089 75.5554 203 74.2861V32.5ZM201 73.7442V48.5H45.0002V92.507C48.4796 92.5962 51.9871 93.5337 55.2134 95.4026C57.2701 96.594 59.0573 98.074 60.5534 99.7621C62.0098 97.7837 64.355 96.5 67.0002 96.5H167.153C167.46 93.7221 168.229 91.0229 169.416 88.5H67.0002C62.5819 88.5 59.0002 84.9183 59.0002 80.5V72.5C59.0002 68.0817 62.5819 64.5 67.0002 64.5H179C183.418 64.5 187 68.0817 187 72.5V73.9955C189.419 73.3406 191.941 73 194.5 73C196.708 73 198.889 73.2537 201 73.7442ZM187 78.1301C189.392 77.3633 191.922 76.9604 194.5 76.9604C196.721 76.9604 198.907 77.2596 201 77.8331V108H187V104.5C187 100.082 183.418 96.5 179 96.5H171.212C171.582 93.6868 172.513 90.972 173.946 88.5H179C183.418 88.5 187 84.9183 187 80.5V78.1301ZM185 74.6168V72.5C185 69.1863 182.314 66.5 179 66.5H67.0002C63.6864 66.5 61.0002 69.1863 61.0002 72.5V80.5C61.0002 83.8137 63.6864 86.5 67.0002 86.5H170.466C171.695 84.3886 173.234 82.4312 175.054 80.6926C177.897 77.9775 181.298 75.9183 185 74.6168ZM175.255 86.5C176.027 85.4485 176.899 84.4547 177.865 83.5322C179.936 81.5542 182.36 79.9806 185 78.8697V80.5C185 83.8137 182.314 86.5 179 86.5H175.255ZM167.012 98.5H67.0002C64.8226 98.5 62.916 99.66 61.8645 101.396C65.3808 106.243 66.7614 112.404 65.5938 118.334C66.0449 118.443 66.5158 118.5 67.0002 118.5H156V116C156 113.878 156.845 111.843 158.349 110.343C159.853 108.843 161.893 108 164.021 108H167V99.264C167 99.0089 167.004 98.7542 167.012 98.5ZM156 120.5H67.0002C66.3514 120.5 65.7206 120.423 65.1166 120.277C64.6433 121.879 63.9763 123.45 63.1072 124.961C59.2182 131.719 52.2441 135.576 45.0002 135.775V160.5C45.0002 163.814 47.6864 166.5 51.0002 166.5H159.345C158.993 166.248 158.66 165.966 158.349 165.657C156.845 164.157 156 162.122 156 160V152.5H133C128.582 152.5 125 148.918 125 144.5V136.5C125 132.082 128.582 128.5 133 128.5H156V120.5ZM156 130.5H133C129.686 130.5 127 133.186 127 136.5V144.5C127 147.814 129.686 150.5 133 150.5H156V130.5ZM171.045 98.5H179C182.314 98.5 185 101.186 185 104.5V108H171.032V99.264C171.032 99.0089 171.036 98.7542 171.045 98.5ZM203 108V78.4751C206.028 79.5936 208.805 81.307 211.135 83.5322C215.524 87.7241 217.968 93.3853 217.968 99.264V108H203ZM30.4716 127.984L11.7283 160.556L20.7184 165.764L25.2114 157.956L34.5499 163.366L39.7436 154.34L30.4051 148.93L39.4598 133.195L40.8531 133.455C48.7763 134.933 57.114 131.366 61.3737 123.963C66.7809 114.567 63.5694 102.554 54.2109 97.1332C44.8563 91.7143 32.8916 94.9274 27.4867 104.32C23.226 111.724 24.315 120.76 29.5571 126.911L30.4716 127.984ZM167 109.979H164.021C162.432 109.979 160.904 110.608 159.774 111.735C158.644 112.863 158.005 114.397 158.005 116V160C158.005 161.603 158.644 163.137 159.774 164.265C160.904 165.392 162.432 166.021 164.021 166.021H224.979C226.568 166.021 228.096 165.392 229.225 164.265C230.356 163.137 230.995 161.603 230.995 160V116C230.995 114.397 230.356 112.863 229.225 111.735C228.096 110.608 226.568 109.979 224.979 109.979H222V110H167V109.979Z" stroke="#AFB3B6" stroke-width="2" mask="url(#path-2-inside-1)"/>
</svg>
