<svg width="246" height="176" viewBox="0 0 246 176" fill="none" xmlns="http://www.w3.org/2000/svg">
<path fill-rule="evenodd" clip-rule="evenodd" d="M0.920654 71.0167C0.920654 88.0086 10.3875 106.209 25.7342 122.148C22.723 127.364 21 133.417 21 139.872C21 159.478 36.8939 175.372 56.5 175.372C57.53 175.372 58.5499 175.328 59.5577 175.242C60.0255 175.327 60.5076 175.372 61 175.372H160.939C154.34 175.339 149 169.979 149 163.372V108.049L99.3235 113.119C94.9281 113.567 91.0012 110.368 90.5527 105.972L84.0555 42.3027L155.684 34.9934L160.215 79.3973C160.474 79.3806 160.736 79.372 161 79.372H208L231 102.372V119.968C240.552 106.021 246 89.4744 246 71.0167C246 13.8019 167.296 0 107 0C46.7047 0 0.920654 27.0334 0.920654 71.0167ZM84.2074 139.872C84.2074 155.174 71.8024 167.579 56.5 167.579C41.1977 167.579 28.7927 155.174 28.7927 139.872C28.7927 124.57 41.1977 112.165 56.5 112.165C71.8024 112.165 84.2074 124.57 84.2074 139.872Z" fill="#AFB3B6" fill-opacity="0.2"/>
<path d="M175 127.372H205V129.372H175V127.372Z" fill="#AFB3B6"/>
<path d="M193 139.372H175V141.372H193V139.372Z" fill="#AFB3B6"/>
<path fill-rule="evenodd" clip-rule="evenodd" d="M138.113 67.0908C139.887 64.5132 140.463 61.722 140.23 59.8361C140.171 59.3584 140.055 58.902 139.866 58.5088C139.681 58.1231 139.39 57.726 138.94 57.4908C138.454 57.2364 137.919 57.243 137.436 57.4413C136.985 57.626 136.595 57.9663 136.257 58.3715C134.905 59.9937 134.394 62.7356 134.564 65.056C134.636 66.0326 134.832 67.0037 135.179 67.8518C133.446 70.4093 131.088 73.8247 128.905 76.0783C128.214 76.7917 127.573 77.3541 127.004 77.7278C126.416 78.1145 126.018 78.2246 125.786 78.2169C125.646 78.2123 125.466 78.1698 125.245 77.8027C124.993 77.3843 124.75 76.6248 124.621 75.3556C124.572 74.8777 124.514 74.1943 124.472 73.399C125.959 71.4289 127.313 69.4259 128.068 67.7705C128.459 66.9126 128.748 66.0268 128.724 65.2348C128.711 64.821 128.612 64.3865 128.354 63.9994C128.091 63.6035 127.712 63.3343 127.275 63.177C126.58 62.9271 125.887 62.8827 125.239 63.1082C124.598 63.3311 124.119 63.7763 123.769 64.2852C123.096 65.2646 122.765 66.6688 122.594 68.0381C122.4 69.5909 122.388 71.304 122.441 72.7633C120.93 74.7255 119.276 76.6842 117.9 78.2789C117.464 78.7844 117.05 79.2608 116.675 79.6911L116.673 79.6936C115.847 80.6428 115.215 81.3687 114.974 81.6947C114.507 82.3271 114.093 82.6205 113.771 82.7407C113.471 82.8527 113.171 82.8458 112.831 82.708C112.459 82.5572 112.054 82.2528 111.64 81.7996C112.133 81.0634 112.589 80.2887 113.008 79.4971C114.376 76.9122 115.39 74.0603 116.003 71.567C116.31 70.3192 116.52 69.147 116.622 68.1305C116.722 67.1331 116.725 66.2159 116.574 65.5112C116.287 64.1826 115.598 63.1575 114.603 62.5766C113.613 61.9986 112.443 61.9324 111.335 62.2823C109.125 62.9796 107.127 65.2956 106.413 68.8762C105.692 72.493 106.781 77.4998 108.583 80.8531C108.762 81.1861 108.953 81.5118 109.155 81.8242C108.368 82.825 107.521 83.6679 106.625 84.2869C104.918 85.4659 103.051 85.8325 100.956 84.9333C100.449 84.7154 99.8608 84.9503 99.643 85.4578C99.4251 85.9653 99.66 86.5533 100.167 86.7711C102.989 87.982 105.579 87.4406 107.762 85.9325C108.73 85.2635 109.62 84.4053 110.431 83.427C110.936 83.9257 111.486 84.3208 112.079 84.5614C112.832 84.8669 113.653 84.9198 114.471 84.6144C115.266 84.3173 115.968 83.7161 116.583 82.8829C116.775 82.6237 117.304 82.0152 118.065 81.1413L118.066 81.1403L118.067 81.1394C118.459 80.6883 118.914 80.1664 119.415 79.5851C120.394 78.4497 121.524 77.1194 122.649 75.7269C122.796 77.0334 123.076 78.0784 123.532 78.8349C124.038 79.6749 124.786 80.1848 125.72 80.2158C126.561 80.2437 127.382 79.8726 128.102 79.3992C128.842 78.9129 129.6 78.2363 130.342 77.4698C132.443 75.3004 134.682 72.134 136.379 69.646C136.789 70.0187 137.284 70.3015 137.873 70.4332C138.61 70.5979 139.265 70.3633 139.788 70.004C140.291 69.6579 140.736 69.1556 141.133 68.6272C141.672 67.9081 142.237 66.9758 142.805 66.0377L142.808 66.0332C143.059 65.6194 143.31 65.2044 143.561 64.8059C144.419 63.4401 145.313 62.1805 146.317 61.3141C147.298 60.4683 148.311 60.0575 149.47 60.2248C150.017 60.3036 150.524 59.9244 150.603 59.3778C150.682 58.8312 150.303 58.3241 149.756 58.2453C147.855 57.971 146.283 58.7035 145.011 59.7994C143.764 60.8747 142.739 62.3553 141.867 63.7417C141.569 64.217 141.292 64.6746 141.029 65.1087L141.027 65.1114L141.026 65.1127L141.026 65.1136L141.025 65.1148C140.489 66.001 140.012 66.7885 139.533 67.4268C139.183 67.8934 138.893 68.1926 138.655 68.3559C138.436 68.5062 138.345 68.4892 138.31 68.4814C138.043 68.4219 137.775 68.2603 137.524 67.9559C137.738 67.6395 137.935 67.3491 138.113 67.0908ZM136.559 64.9097C136.578 65.1764 136.609 65.4348 136.649 65.6826C138.032 63.5419 138.404 61.3669 138.245 60.0816C138.204 59.7547 138.134 59.5224 138.065 59.3767C137.997 59.4316 137.905 59.5181 137.794 59.6521C136.907 60.7155 136.408 62.8514 136.559 64.9097ZM126.248 66.9407C125.84 67.8367 125.209 68.889 124.44 70.0207C124.465 69.4316 124.509 68.8455 124.579 68.2864C124.742 66.982 125.029 65.9835 125.417 65.4188C125.598 65.1556 125.762 65.0435 125.896 64.9973C126.021 64.9536 126.234 64.9282 126.598 65.0589C126.648 65.0769 126.672 65.0929 126.681 65.0996C126.685 65.1027 126.687 65.1049 126.689 65.1064C126.69 65.1075 126.69 65.1082 126.69 65.1085C126.691 65.1092 126.693 65.1122 126.696 65.1186C126.698 65.1249 126.702 65.1343 126.706 65.1478C126.714 65.1765 126.723 65.2237 126.725 65.2948C126.734 65.6166 126.605 66.1593 126.248 66.9407ZM111.24 78.5619C110.974 79.065 110.696 79.5527 110.407 80.0205C110.386 79.9828 110.365 79.9448 110.345 79.9064C108.704 76.8531 107.766 72.3202 108.374 69.2673C108.99 66.1783 110.616 64.6063 111.937 64.1896C112.593 63.9824 113.165 64.0527 113.595 64.3037C114.019 64.5518 114.428 65.0483 114.618 65.9327C114.705 66.3346 114.725 67.0082 114.632 67.9311C114.542 68.835 114.351 69.9126 114.061 71.0892C113.482 73.4447 112.522 76.1399 111.24 78.5619Z" fill="#AFB3B6"/>
<path d="M64.3741 132.622C64.3741 135.827 62.5152 138.59 59.8321 139.863L64.3732 154.969H48.6266L53.1679 139.863C50.4856 138.589 48.6275 135.826 48.6275 132.622C48.6275 128.21 52.1525 124.633 56.5008 124.633C60.8491 124.633 64.3741 128.21 64.3741 132.622Z" fill="#AFB3B6"/>
<path fill-rule="evenodd" clip-rule="evenodd" d="M84.2074 139.872C84.2074 155.174 71.8024 167.579 56.5 167.579C41.1977 167.579 28.7927 155.174 28.7927 139.872C28.7927 124.57 41.1977 112.165 56.5 112.165C71.8024 112.165 84.2074 124.57 84.2074 139.872ZM82.2074 139.872C82.2074 154.07 70.6978 165.579 56.5 165.579C42.3023 165.579 30.7927 154.07 30.7927 139.872C30.7927 125.674 42.3023 114.165 56.5 114.165C70.6978 114.165 82.2074 125.674 82.2074 139.872Z" fill="#AFB3B6"/>
<path fill-rule="evenodd" clip-rule="evenodd" d="M112.056 39.4454V29.4717C112.278 29.4374 112.506 29.4281 112.764 29.4281C113.683 29.4281 114.661 29.4593 115.458 29.9906C116.163 30.4602 116.509 30.2611 117.178 29.8758L117.299 29.8065C117.447 29.722 117.571 29.5904 117.695 29.4593C117.944 29.1948 118.192 28.9325 118.628 29.0635C118.863 29.134 119.092 29.2298 119.32 29.3259C119.656 29.4668 119.993 29.6083 120.354 29.6711C120.665 29.7252 120.886 29.8103 121.146 29.9836C121.4 30.1533 121.887 30.108 122.266 30.0728C122.383 30.0618 122.49 30.0519 122.576 30.0496C122.607 30.0488 122.638 30.0483 122.67 30.0478C122.908 30.044 123.188 30.0396 123.382 29.9003C123.443 29.8563 123.501 29.8114 123.558 29.7669C123.686 29.6668 123.812 29.569 123.965 29.4906C124.67 29.1298 125.324 28.8641 126.156 29.06C126.422 29.1225 126.678 29.2872 126.933 29.4504C127.115 29.5676 127.296 29.6841 127.479 29.7614C127.716 29.8616 127.957 29.9281 128.215 29.9281C128.347 29.9281 128.484 29.9334 128.625 29.9389C128.766 29.9445 128.911 29.9501 129.056 29.9505L129.056 37.7107L155.684 34.9934L160.215 79.3974C160.474 79.3806 160.736 79.3721 161 79.3721H208L231 102.372V163.372C231 169.999 225.627 175.372 219 175.372H161C160.978 175.372 160.955 175.372 160.933 175.372H61C60.5076 175.372 60.0256 175.327 59.5577 175.242C58.5499 175.328 57.5301 175.372 56.5 175.372C36.8939 175.372 21 159.478 21 139.872C21 121.447 35.0368 106.3 53.0001 104.542C53.0001 104.542 53.0001 104.542 53.0001 104.542L53 95.3719C53 90.9536 56.5817 87.3719 61 87.3719H88.6546L84.0555 42.3027L112.056 39.4454ZM88.8587 89.3719H61C57.6863 89.3719 55 92.0582 55 95.3719V103.503L56.3039 104.373C56.3692 104.372 56.4346 104.372 56.5 104.372C71.3407 104.372 84.0545 113.479 89.358 126.409L113 142.17L149 118.17V108.049L99.3235 113.119C94.9281 113.567 91.0012 110.368 90.5527 105.972L88.8587 89.3719ZM149 120.574L113 144.574L90.479 129.56C91.4681 132.823 92 136.286 92 139.872C92 155.35 82.0946 168.514 68.2771 173.372H154.364C151.131 171.222 149 167.546 149 163.372V120.574ZM162.181 98.6628L160.418 81.3887C160.611 81.3777 160.805 81.3721 161 81.3721H206V104.372H229V163.372C229 168.895 224.523 173.372 219 173.372H161C155.477 173.372 151 168.895 151 163.372V107.845L155.034 107.434C159.43 106.985 162.629 103.058 162.181 98.6628ZM112.056 41.4558L86.2482 44.0893L92.5424 105.769C92.8788 109.066 95.8239 111.465 99.1205 111.129L100.115 111.027C103.961 110.635 106.761 107.199 106.369 103.353L105.424 94.0962L159.187 102.844C159.952 101.718 160.34 100.326 160.191 98.8658L153.897 37.1861L129.056 39.7211L129.056 49.3657L112.056 49.3657V41.4558ZM105.743 110.453C107.604 108.605 108.645 105.963 108.358 103.15L107.679 96.4893L157.382 104.577C156.632 105.042 155.768 105.348 154.831 105.444L105.743 110.453ZM208 102.372V82.2005L228.172 102.372H208ZM56.5 173.372C75.0015 173.372 90 158.374 90 139.872C90 121.371 75.0015 106.372 56.5 106.372C37.9985 106.372 23 121.371 23 139.872C23 158.374 37.9985 173.372 56.5 173.372Z" fill="#AFB3B6"/>
</svg>
