<svg width="148" height="124" viewBox="0 0 148 124" fill="none" xmlns="http://www.w3.org/2000/svg">
<g clip-path="url(#clip0_22560_118222)">
<rect width="148" height="122.235" transform="translate(0 0.882812)" fill="none"/>
<path fill-rule="evenodd" clip-rule="evenodd" d="M129.648 59.7038C126.467 55.6179 123.835 50.5383 123.835 45.3605C123.835 25.4291 107.649 9.27148 87.6827 9.27148C67.7162 9.27148 51.5303 25.4291 51.5303 45.3605C51.5303 65.2919 67.7162 81.4495 87.6827 81.4495C93.7427 81.4495 99.8422 84.3557 105.036 87.4772C107.873 89.1819 111.194 90.1622 114.745 90.1622C125.169 90.1622 133.619 81.7118 133.619 71.2877C133.619 66.9215 132.137 62.9016 129.648 59.7038Z" fill="#B2C8EB" fill-opacity="0.35"/>
<path fill-rule="evenodd" clip-rule="evenodd" d="M61.9477 93.7618C85.91 93.7618 105.335 74.3705 105.335 50.4502C105.335 26.5299 85.91 7.13867 61.9477 7.13867C37.9854 7.13867 18.5601 26.5299 18.5601 50.4502C18.5601 74.3705 37.9854 93.7618 61.9477 93.7618ZM61.9477 81.2495C78.9876 81.2495 92.8011 67.4602 92.8011 50.4502C92.8011 33.4402 78.9876 19.6509 61.9477 19.6509C44.9078 19.6509 31.0943 33.4402 31.0943 50.4502C31.0943 67.4602 44.9078 81.2495 61.9477 81.2495Z" fill="#CBDAF2"/>
<path fill-rule="evenodd" clip-rule="evenodd" d="M61.9477 93.7618C85.91 93.7618 105.335 74.3705 105.335 50.4502C105.335 26.5299 85.91 7.13867 61.9477 7.13867C37.9854 7.13867 18.5601 26.5299 18.5601 50.4502C18.5601 74.3705 37.9854 93.7618 61.9477 93.7618ZM61.9477 81.2495C78.9876 81.2495 92.8011 67.4602 92.8011 50.4502C92.8011 33.4402 78.9876 19.6509 61.9477 19.6509C44.9078 19.6509 31.0943 33.4402 31.0943 50.4502C31.0943 67.4602 44.9078 81.2495 61.9477 81.2495Z" fill="#B2C8EB" fill-opacity="0.35"/>
<path d="M61.9477 93.7618C37.9854 93.7618 18.5601 74.3705 18.5601 50.4502C18.5601 26.5299 37.9854 7.13867 61.9477 7.13867C67.59 7.13867 72.9807 8.2138 77.9256 10.17M61.9477 19.6509C78.9876 19.6509 92.8011 33.4402 92.8011 50.4502C92.8011 62.8981 85.4036 73.6212 74.7576 78.4777" stroke="#82A5DB" stroke-width="2" stroke-linecap="round"/>
<path fill-rule="evenodd" clip-rule="evenodd" d="M86.5547 86.1279L110.589 110.12C113.655 113.181 118.627 113.181 121.693 110.12C124.76 107.059 124.76 102.096 121.693 99.0345L97.6646 75.0479C94.6656 79.3791 90.8965 83.1382 86.5547 86.1279Z" fill="#CBDAF2"/>
<path fill-rule="evenodd" clip-rule="evenodd" d="M86.5547 86.1279L110.589 110.12C113.655 113.181 118.627 113.181 121.693 110.12C124.76 107.059 124.76 102.096 121.693 99.0345L97.6646 75.0479C94.6656 79.3791 90.8965 83.1382 86.5547 86.1279Z" fill="#B2C8EB" fill-opacity="0.35"/>
<path d="M121.693 110.119C124.76 107.058 124.76 102.095 121.693 99.034L97.6646 75.0473C98.7642 73.5942 101.263 69.7293 102.462 65.8945" stroke="#82A5DB" stroke-width="2" stroke-linecap="round"/>
<path d="M8.67752 0.882812L16.1925 13.8763H1.16257L8.67752 0.882812Z" fill="#CBDAF2"/>
<path d="M8.67755 0.882812L1.1626 13.8763H8.67755" stroke="#82A5DB" stroke-width="2" stroke-linecap="round"/>
<ellipse cx="56.9497" cy="117.11" rx="6.01853" ry="6.00797" fill="#CBDAF2"/>
<rect x="141.842" y="6.875" width="12.9935" height="13.0163" transform="rotate(90 141.842 6.875)" fill="#CBDAF2"/>
<path d="M141.842 6.875L141.842 19.8685L136.168 19.8685" stroke="#82A5DB" stroke-width="2" stroke-linecap="round"/>
<path d="M0.599121 116.826C13.2407 95.831 54.8258 83.2716 31.2601 123.118C44.0404 109.339 65.3117 100.049 60.5182 110.235" stroke="#82A5DB" stroke-width="2" stroke-linecap="round"/>
</g>
<defs>
<clipPath id="clip0_22560_118222">
<rect width="148" height="122.235" fill="white" transform="translate(0 0.882812)"/>
</clipPath>
</defs>
</svg>
