<svg width="242" height="182" viewBox="0 0 242 182" fill="none" xmlns="http://www.w3.org/2000/svg">
<path fill-rule="evenodd" clip-rule="evenodd" d="M79.2722 33.5H86C85.9917 30.3287 85.1934 27.3077 83.4955 24.6293C81.7976 21.9508 79.3765 19.8607 76.512 18.5V7C78.4206 7 80.2511 6.46226 81.6007 5.11267C82.9503 3.76309 83.5 1.9086 83.5 0H54.5C54.5108 1.90308 55.1961 3.77274 56.544 5.11619C57.892 6.45964 59.5969 6.9956 61.5 7V18.5C58.6344 19.8593 56.3315 21.949 54.6334 24.6278C53.1704 26.9356 52.2786 29.4979 52.0554 32.1913L16.0629 39.8418C5.25859 42.1383 -1.63833 52.7586 0.658194 63.563L10.638 110.514C12.0539 117.176 16.6343 122.352 22.4712 124.804C19.3765 128.325 17.5 132.943 17.5 138V162C17.5 173.046 26.4543 182 37.5 182H61.5C72.5457 182 81.5 173.046 81.5 162V138C81.5 129.016 75.5762 121.415 67.4215 118.891L81.3102 115.939C92.1145 113.642 99.0115 103.022 96.7149 92.2178L86.7352 45.2667C85.6973 40.3837 82.9591 36.2988 79.2722 33.5ZM32.0677 74.9428L62.3903 68.4976C64.5511 68.0383 66.6752 69.4177 67.1345 71.5785L71.7086 93.0978C72.1679 95.2586 70.7885 97.3827 68.6276 97.842L38.3051 104.287C36.1442 104.747 34.0201 103.367 33.5608 101.206L28.9868 79.6871C28.5275 77.5262 29.9068 75.4021 32.0677 74.9428Z" fill="#AFB3B6" fill-opacity="0.2"/>
<path d="M97.5 58C97.5 46.9543 106.454 38 117.5 38H141.5C152.546 38 161.5 46.9543 161.5 58V82C161.5 93.0457 152.546 102 141.5 102H117.5C106.454 102 97.5 93.0457 97.5 82V58Z" fill="#AFB3B6" fill-opacity="0.2"/>
<path d="M197.5 38C186.454 38 177.5 46.9543 177.5 58V82C177.5 93.0457 186.454 102 197.5 102H221.5C232.546 102 241.5 93.0457 241.5 82V58C241.5 46.9543 232.546 38 221.5 38H197.5Z" fill="#AFB3B6" fill-opacity="0.2"/>
<path d="M177.5 138C177.5 126.954 186.454 118 197.5 118H221.5C232.546 118 241.5 126.954 241.5 138V162C241.5 173.046 232.546 182 221.5 182H197.5C186.454 182 177.5 173.046 177.5 162V138Z" fill="#AFB3B6" fill-opacity="0.2"/>
<path d="M117.5 118C106.454 118 97.5 126.954 97.5 138V162C97.5 173.046 106.454 182 117.5 182H141.5C152.546 182 161.5 173.046 161.5 162V138C161.5 126.954 152.546 118 141.5 118H117.5Z" fill="#AFB3B6" fill-opacity="0.2"/>
<path d="M53.0623 91.9495L52.3814 88.7461C53.2868 88.1919 53.9671 87.3355 54.3021 86.3282C54.6371 85.3209 54.6053 84.2276 54.2122 83.2415C53.819 82.2555 53.09 81.4401 52.1539 80.9396C51.2178 80.4391 50.1348 80.2856 49.0965 80.5063C48.0582 80.7271 47.1313 81.3077 46.4797 82.1457C45.828 82.9837 45.4937 84.0251 45.5356 85.0858C45.5775 86.1465 45.9931 87.1582 46.7089 87.9422C47.4246 88.7261 48.3944 89.2318 49.447 89.3698L50.1279 92.5732L53.0623 91.9495Z" fill="#AFB3B6"/>
<path fill-rule="evenodd" clip-rule="evenodd" d="M33.0884 70.1254L34.024 74.527L32.0677 74.9428C29.9069 75.4022 28.5275 77.5262 28.9868 79.6871L33.5608 101.206C34.0202 103.367 36.1442 104.747 38.3051 104.287L68.6277 97.842C70.7885 97.3827 72.1679 95.2586 71.7086 93.0978L67.1346 71.5785C66.6752 69.4177 64.5512 68.0383 62.3903 68.4976L60.434 68.9134L59.4984 64.5117C58.754 61.0096 56.6488 57.9465 53.646 55.9965C50.6432 54.0465 46.9888 53.3691 43.4866 54.1136C39.9844 54.858 36.9214 56.9631 34.9714 59.9659C33.0213 62.9687 32.344 66.6232 33.0884 70.1254ZM36.6487 61.0552C34.9876 63.6131 34.4106 66.7262 35.0447 69.7095L35.9803 74.1112L58.4777 69.3292L57.5421 64.9276C56.908 61.9442 55.1147 59.335 52.5568 57.6738C49.9988 56.0127 46.8858 55.4357 43.9024 56.0699C40.9191 56.704 38.3098 58.4973 36.6487 61.0552ZM32.4836 76.8991L62.8061 70.4539C63.8866 70.2242 64.9486 70.9139 65.1783 71.9943L69.7523 93.5136C69.982 94.594 69.2923 95.6561 68.2118 95.8857L37.8893 102.331C36.8088 102.561 35.7468 101.871 35.5171 100.791L30.9431 79.2713C30.7134 78.1908 31.4031 77.1288 32.4836 76.8991Z" fill="#AFB3B6"/>
<path fill-rule="evenodd" clip-rule="evenodd" d="M61.5 18.5C58.6344 19.8593 56.3315 21.949 54.6334 24.6278C53.2961 26.7373 52.4361 29.0594 52.1277 31.5C52.0444 32.1587 52.0014 32.8259 52 33.5C52.0009 33.0607 52.0195 32.6243 52.0554 32.1913L16.0629 39.8418C5.25859 42.1383 -1.63833 52.7586 0.658194 63.563L10.638 110.514C12.9345 121.318 23.5548 128.215 34.3591 125.919L62.1505 120.012C62.7259 120.032 63.294 120.079 63.8535 120.152L63.9209 119.635L81.3102 115.939C92.1145 113.642 99.0115 103.022 96.7149 92.2178L86.7352 45.2667C85.6973 40.3837 82.9591 36.2988 79.2722 33.5H86C85.9982 32.8259 85.9608 32.1586 85.8866 31.5C85.6117 29.0599 84.8325 26.7384 83.4955 24.6293C81.7976 21.9508 79.3765 19.8607 76.512 18.5V7C78.4206 7 80.2511 6.46226 81.6007 5.11268C82.4692 4.24417 83.0064 3.16656 83.2791 2C83.4301 1.35382 83.5 0.680349 83.5 0H54.5C54.5038 0.678352 54.5934 1.35246 54.7681 2C55.0835 3.1691 55.6765 4.25161 56.544 5.11619C57.892 6.45964 59.5969 6.9956 61.5 7V18.5ZM75.5634 33.5H72V45.5C72 46.7426 70.6569 48 69 48C67.3431 48 66 46.7426 66 45.5V33.5H55.518L16.4787 41.7981C6.75485 43.8649 0.547613 53.4232 2.61449 63.1471L12.5942 110.098C14.6611 119.822 24.2194 126.029 33.9433 123.962L80.8944 113.983C90.6183 111.916 96.8255 102.358 94.7586 92.6336L84.7789 45.6825C83.623 40.2444 80.124 35.9062 75.5634 33.5ZM56.8679 2C57.1153 2.64763 57.4827 3.228 57.9559 3.69962C58.844 4.58478 59.9938 4.99651 61.5046 5.00001L63.5 5.00462V19.7649L62.3571 20.307C59.8486 21.4969 57.8279 23.3239 56.3225 25.6986C55.1827 27.4967 54.4418 29.4533 54.1459 31.5H83.8723C83.6077 29.4227 82.9287 27.4706 81.8063 25.7001C80.3198 23.3552 78.1937 21.513 75.6539 20.3066L74.512 19.7642V5H76.512C78.0613 5 79.3177 4.56719 80.1865 3.69846C80.6454 3.23953 80.9855 2.66619 81.2046 2H56.8679Z" fill="#AFB3B6"/>
<path d="M120.5 38H117.5C116.615 38 115.743 38.0575 114.888 38.169L115.147 40.1522C115.916 40.0519 116.701 40 117.5 40H120.5V38Z" fill="#AFB3B6"/>
<path d="M153.676 42.132L152.457 43.7178C151.218 42.7655 149.852 41.9714 148.39 41.3651L149.156 39.5176C150.782 40.1919 152.299 41.0744 153.676 42.132Z" fill="#AFB3B6"/>
<path d="M159.982 50.3442L158.135 51.1104C157.529 49.6481 156.734 48.2822 155.782 47.043L157.368 45.8243C158.426 47.2006 159.308 48.7183 159.982 50.3442Z" fill="#AFB3B6"/>
<path d="M161.5 61H159.5V58C159.5 57.2014 159.448 56.4159 159.348 55.6465L161.331 55.3878C161.442 56.2428 161.5 57.1147 161.5 58V61Z" fill="#AFB3B6"/>
<path d="M157.368 94.1757L155.782 92.957C156.734 91.7178 157.529 90.3519 158.135 88.8896L159.982 89.6558C159.308 91.2817 158.426 92.7994 157.368 94.1757Z" fill="#AFB3B6"/>
<path d="M149.156 100.482L148.39 98.6349C149.852 98.0286 151.218 97.2345 152.457 96.2822L153.676 97.868C152.299 98.9256 150.782 99.8081 149.156 100.482Z" fill="#AFB3B6"/>
<path d="M114.888 101.831L115.147 99.8478C115.916 99.9481 116.701 100 117.5 100H120.5V102H117.5C116.615 102 115.743 101.942 114.888 101.831Z" fill="#AFB3B6"/>
<path d="M138.5 100V102H141.5C142.385 102 143.257 101.942 144.112 101.831L143.853 99.8478C143.084 99.9481 142.299 100 141.5 100H138.5Z" fill="#AFB3B6"/>
<path d="M110.61 41.3651L109.844 39.5176C108.218 40.1919 106.701 41.0744 105.324 42.132L106.543 43.7178C107.782 42.7655 109.148 41.9714 110.61 41.3651Z" fill="#AFB3B6"/>
<path d="M103.218 47.043L101.632 45.8243C100.574 47.2006 99.6919 48.7183 99.0176 50.3442L100.865 51.1104C101.471 49.6481 102.266 48.2822 103.218 47.043Z" fill="#AFB3B6"/>
<path d="M99.5 79H97.5V82C97.5 82.8853 97.5575 83.7572 97.669 84.6122L99.6522 84.3535C99.5519 83.5841 99.5 82.7986 99.5 82V79Z" fill="#AFB3B6"/>
<path d="M100.865 88.8896L99.0176 89.6558C99.6919 91.2817 100.574 92.7994 101.632 94.1757L103.218 92.957C102.266 91.7178 101.471 90.3519 100.865 88.8896Z" fill="#AFB3B6"/>
<path d="M110.61 98.6349L109.844 100.482C108.218 99.8081 106.701 98.9256 105.324 97.868L106.543 96.2822C107.782 97.2345 109.148 98.0286 110.61 98.6349Z" fill="#AFB3B6"/>
<path d="M99.5 73H97.5V67H99.5V73Z" fill="#AFB3B6"/>
<path d="M99.5 61H97.5V58C97.5 57.1147 97.5575 56.2428 97.669 55.3878L99.6522 55.6465C99.5519 56.4159 99.5 57.2014 99.5 58V61Z" fill="#AFB3B6"/>
<path d="M126.5 40V38H132.5V40H126.5Z" fill="#AFB3B6"/>
<path d="M138.5 40V38H141.5C142.385 38 143.257 38.0575 144.112 38.169L143.853 40.1522C143.084 40.0519 142.299 40 141.5 40H138.5Z" fill="#AFB3B6"/>
<path d="M159.5 67H161.5V73H159.5V67Z" fill="#AFB3B6"/>
<path d="M159.5 79H161.5V82C161.5 82.8853 161.442 83.7572 161.331 84.6122L159.348 84.3535C159.448 83.5841 159.5 82.7986 159.5 82V79Z" fill="#AFB3B6"/>
<path d="M132.5 100V102H126.5V100H132.5Z" fill="#AFB3B6"/>
<path d="M194.888 101.831L195.146 99.8478C195.916 99.9481 196.701 100 197.5 100H200.5V102H197.5C196.615 102 195.743 101.942 194.888 101.831Z" fill="#AFB3B6"/>
<path d="M218.5 102V100H221.5C222.299 100 223.084 99.9481 223.853 99.8478L224.112 101.831C223.257 101.942 222.385 102 221.5 102H218.5Z" fill="#AFB3B6"/>
<path d="M229.156 100.482L228.39 98.6349C229.852 98.0286 231.218 97.2345 232.457 96.2822L233.676 97.868C232.299 98.9256 230.782 99.8081 229.156 100.482Z" fill="#AFB3B6"/>
<path d="M237.368 94.1757L235.782 92.957C236.734 91.7178 237.529 90.3519 238.135 88.8896L239.982 89.6558C239.308 91.2817 238.426 92.7994 237.368 94.1757Z" fill="#AFB3B6"/>
<path d="M241.5 61H239.5V58C239.5 57.2014 239.448 56.4159 239.348 55.6465L241.331 55.3878C241.442 56.2428 241.5 57.1147 241.5 58V61Z" fill="#AFB3B6"/>
<path d="M239.982 50.3442L238.135 51.1104C237.529 49.6481 236.734 48.2822 235.782 47.043L237.368 45.8243C238.426 47.2006 239.308 48.7183 239.982 50.3442Z" fill="#AFB3B6"/>
<path d="M233.676 42.132L232.457 43.7178C231.218 42.7655 229.852 41.9714 228.39 41.3651L229.156 39.5176C230.782 40.1919 232.299 41.0744 233.676 42.132Z" fill="#AFB3B6"/>
<path d="M200.5 38H197.5C196.615 38 195.743 38.0575 194.888 38.169L195.147 40.1522C195.916 40.0519 196.701 40 197.5 40H200.5V38Z" fill="#AFB3B6"/>
<path d="M189.844 39.5176L190.61 41.3651C189.148 41.9714 187.782 42.7655 186.543 43.7178L185.324 42.132C186.701 41.0744 188.218 40.1919 189.844 39.5176Z" fill="#AFB3B6"/>
<path d="M181.632 45.8243L183.218 47.043C182.266 48.2822 181.471 49.6481 180.865 51.1104L179.018 50.3442C179.692 48.7183 180.574 47.2006 181.632 45.8243Z" fill="#AFB3B6"/>
<path d="M177.5 79H179.5V82C179.5 82.7986 179.552 83.5841 179.652 84.3535L177.669 84.6122C177.558 83.7572 177.5 82.8853 177.5 82V79Z" fill="#AFB3B6"/>
<path d="M179.018 89.6558L180.865 88.8896C181.471 90.3519 182.266 91.7178 183.218 92.957L181.632 94.1757C180.574 92.7994 179.692 91.2817 179.018 89.6558Z" fill="#AFB3B6"/>
<path d="M189.844 100.482L190.61 98.6349C189.148 98.0286 187.782 97.2345 186.543 96.2822L185.324 97.868C186.701 98.9256 188.218 99.8081 189.844 100.482Z" fill="#AFB3B6"/>
<path d="M177.5 73H179.5V67H177.5V73Z" fill="#AFB3B6"/>
<path d="M177.5 61H179.5V58C179.5 57.2014 179.552 56.4159 179.652 55.6465L177.669 55.3878C177.558 56.2428 177.5 57.1147 177.5 58V61Z" fill="#AFB3B6"/>
<path d="M206.5 38V40H212.5V38H206.5Z" fill="#AFB3B6"/>
<path d="M218.5 38V40H221.5C222.299 40 223.084 40.0519 223.853 40.1522L224.112 38.169C223.257 38.0575 222.385 38 221.5 38H218.5Z" fill="#AFB3B6"/>
<path d="M241.5 67H239.5V73H241.5V67Z" fill="#AFB3B6"/>
<path d="M241.5 79H239.5V82C239.5 82.7986 239.448 83.5841 239.348 84.3535L241.331 84.6122C241.442 83.7572 241.5 82.8853 241.5 82V79Z" fill="#AFB3B6"/>
<path d="M212.5 102V100H206.5V102H212.5Z" fill="#AFB3B6"/>
<path d="M194.888 181.831L195.146 179.848C195.916 179.948 196.701 180 197.5 180H200.5V182H197.5C196.615 182 195.743 181.942 194.888 181.831Z" fill="#AFB3B6"/>
<path d="M218.5 182V180H221.5C222.299 180 223.084 179.948 223.853 179.848L224.112 181.831C223.257 181.942 222.385 182 221.5 182H218.5Z" fill="#AFB3B6"/>
<path d="M229.156 180.482L228.39 178.635C229.852 178.029 231.218 177.234 232.457 176.282L233.676 177.868C232.299 178.926 230.782 179.808 229.156 180.482Z" fill="#AFB3B6"/>
<path d="M237.368 174.176L235.782 172.957C236.734 171.718 237.529 170.352 238.135 168.89L239.982 169.656C239.308 171.282 238.426 172.799 237.368 174.176Z" fill="#AFB3B6"/>
<path d="M241.5 141H239.5V138C239.5 137.201 239.448 136.416 239.348 135.647L241.331 135.388C241.442 136.243 241.5 137.115 241.5 138V141Z" fill="#AFB3B6"/>
<path d="M239.982 130.344L238.135 131.11C237.529 129.648 236.734 128.282 235.782 127.043L237.368 125.824C238.426 127.201 239.308 128.718 239.982 130.344Z" fill="#AFB3B6"/>
<path d="M233.676 122.132L232.457 123.718C231.218 122.766 229.852 121.971 228.39 121.365L229.156 119.518C230.782 120.192 232.299 121.074 233.676 122.132Z" fill="#AFB3B6"/>
<path d="M200.5 118H197.5C196.615 118 195.743 118.058 194.888 118.169L195.147 120.152C195.916 120.052 196.701 120 197.5 120H200.5V118Z" fill="#AFB3B6"/>
<path d="M189.844 119.518L190.61 121.365C189.148 121.971 187.782 122.766 186.543 123.718L185.324 122.132C186.701 121.074 188.218 120.192 189.844 119.518Z" fill="#AFB3B6"/>
<path d="M181.632 125.824L183.218 127.043C182.266 128.282 181.471 129.648 180.865 131.11L179.018 130.344C179.692 128.718 180.574 127.201 181.632 125.824Z" fill="#AFB3B6"/>
<path d="M177.5 159H179.5V162C179.5 162.799 179.552 163.584 179.652 164.353L177.669 164.612C177.558 163.757 177.5 162.885 177.5 162V159Z" fill="#AFB3B6"/>
<path d="M179.018 169.656L180.865 168.89C181.471 170.352 182.266 171.718 183.218 172.957L181.632 174.176C180.574 172.799 179.692 171.282 179.018 169.656Z" fill="#AFB3B6"/>
<path d="M189.844 180.482L190.61 178.635C189.148 178.029 187.782 177.234 186.543 176.282L185.324 177.868C186.701 178.926 188.218 179.808 189.844 180.482Z" fill="#AFB3B6"/>
<path d="M177.5 153H179.5V147H177.5V153Z" fill="#AFB3B6"/>
<path d="M177.5 141H179.5V138C179.5 137.201 179.552 136.416 179.652 135.647L177.669 135.388C177.558 136.243 177.5 137.115 177.5 138V141Z" fill="#AFB3B6"/>
<path d="M206.5 118V120H212.5V118H206.5Z" fill="#AFB3B6"/>
<path d="M218.5 118V120H221.5C222.299 120 223.084 120.052 223.853 120.152L224.112 118.169C223.257 118.058 222.385 118 221.5 118H218.5Z" fill="#AFB3B6"/>
<path d="M241.5 147H239.5V153H241.5V147Z" fill="#AFB3B6"/>
<path d="M241.5 159H239.5V162C239.5 162.799 239.448 163.584 239.348 164.353L241.331 164.612C241.442 163.757 241.5 162.885 241.5 162V159Z" fill="#AFB3B6"/>
<path d="M212.5 182V180H206.5V182H212.5Z" fill="#AFB3B6"/>
<path d="M114.888 181.831L115.147 179.848C115.916 179.948 116.701 180 117.5 180H120.5V182H117.5C116.615 182 115.743 181.942 114.888 181.831Z" fill="#AFB3B6"/>
<path d="M138.5 182V180H141.5C142.299 180 143.084 179.948 143.853 179.848L144.112 181.831C143.257 181.942 142.385 182 141.5 182H138.5Z" fill="#AFB3B6"/>
<path d="M149.156 180.482L148.39 178.635C149.852 178.029 151.218 177.234 152.457 176.282L153.676 177.868C152.299 178.926 150.782 179.808 149.156 180.482Z" fill="#AFB3B6"/>
<path d="M157.368 174.176L155.782 172.957C156.734 171.718 157.529 170.352 158.135 168.89L159.982 169.656C159.308 171.282 158.426 172.799 157.368 174.176Z" fill="#AFB3B6"/>
<path d="M161.5 141H159.5V138C159.5 137.201 159.448 136.416 159.348 135.647L161.331 135.388C161.442 136.243 161.5 137.115 161.5 138V141Z" fill="#AFB3B6"/>
<path d="M159.982 130.344L158.135 131.11C157.529 129.648 156.734 128.282 155.782 127.043L157.368 125.824C158.426 127.201 159.308 128.718 159.982 130.344Z" fill="#AFB3B6"/>
<path d="M153.676 122.132L152.457 123.718C151.218 122.766 149.852 121.971 148.39 121.365L149.156 119.518C150.782 120.192 152.299 121.074 153.676 122.132Z" fill="#AFB3B6"/>
<path d="M120.5 118H117.5C116.615 118 115.743 118.058 114.888 118.169L115.147 120.152C115.916 120.052 116.701 120 117.5 120H120.5V118Z" fill="#AFB3B6"/>
<path d="M109.844 119.518L110.61 121.365C109.148 121.971 107.782 122.766 106.543 123.718L105.324 122.132C106.701 121.074 108.218 120.192 109.844 119.518Z" fill="#AFB3B6"/>
<path d="M101.632 125.824L103.218 127.043C102.266 128.282 101.471 129.648 100.865 131.11L99.0176 130.344C99.6919 128.718 100.574 127.201 101.632 125.824Z" fill="#AFB3B6"/>
<path d="M97.5 159H99.5V162C99.5 162.799 99.5519 163.584 99.6522 164.353L97.669 164.612C97.5575 163.757 97.5 162.885 97.5 162V159Z" fill="#AFB3B6"/>
<path d="M99.0176 169.656L100.865 168.89C101.471 170.352 102.266 171.718 103.218 172.957L101.632 174.176C100.574 172.799 99.6919 171.282 99.0176 169.656Z" fill="#AFB3B6"/>
<path d="M109.844 180.482L110.61 178.635C109.148 178.029 107.782 177.234 106.543 176.282L105.324 177.868C106.701 178.926 108.218 179.808 109.844 180.482Z" fill="#AFB3B6"/>
<path d="M97.5 153H99.5V147H97.5V153Z" fill="#AFB3B6"/>
<path d="M97.5 141H99.5V138C99.5 137.201 99.5519 136.416 99.6522 135.647L97.669 135.388C97.5575 136.243 97.5 137.115 97.5 138V141Z" fill="#AFB3B6"/>
<path d="M126.5 118V120H132.5V118H126.5Z" fill="#AFB3B6"/>
<path d="M138.5 118V120H141.5C142.299 120 143.084 120.052 143.853 120.152L144.112 118.169C143.257 118.058 142.385 118 141.5 118H138.5Z" fill="#AFB3B6"/>
<path d="M161.5 147H159.5V153H161.5V147Z" fill="#AFB3B6"/>
<path d="M161.5 159H159.5V162C159.5 162.799 159.448 163.584 159.348 164.353L161.331 164.612C161.442 163.757 161.5 162.885 161.5 162V159Z" fill="#AFB3B6"/>
<path d="M132.5 182V180H126.5V182H132.5Z" fill="#AFB3B6"/>
<path d="M35.1465 179.848L34.8878 181.831C35.7428 181.942 36.6147 182 37.5 182H40.5V180H37.5C36.7014 180 35.9159 179.948 35.1465 179.848Z" fill="#AFB3B6"/>
<path d="M58.5 180V182H61.5C62.3853 182 63.2572 181.942 64.1122 181.831L63.8535 179.848C63.0841 179.948 62.2986 180 61.5 180H58.5Z" fill="#AFB3B6"/>
<path d="M68.3896 178.635L69.1558 180.482C70.7817 179.808 72.2994 178.926 73.6757 177.868L72.457 176.282C71.2178 177.234 69.8519 178.029 68.3896 178.635Z" fill="#AFB3B6"/>
<path d="M75.7822 172.957L77.368 174.176C78.4256 172.799 79.3081 171.282 79.9824 169.656L78.1349 168.89C77.5286 170.352 76.7345 171.718 75.7822 172.957Z" fill="#AFB3B6"/>
<path d="M79.5 141H81.5V138C81.5 137.115 81.4425 136.243 81.331 135.388L79.3478 135.647C79.4481 136.416 79.5 137.201 79.5 138V141Z" fill="#AFB3B6"/>
<path d="M78.1349 131.11L79.9824 130.344C79.3081 128.718 78.4256 127.201 77.368 125.824L75.7822 127.043C76.7345 128.282 77.5286 129.648 78.1349 131.11Z" fill="#AFB3B6"/>
<path d="M72.457 123.718L73.6757 122.132C72.2995 121.074 70.7817 120.192 69.1558 119.518L68.3896 121.365C69.8519 121.971 71.2178 122.766 72.457 123.718Z" fill="#AFB3B6"/>
<path d="M23.2179 127.043L21.632 125.824C20.5744 127.201 19.6919 128.718 19.0176 130.344L20.8651 131.11C21.4714 129.648 22.2655 128.282 23.2179 127.043Z" fill="#AFB3B6"/>
<path d="M19.5 159H17.5V162C17.5 162.885 17.5575 163.757 17.669 164.612L19.6522 164.353C19.5519 163.584 19.5 162.799 19.5 162V159Z" fill="#AFB3B6"/>
<path d="M20.8651 168.89L19.0176 169.656C19.6919 171.282 20.5744 172.799 21.632 174.176L23.2178 172.957C22.2655 171.718 21.4714 170.352 20.8651 168.89Z" fill="#AFB3B6"/>
<path d="M30.6104 178.635L29.8442 180.482C28.2183 179.808 26.7006 178.926 25.3243 177.868L26.543 176.282C27.7822 177.234 29.1481 178.029 30.6104 178.635Z" fill="#AFB3B6"/>
<path d="M19.5 153H17.5V147H19.5V153Z" fill="#AFB3B6"/>
<path d="M19.5 141H17.5V138C17.5 137.115 17.5575 136.243 17.669 135.388L19.6522 135.647C19.5519 136.416 19.5 137.201 19.5 138V141Z" fill="#AFB3B6"/>
<path d="M79.5 147H81.5V153H79.5V147Z" fill="#AFB3B6"/>
<path d="M79.5 159H81.5V162C81.5 162.885 81.4425 163.757 81.331 164.612L79.3478 164.353C79.4481 163.584 79.5 162.799 79.5 162V159Z" fill="#AFB3B6"/>
<path d="M52.5 180V182H46.5V180H52.5Z" fill="#AFB3B6"/>
</svg>
