<svg width="121" height="90" viewBox="0 0 121 90" fill="none" xmlns="http://www.w3.org/2000/svg">
<path fill-rule="evenodd" clip-rule="evenodd" d="M81.5687 84.4413C108.52 77.2022 125.821 64.1816 118.6 37.1647C111.379 10.1477 81.5752 -7.26078 45.2667 2.49191C18.3158 9.73108 -8.08936 16.9556 2.73183 57.4399C13.553 97.9242 54.6179 91.6805 81.5687 84.4413ZM41.9537 6.39325C39.426 6.39325 37.377 8.44834 37.377 10.9834V29.5883L35.894 28.5735L35.4144 29.4033L37.2041 30.3316L35.4144 31.2528L35.894 32.0685L37.377 31.0787V78.5244C37.377 81.0595 39.426 83.1146 41.9537 83.1146H80.5053C83.0329 83.1146 85.0819 81.0595 85.0819 78.5244V10.9834C85.0819 8.44834 83.0329 6.39325 80.5053 6.39325H41.9537ZM21.3415 31.2528L20.8619 32.0685L19.1867 30.9574L19.3013 32.9194H18.3277L18.4422 30.9504L16.7671 32.0685L16.2874 31.2528L18.0771 30.3316L16.2874 29.4033L16.7671 28.5735L18.4422 29.7198L18.3277 27.7226H19.3013L19.1867 29.7198L20.8619 28.5735L21.3415 29.4033L19.559 30.3316L21.3415 31.2528ZM27.7172 31.2528L27.2375 32.0685L25.5624 30.9574L25.6769 32.9194H24.7033L24.8179 30.9504L23.1427 32.0685L22.6631 31.2528L24.4528 30.3316L22.6631 29.4033L23.1427 28.5735L24.8179 29.7198L24.7033 27.7226H25.6769L25.5624 29.7198L27.2375 28.5735L27.7172 29.4033L25.9346 30.3316L27.7172 31.2528ZM33.6132 32.0685L34.0928 31.2528L32.3103 30.3316L34.0928 29.4033L33.6132 28.5735L31.938 29.7198L32.0526 27.7226H31.079L31.1935 29.7198L29.5184 28.5735L29.0387 29.4033L30.8284 30.3316L29.0387 31.2528L29.5184 32.0685L31.1935 30.9504L31.079 32.9194H32.0526L31.938 30.9574L33.6132 32.0685ZM101.755 23.4651L100.41 19.8231L99.0651 23.4651C98.5597 24.834 97.4814 25.9138 96.1132 26.4212L92.4827 27.7676L96.1132 29.1139C97.4814 29.6213 98.5597 30.7011 99.0651 32.0701L100.41 35.7121L101.755 32.0701C102.26 30.7011 103.338 29.6213 104.707 29.1139L108.337 27.7676L104.707 26.4212C103.338 25.9138 102.26 24.834 101.755 23.4651ZM24.3096 53.72L25.6543 57.362C26.1597 58.7309 27.238 59.8108 28.6062 60.3182L32.2367 61.6645L28.6062 63.0108C27.238 63.5182 26.1597 64.5981 25.6543 65.967L24.3096 69.609L22.9649 65.967C22.4594 64.5981 21.3811 63.5182 20.0129 63.0108L16.3825 61.6645L20.0129 60.3182C21.3811 59.8108 22.4594 58.7309 22.9649 57.362L24.3096 53.72ZM113.78 77.6581L112.435 74.0161L111.091 77.6581C110.585 79.0271 109.507 80.1069 108.139 80.6143L104.508 81.9606L108.139 83.307C109.507 83.8144 110.585 84.8942 111.091 86.2631L112.435 89.9052L113.78 86.2631C114.285 84.8942 115.364 83.8144 116.732 83.307L120.362 81.9606L116.732 80.6143C115.364 80.1069 114.285 79.0271 113.78 77.6581Z" fill="#AFB3B6" fill-opacity="0.2"/>
<path fill-rule="evenodd" clip-rule="evenodd" d="M80.5052 2.39258H41.9536C37.2058 2.39258 33.377 6.24964 33.377 10.9827V78.5237C33.377 83.2568 37.2057 87.1139 41.9536 87.1139H80.5052C85.2531 87.1139 89.0819 83.2568 89.0819 78.5237V10.9827C89.0819 6.24964 85.2531 2.39258 80.5052 2.39258ZM37.377 10.9827C37.377 8.44766 39.426 6.39258 41.9536 6.39258H80.5052C83.0328 6.39258 85.0819 8.44766 85.0819 10.9827V78.5237C85.0819 81.0588 83.0328 83.1139 80.5052 83.1139H41.9536C39.426 83.1139 37.377 81.0588 37.377 78.5237V10.9827ZM50.4097 10.8188C50.4097 10.4114 50.74 10.0811 51.1474 10.0811C51.5549 10.0811 51.8852 10.4114 51.8852 10.8188C51.8852 11.2262 51.5549 11.5565 51.1474 11.5565C50.74 11.5565 50.4097 11.2262 50.4097 10.8188ZM54.3442 10.8188C54.3442 10.4114 54.6744 10.0811 55.0819 10.0811H73.7704C74.1778 10.0811 74.5081 10.4114 74.5081 10.8188C74.5081 11.2262 74.1778 11.5565 73.7704 11.5565H55.0819C54.6744 11.5565 54.3442 11.2262 54.3442 10.8188Z" fill="#AFB3B6"/>
<path fill-rule="evenodd" clip-rule="evenodd" d="M62.4538 45.9837C61.7474 44.0148 60.3574 42.3554 58.5294 41.2988C56.7015 40.2422 54.5533 39.8564 52.4646 40.2095C50.3758 40.5627 48.481 41.632 47.1151 43.2286C45.7491 44.8252 45 46.8462 45 48.9345C45 51.0227 45.7491 53.0438 47.1151 54.6404C48.481 56.237 50.3758 57.3063 52.4646 57.6594C54.5533 58.0126 56.7015 57.6268 58.5294 56.5702C60.3574 55.5135 61.7474 53.8541 62.4538 51.8853H67.648V54.7923C67.648 56.4462 68.9888 57.7869 70.6426 57.7869C72.2965 57.7869 73.6372 56.4462 73.6372 54.7923V51.8853H75C76.6297 51.8853 77.9508 50.5642 77.9508 48.9345C77.9508 47.3048 76.6297 45.9837 75 45.9837H62.4538ZM53.994 51.8853C53.4018 51.8853 52.8229 51.7123 52.3304 51.388C51.8379 51.0638 51.454 50.6029 51.2274 50.0637C51.0007 49.5245 50.9415 48.9313 51.057 48.3589C51.1726 47.7865 51.4578 47.2607 51.8766 46.848C52.2954 46.4353 52.829 46.1543 53.4099 46.0404C53.9908 45.9265 54.5928 45.9849 55.14 46.2083C55.6872 46.4316 56.1549 46.8099 56.484 47.2952C56.813 47.7804 56.9886 48.3509 56.9886 48.9345C56.9863 49.7164 56.67 50.4656 56.1089 51.0185C55.5478 51.5714 54.7875 51.883 53.994 51.8853Z" fill="#5BB254"/>
<path fill-rule="evenodd" clip-rule="evenodd" d="M13.7705 21.1484C7.5233 21.1484 2.45898 26.2128 2.45898 32.4599C2.45898 37.121 5.27822 41.1236 9.30451 42.8556C8.52074 45.294 7.14253 47.127 5.49077 47.8223C6.27384 48.0215 7.09406 48.1273 7.93895 48.1273C11.3516 48.1273 14.3617 46.4006 16.1471 43.7714H39.3442C45.5914 43.7714 50.6557 38.7071 50.6557 32.4599C50.6557 26.2128 45.5914 21.1484 39.3442 21.1484H13.7705Z" fill="#5BB254"/>
<path d="M13.3658 34.6083L13.9679 33.6048L11.7301 32.4714L13.9679 31.3294L13.3658 30.3085L11.2628 31.7187L11.4066 29.2617H10.1844L10.3282 31.7187L8.22518 30.3085L7.62305 31.3294L9.86981 32.4714L7.62305 33.6048L8.22518 34.6083L10.3282 33.2327L10.1844 35.6552H11.4066L11.2628 33.2414L13.3658 34.6083Z" fill="white"/>
<path d="M21.3697 34.6083L21.9719 33.6048L19.7341 32.4714L21.9719 31.3294L21.3697 30.3085L19.2668 31.7187L19.4106 29.2617H18.1883L18.3321 31.7187L16.2291 30.3085L15.627 31.3294L17.8738 32.4714L15.627 33.6048L16.2291 34.6083L18.3321 33.2327L18.1883 35.6552H19.4106L19.2668 33.2414L21.3697 34.6083Z" fill="white"/>
<path d="M29.3737 34.6083L29.9758 33.6048L27.738 32.4714L29.9758 31.3294L29.3737 30.3085L27.2707 31.7187L27.4145 29.2617H26.1923L26.336 31.7187L24.2331 30.3085L23.6309 31.3294L25.8777 32.4714L23.6309 33.6048L24.2331 34.6083L26.336 33.2327L26.1923 35.6552H27.4145L27.2707 33.2414L29.3737 34.6083Z" fill="white"/>
<path d="M37.3776 34.6083L37.9798 33.6048L35.742 32.4714L37.9798 31.3294L37.3776 30.3085L35.2747 31.7187L35.4184 29.2617H34.1962L34.34 31.7187L32.237 30.3085L31.6349 31.3294L33.8817 32.4714L31.6349 33.6048L32.237 34.6083L34.34 33.2327L34.1962 35.6552H35.4184L35.2747 33.2414L37.3776 34.6083Z" fill="white"/>
<path d="M45.3816 34.6083L45.9837 33.6048L43.7459 32.4714L45.9837 31.3294L45.3816 30.3085L43.2786 31.7187L43.4224 29.2617H42.2001L42.3439 31.7187L40.241 30.3085L39.6388 31.3294L41.8856 32.4714L39.6388 33.6048L40.241 34.6083L42.3439 33.2327L42.2001 35.6552H43.4224L43.2786 33.2414L45.3816 34.6083Z" fill="white"/>
</svg>
