<svg width="245" height="183" viewBox="0 0 245 183" fill="none" xmlns="http://www.w3.org/2000/svg">
<path d="M241.079 76.0167C255.789 130.914 220.546 157.371 165.649 172.08C110.752 186.79 27.1058 199.477 5.06378 117.215C-16.9783 34.9529 36.8073 20.2731 91.7044 5.56348C165.662 -14.2535 226.37 21.1197 241.079 76.0167Z" fill="#252525"/>
<path d="M123 149H178C195.121 149 209 135.121 209 118V68" stroke="#595959" stroke-width="2"/>
<path d="M122 149H67C49.8792 149 36 135.121 36 118V68" stroke="#595959" stroke-width="2"/>
<circle cx="208" cy="36" r="35" fill="#252525" stroke="#595959" stroke-width="2"/>
<mask id="path-5-inside-1" fill="#595959">
<path fill-rule="evenodd" clip-rule="evenodd" d="M208 39C215.732 39 222 32.732 222 25C222 17.268 215.732 11 208 11C200.268 11 194 17.268 194 25C194 32.732 200.268 39 208 39ZM208 42C195.793 42 185.629 50.7493 183.438 62.3191C189.87 68.3247 198.506 72 208 72C217.494 72 226.13 68.3246 232.563 62.319C230.371 50.7492 220.207 42 208 42Z"/>
</mask>
<path fill-rule="evenodd" clip-rule="evenodd" d="M208 39C215.732 39 222 32.732 222 25C222 17.268 215.732 11 208 11C200.268 11 194 17.268 194 25C194 32.732 200.268 39 208 39ZM208 42C195.793 42 185.629 50.7493 183.438 62.3191C189.87 68.3247 198.506 72 208 72C217.494 72 226.13 68.3246 232.563 62.319C230.371 50.7492 220.207 42 208 42Z" fill="#121212"/>
<path d="M183.438 62.3191L181.472 61.9469L181.267 63.0292L182.073 63.781L183.438 62.3191ZM232.563 62.319L233.927 63.7809L234.733 63.0291L234.528 61.9468L232.563 62.319ZM220 25C220 31.6274 214.627 37 208 37V41C216.837 41 224 33.8366 224 25H220ZM208 13C214.627 13 220 18.3726 220 25H224C224 16.1634 216.837 9 208 9V13ZM196 25C196 18.3726 201.373 13 208 13V9C199.163 9 192 16.1634 192 25H196ZM208 37C201.373 37 196 31.6274 196 25H192C192 33.8366 199.163 41 208 41V37ZM185.403 62.6913C187.418 52.0482 196.772 44 208 44V40C194.814 40 183.839 49.4504 181.472 61.9469L185.403 62.6913ZM208 70C199.032 70 190.879 66.5307 184.802 60.8573L182.073 63.781C188.861 70.1186 197.979 74 208 74V70ZM231.198 60.8571C225.121 66.5306 216.968 70 208 70V74C218.021 74 227.139 70.1186 233.927 63.7809L231.198 60.8571ZM208 44C219.228 44 228.581 52.0482 230.597 62.6912L234.528 61.9468C232.161 49.4503 221.186 40 208 40V44Z" fill="#fff" mask="url(#path-5-inside-1)"/>
<circle cx="36" cy="36" r="35" fill="#252525" stroke="#595959" stroke-width="2"/>
<mask id="path-8-inside-2" fill="#595959">
<path fill-rule="evenodd" clip-rule="evenodd" d="M36 39C43.732 39 50 32.732 50 25C50 17.268 43.732 11 36 11C28.268 11 22 17.268 22 25C22 32.732 28.268 39 36 39ZM36 42C23.7927 42 13.629 50.7493 11.4375 62.3191C17.8698 68.3247 26.5056 72 35.9999 72C45.4943 72 54.1302 68.3246 60.5625 62.319C58.371 50.7492 48.2072 42 36 42Z"/>
</mask>
<path fill-rule="evenodd" clip-rule="evenodd" d="M36 39C43.732 39 50 32.732 50 25C50 17.268 43.732 11 36 11C28.268 11 22 17.268 22 25C22 32.732 28.268 39 36 39ZM36 42C23.7927 42 13.629 50.7493 11.4375 62.3191C17.8698 68.3247 26.5056 72 35.9999 72C45.4943 72 54.1302 68.3246 60.5625 62.319C58.371 50.7492 48.2072 42 36 42Z" fill="#121212"/>
<path d="M11.4375 62.3191L9.47244 61.9469L9.26743 63.0292L10.0726 63.781L11.4375 62.3191ZM60.5625 62.319L61.9274 63.7809L62.7326 63.0291L62.5276 61.9468L60.5625 62.319ZM48 25C48 31.6274 42.6274 37 36 37V41C44.8366 41 52 33.8366 52 25H48ZM36 13C42.6274 13 48 18.3726 48 25H52C52 16.1634 44.8366 9 36 9V13ZM24 25C24 18.3726 29.3726 13 36 13V9C27.1634 9 20 16.1634 20 25H24ZM36 37C29.3726 37 24 31.6274 24 25H20C20 33.8366 27.1634 41 36 41V37ZM13.4026 62.6913C15.4185 52.0482 24.7715 44 36 44V40C22.814 40 11.8394 49.4504 9.47244 61.9469L13.4026 62.6913ZM35.9999 70C27.0321 70 18.879 66.5307 12.8024 60.8573L10.0726 63.781C16.8606 70.1186 25.9792 74 35.9999 74V70ZM59.1976 60.8571C53.121 66.5306 44.9678 70 35.9999 70V74C46.0207 74 55.1394 70.1186 61.9274 63.7809L59.1976 60.8571ZM36 44C47.2285 44 56.5815 52.0482 58.5975 62.6912L62.5276 61.9468C60.1605 49.4503 49.186 40 36 40V44Z" fill="#fff" mask="url(#path-8-inside-2)"/>
<circle cx="122" cy="147" r="35" fill="#121212" stroke="#595959" stroke-width="2"/>
<path d="M110.393 142.402L126.012 133.384L127.517 135.99L111.897 145.007L110.393 142.402Z" fill="#121212"/>
<path d="M110.393 142.402L126.012 133.384L127.517 135.99L111.897 145.007L110.393 142.402Z" fill="#595959"/>
<path d="M110.393 142.402L126.012 133.384L127.517 135.99L111.897 145.007L110.393 142.402Z" stroke="#595959" stroke-width="2"/>
<path d="M111.897 148.41L127.517 157.428L126.012 160.034L110.393 151.016L111.897 148.41Z" fill="#121212"/>
<path d="M111.897 148.41L127.517 157.428L126.012 160.034L110.393 151.016L111.897 148.41Z" fill="#595959"/>
<path d="M111.897 148.41L127.517 157.428L126.012 160.034L110.393 151.016L111.897 148.41Z" stroke="#595959" stroke-width="2"/>
<path d="M113.036 147.045C113.036 152.025 108.998 156.063 104.018 156.063C99.0374 156.063 95 152.025 95 147.045C95 142.064 99.0374 138.027 104.018 138.027C108.998 138.027 113.036 142.064 113.036 147.045Z" fill="#2979FF" stroke="#2962FF" stroke-width="2"/>
<path d="M143 132.018C143 136.998 138.962 141.036 133.982 141.036C129.002 141.036 124.964 136.998 124.964 132.018C124.964 127.037 129.002 123 133.982 123C138.962 123 143 127.037 143 132.018Z" fill="#2979FF" stroke="#2962FF" stroke-width="2"/>
<path d="M143 161.982C143 166.963 138.962 171 133.982 171C129.002 171 124.964 166.963 124.964 161.982C124.964 157.002 129.002 152.964 133.982 152.964C138.962 152.964 143 157.002 143 161.982Z" fill="#2979FF" stroke="#2962FF" stroke-width="2"/>
<path d="M144 20.0972H99.9998V55.0972H144V20.0972Z" fill="#121212"/>
<path d="M119 30.0967H107V45.0967H119V30.0967Z" fill="#595959"/>
<path fill-rule="evenodd" clip-rule="evenodd" d="M140 57.0967H104C102.409 57.0967 100.883 56.4645 99.7574 55.3393C98.6321 54.2141 98 52.688 98 51.0967V24.0967C98 22.5054 98.6321 20.9793 99.7574 19.854C100.883 18.7288 102.409 18.0967 104 18.0967H116C116 17.301 116.316 16.538 116.879 15.9754C117.441 15.4128 118.204 15.0967 119 15.0967H125C125.796 15.0967 126.559 15.4128 127.121 15.9754C127.684 16.538 128 17.301 128 18.0967H140C141.591 18.0967 143.117 18.7288 144.243 19.854C145.368 20.9793 146 22.5054 146 24.0967V51.0967C146 52.688 145.368 54.2141 144.243 55.3393C143.117 56.4645 141.591 57.0967 140 57.0967ZM126 17.0967H118V21.0967H126V17.0967ZM144 24.0967C144 23.0358 143.579 22.0184 142.828 21.2683C142.078 20.5181 141.061 20.0967 140 20.0967H128C128 20.8923 127.684 21.6554 127.121 22.218C126.559 22.7806 125.796 23.0967 125 23.0967H119C118.204 23.0967 117.441 22.7806 116.879 22.218C116.316 21.6554 116 20.8923 116 20.0967H104C102.939 20.0967 101.922 20.5181 101.172 21.2683C100.421 22.0184 100 23.0358 100 24.0967V51.0967C100 52.1575 100.421 53.175 101.172 53.9251C101.922 54.6753 102.939 55.0967 104 55.0967H140C141.061 55.0967 142.078 54.6753 142.828 53.9251C143.579 53.175 144 52.1575 144 51.0967V24.0967ZM124.988 33.0967H136.988V35.0817H124.988V33.0967ZM133.988 41.0817H124.988V39.0967H133.988V41.0817Z" fill="#595959"/>
<path d="M126 17.0972H118V21.0972H126V17.0972Z" fill="#252525"/>
<path fill-rule="evenodd" clip-rule="evenodd" d="M91.6453 83V78.5C91.6453 75.45 90.4337 72.5249 88.277 70.3683C86.1203 68.2116 83.1953 67 80.1453 67C77.0953 67 74.1702 68.2116 72.0135 70.3683C69.8569 72.5249 68.6453 75.45 68.6453 78.5V83H66.6453V78.5C66.6453 74.9196 68.0676 71.4858 70.5993 68.9541C73.1311 66.4223 76.5648 65 80.1453 65C83.7257 65 87.1595 66.4223 89.6912 68.9541C92.2229 71.4858 93.6453 74.9196 93.6453 78.5V83H91.6453Z" fill="#595959"/>
<path d="M95.6453 83H64.6453C62.4361 83 60.6453 84.7909 60.6453 87V109C60.6453 111.209 62.4361 113 64.6453 113H95.6453C97.8544 113 99.6453 111.209 99.6453 109V87C99.6453 84.7909 97.8544 83 95.6453 83Z" fill="#121212"/>
<path fill-rule="evenodd" clip-rule="evenodd" d="M95.6453 113H64.6453C63.5844 113 62.567 112.579 61.8168 111.828C61.0667 111.078 60.6453 110.061 60.6453 109V87C60.6453 85.9391 61.0667 84.9217 61.8168 84.1716C62.567 83.4214 63.5844 83 64.6453 83H95.6453C96.7061 83 97.7235 83.4214 98.4737 84.1716C99.2238 84.9217 99.6453 85.9391 99.6453 87V109C99.6453 110.061 99.2238 111.078 98.4737 111.828C97.7235 112.579 96.7061 113 95.6453 113ZM97.6453 87C97.6453 86.4696 97.4346 85.9609 97.0595 85.5858C96.6844 85.2107 96.1757 85 95.6453 85H64.6453C64.1148 85 63.6061 85.2107 63.2311 85.5858C62.856 85.9609 62.6453 86.4696 62.6453 87V109C62.6453 109.53 62.856 110.039 63.2311 110.414C63.6061 110.789 64.1148 111 64.6453 111H95.6453C96.1757 111 96.6844 110.789 97.0595 110.414C97.4346 110.039 97.6453 109.53 97.6453 109V87Z" fill="#595959"/>
<path fill-rule="evenodd" clip-rule="evenodd" d="M81.6453 100.725V104H78.6453V100.725C77.6445 100.371 76.8009 99.675 76.2638 98.7593C75.7267 97.8437 75.5306 96.7677 75.7101 95.7215C75.8896 94.6752 76.4332 93.7261 77.2448 93.0419C78.0564 92.3577 79.0837 91.9824 80.1453 91.9824C81.2068 91.9824 82.2342 92.3577 83.0458 93.0419C83.8574 93.7261 84.401 94.6752 84.5805 95.7215C84.76 96.7677 84.5638 97.8437 84.0267 98.7593C83.4896 99.675 82.6461 100.371 81.6453 100.725Z" fill="#595959"/>
<path d="M146.097 69.4194C146.097 66.9786 148.075 65 150.516 65H173.328L185.903 77.5755V106.581C185.903 109.021 183.925 111 181.484 111H150.516C148.075 111 146.097 109.021 146.097 106.581V69.4194Z" fill="#121212" stroke="#595959" stroke-width="2"/>
<line x1="157.484" y1="87.7744" x2="172.194" y2="87.7744" stroke="#595959" stroke-width="2"/>
<line x1="157.484" y1="94.7417" x2="166" y2="94.7417" stroke="#595959" stroke-width="2"/>
<path d="M173.968 76.9355V66.4142L184.489 76.9355H173.968Z" fill="#121212" stroke="#595959" stroke-width="2"/>
</svg>
