<svg width="248" height="178" viewBox="0 0 248 178" fill="none" xmlns="http://www.w3.org/2000/svg">
<path d="M84.5839 6.75553C80.2281 3.68931 74.8816 1.92912 69.1419 2.00219C55.9088 1.83373 44.7656 11.4099 43.0353 24.2698C17.9122 41.0184 1.86189 66.7239 1.50604 98H1.5V166C1.5 172.627 6.87258 178 13.5 178H162.445C155.843 177.971 150.5 172.609 150.5 166V112C150.5 105.373 155.873 100 162.5 100H188.5V108H208.5V100H234.5C239.805 100 244.307 103.443 245.891 108.217C246.346 105.254 246.579 102.202 246.579 99.0636C246.579 55.0803 183.149 2.99994 118.5 2.99994C106.704 2.99994 95.3176 4.29328 84.5839 6.75553Z" fill="#AFB3B6" fill-opacity="0.2"/>
<path fill-rule="evenodd" clip-rule="evenodd" d="M59.1519 28.3397C59.1519 33.7805 63.7011 38.3297 69.1419 38.3297C74.5827 38.3297 79.1319 33.7805 79.1319 28.3397C79.1319 22.8989 74.5827 18.3498 69.1419 18.3498C63.7011 18.3498 59.1519 22.8989 59.1519 28.3397ZM61.1519 28.3397C61.1519 32.6759 64.8057 36.3297 69.1419 36.3297C73.4781 36.3297 77.1319 32.6759 77.1319 28.3397C77.1319 24.0035 73.4781 20.3498 69.1419 20.3498C64.8057 20.3498 61.1519 24.0035 61.1519 28.3397Z" fill="#AFB3B6"/>
<path d="M111.5 67C111.5 66.4477 111.948 66 112.5 66H136.5C137.052 66 137.5 66.4477 137.5 67C137.5 67.5523 137.052 68 136.5 68H112.5C111.948 68 111.5 67.5523 111.5 67Z" fill="#AFB3B6"/>
<path d="M105.5 71C104.948 71 104.5 71.4477 104.5 72C104.5 72.5523 104.948 73 105.5 73H143.5C144.052 73 144.5 72.5523 144.5 72C144.5 71.4477 144.052 71 143.5 71H105.5Z" fill="#AFB3B6"/>
<path d="M172.5 124H188.5C190.709 124 192.5 125.791 192.5 128V150C192.5 152.209 190.709 154 188.5 154H172.5C170.291 154 168.5 152.209 168.5 150V128C168.5 125.791 170.291 124 172.5 124Z" fill="#AFB3B6"/>
<path d="M228.5 130H204.5V132H228.5V130Z" fill="#AFB3B6"/>
<path d="M204.5 142H222.5V144H204.5V142Z" fill="#AFB3B6"/>
<path fill-rule="evenodd" clip-rule="evenodd" d="M76.5 69.3572V83H13C6.37258 83 1 88.3726 1 95V166C1 172.627 6.37258 178 13 178H162.445L162.5 178H234.5C241.127 178 246.5 172.628 246.5 166V112C246.5 105.373 241.127 100 234.5 100H210.5V99.0001C210.5 96.2387 208.261 94.0001 205.5 94.0001H191.5C188.739 94.0001 186.5 96.2387 186.5 99.0001V100H171.149V51.5C171.149 50.0413 170.571 48.6424 169.542 47.6109C168.513 46.5795 167.118 46 165.662 46H92.108C95.1798 39.9021 97.4791 33.3978 97.4791 27.4315V27.3901L97.4785 27.3487C97.2503 11.8302 84.4815 -0.179781 69.1419 0.00203722C53.8023 -0.179781 41.0335 11.8302 40.8053 27.3487L40.8047 27.3901V27.4315C40.8047 35.4501 45.0528 44.5033 49.6965 52.2045C54.4921 60.1576 60.3708 67.7184 64.8334 73.0177L69.1039 78.0889L73.4186 73.0551C74.3883 71.9237 75.4239 70.6848 76.5 69.3572ZM42.8047 27.4048L42.8051 27.3781C43.0167 12.9849 54.8627 1.82041 69.1419 2.00219C83.4211 1.82041 95.267 12.9849 95.4787 27.3781L95.4791 27.4048V27.4315C95.4791 33.2552 93.0911 39.7827 89.8609 46H76.5V66.1535C74.8798 68.2104 73.3197 70.0973 71.9 71.7536L69.1174 75L66.3632 71.7294C61.9373 66.4736 56.1306 59.0016 51.4093 51.1718C46.7863 43.505 42.8047 34.8606 42.8047 27.4315V27.4048ZM150.5 166C150.5 170.174 152.631 173.85 155.864 176H78.5V48H165.662C166.586 48 167.472 48.3676 168.126 49.0234C168.781 49.6794 169.149 50.5702 169.149 51.5V100H162.5C157.581 100 153.353 102.96 151.5 107.197V107H151.482C151.296 101.685 149.628 96.7471 146.879 92.586C146.516 92.0365 146.134 91.5004 145.734 90.9789L145.694 90.926C142.338 86.5711 137.73 83.2312 132.408 81.4466C131.432 81.1193 130.432 80.8446 129.412 80.6252C127.506 80.2156 125.528 80 123.5 80C121.472 80 119.494 80.2154 117.588 80.625C116.568 80.8443 115.568 81.1196 114.592 81.4469C109.27 83.2316 104.661 86.5711 101.306 90.926C100.891 91.4642 100.496 92.018 100.121 92.5861C97.3719 96.7472 95.7041 101.685 95.5175 107H95.5V109H95.5175C95.7041 114.315 97.3718 119.253 100.121 123.414C100.484 123.963 100.866 124.499 101.266 125.021C106.383 131.696 114.439 136 123.5 136C136.387 136 147.24 127.294 150.5 115.443V166ZM122.5 121.007V133.981C120.22 133.895 118.014 133.515 115.921 132.878C115.508 132.155 115.104 131.365 114.714 130.507C113.6 128.057 112.661 125.175 111.953 121.973C115.224 121.399 118.774 121.058 122.5 121.007ZM124.5 133.981V121.007C128.226 121.059 131.776 121.399 135.046 121.973C134.339 125.175 133.399 128.057 132.286 130.507C131.895 131.365 131.492 132.155 131.079 132.878C128.985 133.515 126.78 133.895 124.5 133.981ZM124.5 109V119.007C128.349 119.059 132.033 119.41 135.443 120.012C136.068 116.614 136.439 112.904 136.493 109H124.5ZM122.5 96.993V107H110.507C110.561 103.096 110.932 99.3858 111.557 95.9873C114.966 96.5892 118.65 96.941 122.5 96.993ZM124.5 107V96.993C128.349 96.9409 132.033 96.5892 135.443 95.9873C136.068 99.3858 136.439 103.096 136.493 107H124.5ZM124.5 82.0189V94.9928C128.226 94.941 131.776 94.601 135.046 94.0264C134.339 90.8243 133.399 87.943 132.286 85.4929C131.895 84.6343 131.492 83.8445 131.079 83.1219C128.986 82.485 126.78 82.1051 124.5 82.0189ZM122.5 82.0189V94.9928C118.774 94.9411 115.224 94.601 111.953 94.0264C112.661 90.8243 113.6 87.943 114.714 85.4929C115.104 84.6343 115.508 83.8446 115.921 83.122C118.014 82.4851 120.219 82.1051 122.5 82.0189ZM122.5 109V119.007C118.65 119.059 114.966 119.41 111.557 120.012C110.932 116.614 110.561 112.904 110.507 109H122.5ZM143.766 124.289C141.144 127.548 137.752 130.16 133.866 131.851C135.155 129.139 136.225 125.925 137.01 122.353C139.459 122.872 141.727 123.526 143.766 124.289ZM149.481 109C149.291 114.04 147.665 118.712 145.003 122.621C142.72 121.729 140.167 120.977 137.406 120.393C138.058 116.858 138.439 113.019 138.493 109H149.481ZM149.481 107H138.493C138.439 102.98 138.058 99.1413 137.406 95.6068C140.167 95.0229 142.72 94.2705 145.002 93.3787C147.665 97.2875 149.291 101.96 149.481 107ZM97.5189 109C97.7095 114.04 99.3345 118.712 101.997 122.621C104.279 121.729 106.833 120.977 109.594 120.393C108.942 116.858 108.561 113.019 108.507 109H97.5189ZM108.507 107H97.5189C97.7095 101.96 99.3346 97.2876 101.998 93.3788C104.28 94.2706 106.833 95.0229 109.594 95.6068C108.942 99.1413 108.561 102.98 108.507 107ZM137.01 93.6463C139.459 93.1275 141.727 92.4738 143.766 91.7105C141.143 88.4524 137.752 85.8398 133.866 84.1488C135.155 86.8612 136.225 90.0744 137.01 93.6463ZM113.133 131.851C109.248 130.16 105.856 127.547 103.234 124.289C105.273 123.526 107.54 122.872 109.989 122.353C110.775 125.925 111.844 129.139 113.133 131.851ZM109.989 93.6463C107.541 93.1275 105.273 92.4738 103.234 91.7105C105.856 88.4525 109.248 85.84 113.133 84.1489C111.844 86.8613 110.775 90.0744 109.989 93.6463ZM205.5 96.0001H191.5C189.843 96.0001 188.5 97.3433 188.5 99.0001V105C188.5 106.657 189.843 108 191.5 108H205.5C207.157 108 208.5 106.657 208.5 105V99.0001C208.5 97.3433 207.157 96.0001 205.5 96.0001ZM210.5 102V105C210.5 107.762 208.261 110 205.5 110H191.5C188.739 110 186.5 107.762 186.5 105V102H162.5C156.977 102 152.5 106.477 152.5 112V166C152.5 171.523 156.977 176 162.5 176H234.5C240.023 176 244.5 171.523 244.5 166V112C244.5 106.477 240.023 102 234.5 102H210.5ZM76.5 153V143H14.5C12.8431 143 11.5 144.343 11.5 146V150C11.5 151.657 12.8431 153 14.5 153H76.5ZM11.5 101C11.5 99.3431 12.8431 98 14.5 98H72.5C74.1569 98 75.5 99.3431 75.5 101V105C75.5 106.657 74.1569 108 72.5 108H14.5C12.8431 108 11.5 106.657 11.5 105V101ZM11.5 163C11.5 161.343 12.8431 160 14.5 160H47.5C49.1569 160 50.5 161.343 50.5 163V167C50.5 168.657 49.1569 170 47.5 170H14.5C12.8431 170 11.5 168.657 11.5 167V163ZM11.5 121C11.5 118.791 13.2909 117 15.5 117V121H11.5ZM15.5 123H11.5V125H15.5V123ZM11.5 129V127H15.5V129H11.5ZM11.5 131H15.5V135C13.2909 135 11.5 133.209 11.5 131ZM17.5 117V135H29.5V121H35.5C35.5 118.791 33.7091 117 31.5 117H17.5ZM31.5 125V123H35.5V125H31.5ZM31.5 129V127H35.5V129H31.5ZM31.5 135V131H35.5C35.5 133.209 33.7091 135 31.5 135Z" fill="#AFB3B6"/>
</svg>
