<svg width="18" height="18" viewBox="0 0 18 18" fill="none" xmlns="http://www.w3.org/2000/svg">
<path fill-rule="evenodd" clip-rule="evenodd" d="M15.4247 4.99999C14.0965 2.78269 11.6709 1.3 8.90021 1.3C4.70285 1.3 1.30021 4.70264 1.30021 8.9C1.30021 13.0974 4.70285 16.5 8.90021 16.5C12.4613 16.5 15.4519 14.0501 16.2754 10.7429C16.3621 10.3946 16.7148 10.1825 17.0632 10.2693C17.4115 10.356 17.6236 10.7087 17.5369 11.0571C16.5725 14.9298 13.0724 17.8 8.90021 17.8C3.98488 17.8 0.000213623 13.8153 0.000213623 8.9C0.000213623 3.98467 3.98488 0 8.90021 0C11.9668 0 14.6702 1.55095 16.2703 3.90949L16.2703 1.42999C16.2703 1.07101 16.5613 0.779994 16.9203 0.779994C17.2793 0.779994 17.5703 1.07101 17.5703 1.42999V5.64999V6.29999H16.9203L12.7003 6.29999C12.3413 6.29999 12.0503 6.00898 12.0503 5.64999C12.0503 5.29101 12.3413 4.99999 12.7003 4.99999L15.4247 4.99999Z" fill="white"/>
</svg>
