<svg width="40" height="40" viewBox="0 0 40 40" fill="none" xmlns="http://www.w3.org/2000/svg">
<path fill-rule="evenodd" clip-rule="evenodd" d="M30.6663 13.3833C28.4509 9.81973 24.5012 7.44999 20 7.44999C13.0688 7.44999 7.44998 13.0688 7.44998 20C7.44998 26.9312 13.0688 32.55 20 32.55C25.8804 32.55 30.8189 28.5046 32.1787 23.0434C32.3389 22.4003 32.99 22.0087 33.6331 22.1689C34.2762 22.329 34.6677 22.9802 34.5076 23.6233C32.8878 30.1286 27.0084 34.95 20 34.95C11.7433 34.95 5.04998 28.2566 5.04998 20C5.04998 11.7433 11.7433 5.04999 20 5.04999C25.0174 5.04999 29.4557 7.52162 32.1666 11.3108L32.1666 7.54999C32.1666 6.88725 32.7039 6.34999 33.3666 6.34999C34.0294 6.34999 34.5667 6.88725 34.5667 7.54999V14.5833V15.7833H33.3667L26.3333 15.7833C25.6706 15.7833 25.1333 15.2461 25.1333 14.5833C25.1333 13.9206 25.6706 13.3833 26.3333 13.3833H30.6663Z" fill="white"/>
</svg>
