<svg width="40" height="40" viewBox="0 0 40 40" fill="none" xmlns="http://www.w3.org/2000/svg">
<path fill-rule="evenodd" clip-rule="evenodd" d="M30.6666 13.3833C28.4512 9.81973 24.5015 7.44999 20.0002 7.44999C13.0691 7.44999 7.45023 13.0688 7.45023 20C7.45023 26.9312 13.0691 32.55 20.0002 32.55C25.8806 32.55 30.8191 28.5046 32.179 23.0434C32.3391 22.4003 32.9903 22.0087 33.6334 22.1689C34.2765 22.329 34.668 22.9802 34.5079 23.6233C32.888 30.1286 27.0087 34.95 20.0002 34.95C11.7436 34.95 5.05023 28.2566 5.05023 20C5.05023 11.7433 11.7436 5.04999 20.0002 5.04999C25.0176 5.04999 29.456 7.52162 32.1669 11.3108L32.1669 7.54999C32.1669 6.88725 32.7042 6.34999 33.3669 6.34999C34.0296 6.34999 34.5669 6.88725 34.5669 7.54999V14.5833V15.7833H33.3669L26.3336 15.7833C25.6708 15.7833 25.1336 15.2461 25.1336 14.5833C25.1336 13.9206 25.6708 13.3833 26.3336 13.3833H30.6666Z" fill="black"/>
</svg>
