<svg width="24" height="24" viewBox="0 0 24 24" fill="none" xmlns="http://www.w3.org/2000/svg">
<path fill-rule="evenodd" clip-rule="evenodd" d="M12.0002 5.34999C9.62302 5.34999 7.59661 6.35262 5.98685 7.68797L8.8938 9.38971C9.64563 8.53877 10.7585 8.00009 12.0003 8.00009C14.2645 8.00009 16.1001 9.79097 16.1001 12.0001C16.1001 12.5102 16.0022 12.998 15.8238 13.4466L19.0614 15.3419C20.1895 14.1818 21.0117 12.9368 21.4893 12.0001C20.909 10.8619 19.8212 9.2711 18.2964 7.92975C16.6423 6.47459 14.5185 5.34999 12.0002 5.34999ZM12.0002 3.9834C9.01921 3.9834 6.56726 5.33227 4.73995 6.95803L2.09596 5.41022C1.77029 5.21957 1.35172 5.32903 1.16107 5.6547C0.970423 5.98038 1.07988 6.39894 1.40555 6.58959L21.9044 18.5897C22.2301 18.7804 22.6486 18.6709 22.8393 18.3452C23.0299 18.0196 22.9205 17.601 22.5948 17.4103L20.2729 16.0511C21.5126 14.72 22.3913 13.3141 22.869 12.2887L23.0034 12.0001L22.869 11.7115C22.264 10.4129 21.014 8.50029 19.199 6.90369C17.3798 5.30327 14.9482 3.9834 12.0002 3.9834ZM3.42311 9.3274C3.72863 9.54892 3.79672 9.97617 3.57519 10.2817C3.12268 10.9058 2.76651 11.4992 2.51107 12.0001C3.09141 13.1383 4.17921 14.7291 5.70396 16.0704C7.35811 17.5256 9.48183 18.6502 12.0002 18.6502C13.5598 18.6502 15.3606 18.0702 16.6137 17.3851C16.9448 17.2041 17.36 17.3258 17.541 17.6569C17.722 17.9881 17.6004 18.4032 17.2692 18.5843C15.8675 19.3505 13.842 20.0168 12.0002 20.0168C9.05218 20.0168 6.62059 18.6969 4.80133 17.0965C2.98639 15.4999 1.73638 13.5873 1.13138 12.2887L0.996948 12.0001L1.13138 11.7115C1.42918 11.0723 1.87908 10.2928 2.46883 9.47947C2.69035 9.17396 3.1176 9.10587 3.42311 9.3274ZM7.90054 12.0001C7.90054 11.9823 7.90066 11.9645 7.9009 11.9467L13.9785 15.5045C13.392 15.8204 12.7177 16.0002 12.0003 16.0002C9.73607 16.0002 7.90054 14.2093 7.90054 12.0001Z" fill="black" fill-opacity="0.97"/>
</svg>
