<svg width="18" height="21" viewBox="0 0 18 21" fill="none" xmlns="http://www.w3.org/2000/svg">
<path fill-rule="evenodd" clip-rule="evenodd" d="M15.0006 6.31084H7.70273C6.76385 6.31084 6.00273 7.07195 6.00273 8.01084V17.9997C6.00273 18.9386 6.76385 19.6997 7.70273 19.6997H15.0006C15.9395 19.6997 16.7006 18.9386 16.7006 17.9997V8.01084C16.7006 7.07196 15.9395 6.31084 15.0006 6.31084ZM7.70273 5.01084C6.04588 5.01084 4.70273 6.35398 4.70273 8.01084V17.9997C4.70273 19.6565 6.04588 20.9997 7.70273 20.9997H15.0006C16.6574 20.9997 18.0006 19.6565 18.0006 17.9997V8.01084C18.0006 6.35399 16.6574 5.01084 15.0006 5.01084H7.70273Z" fill="#2979FF"/>
<path fill-rule="evenodd" clip-rule="evenodd" d="M0.0234375 4.6207C0.0234375 2.60486 1.6576 0.970703 3.67344 0.970703H12.3718C12.7308 0.970703 13.0218 1.26172 13.0218 1.6207C13.0218 1.97969 12.7308 2.2707 12.3718 2.2707H3.67344C2.37557 2.2707 1.32344 3.32283 1.32344 4.6207V16.3466C1.32344 16.7055 1.03242 16.9966 0.673437 16.9966C0.314452 16.9966 0.0234375 16.7055 0.0234375 16.3466V4.6207Z" fill="#2979FF"/>
</svg>
