<svg width="18" height="17" viewBox="0 0 18 17" fill="none" xmlns="http://www.w3.org/2000/svg">
<path d="M7.99997 7.88463C7.03749 7.88463 6.21354 7.54193 5.52813 6.85653C4.84271 6.17111 4.5 5.34716 4.5 4.38468C4.5 3.42218 4.84271 2.59823 5.52813 1.91283C6.21354 1.22741 7.03749 0.884705 7.99997 0.884705C8.96246 0.884705 9.78641 1.22741 10.4718 1.91283C11.1572 2.59823 11.5 3.42218 11.5 4.38468C11.5 5.34716 11.1572 6.17111 10.4718 6.85653C9.78641 7.54193 8.96246 7.88463 7.99997 7.88463ZM7.99997 6.38468C8.54998 6.38468 9.02081 6.18884 9.41247 5.79718C9.80414 5.40551 9.99998 4.93468 9.99998 4.38468C9.99998 3.83468 9.80414 3.36385 9.41247 2.97218C9.02081 2.58051 8.54998 2.38468 7.99997 2.38468C7.44998 2.38468 6.97914 2.58051 6.58747 2.97218C6.19581 3.36385 5.99997 3.83468 5.99997 4.38468C5.99997 4.93468 6.19581 5.40551 6.58747 5.79718C6.97914 6.18884 7.44998 6.38468 7.99997 6.38468ZM12.1538 15.5H2.0192C1.59742 15.5 1.23877 15.3522 0.943275 15.0567C0.647758 14.7612 0.5 14.4026 0.5 13.9808V13.2924C0.5 12.8026 0.63045 12.3465 0.89135 11.9241C1.15225 11.5016 1.51026 11.1783 1.96537 10.9539C2.84102 10.5206 3.7843 10.1699 4.7952 9.90198C5.80608 9.63403 6.87434 9.50005 7.99997 9.50005C8.39486 9.50005 8.78621 9.51897 9.17403 9.5568C9.56184 9.59462 9.92242 9.64814 10.2558 9.71738C10.2788 10.0045 10.3231 10.2799 10.3884 10.5433C10.4538 10.8068 10.559 11.0667 10.7038 11.3231C10.282 11.2205 9.8394 11.1411 9.37595 11.0847C8.91248 11.0282 8.45382 11 7.99997 11C6.91537 11 5.9016 11.1362 4.95865 11.4087C4.0157 11.6811 3.24743 11.9705 2.65383 12.277C2.44229 12.3859 2.28043 12.532 2.16825 12.7152C2.05607 12.8984 1.99997 13.0908 1.99997 13.2924V14H12.1538V15.5ZM16.2865 15.3404L15.4961 16.2519C15.4089 16.3558 15.299 16.4093 15.1663 16.4125C15.0336 16.4157 14.9237 16.3654 14.8365 16.2616L14.3596 15.6885C14.2891 15.6116 14.2372 15.5212 14.2038 15.4173C14.1705 15.3135 14.1538 15.2096 14.1538 15.1058V11.7289C13.5577 11.5443 13.0753 11.2138 12.7067 10.7375C12.3381 10.2612 12.1538 9.71413 12.1538 9.09618C12.1538 8.33229 12.4199 7.68299 12.9519 7.14828C13.484 6.61356 14.1346 6.3462 14.9038 6.3462C15.6602 6.3462 16.3076 6.61544 16.8461 7.1539C17.3846 7.69235 17.6538 8.33978 17.6538 9.09618C17.6538 9.71413 17.4679 10.2612 17.0961 10.7375C16.7243 11.2138 16.2435 11.5443 15.6538 11.7289V12.3462L16.2269 12.9193C16.3205 13.0129 16.3688 13.1199 16.372 13.2404C16.3753 13.3609 16.3301 13.468 16.2365 13.5616L15.6538 14.1347L16.2659 14.7339C16.3414 14.8079 16.383 14.9041 16.3905 15.0225C16.3981 15.1408 16.3634 15.2468 16.2865 15.3404ZM14.9004 10.6539C15.3322 10.6539 15.7003 10.5024 16.0048 10.1996C16.3093 9.89667 16.4615 9.52888 16.4615 9.09618C16.4615 8.6635 16.3097 8.29571 16.0062 7.99283C15.7027 7.68994 15.3341 7.5385 14.9004 7.5385C14.4668 7.5385 14.0993 7.68994 13.798 7.99283C13.4968 8.29571 13.3461 8.6635 13.3461 9.09618C13.3461 9.52888 13.4972 9.89667 13.7995 10.1996C14.1017 10.5024 14.4687 10.6539 14.9004 10.6539Z" fill="white"/>
</svg>
