<svg width="24" height="24" viewBox="0 0 24 24" fill="none" xmlns="http://www.w3.org/2000/svg">
<path d="M22.2546 11.949C22.2575 11.9548 22.2604 11.9605 22.2632 11.9661C22.2562 11.9775 22.2491 11.9891 22.2416 12.001C22.1113 12.2111 21.9165 12.5137 21.6623 12.878C21.1529 13.6078 20.4091 14.579 19.4706 15.5477C17.5736 17.506 14.9835 19.35 12 19.35C9.0165 19.35 6.42641 17.506 4.52936 15.5477C3.59091 14.579 2.84706 13.6078 2.33771 12.878C2.08345 12.5137 1.88869 12.2111 1.75836 12.001C1.75095 11.9891 1.74375 11.9774 1.73676 11.9661C1.73959 11.9605 1.74246 11.9548 1.74538 11.949C1.84984 11.7419 2.00876 11.4426 2.22297 11.0818C2.65216 10.359 3.29911 9.39652 4.16914 8.43649C5.91367 6.51149 8.50217 4.65 12 4.65C15.4978 4.65 18.0863 6.51149 19.8309 8.43649C20.7009 9.39652 21.3478 10.359 21.777 11.0818C21.9912 11.4426 22.1502 11.7419 22.2546 11.949Z" stroke="white" stroke-opacity="0.4" stroke-width="1.3"/>
<circle cx="12" cy="12" r="4" fill="white" fill-opacity="0.4"/>
</svg>
