<svg width="140" height="140" viewBox="0 0 140 140" fill="none" xmlns="http://www.w3.org/2000/svg">
<path d="M115 70C115 94.8528 94.8528 115 70 115C45.1472 115 25 94.8528 25 70C25 45.1472 45.1472 25 70 25C94.8528 25 115 45.1472 115 70Z" fill="#B2C8EB" fill-opacity="0.3"/>
<path d="M108 70C108 90.9868 90.9868 108 70 108C49.0132 108 32 90.9868 32 70C32 49.0132 49.0132 32 70 32C90.9868 32 108 49.0132 108 70Z" fill="#B2C8EB" fill-opacity="0.3"/>
<path d="M100 70C100 86.5685 86.5685 100 70 100C53.4315 100 40 86.5685 40 70C40 53.4315 53.4315 40 70 40C86.5685 40 100 53.4315 100 70Z" fill="#B2C8EB" fill-opacity="0.75"/>
<path fill-rule="evenodd" clip-rule="evenodd" d="M64.5508 81.6968L87.8746 58.3357C88.5483 57.6609 88.5484 56.5668 87.8746 55.892C87.2009 55.2172 86.1086 55.2172 85.4348 55.892L64.5508 76.8094L55.1992 67.4429C54.5255 66.7681 53.4332 66.7681 52.7594 67.4429C52.0857 68.1177 52.0857 69.2118 52.7594 69.8866L64.5508 81.6968Z" fill="white"/>
<path d="M35.064 98.1715L65.1587 25.2744C66.7998 25.0931 68.4674 25 70.1568 25C84.1678 25 96.6832 31.4032 104.936 41.443L74.661 114.777C73.1796 114.925 71.677 115 70.1568 115C55.9674 115 43.3118 108.433 35.064 98.1715Z" fill="white" fill-opacity="0.25"/>
<path d="M95.5 5L96.8489 8.36483C97.107 9.00884 97.6571 9.5166 98.3548 9.7549L102 11L98.3548 12.2451C97.6571 12.4834 97.107 12.9912 96.8489 13.6352L95.5 17L94.1511 13.6352C93.893 12.9912 93.3429 12.4834 92.6452 12.2451L89 11L92.6452 9.7549C93.3429 9.5166 93.893 9.00884 94.1511 8.36483L95.5 5Z" fill="#B2C8EB"/>
<path d="M14.5 89L15.6413 92.0844C15.8598 92.6748 16.3252 93.1402 16.9156 93.3587L20 94.5L16.9156 95.6413C16.3252 95.8598 15.8598 96.3252 15.6413 96.9156L14.5 100L13.3587 96.9156C13.1402 96.3252 12.6748 95.8598 12.0844 95.6413L9 94.5L12.0844 93.3587C12.6748 93.1402 13.1402 92.6748 13.3587 92.0844L14.5 89Z" fill="#B2C8EB"/>
<path d="M114 26L114.903 28.4416C115.187 29.2083 115.792 29.8128 116.558 30.0965L119 31L116.558 31.9035C115.792 32.1872 115.187 32.7917 114.903 33.5584L114 36L113.097 33.5584C112.813 32.7917 112.208 32.1872 111.442 31.9035L109 31L111.442 30.0965C112.208 29.8128 112.813 29.2083 113.097 28.4416L114 26Z" fill="#B2C8EB"/>
</svg>