<svg width="24" height="24" viewBox="0 0 24 24" fill="none" xmlns="http://www.w3.org/2000/svg">
<path d="M11.9968 8C12.3558 8 12.6468 8.29101 12.6468 8.64998V11.3312H15.3464C15.7054 11.3312 15.9964 11.6222 15.9964 11.9812C15.9964 12.3402 15.7054 12.6312 15.3464 12.6312H12.6468V15.3455C12.6468 15.7044 12.3558 15.9954 11.9968 15.9954C11.6378 15.9954 11.3468 15.7044 11.3468 15.3455V12.6312H8.65002C8.29102 12.6312 8 12.3402 8 11.9812C8 11.6222 8.29102 11.3312 8.65001 11.3312H11.3468V8.64998C11.3468 8.29101 11.6378 8 11.9968 8Z" fill="white" fill-opacity="0.4"/>
<path fill-rule="evenodd" clip-rule="evenodd" d="M12 22C17.5228 22 22 17.5228 22 12C22 6.47715 17.5228 2 12 2C6.47715 2 2 6.47715 2 12C2 17.5228 6.47715 22 12 22ZM20.7 12C20.7 16.8049 16.8049 20.7 12 20.7C7.19512 20.7 3.3 16.8049 3.3 12C3.3 7.19512 7.19512 3.3 12 3.3C16.8049 3.3 20.7 7.19512 20.7 12Z" fill="white" fill-opacity="0.4"/>
</svg>
