<svg xmlns="http://www.w3.org/2000/svg" width="24" height="24" viewBox="0 0 24 24" fill="none">
<path fill-rule="evenodd" clip-rule="evenodd" d="M12.207 2.0744L11.9981 2.00305L11.789 2.07361L3.46015 4.88412L3.01762 5.03344L3.01797 5.50048C3.01878 6.584 3.14012 7.74134 3.27837 8.71289C3.32895 9.06829 3.65806 9.3154 4.01346 9.26483C4.36887 9.21425 4.61598 8.88514 4.56541 8.52974C4.4519 7.73208 4.35375 6.82809 4.32587 5.964L11.9956 3.37594L19.5692 5.96331C19.5335 7.82466 19.2831 9.4405 18.8888 10.8537C18.1411 13.5328 16.8675 15.5128 15.5077 17.073C15.1074 17.5322 14.699 17.9559 14.2929 18.3513C14.0357 18.6017 14.0302 19.0132 14.2806 19.2704C14.531 19.5277 14.9425 19.5332 15.1997 19.2827C15.6262 18.8676 16.0599 18.418 16.4877 17.9271C17.9479 16.2517 19.3313 14.1042 20.1409 11.2031C20.6014 9.55288 20.8736 7.66833 20.8736 5.5V5.03517L20.4337 4.8849L12.207 2.0744ZM3.99844 13.0303C3.99844 11.3726 5.34228 10.0288 7 10.0288C8.65772 10.0288 10.0016 11.3726 10.0016 13.0303V14H10.75C11.4404 14 12 14.597 12 15.3334V20.6667C12 21.4031 11.4404 22 10.75 22H3.25C2.55964 22 2 21.4031 2 20.6667V15.3334C2 14.597 2.55964 14 3.25 14H3.99844V13.0303ZM8.70156 13.0303V14H5.29844V13.0303C5.29844 12.0906 6.06025 11.3288 7 11.3288C7.93975 11.3288 8.70156 12.0906 8.70156 13.0303ZM8.00781 17.5162C8.00781 17.9137 7.77643 18.2571 7.44115 18.4188V19.0811C7.44115 19.3207 7.24714 19.5149 7.00781 19.5149C6.76849 19.5149 6.57448 19.3207 6.57448 19.0811V18.4188C6.2392 18.2571 6.00781 17.9137 6.00781 17.5162C6.00781 16.9632 6.45553 16.5149 7.00781 16.5149C7.5601 16.5149 8.00781 16.9632 8.00781 17.5162Z" fill="white" fill-opacity="0.54"/>
</svg>