<svg width="20" height="20" viewBox="0 0 20 20" fill="none" xmlns="http://www.w3.org/2000/svg">
<path fill-rule="evenodd" clip-rule="evenodd" d="M3.08407 3.79105C2.88881 3.59579 2.88881 3.27921 3.08407 3.08395C3.27933 2.88868 3.59591 2.88868 3.79118 3.08395L10.0005 9.29329L16.2099 3.08395C16.4051 2.88868 16.7217 2.88868 16.917 3.08395C17.1122 3.27921 17.1122 3.59579 16.917 3.79105L10.7076 10.0004L16.9148 16.2076C17.11 16.4028 17.11 16.7194 16.9148 16.9147C16.7195 17.1099 16.4029 17.1099 16.2077 16.9147L10.0005 10.7075L3.79336 16.9147C3.5981 17.1099 3.28152 17.1099 3.08626 16.9147C2.891 16.7194 2.891 16.4028 3.08626 16.2076L9.29341 10.0004L3.08407 3.79105Z" fill="#2979FF"/>
</svg>
