<svg width="50" height="45" viewBox="0 0 50 45" fill="none" xmlns="http://www.w3.org/2000/svg">
<g clip-path="url(#clip0_3598_23266)">
<path d="M10.9592 36.1364C12.0246 36.8009 13.7956 37.5395 15.6681 37.5395C17.3732 37.5395 18.9575 37.0453 20.2699 36.2023C20.2699 36.2023 20.2727 36.2023 20.2754 36.1996L25.2315 33.1024V44.2857C24.4462 44.2857 23.6554 44.0716 22.969 43.6432L10.9592 36.1364Z" fill="#225086"/>
<path d="M22.0821 1.74639L1.48925 24.9751C-0.100522 26.7708 0.314081 29.4836 2.37611 30.7713C2.37611 30.7713 9.99821 35.5351 10.9592 36.1365C12.0246 36.8009 13.7955 37.5395 15.6681 37.5395C17.3732 37.5395 18.9575 37.0453 20.2699 36.2024C20.2699 36.2024 20.2727 36.2024 20.2754 36.1996L25.2314 33.1024L13.2491 25.6121L25.2342 12.0922V0.354309C24.07 0.354309 22.9058 0.818335 22.0821 1.74639Z" fill="#66DDFF"/>
<path d="M13.2491 25.6121L13.3919 25.7L25.2314 33.1024H25.2342V12.095L25.2314 12.0922L13.2491 25.6121Z" fill="#CBF8FF"/>
<path d="M48.0868 30.7713C50.1489 29.4836 50.5635 26.7708 48.9737 24.9751L35.462 9.73363C34.372 9.22568 33.1501 8.93463 31.8569 8.93463C29.3171 8.93463 27.0464 10.0302 25.5363 11.7517L25.237 12.0895L37.2193 25.6094L25.2343 33.0997V44.283C26.0223 44.283 26.8075 44.0688 27.494 43.6405L48.0868 30.7685V30.7713Z" fill="#074793"/>
<path d="M25.2342 0.354309V12.0922L25.5335 11.7545C27.0436 10.033 29.3143 8.93741 31.8541 8.93741C33.1501 8.93741 34.3692 9.2312 35.4592 9.73641L28.378 1.74913C27.5571 0.821081 26.3929 0.357055 25.2314 0.357055L25.2342 0.354309Z" fill="#0294E4"/>
<path d="M37.2165 25.6121L25.2343 12.095V33.0997L37.2165 25.6121Z" fill="#96BCC2"/>
</g>
<defs>
<clipPath id="clip0_3598_23266">
<rect width="49.4229" height="44.64" fill="white" transform="translate(0.52002)"/>
</clipPath>
</defs>
</svg>
