<svg width="46" height="45" viewBox="0 0 46 45" fill="none" xmlns="http://www.w3.org/2000/svg">
<path d="M22.9994 38.595C22.6039 38.595 22.2727 38.4613 22.0056 38.1939C21.7386 37.9265 21.605 37.5953 21.605 37.2V29.76C21.605 29.3648 21.7388 29.0335 22.0062 28.7661C22.2737 28.4987 22.6052 28.365 23.0006 28.365C23.396 28.365 23.7273 28.4987 23.9943 28.7661C24.2614 29.0335 24.3949 29.3648 24.3949 29.76V32.085H37.88C38.2752 32.085 38.6066 32.2188 38.8739 32.4863C39.1413 32.7537 39.2749 33.0852 39.2749 33.4806C39.2749 33.876 39.1413 34.2073 38.8739 34.4744C38.6066 34.7414 38.2752 34.875 37.88 34.875H24.3949V37.2C24.3949 37.5953 24.2612 37.9265 23.9937 38.1939C23.7262 38.4613 23.3948 38.595 22.9994 38.595ZM8.11999 34.875C7.72474 34.875 7.39344 34.7412 7.1261 34.4738C6.85872 34.2063 6.72504 33.8748 6.72504 33.4794C6.72504 33.084 6.85872 32.7527 7.1261 32.4856C7.39344 32.2186 7.72474 32.085 8.11999 32.085H15.56C15.9552 32.085 16.2865 32.2188 16.5539 32.4863C16.8213 32.7537 16.9549 33.0852 16.9549 33.4806C16.9549 33.876 16.8213 34.2073 16.5539 34.4744C16.2865 34.7414 15.9552 34.875 15.56 34.875H8.11999ZM15.5594 27.435C15.1639 27.435 14.8327 27.3013 14.5656 27.0339C14.2986 26.7665 14.165 26.4353 14.165 26.04V23.715H8.11999C7.72474 23.715 7.39344 23.5812 7.1261 23.3138C6.85872 23.0463 6.72504 22.7148 6.72504 22.3194C6.72504 21.924 6.85872 21.5927 7.1261 21.3256C7.39344 21.0586 7.72474 20.925 8.11999 20.925H14.165V18.6C14.165 18.2048 14.2988 17.8734 14.5662 17.6061C14.8337 17.3387 15.1652 17.205 15.5606 17.205C15.956 17.205 16.2873 17.3387 16.5543 17.6061C16.8214 17.8734 16.9549 18.2048 16.9549 18.6V26.04C16.9549 26.4353 16.8212 26.7665 16.5537 27.0339C16.2862 27.3013 15.9548 27.435 15.5594 27.435ZM23 23.715C22.6047 23.715 22.2734 23.5812 22.0061 23.3138C21.7387 23.0463 21.605 22.7148 21.605 22.3194C21.605 21.924 21.7387 21.5927 22.0061 21.3256C22.2734 21.0586 22.6047 20.925 23 20.925H37.88C38.2752 20.925 38.6066 21.0588 38.8739 21.3262C39.1413 21.5937 39.2749 21.9252 39.2749 22.3206C39.2749 22.716 39.1413 23.0473 38.8739 23.3144C38.6066 23.5814 38.2752 23.715 37.88 23.715H23ZM30.4394 16.275C30.0439 16.275 29.7127 16.1413 29.4456 15.8739C29.1786 15.6066 29.045 15.2752 29.045 14.88V7.44C29.045 7.04475 29.1788 6.71344 29.4462 6.44606C29.7137 6.17872 30.0452 6.04504 30.4406 6.04504C30.836 6.04504 31.1673 6.17872 31.4343 6.44606C31.7014 6.71344 31.8349 7.04475 31.8349 7.44V9.76504H37.88C38.2752 9.76504 38.6066 9.89878 38.8739 10.1662C39.1413 10.4337 39.2749 10.7652 39.2749 11.1606C39.2749 11.556 39.1413 11.8873 38.8739 12.1544C38.6066 12.4214 38.2752 12.555 37.88 12.555H31.8349V14.88C31.8349 15.2752 31.7012 15.6066 31.4337 15.8739C31.1662 16.1413 30.8348 16.275 30.4394 16.275ZM8.11999 12.555C7.72474 12.555 7.39344 12.4212 7.1261 12.1537C6.85872 11.8863 6.72504 11.5548 6.72504 11.1594C6.72504 10.764 6.85872 10.4327 7.1261 10.1656C7.39344 9.89858 7.72474 9.76504 8.11999 9.76504H23C23.3952 9.76504 23.7265 9.89878 23.9939 10.1662C24.2613 10.4337 24.3949 10.7652 24.3949 11.1606C24.3949 11.556 24.2613 11.8873 23.9939 12.1544C23.7265 12.4214 23.3952 12.555 23 12.555H8.11999Z" fill="black"/>
</svg>
