<?xml version="1.0" encoding="UTF-8"?>
<!DOCTYPE svg PUBLIC "-//W3C//DTD SVG 1.1//EN" "http://www.w3.org/Graphics/SVG/1.1/DTD/svg11.dtd">
<svg xmlns="http://www.w3.org/2000/svg" version="1.1" width="96px" height="96px" style="shape-rendering:geometricPrecision; text-rendering:geometricPrecision; image-rendering:optimizeQuality; fill-rule:evenodd; clip-rule:evenodd" xmlns:xlink="http://www.w3.org/1999/xlink">
<g><path style="opacity:1" fill="#bc1e24" d="M -0.5,-0.5 C 31.5,-0.5 63.5,-0.5 95.5,-0.5C 95.5,31.5 95.5,63.5 95.5,95.5C 63.5,95.5 31.5,95.5 -0.5,95.5C -0.5,63.5 -0.5,31.5 -0.5,-0.5 Z"/></g>
<g><path style="opacity:1" fill="#fcfafa" d="M 11.5,36.5 C 15.8333,36.5 20.1667,36.5 24.5,36.5C 24.5,40.8333 24.5,45.1667 24.5,49.5C 20.1667,49.5 15.8333,49.5 11.5,49.5C 11.5,45.1667 11.5,40.8333 11.5,36.5 Z"/></g>
<g><path style="opacity:1" fill="#fdfcfc" d="M 31.5,36.5 C 39.1739,36.3336 46.8406,36.5003 54.5,37C 66.4774,40.1588 72.144,47.9921 71.5,60.5C 72.2736,73.1554 66.607,80.9888 54.5,84C 46.8406,84.4997 39.1739,84.6664 31.5,84.5C 31.5,68.5 31.5,52.5 31.5,36.5 Z"/></g>
<g><path style="opacity:1" fill="#bd2326" d="M 44.5,46.5 C 53.8691,46.0346 58.5357,50.5346 58.5,60C 59.1593,70.2647 54.4927,75.4314 44.5,75.5C 44.5,65.8333 44.5,56.1667 44.5,46.5 Z"/></g>
<g><path style="opacity:1" fill="#fdfcfc" d="M 11.5,55.5 C 15.8333,55.5 20.1667,55.5 24.5,55.5C 24.5,65.1667 24.5,74.8333 24.5,84.5C 20.1667,84.5 15.8333,84.5 11.5,84.5C 11.5,74.8333 11.5,65.1667 11.5,55.5 Z"/></g>
</svg>
