<svg width="144" height="48" viewBox="0 0 144 48" fill="none" xmlns="http://www.w3.org/2000/svg">
<g clip-path="url(#clip0_4873_23389)">
<path fill-rule="evenodd" clip-rule="evenodd" d="M0 34.1853H23.1579V12.08H0V34.1853Z" fill="#B8232F"/>
<path fill-rule="evenodd" clip-rule="evenodd" d="M118.163 18.6897L120.103 18.38V30.9984H118.163V18.6897ZM125.771 20.1149V28.0721C125.771 29.4359 126.131 29.9074 127.305 29.9074C127.832 29.9074 127.693 29.9131 128.029 29.739L128.294 30.9791C127.693 31.2999 127.472 31.3929 126.633 31.3929C126.01 31.3929 125.532 31.2704 125.075 31.0471C124.238 30.626 123.926 29.8329 123.926 28.5924V20.1149H122.369V18.6528H123.926V13.9747H125.844V18.6528H128.84L128.265 20.1149H125.771ZM141.135 30.6284C140.39 30.6284 139.789 30.0184 139.789 29.1749C139.789 28.3306 140.39 27.7214 141.135 27.7214C141.881 27.7214 142.483 28.3306 142.483 29.1749C142.483 30.0184 141.881 30.6284 141.135 30.6284ZM141.135 27.3707C140.154 27.3707 139.354 28.1806 139.354 29.1749C139.354 30.1684 140.154 30.9775 141.135 30.9775C142.118 30.9775 142.917 30.1684 142.917 29.1749C142.917 28.1806 142.118 27.3707 141.135 27.3707ZM140.825 29.0201V28.435H141.16C141.353 28.435 141.57 28.4744 141.57 28.7144C141.57 28.9893 141.378 29.0201 141.156 29.0201H140.825ZM141.946 28.7456C141.946 28.3154 141.683 28.1454 141.199 28.1454H140.45V30.1901H140.825V29.3097H141.052L141.575 30.1901H141.96L141.418 29.2954C141.748 29.2638 141.946 29.0946 141.946 28.7456ZM140.332 18.6528L136.234 31.4429C135.419 33.9235 134.46 35.5589 132.376 36.08L131.825 34.7662C132.991 34.388 133.603 33.8382 134.113 32.4949C133.921 31.5207 133.813 31.0971 133.813 31.0971C133.67 30.304 133.022 27.898 132.615 26.6595L130.049 18.9257L131.897 18.2796L134.341 26.2867C134.7 27.4535 135.059 29.3609 135.059 29.3609H135.108C135.108 29.3609 135.562 27.7751 135.851 26.7591L138.198 18.6528H140.332ZM82.6207 27.8492C82.6207 27.8492 82.4043 28.3699 81.9013 28.7423C81.1336 29.3113 80.5822 29.535 79.6019 29.535C78.4992 29.535 77.7554 29.1139 77.2049 28.0971C76.8206 27.3789 76.7255 26.3121 76.7255 24.8741C76.7255 23.1392 76.9161 22.2473 77.4919 21.3051C77.9953 20.4623 78.7858 20.0162 79.7219 20.0162C81.1336 20.0162 82.0221 20.4386 82.6207 21.3051V27.8492ZM84.5139 13.9747H82.6442V18.0838C82.6442 18.9748 82.6678 19.9916 82.6678 19.9916C81.9502 19.0002 80.7741 18.4304 79.434 18.4304C78.5703 18.4304 77.8998 18.6528 77.1325 19.1985C75.5027 20.3624 74.6652 22.2965 74.6652 24.9237C74.6652 28.8644 76.4384 31.17 79.5278 31.17C80.9185 31.17 81.8302 30.7501 82.6918 29.7341C82.7153 30.3765 82.9557 30.9984 82.9557 30.9984H84.8733C84.6081 30.2782 84.5139 29.138 84.5139 27.0081V13.9747ZM113.045 18.6778H116.128L115.554 20.1399H112.973V28.0971C112.973 29.4613 113.332 29.9332 114.506 29.9332C115.034 29.9332 114.895 29.939 115.231 29.764L115.496 31.0045C114.895 31.3257 114.674 31.4187 113.835 31.4187C113.212 31.4187 112.734 31.2958 112.277 31.0729C111.44 30.6514 111.127 29.8578 111.127 28.6178V20.1399H109.571V18.6778H111.127V14.0005H113.045V18.6778ZM107.605 20.1895C107.796 20.6361 107.893 21.1309 107.893 21.6279V30.9992H105.999V22.6439C105.999 21.3292 105.903 21.0084 105.567 20.5861C105.305 20.2645 104.8 20.0654 104.249 20.0654C103.289 20.0654 101.806 20.8606 100.943 21.8012V30.9992H99.1216V21.4796C99.1216 19.7188 98.6675 18.8761 98.6675 18.8761L100.487 18.355C100.487 18.355 100.92 19.2706 100.92 20.2891C102.164 19.0002 103.409 18.38 104.681 18.38C105.975 18.38 107.126 19.0998 107.605 20.1895ZM89.0989 23.684C89.1932 21.1301 90.1524 19.8421 91.8533 19.8421C92.765 19.8421 93.6026 20.2645 94.0096 20.9327C94.3695 21.5275 94.5374 22.346 94.561 23.684H89.0989ZM91.9493 18.3296C90.5106 18.3296 89.3371 18.8761 88.3787 20.0404C87.3728 21.2821 86.9422 22.6189 86.9422 24.7017C86.9422 28.7927 88.9293 31.2704 92.2372 31.2704C93.7714 31.2704 95.2096 30.7255 96.2623 29.7341L95.5429 28.4928C94.7053 29.2872 93.7714 29.6579 92.6198 29.6579C91.421 29.6579 90.3191 29.2126 89.6486 28.1466C89.2407 27.5038 89.0989 26.6099 89.0989 25.4456V25.147H96.5493V24.8741C96.503 21.9257 96.2134 20.7602 95.1856 19.668C94.3695 18.8019 93.2431 18.3296 91.9493 18.3296ZM70.1354 30.9984H72.053V13.9923H70.1354V30.9984Z" fill="#263746"/>
<path fill-rule="evenodd" clip-rule="evenodd" d="M68.1226 18.0998L69.4737 20.1737C68.7729 20.8323 68.0985 21.101 67.2059 21.101C66.8919 21.101 66.5528 21.0533 66.3597 21.029C66.8425 21.6125 67.0858 22.2473 67.0858 23.0769C67.0858 25.2231 65.1537 26.7859 62.5233 26.7859C62.3779 26.7859 62.2813 26.7859 62.0407 26.7609C61.221 27.1522 60.7625 27.4446 60.7625 27.7854C60.7625 27.9562 60.9545 28.0788 61.2929 28.0788L63.0314 28.1032C64.9126 28.1272 65.9016 28.4196 66.7712 29.2258C67.4943 29.9084 67.8335 30.7623 67.8335 31.8853C67.8335 32.9342 67.5192 33.7387 66.8425 34.47C65.7577 35.642 63.8978 36.08 61.9677 36.08C60.2076 36.08 58.3968 35.788 57.2874 34.7384C56.6114 34.1048 56.274 33.3714 56.274 32.5195C56.274 31.8362 56.4419 31.4934 56.5632 31.2504H59.5559C59.4345 31.5435 59.4097 31.713 59.4097 32.0541C59.4097 33.0553 60.2321 33.5907 61.7282 33.5907C62.5481 33.5907 63.2485 33.495 63.7545 33.1767C64.2369 32.8843 64.5502 32.4214 64.5502 31.9086C64.5502 30.7873 63.5618 30.4449 62.2813 30.4205L60.9063 30.3958C59.459 30.3705 58.5184 30.2502 57.9384 30.0052C57.3583 29.7863 56.9975 29.2258 56.9975 28.3716C56.9975 27.5671 57.2378 26.8093 59.2657 26.2738C57.4796 25.8096 56.6114 24.6629 56.6114 22.8095C56.6114 20.2478 58.6631 18.5892 61.8234 18.5892C62.5233 18.5892 63.1505 18.6866 64.0442 18.9053C64.7185 19.0755 65.1537 19.1744 65.5643 19.1744C66.4569 19.1744 67.374 18.784 68.1226 18.0998ZM47.6074 18.4913C47.898 19.0041 48.0667 19.5398 48.0667 20.052C48.549 19.7097 48.9595 19.4169 49.4909 19.1248C50.142 18.784 50.9875 18.5892 51.7105 18.5892C53.0863 18.5892 54.2929 19.3198 54.6787 20.3944C54.8475 20.8575 54.9203 21.3938 54.9203 22.1746V31.2991H51.7339V23.1748C51.7339 21.7604 51.4935 21.3461 50.6484 21.3461C49.9982 21.3461 49.1538 21.7854 48.4059 22.467V31.2991H45.1706V22.2473C45.1706 21.1739 45.0256 20.1494 44.7368 19.3198L47.6074 18.4913ZM42.5392 18.514V31.2991H39.3064V19.0264L42.5392 18.514ZM30.8816 14.3437C33.7288 14.3437 34.598 14.6358 35.5404 15.1729C37.1071 16.0515 37.9509 17.6124 37.9509 19.5652C37.9509 21.8088 36.8903 23.6143 35.0568 24.4923C34.2844 24.8582 33.5597 25.0537 31.7023 25.0537H29.8449V31.2991H26.4662V14.3437H30.8816ZM61.7989 20.9789C60.5688 20.9789 59.8685 21.6632 59.8685 22.8335C59.8685 24.1024 60.6409 24.6139 61.7752 24.6139C63.0548 24.6139 63.7545 23.9802 63.7545 22.8335C63.7545 21.6632 63.0314 20.9789 61.7989 20.9789ZM31.9907 17.0996H29.8449V22.2722H31.6062C32.9814 22.2722 33.3921 22.1012 33.8492 21.3938C34.1404 20.9315 34.2596 20.4428 34.2596 19.6369C34.2596 18.0514 33.4155 17.0996 31.9907 17.0996ZM40.9706 13.3432C42.0567 13.3432 42.9262 14.2461 42.9262 15.3678C42.9262 16.4897 42.0322 17.3933 40.9221 17.3933C39.8371 17.3933 38.9437 16.4897 38.9437 15.3678C38.9437 14.2461 39.861 13.3432 40.9706 13.3432Z" fill="#263746"/>
</g>
<defs>
<clipPath id="clip0_4873_23389">
<rect width="144" height="24" fill="white" transform="translate(0 12.08)"/>
</clipPath>
</defs>
</svg>
