<svg width="144" height="48" viewBox="0 0 144 48" fill="none" xmlns="http://www.w3.org/2000/svg">
<g clip-path="url(#clip0_4873_23350)">
<g clip-path="url(#clip1_4873_23350)">
<g clip-path="url(#clip2_4873_23350)">
<path d="M126.403 31.0256C122.663 31.0256 120.027 28.1071 120.027 24.2689C120.027 20.4307 122.663 17.5122 126.403 17.5122C130.143 17.5122 132.706 20.4307 132.706 24.2689C132.706 28.1071 130.106 31.0256 126.403 31.0256ZM125.802 35.0477C128.819 35.0477 131.382 33.8705 133 31.4057C133.307 33.7969 135.036 34.6676 137.219 34.6676H138.96V30.8784H138.212C136.973 30.8784 136.667 30.2776 136.667 28.8674V13.8825H132.669V16.9604C131.308 14.8022 128.745 13.5023 125.802 13.5023C120.554 13.5023 115.735 17.9046 115.735 24.2689C115.735 30.6332 120.566 35.0355 125.802 35.0355V35.0477ZM105.213 29.8484C105.213 33.2574 107.322 34.6676 109.849 34.6676H114.717V30.8784H111.173C109.701 30.8784 109.395 30.3144 109.395 28.8674V17.6716H114.717V13.8825H109.395V6.90503H105.213V29.8484ZM86.1695 34.6676H90.351V25.7527H91.7489L98.8735 34.6676H104.159L95.0721 23.3615L102.05 13.8825H97.3407L91.6386 21.8899H90.351V6.90503H86.1695V34.6676ZM72.5947 13.5023C66.7455 13.5023 61.9263 17.9046 61.9263 24.2689C61.9263 30.6332 66.7577 35.0355 72.5947 35.0355C78.4318 35.0355 83.2632 30.6332 83.2632 24.2689C83.2632 17.9046 78.4318 13.5023 72.5947 13.5023ZM72.5947 31.0256C68.8546 31.0256 66.2182 28.1071 66.2182 24.2689C66.2182 20.4307 68.8546 17.5122 72.5947 17.5122C76.3348 17.5122 78.9713 20.4307 78.9713 24.2689C78.9713 28.1071 76.3348 31.0256 72.5947 31.0256Z" fill="black"/>
<path fill-rule="evenodd" clip-rule="evenodd" d="M29.3201 2.31883L28.4126 13.5023C27.9834 13.4533 27.5543 13.4288 27.1128 13.4288C26.561 13.4288 26.0214 13.4655 25.4941 13.5514L24.9791 8.13131C24.9668 7.95964 25.1017 7.81248 25.2734 7.81248H26.1931L25.7516 2.3311C25.7394 2.15942 25.8743 2.01227 26.0337 2.01227H29.038C29.2097 2.01227 29.3446 2.15942 29.3201 2.3311V2.31883ZM21.7418 2.87065C21.6927 2.71124 21.521 2.61314 21.3616 2.67445L18.5412 3.70451C18.3818 3.76582 18.3082 3.94976 18.3818 4.09691L20.6749 9.10006L19.8043 9.41889C19.6449 9.4802 19.5713 9.66414 19.6449 9.81129L21.987 14.7286C22.8331 14.2626 23.7528 13.907 24.7216 13.6863L21.754 2.87065H21.7418ZM14.8257 5.98535L21.3126 15.1333C20.491 15.6728 19.743 16.3105 19.1053 17.0462L15.2181 13.2203C15.0954 13.0977 15.1077 12.9015 15.2303 12.7911L15.9416 12.2025L12.0788 8.29073C11.9562 8.1681 11.9685 7.9719 12.1034 7.86153L14.3965 5.9363C14.5314 5.82594 14.7153 5.85047 14.8134 5.98535H14.8257ZM9.38105 11.2828C9.24617 11.1847 9.04996 11.2338 8.96413 11.3809L7.46809 13.9806C7.38225 14.1277 7.44356 14.3117 7.59071 14.3852L12.5693 16.7397L12.1034 17.5367C12.0175 17.6839 12.0788 17.8801 12.2382 17.9414L17.1923 20.21C17.548 19.2903 18.0262 18.4319 18.6148 17.6594L9.38105 11.2828ZM5.71453 18.3461C5.73906 18.1744 5.91074 18.0763 6.07015 18.1131L16.9226 20.9457C16.6405 21.8654 16.4811 22.8342 16.4566 23.8397L11.0242 23.3983C10.8526 23.386 10.7299 23.2266 10.7667 23.0549L10.9261 22.1475L5.44476 21.6325C5.27308 21.6202 5.16272 21.4608 5.18724 21.2891L5.70227 18.3338L5.71453 18.3461ZM5.30987 25.6791C5.13819 25.6914 5.02783 25.8508 5.05235 26.0225L5.57964 28.9778C5.60417 29.1494 5.77585 29.2475 5.93526 29.2107L11.2572 27.8251L11.4166 28.7325C11.4412 28.9042 11.6129 29.0023 11.7723 28.9655L17.0207 27.5185C16.7141 26.6111 16.5179 25.6423 16.4688 24.6491L5.2976 25.6791H5.30987ZM7.05116 33.4536C6.96532 33.3065 7.02663 33.1225 7.17378 33.0489L17.3027 28.242C17.6828 29.1494 18.1979 29.9956 18.811 30.7558L14.3719 33.9196C14.2371 34.0177 14.0408 33.9809 13.955 33.8337L13.489 33.0244L8.96413 36.1514C8.82924 36.2495 8.63304 36.2004 8.5472 36.0533L7.0389 33.4536H7.05116ZM19.326 31.3444L11.4412 39.3274C11.3185 39.45 11.3308 39.6462 11.4657 39.7566L13.7711 41.6818C13.906 41.7922 14.0899 41.7677 14.188 41.6328L17.3763 37.1447L18.0875 37.7455C18.2224 37.8559 18.4186 37.8314 18.5167 37.6842L21.6069 33.1961C20.773 32.6811 20.0005 32.0557 19.3383 31.3444H19.326ZM17.7687 44.1589C17.6093 44.0976 17.5357 43.9136 17.6093 43.7665L22.2813 33.564C23.1397 34.0054 24.0717 34.3365 25.0404 34.5205L23.667 39.7934C23.6302 39.9528 23.4463 40.0509 23.2869 39.9896L22.4162 39.6708L20.957 44.9805C20.9079 45.1399 20.7362 45.238 20.5768 45.1767L17.7564 44.1466L17.7687 44.1589ZM25.813 34.6553L24.9055 45.8389C24.8933 46.0105 25.0282 46.1577 25.1876 46.1577H28.1919C28.3636 46.1577 28.4985 46.0105 28.4739 45.8389L28.0325 40.3575H28.9522C29.1239 40.3575 29.2588 40.2103 29.2465 40.0386L28.7315 34.6186C28.2042 34.7044 27.6646 34.7412 27.1128 34.7412C26.6713 34.7412 26.2422 34.7167 25.813 34.6553ZM36.6286 4.37895C36.7022 4.21954 36.6286 4.04786 36.4692 3.98655L33.6488 2.95649C33.4894 2.89518 33.3177 2.99328 33.2686 3.15269L31.8094 8.4624L30.9387 8.14357C30.7793 8.08226 30.6076 8.18036 30.5586 8.33978L29.1852 13.6127C30.1662 13.8089 31.0859 14.14 31.9443 14.5692L36.6286 4.37895ZM42.7844 8.83028L34.8996 16.8132C34.2374 16.102 33.4771 15.4766 32.631 14.9616L35.7212 10.4735C35.8193 10.3386 36.0155 10.3018 36.1503 10.4122L36.8616 11.013L40.0499 6.52491C40.148 6.39002 40.3442 6.3655 40.4668 6.47586L42.7722 8.40109C42.907 8.51145 42.907 8.70765 42.7967 8.83028H42.7844ZM47.0518 15.1087C47.2112 15.0352 47.2603 14.8512 47.1744 14.7041L45.6661 12.1044C45.5803 11.9572 45.3841 11.9205 45.2492 12.0063L40.7243 15.1333L40.2583 14.3362C40.1725 14.189 39.9763 14.14 39.8414 14.2504L35.4023 17.4141C36.0155 18.1744 36.5182 19.0205 36.9106 19.9279L47.0395 15.121L47.0518 15.1087ZM48.646 19.1799L49.161 22.1352C49.1855 22.3069 49.0751 22.454 48.9035 22.4786L37.7322 23.5209C37.6832 22.5154 37.487 21.5589 37.1804 20.6514L42.4288 19.2045C42.5882 19.1554 42.7599 19.2658 42.7844 19.4374L42.9438 20.3449L48.2658 18.9592C48.4252 18.9224 48.5969 19.0205 48.6214 19.1922L48.646 19.1799ZM48.1432 30.0323C48.3026 30.0691 48.4743 29.971 48.4988 29.7994L49.0138 26.8441C49.0384 26.6724 48.928 26.5252 48.7563 26.5007L43.2749 25.9857L43.4343 25.0782C43.4589 24.9066 43.3485 24.7594 43.1768 24.7349L37.7445 24.2934C37.72 25.299 37.5605 26.2677 37.2785 27.1874L48.1309 30.0201L48.1432 30.0323ZM45.2492 36.7768C45.1634 36.9239 44.9672 36.9607 44.8323 36.8749L35.5985 30.4983C36.1871 29.7258 36.6654 28.8674 37.021 27.9477L41.9751 30.2163C42.1345 30.2899 42.1958 30.4738 42.11 30.6209L41.644 31.418L46.6226 33.7724C46.7698 33.846 46.8311 34.03 46.7452 34.1771L45.2492 36.7768ZM32.9008 33.0122L39.3877 42.1601C39.4858 42.295 39.682 42.3195 39.8046 42.2091L42.0977 40.2839C42.2326 40.1735 42.2326 39.9773 42.1222 39.8547L38.2595 35.9429L38.9707 35.3543C39.1056 35.244 39.1056 35.0477 38.983 34.9251L35.0958 31.0992C34.4458 31.8349 33.7101 32.4849 32.8885 33.0122H32.9008ZM32.8394 45.471C32.68 45.5323 32.5083 45.4342 32.4593 45.2748L29.4917 34.4591C30.4605 34.2384 31.3802 33.8828 32.2263 33.4168L34.5685 38.3341C34.642 38.4935 34.5685 38.6775 34.4091 38.7265L33.5384 39.0454L35.8315 44.0485C35.9051 44.2079 35.8315 44.3796 35.6721 44.4409L32.8517 45.471H32.8394Z" fill="black"/>
</g>
</g>
</g>
<defs>
<clipPath id="clip0_4873_23350">
<rect width="144" height="44.64" fill="white" transform="translate(0 2)"/>
</clipPath>
<clipPath id="clip1_4873_23350">
<rect width="133.92" height="44.64" fill="white" transform="translate(5.04004 2)"/>
</clipPath>
<clipPath id="clip2_4873_23350">
<rect width="133.92" height="44.1454" fill="white" transform="translate(5.04004 2)"/>
</clipPath>
</defs>
</svg>
