<svg width="144" height="48" viewBox="0 0 144 48" fill="none" xmlns="http://www.w3.org/2000/svg">
<g clip-path="url(#clip0_3598_23987)">
<path d="M75.2115 16.3517H76.9071L73.5337 28.9976H71.8734L69.1535 20.6612H69.0829L66.3629 28.9976H64.7027L61.188 16.3517H62.8835L65.5505 26.2953H65.6211L68.3587 18.0472H69.8776L72.6152 26.2953H72.6859L75.2115 16.3517Z" fill="#5F6368"/>
<mask id="mask0_3598_23987" style="mask-type:luminance" maskUnits="userSpaceOnUse" x="0" y="14" width="145" height="20">
<path d="M144.035 14.96H0V33.4149H144.035V14.96Z" fill="white"/>
</mask>
<g mask="url(#mask0_3598_23987)">
<path d="M76.7535 24.6704C76.7535 23.3401 77.1715 22.2392 78.0075 21.3677C78.8553 20.4963 79.9209 20.0607 81.2043 20.0607C82.4878 20.0607 83.5475 20.4963 84.3835 21.3677C85.2313 22.2392 85.6551 23.3401 85.6551 24.6704C85.6551 26.0127 85.2313 27.1137 84.3835 27.9732C83.5472 28.8448 82.4875 29.2804 81.2043 29.2802C79.9211 29.2799 78.8555 28.8439 78.0075 27.9721C77.1713 27.101 76.7533 26.0001 76.7535 24.6693M78.3784 24.6693C78.3784 25.5998 78.6493 26.3534 79.1909 26.9301C79.7325 27.5068 80.4037 27.7951 81.2043 27.7951C82.005 27.7951 82.6762 27.5068 83.2178 26.9301C83.7594 26.3534 84.0302 25.5998 84.0302 24.6693C84.0302 23.7509 83.7594 23.0032 83.2178 22.4263C82.6651 21.8378 81.994 21.5434 81.2043 21.5432C80.4147 21.5429 79.7433 21.8377 79.1902 22.4274C78.6483 23.0041 78.3775 23.7518 78.3777 24.6704" fill="#5F6368"/>
<path d="M88.4331 28.9976H86.8082V20.3433H88.3625V21.7562H88.4346C88.5994 21.297 88.938 20.9055 89.4503 20.5815C89.9626 20.2576 90.4659 20.0958 90.9602 20.096C91.431 20.096 91.8313 20.1667 92.1612 20.308L91.6652 21.8806C91.4648 21.7984 91.1469 21.7572 90.7115 21.7569C90.0992 21.7569 89.5665 22.0042 89.1133 22.4987C88.6601 22.9933 88.4334 23.57 88.4331 24.2289V28.9976Z" fill="#5F6368"/>
<path d="M100.524 28.9976H98.5638L95.8615 24.9177L94.5369 26.2247V28.9976H92.912V16.3517H94.5369V24.1406L98.2812 20.3433H100.365V20.4139L96.9919 23.7697L100.524 28.927V28.9976Z" fill="#5F6368"/>
<path d="M107.555 26.5956C107.555 27.3494 107.226 27.9853 106.566 28.5031C105.907 29.0209 105.077 29.28 104.076 29.2802C103.204 29.2802 102.439 29.0535 101.78 28.6001C101.134 28.164 100.64 27.5374 100.367 26.8076L101.815 26.1894C102.027 26.7077 102.336 27.1109 102.743 27.3991C103.13 27.6814 103.597 27.833 104.076 27.8316C104.595 27.8316 105.027 27.7197 105.374 27.496C105.721 27.2723 105.894 27.0074 105.895 26.7012C105.895 26.1485 105.471 25.7423 104.623 25.4826L103.139 25.1117C101.456 24.6878 100.614 23.8751 100.614 22.6736C100.614 21.8849 100.935 21.252 101.577 20.7748C102.219 20.2975 103.04 20.0592 104.04 20.0596C104.806 20.0596 105.498 20.2421 106.116 20.6072C106.734 20.9722 107.167 21.4608 107.414 22.0731L105.966 22.6736C105.8 22.3072 105.517 22.006 105.162 21.8168C104.781 21.6083 104.352 21.5018 103.917 21.5079C103.514 21.5019 103.119 21.6123 102.778 21.8258C102.441 22.0378 102.273 22.2968 102.273 22.6029C102.273 23.0975 102.738 23.4507 103.669 23.6627L104.976 23.9982C106.695 24.4221 107.554 25.2872 107.554 26.5935" fill="#5F6368"/>
<path d="M113.198 29.2802C112.562 29.2802 111.982 29.1448 111.458 28.874C110.935 28.6031 110.531 28.244 110.248 27.7966H110.176L110.248 28.9976V32.8126H108.624V20.3433H110.178V21.5443H110.25C110.532 21.0971 110.936 20.7379 111.46 20.4669C111.984 20.1958 112.564 20.0604 113.199 20.0607C114.341 20.0607 115.307 20.5081 116.096 21.403C116.908 22.3099 117.315 23.399 117.315 24.6704C117.315 25.9541 116.908 27.0432 116.096 27.9379C115.307 28.8327 114.342 29.2802 113.199 29.2802M112.934 27.7966C113.712 27.7966 114.365 27.5022 114.895 26.9135C115.424 26.3368 115.688 25.5891 115.688 24.6704C115.688 23.764 115.424 23.0163 114.895 22.4274C114.366 21.8384 113.713 21.544 112.934 21.5443C112.146 21.5443 111.486 21.8386 110.956 22.4274C110.438 23.0163 110.179 23.764 110.179 24.6704C110.179 25.5888 110.438 26.3424 110.956 26.9311C111.485 27.5079 112.144 27.7962 112.934 27.7962" fill="#5F6368"/>
<path d="M121.764 20.0607C122.965 20.0607 123.913 20.3815 124.608 21.0231C125.302 21.6647 125.649 22.5449 125.65 23.6637V28.9983H124.095V27.7966H124.023C123.352 28.7856 122.457 29.2802 121.339 29.2802C120.385 29.2802 119.587 28.9976 118.945 28.4324C118.303 27.8672 117.983 27.1607 117.983 26.313C117.983 25.4183 118.321 24.706 118.998 24.1759C119.675 23.6458 120.579 23.3809 121.71 23.3811C122.675 23.3811 123.47 23.5577 124.094 23.911V23.5386C124.094 22.9734 123.87 22.4936 123.423 22.099C122.992 21.7109 122.431 21.4997 121.851 21.5075C120.944 21.5075 120.226 21.8902 119.696 22.6555L118.266 21.7544C119.054 20.625 120.22 20.0603 121.762 20.0603M119.662 26.3501C119.662 26.774 119.842 27.1272 120.201 27.4098C120.56 27.6924 120.98 27.8337 121.462 27.8337C122.145 27.8337 122.754 27.5805 123.29 27.0742C123.826 26.5679 124.094 25.9733 124.094 25.2904C123.587 24.8903 122.881 24.6901 121.974 24.6899C121.315 24.6899 120.764 24.8488 120.323 25.1668C119.882 25.4847 119.661 25.8791 119.662 26.3501Z" fill="#5F6368"/>
<path d="M131.158 29.2802C129.875 29.2802 128.809 28.8445 127.962 27.9732C127.125 27.0786 126.707 25.9776 126.708 24.6704C126.708 23.3401 127.126 22.2392 127.962 21.3677C128.809 20.4963 129.875 20.0607 131.158 20.0607C132.041 20.0607 132.813 20.2814 133.472 20.7228C134.131 21.1642 134.626 21.7736 134.956 22.551L133.473 23.1692C133.014 22.0859 132.208 21.5443 131.054 21.5443C130.312 21.5443 129.67 21.8446 129.129 22.4454C128.599 23.0461 128.334 23.7879 128.334 24.6708C128.334 25.5536 128.599 26.2954 129.129 26.8962C129.67 27.4969 130.312 27.7973 131.054 27.7973C132.243 27.7973 133.079 27.2557 133.562 26.1724L135.01 26.7906C134.692 27.5677 134.195 28.177 133.517 28.6184C132.84 29.0598 132.054 29.2807 131.16 29.2809" fill="#5F6368"/>
<path d="M139.902 29.2802C138.631 29.2802 137.583 28.8445 136.759 27.9732C135.934 27.1019 135.522 26.001 135.522 24.6704C135.522 23.3519 135.923 22.2539 136.723 21.3763C137.524 20.4987 138.548 20.0602 139.796 20.0607C141.08 20.0607 142.101 20.4757 142.86 21.3057C143.62 22.1356 143.999 23.2984 143.998 24.7941L143.981 24.9707H137.182C137.206 25.8184 137.489 26.5014 138.03 27.0195C138.571 27.5375 139.219 27.7966 139.973 27.7966C141.009 27.7966 141.821 27.2785 142.41 26.2423L143.859 26.9488C143.489 27.6587 142.93 28.2519 142.242 28.662C141.553 29.0739 140.773 29.2799 139.902 29.2802ZM137.307 23.6284H142.268C142.22 23.0276 141.976 22.5301 141.535 22.1358C141.094 21.7414 140.503 21.5443 139.76 21.5443C139.148 21.5443 138.621 21.7327 138.179 22.1095C137.738 22.4862 137.447 22.9925 137.305 23.6284" fill="#5F6368"/>
</g>
<mask id="mask1_3598_23987" style="mask-type:luminance" maskUnits="userSpaceOnUse" x="0" y="14" width="145" height="20">
<path d="M144.035 14.96H0V33.4149H144.035V14.96Z" fill="white"/>
</mask>
<g mask="url(#mask1_3598_23987)">
<path d="M7.29545 23.4514V21.4956H13.8412C13.9138 21.8912 13.9492 22.2927 13.9468 22.6949C13.9468 24.1612 13.5456 25.9771 12.2527 27.2689C10.9958 28.5784 9.39 29.277 7.26048 29.277C3.31611 29.277 0 26.0643 0 22.1185C0 18.1727 3.31611 14.96 7.2612 14.96C9.44371 14.96 10.9965 15.8157 12.1662 16.9331L10.7871 18.3122C9.94834 17.5268 8.81473 16.9154 7.2612 16.9154C4.38123 16.9154 2.12952 19.2374 2.12952 22.1185C2.12952 24.9996 4.38123 27.3234 7.2612 27.3234C9.12904 27.3234 10.1938 26.5725 10.8743 25.8917C11.4291 25.3369 11.7945 24.5411 11.9362 23.4532L7.29545 23.4514Z" fill="#4285F4"/>
<path d="M23.9207 24.6676C23.9207 27.3233 21.8431 29.277 19.2954 29.277C16.7478 29.277 14.6702 27.3233 14.6702 24.6676C14.6702 21.9963 16.7474 20.0582 19.2961 20.0582C21.8449 20.0582 23.9214 21.9963 23.9214 24.6676M21.8968 24.6676C21.8968 23.0095 20.6925 21.8741 19.2961 21.8741C17.8998 21.8741 16.6952 23.0088 16.6952 24.6676C16.6952 26.3087 17.8994 27.461 19.2961 27.461C20.6929 27.461 21.8968 26.3076 21.8968 24.6676Z" fill="#EA4335"/>
<path d="M34.0114 24.6676C34.0114 27.3233 31.9356 29.277 29.3861 29.277C26.8367 29.277 24.7605 27.3233 24.7605 24.6676C24.7605 21.9963 26.8374 20.0582 29.3861 20.0582C31.9348 20.0582 34.0114 21.9963 34.0114 24.6676ZM31.9867 24.6676C31.9867 23.0095 30.7825 21.8741 29.3861 21.8741C27.9897 21.8741 26.7851 23.0088 26.7851 24.6676C26.7851 26.3087 27.9894 27.461 29.3861 27.461C30.7828 27.461 31.9867 26.3076 31.9867 24.6676Z" fill="#FBBC04"/>
<path d="M43.6836 20.3375V28.6134C43.6836 32.0182 41.6763 33.4149 39.3024 33.4149C37.0676 33.4149 35.7239 31.9133 35.2178 30.6914L36.9818 29.9578C37.2958 30.7087 38.0632 31.599 39.3035 31.599C40.822 31.599 41.7646 30.656 41.7646 28.8927V28.2295H41.6947C41.2409 28.7882 40.3682 29.277 39.2685 29.277C36.9642 29.277 34.8523 27.2689 34.8523 24.6852C34.8523 22.0835 36.9642 20.0582 39.2685 20.0582C40.3682 20.0582 41.2409 20.5469 41.6947 21.0883H41.7646V20.3375H43.6836ZM41.903 24.6852C41.903 23.0614 40.8217 21.8737 39.4419 21.8737C38.0455 21.8737 36.8758 23.061 36.8758 24.6852C36.8758 26.2914 38.0455 27.4607 39.4419 27.4607C40.8209 27.4607 41.903 26.291 41.903 24.6852Z" fill="#4285F4"/>
<path d="M47.1129 15.4942H45.0883V28.9976H47.1129V15.4942Z" fill="#34A853"/>
<path d="M54.9321 26.1865L56.5029 27.2339C55.9983 27.9848 54.7749 29.277 52.6627 29.277C50.0444 29.277 48.0894 27.2516 48.0894 24.6676C48.0894 21.9282 50.0621 20.0582 52.4356 20.0582C54.8272 20.0582 55.9965 21.9613 56.3807 22.9915L56.5901 23.5152L50.4265 26.0643C50.898 26.9896 51.6311 27.461 52.6613 27.461C53.6914 27.461 54.4069 26.9564 54.9321 26.1865ZM50.0967 24.5284L54.2162 22.8177C53.9892 22.241 53.3086 21.8402 52.5056 21.8402C51.4758 21.8402 50.0444 22.7482 50.0967 24.5292" fill="#EA4335"/>
</g>
</g>
<defs>
<clipPath id="clip0_3598_23987">
<rect width="144" height="18.4549" fill="white" transform="translate(0 14.96)"/>
</clipPath>
</defs>
</svg>
