<svg width="144" height="48" viewBox="0 0 144 48" fill="none" xmlns="http://www.w3.org/2000/svg">
<g clip-path="url(#clip0_4873_23319)">
<g clip-path="url(#clip1_4873_23319)">
<path d="M49.7435 16.8116C50.0307 14.8832 51.6719 12.5856 54.9132 12.5856C57.8674 12.5856 59.5906 14.7191 59.7957 16.8116H49.7435ZM45.6816 18.2887C45.6816 23.5404 49.4563 27.0279 54.9543 27.0279C58.5238 27.0279 60.9446 25.2637 62.2985 23.7046C62.4627 23.5404 62.4627 23.3353 62.3806 23.1712C62.3806 23.1712 62.3806 23.1712 62.2985 23.0891L60.3702 21.2428C60.206 21.0787 59.9188 21.0787 59.7137 21.2428C58.688 22.1454 57.2109 23.4584 54.8312 23.4584C52.0822 23.4584 50.1538 21.8172 49.6615 19.6837H63.0781C63.3653 19.6837 63.6115 19.5196 63.7346 19.2324V19.1503V18.3297C63.7346 13.3651 60.5343 9.22118 54.9953 9.22118C49.1691 9.26221 45.6816 13.3241 45.6816 18.2887ZM66.2784 26.2894C66.2784 26.4535 66.3605 26.7407 66.6477 26.7407H66.7297H69.6018C69.7659 26.7407 70.0531 26.6587 70.0531 26.3715V26.2894V2.36926C70.0531 2.20515 69.971 2 69.6838 2H66.6477C66.3605 2 66.2784 2.16412 66.2784 2.36926V26.2894ZM39.6913 26.2894C39.6913 26.4535 39.7734 26.7407 40.0606 26.7407H40.1427H43.0147C43.1788 26.7407 43.466 26.6587 43.466 26.3715V26.2894V16.7296C43.466 12.6676 41.0863 9.26221 35.9166 9.26221H35.8346C33.3318 9.26221 31.4034 10.0828 30.2956 11.1085V10.2059C30.2956 9.91868 30.1315 9.75456 29.9263 9.75456H27.0543C26.8902 9.75456 26.603 9.83662 26.603 10.1238V10.2059V26.4125C26.603 26.5766 26.685 26.8638 26.9722 26.8638H27.0953H29.9674C30.1315 26.8638 30.4187 26.7818 30.4187 26.4946V26.4125V17.386C30.4187 14.6371 31.8957 12.5035 35.2191 12.5035C38.5425 12.5035 39.8144 14.514 39.8144 17.345L39.6913 26.2894ZM94.0553 31.336C95.3272 32.8951 98.1172 34.7415 102.056 34.7415C107.472 34.7415 110.795 31.4181 110.795 26.0843V10.2059C110.795 10.0418 110.713 9.75456 110.426 9.75456H110.344H107.595C107.431 9.75456 107.144 9.83662 107.144 10.1238V10.2059V11.1085C105.954 10.0828 104.395 9.26221 101.81 9.26221C96.9274 9.26221 92.6193 12.8318 92.6193 18.1656C92.6193 23.4994 96.7633 27.069 101.81 27.069C103.738 27.069 105.585 26.4125 107.062 25.3047V26.4125C107.062 29.4487 105.297 31.3771 102.015 31.3771C99.3481 31.3771 97.5018 29.9 96.394 28.7922C96.2299 28.6281 95.8606 28.6281 95.6555 28.7922L94.0963 30.6385C93.8912 30.8026 93.8912 31.0899 94.0553 31.336ZM20.2844 18.2066C20.2844 21.2428 17.9868 23.6225 15.0327 23.6225C11.9965 23.6225 9.86295 21.0376 9.86295 18.2066V18.0015C9.86295 15.1294 11.9965 12.7497 15.0327 12.7497C17.9868 12.6676 20.2844 15.1704 20.2844 18.2066ZM5.76001 18.2066C5.76001 23.0891 9.69883 27.11 14.9506 27.11C20.2844 27.11 24.1412 23.0481 24.1412 18.2066V18.0015C24.1412 13.119 20.2024 9.26221 14.9506 9.26221C9.69883 9.26221 5.76001 13.119 5.76001 18.2066ZM86.7931 18.2066C86.7931 21.2428 84.4955 23.6225 81.5413 23.6225C78.5872 23.6225 76.3716 21.0376 76.3716 18.2066V18.0015C76.3716 15.1294 78.5052 12.7497 81.5413 12.7497C84.5775 12.6676 86.7931 15.1704 86.7931 18.2066ZM72.2687 18.2066C72.2687 23.0891 76.2075 27.11 81.4593 27.11C86.711 27.11 90.6499 23.0481 90.6499 18.2066V18.0015C90.6499 13.119 86.711 9.26221 81.4593 9.26221C76.2075 9.26221 72.2687 13.119 72.2687 18.2066ZM114.406 26.2894C114.406 26.4535 114.488 26.7407 114.775 26.7407H114.857H117.729C117.893 26.7407 118.181 26.6587 118.181 26.3715V26.2894V10.0828C118.181 9.91868 118.099 9.71353 117.811 9.71353H114.775C114.488 9.71353 114.406 9.87765 114.406 10.0828V26.2894ZM114.406 5.40544C114.406 5.56956 114.488 5.85676 114.775 5.85676H114.857H117.729C117.893 5.85676 118.181 5.77471 118.181 5.4875V5.40544V2.36926C118.181 2.20515 118.099 2 117.811 2H114.775C114.488 2 114.406 2.16412 114.406 2.36926V5.40544ZM134.839 26.2894C134.839 26.4535 134.921 26.7407 135.208 26.7407H135.29H138.162C138.326 26.7407 138.613 26.6587 138.613 26.3715V26.2894V16.7296C138.613 12.6676 136.234 9.26221 131.064 9.26221H130.982C128.479 9.26221 126.551 10.0828 125.443 11.1085V10.2059C125.443 9.91868 125.279 9.75456 125.074 9.75456H122.201C122.037 9.75456 121.75 9.83662 121.75 10.1238V10.2059V26.4125C121.75 26.5766 121.832 26.8638 122.119 26.8638H122.201H125.074C125.238 26.8638 125.525 26.7818 125.525 26.4946V26.4125V17.386C125.525 14.6371 127.002 12.5035 130.325 12.5035C133.649 12.5035 134.921 14.514 134.921 17.386L134.839 26.2894ZM107.144 18.2066C107.144 21.2428 104.846 23.6225 101.892 23.6225C98.8558 23.6225 96.7222 21.0376 96.7222 18.2066V18.0015C96.7222 15.1294 98.8558 12.7497 101.892 12.7497C104.846 12.6676 107.144 15.1704 107.144 18.2066Z" fill="#1C1F2A"/>
<path d="M60.3291 37.7776H61.0266V40.3625C61.3959 39.8291 62.0113 39.5419 62.6268 39.5419C63.8576 39.5419 64.7603 40.5266 64.7603 42.0447C64.7603 43.5628 63.8576 44.5475 62.6268 44.5475C61.9293 44.5475 61.3959 44.1782 61.0266 43.7269V44.4244H60.3291V37.7776ZM62.4626 43.809C63.4473 43.809 63.9807 42.9884 63.9807 41.9216C63.9807 40.8549 63.4473 40.0343 62.4626 40.0343C61.8472 40.0343 61.3138 40.4035 61.0266 40.8549V42.9884C61.3138 43.4807 61.9292 43.809 62.4626 43.809Z" fill="#40535D"/>
<path d="M66.3194 45.6143C66.6887 45.6143 66.8528 45.5322 67.0169 45.0809L67.3862 44.3834L65.4167 39.5829H66.2373L67.8375 43.4807L69.4376 39.5829H70.2582L67.8375 45.3681C67.5503 46.0656 67.0169 46.3528 66.4015 46.3528C66.2373 46.3528 65.9501 46.3528 65.8681 46.2707L65.9501 45.5732C65.9501 45.6143 66.1143 45.6143 66.3194 45.6143Z" fill="#40535D"/>
<path d="M82.5671 37.8597C82.5671 37.7776 82.6491 37.6956 82.7312 37.6956H82.8543C82.9363 37.6956 83.0184 37.7776 83.1005 37.8186L86.67 41.2651V37.9828C86.67 37.9007 86.7521 37.8186 86.8341 37.8186H87.9419C88.024 37.8186 88.106 37.9007 88.106 37.9828V44.2192C88.106 44.3423 88.024 44.3834 87.9419 44.3834H87.8599C87.7778 44.3834 87.6958 44.3423 87.6137 44.3013L84.0031 40.6497V44.0961C84.0031 44.1782 83.9211 44.2603 83.839 44.2603H82.7312C82.6491 44.2603 82.5671 44.1782 82.5671 44.0961V37.8597Z" fill="#04AADA"/>
<path d="M89.2959 37.9418C89.2959 37.8597 89.378 37.7776 89.46 37.7776H93.3168C93.3988 37.7776 93.4809 37.8597 93.4809 37.9418V38.9675C93.4809 39.0496 93.3988 39.1316 93.3168 39.1316H90.7319V40.2804H92.8655C92.9475 40.2804 93.0296 40.3625 93.0296 40.4446V41.4703C93.0296 41.5524 92.9475 41.6344 92.8655 41.6344H90.7319V42.9063H93.3168C93.3988 42.9063 93.4809 42.9884 93.4809 43.0704V44.0962C93.4809 44.1782 93.3988 44.2603 93.3168 44.2603H89.46C89.378 44.2603 89.2959 44.1782 89.2959 44.0962V37.9418Z" fill="#04AADA"/>
<path d="M98.1172 37.9418C98.1172 37.8597 98.1993 37.7776 98.2814 37.7776H99.3892C99.4712 37.7776 99.5533 37.8597 99.5533 37.9418V44.0962C99.5533 44.1782 99.4712 44.2603 99.3892 44.2603H98.2814C98.1993 44.2603 98.1172 44.1782 98.1172 44.0962V37.9418Z" fill="#40535D"/>
<path d="M100.743 37.9418C100.743 37.8597 100.825 37.7776 100.907 37.7776H103.164C104.969 37.7776 106.405 39.2547 106.405 41.019C106.405 42.8243 104.928 44.2603 103.164 44.2603H100.907C100.825 44.2603 100.743 44.1782 100.743 44.0962V37.9418ZM103.164 42.9063C104.231 42.9063 104.887 42.0857 104.887 41.019C104.887 39.9522 104.19 39.1316 103.164 39.1316H102.179V42.9063H103.164Z" fill="#40535D"/>
<path d="M107.431 37.9418C107.431 37.8597 107.513 37.7776 107.595 37.7776H111.452C111.534 37.7776 111.616 37.8597 111.616 37.9418V38.9675C111.616 39.0496 111.534 39.1316 111.452 39.1316H108.867V40.2804H111C111.083 40.2804 111.165 40.3625 111.165 40.4446V41.4703C111.165 41.5524 111.083 41.6344 111 41.6344H108.867V42.9063H111.452C111.534 42.9063 111.616 42.9884 111.616 43.0704V44.0962C111.616 44.1782 111.534 44.2603 111.452 44.2603H107.595C107.513 44.2603 107.431 44.1782 107.431 44.0962V37.9418Z" fill="#40535D"/>
<path d="M112.642 37.8187C112.642 37.7366 112.724 37.6545 112.806 37.6545H112.929C113.011 37.6545 113.093 37.7366 113.175 37.7776L116.745 41.2241V37.9417C116.745 37.8597 116.827 37.7776 116.909 37.7776H118.017C118.099 37.7776 118.181 37.8597 118.181 37.9417V44.1782C118.181 44.3013 118.099 44.3423 118.017 44.3423H117.934C117.852 44.3423 117.77 44.3013 117.688 44.2603L114.078 40.6087V44.0551C114.078 44.1372 113.996 44.2192 113.914 44.2192H112.806C112.724 44.2192 112.642 44.1372 112.642 44.0551V37.8187Z" fill="#40535D"/>
<path d="M120.93 39.1316H119.617C119.535 39.1316 119.453 39.0496 119.453 38.9675V37.9418C119.453 37.8597 119.535 37.7776 119.617 37.7776H123.761C123.843 37.7776 123.925 37.8597 123.925 37.9418V38.9675C123.925 39.0496 123.843 39.1316 123.761 39.1316H122.448V44.0962C122.448 44.1782 122.366 44.2603 122.284 44.2603H121.176C121.094 44.2603 121.012 44.1782 121.012 44.0962V39.1316" fill="#40535D"/>
<path d="M125.115 37.9418C125.115 37.8597 125.197 37.7776 125.279 37.7776H126.386C126.469 37.7776 126.551 37.8597 126.551 37.9418V44.0962C126.551 44.1782 126.469 44.2603 126.386 44.2603H125.279C125.197 44.2603 125.115 44.1782 125.115 44.0962V37.9418Z" fill="#40535D"/>
<path d="M129.259 39.1316H127.946C127.864 39.1316 127.781 39.0496 127.781 38.9675V37.9418C127.781 37.8597 127.864 37.7776 127.946 37.7776H132.09C132.172 37.7776 132.254 37.8597 132.254 37.9418V38.9675C132.254 39.0496 132.172 39.1316 132.09 39.1316H130.777V44.0962C130.777 44.1782 130.695 44.2603 130.613 44.2603H129.505C129.423 44.2603 129.341 44.1782 129.341 44.0962V39.1316" fill="#40535D"/>
<path d="M135.085 41.142L133.033 38.0238C132.951 37.9007 133.033 37.7366 133.197 37.7366H134.387C134.469 37.7366 134.51 37.7776 134.551 37.8186L135.823 39.706L137.095 37.8186C137.136 37.7776 137.177 37.7366 137.259 37.7366H138.449C138.613 37.7366 138.654 37.9007 138.613 38.0238L136.521 41.101V44.0551C136.521 44.1372 136.439 44.2192 136.357 44.2192H135.249C135.167 44.2192 135.085 44.1372 135.085 44.0551V41.142Z" fill="#40535D"/>
<path d="M78.0128 36.1775C79.654 36.1775 81.2131 37.0801 82.0337 38.5162L81.5413 38.8034C80.8028 37.5315 79.4899 36.7929 78.0128 36.7929V36.1775Z" fill="#04AADA"/>
<path d="M80.8849 45.8604C79.0796 46.8862 76.864 46.8862 75.0997 45.8604C73.2944 44.8347 72.1866 42.9063 72.1866 40.8548C72.1866 38.7623 73.2944 36.875 75.0997 35.8493C76.905 34.8235 79.1206 34.8235 80.8849 35.8493L80.5977 36.3416C78.9975 35.3979 76.9871 35.3979 75.3869 36.3416C73.7868 37.2853 72.7611 39.0085 72.7611 40.8548C72.7611 42.7012 73.7458 44.4244 75.3869 45.3681C76.9871 46.3118 78.9975 46.3118 80.5977 45.3681L80.8849 45.8604Z" fill="#04AADA"/>
<path d="M78.0128 37.3674C79.9412 37.3674 81.5003 38.9265 81.5003 40.8549C81.5003 42.7833 79.9412 44.3424 78.0128 44.3424C76.0844 44.3424 74.5253 42.7833 74.5253 40.8549C74.5253 38.9265 76.0844 37.3674 78.0128 37.3674ZM75.9614 40.8549C75.9614 41.9627 76.864 42.8653 77.9718 42.8653C79.0796 42.8653 79.9822 41.9627 79.9822 40.8549C79.9822 39.7471 79.0796 38.8444 77.9718 38.8444C76.864 38.8444 75.9614 39.706 75.9614 40.8549Z" fill="#04AADA"/>
<path d="M81.5003 42.8653C80.7618 44.1372 79.4488 44.8757 77.9718 44.8757C76.4947 44.8757 75.1818 44.0962 74.4432 42.8653C73.7047 41.5934 73.7047 40.0753 74.4432 38.8034L73.9509 38.5162C73.1303 39.9522 73.1303 41.7165 73.9509 43.1525C74.7715 44.5885 76.3306 45.4912 77.9718 45.4912C79.6129 45.4912 81.1721 44.5885 81.9927 43.1525L81.5003 42.8653Z" fill="#04AADA"/>
</g>
</g>
<defs>
<clipPath id="clip0_4873_23319">
<rect width="144" height="44.64" fill="white" transform="translate(0 2)"/>
</clipPath>
<clipPath id="clip1_4873_23319">
<rect width="132.894" height="44.64" fill="white" transform="translate(5.76001 2)"/>
</clipPath>
</defs>
</svg>
