<svg width="45" height="45" viewBox="0 0 45 45" fill="none" xmlns="http://www.w3.org/2000/svg">
	<path fill-rule="evenodd" clip-rule="evenodd"
		d="M24.3201 0.318772L23.4126 11.5023C22.9834 11.4532 22.5543 11.4287 22.1128 11.4287C21.561 11.4287 21.0214 11.4655 20.4941 11.5513L19.9791 6.13125C19.9668 5.95957 20.1017 5.81242 20.2734 5.81242H21.1931L20.7516 0.331035C20.7394 0.159358 20.8743 0.012207 21.0337 0.012207H24.038C24.2097 0.012207 24.3446 0.159358 24.3201 0.331035V0.318772ZM16.7418 0.87059C16.6927 0.711176 16.521 0.613075 16.3616 0.674388L13.5412 1.70445C13.3818 1.76576 13.3082 1.9497 13.3818 2.09685L15.6749 7.1L14.8043 7.41883C14.6449 7.48014 14.5713 7.66408 14.6449 7.81123L16.987 12.7285C17.8331 12.2626 18.7528 11.9069 19.7216 11.6862L16.754 0.87059H16.7418ZM9.82566 3.98529L16.3126 13.1332C15.491 13.6728 14.743 14.3104 14.1053 15.0462L10.2181 11.2202C10.0954 11.0976 10.1077 10.9014 10.2303 10.791L10.9416 10.2024L7.07883 6.29067C6.9562 6.16804 6.96847 5.97184 7.10336 5.86147L9.39646 3.93624C9.53135 3.82588 9.71529 3.85041 9.81339 3.98529H9.82566ZM4.38105 9.28274C4.24617 9.18464 4.04996 9.23369 3.96413 9.38084L2.46809 11.9805C2.38225 12.1277 2.44356 12.3116 2.59071 12.3852L7.56933 14.7396L7.10336 15.5367C7.01752 15.6838 7.07883 15.88 7.23824 15.9413L12.1923 18.2099C12.548 17.2902 13.0262 16.4318 13.6148 15.6593L4.38105 9.28274ZM0.714533 16.346C0.739058 16.1743 0.910735 16.0762 1.07015 16.113L11.9226 18.9457C11.6405 19.8654 11.4811 20.8341 11.4566 21.8397L6.02425 21.3982C5.85257 21.3859 5.72994 21.2265 5.76673 21.0549L5.92614 20.1474L0.444756 19.6324C0.273079 19.6201 0.162716 19.4607 0.187241 19.289L0.702271 16.3337L0.714533 16.346ZM0.309867 23.6791C0.13819 23.6913 0.0278268 23.8507 0.052352 24.0224L0.579644 26.9777C0.60417 27.1494 0.775846 27.2475 0.93526 27.2107L6.25724 25.825L6.41665 26.7324C6.44117 26.9041 6.61285 27.0022 6.77226 26.9654L12.0207 25.5184C11.7141 24.611 11.5179 23.6423 11.4688 22.649L0.297604 23.6791H0.309867ZM2.05116 31.4535C1.96532 31.3064 2.02663 31.1225 2.17378 31.0489L12.3027 26.2419C12.6828 27.1494 13.1979 27.9955 13.811 28.7558L9.37194 31.9195C9.23705 32.0176 9.04085 31.9808 8.95501 31.8337L8.48903 31.0244L3.96413 34.1513C3.82924 34.2494 3.63304 34.2004 3.5472 34.0532L2.0389 31.4535H2.05116ZM14.326 29.3444L6.44117 37.3273C6.31855 37.45 6.33081 37.6462 6.4657 37.7565L8.77107 39.6818C8.90596 39.7921 9.0899 39.7676 9.188 39.6327L12.3763 35.1446L13.0875 35.7455C13.2224 35.8558 13.4186 35.8313 13.5167 35.6842L16.6069 31.196C15.773 30.681 15.0005 30.0556 14.3383 29.3444H14.326ZM12.7687 42.1588C12.6093 42.0975 12.5357 41.9136 12.6093 41.7664L17.2813 31.5639C18.1397 32.0054 19.0717 32.3365 20.0404 32.5204L18.667 37.7933C18.6302 37.9527 18.4463 38.0508 18.2869 37.9895L17.4162 37.6707L15.957 42.9804C15.9079 43.1398 15.7362 43.2379 15.5768 43.1766L12.7564 42.1465L12.7687 42.1588ZM20.813 32.6553L19.9055 43.8388C19.8933 44.0105 20.0282 44.1576 20.1876 44.1576H23.1919C23.3636 44.1576 23.4985 44.0105 23.4739 43.8388L23.0325 38.3574H23.9522C24.1239 38.3574 24.2588 38.2103 24.2465 38.0386L23.7315 32.6185C23.2042 32.7043 22.6646 32.7411 22.1128 32.7411C21.6713 32.7411 21.2422 32.7166 20.813 32.6553ZM31.6286 2.37889C31.7022 2.21948 31.6286 2.0478 31.4692 1.98649L28.6488 0.956428C28.4894 0.895115 28.3177 0.993216 28.2686 1.15263L26.8094 6.46234L25.9387 6.14351C25.7793 6.0822 25.6076 6.1803 25.5586 6.33972L24.1852 11.6126C25.1662 11.8088 26.0859 12.1399 26.9443 12.5691L31.6286 2.37889ZM37.7844 6.83022L29.8996 14.8132C29.2374 14.1019 28.4771 13.4766 27.631 12.9615L30.7212 8.47341C30.8193 8.33852 31.0155 8.30173 31.1503 8.4121L31.8616 9.01297L35.0499 4.52485C35.148 4.38996 35.3442 4.36544 35.4668 4.4758L37.7722 6.40103C37.907 6.51139 37.907 6.70759 37.7967 6.83022H37.7844ZM42.0518 13.1087C42.2112 13.0351 42.2603 12.8512 42.1744 12.704L40.6661 10.1043C40.5803 9.95719 40.3841 9.9204 40.2492 10.0062L35.7243 13.1332L35.2583 12.3361C35.1725 12.189 34.9763 12.1399 34.8414 12.2503L30.4023 15.414C31.0155 16.1743 31.5182 17.0205 31.9106 17.9279L42.0395 13.1209L42.0518 13.1087ZM43.646 17.1799L44.161 20.1352C44.1855 20.3068 44.0751 20.454 43.9035 20.4785L32.7322 21.5208C32.6832 20.5153 32.487 19.5588 32.1804 18.6514L37.4288 17.2044C37.5882 17.1553 37.7599 17.2657 37.7844 17.4374L37.9438 18.3448L43.2658 16.9591C43.4252 16.9224 43.5969 17.0205 43.6214 17.1921L43.646 17.1799ZM43.1432 28.0323C43.3026 28.0691 43.4743 27.971 43.4988 27.7993L44.0138 24.844C44.0384 24.6723 43.928 24.5252 43.7563 24.5006L38.2749 23.9856L38.4343 23.0782C38.4589 22.9065 38.3485 22.7594 38.1768 22.7348L32.7445 22.2934C32.72 23.2989 32.5605 24.2677 32.2785 25.1874L43.1309 28.02L43.1432 28.0323ZM40.2492 34.7767C40.1634 34.9239 39.9672 34.9607 39.8323 34.8748L30.5985 28.4983C31.1871 27.7257 31.6654 26.8673 32.021 25.9476L36.9751 28.2162C37.1345 28.2898 37.1958 28.4737 37.11 28.6209L36.644 29.418L41.6226 31.7724C41.7698 31.846 41.8311 32.0299 41.7452 32.177L40.2492 34.7767ZM27.9008 31.0121L34.3877 40.16C34.4858 40.2949 34.682 40.3194 34.8046 40.2091L37.0977 38.2838C37.2326 38.1735 37.2326 37.9773 37.1222 37.8546L33.2595 33.9429L33.9707 33.3543C34.1056 33.2439 34.1056 33.0477 33.983 32.9251L30.0958 29.0991C29.4458 29.8349 28.7101 30.4848 27.8885 31.0121H27.9008ZM27.8394 43.4709C27.68 43.5322 27.5083 43.4341 27.4593 43.2747L24.4917 32.4591C25.4605 32.2384 26.3802 31.8827 27.2263 31.4168L29.5685 36.3341C29.642 36.4935 29.5685 36.6774 29.4091 36.7265L28.5384 37.0453L30.8315 42.0485C30.9051 42.2079 30.8315 42.3795 30.6721 42.4409L27.8517 43.4709H27.8394Z"
		fill="black" />
</svg>