<svg width="22" height="22" viewBox="0 0 22 22" fill="none" xmlns="http://www.w3.org/2000/svg">
<circle cx="11" cy="11" r="10" stroke="white" stroke-opacity="0.87" stroke-width="2"/>
<path d="M7.14844 8.89062H9.26562C9.3125 8.00781 9.90625 7.4375 10.8047 7.4375C11.6953 7.4375 12.2891 7.97656 12.2891 8.71875C12.2891 9.46094 11.9844 9.84375 10.9766 10.4453C9.89844 11.0781 9.46875 11.7812 9.57031 13.0078L9.58594 13.4609H11.6562V13.0469C11.6562 12.2812 11.9453 11.8984 12.9844 11.2969C14.0859 10.6484 14.6562 9.82812 14.6562 8.64844C14.6562 6.86719 13.1797 5.625 10.9453 5.625C8.54688 5.625 7.1875 6.96875 7.14844 8.89062ZM10.6484 17.1953C11.3594 17.1953 11.9297 16.6562 11.9297 15.9688C11.9297 15.2812 11.3594 14.7422 10.6484 14.7422C9.94531 14.7422 9.375 15.2812 9.375 15.9688C9.375 16.6562 9.94531 17.1953 10.6484 17.1953Z" fill="white" fill-opacity="0.87"/>
</svg>
