<svg width="20" height="20" viewBox="0 0 20 20" fill="none" xmlns="http://www.w3.org/2000/svg">
<g clip-path="url(#clip0_9852_93186)">
<path fill-rule="evenodd" clip-rule="evenodd" d="M3.08395 3.79105C2.88868 3.59579 2.88868 3.2792 3.08395 3.08394C3.27921 2.88868 3.59579 2.88868 3.79105 3.08394L10.0004 9.29329L16.2097 3.08394C16.405 2.88868 16.7216 2.88868 16.9168 3.08394C17.1121 3.2792 17.1121 3.59579 16.9168 3.79105L10.7075 10.0004L16.9147 16.2075C17.1099 16.4028 17.1099 16.7194 16.9147 16.9147C16.7194 17.1099 16.4028 17.1099 16.2076 16.9147L10.0004 10.7075L3.79324 16.9147C3.59798 17.1099 3.2814 17.1099 3.08614 16.9147C2.89087 16.7194 2.89087 16.4028 3.08614 16.2075L9.29329 10.0004L3.08395 3.79105Z" fill="black" fill-opacity="0.4"/>
</g>
<defs>
<clipPath id="clip0_9852_93186">
<rect width="20" height="20" fill="white"/>
</clipPath>
</defs>
</svg>
