<svg width="24" height="25" viewBox="0 0 24 25" fill="none" xmlns="http://www.w3.org/2000/svg">
<g clip-path="url(#clip0_9852_93188)">
<path d="M8.5 19.689L9.41924 20.6082L8.5 21.5274L7.58076 20.6082L8.5 19.689ZM21.7881 4.56235C22.2958 4.05467 23.1189 4.05467 23.6266 4.56235C24.1343 5.07003 24.1343 5.89315 23.6266 6.40083L21.7881 4.56235ZM0.427566 13.455C-0.0801155 12.9473 -0.0801159 12.1242 0.427566 11.6165C0.935247 11.1088 1.75836 11.1088 2.26604 11.6165L0.427566 13.455ZM7.58076 18.7697L21.7881 4.56235L23.6266 6.40083L9.41924 20.6082L7.58076 18.7697ZM2.26604 11.6165L9.41924 18.7697L7.58076 20.6082L0.427566 13.455L2.26604 11.6165Z" fill="#31A629"/>
</g>
<defs>
<clipPath id="clip0_9852_93188">
<rect width="24" height="24" fill="white" transform="matrix(0 1 1 0 0 0.688965)"/>
</clipPath>
</defs>
</svg>
