<svg width="20" height="20" viewBox="0 0 20 20" fill="none" xmlns="http://www.w3.org/2000/svg">
<path fill-rule="evenodd" clip-rule="evenodd" d="M12.0573 7.16844L10 3L7.9428 7.16844L3.34265 7.83688L6.67135 11.0816L5.88555 15.6631L10 13.5L14.1145 15.6631L13.3287 11.0816L16.6574 7.83688L12.0573 7.16844ZM14.5085 8.53512L11.9135 8.15805C11.5878 8.11072 11.3062 7.90615 11.1606 7.61101L10 5.25955L8.83954 7.61101C8.69387 7.90615 8.41231 8.11072 8.0866 8.15805L5.49161 8.53512L7.36936 10.3655C7.60505 10.5952 7.7126 10.9262 7.65696 11.2506L7.21368 13.8351L9.53471 12.6149C9.82603 12.4617 10.1741 12.4617 10.4654 12.6149L12.7864 13.8351L12.3431 11.2506C12.2875 10.9262 12.395 10.5952 12.6307 10.3655L14.5085 8.53512Z" fill="#F9A400"/>
</svg>
