<svg width="181" height="28" viewBox="0 0 181 28" fill="none" xmlns="http://www.w3.org/2000/svg">
<path d="M40.5791 14.1388C43.5315 14.1388 45.6705 12.658 45.6705 10.2191V10.161C45.6705 7.80924 43.8026 6.41558 40.6092 6.41558H34.4936V14.1388H40.5791ZM32.2642 5.5155C32.2642 4.90578 32.7764 4.41219 33.3789 4.41219H40.79C43.2302 4.41219 45.1583 5.10902 46.4236 6.32847C47.3877 7.25758 47.9601 8.59317 47.9601 10.0739V10.132C47.9601 13.2677 45.7609 15.0969 42.688 15.6486L47.5986 21.7458C47.8095 21.9781 47.9601 22.2394 47.9601 22.5298C47.9601 23.1105 47.3877 23.6041 46.8153 23.6041C46.3634 23.6041 46.032 23.3718 45.7609 23.0234L40.1875 16.0551H34.4936V22.5007C34.4936 23.1105 33.9814 23.6041 33.3789 23.6041C32.7764 23.6041 32.2642 23.1105 32.2642 22.5007C32.2642 22.5298 32.2642 5.5155 32.2642 5.5155ZM52.3887 22.3846V5.5155C52.3887 4.90578 52.9008 4.41219 53.5034 4.41219H65.795C66.3674 4.41219 66.8193 4.84771 66.8193 5.39937C66.8193 5.95103 66.3674 6.38654 65.795 6.38654H54.6482V12.8903H64.5296C65.102 12.8903 65.5539 13.3548 65.5539 13.8775C65.5539 14.4291 65.102 14.8646 64.5296 14.8646H54.6482V21.5426H65.9456C66.518 21.5426 66.9699 21.9781 66.9699 22.5298C66.9699 23.0814 66.518 23.517 65.9456 23.517H53.5034C52.9008 23.4879 52.3887 22.9943 52.3887 22.3846ZM77.3936 22.7911L69.7716 5.83489C69.6813 5.66068 69.6511 5.54454 69.6511 5.3413C69.6511 4.78964 70.1633 4.26702 70.7959 4.26702C71.3683 4.26702 71.76 4.61543 71.9407 5.07999L78.7794 20.8748L85.6483 5.02192C85.8592 4.64447 86.2508 4.26702 86.763 4.26702C87.3956 4.26702 87.8776 4.76061 87.8776 5.31226C87.8776 5.48647 87.8475 5.60261 87.7873 5.74778L80.1351 22.7911C79.8941 23.3428 79.4724 23.6912 78.8397 23.6912H78.7192C78.0564 23.6912 77.6346 23.3428 77.3936 22.7911ZM91.9748 5.37033C91.9748 4.7606 92.487 4.26702 93.0895 4.26702C93.7222 4.26702 94.2042 4.7606 94.2042 5.37033V22.5298C94.2042 23.1395 93.692 23.6331 93.0895 23.6331C92.487 23.6331 91.9748 23.1395 91.9748 22.5298V5.37033ZM99.7173 22.3846V5.5155C99.7173 4.90578 100.229 4.41219 100.832 4.41219H113.124C113.696 4.41219 114.148 4.84771 114.148 5.39937C114.148 5.95103 113.696 6.38654 113.124 6.38654H101.977V12.8903H111.858C112.431 12.8903 112.883 13.3548 112.883 13.8775C112.883 14.4291 112.431 14.8646 111.858 14.8646H101.977V21.5426H113.274C113.847 21.5426 114.299 21.9781 114.299 22.5298C114.299 23.0814 113.847 23.517 113.274 23.517H100.832C100.229 23.4879 99.7173 22.9943 99.7173 22.3846ZM117.161 5.86392C117.1 5.68971 117.04 5.54454 117.04 5.37033C117.04 4.78964 117.582 4.29605 118.185 4.29605C118.757 4.29605 119.179 4.70254 119.33 5.19613L124.783 20.3232L129.964 5.13805C130.145 4.64447 130.476 4.29605 131.079 4.29605H131.23C131.802 4.29605 132.164 4.64447 132.344 5.13805L137.526 20.3232L143.009 5.13805C143.19 4.64447 143.551 4.29605 144.094 4.29605C144.696 4.29605 145.238 4.81867 145.238 5.37033C145.238 5.54454 145.148 5.71875 145.088 5.89295L138.761 22.8201C138.55 23.3718 138.159 23.7492 137.616 23.7492H137.436C136.863 23.7492 136.472 23.3718 136.291 22.8201L131.139 8.18669L126.018 22.8201C125.807 23.3718 125.415 23.7492 124.873 23.7492H124.692C124.12 23.7492 123.728 23.4008 123.547 22.8201L117.161 5.86392ZM147.98 21.1942C147.739 21.02 147.558 20.7296 147.558 20.3812C147.558 19.7715 148.04 19.3069 148.643 19.3069C148.914 19.3069 149.185 19.4231 149.305 19.5392C151.173 21.0781 153.041 21.8039 155.542 21.8039C158.193 21.8039 159.94 20.4393 159.94 18.552V18.523C159.94 16.7519 158.946 15.7357 154.788 14.8937C150.239 13.9355 148.161 12.5128 148.161 9.40614V9.34807C148.161 6.35751 150.902 4.15088 154.668 4.15088C157.259 4.15088 159.157 4.78964 160.964 6.03813C161.205 6.21234 161.446 6.50268 161.446 6.90917C161.446 7.48986 160.964 7.95441 160.362 7.95441C160.121 7.95441 159.91 7.89634 159.699 7.75117C158.042 6.58978 156.415 6.0962 154.578 6.0962C152.017 6.0962 150.36 7.46082 150.36 9.17386V9.23193C150.36 11.0321 151.384 12.0483 155.722 12.9484C160.121 13.8775 162.169 15.4163 162.169 18.3488V18.4069C162.169 21.6587 159.338 23.8073 155.421 23.8073C152.559 23.7492 150.179 22.8782 147.98 21.1942ZM165.544 21.3394C165.965 21.3394 166.297 21.6297 166.297 22.0652V22.3556C166.297 22.7621 165.965 23.0814 165.544 23.0814C165.092 23.0814 164.79 22.7621 164.79 22.3556V22.0652C164.79 21.6297 165.092 21.3394 165.544 21.3394ZM168.948 15.6486C168.948 15.3292 169.219 15.0679 169.55 15.0679C169.912 15.0679 170.153 15.3292 170.153 15.6486V22.4717C170.153 22.8201 169.912 23.0524 169.55 23.0524C169.189 23.0524 168.948 22.7911 168.948 22.4717V15.6486ZM168.827 12.658C168.827 12.2806 169.159 12.0193 169.55 12.0193C169.972 12.0193 170.273 12.2515 170.273 12.658V12.8613C170.273 13.2387 169.972 13.471 169.55 13.471C169.159 13.471 168.827 13.2097 168.827 12.8613V12.658ZM179.763 19.1037V19.0747C179.763 17.3907 178.438 15.997 176.721 15.997C174.943 15.997 173.738 17.3907 173.738 19.0456V19.0747C173.738 20.7587 175.033 22.1233 176.751 22.1233C178.528 22.1233 179.763 20.7587 179.763 19.1037ZM172.473 19.1037V19.0747C172.473 16.839 174.28 14.9518 176.751 14.9518C179.191 14.9518 180.998 16.81 180.998 19.0456V19.0747C180.998 21.3103 179.191 23.1976 176.721 23.1976C174.28 23.1976 172.473 21.3394 172.473 19.1037Z" fill="white"/>
<path d="M21.0873 3.62817C16.4177 -1.07543 8.6451 -1.2206 3.76461 3.27976C-1.11587 7.78011 -1.2665 15.271 3.4031 19.9746L7.10865 23.691C11.7783 28.3946 19.5509 28.5398 24.4314 24.0395C29.3118 19.5391 29.4625 12.0482 24.7929 7.3446C24.7627 7.3446 21.0873 3.62817 21.0873 3.62817Z" fill="#FEEF7C"/>
<path d="M21.7499 4.26709C17.0803 -0.436511 9.3077 -0.581682 4.42721 3.91867C-0.453271 8.41903 -0.603904 15.9099 4.06569 20.6135L7.77125 24.33C12.4408 29.0336 20.2135 29.1787 25.094 24.6784C29.9744 20.178 30.1251 12.6871 25.4555 7.98351L21.7499 4.26709Z" fill="#5CD3CB"/>
<path d="M2.13776 14.0226C2.13776 20.5553 7.62077 25.8687 14.4293 25.8687C21.2078 25.8687 26.7209 20.5844 26.7209 14.0226C26.7209 7.48978 21.2379 2.17645 14.4293 2.17645C7.6509 2.17645 2.13776 7.48978 2.13776 14.0226ZM10.6937 16.1421C10.8142 15.7356 10.6937 15.3291 10.3321 15.0678C9.42836 14.4 7.62077 13.1225 6.41571 12.2514C6.23495 12.1353 6.1747 11.903 6.23495 11.6998C6.29521 11.4966 6.50609 11.3804 6.71698 11.3804H11.3866C11.8083 11.3804 12.2 11.1191 12.3506 10.7126C12.7121 9.63834 13.4352 7.51881 13.9473 6.09612C14.0076 5.89288 14.2185 5.77674 14.4293 5.77674C14.6402 5.77674 14.8511 5.92191 14.9114 6.09612C15.3934 7.51881 16.1466 9.63834 16.5081 10.7126C16.6587 11.1191 17.0202 11.3804 17.4721 11.3804C18.5868 11.3804 20.6956 11.3804 22.1417 11.3804C22.3526 11.3804 22.5635 11.5256 22.6237 11.6998C22.684 11.903 22.6237 12.1063 22.443 12.2514C21.2379 13.1225 19.4605 14.429 18.5567 15.0968C18.2253 15.3582 18.0746 15.7646 18.1952 16.1711C18.5567 17.2454 19.2496 19.3649 19.7316 20.8166C19.7919 21.0199 19.7316 21.2522 19.5508 21.3683C19.3701 21.4844 19.1291 21.4844 18.9483 21.3683C17.7433 20.4682 15.9658 19.1617 15.062 18.4939C14.7005 18.2326 14.1883 18.2326 13.8268 18.4939C12.923 19.1617 11.1757 20.4682 9.97063 21.3683C9.78987 21.4844 9.54886 21.5135 9.3681 21.3683C9.18735 21.2522 9.09696 21.0199 9.18734 20.8166C9.63924 19.3649 10.3623 17.2164 10.6937 16.1421Z" fill="white"/>
</svg>
