<svg width="176" height="31" viewBox="0 0 176 31" fill="none" xmlns="http://www.w3.org/2000/svg">
<g clip-path="url(#clip0_1029_15803)">
<path fill-rule="evenodd" clip-rule="evenodd" d="M46.1601 30.1175C45.6506 30.1175 45.1778 30.0346 44.7419 29.8689C44.3121 29.7031 43.9376 29.4698 43.6184 29.169C43.3053 28.8681 43.0597 28.5151 42.8816 28.1099C42.7097 27.7047 42.6238 27.2626 42.6238 26.7838C42.6238 26.3049 42.7097 25.8628 42.8816 25.4576C43.0597 25.0524 43.3083 24.6994 43.6276 24.3986C43.9468 24.0977 44.3214 23.8644 44.7511 23.6986C45.1809 23.5329 45.6475 23.45 46.1509 23.45C46.6605 23.45 47.1271 23.5329 47.5507 23.6986C47.9805 23.8644 48.352 24.0977 48.6651 24.3986C48.9843 24.6994 49.233 25.0524 49.411 25.4576C49.5891 25.8567 49.6781 26.2987 49.6781 26.7838C49.6781 27.2626 49.5891 27.7078 49.411 28.1191C49.233 28.5243 48.9843 28.8773 48.6651 29.1782C48.352 29.4729 47.9805 29.7031 47.5507 29.8689C47.1271 30.0346 46.6636 30.1175 46.1601 30.1175ZM46.1509 28.8466C46.4395 28.8466 46.7035 28.7975 46.9429 28.6993C47.1885 28.6011 47.4034 28.4599 47.5876 28.2757C47.7718 28.0915 47.913 27.8735 48.0112 27.6218C48.1156 27.3701 48.1678 27.0907 48.1678 26.7838C48.1678 26.4768 48.1156 26.1974 48.0112 25.9457C47.913 25.694 47.7718 25.476 47.5876 25.2919C47.4095 25.1077 47.1977 24.9665 46.9521 24.8682C46.7066 24.77 46.4395 24.7209 46.1509 24.7209C45.8624 24.7209 45.5953 24.77 45.3497 24.8682C45.1103 24.9665 44.8985 25.1077 44.7143 25.2919C44.5301 25.476 44.3858 25.694 44.2814 25.9457C44.1832 26.1974 44.1341 26.4768 44.1341 26.7838C44.1341 27.0846 44.1832 27.364 44.2814 27.6218C44.3858 27.8735 44.527 28.0915 44.7051 28.2757C44.8893 28.4599 45.1041 28.6011 45.3497 28.6993C45.5953 28.7975 45.8624 28.8466 46.1509 28.8466ZM87.6485 30.1175C87.1327 30.1175 86.6385 30.05 86.1658 29.9149C85.693 29.7737 85.3124 29.5926 85.0238 29.3716L85.5303 28.248C85.8066 28.4445 86.132 28.6072 86.5065 28.7361C86.8872 28.8589 87.2709 28.9203 87.6577 28.9203C87.9524 28.9203 88.1887 28.8927 88.3668 28.8374C88.551 28.776 88.686 28.6932 88.772 28.5888C88.8579 28.4844 88.9009 28.3647 88.9009 28.2296C88.9009 28.0577 88.8334 27.9226 88.6983 27.8244C88.5632 27.72 88.3852 27.6372 88.1642 27.5758C87.9432 27.5082 87.6976 27.4468 87.4274 27.3916C87.1634 27.3302 86.8964 27.2565 86.6262 27.1706C86.3622 27.0846 86.1197 26.9741 85.8987 26.839C85.6777 26.704 85.4965 26.5259 85.3553 26.3049C85.2203 26.0839 85.1527 25.8014 85.1527 25.4576C85.1527 25.0893 85.251 24.7546 85.4474 24.4538C85.65 24.1468 85.9509 23.9043 86.3499 23.7263C86.7552 23.5421 87.2617 23.45 87.8695 23.45C88.2747 23.45 88.6738 23.4991 89.0667 23.5973C89.4596 23.6894 89.8065 23.8306 90.1073 24.021L89.6469 25.1537C89.346 24.9818 89.0452 24.856 88.7444 24.7761C88.4435 24.6902 88.1488 24.6472 87.8603 24.6472C87.5717 24.6472 87.3353 24.681 87.1512 24.7485C86.967 24.816 86.835 24.9051 86.7552 25.0156C86.6753 25.12 86.6354 25.2427 86.6354 25.384C86.6354 25.5497 86.703 25.6848 86.838 25.7892C86.9731 25.8874 87.1512 25.9672 87.3722 26.0286C87.5932 26.09 87.8357 26.1514 88.0997 26.2128C88.3699 26.2742 88.6369 26.3448 88.9009 26.4246C89.1711 26.5044 89.4166 26.6119 89.6377 26.7469C89.8587 26.882 90.0367 27.06 90.1718 27.2811C90.313 27.5021 90.3836 27.7814 90.3836 28.1191C90.3836 28.4813 90.2823 28.8129 90.0797 29.1137C89.8771 29.4146 89.5732 29.6571 89.168 29.8413C88.7689 30.0254 88.2624 30.1175 87.6485 30.1175ZM119 30.1175C118.484 30.1175 117.99 30.05 117.517 29.9149C117.045 29.7737 116.664 29.5926 116.375 29.3716L116.882 28.248C117.158 28.4445 117.483 28.6072 117.858 28.7361C118.239 28.8589 118.622 28.9203 119.009 28.9203C119.304 28.9203 119.54 28.8927 119.718 28.8374C119.902 28.776 120.038 28.6932 120.123 28.5888C120.209 28.4844 120.252 28.3647 120.252 28.2296C120.252 28.0577 120.185 27.9226 120.05 27.8244C119.915 27.72 119.737 27.6372 119.516 27.5758C119.295 27.5082 119.049 27.4468 118.779 27.3916C118.515 27.3302 118.248 27.2565 117.978 27.1706C117.714 27.0846 117.471 26.9741 117.25 26.839C117.029 26.704 116.848 26.5259 116.707 26.3049C116.572 26.0839 116.504 25.8014 116.504 25.4576C116.504 25.0893 116.602 24.7546 116.799 24.4538C117.002 24.1468 117.302 23.9043 117.701 23.7263C118.107 23.5421 118.613 23.45 119.221 23.45C119.626 23.45 120.025 23.4991 120.418 23.5973C120.811 23.6894 121.158 23.8306 121.459 24.021L120.998 25.1537C120.698 24.9818 120.397 24.856 120.096 24.7761C119.795 24.6902 119.5 24.6472 119.212 24.6472C118.923 24.6472 118.687 24.681 118.503 24.7485C118.318 24.816 118.186 24.9051 118.107 25.0156C118.027 25.12 117.987 25.2427 117.987 25.384C117.987 25.5497 118.054 25.6848 118.19 25.7892C118.325 25.8874 118.503 25.9672 118.724 26.0286C118.945 26.09 119.187 26.1514 119.451 26.2128C119.721 26.2742 119.988 26.3448 120.252 26.4246C120.523 26.5044 120.768 26.6119 120.989 26.7469C121.21 26.882 121.388 27.06 121.523 27.2811C121.665 27.5021 121.735 27.7814 121.735 28.1191C121.735 28.4813 121.634 28.8129 121.431 29.1137C121.229 29.4146 120.925 29.6571 120.519 29.8413C120.12 30.0254 119.614 30.1175 119 30.1175ZM127.083 30.1175C126.567 30.1175 126.073 30.05 125.6 29.9149C125.128 29.7737 124.747 29.5926 124.458 29.3716L124.965 28.248C125.241 28.4445 125.566 28.6072 125.941 28.7361C126.322 28.8589 126.705 28.9203 127.092 28.9203C127.387 28.9203 127.623 28.8927 127.801 28.8374C127.985 28.776 128.121 28.6932 128.207 28.5888C128.292 28.4844 128.335 28.3647 128.335 28.2296C128.335 28.0577 128.268 27.9226 128.133 27.8244C127.998 27.72 127.82 27.6372 127.599 27.5758C127.378 27.5082 127.132 27.4468 126.862 27.3916C126.598 27.3302 126.331 27.2565 126.061 27.1706C125.797 27.0846 125.554 26.9741 125.333 26.839C125.112 26.704 124.931 26.5259 124.79 26.3049C124.655 26.0839 124.587 25.8014 124.587 25.4576C124.587 25.0893 124.685 24.7546 124.882 24.4538C125.085 24.1468 125.385 23.9043 125.784 23.7263C126.19 23.5421 126.696 23.45 127.304 23.45C127.709 23.45 128.108 23.4991 128.501 23.5973C128.894 23.6894 129.241 23.8306 129.542 24.021L129.081 25.1537C128.781 24.9818 128.48 24.856 128.179 24.7761C127.878 24.6902 127.583 24.6472 127.295 24.6472C127.006 24.6472 126.77 24.681 126.586 24.7485C126.401 24.816 126.269 24.9051 126.19 25.0156C126.11 25.12 126.07 25.2427 126.07 25.384C126.07 25.5497 126.137 25.6848 126.273 25.7892C126.408 25.8874 126.586 25.9672 126.807 26.0286C127.028 26.09 127.27 26.1514 127.534 26.2128C127.804 26.2742 128.071 26.3448 128.335 26.4246C128.606 26.5044 128.851 26.6119 129.072 26.7469C129.293 26.882 129.471 27.06 129.606 27.2811C129.748 27.5021 129.818 27.7814 129.818 28.1191C129.818 28.4813 129.717 28.8129 129.514 29.1137C129.312 29.4146 129.008 29.6571 128.603 29.8413C128.203 30.0254 127.697 30.1175 127.083 30.1175ZM109.976 27.3179V28.8098H113.485V30.007H108.493V23.5605H113.365V24.7577H109.976V26.1575H112.969V27.3179H109.976ZM98.8453 30.007V23.5605H100.079L103.284 27.4715V23.5605H104.758V30.007H103.533L100.319 26.0943V30.007H98.8453ZM93.6132 23.5605V30.007H95.1051V23.5605H93.6132ZM76.7807 29.3532C77.2964 29.8627 78.0117 30.1175 78.9265 30.1175C79.8413 30.1175 80.5565 29.8627 81.0722 29.3532C81.5879 28.8436 81.8458 28.116 81.8458 27.1706V23.5605H80.3723V27.1153C80.3723 27.7293 80.2465 28.1713 79.9947 28.4414C79.743 28.7116 79.39 28.8467 78.9357 28.8467C78.4813 28.8467 78.1283 28.7116 77.8766 28.4414C77.6249 28.1713 77.499 27.7293 77.499 27.1153V23.5605H76.0071V27.1706C76.0071 28.116 76.265 28.8436 76.7807 29.3532ZM66.8102 30.007V23.5605H69.9598C70.7702 23.5605 71.3781 23.714 71.7833 24.021C72.1946 24.328 72.4003 24.7332 72.4003 25.2366C72.4003 25.5743 72.3174 25.869 72.1516 26.1207C72.0016 26.3429 71.8013 26.5199 71.5507 26.6517C71.6114 26.6719 71.6705 26.6945 71.728 26.7193C72.0411 26.8482 72.2836 27.0416 72.4555 27.2995C72.6336 27.5573 72.7226 27.8735 72.7226 28.248C72.7226 28.8006 72.5047 29.2334 72.0688 29.5466C71.6329 29.8535 70.9913 30.007 70.144 30.007H66.8102ZM68.2929 28.8835H70.0335C70.4203 28.8835 70.7119 28.8221 70.9084 28.6993C71.111 28.5704 71.2123 28.3678 71.2123 28.0915C71.2123 27.8213 71.111 27.6218 70.9084 27.4929C70.7119 27.3578 70.4203 27.2903 70.0335 27.2903H68.2929V28.8835ZM69.7756 26.2036H68.2929V24.684H69.7756C70.1379 24.684 70.4142 24.7485 70.6045 24.8774C70.8009 25.0002 70.8992 25.1875 70.8992 25.4392C70.8992 25.6971 70.8009 25.8905 70.6045 26.0194C70.4142 26.1422 70.1379 26.2036 69.7756 26.2036ZM53.0096 23.5605V30.007H54.5015V28.2112H55.8C55.8235 28.2112 55.8469 28.2111 55.8701 28.2108L57.1077 30.007H58.7194L57.2793 27.9405L57.2919 27.9349C57.7094 27.7507 58.0317 27.4867 58.2589 27.1429C58.4861 26.793 58.5996 26.3786 58.5996 25.8997C58.5996 25.4147 58.4861 24.9972 58.2589 24.6472C58.0317 24.2973 57.7094 24.0302 57.2919 23.846C56.8744 23.6557 56.3771 23.5605 55.8 23.5605H53.0096ZM54.5015 27.0232V24.7761H55.7171C56.1776 24.7761 56.5214 24.8744 56.7486 25.0708C56.9757 25.2673 57.0893 25.5436 57.0893 25.8997C57.0893 26.2496 56.9757 26.5259 56.7486 26.7285C56.5214 26.925 56.1776 27.0232 55.7171 27.0232H54.5015ZM36.4919 27.6587V30.007H35V23.5605H39.8717V24.7577H36.4919V26.4614H39.4757V27.6587H36.4919Z" fill="#343434"/>
<path fill-rule="evenodd" clip-rule="evenodd" d="M35 1H43.6096C46.0042 1 47.8606 1.67379 49.0983 2.91379C50.1476 3.96482 50.7126 5.44728 50.7126 7.22618V7.28038C50.7126 10.3262 49.0714 12.24 46.6768 13.1293L51.2776 19.8679H46.434L42.3982 13.8304H39.1427V19.8679H35V1ZM43.3406 10.1645C45.3585 10.1645 46.5154 9.08618 46.5154 7.49588V7.44208C46.5154 5.66308 45.2777 4.74655 43.2599 4.74655H39.1427V10.1645H43.3406ZM53.0502 12.7252V12.6714C53.0502 8.51998 56.3878 5.15103 60.8796 5.15103C65.3462 5.15103 68.6555 8.46618 68.6555 12.6173V12.6714C68.6555 16.8221 65.3179 20.1914 60.8258 20.1914C56.3606 20.1914 53.0502 16.8759 53.0502 12.7252ZM64.6198 12.7252V12.6714C64.6198 10.5417 63.0872 8.68208 60.8258 8.68208C58.4851 8.68208 57.086 10.488 57.086 12.6173V12.6714C57.086 14.8007 58.6186 16.6604 60.8796 16.6604C63.2217 16.6604 64.6198 14.8545 64.6198 12.7252ZM75.7033 17.9811V19.8679H71.6147V0.19138H75.7043V7.49588C76.202 6.75788 76.8735 6.15708 77.658 5.74768C78.4425 5.33828 79.3154 5.13322 80.1978 5.15103C83.5606 5.15103 86.7623 7.79238 86.7623 12.6173V12.6714C86.7623 17.4962 83.6148 20.1373 80.1978 20.1373C79.3349 20.1558 78.4796 19.9706 77.6996 19.5964C76.9197 19.2221 76.2355 18.6691 75.7033 17.9811ZM82.6717 12.6707V12.6166C82.6717 10.2176 81.0578 8.62728 79.1472 8.62728C77.2366 8.62728 75.6495 10.2176 75.6495 12.6166V12.6707C75.6495 15.0693 77.2369 16.6597 79.1472 16.6597C81.0574 16.6597 82.6727 15.0969 82.6727 12.6714L82.6717 12.6707ZM89.0744 12.7245V12.6707C89.0744 8.51928 92.412 5.15034 96.9042 5.15034C101.37 5.15034 104.68 8.46548 104.68 12.6166V12.6707C104.68 16.8214 101.342 20.1907 96.8504 20.1907C92.3841 20.1914 89.0744 16.8752 89.0744 12.7245ZM100.644 12.7245V12.6707C100.644 10.5411 99.1111 8.68138 96.8504 8.68138C94.5093 8.68138 93.1102 10.4873 93.1102 12.6166V12.6707C93.1102 14.8 94.6428 16.6597 96.9042 16.6597C99.2449 16.6604 100.644 14.8538 100.644 12.7245ZM108.068 1.00035H122.408V4.77345H112.212V8.78968H121.198V12.5635H112.212V19.8679H108.068V1.00035ZM124.183 12.7245V12.6707C124.183 8.51928 127.521 5.15034 132.013 5.15034C136.479 5.15034 139.788 8.46548 139.788 12.6166V12.6707C139.788 16.8214 136.451 20.1907 131.959 20.1907C127.493 20.1914 124.184 16.8759 124.184 12.7252L124.183 12.7245ZM135.752 12.7245V12.6707C135.752 10.5411 134.22 8.68138 131.959 8.68138C129.618 8.68138 128.219 10.4873 128.219 12.6166V12.6707C128.219 14.8 129.752 16.6597 132.013 16.6597C134.354 16.6604 135.753 14.8545 135.753 12.7252L135.752 12.7245ZM142.746 5.41998H146.836V8.33208C147.67 6.33728 149.015 5.04345 151.437 5.15138V9.43548H151.221C148.504 9.43548 146.836 11.0797 146.836 14.53V19.8669H142.746V5.41858V5.41998ZM153.992 5.41998H158.082V7.46828C159.024 6.25548 160.262 5.15034 162.333 5.15034C164.217 5.15034 165.643 5.98588 166.396 7.44138C167.66 5.95858 169.167 5.15034 171.13 5.15034C174.17 5.15034 176 6.98308 176 10.4607V19.8676H171.911V11.8086C171.911 9.86798 171.05 8.87068 169.517 8.87068C167.983 8.87068 167.041 9.86798 167.041 11.8086V19.8679H162.952V11.8086C162.952 9.86798 162.091 8.87068 160.558 8.87068C159.024 8.87068 158.083 9.86798 158.083 11.8086V19.8679H153.992V5.41998Z" fill="#343434"/>
<path fill-rule="evenodd" clip-rule="evenodd" d="M0 4.63462C0 2.62727 1.62297 1 3.625 1H25.375C27.377 1 29 2.62727 29 4.63462V18.3654C29 20.3727 27.377 22 25.375 22H3.625C1.62297 22 0 20.3727 0 18.3654V4.63462ZM5.05357 4C3.91942 4 3 4.93274 3 6.08333V16.9167C3 18.0673 3.91942 19 5.05357 19H23.9464C25.0806 19 26 18.0673 26 16.9167V6.08333C26 4.93274 25.0806 4 23.9464 4H5.05357Z" fill="#5EB159"/>
<path d="M0 27C0 25.3431 1.44264 24 3.22222 24H25.7778C27.5574 24 29 25.3431 29 27C29 28.6569 27.5574 30 25.7778 30H3.22222C1.44264 30 0 28.6569 0 27Z" fill="#5EB159"/>
<g style="mix-blend-mode:color-burn" filter="url(#filter0_i_1029_15803)">
<path fill-rule="evenodd" clip-rule="evenodd" d="M3.625 1C1.62297 1 0 2.62727 0 4.63462V18.3654C0 20.3727 1.62297 22 3.625 22H25.375C27.377 22 29 20.3727 29 18.3654V4.63462C29 2.62727 27.377 1 25.375 1H3.625ZM5.05357 4C3.91942 4 3 4.93274 3 6.08333V16.9167C3 18.0673 3.91942 19 5.05357 19H23.9464C25.0806 19 26 18.0673 26 16.9167V6.08333C26 4.93274 25.0806 4 23.9464 4H5.05357Z" fill="white"/>
</g>
<g style="mix-blend-mode:color-dodge" filter="url(#filter1_i_1029_15803)">
<path fill-rule="evenodd" clip-rule="evenodd" d="M3.625 1C1.62297 1 0 2.62727 0 4.63462V18.3654C0 20.3727 1.62297 22 3.625 22H25.375C27.377 22 29 20.3727 29 18.3654V4.63462C29 2.62727 27.377 1 25.375 1H3.625ZM5.05357 4C3.91942 4 3 4.93274 3 6.08333V16.9167C3 18.0673 3.91942 19 5.05357 19H23.9464C25.0806 19 26 18.0673 26 16.9167V6.08333C26 4.93274 25.0806 4 23.9464 4H5.05357Z" fill="black"/>
</g>
<g style="mix-blend-mode:color-burn" filter="url(#filter2_i_1029_15803)">
<path d="M26 24H3C1.34315 24 0 25.3431 0 27C0 28.6569 1.34315 30 3 30H26C27.6569 30 29 28.6569 29 27C29 25.3431 27.6569 24 26 24Z" fill="white"/>
</g>
<g style="mix-blend-mode:color-dodge" filter="url(#filter3_i_1029_15803)">
<path d="M26 24H3C1.34315 24 0 25.3431 0 27C0 28.6569 1.34315 30 3 30H26C27.6569 30 29 28.6569 29 27C29 25.3431 27.6569 24 26 24Z" fill="black"/>
</g>
<path d="M3 6.08333C3 4.93274 3.91942 4 5.05357 4H23.9464C25.0806 4 26 4.93274 26 6.08333V16.9167C26 18.0673 25.0806 19 23.9464 19H5.05357C3.91942 19 3 18.0673 3 16.9167V6.08333Z" fill="#EEEEEE"/>
<path d="M23.9464 3.5H5.05357C3.63651 3.5 2.5 4.6634 2.5 6.08333V16.9167C2.5 18.3366 3.63652 19.5 5.05357 19.5H23.9464C25.3635 19.5 26.5 18.3366 26.5 16.9167V6.08333C26.5 4.6634 25.3635 3.5 23.9464 3.5Z" stroke="black" stroke-opacity="0.1"/>
<path d="M9.06246 14.2917C10.7308 14.2917 12.0833 12.9392 12.0833 11.2708C12.0833 9.60247 10.7308 8.25 9.06246 8.25C7.3941 8.25 6.04163 9.60247 6.04163 11.2708C6.04163 12.9392 7.3941 14.2917 9.06246 14.2917Z" fill="url(#paint0_linear_1029_15803)"/>
<path d="M19.5347 14.2917C21.203 14.2917 22.5555 12.9392 22.5555 11.2708C22.5555 9.60247 21.203 8.25 19.5347 8.25C17.8663 8.25 16.5138 9.60247 16.5138 11.2708C16.5138 12.9392 17.8663 14.2917 19.5347 14.2917Z" fill="url(#paint1_linear_1029_15803)"/>
</g>
<defs>
<filter id="filter0_i_1029_15803" x="0" y="0" width="29" height="22" filterUnits="userSpaceOnUse" color-interpolation-filters="sRGB">
<feFlood flood-opacity="0" result="BackgroundImageFix"/>
<feBlend mode="normal" in="SourceGraphic" in2="BackgroundImageFix" result="shape"/>
<feColorMatrix in="SourceAlpha" type="matrix" values="0 0 0 0 0 0 0 0 0 0 0 0 0 0 0 0 0 0 127 0" result="hardAlpha"/>
<feOffset dy="-1"/>
<feGaussianBlur stdDeviation="1"/>
<feComposite in2="hardAlpha" operator="arithmetic" k2="-1" k3="1"/>
<feColorMatrix type="matrix" values="0 0 0 0 0 0 0 0 0 0 0 0 0 0 0 0 0 0 0.21 0"/>
<feBlend mode="normal" in2="shape" result="effect1_innerShadow_1029_15803"/>
</filter>
<filter id="filter1_i_1029_15803" x="0" y="1" width="29" height="22.5" filterUnits="userSpaceOnUse" color-interpolation-filters="sRGB">
<feFlood flood-opacity="0" result="BackgroundImageFix"/>
<feBlend mode="normal" in="SourceGraphic" in2="BackgroundImageFix" result="shape"/>
<feColorMatrix in="SourceAlpha" type="matrix" values="0 0 0 0 0 0 0 0 0 0 0 0 0 0 0 0 0 0 127 0" result="hardAlpha"/>
<feOffset dy="1.5"/>
<feGaussianBlur stdDeviation="0.75"/>
<feComposite in2="hardAlpha" operator="arithmetic" k2="-1" k3="1"/>
<feColorMatrix type="matrix" values="0 0 0 0 1 0 0 0 0 1 0 0 0 0 1 0 0 0 0.21 0"/>
<feBlend mode="normal" in2="shape" result="effect1_innerShadow_1029_15803"/>
</filter>
<filter id="filter2_i_1029_15803" x="0" y="21" width="29" height="9" filterUnits="userSpaceOnUse" color-interpolation-filters="sRGB">
<feFlood flood-opacity="0" result="BackgroundImageFix"/>
<feBlend mode="normal" in="SourceGraphic" in2="BackgroundImageFix" result="shape"/>
<feColorMatrix in="SourceAlpha" type="matrix" values="0 0 0 0 0 0 0 0 0 0 0 0 0 0 0 0 0 0 127 0" result="hardAlpha"/>
<feOffset dy="-3"/>
<feGaussianBlur stdDeviation="1.5"/>
<feComposite in2="hardAlpha" operator="arithmetic" k2="-1" k3="1"/>
<feColorMatrix type="matrix" values="0 0 0 0 0 0 0 0 0 0 0 0 0 0 0 0 0 0 0.21 0"/>
<feBlend mode="normal" in2="shape" result="effect1_innerShadow_1029_15803"/>
</filter>
<filter id="filter3_i_1029_15803" x="0" y="24" width="29" height="8" filterUnits="userSpaceOnUse" color-interpolation-filters="sRGB">
<feFlood flood-opacity="0" result="BackgroundImageFix"/>
<feBlend mode="normal" in="SourceGraphic" in2="BackgroundImageFix" result="shape"/>
<feColorMatrix in="SourceAlpha" type="matrix" values="0 0 0 0 0 0 0 0 0 0 0 0 0 0 0 0 0 0 127 0" result="hardAlpha"/>
<feOffset dy="2"/>
<feGaussianBlur stdDeviation="1"/>
<feComposite in2="hardAlpha" operator="arithmetic" k2="-1" k3="1"/>
<feColorMatrix type="matrix" values="0 0 0 0 1 0 0 0 0 1 0 0 0 0 1 0 0 0 0.21 0"/>
<feBlend mode="normal" in2="shape" result="effect1_innerShadow_1029_15803"/>
</filter>
<linearGradient id="paint0_linear_1029_15803" x1="14.2986" y1="8.25" x2="14.2986" y2="14.2917" gradientUnits="userSpaceOnUse">
<stop stop-color="#4F5254"/>
<stop offset="1" stop-color="#282A33"/>
</linearGradient>
<linearGradient id="paint1_linear_1029_15803" x1="14.2986" y1="8.25" x2="14.2986" y2="14.2917" gradientUnits="userSpaceOnUse">
<stop stop-color="#4F5254"/>
<stop offset="1" stop-color="#282A33"/>
</linearGradient>
<clipPath id="clip0_1029_15803">
<rect width="176" height="31" fill="white"/>
</clipPath>
</defs>
</svg>
