<svg width="172" height="30" viewBox="0 0 172 30" fill="none" xmlns="http://www.w3.org/2000/svg">
<g clip-path="url(#clip0_3036_12512)">
<path fill-rule="evenodd" clip-rule="evenodd" d="M3.5 0.758789C1.567 0.758789 0 2.32995 0 4.26807V17.5254C0 19.4635 1.567 21.0347 3.5 21.0347H24.5C26.433 21.0347 28 19.4635 28 17.5254V4.26807C28 2.32995 26.433 0.758789 24.5 0.758789H3.5Z" fill="url(#paint0_linear_3036_12512)"/>
<path d="M0 25.8624C0 24.2627 1.30584 22.9658 2.91667 22.9658H25.0833C26.6942 22.9658 28 24.2627 28 25.8624C28 27.4621 26.6942 28.7589 25.0833 28.7589H2.91667C1.30584 28.7589 0 27.4621 0 25.8624Z" fill="url(#paint1_linear_3036_12512)"/>
<path d="M2.89661 5.66677C2.89661 4.55585 3.78432 3.65527 4.87937 3.65527H23.1207C24.2158 3.65527 25.1035 4.55585 25.1035 5.66677V16.1265C25.1035 17.2375 24.2158 18.138 23.1207 18.138H4.87937C3.78432 18.138 2.89661 17.2375 2.89661 16.1265V5.66677Z" fill="#EEEEEE"/>
<path d="M4.87937 3.15527C3.50142 3.15527 2.39661 4.28651 2.39661 5.66677V16.1265C2.39661 17.5068 3.50142 18.638 4.87937 18.638H23.1207C24.4987 18.638 25.6035 17.5068 25.6035 16.1265V5.66677C25.6035 4.28652 24.4987 3.15527 23.1207 3.15527H4.87937Z" stroke="black" stroke-opacity="0.1"/>
<path d="M8.74931 13.5921C10.3601 13.5921 11.666 12.2863 11.666 10.6755C11.666 9.06463 10.3601 7.75879 8.74931 7.75879C7.13848 7.75879 5.83264 9.06463 5.83264 10.6755C5.83264 12.2863 7.13848 13.5921 8.74931 13.5921Z" fill="url(#paint2_linear_3036_12512)"/>
<path d="M18.8604 13.5921C20.4712 13.5921 21.7771 12.2863 21.7771 10.6755C21.7771 9.06463 20.4712 7.75879 18.8604 7.75879C17.2496 7.75879 15.9437 9.06463 15.9437 10.6755C15.9437 12.2863 17.2496 13.5921 18.8604 13.5921Z" fill="url(#paint3_linear_3036_12512)"/>
<path fill-rule="evenodd" clip-rule="evenodd" d="M35.6792 0.780738H43.9786C46.2869 0.780738 48.0765 1.43129 49.2695 2.62853C50.281 3.64333 50.8256 5.07463 50.8256 6.79225V6.84451C50.8256 9.78535 49.2436 11.6331 46.9353 12.4918L51.3703 18.998H46.7012L42.8109 13.1687H39.6726V18.998H35.6792V0.780738ZM43.7193 9.6292C45.6644 9.6292 46.7797 8.5881 46.7797 7.0526V7.00067C46.7797 5.28305 45.5866 4.39809 43.6415 4.39809H39.6726V9.6292H43.7186H43.7193ZM53.0791 12.1016V12.0497C53.0791 8.04142 56.2964 4.78863 60.6264 4.78863C64.932 4.78863 68.1221 7.98949 68.1221 11.9974V12.0497C68.1221 16.0572 64.9048 19.3103 60.5745 19.3103C56.2702 19.3103 53.0791 16.1092 53.0791 12.1016ZM64.2318 12.1016V12.0497C64.2318 9.99343 62.7544 8.1979 60.5745 8.1979C58.3181 8.1979 56.9694 9.9415 56.9694 11.9974V12.0497C56.9694 14.1055 58.4468 15.9011 60.6264 15.9011C62.8841 15.9011 64.2328 14.1575 64.2328 12.1016H64.2318ZM74.916 17.1762V18.998H70.9747V0H74.9169V7.0526C75.3967 6.34006 76.044 5.75996 76.8002 5.36469C77.5565 4.96942 78.3979 4.77144 79.2485 4.78863C82.4902 4.78863 85.5765 7.33893 85.5765 11.9974V12.0497C85.5765 16.7081 82.5424 19.2581 79.2485 19.2581C78.4167 19.276 77.5922 19.0972 76.8403 18.7358C76.0885 18.3745 75.43 17.8405 74.9169 17.1762H74.916ZM81.6333 12.049V11.9967C81.6333 9.68047 80.0775 8.14497 78.2357 8.14497C76.394 8.14497 74.8641 9.68047 74.8641 11.9967V12.049C74.8641 14.3649 76.3943 15.9004 78.2357 15.9004C80.0772 15.9004 81.6343 14.3915 81.6343 12.0497L81.6333 12.049ZM87.8053 12.1009V12.049C87.8053 8.04076 91.0227 4.78796 95.353 4.78796C99.658 4.78796 102.848 7.98882 102.848 11.9967V12.049C102.848 16.0566 99.631 19.3097 95.3011 19.3097C90.9958 19.3103 87.8057 16.1092 87.8057 12.1016L87.8053 12.1009ZM98.9577 12.1009V12.049C98.9577 9.99277 97.4803 8.19724 95.3011 8.19724C93.0443 8.19724 91.6957 9.94083 91.6957 11.9967V12.049C91.6957 14.1049 93.173 15.9004 95.353 15.9004C97.6094 15.9011 98.958 14.1575 98.958 12.1016L98.9577 12.1009ZM106.115 0.781073H119.938V4.42406H110.109V8.30178H118.772V11.9454H110.109V18.998H106.115V0.780738L106.115 0.781073ZM121.649 12.1009V12.049C121.649 8.04076 124.866 4.78796 129.196 4.78796C133.502 4.78796 136.692 7.98882 136.692 11.9967V12.049C136.692 16.0566 133.474 19.3097 129.145 19.3097C124.84 19.3103 121.649 16.1092 121.649 12.1016L121.649 12.1009ZM132.801 12.1009V12.049C132.801 9.99277 131.324 8.19724 129.145 8.19724C126.888 8.19724 125.539 9.94083 125.539 11.9967V12.049C125.539 14.1049 127.017 15.9004 129.196 15.9004C131.453 15.9011 132.802 14.1575 132.802 12.1016L132.801 12.1009ZM139.543 5.04832H143.485V7.85998C144.289 5.93394 145.586 4.68476 147.921 4.78897V8.92537H147.713C145.093 8.92537 143.485 10.5128 143.485 13.8442V18.997H139.543V5.04699L139.543 5.04832ZM150.384 5.04832H154.327V7.02597C155.235 5.85503 156.428 4.78796 158.425 4.78796C160.24 4.78796 161.615 5.59467 162.341 7C163.56 5.56837 165.012 4.78796 166.904 4.78796C169.835 4.78796 171.599 6.55753 171.599 9.9152V18.9977H167.657V11.2166C167.657 9.34288 166.827 8.38002 165.349 8.38002C163.871 8.38002 162.963 9.34288 162.963 11.2166V18.998H159.021V11.2166C159.021 9.34288 158.192 8.38002 156.713 8.38002C155.235 8.38002 154.327 9.34288 154.327 11.2166V18.998H150.384V5.04799L150.384 5.04832Z" fill="white"/>
<path fill-rule="evenodd" clip-rule="evenodd" d="M46.5864 29.1078C46.0884 29.1078 45.6264 29.0268 45.2004 28.8648C44.7804 28.7028 44.4144 28.4748 44.1024 28.1808C43.7964 27.8868 43.5564 27.5418 43.3824 27.1458C43.2144 26.7498 43.1304 26.3178 43.1304 25.8498C43.1304 25.3818 43.2144 24.9498 43.3824 24.5538C43.5564 24.1578 43.7994 23.8128 44.1114 23.5188C44.4234 23.2248 44.7894 22.9968 45.2094 22.8348C45.6294 22.6728 46.0854 22.5918 46.5774 22.5918C47.0754 22.5918 47.5314 22.6728 47.9454 22.8348C48.3654 22.9968 48.7284 23.2248 49.0344 23.5188C49.3464 23.8128 49.5894 24.1578 49.7634 24.5538C49.9374 24.9438 50.0244 25.3758 50.0244 25.8498C50.0244 26.3178 49.9374 26.7528 49.7634 27.1548C49.5894 27.5508 49.3464 27.8958 49.0344 28.1898C48.7284 28.4778 48.3654 28.7028 47.9454 28.8648C47.5314 29.0268 47.0784 29.1078 46.5864 29.1078ZM46.5774 27.8658C46.8594 27.8658 47.1174 27.8178 47.3514 27.7218C47.5914 27.6258 47.8014 27.4878 47.9814 27.3078C48.1614 27.1278 48.2994 26.9148 48.3954 26.6688C48.4974 26.4228 48.5484 26.1498 48.5484 25.8498C48.5484 25.5498 48.4974 25.2768 48.3954 25.0308C48.2994 24.7848 48.1614 24.5718 47.9814 24.3918C47.8074 24.2118 47.6004 24.0738 47.3604 23.9778C47.1204 23.8818 46.8594 23.8338 46.5774 23.8338C46.2954 23.8338 46.0344 23.8818 45.7944 23.9778C45.5604 24.0738 45.3534 24.2118 45.1734 24.3918C44.9934 24.5718 44.8524 24.7848 44.7504 25.0308C44.6544 25.2768 44.6064 25.5498 44.6064 25.8498C44.6064 26.1438 44.6544 26.4168 44.7504 26.6688C44.8524 26.9148 44.9904 27.1278 45.1644 27.3078C45.3444 27.4878 45.5544 27.6258 45.7944 27.7218C46.0344 27.8178 46.2954 27.8658 46.5774 27.8658ZM87.1318 29.1078C86.6278 29.1078 86.1448 29.0418 85.6828 28.9098C85.2208 28.7718 84.8488 28.5948 84.5668 28.3788L85.0618 27.2808C85.3318 27.4728 85.6498 27.6318 86.0158 27.7578C86.3878 27.8778 86.7628 27.9378 87.1408 27.9378C87.4288 27.9378 87.6598 27.9108 87.8338 27.8568C88.0138 27.7968 88.1458 27.7158 88.2298 27.6138C88.3138 27.5118 88.3558 27.3948 88.3558 27.2628C88.3558 27.0948 88.2898 26.9628 88.1578 26.8668C88.0258 26.7648 87.8518 26.6838 87.6358 26.6238C87.4198 26.5578 87.1798 26.4978 86.9158 26.4438C86.6578 26.3838 86.3968 26.3118 86.1328 26.2278C85.8748 26.1438 85.6378 26.0358 85.4218 25.9038C85.2058 25.7718 85.0288 25.5978 84.8908 25.3818C84.7588 25.1658 84.6928 24.8898 84.6928 24.5538C84.6928 24.1938 84.7888 23.8668 84.9808 23.5728C85.1788 23.2728 85.4728 23.0358 85.8628 22.8618C86.2588 22.6818 86.7538 22.5918 87.3478 22.5918C87.7438 22.5918 88.1338 22.6398 88.5178 22.7358C88.9018 22.8258 89.2408 22.9638 89.5348 23.1498L89.0848 24.2568C88.7908 24.0888 88.4968 23.9658 88.2028 23.8878C87.9088 23.8038 87.6208 23.7618 87.3388 23.7618C87.0568 23.7618 86.8258 23.7948 86.6458 23.8608C86.4658 23.9268 86.3368 24.0138 86.2588 24.1218C86.1808 24.2238 86.1418 24.3438 86.1418 24.4818C86.1418 24.6438 86.2078 24.7758 86.3398 24.8778C86.4718 24.9738 86.6458 25.0518 86.8618 25.1118C87.0778 25.1718 87.3148 25.2318 87.5728 25.2918C87.8368 25.3518 88.0978 25.4208 88.3558 25.4988C88.6198 25.5768 88.8598 25.6818 89.0758 25.8138C89.2918 25.9458 89.4658 26.1198 89.5978 26.3358C89.7358 26.5518 89.8048 26.8248 89.8048 27.1548C89.8048 27.5088 89.7058 27.8328 89.5078 28.1268C89.3098 28.4208 89.0128 28.6578 88.6168 28.8378C88.2268 29.0178 87.7318 29.1078 87.1318 29.1078ZM117.771 29.1078C117.267 29.1078 116.784 29.0418 116.322 28.9098C115.86 28.7718 115.488 28.5948 115.206 28.3788L115.701 27.2808C115.971 27.4728 116.289 27.6318 116.655 27.7578C117.027 27.8778 117.402 27.9378 117.78 27.9378C118.068 27.9378 118.299 27.9108 118.473 27.8568C118.653 27.7968 118.785 27.7158 118.869 27.6138C118.953 27.5118 118.995 27.3948 118.995 27.2628C118.995 27.0948 118.929 26.9628 118.797 26.8668C118.665 26.7648 118.491 26.6838 118.275 26.6238C118.059 26.5578 117.819 26.4978 117.555 26.4438C117.297 26.3838 117.036 26.3118 116.772 26.2278C116.514 26.1438 116.277 26.0358 116.061 25.9038C115.845 25.7718 115.668 25.5978 115.53 25.3818C115.398 25.1658 115.332 24.8898 115.332 24.5538C115.332 24.1938 115.428 23.8668 115.62 23.5728C115.818 23.2728 116.112 23.0358 116.502 22.8618C116.898 22.6818 117.393 22.5918 117.987 22.5918C118.383 22.5918 118.773 22.6398 119.157 22.7358C119.541 22.8258 119.88 22.9638 120.174 23.1498L119.724 24.2568C119.43 24.0888 119.136 23.9658 118.842 23.8878C118.548 23.8038 118.26 23.7618 117.978 23.7618C117.696 23.7618 117.465 23.7948 117.285 23.8608C117.105 23.9268 116.976 24.0138 116.898 24.1218C116.82 24.2238 116.781 24.3438 116.781 24.4818C116.781 24.6438 116.847 24.7758 116.979 24.8778C117.111 24.9738 117.285 25.0518 117.501 25.1118C117.717 25.1718 117.954 25.2318 118.212 25.2918C118.476 25.3518 118.737 25.4208 118.995 25.4988C119.259 25.5768 119.499 25.6818 119.715 25.8138C119.931 25.9458 120.105 26.1198 120.237 26.3358C120.375 26.5518 120.444 26.8248 120.444 27.1548C120.444 27.5088 120.345 27.8328 120.147 28.1268C119.949 28.4208 119.652 28.6578 119.256 28.8378C118.866 29.0178 118.371 29.1078 117.771 29.1078ZM125.67 29.1078C125.166 29.1078 124.683 29.0418 124.221 28.9098C123.759 28.7718 123.387 28.5948 123.105 28.3788L123.6 27.2808C123.87 27.4728 124.188 27.6318 124.554 27.7578C124.926 27.8778 125.301 27.9378 125.679 27.9378C125.967 27.9378 126.198 27.9108 126.372 27.8568C126.552 27.7968 126.684 27.7158 126.768 27.6138C126.852 27.5118 126.894 27.3948 126.894 27.2628C126.894 27.0948 126.828 26.9628 126.696 26.8668C126.564 26.7648 126.39 26.6838 126.174 26.6238C125.958 26.5578 125.718 26.4978 125.454 26.4438C125.196 26.3838 124.935 26.3118 124.671 26.2278C124.413 26.1438 124.176 26.0358 123.96 25.9038C123.744 25.7718 123.567 25.5978 123.429 25.3818C123.297 25.1658 123.231 24.8898 123.231 24.5538C123.231 24.1938 123.327 23.8668 123.519 23.5728C123.717 23.2728 124.011 23.0358 124.401 22.8618C124.797 22.6818 125.292 22.5918 125.886 22.5918C126.282 22.5918 126.672 22.6398 127.056 22.7358C127.44 22.8258 127.779 22.9638 128.073 23.1498L127.623 24.2568C127.329 24.0888 127.035 23.9658 126.741 23.8878C126.447 23.8038 126.159 23.7618 125.877 23.7618C125.595 23.7618 125.364 23.7948 125.184 23.8608C125.004 23.9268 124.875 24.0138 124.797 24.1218C124.719 24.2238 124.68 24.3438 124.68 24.4818C124.68 24.6438 124.746 24.7758 124.878 24.8778C125.01 24.9738 125.184 25.0518 125.4 25.1118C125.616 25.1718 125.853 25.2318 126.111 25.2918C126.375 25.3518 126.636 25.4208 126.894 25.4988C127.158 25.5768 127.398 25.6818 127.614 25.8138C127.83 25.9458 128.004 26.1198 128.136 26.3358C128.274 26.5518 128.343 26.8248 128.343 27.1548C128.343 27.5088 128.244 27.8328 128.046 28.1268C127.848 28.4208 127.551 28.6578 127.155 28.8378C126.765 29.0178 126.27 29.1078 125.67 29.1078ZM108.952 26.3718V27.8298H112.381V28.9998H107.503V22.6998H112.264V23.8698H108.952V25.2378H111.877V26.3718H108.952ZM98.0742 28.9998V22.6998H99.2802L102.412 26.5219V22.6998H103.852V28.9998H102.655L99.5142 25.176V28.9998H98.0742ZM92.9611 22.6998V28.9998H94.4191V22.6998H92.9611ZM76.5111 28.3608C77.0151 28.8588 77.7141 29.1078 78.6081 29.1078C79.5021 29.1078 80.2011 28.8588 80.7051 28.3608C81.2091 27.8628 81.4611 27.1518 81.4611 26.2278V22.6998H80.0211V26.1738C80.0211 26.7738 79.8981 27.2058 79.6521 27.4698C79.4061 27.7338 79.0611 27.8658 78.6171 27.8658C78.1731 27.8658 77.8281 27.7338 77.5821 27.4698C77.3361 27.2058 77.2131 26.7738 77.2131 26.1738V22.6998H75.7551V26.2278C75.7551 27.1518 76.0071 27.8628 76.5111 28.3608ZM66.7672 28.9998V22.6998H69.8452C70.6372 22.6998 71.2312 22.8498 71.6272 23.1498C72.0292 23.4498 72.2302 23.8458 72.2302 24.3378C72.2302 24.6678 72.1492 24.9558 71.9872 25.2018C71.8406 25.419 71.6448 25.592 71.4 25.7207C71.4592 25.7405 71.517 25.7625 71.5732 25.7868C71.8792 25.9128 72.1162 26.1018 72.2842 26.3538C72.4582 26.6058 72.5452 26.9148 72.5452 27.2808C72.5452 27.8208 72.3322 28.2438 71.9062 28.5498C71.4802 28.8498 70.8532 28.9998 70.0252 28.9998H66.7672ZM68.2162 27.9018H69.9172C70.2952 27.9018 70.5802 27.8418 70.7722 27.7218C70.9702 27.5958 71.0692 27.3978 71.0692 27.1278C71.0692 26.8638 70.9702 26.6688 70.7722 26.5428C70.5802 26.4108 70.2952 26.3448 69.9172 26.3448H68.2162V27.9018ZM69.6652 25.2828H68.2162V23.7978H69.6652C70.0192 23.7978 70.2892 23.8608 70.4752 23.9868C70.6672 24.1068 70.7632 24.2898 70.7632 24.5358C70.7632 24.7878 70.6672 24.9768 70.4752 25.1028C70.2892 25.2228 70.0192 25.2828 69.6652 25.2828ZM53.2802 22.6998V28.9998H54.7382V27.2448H56.0072C56.0302 27.2448 56.053 27.2446 56.0758 27.2444L57.2852 28.9998H58.8602L57.4529 26.9802L57.4652 26.9748C57.8732 26.7948 58.1882 26.5368 58.4102 26.2008C58.6322 25.8588 58.7432 25.4538 58.7432 24.9858C58.7432 24.5118 58.6322 24.1038 58.4102 23.7618C58.1882 23.4198 57.8732 23.1588 57.4652 22.9788C57.0572 22.7928 56.5712 22.6998 56.0072 22.6998H53.2802ZM54.7382 26.0838V23.8878H55.9262C56.3762 23.8878 56.7122 23.9838 56.9342 24.1758C57.1562 24.3678 57.2672 24.6378 57.2672 24.9858C57.2672 25.3278 57.1562 25.5978 56.9342 25.7958C56.7122 25.9878 56.3762 26.0838 55.9262 26.0838H54.7382ZM37.1379 26.7048V28.9998H35.6799V22.6998H40.4409V23.8698H37.1379V25.5348H40.0539V26.7048H37.1379Z" fill="white"/>
</g>
<defs>
<linearGradient id="paint0_linear_3036_12512" x1="14" y1="0.758789" x2="14" y2="21.0347" gradientUnits="userSpaceOnUse">
<stop stop-color="#78EC6F"/>
<stop offset="0.0833333" stop-color="#53BE4C"/>
<stop offset="0.473958" stop-color="#5DB756"/>
<stop offset="1" stop-color="#44A83D"/>
</linearGradient>
<linearGradient id="paint1_linear_3036_12512" x1="14" y1="22.9658" x2="14" y2="28.7589" gradientUnits="userSpaceOnUse">
<stop offset="0.145833" stop-color="#5ECC56"/>
<stop offset="0.494792" stop-color="#4EAE47"/>
<stop offset="1" stop-color="#189506"/>
</linearGradient>
<linearGradient id="paint2_linear_3036_12512" x1="13.8049" y1="7.75879" x2="13.8049" y2="13.5921" gradientUnits="userSpaceOnUse">
<stop stop-color="#4F5254"/>
<stop offset="1" stop-color="#282A33"/>
</linearGradient>
<linearGradient id="paint3_linear_3036_12512" x1="13.8049" y1="7.75879" x2="13.8049" y2="13.5921" gradientUnits="userSpaceOnUse">
<stop stop-color="#4F5254"/>
<stop offset="1" stop-color="#282A33"/>
</linearGradient>
<clipPath id="clip0_3036_12512">
<rect width="172" height="30" fill="white"/>
</clipPath>
</defs>
</svg>
