<svg width="24" height="24" viewBox="0 0 24 24" fill="none" xmlns="http://www.w3.org/2000/svg">
<path fill-rule="evenodd" clip-rule="evenodd" d="M15.3501 8.0001C15.3501 8.35908 15.6411 8.6501 16.0001 8.6501C16.3591 8.6501 16.6501 8.35908 16.6501 8.0001V6.6501L20.0001 6.6501C20.3591 6.6501 20.6501 6.35908 20.6501 6.0001C20.6501 5.64111 20.3591 5.3501 20.0001 5.3501L16.6501 5.3501V4.0001C16.6501 3.64111 16.3591 3.3501 16.0001 3.3501C15.6411 3.3501 15.3501 3.64111 15.3501 4.0001V6.0001V8.0001ZM3.3501 6.0001C3.3501 5.64111 3.64111 5.3501 4.0001 5.3501L12.0001 5.3501C12.3591 5.3501 12.6501 5.64111 12.6501 6.0001C12.6501 6.35908 12.3591 6.6501 12.0001 6.6501L4.0001 6.6501C3.64111 6.6501 3.3501 6.35908 3.3501 6.0001ZM20.6501 12.0001C20.6501 11.6411 20.3591 11.3501 20.0001 11.3501L12.0001 11.3501C11.6411 11.3501 11.3501 11.6411 11.3501 12.0001C11.3501 12.3591 11.6411 12.6501 12.0001 12.6501L20.0001 12.6501C20.3591 12.6501 20.6501 12.3591 20.6501 12.0001ZM4.0001 17.3501C3.64111 17.3501 3.3501 17.6411 3.3501 18.0001C3.3501 18.3591 3.64111 18.6501 4.0001 18.6501L8.0001 18.6501C8.35908 18.6501 8.6501 18.3591 8.6501 18.0001C8.6501 17.6411 8.35908 17.3501 8.0001 17.3501H4.0001ZM4.0001 12.6501L7.3501 12.6501V14.0001C7.3501 14.3591 7.64111 14.6501 8.0001 14.6501C8.35908 14.6501 8.6501 14.3591 8.6501 14.0001V12.0001V10.0001C8.6501 9.64111 8.35908 9.3501 8.0001 9.3501C7.64111 9.3501 7.3501 9.64111 7.3501 10.0001V11.3501L4.0001 11.3501C3.64111 11.3501 3.3501 11.6411 3.3501 12.0001C3.3501 12.3591 3.64111 12.6501 4.0001 12.6501ZM12.6501 17.3501V16.0001C12.6501 15.6411 12.3591 15.3501 12.0001 15.3501C11.6411 15.3501 11.3501 15.6411 11.3501 16.0001V18.0001V20.0001C11.3501 20.3591 11.6411 20.6501 12.0001 20.6501C12.3591 20.6501 12.6501 20.3591 12.6501 20.0001V18.6501L20.0001 18.6501C20.3591 18.6501 20.6501 18.3591 20.6501 18.0001C20.6501 17.6411 20.3591 17.3501 20.0001 17.3501H12.6501Z" fill="black" fill-opacity="0.7"/>
</svg>
