<svg width="20" height="20" viewBox="0 0 20 20" fill="none" xmlns="http://www.w3.org/2000/svg">
<path fill-rule="evenodd" clip-rule="evenodd" d="M14.8963 14.0675C17.3829 11.1739 17.2335 6.80704 14.4737 4.0917C11.5941 1.25854 6.96294 1.29618 4.12978 4.17578C1.29662 7.05539 1.33427 11.6865 4.21387 14.5197C6.97364 17.2349 11.3422 17.3133 14.1949 14.7803L17.3217 17.8566C17.5185 18.0503 17.8351 18.0477 18.0288 17.8509C18.2224 17.654 18.2199 17.3375 18.023 17.1438L14.8963 14.0675ZM13.7723 4.80453C16.2582 7.25035 16.2907 11.2483 13.8449 13.7342C11.3991 16.2201 7.40112 16.2526 4.91521 13.8068C2.42929 11.361 2.39679 7.36304 4.84261 4.87712C7.28844 2.3912 11.2864 2.3587 13.7723 4.80453Z" fill="white" fill-opacity="0.4"/>
</svg>
