<svg width="20" height="20" viewBox="0 0 20 20" fill="none" xmlns="http://www.w3.org/2000/svg">
<path d="M7.94874 12.6924C6.61648 12.6924 5.48747 12.2295 4.56172 11.3038C3.63597 10.378 3.1731 9.24902 3.1731 7.91676C3.1731 6.5845 3.63597 5.45549 4.56172 4.52974C5.48747 3.60399 6.61648 3.14111 7.94874 3.14111C9.28102 3.14111 10.41 3.60399 11.3358 4.52974C12.2615 5.45549 12.7244 6.5845 12.7244 7.91676C12.7244 8.49582 12.6218 9.05618 12.4167 9.59784C12.2116 10.1395 11.9423 10.6027 11.609 10.9873L16.5321 15.9103C16.6101 15.9883 16.6517 16.084 16.6571 16.1972C16.6624 16.3105 16.6208 16.4114 16.5321 16.5001C16.4434 16.5888 16.3451 16.6331 16.2372 16.6331C16.1293 16.6331 16.031 16.5888 15.9423 16.5001L11.0193 11.577C10.6026 11.9317 10.1234 12.2063 9.58176 12.4007C9.0401 12.5952 8.49575 12.6924 7.94874 12.6924ZM7.94874 11.8591C9.05452 11.8591 9.98801 11.4785 10.7492 10.7172C11.5104 9.95602 11.8911 9.02252 11.8911 7.91676C11.8911 6.811 11.5104 5.8775 10.7492 5.11628C9.98801 4.35506 9.05452 3.97445 7.94874 3.97445C6.84298 3.97445 5.90948 4.35506 5.14826 5.11628C4.38705 5.8775 4.00645 6.811 4.00645 7.91676C4.00645 9.02252 4.38705 9.95602 5.14826 10.7172C5.90948 11.4785 6.84298 11.8591 7.94874 11.8591Z" fill="black" fill-opacity="0.54"/>
</svg>
