<svg width="20" height="20" viewBox="0 0 20 20" fill="none" xmlns="http://www.w3.org/2000/svg">
<path d="M15.0337 4.20064C15.2453 3.98911 15.5882 3.98911 15.7998 4.20064C16.0113 4.41218 16.0113 4.75514 15.7998 4.96667L10.7662 10.0002L15.7999 15.034C16.0115 15.2455 16.0115 15.5885 15.7999 15.8C15.5884 16.0115 15.2454 16.0115 15.0339 15.8L10.0002 10.7663L4.96643 15.8C4.7549 16.0115 4.41193 16.0115 4.2004 15.8C3.98886 15.5885 3.98886 15.2455 4.2004 15.034L9.23413 10.0002L4.20056 4.96667C3.98903 4.75514 3.98903 4.41218 4.20056 4.20064C4.4121 3.98911 4.75506 3.98911 4.96659 4.20064L10.0002 9.23421L15.0337 4.20064Z" fill="white" fill-opacity="0.54"/>
</svg>
