<svg width="20" height="20" viewBox="0 0 20 20" fill="none" xmlns="http://www.w3.org/2000/svg">
<path fill-rule="evenodd" clip-rule="evenodd" d="M3.08405 3.79105C2.88878 3.59579 2.88878 3.27921 3.08405 3.08395C3.27931 2.88868 3.59589 2.88868 3.79115 3.08395L10.0005 9.29329L16.2098 3.08395C16.4051 2.88868 16.7217 2.88868 16.9169 3.08395C17.1122 3.27921 17.1122 3.59579 16.9169 3.79105L10.7076 10.0004L16.9148 16.2076C17.11 16.4028 17.11 16.7194 16.9148 16.9147C16.7195 17.1099 16.4029 17.1099 16.2077 16.9147L10.0005 10.7075L3.79334 16.9147C3.59808 17.1099 3.2815 17.1099 3.08623 16.9147C2.89097 16.7194 2.89097 16.4028 3.08623 16.2076L9.29339 10.0004L3.08405 3.79105Z" fill="black" fill-opacity="0.54"/>
</svg>
