<svg xmlns="http://www.w3.org/2000/svg" width="24" height="24" viewBox="0 0 24 24" fill="none">
  <path d="M5.43586 14.0262C4.18729 11.5228 3.69483 8.76709 3.65295 5.50589L11.9996 2.68609L20.347 5.5059C20.3051 8.76706 19.8125 11.5227 18.5637 14.0261C17.3041 16.5512 15.2486 18.8727 11.9996 21.2037C8.75051 18.8727 6.69523 16.5512 5.43586 14.0262Z" stroke="white" stroke-opacity="0.54" stroke-width="1.3"/>
  <path d="M11.2215 14.3104C11.0218 14.5031 10.9219 14.7495 10.9219 15.0497C10.9219 15.3454 11.0195 15.5895 11.2149 15.7822C11.4147 15.9748 11.6766 16.0712 12.0007 16.0712C12.3248 16.0712 12.5845 15.9748 12.7798 15.7822C12.9796 15.5895 13.0795 15.3454 13.0795 15.0497C13.0795 14.7495 12.9774 14.5031 12.7732 14.3104C12.5734 14.1133 12.3159 14.0147 12.0007 14.0147C11.6855 14.0147 11.4258 14.1133 11.2215 14.3104Z" fill="white" fill-opacity="0.54"/>
  <path d="M13.0648 7.0546C13.0881 6.48673 12.634 6.01366 12.0657 6.01367L11.9384 6.01367C11.3698 6.01368 10.9157 6.48709 10.9393 7.05516L11.1834 12.9345H12.824L13.0648 7.0546Z" fill="white" fill-opacity="0.54"/>
</svg>