<svg width="24" height="24" viewBox="0 0 24 24" fill="none" xmlns="http://www.w3.org/2000/svg">
<path fill-rule="evenodd" clip-rule="evenodd" d="M2 6C2 3.79086 3.79086 2 6 2H18C20.2091 2 22 3.79086 22 6C22 8.20914 20.2091 10 18 10H6C3.79086 10 2 8.20914 2 6ZM7.62 6C7.62 6.89746 6.89246 7.625 5.995 7.625C5.09753 7.625 4.37 6.89746 4.37 6C4.37 5.10254 5.09753 4.375 5.995 4.375C6.89246 4.375 7.62 5.10254 7.62 6ZM12 7.625C12.8975 7.625 13.625 6.89746 13.625 6C13.625 5.10254 12.8975 4.375 12 4.375C11.1025 4.375 10.375 5.10254 10.375 6C10.375 6.89746 11.1025 7.625 12 7.625ZM19.6305 6C19.6305 6.89746 18.903 7.625 18.0055 7.625C17.108 7.625 16.3805 6.89746 16.3805 6C16.3805 5.10254 17.108 4.375 18.0055 4.375C18.903 4.375 19.6305 5.10254 19.6305 6ZM6 14C3.79086 14 2 15.7909 2 18C2 20.2091 3.79086 22 6 22H18C20.2091 22 22 20.2091 22 18C22 15.7909 20.2091 14 18 14H6ZM5.995 19.625C6.89246 19.625 7.62 18.8975 7.62 18C7.62 17.1025 6.89246 16.375 5.995 16.375C5.09753 16.375 4.37 17.1025 4.37 18C4.37 18.8975 5.09753 19.625 5.995 19.625ZM13.625 18C13.625 18.8975 12.8975 19.625 12 19.625C11.1025 19.625 10.375 18.8975 10.375 18C10.375 17.1025 11.1025 16.375 12 16.375C12.8975 16.375 13.625 17.1025 13.625 18Z" fill="black" fill-opacity="0.87"/>
</svg>
