<svg width="52" height="32" viewBox="0 0 52 32" fill="none" xmlns="http://www.w3.org/2000/svg">
<path d="M49 0H3C1.34315 0 0 1.34315 0 3V29C0 30.6569 1.34315 32 3 32H49C50.6569 32 52 30.6569 52 29V3C52 1.34315 50.6569 0 49 0Z" fill="white"/>
<path d="M16.9966 15.9372C16.9966 18.1474 18.7862 19.8612 21.0893 19.8612C21.7404 19.8612 22.2979 19.737 22.9855 19.4229V17.6964C22.3809 18.2833 21.8454 18.52 21.1596 18.52C19.6364 18.52 18.5552 17.449 18.5552 15.9264C18.5552 14.4827 19.6706 13.3439 21.0893 13.3439C21.8107 13.3439 22.3567 13.5936 22.9855 14.19V12.4643C22.3217 12.1377 21.7757 12.0024 21.125 12.0024C18.8336 12.0024 16.9966 13.7509 16.9966 15.9372Z" fill="#201D1C"/>
<path d="M13.1151 14.111C13.1151 14.5172 13.3817 14.732 14.2892 15.0577C16.0097 15.6679 16.5195 16.2087 16.5195 17.4033C16.5195 18.859 15.417 19.8724 13.8452 19.8724C12.6944 19.8724 11.8575 19.4328 11.1606 18.4409L12.1378 17.5285C12.486 18.1816 13.0671 18.5314 13.7884 18.5314C14.4632 18.5314 14.9628 18.08 14.9628 17.4708C14.9628 17.155 14.8114 16.8841 14.5092 16.6928C14.3571 16.602 14.0558 16.467 13.4638 16.2645C12.0433 15.7688 11.556 15.2384 11.556 14.2025C11.556 12.9719 12.6025 12.048 13.9743 12.048C14.8245 12.048 15.6025 12.33 16.2528 12.8816L15.4615 13.8865C15.0675 13.458 14.695 13.2775 14.2418 13.2775C13.5899 13.2775 13.1151 13.6374 13.1151 14.111Z" fill="#201D1C"/>
<path fill-rule="evenodd" clip-rule="evenodd" d="M4.22013 12.1726H2V19.6917H4.20842C5.38277 19.6917 6.2307 19.4231 6.97506 18.8237C7.85954 18.1139 8.3826 17.044 8.3826 15.9374C8.3826 13.7184 6.67296 12.1726 4.22013 12.1726ZM5.98694 17.8211C5.51173 18.2373 4.89441 18.4188 3.91717 18.4188H3.51126V13.4465H3.91717C4.89441 13.4465 5.48743 13.6161 5.98694 14.0546C6.51 14.5063 6.82469 15.2062 6.82469 15.9265C6.82469 16.6483 6.51 17.3696 5.98694 17.8211Z" fill="#201D1C"/>
<path d="M9.07861 19.6917H10.5911V12.1726H9.07861V19.6917Z" fill="#201D1C"/>
<path d="M32.9101 12.1725L34.9778 17.2232L37.0724 12.1725H38.7119L35.3621 19.8846H34.5482L31.2578 12.1725H32.9101Z" fill="#201D1C"/>
<path d="M39.396 19.6917H43.6852V18.4188H40.9072V16.3891H43.5827V15.1155H40.9072V13.4465H43.6852V12.1726H39.396V19.6917Z" fill="#201D1C"/>
<path fill-rule="evenodd" clip-rule="evenodd" d="M46.9292 12.1726C48.6734 12.1726 49.6734 12.9847 49.6734 14.3924C49.6734 15.5437 49.0461 16.2994 47.907 16.524L50.3479 19.6917H48.4879L46.3944 16.6712H46.1972V19.6917H44.6865V12.1726H46.9292ZM46.1972 15.6343H46.639C47.6048 15.6343 48.1169 15.2273 48.1169 14.4714C48.1169 13.7396 47.6048 13.3569 46.6629 13.3569H46.1972V15.6343Z" fill="#201D1C"/>
<path fill-rule="evenodd" clip-rule="evenodd" d="M50.6389 12.4554C50.6389 12.3236 50.5453 12.2515 50.3809 12.2515H50.1621V12.9124H50.3248V12.6561L50.5156 12.9124H50.7141L50.49 12.6399C50.5858 12.6149 50.6389 12.5471 50.6389 12.4554ZM50.3523 12.5455H50.3248V12.3728H50.354C50.4345 12.3728 50.4762 12.4009 50.4762 12.4578C50.4762 12.5163 50.4339 12.5455 50.3523 12.5455Z" fill="#201D1C"/>
<path fill-rule="evenodd" clip-rule="evenodd" d="M49.8198 12.5804C49.8198 12.2604 50.0825 12.0042 50.4135 12.0042C50.7359 12.0042 51 12.2649 51 12.5804C51 12.8974 50.7359 13.1566 50.4135 13.1566C50.0856 13.1566 49.8198 12.9001 49.8198 12.5804ZM49.9378 12.5812C49.9378 12.8434 50.1508 13.0536 50.4113 13.0536C50.6704 13.0536 50.8817 12.8412 50.8817 12.5812C50.8817 12.3228 50.6704 12.1079 50.4113 12.1079C50.1481 12.1079 49.9378 12.318 49.9378 12.5812Z" fill="#201D1C"/>
<path d="M27.4944 19.8664C29.7344 19.8664 31.5503 18.1054 31.5503 15.9332C31.5503 13.761 29.7344 12 27.4944 12C25.2544 12 23.4385 13.761 23.4385 15.9332C23.4385 18.1054 25.2544 19.8664 27.4944 19.8664Z" fill="url(#paint0_linear_1006_2072)"/>
<defs>
<linearGradient id="paint0_linear_1006_2072" x1="27.4944" y1="12" x2="27.4944" y2="19.8664" gradientUnits="userSpaceOnUse">
<stop stop-color="#DA4120"/>
<stop offset="1" stop-color="#F59014"/>
</linearGradient>
</defs>
</svg>
