<svg width="24" height="24" viewBox="0 0 24 24" fill="none" xmlns="http://www.w3.org/2000/svg">
<path fill-rule="evenodd" clip-rule="evenodd" d="M20 4.3H4C3.6134 4.3 3.3 4.6134 3.3 5V14C3.3 14.3866 3.6134 14.7 4 14.7H20C20.3866 14.7 20.7 14.3866 20.7 14V5C20.7 4.6134 20.3866 4.3 20 4.3ZM4 3C2.89543 3 2 3.89543 2 5V14C2 15.1046 2.89543 16 4 16H10V18H7.53518C7.20083 18 6.8886 18.1671 6.70313 18.4453L5.51823 20.2227C5.29672 20.5549 5.53491 21 5.93426 21H10H14H18.0657C18.4651 21 18.7033 20.5549 18.4818 20.2227L17.2969 18.4453C17.1114 18.1671 16.7992 18 16.4648 18H14V16H20C21.1046 16 22 15.1046 22 14V5C22 3.89543 21.1046 3 20 3H4Z" fill="white" fill-opacity="0.54"/>
</svg>
