<svg width="40" height="40" viewBox="0 0 40 40" fill="none" xmlns="http://www.w3.org/2000/svg">
<path fill-rule="evenodd" clip-rule="evenodd" d="M7 8H33C34.1046 8 35 8.89543 35 10V30C35 31.1046 34.1046 32 33 32H7C5.89543 32 5 31.1046 5 30V10C5 8.89543 5.89543 8 7 8ZM3 10C3 7.79086 4.79086 6 7 6H33C35.2091 6 37 7.79086 37 10V30C37 32.2091 35.2091 34 33 34H7C4.79086 34 3 32.2091 3 30V10ZM9 12C8.44772 12 8 12.4477 8 13V14C8 14.5523 8.44772 15 9 15H31C31.5523 15 32 14.5523 32 14V13C32 12.4477 31.5523 12 31 12H9Z" fill="black" fill-opacity="0.54"/>
</svg>
