<svg width="202" height="81" viewBox="0 0 202 81" fill="none" xmlns="http://www.w3.org/2000/svg">
<path d="M49.3275 34.0598C46.2033 37.184 46.2033 42.2493 49.3275 45.3735L83.9548 80.0008H147.238C147.565 77.6074 146.809 75.0943 144.969 73.2545L83.2077 11.4933C80.0835 8.3691 75.0182 8.3691 71.894 11.4933L49.3275 34.0598Z" fill="#CBDAF2"/>
<path d="M84.2224 15.2251L53.0244 46.4231L86.6025 80.0012H129.217L139.108 70.1105L84.2224 15.2251Z" fill="white"/>
<path d="M61.0967 32.7829C61.5764 32.3032 61.5764 31.5256 61.0967 31.0459C60.6171 30.5663 59.8394 30.5663 59.3597 31.0459C58.8801 31.5256 58.8801 32.3032 59.3597 32.7829C59.8394 33.2625 60.6171 33.2625 61.0967 32.7829Z" fill="#89AADD"/>
<path d="M62.511 27.8947C62.0313 28.3744 62.0313 29.1522 62.511 29.6319C62.9907 30.1116 63.7684 30.1116 64.2481 29.6319L72.783 21.0969C73.2627 20.6172 73.2627 19.8395 72.783 19.3598C72.3033 18.8801 71.5256 18.8801 71.0459 19.3598L62.511 27.8947Z" fill="#89AADD"/>
<path d="M195 1L196.453 4.92564C196.731 5.67698 197.323 6.26936 198.074 6.54738L202 8L198.074 9.45262C197.323 9.73064 196.731 10.323 196.453 11.0744L195 15L193.547 11.0744C193.269 10.323 192.677 9.73064 191.926 9.45262L188 8L191.926 6.54738C192.677 6.26936 193.269 5.67698 193.547 4.92564L195 1Z" fill="#B2C8EB"/>
<path d="M6.27566 28L7.57797 31.5194C7.82722 32.193 8.3583 32.7241 9.0319 32.9734L12.5513 34.2757L9.0319 35.578C8.35831 35.8272 7.82722 36.3583 7.57797 37.0319L6.27566 40.5513L4.97336 37.0319C4.72411 36.3583 4.19302 35.8272 3.51943 35.578L0 34.2757L3.51943 32.9734C4.19302 32.7241 4.7241 32.193 4.97336 31.5194L6.27566 28Z" fill="#B2C8EB"/>
<path d="M25.3416 15.9232L25 15L24.6584 15.9232C24.3609 16.7271 23.7271 17.3609 22.9232 17.6584L22 18L22.9232 18.3416C23.7271 18.6391 24.3609 19.2729 24.6584 20.0768L25 21L25.3416 20.0768C25.6391 19.2729 26.2729 18.6391 27.0768 18.3416L28 18L27.0768 17.6584C26.2729 17.3609 25.6391 16.7271 25.3416 15.9232Z" fill="#B2C8EB"/>
<path d="M158.77 33.0796C163.845 29.8979 167 25.4378 167 20.5C167 10.835 154.912 3 140 3C125.088 3 113 10.835 113 20.5C113 30.165 125.088 38 140 38C142.081 38 144.108 37.8474 146.054 37.5584L151.5 43.5L159 33L158.77 33.0796Z" fill="#B2C8EB" fill-opacity="0.35"/>
<path d="M146.774 3.55536L133.048 37.4145C121.505 35.4268 113 28.6072 113 20.5C113 10.835 125.088 3 140 3C142.339 3 144.609 3.19285 146.774 3.55536Z" fill="white" fill-opacity="0.35"/>
<path d="M76.8379 72.8824L96.1577 24.4418L126.149 54.4335L115.785 80H83.9555L76.8379 72.8824Z" fill="white" fill-opacity="0.35"/>
<path d="M126.812 16.8652V19.0664L128.836 18.3691L129.451 19.9824L127.428 20.8301L128.699 22.6348L127.332 23.6465L125.951 21.8281L124.598 23.6465L123.162 22.6348L124.447 20.7617L122.41 19.9824L122.998 18.3691L125.09 19.0664V16.8652H126.812Z" fill="#89AADD"/>
<path d="M136.368 16.8652V19.0664L138.391 18.3691L139.006 19.9824L136.983 20.8301L138.254 22.6348L136.887 23.6465L135.506 21.8281L134.153 23.6465L132.717 22.6348L134.002 20.7617L131.965 19.9824L132.553 18.3691L134.645 19.0664V16.8652H136.368Z" fill="#89AADD"/>
<path d="M145.923 16.8652V19.0664L147.946 18.3691L148.561 19.9824L146.538 20.8301L147.809 22.6348L146.442 23.6465L145.061 21.8281L143.708 23.6465L142.272 22.6348L143.557 20.7617L141.52 19.9824L142.108 18.3691L144.2 19.0664V16.8652H145.923Z" fill="#89AADD"/>
<path d="M155.478 16.8652V19.0664L157.501 18.3691L158.116 19.9824L156.093 20.8301L157.364 22.6348L155.997 23.6465L154.616 21.8281L153.263 23.6465L151.827 22.6348L153.112 20.7617L151.075 19.9824L151.663 18.3691L153.755 19.0664V16.8652H155.478Z" fill="#89AADD"/>
</svg>
