<svg width="28" height="24" viewBox="0 0 28 24" fill="none" xmlns="http://www.w3.org/2000/svg">
<path d="M11.2213 15.2392C11.0215 15.4319 10.9216 15.6783 10.9216 15.9785C10.9216 16.2742 11.0193 16.5184 11.2146 16.711C11.4144 16.9037 11.6763 17 12.0004 17C12.3245 17 12.5842 16.9037 12.7795 16.711C12.9793 16.5184 13.0792 16.2742 13.0792 15.9785C13.0792 15.6783 12.9771 15.4319 12.7729 15.2392C12.5731 15.0421 12.3156 14.9435 12.0004 14.9435C11.6852 14.9435 11.4255 15.0421 11.2213 15.2392Z" fill="#2979FF"/>
<path d="M13.0646 7.98343C13.0878 7.41556 12.6337 6.9425 12.0654 6.9425L11.9381 6.94251C11.3696 6.94252 10.9154 7.41592 10.939 7.98399L11.1831 13.8634H12.8237L13.0646 7.98343Z" fill="#2979FF"/>
<path fill-rule="evenodd" clip-rule="evenodd" d="M22 12C22 17.5228 17.5228 22 12 22C6.47715 22 2 17.5228 2 12C2 6.47715 6.47715 2 12 2C17.5228 2 22 6.47715 22 12ZM20.7 12C20.7 16.8049 16.8049 20.7 12 20.7C7.19512 20.7 3.3 16.8049 3.3 12C3.3 7.19512 7.19512 3.3 12 3.3C16.8049 3.3 20.7 7.19512 20.7 12Z" fill="#2979FF"/>
</svg>
