<svg width="52" height="32" viewBox="0 0 52 32" fill="none" xmlns="http://www.w3.org/2000/svg">
<path d="M49 0H3C1.34315 0 0 1.34315 0 3V29C0 30.6569 1.34315 32 3 32H49C50.6569 32 52 30.6569 52 29V3C52 1.34315 50.6569 0 49 0Z" fill="white"/>
<path d="M33.7115 8.22949C35.2781 8.22949 36.545 8.57545 37.3438 8.88879L36.793 12.2328L36.4267 12.0683C35.6939 11.7552 34.7266 11.4423 33.4101 11.4754C31.8112 11.4754 31.0942 12.1505 31.0775 12.8095C31.0775 13.5345 31.945 14.0123 33.3614 14.7209C35.6946 15.8246 36.7768 17.1754 36.7607 18.9383C36.7279 22.1509 33.9615 24.2269 29.7123 24.2269C27.8955 24.2103 26.1456 23.8306 25.1958 23.4027L25.7625 19.9265L26.2957 20.1739C27.6123 20.7511 28.4786 20.9976 30.0954 20.9976C31.2613 20.9976 32.5115 20.5194 32.5274 19.482C32.5274 18.8065 31.9948 18.3118 30.428 17.554C28.8951 16.8124 26.8456 15.577 26.8788 13.3528C26.8961 10.3381 29.7123 8.22949 33.7115 8.22949Z" fill="#00579F"/>
<path d="M18.6133 23.9966H22.663L25.1957 8.51074H21.1463L18.6133 23.9966Z" fill="#00579F"/>
<path fill-rule="evenodd" clip-rule="evenodd" d="M47.7248 8.51074H44.5924C43.6264 8.51074 42.8925 8.79058 42.4757 9.79561L36.4604 23.9964H40.7098C40.7098 23.9964 41.4093 22.0851 41.5597 21.6735H46.7592C46.8754 22.2171 47.2423 23.9964 47.2423 23.9964H50.992L47.7248 8.51074ZM42.7261 18.5105C43.0596 17.6209 44.3428 14.1777 44.3428 14.1777C44.336 14.1911 44.389 14.0458 44.4678 13.8298C44.5841 13.5112 44.7565 13.0385 44.8756 12.6951L45.1586 14.0295C45.1586 14.0295 45.9255 17.7363 46.092 18.5105H42.7261Z" fill="#00579F"/>
<path d="M11.2648 19.0707L15.2308 8.51074H19.513L13.1476 23.9802H8.86512L5.23242 10.4378C7.79861 11.7728 10.0982 14.4578 10.8314 16.929L11.2648 19.0707Z" fill="#00579F"/>
<path d="M7.58222 8.51074H1.06666L1 8.82364C6.08254 10.1087 9.44861 13.2064 10.8316 16.9296L9.41517 9.81247C9.18198 8.82342 8.46537 8.54337 7.58222 8.51074Z" fill="#FAA61A"/>
</svg>
