<svg width="202" height="80" viewBox="0 0 202 80" fill="none" xmlns="http://www.w3.org/2000/svg">
<path d="M51.8502 37.3674C50.6977 38.1019 50 39.3739 50 40.7406V80H149V40.7406C149 39.3739 148.302 38.1019 147.15 37.3674L101.65 8.3702C100.338 7.53448 98.6616 7.53448 97.3503 8.37019L51.8502 37.3674Z" fill="#CEDBF5" fill-opacity="0.7"/>
<path d="M54 25C54 22.7909 55.7909 21 58 21H141C143.209 21 145 22.7909 145 25V80H54V25Z" fill="white"/>
<path d="M99.5 70L50 41V80H81.3081L99.5 70Z" fill="#DDE6F8"/>
<path d="M99.5 70L116.811 80H149V41L99.5 70Z" fill="#DDE6F8"/>
<path d="M195 1L196.453 4.92564C196.731 5.67698 197.323 6.26936 198.074 6.54738L202 8L198.074 9.45262C197.323 9.73064 196.731 10.323 196.453 11.0744L195 15L193.547 11.0744C193.269 10.323 192.677 9.73064 191.926 9.45262L188 8L191.926 6.54738C192.677 6.26936 193.269 5.67698 193.547 4.92564L195 1Z" fill="#B2C8EB"/>
<path d="M6.27566 28L7.57797 31.5194C7.82722 32.193 8.3583 32.7241 9.0319 32.9734L12.5513 34.2757L9.0319 35.578C8.35831 35.8272 7.82722 36.3583 7.57797 37.0319L6.27566 40.5513L4.97336 37.0319C4.72411 36.3583 4.19302 35.8272 3.51943 35.578L0 34.2757L3.51943 32.9734C4.19302 32.7241 4.7241 32.193 4.97336 31.5194L6.27566 28Z" fill="#B2C8EB"/>
<path d="M25.3416 15.9232L25 15L24.6584 15.9232C24.3609 16.7271 23.7271 17.3609 22.9232 17.6584L22 18L22.9232 18.3416C23.7271 18.6391 24.3609 19.2729 24.6584 20.0768L25 21L25.3416 20.0768C25.6391 19.2729 26.2729 18.6391 27.0768 18.3416L28 18L27.0768 17.6584C26.2729 17.3609 25.6391 16.7271 25.3416 15.9232Z" fill="#B2C8EB"/>
<path d="M72.7695 80L97.6437 66.972C98.806 66.3632 100.193 66.3632 101.355 66.972L126.23 80H72.7695Z" fill="#CBDAF2"/>
<path d="M135.038 29.6485L101.727 8.41907L73 79.9999H114.5L135.038 29.6485Z" fill="white" fill-opacity="0.3"/>
</svg>
