<svg width="24" height="24" viewBox="0 0 24 24" fill="none" xmlns="http://www.w3.org/2000/svg">
<path fill-rule="evenodd" clip-rule="evenodd" d="M17.2724 16.4597L18.9708 17.1232L20.0523 15.3033L18.6721 14.2535L17.9359 13.6935L18.0538 12.7761C18.0908 12.4881 18.1127 12.2435 18.1127 12C18.1127 11.7565 18.0908 11.5119 18.0538 11.2239L17.9359 10.3065L18.672 9.74654L20.0523 8.69667L18.9708 6.87683L17.2724 7.54032L16.4438 7.86399L15.7316 7.33108C15.3018 7.00943 14.8482 6.75075 14.3603 6.55625L13.5043 6.21501L13.3699 5.30335L13.1188 3.6H10.8858L10.6347 5.30335L10.5003 6.21501L9.64426 6.55625C9.1676 6.74627 8.70886 7.01318 8.25733 7.34259L7.54893 7.85939L6.73216 7.54032L5.03371 6.87683L3.95227 8.69667L5.3325 9.74654L6.06868 10.3065L5.95079 11.2239C5.91399 11.5103 5.89187 11.7655 5.89187 12C5.89187 12.2345 5.91399 12.4897 5.95079 12.7761L6.06868 13.6935L5.3325 14.2535L3.95227 15.3033L5.03371 17.1232L6.73216 16.4597L7.5607 16.136L8.27291 16.6689C8.70279 16.9906 9.15637 17.2493 9.64426 17.4438L10.5003 17.785L10.6347 18.6967L10.8858 20.4H13.1188L13.3699 18.6967L13.5043 17.785L14.3603 17.4438C14.8369 17.2537 15.2957 16.9868 15.7472 16.6574L16.4556 16.1406L17.2724 16.4597ZM19.8772 18.73L21.9333 15.27C22.0566 15.05 22.0052 14.78 21.8099 14.63L19.6407 12.98C19.6818 12.66 19.7127 12.34 19.7127 12C19.7127 11.66 19.6818 11.34 19.6407 11.02L21.8099 9.37C22.0052 9.22 22.0566 8.95 21.9333 8.73L19.8772 5.27C19.7846 5.11 19.6099 5.02 19.4248 5.02C19.3631 5.02 19.3015 5.03 19.25 5.05L16.6902 6.05C16.1556 5.65 15.5799 5.32 14.9528 5.07L14.5621 2.42C14.5313 2.18 14.3154 2 14.0584 2H9.94617C9.68915 2 9.47326 2.18 9.44242 2.42L9.05176 5.07C8.42465 5.32 7.84894 5.66 7.31435 6.05L4.7545 5.05C4.69281 5.03 4.63113 5.02 4.56945 5.02C4.39468 5.02 4.21991 5.11 4.12738 5.27L2.07128 8.73C1.93763 8.95 1.99931 9.22 2.19464 9.37L4.36384 11.02C4.32271 11.34 4.29187 11.67 4.29187 12C4.29187 12.33 4.32271 12.66 4.36384 12.98L2.19464 14.63C1.99931 14.78 1.94791 15.05 2.07128 15.27L4.12738 18.73C4.21991 18.89 4.39468 18.98 4.57973 18.98C4.64141 18.98 4.70309 18.97 4.7545 18.95L7.31435 17.95C7.84894 18.35 8.42465 18.68 9.05176 18.93L9.44242 21.58C9.47326 21.82 9.68915 22 9.94617 22H14.0584C14.3154 22 14.5313 21.82 14.5621 21.58L14.9528 18.93C15.5799 18.68 16.1556 18.34 16.6902 17.95L19.25 18.95C19.3117 18.97 19.3734 18.98 19.4351 18.98C19.6099 18.98 19.7846 18.89 19.8772 18.73ZM13.4 12C13.4 12.7732 12.7732 13.4 12 13.4C11.2268 13.4 10.6 12.7732 10.6 12C10.6 11.2268 11.2268 10.6 12 10.6C12.7732 10.6 13.4 11.2268 13.4 12ZM15 12C15 13.6569 13.6569 15 12 15C10.3431 15 9 13.6569 9 12C9 10.3431 10.3431 9 12 9C13.6569 9 15 10.3431 15 12Z" fill="black" fill-opacity="0.87"/>
</svg>
