<svg xmlns="http://www.w3.org/2000/svg" width="24" height="24" viewBox="0 0 24 24" fill="none">
<mask id="path-1-inside-1_22154_2343" fill="white">
<path fill-rule="evenodd" clip-rule="evenodd" d="M9.65 1L10.1 3.1C10.3833 3.2 10.6458 3.32083 10.8875 3.4625C11.1292 3.60417 11.3667 3.76667 11.6 3.95L13.6 3.3L15 5.7L13.4 7.1C13.4333 7.4 13.45 7.7 13.45 8C13.45 8.3 13.4333 8.6 13.4 8.9L15 10.3L13.6 12.7L11.6 12.05C11.3667 12.2333 11.1292 12.3958 10.8875 12.5375C10.6458 12.6792 10.3833 12.8 10.1 12.9L9.65 15L6.85 15L6.4 12.9C6.11667 12.8 5.85417 12.6792 5.6125 12.5375C5.37083 12.3958 5.13333 12.2333 4.9 12.05L2.9 12.7L1.5 10.3L3.1 8.9C3.06667 8.6 3.05 8.3 3.05 8C3.05 7.7 3.06667 7.4 3.1 7.1L1.5 5.7L2.9 3.3L4.9 3.95C5.13333 3.76667 5.37084 3.60417 5.6125 3.4625C5.85417 3.32083 6.11667 3.2 6.4 3.1L6.85 1H9.65ZM8.25 9.5C9.07843 9.5 9.75 8.82843 9.75 8C9.75 7.17157 9.07843 6.5 8.25 6.5C7.42157 6.5 6.75 7.17157 6.75 8C6.75 8.82843 7.42157 9.5 8.25 9.5Z"/>
</mask>
<path d="M10.1 3.1L8.82886 3.37239L8.98129 4.08375L9.66733 4.32589L10.1 3.1ZM9.65 1L10.9211 0.727612L10.7009 -0.3H9.65V1ZM10.8875 3.4625L11.5449 2.34099L11.5449 2.34099L10.8875 3.4625ZM11.6 3.95L10.7968 4.97221L11.3422 5.40072L12.0018 5.18634L11.6 3.95ZM13.6 3.3L14.7229 2.64497L14.1949 1.73974L13.1982 2.06366L13.6 3.3ZM15 5.7L15.8561 6.67835L16.6636 5.97179L16.1229 5.04497L15 5.7ZM13.4 7.1L12.5439 6.12165L12.033 6.56875L12.108 7.24356L13.4 7.1ZM13.4 8.9L12.108 8.75644L12.033 9.43125L12.5439 9.87835L13.4 8.9ZM15 10.3L16.1229 10.955L16.6636 10.0282L15.8561 9.32165L15 10.3ZM13.6 12.7L13.1982 13.9363L14.1949 14.2603L14.7229 13.355L13.6 12.7ZM11.6 12.05L12.0018 10.8137L11.3422 10.5993L10.7968 11.0278L11.6 12.05ZM10.8875 12.5375L11.5449 13.659L11.5449 13.659L10.8875 12.5375ZM10.1 12.9L9.66733 11.6741L8.98129 11.9162L8.82886 12.6276L10.1 12.9ZM9.65 15V16.3H10.7009L10.9211 15.2724L9.65 15ZM6.85 15L5.57886 15.2724L5.79906 16.3L6.85 16.3L6.85 15ZM6.4 12.9L7.67114 12.6276L7.51871 11.9162L6.83266 11.6741L6.4 12.9ZM5.6125 12.5375L4.95507 13.659H4.95507L5.6125 12.5375ZM4.9 12.05L5.70317 11.0278L5.1578 10.5993L4.49819 10.8137L4.9 12.05ZM2.9 12.7L1.77709 13.355L2.30514 14.2603L3.30181 13.9363L2.9 12.7ZM1.5 10.3L0.643944 9.32165L-0.163557 10.0282L0.377087 10.955L1.5 10.3ZM3.1 8.9L3.95606 9.87835L4.46703 9.43125L4.39205 8.75644L3.1 8.9ZM3.1 7.1L4.39205 7.24356L4.46703 6.56875L3.95606 6.12165L3.1 7.1ZM1.5 5.7L0.377088 5.04497L-0.163557 5.97179L0.643944 6.67835L1.5 5.7ZM2.9 3.3L3.30181 2.06365L2.30514 1.73974L1.77709 2.64497L2.9 3.3ZM4.9 3.95L4.49819 5.18634L5.1578 5.40072L5.70317 4.97221L4.9 3.95ZM5.6125 3.4625L6.26994 4.58401L6.26994 4.58401L5.6125 3.4625ZM6.4 3.1L6.83267 4.32589L7.51871 4.08376L7.67114 3.37239L6.4 3.1ZM6.85 1V-0.3H5.79906L5.57886 0.727612L6.85 1ZM11.3711 2.82761L10.9211 0.727612L8.37886 1.27239L8.82886 3.37239L11.3711 2.82761ZM11.5449 2.34099C11.2269 2.15455 10.8885 1.99969 10.5327 1.87411L9.66733 4.32589C9.8782 4.40031 10.0648 4.48712 10.2301 4.58401L11.5449 2.34099ZM12.4032 2.92779C12.1263 2.71023 11.8403 2.51412 11.5449 2.34099L10.2301 4.58401C10.4181 4.69422 10.6071 4.82311 10.7968 4.97221L12.4032 2.92779ZM13.1982 2.06366L11.1982 2.71366L12.0018 5.18634L14.0018 4.53634L13.1982 2.06366ZM16.1229 5.04497L14.7229 2.64497L12.4771 3.95503L13.8771 6.35503L16.1229 5.04497ZM14.2561 8.07835L15.8561 6.67835L14.1439 4.72165L12.5439 6.12165L14.2561 8.07835ZM14.75 8C14.75 7.65174 14.7306 7.30382 14.692 6.95644L12.108 7.24356C12.136 7.49618 12.15 7.74826 12.15 8H14.75ZM14.692 9.04356C14.7306 8.69618 14.75 8.34826 14.75 8H12.15C12.15 8.25174 12.136 8.50382 12.108 8.75644L14.692 9.04356ZM15.8561 9.32165L14.2561 7.92165L12.5439 9.87835L14.1439 11.2784L15.8561 9.32165ZM14.7229 13.355L16.1229 10.955L13.8771 9.64497L12.4771 12.045L14.7229 13.355ZM11.1982 13.2863L13.1982 13.9363L14.0018 11.4637L12.0018 10.8137L11.1982 13.2863ZM11.5449 13.659C11.8403 13.4859 12.1263 13.2898 12.4032 13.0722L10.7968 11.0278C10.6071 11.1769 10.4181 11.3058 10.2301 11.416L11.5449 13.659ZM10.5327 14.1259C10.8885 14.0003 11.2269 13.8454 11.5449 13.659L10.2301 11.416C10.0648 11.5129 9.87819 11.5997 9.66733 11.6741L10.5327 14.1259ZM10.9211 15.2724L11.3711 13.1724L8.82886 12.6276L8.37886 14.7276L10.9211 15.2724ZM6.85 16.3L9.65 16.3V13.7L6.85 13.7L6.85 16.3ZM5.12886 13.1724L5.57886 15.2724L8.12114 14.7276L7.67114 12.6276L5.12886 13.1724ZM4.95507 13.659C5.27311 13.8454 5.61152 14.0003 5.96734 14.1259L6.83266 11.6741C6.62181 11.5997 6.43523 11.5129 6.26994 11.416L4.95507 13.659ZM4.09683 13.0722C4.37373 13.2898 4.65974 13.4859 4.95507 13.659L6.26994 11.416C6.08193 11.3058 5.89294 11.1769 5.70317 11.0278L4.09683 13.0722ZM3.30181 13.9363L5.30181 13.2863L4.49819 10.8137L2.49819 11.4637L3.30181 13.9363ZM0.377087 10.955L1.77709 13.355L4.02291 12.045L2.62291 9.64497L0.377087 10.955ZM2.24394 7.92165L0.643944 9.32165L2.35606 11.2783L3.95606 9.87835L2.24394 7.92165ZM1.75 8C1.75 8.34826 1.76935 8.69618 1.80795 9.04356L4.39205 8.75644C4.36398 8.50382 4.35 8.25175 4.35 8H1.75ZM1.80795 6.95644C1.76935 7.30382 1.75 7.65174 1.75 8H4.35C4.35 7.74825 4.36398 7.49618 4.39205 7.24356L1.80795 6.95644ZM0.643944 6.67835L2.24395 8.07835L3.95606 6.12165L2.35606 4.72165L0.643944 6.67835ZM1.77709 2.64497L0.377088 5.04497L2.62291 6.35503L4.02291 3.95503L1.77709 2.64497ZM5.30181 2.71365L3.30181 2.06365L2.49819 4.53634L4.49819 5.18634L5.30181 2.71365ZM4.95507 2.34099C4.65974 2.51411 4.37373 2.71022 4.09683 2.92778L5.70317 4.97221C5.89294 4.82311 6.08193 4.69422 6.26994 4.58401L4.95507 2.34099ZM5.96733 1.87411C5.61153 1.99969 5.27311 2.15455 4.95507 2.34099L6.26994 4.58401C6.43523 4.48711 6.62181 4.40031 6.83267 4.32589L5.96733 1.87411ZM5.57886 0.727612L5.12886 2.82761L7.67114 3.37239L8.12114 1.27239L5.57886 0.727612ZM9.65 -0.3H6.85V2.3H9.65V-0.3ZM8.45 8C8.45 8.11046 8.36046 8.2 8.25 8.2V10.8C9.7964 10.8 11.05 9.5464 11.05 8H8.45ZM8.25 7.8C8.36046 7.8 8.45 7.88954 8.45 8H11.05C11.05 6.4536 9.7964 5.2 8.25 5.2V7.8ZM8.05 8C8.05 7.88954 8.13954 7.8 8.25 7.8V5.2C6.7036 5.2 5.45 6.4536 5.45 8H8.05ZM8.25 8.2C8.13954 8.2 8.05 8.11046 8.05 8H5.45C5.45 9.5464 6.7036 10.8 8.25 10.8V8.2Z" fill="black" fill-opacity="0.87" mask="url(#path-1-inside-1_22154_2343)"/>
<mask id="path-3-inside-2_22154_2343" fill="white">
<path fill-rule="evenodd" clip-rule="evenodd" d="M19.6491 13.6361C19.846 13.7516 20.0395 13.884 20.2296 14.0333L21.8593 13.5037L23 15.4593L21.6963 16.6C21.7235 16.8445 21.737 17.0889 21.737 17.3333C21.737 17.5778 21.7235 17.8222 21.6963 18.0667L23 19.2074L21.8593 21.163L20.2296 20.6333C20.0395 20.7827 19.846 20.9151 19.6491 21.0306C19.5494 21.089 19.3371 21.1928 19.3371 21.1928L18.6407 23.037L16.3593 23.037L15.6629 21.1928C15.6629 21.1928 15.4506 21.089 15.3509 21.0306C15.154 20.9151 14.9605 20.7827 14.7704 20.6333L13.1407 21.163L12 19.2074L13.3037 18.0667C13.2765 17.8222 13.263 17.5778 13.263 17.3333C13.263 17.0889 13.2765 16.8445 13.3037 16.6L12 15.4593L13.1407 13.5037L14.7704 14.0333C14.9605 13.884 15.154 13.7516 15.3509 13.6361C15.4506 13.5777 15.6629 13.4739 15.6629 13.4739L15.9926 11.6296H19.0074L19.3371 13.4739C19.3371 13.4739 19.5494 13.5777 19.6491 13.6361ZM17.5017 17.9038C17.8167 17.9038 18.0721 17.6484 18.0721 17.3334C18.0721 17.0184 17.8167 16.763 17.5017 16.763C17.1867 16.763 16.9314 17.0184 16.9314 17.3334C16.9314 17.6484 17.1867 17.9038 17.5017 17.9038Z"/>
</mask>
<path d="M20.2296 14.0333L19.4265 15.0556L19.9718 15.4841L20.6314 15.2697L20.2296 14.0333ZM19.6491 13.6361L18.9916 14.7576L18.9916 14.7576L19.6491 13.6361ZM21.8593 13.5037L22.9822 12.8487L22.4541 11.9435L21.4574 12.2674L21.8593 13.5037ZM23 15.4593L23.8561 16.4376L24.6636 15.7311L24.1229 14.8042L23 15.4593ZM21.6963 16.6L20.8402 15.6217L20.3293 16.0688L20.4042 16.7436L21.6963 16.6ZM21.6963 18.0667L20.4042 17.9231L20.3293 18.5979L20.8402 19.045L21.6963 18.0667ZM23 19.2074L24.1229 19.8624L24.6636 18.9356L23.8561 18.2291L23 19.2074ZM21.8593 21.163L21.4574 22.3993L22.4541 22.7232L22.9822 21.818L21.8593 21.163ZM20.2296 20.6333L20.6314 19.397L19.9718 19.1826L19.4265 19.6111L20.2296 20.6333ZM19.6491 21.0306L20.3065 22.1521H20.3065L19.6491 21.0306ZM19.3371 21.1928L18.7662 20.0248L18.303 20.2512L18.1209 20.7335L19.3371 21.1928ZM18.6407 23.037L18.6407 24.337H19.5395L19.8569 23.4963L18.6407 23.037ZM16.3593 23.037L15.1431 23.4963L15.4605 24.337L16.3593 24.337L16.3593 23.037ZM15.6629 21.1928L16.8791 20.7335L16.697 20.2512L16.2338 20.0248L15.6629 21.1928ZM15.3509 21.0306L14.6935 22.1521L14.6935 22.1521L15.3509 21.0306ZM14.7704 20.6333L15.5735 19.6111L15.0282 19.1826L14.3686 19.397L14.7704 20.6333ZM13.1407 21.163L12.0178 21.818L12.5459 22.7232L13.5426 22.3993L13.1407 21.163ZM12 19.2074L11.1439 18.2291L10.3364 18.9356L10.8771 19.8624L12 19.2074ZM13.3037 18.0667L14.1598 19.045L14.6707 18.5979L14.5958 17.9231L13.3037 18.0667ZM13.3037 16.6L14.5958 16.7436L14.6707 16.0688L14.1598 15.6217L13.3037 16.6ZM12 15.4593L10.8771 14.8042L10.3364 15.7311L11.1439 16.4376L12 15.4593ZM13.1407 13.5037L13.5426 12.2674L12.5459 11.9434L12.0178 12.8487L13.1407 13.5037ZM14.7704 14.0333L14.3686 15.2697L15.0282 15.4841L15.5735 15.0556L14.7704 14.0333ZM15.3509 13.6361L14.6935 12.5146L14.6935 12.5146L15.3509 13.6361ZM15.6629 13.4739L16.2338 14.6419L16.8265 14.3522L16.9426 13.7027L15.6629 13.4739ZM15.9926 11.6296V10.3296H14.9044L14.7129 11.4009L15.9926 11.6296ZM19.0074 11.6296L20.2871 11.4009L20.0956 10.3296H19.0074V11.6296ZM19.3371 13.4739L18.0574 13.7027L18.1735 14.3522L18.7662 14.6419L19.3371 13.4739ZM21.0328 13.0111C20.7991 12.8275 20.5571 12.6615 20.3065 12.5146L18.9916 14.7576C19.1349 14.8416 19.2799 14.9404 19.4265 15.0556L21.0328 13.0111ZM21.4574 12.2674L19.8278 12.797L20.6314 15.2697L22.2611 14.7401L21.4574 12.2674ZM24.1229 14.8042L22.9822 12.8487L20.7363 14.1587L21.8771 16.1143L24.1229 14.8042ZM22.5524 17.5784L23.8561 16.4376L22.1439 14.4809L20.8402 15.6217L22.5524 17.5784ZM23.037 17.3333C23.037 17.0406 23.0208 16.7483 22.9883 16.4564L20.4042 16.7436C20.4261 16.9406 20.437 17.1372 20.437 17.3333H23.037ZM22.9883 18.2102C23.0208 17.9184 23.037 17.626 23.037 17.3333H20.437C20.437 17.5295 20.4261 17.726 20.4042 17.9231L22.9883 18.2102ZM23.8561 18.2291L22.5524 17.0883L20.8402 19.045L22.1439 20.1858L23.8561 18.2291ZM22.9822 21.818L24.1229 19.8624L21.8771 18.5524L20.7363 20.5079L22.9822 21.818ZM19.8278 21.8697L21.4574 22.3993L22.2611 19.9266L20.6314 19.397L19.8278 21.8697ZM20.3065 22.1521C20.5571 22.0052 20.7991 21.8392 21.0328 21.6556L19.4265 19.6111C19.2799 19.7263 19.1349 19.8251 18.9916 19.9091L20.3065 22.1521ZM19.3371 21.1928C19.908 22.3607 19.908 22.3607 19.908 22.3607C19.9081 22.3607 19.9081 22.3607 19.9081 22.3606C19.9081 22.3606 19.9082 22.3606 19.9082 22.3606C19.9083 22.3606 19.9084 22.3605 19.9085 22.3605C19.9087 22.3603 19.909 22.3602 19.9093 22.3601C19.9099 22.3597 19.9108 22.3593 19.9118 22.3588C19.9139 22.3578 19.9167 22.3564 19.9203 22.3547C19.9274 22.3512 19.9373 22.3463 19.9494 22.3403C19.9734 22.3284 20.0067 22.3118 20.0439 22.2929C20.108 22.2604 20.2185 22.2037 20.3065 22.1521L18.9916 19.9091C18.9927 19.9084 18.9896 19.9103 18.9811 19.9149C18.9732 19.9193 18.9629 19.9248 18.9504 19.9314C18.9252 19.9448 18.8963 19.9596 18.8676 19.9742C18.8392 19.9886 18.8132 20.0016 18.7943 20.0109C18.785 20.0156 18.7775 20.0193 18.7726 20.0217C18.7701 20.0229 18.7683 20.0238 18.7672 20.0243C18.7667 20.0246 18.7663 20.0248 18.7662 20.0248C18.7661 20.0249 18.766 20.0249 18.766 20.0249C18.7661 20.0249 18.7661 20.0249 18.7661 20.0249C18.7661 20.0249 18.7661 20.0249 18.7662 20.0248C18.7662 20.0248 18.7662 20.0248 18.7662 20.0248C18.7662 20.0248 18.7662 20.0248 19.3371 21.1928ZM19.8569 23.4963L20.5533 21.652L18.1209 20.7335L17.4246 22.5778L19.8569 23.4963ZM16.3593 24.337L18.6407 24.337L18.6407 21.737L16.3593 21.737L16.3593 24.337ZM14.4467 21.652L15.1431 23.4963L17.5755 22.5778L16.8791 20.7335L14.4467 21.652ZM14.6935 22.1521C14.7815 22.2037 14.8921 22.2604 14.9561 22.2929C14.9933 22.3118 15.0266 22.3284 15.0506 22.3403C15.0627 22.3463 15.0726 22.3512 15.0797 22.3547C15.0833 22.3564 15.0861 22.3578 15.0882 22.3588C15.0892 22.3593 15.0901 22.3597 15.0907 22.3601C15.091 22.3602 15.0913 22.3603 15.0915 22.3605C15.0916 22.3605 15.0917 22.3606 15.0918 22.3606C15.0918 22.3606 15.0919 22.3606 15.0919 22.3606C15.0919 22.3607 15.0919 22.3607 15.092 22.3607C15.092 22.3607 15.092 22.3607 15.6629 21.1928C16.2338 20.0248 16.2338 20.0248 16.2338 20.0248C16.2338 20.0248 16.2338 20.0248 16.2338 20.0248C16.2339 20.0249 16.2339 20.0249 16.2339 20.0249C16.2339 20.0249 16.234 20.0249 16.234 20.0249C16.234 20.0249 16.2339 20.0249 16.2338 20.0248C16.2337 20.0248 16.2333 20.0246 16.2328 20.0243C16.2317 20.0238 16.2299 20.0229 16.2274 20.0217C16.2225 20.0193 16.2151 20.0156 16.2057 20.0109C16.1868 20.0016 16.1608 19.9886 16.1324 19.9742C16.1037 19.9596 16.0748 19.9448 16.0496 19.9314C16.0371 19.9248 16.0269 19.9193 16.0189 19.9149C16.0104 19.9103 16.0073 19.9084 16.0084 19.9091L14.6935 22.1521ZM13.9672 21.6556C14.2009 21.8392 14.4429 22.0052 14.6935 22.1521L16.0084 19.9091C15.8651 19.8251 15.7201 19.7263 15.5735 19.6111L13.9672 21.6556ZM13.5426 22.3993L15.1722 21.8697L14.3686 19.397L12.7389 19.9266L13.5426 22.3993ZM10.8771 19.8624L12.0178 21.818L14.2637 20.5079L13.1229 18.5524L10.8771 19.8624ZM12.4476 17.0883L11.1439 18.2291L12.8561 20.1858L14.1598 19.045L12.4476 17.0883ZM11.963 17.3333C11.963 17.626 11.9792 17.9184 12.0117 18.2102L14.5958 17.9231C14.5739 17.7261 14.563 17.5295 14.563 17.3333H11.963ZM12.0117 16.4564C11.9792 16.7483 11.963 17.0406 11.963 17.3333H14.563C14.563 17.1371 14.5739 16.9406 14.5958 16.7436L12.0117 16.4564ZM11.1439 16.4376L12.4476 17.5784L14.1598 15.6217L12.8561 14.4809L11.1439 16.4376ZM12.0178 12.8487L10.8771 14.8042L13.1229 16.1143L14.2637 14.1587L12.0178 12.8487ZM15.1722 12.797L13.5426 12.2674L12.7389 14.7401L14.3686 15.2697L15.1722 12.797ZM14.6935 12.5146C14.4429 12.6615 14.2009 12.8275 13.9672 13.0111L15.5735 15.0556C15.7201 14.9404 15.8651 14.8416 16.0084 14.7576L14.6935 12.5146ZM15.6629 13.4739C15.092 12.306 15.092 12.306 15.092 12.306C15.0919 12.306 15.0919 12.306 15.0919 12.306C15.0919 12.3061 15.0918 12.3061 15.0918 12.3061C15.0917 12.3061 15.0916 12.3062 15.0915 12.3062C15.0913 12.3063 15.091 12.3065 15.0907 12.3066C15.0901 12.3069 15.0892 12.3074 15.0882 12.3079C15.0861 12.3089 15.0833 12.3103 15.0797 12.312C15.0726 12.3155 15.0627 12.3204 15.0506 12.3264C15.0266 12.3383 14.9933 12.3549 14.9561 12.3738C14.8921 12.4063 14.7815 12.463 14.6935 12.5146L16.0084 14.7576C16.0073 14.7583 16.0104 14.7564 16.0189 14.7518C16.0269 14.7474 16.0371 14.7418 16.0496 14.7352C16.0748 14.7219 16.1037 14.707 16.1324 14.6925C16.1608 14.6781 16.1868 14.6651 16.2057 14.6557C16.2151 14.6511 16.2225 14.6474 16.2274 14.645C16.2299 14.6438 16.2317 14.6429 16.2328 14.6424C16.2333 14.6421 16.2337 14.6419 16.2338 14.6418C16.2339 14.6418 16.234 14.6418 16.234 14.6418C16.2339 14.6418 16.2339 14.6418 16.2339 14.6418C16.2339 14.6418 16.2339 14.6418 16.2338 14.6418C16.2338 14.6418 16.2338 14.6419 16.2338 14.6419C16.2338 14.6419 16.2338 14.6419 15.6629 13.4739ZM14.7129 11.4009L14.3832 13.2452L16.9426 13.7027L17.2723 11.8584L14.7129 11.4009ZM19.0074 10.3296H15.9926V12.9296H19.0074V10.3296ZM20.6168 13.2452L20.2871 11.4009L17.7277 11.8584L18.0574 13.7027L20.6168 13.2452ZM20.3065 12.5146C20.2185 12.463 20.1079 12.4063 20.0439 12.3738C20.0067 12.3549 19.9734 12.3383 19.9494 12.3264C19.9373 12.3204 19.9274 12.3155 19.9203 12.312C19.9167 12.3103 19.9139 12.3089 19.9118 12.3079C19.9108 12.3073 19.9099 12.3069 19.9093 12.3066C19.909 12.3065 19.9087 12.3063 19.9085 12.3062C19.9084 12.3062 19.9083 12.3061 19.9082 12.3061C19.9082 12.3061 19.9081 12.306 19.9081 12.306C19.9081 12.306 19.908 12.306 19.908 12.306C19.908 12.306 19.908 12.306 19.3371 13.4739C18.7662 14.6419 18.7662 14.6419 18.7662 14.6419C18.7662 14.6419 18.7662 14.6418 18.7662 14.6418C18.7661 14.6418 18.7661 14.6418 18.7661 14.6418C18.7661 14.6418 18.7661 14.6418 18.7661 14.6418C18.766 14.6418 18.7661 14.6418 18.7662 14.6418C18.7663 14.6419 18.7667 14.6421 18.7672 14.6424C18.7683 14.6429 18.7701 14.6438 18.7726 14.645C18.7775 14.6474 18.785 14.6511 18.7943 14.6557C18.8132 14.6651 18.8392 14.6781 18.8676 14.6925C18.8963 14.707 18.9252 14.7219 18.9504 14.7352C18.9629 14.7418 18.9732 14.7474 18.9811 14.7518C18.9896 14.7564 18.9927 14.7582 18.9916 14.7576L20.3065 12.5146ZM16.7721 17.3334C16.7721 16.9304 17.0988 16.6038 17.5017 16.6038V19.2038C18.5347 19.2038 19.3721 18.3664 19.3721 17.3334H16.7721ZM17.5017 18.063C17.0988 18.063 16.7721 17.7363 16.7721 17.3334H19.3721C19.3721 16.3004 18.5347 15.463 17.5017 15.463V18.063ZM18.2314 17.3334C18.2314 17.7363 17.9047 18.063 17.5017 18.063V15.463C16.4688 15.463 15.6314 16.3004 15.6314 17.3334H18.2314ZM17.5017 16.6038C17.9047 16.6038 18.2314 16.9304 18.2314 17.3334H15.6314C15.6314 18.3664 16.4688 19.2038 17.5017 19.2038V16.6038Z" fill="black" fill-opacity="0.87" mask="url(#path-3-inside-2_22154_2343)"/>
</svg>