<svg width="24" height="24" viewBox="0 0 24 24" fill="none" xmlns="http://www.w3.org/2000/svg">
<path fill-rule="evenodd" clip-rule="evenodd" d="M5 5.3C4.06112 5.3 3.3 6.06112 3.3 7V17C3.3 17.9389 4.06112 18.7 5 18.7H19C19.9389 18.7 20.7 17.9389 20.7 17V7C20.7 6.06112 19.9389 5.3 19 5.3H5ZM2 7C2 5.34315 3.34315 4 5 4H19C20.6569 4 22 5.34315 22 7V17C22 18.6569 20.6569 20 19 20H5C3.34315 20 2 18.6569 2 17V7ZM7 8C7 8.55228 6.55228 9 6 9C5.44772 9 5 8.55228 5 8C5 7.44772 5.44772 7 6 7C6.55228 7 7 7.44772 7 8ZM6 13C6.55228 13 7 12.5523 7 12C7 11.4477 6.55228 11 6 11C5.44772 11 5 11.4477 5 12C5 12.5523 5.44772 13 6 13ZM7 16C7 16.5523 6.55228 17 6 17C5.44772 17 5 16.5523 5 16C5 15.4477 5.44772 15 6 15C6.55228 15 7 15.4477 7 16ZM9 9C9.55228 9 10 8.55228 10 8C10 7.44772 9.55228 7 9 7C8.44772 7 8 7.44772 8 8C8 8.55228 8.44772 9 9 9ZM10 12C10 12.5523 9.55228 13 9 13C8.44772 13 8 12.5523 8 12C8 11.4477 8.44772 11 9 11C9.55228 11 10 11.4477 10 12ZM12 9C12.5523 9 13 8.55228 13 8C13 7.44772 12.5523 7 12 7C11.4477 7 11 7.44772 11 8C11 8.55228 11.4477 9 12 9ZM13 12C13 12.5523 12.5523 13 12 13C11.4477 13 11 12.5523 11 12C11 11.4477 11.4477 11 12 11C12.5523 11 13 11.4477 13 12ZM15 9C15.5523 9 16 8.55228 16 8C16 7.44772 15.5523 7 15 7C14.4477 7 14 7.44772 14 8C14 8.55228 14.4477 9 15 9ZM16 12C16 12.5523 15.5523 13 15 13C14.4477 13 14 12.5523 14 12C14 11.4477 14.4477 11 15 11C15.5523 11 16 11.4477 16 12ZM15 17C15.5523 17 16 16.5523 16 16C16 15.4477 15.5523 15 15 15C14.4477 15 14 15.4477 14 16C14 16.5523 14.4477 17 15 17ZM19 8C19 8.55228 18.5523 9 18 9C17.4477 9 17 8.55228 17 8C17 7.44772 17.4477 7 18 7C18.5523 7 19 7.44772 19 8ZM18 13C18.5523 13 19 12.5523 19 12C19 11.4477 18.5523 11 18 11C17.4477 11 17 11.4477 17 12C17 12.5523 17.4477 13 18 13ZM19 16C19 16.5523 18.5523 17 18 17C17.4477 17 17 16.5523 17 16C17 15.4477 17.4477 15 18 15C18.5523 15 19 15.4477 19 16ZM9 15C8.44772 15 8 15.4477 8 16C8 16.5523 8.44772 17 9 17H12C12.5523 17 13 16.5523 13 16C13 15.4477 12.5523 15 12 15H9Z" fill="white" fill-opacity="0.87"/>
</svg>
