<svg width="24" height="24" viewBox="0 0 24 24" fill="none" xmlns="http://www.w3.org/2000/svg">
<path fill-rule="evenodd" clip-rule="evenodd" d="M4 3.3H20C20.3866 3.3 20.7 3.6134 20.7 4V13C20.7 13.3866 20.3866 13.7 20 13.7H19V10C19 8.89543 18.1046 8 17 8H13C11.8954 8 11 8.89543 11 10V13.7H4C3.6134 13.7 3.3 13.3866 3.3 13V4C3.3 3.6134 3.6134 3.3 4 3.3ZM19 20V15H20C21.1046 15 22 14.1046 22 13V4C22 2.89543 21.1046 2 20 2H4C2.89543 2 2 2.89543 2 4V13C2 14.1046 2.89543 15 4 15H9.85V16.85H6.54142C6.34251 16.85 6.15174 16.929 6.01109 17.0697L5.12574 17.955C4.68476 18.396 4.99708 19.15 5.62071 19.15H11V20C11 21.1046 11.8954 22 13 22H17C18.1046 22 19 21.1046 19 20ZM13 9.3H17C17.3866 9.3 17.7 9.6134 17.7 10V19.85H12.3V10C12.3 9.6134 12.6134 9.3 13 9.3Z" fill="black" fill-opacity="0.87"/>
</svg>
