<svg width="24" height="24" viewBox="0 0 24 24" fill="none" xmlns="http://www.w3.org/2000/svg">
<g clip-path="url(#clip0_2992_872)">
<path fill-rule="evenodd" clip-rule="evenodd" d="M14.6216 4.96138C14.1434 5.02699 13.6611 4.87323 13.3092 4.54292L12.5166 3.79914C12.2337 3.53362 11.7663 3.53362 11.4834 3.79914L10.6908 4.54292C10.3389 4.87323 9.8566 5.02699 9.3784 4.96138L8.28657 4.81156C7.8572 4.75265 7.52725 5.0378 7.47099 5.34897L7.28047 6.40262C7.19193 6.89225 6.88065 7.31282 6.43824 7.54054L5.46416 8.04191C5.11697 8.22061 5.02285 8.59139 5.16477 8.87304L5.62179 9.78001C5.84999 10.2329 5.84999 10.7671 5.62179 11.22L5.16477 12.127L3.73592 11.407L4.19294 10.5L3.73592 9.59302C3.18688 8.50342 3.62754 7.18773 4.73192 6.6193L5.706 6.11792L5.89652 5.06428C6.11252 3.8697 7.2662 3.05656 8.50408 3.22642L9.59591 3.37623L10.3884 2.63245C11.287 1.78918 12.713 1.78918 13.6116 2.63245L14.4041 3.37623L15.4959 3.22642C16.7338 3.05656 17.8875 3.8697 18.1035 5.06428L18.294 6.11792L19.2681 6.6193C20.3725 7.18773 20.8131 8.50342 20.2641 9.59302L19.8071 10.5L20.2641 11.407C20.8131 12.4966 20.3725 13.8123 19.2681 14.3807L18.294 14.8821L18.1035 15.9357C18.0824 16.0524 18.0523 16.1655 18.0141 16.2744V22.7474V24.016L16.8693 23.4693L12.0007 21.1441L7.12998 23.4786L5.98421 24.0277V22.7572V16.2696C5.9468 16.1622 5.91731 16.0507 5.89652 15.9357L5.706 14.8821L4.73192 14.3807C3.62754 13.8123 3.18688 12.4966 3.73592 11.407L5.16477 12.127C5.02285 12.4086 5.11697 12.7794 5.46416 12.9581L6.43824 13.4595C6.88065 13.6872 7.19193 14.1077 7.28047 14.5974L7.47099 15.651C7.47886 15.6946 7.4921 15.7376 7.51021 15.7793H7.58421V15.9067C7.72635 16.0983 7.98134 16.2303 8.28657 16.1884L9.3784 16.0386C9.8566 15.973 10.3389 16.1268 10.6908 16.4571L11.4834 17.2009C11.7663 17.4664 12.2337 17.4664 12.5166 17.2009L13.3092 16.4571C13.6611 16.1268 14.1434 15.973 14.6216 16.0386L15.7134 16.1884C16.0175 16.2302 16.2716 16.0994 16.4141 15.909V15.7694H16.494C16.51 15.7308 16.5218 15.6911 16.529 15.651L16.7195 14.5974C16.8081 14.1077 17.1194 13.6872 17.5618 13.4595L18.5358 12.9581C18.883 12.7794 18.9771 12.4086 18.8352 12.127L18.3782 11.22C18.15 10.7671 18.15 10.2329 18.3782 9.78001L18.8352 8.87303C18.9771 8.59139 18.883 8.22061 18.5358 8.04191L17.5618 7.54054C17.1194 7.31282 16.8081 6.89225 16.7195 6.40262L16.529 5.34898C16.4727 5.0378 16.1428 4.75265 15.7134 4.81156L14.6216 4.96138ZM7.58421 21.4866V17.7208C7.87577 17.7961 8.18716 17.8171 8.50408 17.7736L9.59591 17.6238L10.3884 18.3675C11.287 19.2108 12.713 19.2108 13.6116 18.3675L14.4041 17.6238L15.4959 17.7736C15.8122 17.817 16.123 17.7962 16.4141 17.7213V21.4788L12.3449 19.5354L11.9995 19.3704L11.6544 19.5358L7.58421 21.4866ZM13.9 10.5C13.9 11.5493 13.0493 12.4 12 12.4C10.9507 12.4 10.1 11.5493 10.1 10.5C10.1 9.45066 10.9507 8.6 12 8.6C13.0493 8.6 13.9 9.45066 13.9 10.5ZM15.5 10.5C15.5 12.433 13.933 14 12 14C10.067 14 8.5 12.433 8.5 10.5C8.5 8.567 10.067 7 12 7C13.933 7 15.5 8.567 15.5 10.5Z" fill="white" fill-opacity="0.87"/>
</g>
<defs>
<clipPath id="clip0_2992_872">
<rect width="24" height="24" fill="white"/>
</clipPath>
</defs>
</svg>
