<svg width="24" height="24" viewBox="0 0 24 24" fill="none" xmlns="http://www.w3.org/2000/svg">
<path fill-rule="evenodd" clip-rule="evenodd" d="M12 20.7C12.0796 20.7 12.2871 20.665 12.6125 20.3209C12.9405 19.9741 13.2957 19.4024 13.6214 18.5883C13.8989 17.8946 14.1363 17.0715 14.3173 16.15H9.68275C9.86367 17.0715 10.1011 17.8946 10.3786 18.5883C10.7043 19.4024 11.0595 19.9741 11.3875 20.3209C11.7129 20.665 11.9204 20.7 12 20.7ZM9.47449 14.85C9.36203 13.9592 9.3 13.0019 9.3 12C9.3 10.9981 9.36203 10.0408 9.47449 9.15H14.5255C14.638 10.0408 14.7 10.9981 14.7 12C14.7 13.0019 14.638 13.9592 14.5255 14.85H9.47449ZM15.6404 16.15C15.3186 17.911 14.7985 19.3979 14.1513 20.432C16.5232 19.8286 18.5059 18.2509 19.6483 16.15H15.6404ZM20.2225 14.85H15.8352C15.9424 13.9468 16 12.9902 16 12C16 11.0098 15.9424 10.0532 15.8352 9.15H20.2225C20.5319 10.0429 20.7 11.0018 20.7 12C20.7 12.9982 20.5319 13.9571 20.2225 14.85ZM8.1648 14.85H3.77755C3.4681 13.9571 3.3 12.9982 3.3 12C3.3 11.0018 3.4681 10.0429 3.77755 9.15H8.1648C8.05757 10.0532 8 11.0098 8 12C8 12.9902 8.05757 13.9468 8.1648 14.85ZM4.35171 16.15H8.35964C8.68137 17.911 9.20153 19.3979 9.84865 20.432C7.47682 19.8286 5.49407 18.2509 4.35171 16.15ZM9.68275 7.85H14.3173C14.1363 6.92849 13.8989 6.10535 13.6214 5.41174C13.2957 4.59756 12.9405 4.02592 12.6125 3.67909C12.2871 3.335 12.0796 3.3 12 3.3C11.9204 3.3 11.7129 3.335 11.3875 3.67909C11.0595 4.02592 10.7043 4.59756 10.3786 5.41174C10.1011 6.10535 9.86367 6.92849 9.68275 7.85ZM15.6404 7.85H19.6483C18.5059 5.74911 16.5232 4.17136 14.1514 3.56804C14.7985 4.6021 15.3186 6.08899 15.6404 7.85ZM9.84865 3.56804C9.20153 4.6021 8.68137 6.08899 8.35964 7.85H4.35171C5.49407 5.74911 7.47682 4.17136 9.84865 3.56804ZM12 2C17.5228 2 22 6.47715 22 12C22 17.5228 17.5228 22 12 22C6.47715 22 2 17.5228 2 12C2 6.47715 6.47715 2 12 2Z" fill="black" fill-opacity="0.87"/>
</svg>
