<svg xmlns="http://www.w3.org/2000/svg" width="24" height="24" viewBox="0 0 24 24" fill="none">
  <path fill-rule="evenodd" clip-rule="evenodd" d="M12 4.5C19.5 4.5 23 12.5 23 12.5C23 12.5 18.5 20.5 12 20.5C5.5 20.5 1 12.5 1 12.5C1 12.5 4.5 4.5 12 4.5ZM2.4862 12.4349C2.56784 12.2838 2.66636 12.1083 2.78187 11.9137C3.19495 11.218 3.81697 10.293 4.65078 9.37297C6.32734 7.52299 8.75435 5.8 12 5.8C15.2457 5.8 17.6727 7.52299 19.3492 9.37297C20.183 10.293 20.8051 11.218 21.2181 11.9137C21.3336 12.1083 21.4322 12.2838 21.5138 12.4349C21.408 12.5981 21.2795 12.7908 21.1293 13.006C20.634 13.7156 19.9119 14.658 19.0038 15.5955C17.1472 17.512 14.717 19.2 12 19.2C9.28299 19.2 6.85282 17.512 4.99621 15.5955C4.08807 14.658 3.36599 13.7156 2.87073 13.006C2.72053 12.7908 2.59198 12.5981 2.4862 12.4349ZM12 16.5C14.2091 16.5 16 14.7091 16 12.5C16 10.2909 14.2091 8.5 12 8.5C9.79086 8.5 8 10.2909 8 12.5C8 14.7091 9.79086 16.5 12 16.5Z" fill="black" fill-opacity="0.54"/>
</svg>