<svg width="20" height="20" viewBox="0 0 20 20" fill="none" xmlns="http://www.w3.org/2000/svg">
<g clip-path="url(#clip0_8215_101527)">
<path fill-rule="evenodd" clip-rule="evenodd" d="M13.4345 2.44274C14.0202 1.85695 14.97 1.85695 15.5558 2.44274L17.5694 4.45635C18.1552 5.04213 18.1552 5.99188 17.5694 6.57767L7.62307 16.524C7.4209 16.7262 7.16517 16.8663 6.88599 16.928L2.01228 18.0047L3.08419 13.1273C3.14568 12.8475 3.286 12.5912 3.48856 12.3886L13.4345 2.44274ZM14.8487 3.14985C14.6534 2.95458 14.3368 2.95458 14.1416 3.14985L12.2595 5.03188L14.9802 7.75259L16.8623 5.87056C17.0575 5.6753 17.0575 5.35872 16.8623 5.16346L14.8487 3.14985ZM14.2731 8.4597L11.5524 5.73898L4.19567 13.0957C4.12815 13.1633 4.08138 13.2487 4.06088 13.342L3.32494 16.6906L6.67027 15.9515C6.76333 15.931 6.84858 15.8843 6.91597 15.8169L14.2731 8.4597Z" fill="black" fill-opacity="0.54"/>
</g>
<defs>
<clipPath id="clip0_8215_101527">
<rect width="20" height="20" fill="white"/>
</clipPath>
</defs>
</svg>
