<svg width="24" height="24" viewBox="0 0 24 24" fill="none" xmlns="http://www.w3.org/2000/svg">
<path fill-rule="evenodd" clip-rule="evenodd" d="M16 3.31739V6.7V8H14.7H10H7.3H6V6.7V3.3H5C4.06112 3.3 3.3 4.06112 3.3 5V19C3.3 19.9389 4.06112 20.7 5 20.7H19C19.9389 20.7 20.7 19.9389 20.7 19V8.24264C20.7 7.79177 20.5209 7.35937 20.2021 7.04056L16.9594 3.79792L17.8787 2.87868L21.1213 6.12132C21.6839 6.68393 22 7.44699 22 8.24264V19C22 20.6569 20.6569 22 19 22H5C3.34315 22 2 20.6569 2 19V5C2 3.34315 3.34315 2 5 2H6H7.3H14.7H16V2.00982C16.7068 2.06715 17.3735 2.37354 17.8787 2.87868L16.9594 3.79792C16.6984 3.53687 16.3611 3.36946 16 3.31739ZM14.7 6.7H10V3.3H14.7V6.7ZM12 15.5C13.3807 15.5 14.5 14.3807 14.5 13C14.5 11.6193 13.3807 10.5 12 10.5C10.6193 10.5 9.5 11.6193 9.5 13C9.5 14.3807 10.6193 15.5 12 15.5Z" fill="white" fill-opacity="0.87"/>
</svg>
