<svg width="24" height="24" viewBox="0 0 24 24" fill="none" xmlns="http://www.w3.org/2000/svg">
<path fill-rule="evenodd" clip-rule="evenodd" d="M4 5.3H20C20.3866 5.3 20.7 5.6134 20.7 6V18C20.7 18.3866 20.3866 18.7 20 18.7H4C3.6134 18.7 3.3 18.3866 3.3 18V6C3.3 5.6134 3.6134 5.3 4 5.3ZM2 6C2 4.89543 2.89543 4 4 4H20C21.1046 4 22 4.89543 22 6V18C22 19.1046 21.1046 20 20 20H4C2.89543 20 2 19.1046 2 18V6ZM5.5 7C5.22386 7 5 7.22386 5 7.5V8.5C5 8.77614 5.22386 9 5.5 9H18.5C18.7761 9 19 8.77614 19 8.5V7.5C19 7.22386 18.7761 7 18.5 7H5.5Z" fill="black" fill-opacity="0.54"/>
</svg>
