<svg width="38" height="24" viewBox="0 0 38 24" fill="none" xmlns="http://www.w3.org/2000/svg">
<path d="M26.0002 5H15.8613C18.3241 6.36781 20.0002 8.99767 20.0002 12C20.0002 15.0023 18.3241 17.6322 15.8613 19H26.0002C29.8662 19 33.0002 15.866 33.0002 12C33.0002 8.13401 29.8662 5 26.0002 5Z" fill="white" fill-opacity="0.08"/>
<path fill-rule="evenodd" clip-rule="evenodd" d="M12 5C8.15 5 5 8.15 5 12C5 15.85 8.15 19 12 19C15.85 19 19 15.85 19 12C19 8.15 15.85 5 12 5Z" fill="white" fill-opacity="0.87"/>
<path fill-rule="evenodd" clip-rule="evenodd" d="M12 4H26C30.4183 4 34 7.58172 34 12C34 16.4183 30.4183 20 26 20H12C7.58172 20 4 16.4183 4 12C4 7.58172 7.58172 4 12 4ZM15.8611 5H26C29.866 5 33 8.13401 33 12C33 15.866 29.866 19 26 19H15.8611C18.3238 17.6322 20 15.0023 20 12C20 8.99767 18.3238 6.36781 15.8611 5ZM12 19C15.8477 19 19 15.8477 19 12C19 8.15228 15.8477 5 12 5C8.15228 5 5 8.15228 5 12C5 15.8477 8.15228 19 12 19Z" fill="white" fill-opacity="0.32"/>
</svg>
