<svg width="20" height="20" viewBox="0 0 20 20" fill="none" xmlns="http://www.w3.org/2000/svg">
<g clip-path="url(#clip0_8188_99547)">
<path fill-rule="evenodd" clip-rule="evenodd" d="M13.4354 2.44298C14.0212 1.8572 14.971 1.8572 15.5568 2.44298L17.5704 4.45659C18.1561 5.04238 18.1561 5.99213 17.5704 6.57791L7.62405 16.5242C7.42188 16.7264 7.16614 16.8666 6.88696 16.9282L2.01325 18.0049L3.08516 13.1276C3.14666 12.8478 3.28698 12.5914 3.48954 12.3889L13.4354 2.44298ZM14.8496 3.15009C14.6544 2.95483 14.3378 2.95483 14.1425 3.15009L12.2605 5.03212L14.9812 7.75283L16.8633 5.87081C17.0585 5.67554 17.0585 5.35896 16.8633 5.1637L14.8496 3.15009ZM14.2741 8.45994L11.5534 5.73923L4.19665 13.096C4.12913 13.1635 4.08235 13.2489 4.06186 13.3422L3.32592 16.6908L6.67125 15.9518C6.76431 15.9312 6.84955 15.8845 6.91694 15.8171L14.2741 8.45994Z" fill="white"/>
</g>
<defs>
<clipPath id="clip0_8188_99547">
<rect width="20" height="20" fill="white"/>
</clipPath>
</defs>
</svg>
