<svg width="52" height="32" viewBox="0 0 52 32" fill="none" xmlns="http://www.w3.org/2000/svg">
<path d="M49 0H3C1.34315 0 0 1.34315 0 3V29C0 30.6569 1.34315 32 3 32H49C50.6569 32 52 30.6569 52 29V3C52 1.34315 50.6569 0 49 0Z" fill="white"/>
<path d="M13.7062 29.9385V28.0803C13.7062 27.3695 13.2619 26.904 12.499 26.904C12.1176 26.904 11.7029 27.0267 11.4178 27.4308C11.1956 27.0916 10.8771 26.904 10.3995 26.904C10.081 26.904 9.76257 26.9978 9.51077 27.337V26.9654H8.84424V29.9385H9.51077V28.2968C9.51077 27.77 9.7959 27.521 10.2402 27.521C10.6846 27.521 10.9068 27.7989 10.9068 28.2968V29.9385H11.5733V28.2968C11.5733 27.77 11.8918 27.521 12.3028 27.521C12.7471 27.521 12.9693 27.7989 12.9693 28.2968V29.9385H13.7062ZM23.5931 26.9654H22.5119V26.0669H21.8453V26.9654H21.2417V27.5535H21.8453V28.9174C21.8453 29.5994 22.1305 29.9999 22.8933 29.9999C23.1784 29.9999 23.4968 29.9061 23.719 29.7834L23.5265 29.2241C23.3339 29.3468 23.1117 29.3793 22.9525 29.3793C22.6341 29.3793 22.5082 29.1916 22.5082 28.8849V27.5535H23.5894V26.9654H23.5931ZM29.2512 26.9004C28.8698 26.9004 28.6143 27.088 28.4551 27.3334V26.9617H27.7886V29.9349H28.4551V28.2607C28.4551 27.7664 28.6773 27.4849 29.092 27.4849C29.2179 27.4849 29.3771 27.5174 29.5068 27.5463L29.6993 26.9257C29.566 26.9004 29.3772 26.9004 29.2512 26.9004ZM20.7011 27.2107C20.3827 26.9942 19.9383 26.9004 19.4606 26.9004C18.6978 26.9004 18.1905 27.2721 18.1905 27.8602C18.1905 28.3545 18.5719 28.636 19.2384 28.7262L19.5569 28.7586C19.905 28.82 20.0975 28.9138 20.0975 29.069C20.0975 29.2855 19.842 29.4406 19.3977 29.4406C18.9533 29.4406 18.6015 29.2855 18.3793 29.1303L18.0609 29.6246C18.409 29.8736 18.8867 29.9963 19.3643 29.9963C20.253 29.9963 20.7641 29.5922 20.7641 29.0365C20.7641 28.5097 20.3493 28.2318 19.7161 28.138L19.3977 28.1056C19.1125 28.0731 18.8904 28.0117 18.8904 27.8277C18.8904 27.6112 19.1125 27.4885 19.4643 27.4885C19.8457 27.4885 20.2271 27.6437 20.4197 27.7375L20.7011 27.2107ZM38.4346 26.9004C38.0532 26.9004 37.7977 27.088 37.6385 27.3334V26.9617H36.9719V29.9349H37.6385V28.2607C37.6385 27.7664 37.8606 27.4849 38.2754 27.4849C38.4013 27.4849 38.5605 27.5174 38.6901 27.5463L38.8827 26.9329C38.7531 26.9004 38.5642 26.9004 38.4346 26.9004ZM29.9178 28.4519C29.9178 29.3504 30.5547 29.9999 31.5397 29.9999C31.984 29.9999 32.3025 29.9061 32.6209 29.6607L32.3025 29.1339C32.047 29.3215 31.7952 29.4117 31.5064 29.4117C30.9657 29.4117 30.5843 29.0401 30.5843 28.4519C30.5843 27.8927 30.9657 27.521 31.5064 27.4922C31.7915 27.4922 32.047 27.586 32.3025 27.77L32.6209 27.2432C32.3025 26.9942 31.984 26.904 31.5397 26.904C30.5547 26.9004 29.9178 27.5535 29.9178 28.4519ZM36.0832 28.4519V26.9654H35.4167V27.337C35.1945 27.0592 34.876 26.904 34.4613 26.904C33.6022 26.904 32.9357 27.5535 32.9357 28.4519C32.9357 29.3504 33.6022 29.9999 34.4613 29.9999C34.9057 29.9999 35.2241 29.8447 35.4167 29.5669V29.9385H36.0832V28.4519ZM33.6356 28.4519C33.6356 27.9251 33.9836 27.4922 34.5576 27.4922C35.0982 27.4922 35.4796 27.8963 35.4796 28.4519C35.4796 28.9788 35.0982 29.4117 34.5576 29.4117C33.9873 29.3793 33.6356 28.9751 33.6356 28.4519ZM25.6594 26.9004C24.7707 26.9004 24.1338 27.521 24.1338 28.4483C24.1338 29.3793 24.7707 29.9963 25.6927 29.9963C26.1371 29.9963 26.5814 29.8736 26.9332 29.5922L26.6147 29.1267C26.3592 29.3143 26.0408 29.437 25.726 29.437C25.3113 29.437 24.9003 29.2494 24.804 28.7262H27.0591C27.0591 28.6324 27.0591 28.571 27.0591 28.4772C27.0887 27.521 26.5148 26.9004 25.6594 26.9004ZM25.6594 27.4597C26.0741 27.4597 26.3592 27.7087 26.4222 28.1705H24.8336C24.8966 27.77 25.1817 27.4597 25.6594 27.4597ZM42.219 28.4519V25.7891H41.5525V27.337C41.3303 27.0592 41.0119 26.904 40.5971 26.904C39.738 26.904 39.0715 27.5535 39.0715 28.4519C39.0715 29.3504 39.738 29.9999 40.5971 29.9999C41.0415 29.9999 41.3599 29.8447 41.5525 29.5669V29.9385H42.219V28.4519ZM39.7714 28.4519C39.7714 27.9251 40.1194 27.4922 40.6934 27.4922C41.234 27.4922 41.6154 27.8963 41.6154 28.4519C41.6154 28.9788 41.234 29.4117 40.6934 29.4117C40.1194 29.3793 39.7714 28.9751 39.7714 28.4519ZM17.4573 28.4519V26.9654H16.7908V27.337C16.5686 27.0592 16.2501 26.904 15.8354 26.904C14.9763 26.904 14.3098 27.5535 14.3098 28.4519C14.3098 29.3504 14.9763 29.9999 15.8354 29.9999C16.2798 29.9999 16.5982 29.8447 16.7908 29.5669V29.9385H17.4573V28.4519ZM14.98 28.4519C14.98 27.9251 15.3281 27.4922 15.9021 27.4922C16.4427 27.4922 16.8241 27.8963 16.8241 28.4519C16.8241 28.9788 16.4427 29.4117 15.9021 29.4117C15.3281 29.3793 14.98 28.9751 14.98 28.4519Z" fill="black"/>
<path d="M30.4918 4.38525H20.479V21.9141H30.4918V4.38525Z" fill="#FF5A00"/>
<path d="M21.1453 13.1495C21.1453 9.58814 22.8635 6.42732 25.5 4.38505C23.5596 2.89845 21.112 2 18.4422 2C12.1175 2 7 6.9866 7 13.1495C7 19.3124 12.1175 24.299 18.4422 24.299C21.112 24.299 23.5596 23.4005 25.5 21.9139C22.8598 19.9005 21.1453 16.7108 21.1453 13.1495Z" fill="#EB001B"/>
<path d="M44 13.1495C44 19.3124 38.8825 24.299 32.5578 24.299C29.888 24.299 27.4404 23.4005 25.5 21.9139C28.1698 19.868 29.8547 16.7108 29.8547 13.1495C29.8547 9.58814 28.1365 6.42732 25.5 4.38505C27.4366 2.89845 29.8843 2 32.5541 2C38.8825 2 44 7.01907 44 13.1495Z" fill="#F79E1B"/>
</svg>
