<svg width="24" height="24" viewBox="0 0 24 24" fill="none" xmlns="http://www.w3.org/2000/svg">
<path d="M6.31043 11.6622C6.48811 7.57049 9.86151 4.30781 13.9969 4.30781C18.2462 4.30781 21.6908 7.75248 21.6908 12.0017C21.6908 16.2509 18.2462 19.6956 13.9969 19.6956C13.638 19.6956 13.3469 19.9866 13.3469 20.3456C13.3469 20.7045 13.638 20.9956 13.9969 20.9956C18.9641 20.9956 22.9908 16.9689 22.9908 12.0017C22.9908 7.03451 18.9641 3.00781 13.9969 3.00781C9.23835 3.00781 5.34292 6.70343 5.02415 11.3811L2.135 7.71793C1.9127 7.43606 1.50398 7.38778 1.22211 7.61008C0.940245 7.83239 0.891961 8.24111 1.11427 8.52297L5.43837 14.0056L10.921 9.6815C11.2029 9.4592 11.2512 9.05048 11.0289 8.76861C10.8066 8.48674 10.3979 8.43846 10.116 8.66076L6.31043 11.6622Z" fill="black" fill-opacity="0.54"/>
</svg>
