<svg width="22" height="20" viewBox="0 0 22 20" fill="none" xmlns="http://www.w3.org/2000/svg">
<path d="M4.36197 1.15852L3.91604 0L3.47011 1.15852C3.08181 2.16733 2.25446 2.96272 1.20509 3.33601L0 3.76471L1.20509 4.1934C2.25446 4.56669 3.08181 5.36208 3.47011 6.37089L3.91604 7.52941L4.36197 6.37089C4.75027 5.36208 5.57762 4.56669 6.62699 4.1934L7.83208 3.76471L6.62699 3.33602C5.57762 2.96272 4.75027 2.16733 4.36197 1.15852Z" fill="#2979FF" fill-opacity="0.16"/>
<path d="M16.6154 9.64706L17.5884 12.1748C17.8939 12.9686 18.5449 13.5944 19.3706 13.8882L22 14.8235L19.3706 15.7589C18.5449 16.0526 17.8939 16.6785 17.5884 17.4723L16.6154 20L15.6425 17.4723C15.337 16.6785 14.6859 16.0526 13.8602 15.7589L11.2309 14.8235L13.8602 13.8882C14.6859 13.5944 15.337 12.9686 15.6425 12.1748L16.6154 9.64706Z" fill="#2979FF" fill-opacity="0.16"/>
</svg>
