<svg width="52" height="32" viewBox="0 0 52 32" fill="none" xmlns="http://www.w3.org/2000/svg">
<path d="M49 0H3C1.34315 0 0 1.34315 0 3V29C0 30.6569 1.34315 32 3 32H49C50.6569 32 52 30.6569 52 29V3C52 1.34315 50.6569 0 49 0Z" fill="#016FD0"/>
<path d="M10.0693 26.8993V18.7354H18.7186L19.6466 19.9444L20.6052 18.7354H52V26.3363C52 26.3363 51.179 26.8911 50.2294 26.8993H32.8455L31.7992 25.6124V26.8993H28.3707V24.7025C28.3707 24.7025 27.9024 25.0091 26.8899 25.0091H25.7229V26.8993H20.5319L19.6052 25.6644L18.6644 26.8993H10.0693Z" fill="white"/>
<path d="M0 12.5821L1.94444 8.0376H5.30715L6.41065 10.5832V8.0376H10.5908L11.2477 9.8775L11.8846 8.0376H30.6491V8.96258C30.6491 8.96258 31.6356 8.0376 33.2567 8.0376L39.3451 8.05893L40.4296 10.5712V8.0376H43.9278L44.8906 9.48072V8.0376H48.4208V16.2016H44.8906L43.9679 14.7538V16.2016H38.8283L38.3114 14.9146H36.9297L36.4213 16.2016H32.9358C31.5408 16.2016 30.6491 15.2955 30.6491 15.2955V16.2016H25.3939L24.3508 14.9146V16.2016H4.80899L4.29248 14.9146H2.91519L2.40234 16.2016H0V12.5821Z" fill="white"/>
<path d="M7.42139 15.1559V9.04297L9.84779 9.052L11.2591 12.9932L12.6366 9.04297H15.0436V15.1559H13.5192V10.6516L11.9032 15.1559H10.5663L8.94582 10.6516V15.1559H7.42139Z" fill="#016FD0"/>
<path fill-rule="evenodd" clip-rule="evenodd" d="M2.63288 9.04395L0.0102539 15.1569H1.71772L2.20162 13.9328H5.01481L5.49621 15.1569H7.24128L4.62116 9.04395H2.63288ZM3.6032 10.4666L4.46069 12.6056H2.7432L3.6032 10.4666Z" fill="#016FD0"/>
<path d="M16.0869 15.1559V9.04297H21.0614V10.4103H17.6274V11.456H20.9811V12.7429H17.6274V13.8287H21.0614V15.1559H16.0869Z" fill="#016FD0"/>
<path fill-rule="evenodd" clip-rule="evenodd" d="M21.9438 9.04395V15.1569H23.4683V12.9852H24.1101L25.938 15.1569H27.8009L25.795 12.9047C26.6183 12.8351 27.4674 12.1268 27.4674 11.0271C27.4674 9.74075 26.4603 9.04395 25.3362 9.04395H21.9438ZM23.4683 10.4113H25.2109C25.6289 10.4113 25.933 10.7391 25.933 11.0548C25.933 11.4609 25.539 11.6982 25.2334 11.6982H23.4683V10.4113Z" fill="#016FD0"/>
<path d="M29.6463 15.1559H28.0898V9.04297H29.6463V15.1559Z" fill="#016FD0"/>
<path d="M33.3368 15.1559H33.0008C31.3752 15.1559 30.3882 13.872 30.3882 12.1246C30.3882 10.334 31.3642 9.04297 33.417 9.04297H35.1019V10.4908H33.3554C32.5221 10.4908 31.9327 11.1427 31.9327 12.1396C31.9327 13.3235 32.6066 13.8207 33.5775 13.8207H33.9787L33.3368 15.1559Z" fill="#016FD0"/>
<path fill-rule="evenodd" clip-rule="evenodd" d="M36.6543 9.04395L34.0317 15.1569H35.7392L36.2231 13.9328H39.0363L39.5177 15.1569H41.2627L38.6426 9.04395H36.6543ZM37.6246 10.4666L38.4821 12.6056H36.7646L37.6246 10.4666Z" fill="#016FD0"/>
<path d="M41.4404 15.1559V9.04297H43.3785L45.8532 12.8837V9.04297H47.3776V15.1559H45.5022L42.9648 11.2147V15.1559H41.4404Z" fill="#016FD0"/>
<path d="M11.1123 25.8536V19.7407H16.0868V21.1081H12.6528V22.1537H16.0065V23.4407H12.6528V24.5265H16.0868V25.8536H11.1123Z" fill="#016FD0"/>
<path d="M35.4873 25.8536V19.7407H40.4618V21.1081H37.0278V22.1537H40.3655V23.4407H37.0278V24.5265H40.4618V25.8536H35.4873Z" fill="#016FD0"/>
<path d="M16.2798 25.8536L18.7019 22.8349L16.2222 19.7407H18.1428L19.6195 21.6535L21.1014 19.7407H22.9467L20.4996 22.7972L22.9261 25.8536H21.0058L19.5719 23.971L18.1728 25.8536H16.2798Z" fill="#016FD0"/>
<path fill-rule="evenodd" clip-rule="evenodd" d="M23.1074 19.7417V25.8546H24.6719V23.9242H26.2766C27.6344 23.9242 28.6635 23.2021 28.6635 21.7978C28.6635 20.6344 27.8564 19.7417 26.4747 19.7417H23.1074ZM24.6719 21.1241H26.3618C26.8005 21.1241 27.114 21.3937 27.114 21.8279C27.114 22.2359 26.8021 22.5317 26.3568 22.5317H24.6719V21.1241Z" fill="#016FD0"/>
<path fill-rule="evenodd" clip-rule="evenodd" d="M29.3252 19.7407V25.8536H30.8497V23.6819H31.4915L33.3193 25.8536H35.1823L33.1764 23.6015C33.9996 23.5319 34.8488 22.8236 34.8488 21.7239C34.8488 20.4375 33.8416 19.7407 32.7176 19.7407H29.3252ZM30.8497 21.1081H32.5922C33.0102 21.1081 33.3143 21.4359 33.3143 21.7516C33.3143 22.1577 32.9203 22.395 32.6148 22.395H30.8497V21.1081Z" fill="#016FD0"/>
<path d="M41.1677 25.8536V24.5265H44.2186C44.67 24.5265 44.8654 24.2819 44.8654 24.0137C44.8654 23.7568 44.6706 23.497 44.2186 23.497H42.8399C41.6415 23.497 40.9741 22.765 40.9741 21.6661C40.9741 20.6859 41.5853 19.7407 43.3661 19.7407H46.3347L45.6929 21.1161H43.1254C42.6346 21.1161 42.4835 21.3743 42.4835 21.6209C42.4835 21.8743 42.6702 22.1537 43.0451 22.1537H44.4893C45.8252 22.1537 46.4049 22.9134 46.4049 23.9082C46.4049 24.9777 45.759 25.8536 44.4166 25.8536H41.1677Z" fill="#016FD0"/>
<path d="M46.7629 25.8536V24.5265H49.8138C50.2652 24.5265 50.4606 24.2819 50.4606 24.0137C50.4606 23.7568 50.2658 23.497 49.8138 23.497H48.4351C47.2367 23.497 46.5693 22.765 46.5693 21.6661C46.5693 20.6859 47.1805 19.7407 48.9613 19.7407H51.9299L51.288 21.1161H48.7206C48.2298 21.1161 48.0787 21.3743 48.0787 21.6209C48.0787 21.8743 48.2654 22.1537 48.6403 22.1537H50.0845C51.4204 22.1537 52.0001 22.9134 52.0001 23.9082C52.0001 24.9777 51.3542 25.8536 50.0118 25.8536H46.7629Z" fill="#016FD0"/>
</svg>
