<svg width="40" height="40" viewBox="0 0 40 40" fill="none" xmlns="http://www.w3.org/2000/svg">
<path fill-rule="evenodd" clip-rule="evenodd" d="M33 7H7C5.89543 7 5 7.89543 5 9V23C5 24.1046 5.89543 25 7 25H17H23H33C34.1046 25 35 24.1046 35 23V9C35 7.89543 34.1046 7 33 7ZM23 27H33C35.2091 27 37 25.2091 37 23V9C37 6.79086 35.2091 5 33 5H7C4.79086 5 3 6.79086 3 9V23C3 25.2091 4.79086 27 7 27H17V30H11.9554C11.6257 30 11.3171 30.1625 11.1306 30.4345L8.53675 34.2172C8.30923 34.549 8.5468 35 8.94912 35H17H23H31.0509C31.4532 35 31.6908 34.549 31.4632 34.2172L28.8694 30.4345C28.6829 30.1625 28.3743 30 28.0446 30H23V27Z" fill="black" fill-opacity="0.54"/>
</svg>
