<svg width="24" height="24" viewBox="0 0 24 24" fill="none" xmlns="http://www.w3.org/2000/svg">
<path fill-rule="evenodd" clip-rule="evenodd" d="M17.1632 16.7391L19.0987 17.4952L20.4469 15.2266L18.8537 14.0147L18.2555 13.5597L18.3513 12.8143C18.3891 12.5204 18.4127 12.2616 18.4127 12C18.4127 11.7384 18.3891 11.4796 18.3513 11.1857L18.2555 10.4403L18.8537 9.98532L20.4469 8.77345L19.0987 6.50479L17.1632 7.26089L16.49 7.52386L15.9114 7.09088C15.4619 6.75454 14.9854 6.48249 14.4714 6.27758L13.7759 6.00032L13.6667 5.2596L13.3778 3.3H10.6267L10.3379 5.2596L10.2287 6.00032L9.53316 6.27758C9.0283 6.47885 8.54762 6.75946 8.08052 7.10023L7.50495 7.52013L6.84132 7.26089L4.90582 6.50479L3.55767 8.77345L5.15087 9.98532L5.74902 10.4403L5.65323 11.1857C5.61562 11.4784 5.59187 11.7476 5.59187 12C5.59187 12.2524 5.61562 12.5216 5.65323 12.8143L5.74902 13.5597L5.15087 14.0147L3.55767 15.2266L4.90583 17.4952L6.84132 16.7391L7.5145 16.4761L8.09318 16.9091C8.54269 17.2455 9.01917 17.5175 9.53316 17.7224L10.2287 17.9997L10.3379 18.7404L10.6267 20.7H13.3778L13.6667 18.7404L13.7759 17.9997L14.4714 17.7224C14.9762 17.5212 15.4569 17.2405 15.924 16.8998L16.4996 16.4799L17.1632 16.7391ZM19.8772 18.73L21.9333 15.27C22.0566 15.05 22.0052 14.78 21.8099 14.63L19.6407 12.98C19.6818 12.66 19.7127 12.34 19.7127 12C19.7127 11.66 19.6818 11.34 19.6407 11.02L21.8099 9.37C22.0052 9.22 22.0566 8.95 21.9333 8.73L19.8772 5.27C19.7846 5.11 19.6099 5.02 19.4248 5.02C19.3631 5.02 19.3015 5.03 19.25 5.05L16.6902 6.05C16.1556 5.65 15.5799 5.32 14.9528 5.07L14.5621 2.42C14.5313 2.18 14.3154 2 14.0584 2H9.94617C9.68915 2 9.47326 2.18 9.44242 2.42L9.05176 5.07C8.42465 5.32 7.84894 5.66 7.31435 6.05L4.7545 5.05C4.69281 5.03 4.63113 5.02 4.56945 5.02C4.39468 5.02 4.21991 5.11 4.12738 5.27L2.07128 8.73C1.93763 8.95 1.99931 9.22 2.19464 9.37L4.36384 11.02C4.32271 11.34 4.29187 11.67 4.29187 12C4.29187 12.33 4.32271 12.66 4.36384 12.98L2.19464 14.63C1.99931 14.78 1.94791 15.05 2.07128 15.27L4.12738 18.73C4.21991 18.89 4.39468 18.98 4.57973 18.98C4.64141 18.98 4.70309 18.97 4.7545 18.95L7.31435 17.95C7.84894 18.35 8.42465 18.68 9.05176 18.93L9.44242 21.58C9.47326 21.82 9.68915 22 9.94617 22H14.0584C14.3154 22 14.5313 21.82 14.5621 21.58L14.9528 18.93C15.5799 18.68 16.1556 18.34 16.6902 17.95L19.25 18.95C19.3117 18.97 19.3734 18.98 19.4351 18.98C19.6099 18.98 19.7846 18.89 19.8772 18.73ZM13.7 12C13.7 12.9389 12.9389 13.7 12 13.7C11.0611 13.7 10.3 12.9389 10.3 12C10.3 11.0611 11.0611 10.3 12 10.3C12.9389 10.3 13.7 11.0611 13.7 12ZM15 12C15 13.6569 13.6569 15 12 15C10.3431 15 9 13.6569 9 12C9 10.3431 10.3431 9 12 9C13.6569 9 15 10.3431 15 12Z" fill="black" fill-opacity="0.87"/>
</svg>
