<svg width="52" height="32" viewBox="0 0 52 32" fill="none" xmlns="http://www.w3.org/2000/svg">
<path d="M49 0H3C1.34315 0 0 1.34315 0 3V29C0 30.6569 1.34315 32 3 32H49C50.6569 32 52 30.6569 52 29V3C52 1.34315 50.6569 0 49 0Z" fill="white"/>
<path d="M34.7144 18.785H37.2008C37.2718 18.785 37.4376 18.7614 37.5086 18.7614C37.9822 18.667 38.3848 18.2421 38.3848 17.652C38.3848 17.0855 37.9822 16.6607 37.5086 16.5426C37.4376 16.519 37.2955 16.519 37.2008 16.519H34.7144V18.785Z" fill="url(#paint0_linear_1006_2084)"/>
<path d="M36.9164 3.13574C34.5484 3.13574 32.6067 5.04765 32.6067 7.43164V11.8928H38.6924C38.8345 11.8928 39.0002 11.8928 39.1186 11.9164C40.492 11.9872 41.5103 12.6953 41.5103 13.9227C41.5103 14.8905 40.8235 15.7166 39.5448 15.8818V15.929C40.9419 16.0234 42.0075 16.8024 42.0075 18.0062C42.0075 19.3044 40.8235 20.1541 39.2607 20.1541H32.583V28.8875H38.9055C41.2735 28.8875 43.2152 26.9756 43.2152 24.5916V3.13574H36.9164Z" fill="url(#paint1_linear_1006_2084)"/>
<path d="M38.0769 14.206C38.0769 13.6396 37.6744 13.2619 37.2008 13.1911C37.1534 13.1911 37.035 13.1675 36.964 13.1675H34.7144V15.2446H36.964C37.035 15.2446 37.1771 15.2446 37.2008 15.221C37.6744 15.1502 38.0769 14.7725 38.0769 14.206Z" fill="url(#paint2_linear_1006_2084)"/>
<path d="M13.0946 3.13574C10.7266 3.13574 8.78491 5.04765 8.78491 7.43164V18.0298C9.99258 18.6199 11.2476 18.9975 12.5026 18.9975C13.9944 18.9975 14.7996 18.1006 14.7996 16.8732V11.8692H18.4936V16.8496C18.4936 18.7851 17.2859 20.3665 13.1893 20.3665C10.703 20.3665 8.76123 19.8237 8.76123 19.8237V28.8639H15.0837C17.4517 28.8639 19.3934 26.952 19.3934 24.568V3.13574H13.0946Z" fill="url(#paint3_linear_1006_2084)"/>
<path d="M25.0055 3.13574C22.6375 3.13574 20.6958 5.04765 20.6958 7.43164V13.0494C21.7851 12.1288 23.6794 11.5387 26.7341 11.6803C28.368 11.7511 30.1203 12.1996 30.1203 12.1996V14.0171C29.2442 13.5686 28.2023 13.1674 26.8525 13.073C24.5319 12.9077 23.1348 14.0407 23.1348 16.0234C23.1348 18.0298 24.5319 19.1627 26.8525 18.9739C28.2023 18.8795 29.2442 18.4546 30.1203 18.0298V19.8473C30.1203 19.8473 28.3917 20.2957 26.7341 20.3665C23.6794 20.5082 21.7851 19.9181 20.6958 18.9975V28.9111H27.0183C29.3863 28.9111 31.328 26.9992 31.328 24.6152V3.13574H25.0055Z" fill="url(#paint4_linear_1006_2084)"/>
<defs>
<linearGradient id="paint0_linear_1006_2084" x1="32.603" y1="17.6548" x2="43.244" y2="17.6548" gradientUnits="userSpaceOnUse">
<stop stop-color="#007940"/>
<stop offset="0.2285" stop-color="#00873F"/>
<stop offset="0.7433" stop-color="#40A737"/>
<stop offset="1" stop-color="#5CB531"/>
</linearGradient>
<linearGradient id="paint1_linear_1006_2084" x1="32.6024" y1="16.0013" x2="43.2443" y2="16.0013" gradientUnits="userSpaceOnUse">
<stop stop-color="#007940"/>
<stop offset="0.2285" stop-color="#00873F"/>
<stop offset="0.7433" stop-color="#40A737"/>
<stop offset="1" stop-color="#5CB531"/>
</linearGradient>
<linearGradient id="paint2_linear_1006_2084" x1="32.6027" y1="14.2031" x2="43.2442" y2="14.2031" gradientUnits="userSpaceOnUse">
<stop stop-color="#007940"/>
<stop offset="0.2285" stop-color="#00873F"/>
<stop offset="0.7433" stop-color="#40A737"/>
<stop offset="1" stop-color="#5CB531"/>
</linearGradient>
<linearGradient id="paint3_linear_1006_2084" x1="8.7799" y1="16.0013" x2="19.5857" y2="16.0013" gradientUnits="userSpaceOnUse">
<stop stop-color="#1F286F"/>
<stop offset="0.4751" stop-color="#004E94"/>
<stop offset="0.8261" stop-color="#0066B1"/>
<stop offset="1" stop-color="#006FBC"/>
</linearGradient>
<linearGradient id="paint4_linear_1006_2084" x1="20.6346" y1="16.0013" x2="31.1295" y2="16.0013" gradientUnits="userSpaceOnUse">
<stop stop-color="#6C2C2F"/>
<stop offset="0.1735" stop-color="#882730"/>
<stop offset="0.5731" stop-color="#BE1833"/>
<stop offset="0.8585" stop-color="#DC0436"/>
<stop offset="1" stop-color="#E60039"/>
</linearGradient>
</defs>
</svg>
