<svg width="52" height="32" viewBox="0 0 52 32" fill="none" xmlns="http://www.w3.org/2000/svg">
<path d="M49 0H3C1.34315 0 0 1.34315 0 3V29C0 30.6569 1.34315 32 3 32H49C50.6569 32 52 30.6569 52 29V3C52 1.34315 50.6569 0 49 0Z" fill="white"/>
<path d="M13.819 3H23.7844C25.1755 3 26.0407 4.1792 25.7162 5.63073L21.0766 26.3471C20.7491 27.7936 19.3564 28.9738 17.9643 28.9738H7.99985C6.61071 28.9738 5.74356 27.7936 6.06808 26.3471L10.7096 5.63073C11.0342 4.1792 12.4262 3 13.819 3Z" fill="#E21836"/>
<path d="M22.9551 3H34.415C35.8059 3 35.1787 4.1792 34.8515 5.63073L30.2127 26.3471C29.8872 27.7936 29.9887 28.9738 28.5949 28.9738H17.135C15.7412 28.9738 14.8787 27.7936 15.2061 26.3471L19.8448 5.63073C20.1741 4.1792 21.5633 3 22.9551 3Z" fill="#00447C"/>
<path d="M33.9605 3H43.9259C45.3189 3 46.1841 4.1792 45.8569 5.63073L41.2181 26.3471C40.8906 27.7936 39.4969 28.9738 38.1041 28.9738H28.1433C26.7496 28.9738 25.8851 27.7936 26.2115 26.3471L30.8512 5.63073C31.1757 4.1792 32.5667 3 33.9605 3Z" fill="#007B84"/>
<path d="M15.7204 11.8022C14.6956 11.8131 14.3929 11.8022 14.2963 11.7785C14.2591 11.9621 13.5676 15.2797 13.5656 15.2825C13.4167 15.9537 13.3084 16.4321 12.9404 16.7411C12.7315 16.9207 12.4876 17.0073 12.2049 17.0073C11.7504 17.0073 11.4857 16.7726 11.4412 16.3275L11.4327 16.1747C11.4327 16.1747 11.5712 15.2757 11.5712 15.2706C11.5712 15.2706 12.297 12.2473 12.4269 11.8477C12.4337 11.8249 12.4357 11.8131 12.4374 11.8022C11.0247 11.8151 10.7742 11.8022 10.757 11.7785C10.7475 11.811 10.7125 11.9985 10.7125 11.9985L9.97146 15.406L9.90782 15.695L9.78467 16.6403C9.78467 16.9207 9.83762 17.1495 9.94304 17.3431C10.2807 17.9567 11.2438 18.0486 11.7886 18.0486C12.4906 18.0486 13.1491 17.8935 13.594 17.6103C14.3665 17.1357 14.5686 16.3937 14.7488 15.7344L14.8323 15.3962C14.8323 15.3962 15.58 12.2562 15.707 11.8477C15.7119 11.8249 15.7138 11.8131 15.7204 11.8022ZM18.2642 14.3353C18.084 14.3353 17.7546 14.3807 17.4587 14.5316C17.3514 14.5889 17.2498 14.6551 17.1427 14.721L17.2394 14.358L17.1864 14.2969C16.559 14.429 16.4186 14.4467 15.8391 14.5316L15.7905 14.5652C15.7232 15.1454 15.6635 15.5817 15.414 16.7222C15.319 17.1426 15.2204 17.567 15.1216 17.9863L15.1483 18.0396C15.7422 18.007 15.9224 18.007 16.4386 18.0159L16.4803 17.9686C16.5459 17.6193 16.5544 17.5374 16.6997 16.8298C16.7679 16.4944 16.9103 15.7572 16.9805 15.4948C17.1094 15.4326 17.2367 15.3715 17.3582 15.3715C17.6475 15.3715 17.6122 15.634 17.6011 15.7385C17.5887 15.9141 17.4833 16.4875 17.3752 16.9799L17.303 17.2977C17.2528 17.5324 17.1976 17.7605 17.1473 17.9931L17.1692 18.0396C17.7546 18.007 17.9331 18.007 18.433 18.0159L18.4918 17.9686C18.5821 17.423 18.6086 17.277 18.7689 16.4825L18.8496 16.1175C19.0062 15.4031 19.0849 15.0408 18.9664 14.7458C18.8411 14.4151 18.5404 14.3353 18.2642 14.3353ZM21.1059 15.0832C20.7948 15.1454 20.5963 15.1868 20.3991 15.2136C20.2035 15.2462 20.0129 15.2757 19.7122 15.3192L19.6884 15.3417L19.6665 15.3596C19.6352 15.5925 19.6133 15.7938 19.5718 16.0305C19.5365 16.2753 19.4824 16.5535 19.3942 16.9531C19.3259 17.259 19.2907 17.3656 19.2519 17.4732C19.214 17.5808 19.1722 17.6854 19.0954 17.9863L19.1134 18.0141L19.1285 18.0396C19.4095 18.0257 19.5934 18.0158 19.7824 18.0141C19.9711 18.007 20.1666 18.0141 20.4693 18.0158L20.4957 17.9934L20.5242 17.9686C20.5679 17.6973 20.5744 17.6243 20.6012 17.4919C20.6276 17.3499 20.6733 17.1534 20.7853 16.6285C20.8382 16.3819 20.8973 16.1361 20.9522 15.8845C21.0092 15.6339 21.069 15.3871 21.1258 15.1406L21.1173 15.1108L21.1059 15.0832ZM21.1125 14.0747C20.8298 13.9012 20.3336 13.9563 19.9996 14.196C19.6666 14.4309 19.6287 14.7644 19.9104 14.9402C20.1883 15.109 20.6865 15.0587 21.0176 14.8169C21.3499 14.5769 21.3914 14.2465 21.1125 14.0747ZM22.8224 18.094C23.3945 18.094 23.9808 17.93 24.4222 17.4435C24.7617 17.0489 24.9174 16.4618 24.9713 16.2201C25.147 15.4188 25.0102 15.0447 24.8385 14.8168C24.5776 14.4695 24.1166 14.3581 23.6383 14.3581C23.3507 14.3581 22.6658 14.3876 22.1306 14.9007C21.7464 15.2708 21.5688 15.773 21.4617 16.2544C21.3536 16.745 21.2293 17.6282 22.0102 17.9568C22.2511 18.0644 22.5985 18.094 22.8224 18.094ZM22.7777 16.2911C22.9096 15.6843 23.0653 15.175 23.4627 15.175C23.7741 15.175 23.7967 15.5539 23.6582 16.1627C23.6335 16.2979 23.5198 16.8003 23.366 17.0143C23.2587 17.1722 23.1316 17.2679 22.9912 17.2679C22.9495 17.2679 22.701 17.2679 22.6971 16.8842C22.6951 16.6947 22.7323 16.5012 22.7777 16.2911ZM26.4013 18.0159L26.446 17.9687C26.5094 17.6193 26.5198 17.5372 26.6602 16.8299C26.7304 16.4944 26.8757 15.7573 26.9439 15.4948C27.0732 15.4325 27.1982 15.3713 27.3236 15.3713C27.6109 15.3713 27.576 15.6338 27.5645 15.7384C27.5541 15.9142 27.4487 16.4874 27.3386 16.9797L27.2704 17.2975C27.2182 17.5324 27.1613 17.7603 27.111 17.9932L27.1329 18.0397C27.7202 18.0071 27.892 18.0071 28.3948 18.0159L28.4555 17.9687C28.5437 17.4228 28.5675 17.2768 28.7326 16.4826L28.8113 16.1173C28.9687 15.4029 29.0484 15.0409 28.9318 14.7458C28.8028 14.4152 28.5002 14.3353 28.2279 14.3353C28.0474 14.3353 27.7163 14.3806 27.4222 14.5316C27.317 14.589 27.2116 14.6549 27.1081 14.7211L27.1982 14.3581L27.1499 14.2967C26.5227 14.4291 26.3794 14.4467 25.8006 14.5316L25.7562 14.5652C25.686 15.1455 25.6289 15.5815 25.3794 16.7223C25.2844 17.1427 25.1858 17.567 25.0872 17.9864L25.1137 18.0397C25.7085 18.0071 25.8861 18.0071 26.4013 18.0159ZM30.7165 18.0396C30.7534 17.8521 30.9747 16.7411 30.9747 16.7411C30.9747 16.7411 31.1615 15.9259 31.1729 15.8964C31.1729 15.8964 31.2317 15.8115 31.2905 15.7779H31.377C32.1928 15.7779 33.1142 15.7779 33.8363 15.2254C34.3277 14.8465 34.6636 14.287 34.8135 13.6069C34.8523 13.4402 34.881 13.2419 34.881 13.0436C34.881 12.7832 34.8307 12.5255 34.6855 12.3242C34.3172 11.7884 33.5839 11.7785 32.7374 11.7745C32.7348 11.7745 32.3201 11.7785 32.3201 11.7785C31.2366 11.7924 30.802 11.7884 30.6235 11.7656C30.6084 11.8477 30.58 11.9937 30.58 11.9937C30.58 11.9937 30.1918 13.8646 30.1918 13.8676C30.1918 13.8676 29.263 17.8453 29.2193 18.0327C30.1654 18.0209 30.5533 18.0209 30.7165 18.0396ZM31.4357 14.7162C31.4357 14.7162 31.8484 12.8491 31.8465 12.8562L31.8598 12.7604L31.8657 12.6874L32.0306 12.7051C32.0306 12.7051 32.8817 12.7811 32.9016 12.7832C33.2376 12.9183 33.376 13.2667 33.2793 13.7214C33.1912 14.1369 32.932 14.4863 32.599 14.655C32.3247 14.798 31.9888 14.8099 31.6427 14.8099H31.4187L31.4357 14.7162ZM34.0052 16.3256C33.8962 16.8092 33.7708 17.6923 34.5478 18.007C34.7956 18.1167 35.0176 18.1493 35.2433 18.1374C35.4816 18.124 35.7023 17.9997 35.9069 17.8209C35.8884 17.8944 35.8699 17.9679 35.8515 18.0417L35.8867 18.0889C36.4456 18.0644 36.619 18.0644 37.2246 18.0692L37.2795 18.0257C37.3679 17.4851 37.4512 16.9602 37.681 15.926C37.793 15.4306 37.9047 14.9401 38.0196 14.4467L38.0016 14.3924C37.3764 14.5129 37.2093 14.5387 36.6079 14.6273L36.5622 14.666C36.5561 14.7162 36.5498 14.7645 36.544 14.8127C36.4505 14.6556 36.3149 14.5215 36.1058 14.4379C35.8384 14.3285 35.2102 14.4694 34.6703 14.9807C34.2909 15.3458 34.1087 15.8459 34.0052 16.3256ZM35.3183 16.3552C35.4522 15.7593 35.6059 15.2551 36.0043 15.2551C36.2562 15.2551 36.3888 15.4968 36.3618 15.9091C36.3404 16.0119 36.3174 16.1203 36.2899 16.2428C36.2501 16.4199 36.2068 16.5954 36.1648 16.7713C36.1221 16.8915 36.0723 17.0049 36.0176 17.0805C35.9151 17.2315 35.6713 17.3252 35.5309 17.3252C35.491 17.3252 35.2452 17.3252 35.2367 16.9483C35.2348 16.7606 35.2719 16.5674 35.3183 16.3552ZM42.1755 14.3876L42.1271 14.3302C41.5085 14.4606 41.3965 14.4813 40.8281 14.5611L40.7863 14.6046C40.6386 15.1426 40.2517 15.6865 40.0227 16.218C39.9901 15.608 39.9629 14.9977 39.9325 14.3876L39.8784 14.3302C39.2303 14.4606 39.215 14.4813 38.6165 14.5611L38.5699 14.6046C38.5633 14.6253 38.5633 14.648 38.5594 14.6728L38.5633 14.6816C38.6381 15.0792 38.6202 14.9906 38.6952 15.618C38.7302 15.926 38.7768 16.2357 38.8118 16.5398C38.8708 17.0489 38.9039 17.2995 38.976 18.0762C38.3922 19.0782 37.9884 20.1698 37.1591 20.999L37.9332 21.0129C38.3877 21.0109 38.6734 20.7898 38.8271 20.4928C39.9778 18.4777 41.0404 16.4126 42.1755 14.3876Z" fill="#FEFEFE"/>
</svg>
