<svg width="24" height="24" viewBox="0 0 24 24" fill="none" xmlns="http://www.w3.org/2000/svg">
<path d="M23.5 12C23.5 18.3513 18.3513 23.5 12 23.5C5.64873 23.5 0.5 18.3513 0.5 12C0.5 5.64873 5.64873 0.5 12 0.5C18.3513 0.5 23.5 5.64873 23.5 12Z" stroke="#2979FF"/>
<path fill-rule="evenodd" clip-rule="evenodd" d="M12.6496 7.65098C12.6496 7.29199 12.3586 7.00098 11.9996 7.00098C11.6406 7.00098 11.3496 7.29199 11.3496 7.65098V11.3489H7.65C7.29101 11.3489 7 11.6399 7 11.9989C7 12.3579 7.29101 12.6489 7.65 12.6489H11.3496V16.3494C11.3496 16.7084 11.6406 16.9994 11.9996 16.9994C12.3586 16.9994 12.6496 16.7084 12.6496 16.3494V12.6489H16.3507C16.7096 12.6489 17.0007 12.3579 17.0007 11.9989C17.0007 11.6399 16.7096 11.3489 16.3507 11.3489H12.6496V7.65098Z" fill="#2979FF"/>
</svg>
