<svg width="24" height="24" viewBox="0 0 24 24" fill="none" xmlns="http://www.w3.org/2000/svg">
<path fill-rule="evenodd" clip-rule="evenodd" d="M12 2.77778C9.61837 2.77778 7.71429 4.73989 7.71429 7.12656V9H6V7.12656C6 3.72786 8.70098 1 12 1C15.299 1 18 3.72786 18 7.12656L18 9L16.2857 9L16.2857 7.12656C16.2857 4.73989 14.3816 2.77778 12 2.77778ZM18 9C19.6569 9 21 10.3431 21 12V20C21 21.6569 19.6569 23 18 23H6C4.34315 23 3 21.6569 3 20V12C3 10.3431 4.34315 9 6 9H18ZM6 10.3C5.06112 10.3 4.3 11.0611 4.3 12V20C4.3 20.9389 5.06112 21.7 6 21.7H18C18.9389 21.7 19.7 20.9389 19.7 20V12C19.7 11.0611 18.9389 10.3 18 10.3H6ZM16.2071 14.2071C16.5976 13.8166 16.5976 13.1834 16.2071 12.7929C15.8166 12.4024 15.1834 12.4024 14.7929 12.7929L11 16.5858L9.70711 15.2929C9.31658 14.9024 8.68342 14.9024 8.29289 15.2929C7.90237 15.6834 7.90237 16.3166 8.29289 16.7071L10.2929 18.7071L11 19.4142L11.7071 18.7071L16.2071 14.2071Z" fill="white" fill-opacity="0.87"/>
</svg>
