<svg width="24" height="24" viewBox="0 0 24 24" fill="none" xmlns="http://www.w3.org/2000/svg">
<path d="M9.35 10.7016C8.99101 10.7016 8.7 10.9926 8.7 11.3516V18.3441C8.7 18.7031 8.99101 18.9941 9.35 18.9941C9.70898 18.9941 10 18.7031 10 18.3441V11.3516C10 10.9926 9.70898 10.7016 9.35 10.7016Z" fill="black" fill-opacity="0.54"/>
<path d="M14.0023 11.3516C14.0023 10.9926 14.2933 10.7016 14.6523 10.7016C15.0113 10.7016 15.3023 10.9926 15.3023 11.3516V18.3441C15.3023 18.7031 15.0113 18.9941 14.6523 18.9941C14.2933 18.9941 14.0023 18.7031 14.0023 18.3441V11.3516Z" fill="black" fill-opacity="0.54"/>
<path fill-rule="evenodd" clip-rule="evenodd" d="M8.67812 4.65C8.67812 3.18645 9.86457 2 11.3281 2H12.6613C14.1249 2 15.3113 3.18645 15.3113 4.65V4.69099H18C19.1047 4.69099 20.0002 5.58662 20 6.69132L19.9996 8.99605H18.6668V19.9997C18.6668 21.1042 17.7714 21.9997 16.6668 21.9997H7.33349C6.22892 21.9997 5.3335 21.1042 5.3335 19.9997V8.99605H4L4.00038 6.69066C4.00056 5.58622 4.89593 4.69099 6.00038 4.69099H8.67812V4.65ZM18.6668 7.69531H5.3335L5.30021 7.69604L5.30038 6.69088C5.30044 6.30432 5.61382 5.99099 6.00038 5.99099H18C18.3866 5.99099 18.7 6.30446 18.7 6.69111L18.6998 7.69604L18.6668 7.69531ZM6.6335 8.99605V19.9997C6.6335 20.3863 6.9469 20.6997 7.33349 20.6997H16.6668C17.0534 20.6997 17.3668 20.3863 17.3668 19.9997V8.99605H6.6335ZM14.0113 4.65V4.69099H9.97813V4.65C9.97813 3.90442 10.5825 3.3 11.3281 3.3H12.6613C13.4069 3.3 14.0113 3.90442 14.0113 4.65Z" fill="black" fill-opacity="0.54"/>
</svg>
