<svg width="52" height="32" viewBox="0 0 52 32" fill="none" xmlns="http://www.w3.org/2000/svg">
<path d="M49 0H3C1.34315 0 0 1.34315 0 3V29C0 30.6569 1.34315 32 3 32H49C50.6569 32 52 30.6569 52 29V3C52 1.34315 50.6569 0 49 0Z" fill="white"/>
<path d="M28.8579 28.9413C35.8952 28.9753 42.3183 23.1459 42.3183 16.0543C42.3183 8.29923 35.8952 2.93883 28.8579 2.94141H22.8016C15.68 2.93883 9.81836 8.30083 9.81836 16.0543C9.81836 23.1475 15.68 28.9753 22.8016 28.9413H28.8579Z" fill="#0079BE"/>
<path d="M22.8202 4.01709C16.3176 4.01917 11.0484 9.38966 11.0469 16.0179C11.0484 22.645 16.3176 28.015 22.8202 28.0171C29.3243 28.015 34.5947 22.645 34.5956 16.0179C34.5946 9.38966 29.3243 4.01917 22.8202 4.01709ZM15.3574 16.0179C15.3635 12.779 17.3488 10.017 20.1483 8.91945V23.1147C17.3488 22.0178 15.3635 19.2573 15.3574 16.0179ZM25.4911 23.1178V8.91899C28.2916 10.0139 30.28 12.7774 30.2851 16.0179C30.28 19.2594 28.2916 22.0209 25.4911 23.1178Z" fill="white"/>
</svg>
