<svg width="177" height="52" viewBox="0 0 177 52" fill="none" xmlns="http://www.w3.org/2000/svg">
<rect width="177" height="52" rx="6" fill="white" fill-opacity="0.78"/>
<rect x="0.5" y="0.5" width="176" height="51" rx="5.5" stroke="black" stroke-opacity="0.4"/>
<path d="M44.4122 25.0271C44.4263 23.944 44.7171 22.8821 45.2577 21.9401C45.7982 20.9981 46.5708 20.2066 47.5037 19.6393C46.9111 18.8021 46.1293 18.1132 45.2204 17.6271C44.3115 17.1411 43.3005 16.8714 42.2678 16.8394C40.0649 16.6107 37.9292 18.1434 36.8066 18.1434C35.6624 18.1434 33.9339 16.8621 32.0726 16.9001C30.8688 16.9386 29.6955 17.2848 28.6672 17.9052C27.6389 18.5255 26.7905 19.3988 26.2048 20.4398C23.6676 24.7848 25.5602 31.1704 27.9905 34.6827C29.2064 36.4024 30.6275 38.3235 32.4871 38.2554C34.3067 38.1807 34.9864 37.1076 37.1828 37.1076C39.3589 37.1076 39.9965 38.2554 41.8938 38.2121C43.8464 38.1807 45.0766 36.4847 46.2499 34.7485C47.1235 33.5231 47.7958 32.1687 48.2418 30.7355C47.1075 30.2609 46.1394 29.4666 45.4584 28.4515C44.7774 27.4363 44.4135 26.2454 44.4122 25.0271V25.0271ZM40.8286 14.5297C41.8933 13.2655 42.4178 11.6406 42.2908 10C40.6643 10.169 39.1619 10.938 38.0829 12.1536C37.5553 12.7475 37.1512 13.4384 36.8938 14.1869C36.6363 14.9353 36.5305 15.7266 36.5824 16.5155C37.396 16.5238 38.2008 16.3493 38.9364 16.0053C39.6719 15.6613 40.319 15.1567 40.8288 14.5295L40.8286 14.5297ZM66.2433 34.0743H60.2719L58.8379 38.2626H56.3085L61.9646 22.7669H64.5924L70.2484 38.2626H67.6761L66.2433 34.0743ZM60.8903 32.1416H65.6236L63.2903 25.3443H63.2249L60.8903 32.1416ZM82.4634 32.6145C82.4634 36.1252 80.5637 38.3808 77.697 38.3808C76.9708 38.4183 76.2485 38.2529 75.613 37.9033C74.9774 37.5537 74.4542 37.0342 74.1033 36.4042H74.0491V42H71.7045V26.965H73.9739V28.8441H74.017C74.3841 28.2171 74.9161 27.7003 75.5565 27.3486C76.1969 26.9969 76.9217 26.8235 77.6538 26.8468C80.5526 26.8468 82.4634 29.1134 82.4634 32.6144V32.6145ZM80.0536 32.6145C80.0536 30.3272 78.8587 28.8234 77.0354 28.8234C75.244 28.8234 74.0392 30.3588 74.0392 32.6144C74.0392 34.8908 75.244 36.4153 77.0354 36.4153C78.8587 36.4153 80.0536 34.9225 80.0536 32.6144V32.6145ZM95.0351 32.6145C95.0351 36.1252 93.1348 38.3808 90.268 38.3808C89.5418 38.4183 88.8195 38.2529 88.184 37.9033C87.5484 37.5537 87.0253 37.0342 86.6743 36.4042H86.6201V42H84.2756V26.965H86.5449V28.8441H86.5881C86.9551 28.2171 87.4871 27.7003 88.1275 27.3486C88.7679 26.9969 89.4927 26.8235 90.2248 26.8468C93.1237 26.8468 95.0351 29.1134 95.0351 32.6144V32.6145ZM92.6248 32.6145C92.6248 30.3272 91.4297 28.8234 89.6064 28.8234C87.815 28.8234 86.6103 30.3588 86.6103 32.6144C86.6103 34.8908 87.815 36.4153 89.6064 36.4153C91.4297 36.4153 92.6248 34.9225 92.6248 32.6144V32.6145ZM103.342 33.9452C103.516 35.4818 105.025 36.4908 107.087 36.4908C109.064 36.4908 110.485 35.4818 110.485 34.0962C110.485 32.8934 109.628 32.1733 107.598 31.6797L105.567 31.1959C102.691 30.5086 101.355 29.1779 101.355 27.0186C101.355 24.3449 103.711 22.5086 107.054 22.5086C110.366 22.5086 112.635 24.3449 112.712 27.0186H110.345C110.203 25.4722 108.911 24.5387 107.022 24.5387C105.134 24.5387 103.841 25.4832 103.841 26.8577C103.841 27.9533 104.667 28.5979 106.686 29.0913L108.412 29.5106C111.626 30.2624 112.96 31.5396 112.96 33.8061C112.96 36.7052 110.627 38.5209 106.914 38.5209C103.439 38.5209 101.094 36.7477 100.942 33.9451L103.342 33.9452ZM118.023 24.2915V26.965H120.195V28.8015H118.023V35.0297C118.023 35.9973 118.457 36.4481 119.412 36.4481C119.67 36.4437 119.927 36.4257 120.183 36.3945V38.22C119.754 38.2993 119.318 38.3352 118.881 38.3271C116.569 38.3271 115.667 37.4681 115.667 35.277V28.8015H114.006V26.965H115.667V24.2915H118.023ZM121.451 32.6145C121.451 29.0598 123.568 26.8261 126.868 26.8261C130.18 26.8261 132.286 29.0598 132.286 32.6145C132.286 36.1788 130.191 38.4027 126.868 38.4027C123.547 38.4027 121.451 36.1788 121.451 32.6145ZM129.898 32.6145C129.898 30.1761 128.768 28.7368 126.868 28.7368C124.968 28.7368 123.839 30.1869 123.839 32.6145C123.839 35.0626 124.968 36.4908 126.868 36.4908C128.768 36.4908 129.898 35.0626 129.898 32.6145ZM134.219 26.965H136.455V28.8879H136.51C136.661 28.2874 137.017 27.7566 137.517 27.3849C138.017 27.0132 138.632 26.8232 139.257 26.8468C139.527 26.8459 139.797 26.8749 140.06 26.9333V29.1024C139.719 28.9994 139.363 28.952 139.007 28.9623C138.666 28.9486 138.327 29.008 138.011 29.1364C137.696 29.2648 137.413 29.4591 137.181 29.7061C136.949 29.953 136.773 30.2467 136.667 30.567C136.56 30.8873 136.525 31.2266 136.564 31.5616V38.2626H134.219V26.965ZM150.869 34.9443C150.554 36.9953 148.535 38.4027 145.951 38.4027C142.629 38.4027 140.566 36.2008 140.566 32.668C140.566 29.1244 142.64 26.8261 145.853 26.8261C149.013 26.8261 151 28.9733 151 32.3987V33.1932H142.933V33.3334C142.896 33.7492 142.948 34.168 143.087 34.5622C143.226 34.9563 143.449 35.3167 143.739 35.6193C144.03 35.922 144.382 36.16 144.773 36.3177C145.164 36.4753 145.584 36.5488 146.006 36.5335C146.56 36.5848 147.116 36.4579 147.591 36.1716C148.066 35.8852 148.435 35.4548 148.643 34.9443H150.869ZM142.944 31.5725H148.654C148.675 31.1987 148.618 30.8246 148.486 30.4737C148.354 30.1227 148.15 29.8026 147.887 29.5334C147.624 29.2641 147.308 29.0516 146.957 28.909C146.607 28.7665 146.231 28.6971 145.853 28.7051C145.471 28.7029 145.093 28.7754 144.739 28.9186C144.386 29.0618 144.065 29.2728 143.795 29.5393C143.524 29.8059 143.31 30.1229 143.164 30.4718C143.018 30.8208 142.943 31.1949 142.944 31.5725V31.5725ZM60.5971 11.1032C61.0886 11.0683 61.5819 11.1418 62.0412 11.3183C62.5006 11.4947 62.9146 11.7699 63.2534 12.1238C63.5923 12.4777 63.8475 12.9016 64.0006 13.3649C64.1537 13.8282 64.201 14.3194 64.139 14.8029C64.139 17.1816 62.8393 18.549 60.5971 18.549H57.8781V11.1031L60.5971 11.1032ZM59.0473 17.4959H60.4666C60.8178 17.5167 61.1692 17.4597 61.4954 17.3291C61.8215 17.1986 62.1141 16.9977 62.3519 16.7412C62.5897 16.4847 62.7667 16.179 62.8699 15.8463C62.9732 15.5136 63.0002 15.1623 62.9489 14.818C62.9965 14.4751 62.9668 14.126 62.8619 13.7957C62.7571 13.4655 62.5797 13.1623 62.3424 12.9078C62.1052 12.6533 61.814 12.4539 61.4897 12.3238C61.1654 12.1937 60.816 12.1362 60.4666 12.1554H59.0473V17.4959ZM65.4597 15.7369C65.424 15.3677 65.4667 14.9951 65.5851 14.6431C65.7035 14.2912 65.8949 13.9675 66.1471 13.693C66.3994 13.4185 66.7068 13.1992 67.0498 13.0491C67.3927 12.899 67.7636 12.8215 68.1386 12.8215C68.5136 12.8215 68.8845 12.899 69.2275 13.0491C69.5704 13.1992 69.8779 13.4185 70.1301 13.693C70.3823 13.9675 70.5738 14.2912 70.6922 14.6431C70.8105 14.9951 70.8532 15.3677 70.8175 15.7369C70.854 16.1066 70.8119 16.4798 70.6939 16.8324C70.5759 17.1851 70.3845 17.5094 70.1322 17.7845C69.8799 18.0596 69.5722 18.2795 69.2289 18.4299C68.8855 18.5804 68.5142 18.6581 68.1386 18.6581C67.7631 18.6581 67.3917 18.5804 67.0484 18.4299C66.705 18.2795 66.3973 18.0596 66.145 17.7845C65.8927 17.5094 65.7014 17.1851 65.5834 16.8324C65.4654 16.4798 65.4232 16.1066 65.4597 15.7369ZM69.6645 15.7369C69.6645 14.5189 69.1113 13.8067 68.1405 13.8067C67.166 13.8067 66.6178 14.5189 66.6178 15.7369C66.6178 16.9647 67.1661 17.6715 68.1405 17.6715C69.1113 17.6715 69.6645 16.9598 69.6645 15.7369V15.7369ZM77.9397 18.5488H76.7765L75.6025 14.4105H75.5139L74.3448 18.5488H73.1929L71.627 12.9298H72.7641L73.7818 17.2174H73.8655L75.0335 12.9298H76.1089L77.2769 17.2174H77.3655L78.3782 12.9298H79.4993L77.9397 18.5488ZM80.8162 12.9299H81.8955V13.8225H81.9793C82.1214 13.5019 82.3611 13.2331 82.665 13.0537C82.9688 12.8742 83.3218 12.793 83.6745 12.8214C83.9509 12.8008 84.2285 12.842 84.4866 12.942C84.7447 13.0419 84.9767 13.1981 85.1656 13.3988C85.3544 13.5995 85.4952 13.8396 85.5774 14.1014C85.6597 14.3633 85.6813 14.64 85.6408 14.9113V18.5487H84.5196V15.1898C84.5196 14.2868 84.1229 13.8377 83.2938 13.8377C83.1061 13.8291 82.9188 13.8607 82.7446 13.9304C82.5705 14 82.4136 14.1061 82.2848 14.2414C82.156 14.3766 82.0582 14.5378 81.9982 14.7139C81.9383 14.89 81.9175 15.0769 81.9374 15.2616V18.5488H80.8162V12.9299ZM87.4271 10.7364H88.5481V18.5488H87.4271V10.7364ZM90.1066 15.7369C90.0709 15.3676 90.1136 14.995 90.232 14.643C90.3504 14.291 90.5419 13.9673 90.7941 13.6928C91.0464 13.4182 91.3539 13.1989 91.6969 13.0487C92.0399 12.8986 92.4108 12.8211 92.7859 12.8211C93.161 12.8211 93.5319 12.8986 93.8749 13.0487C94.2179 13.1989 94.5254 13.4182 94.7776 13.6928C95.0299 13.9673 95.2214 14.291 95.3398 14.643C95.4582 14.995 95.5009 15.3676 95.4651 15.7369C95.5015 16.1066 95.4592 16.4796 95.3411 16.8322C95.2229 17.1847 95.0316 17.5088 94.7792 17.7839C94.5269 18.0589 94.2192 18.2786 93.8759 18.429C93.5326 18.5794 93.1613 18.6571 92.7859 18.6571C92.4104 18.6571 92.0391 18.5794 91.6958 18.429C91.3525 18.2786 91.0449 18.0589 90.7925 17.7839C90.5402 17.5088 90.3488 17.1847 90.2307 16.8322C90.1126 16.4796 90.0703 16.1066 90.1066 15.7369V15.7369ZM94.3113 15.7369C94.3113 14.5189 93.7582 13.8067 92.7874 13.8067C91.8129 13.8067 91.2647 14.5189 91.2647 15.7369C91.2647 16.9647 91.813 17.6715 92.7874 17.6715C93.7582 17.6715 94.3113 16.9598 94.3113 15.7369ZM96.6453 16.9598C96.6453 15.9483 97.4067 15.3652 98.7582 15.2824L100.297 15.1946V14.7096C100.297 14.1161 99.9002 13.7811 99.134 13.7811C98.5081 13.7811 98.0744 14.0083 97.95 14.4056H96.8646C96.9791 13.4404 97.897 12.8215 99.1857 12.8215C100.61 12.8215 101.413 13.5228 101.413 14.7096V18.5488H100.334V17.7592H100.245C100.065 18.0424 99.8123 18.2733 99.5125 18.4283C99.2128 18.5833 98.8768 18.6569 98.5389 18.6414C98.3004 18.666 98.0594 18.6408 97.8314 18.5675C97.6033 18.4943 97.3933 18.3746 97.2149 18.2162C97.0365 18.0577 96.8937 17.8641 96.7956 17.6477C96.6975 17.4313 96.6463 17.197 96.6453 16.9598V16.9598ZM100.297 16.4797V16.0099L98.9097 16.0976C98.1274 16.1494 97.7725 16.4127 97.7725 16.9079C97.7725 17.4137 98.2161 17.708 98.8259 17.708C99.0046 17.7259 99.1851 17.7081 99.3567 17.6556C99.5283 17.603 99.6874 17.5169 99.8247 17.4023C99.9619 17.2877 100.074 17.147 100.156 16.9885C100.237 16.8299 100.285 16.6569 100.297 16.4797V16.4797ZM102.887 15.7369C102.887 13.9614 103.809 12.8367 105.244 12.8367C105.6 12.8205 105.952 12.9046 106.26 13.0792C106.569 13.2538 106.821 13.5116 106.987 13.8225H107.07V10.7362H108.191V18.5487H107.117V17.6609H107.028C106.85 17.9697 106.589 18.2243 106.275 18.3971C105.96 18.57 105.604 18.6544 105.245 18.6413C103.799 18.6413 102.887 17.5165 102.887 15.7368V15.7369ZM104.045 15.7369C104.045 16.9286 104.613 17.6459 105.562 17.6459C106.507 17.6459 107.091 16.9184 107.091 15.7417C107.091 14.5707 106.501 13.8329 105.562 13.8329C104.619 13.8329 104.045 14.5549 104.045 15.7369ZM112.83 15.7369C112.794 15.3677 112.837 14.9951 112.955 14.6431C113.073 14.2912 113.265 13.9675 113.517 13.693C113.769 13.4185 114.077 13.1992 114.42 13.0491C114.763 12.899 115.134 12.8215 115.509 12.8215C115.884 12.8215 116.255 12.899 116.597 13.0491C116.94 13.1992 117.248 13.4185 117.5 13.693C117.752 13.9675 117.944 14.2912 118.062 14.6431C118.181 14.9951 118.223 15.3677 118.188 15.7369C118.224 16.1066 118.182 16.4798 118.064 16.8324C117.946 17.1851 117.755 17.5094 117.502 17.7845C117.25 18.0596 116.942 18.2795 116.599 18.4299C116.256 18.5804 115.884 18.6581 115.509 18.6581C115.133 18.6581 114.762 18.5804 114.418 18.4299C114.075 18.2795 113.767 18.0596 113.515 17.7845C113.263 17.5094 113.071 17.1851 112.953 16.8324C112.835 16.4798 112.793 16.1066 112.83 15.7369V15.7369ZM117.034 15.7369C117.034 14.5189 116.481 13.8067 115.511 13.8067C114.536 13.8067 113.988 14.5189 113.988 15.7369C113.988 16.9647 114.536 17.6715 115.511 17.6715C116.481 17.6715 117.034 16.9598 117.034 15.7369ZM119.692 12.9299H120.771V13.8225H120.855C120.997 13.5019 121.237 13.2331 121.541 13.0537C121.844 12.8742 122.197 12.793 122.55 12.8214C122.826 12.8008 123.104 12.842 123.362 12.942C123.62 13.0419 123.852 13.1981 124.041 13.3988C124.23 13.5995 124.371 13.8396 124.453 14.1014C124.535 14.3633 124.557 14.64 124.516 14.9113V18.5487H123.395V15.1898C123.395 14.2868 122.998 13.8377 122.169 13.8377C121.982 13.8291 121.794 13.8607 121.62 13.9304C121.446 14 121.289 14.1061 121.16 14.2414C121.032 14.3766 120.934 14.5378 120.874 14.7139C120.814 14.89 120.793 15.0769 120.813 15.2616V18.5488H119.692L119.692 12.9299ZM130.851 11.531V12.9555H132.082V13.8895H130.851V16.7788C130.851 17.3674 131.096 17.6252 131.654 17.6252C131.797 17.6247 131.94 17.6161 132.082 17.5995V18.5233C131.88 18.5589 131.676 18.5778 131.472 18.5799C130.225 18.5799 129.729 18.146 129.729 17.0628V13.8895H128.827V12.9554H129.729V11.5311L130.851 11.531ZM133.613 10.7364H134.724V13.8329H134.813C134.962 13.5093 135.208 13.239 135.518 13.0588C135.828 12.8787 136.187 12.7975 136.545 12.8262C136.82 12.8114 137.095 12.8568 137.35 12.9592C137.606 13.0616 137.835 13.2184 138.022 13.4185C138.208 13.6186 138.348 13.857 138.431 14.1168C138.514 14.3765 138.538 14.6511 138.502 14.9211V18.5488H137.379V15.1946C137.379 14.2971 136.957 13.8426 136.165 13.8426C135.972 13.827 135.778 13.8532 135.597 13.9194C135.415 13.9856 135.251 14.0902 135.115 14.2259C134.978 14.3616 134.874 14.5251 134.808 14.7049C134.742 14.8848 134.717 15.0767 134.734 15.2671V18.5488H133.613V10.7364ZM145.039 17.0316C144.886 17.5451 144.556 17.9894 144.106 18.2866C143.656 18.5838 143.115 18.715 142.577 18.6573C142.203 18.667 141.831 18.5961 141.487 18.4495C141.143 18.3028 140.836 18.0839 140.586 17.808C140.337 17.5321 140.151 17.2057 140.041 16.8515C139.932 16.4973 139.902 16.1239 139.953 15.757C139.903 15.3891 139.934 15.0148 140.043 14.6595C140.152 14.3043 140.337 13.9764 140.585 13.698C140.834 13.4196 141.14 13.1973 141.482 13.0461C141.825 12.8948 142.197 12.8182 142.572 12.8214C144.153 12.8214 145.106 13.8895 145.106 15.654V16.0409H141.095V16.1031C141.077 16.3093 141.104 16.5168 141.172 16.7124C141.24 16.908 141.349 17.0873 141.491 17.2389C141.634 17.3904 141.807 17.5109 141.999 17.5925C142.191 17.6741 142.399 17.7151 142.608 17.7128C142.876 17.7446 143.148 17.6969 143.388 17.5756C143.629 17.4543 143.828 17.2649 143.959 17.0316H145.039ZM141.095 15.2208H143.964C143.978 15.0323 143.952 14.8428 143.888 14.6648C143.824 14.4867 143.723 14.3239 143.591 14.1868C143.459 14.0497 143.3 13.9414 143.124 13.8688C142.947 13.7962 142.757 13.7609 142.566 13.7652C142.372 13.7628 142.18 13.7988 142 13.8711C141.82 13.9434 141.657 14.0506 141.52 14.1862C141.383 14.3219 141.275 14.4833 141.202 14.661C141.129 14.8387 141.092 15.029 141.095 15.2208V15.2208Z" fill="black" fill-opacity="0.78"/>
</svg>
