<svg width="177" height="52" viewBox="0 0 177 52" fill="none" xmlns="http://www.w3.org/2000/svg">
<rect width="177" height="52" rx="6" fill="white" fill-opacity="1"/>
<rect x="0.5" y="0.5" width="176" height="51" rx="5.5" stroke="black" stroke-opacity="0.4"/>
<path d="M64.4475 16.5335C64.7301 16.2492 64.9062 15.8601 64.9701 15.3515H62.5213V14.3097H66.0132L66.0299 14.4026C66.063 14.5864 66.0789 14.7632 66.0789 14.9352C66.0797 15.9034 65.79 16.6939 65.2061 17.2794C64.5477 17.972 63.6801 18.32 62.6342 18.3191C61.6299 18.32 60.7633 17.9668 60.0607 17.2675C59.3547 16.5688 58.999 15.6904 59 14.6598C58.999 13.6286 59.3547 12.7508 60.0603 12.0524C60.7633 11.3527 61.6299 10.9991 62.6342 11C63.1343 11 63.6148 11.0981 64.0702 11.294C64.5247 11.4893 64.8945 11.7524 65.1721 12.0838L65.2387 12.163L64.4829 12.921L64.4034 12.8264C63.975 12.3159 63.3981 12.0631 62.6342 12.0612C61.9472 12.0622 61.3643 12.2991 60.8617 12.783C60.3639 13.2653 60.1163 13.881 60.115 14.6598C60.1163 15.4386 60.3639 16.0542 60.8617 16.5365C61.3643 17.0204 61.9472 17.2574 62.6342 17.2583C63.3663 17.2569 63.9621 17.0178 64.4475 16.5335Z" fill="black" fill-opacity="1"/>
<path d="M71.286 11.1521V12.2124H68.1992V14.1387H70.9829V15.1808H68.1992V17.1071H71.286V18.1674H67.1031V11.1521H71.286Z" fill="black" fill-opacity="1"/>
<path d="M74.9588 12.2124V18.1674H73.8613V12.2124H71.9682V11.1521H76.8519V12.2124H74.9588Z" fill="black" fill-opacity="1"/>
<path d="M81.0926 18.1674H79.996V11.1521H81.0926V18.1674Z" fill="black" fill-opacity="1"/>
<path d="M84.956 12.2124H86.8491V11.1521H81.9655V12.2124H83.8585V18.1674H84.956V12.2124Z" fill="black" fill-opacity="1"/>
<path fill-rule="evenodd" clip-rule="evenodd" d="M96.665 14.6598C96.6658 15.6772 96.3194 16.5511 95.6346 17.2555C94.9492 17.9632 94.0843 18.32 93.0681 18.3191C92.0514 18.32 91.1865 17.9632 90.5025 17.2555C89.8163 16.5506 89.4712 15.6772 89.4721 14.6598C89.4712 13.6423 89.8163 12.7685 90.5025 12.0635C91.1865 11.3558 92.0514 10.9988 93.0681 11C94.0795 10.9988 94.9418 11.358 95.6301 12.0684C96.3181 12.776 96.6658 13.6481 96.665 14.6598ZM91.3069 16.529C91.7905 17.0174 92.3682 17.2569 93.0681 17.2582C93.7675 17.2569 94.3464 17.0174 94.8288 16.529C95.3089 16.0406 95.5485 15.4261 95.5494 14.6598C95.5485 13.8934 95.3089 13.279 94.8288 12.7905C94.3464 12.3022 93.7675 12.0626 93.0681 12.0613C92.3682 12.0626 91.7905 12.3022 91.3069 12.7905C90.8277 13.279 90.5881 13.8934 90.5872 14.6598C90.5881 15.4262 90.8277 16.0406 91.3069 16.529Z" fill="black" fill-opacity="1"/>
<path d="M98.8343 11.2652H97.7743V18.0543L98.6445 18.0542V13.8257L98.607 12.5169H98.6445L102.091 18.0542H103V11.2652H102.128V15.2383L102.166 16.5466H102.128L98.8343 11.2652Z" fill="black" fill-opacity="1"/>
<path d="M136.33 37.5002H134.173L134.173 23.7001H136.33V37.5002Z" fill="black" fill-opacity="1"/>
<path d="M153.601 28.6712L151.129 34.6542H151.055L148.488 28.6712H146.165L150.013 37.0336L147.819 41.6851H150.07L156 28.6712L153.601 28.6712Z" fill="black" fill-opacity="1"/>
<path fill-rule="evenodd" clip-rule="evenodd" d="M137.781 30.4823C138.45 29.0264 140.067 28.3693 141.629 28.3693C144.101 28.3693 146.016 29.7367 146.016 32.1863V37.4774H143.934V36.4123H143.86C143.357 37.1401 142.558 37.7615 141.107 37.7615C139.212 37.7615 137.519 36.5719 137.519 34.7253C137.519 32.7012 139.621 31.6185 141.684 31.6185C142.707 31.6185 143.543 31.938 143.934 32.1511V32.0092C143.915 30.8729 142.781 30.2334 141.666 30.2334C140.866 30.2334 140.104 30.4823 139.695 31.2455L137.781 30.4823ZM139.676 34.7608C139.676 35.5955 140.661 35.9328 141.369 35.9328C142.614 35.9328 143.766 35.0272 143.934 33.7492C143.357 33.4826 142.912 33.2873 141.963 33.2873C140.904 33.2873 139.676 33.6956 139.676 34.7608Z" fill="black" fill-opacity="1"/>
<path fill-rule="evenodd" clip-rule="evenodd" d="M128.243 23.7001H123.074V37.5002H125.23V32.2718H128.243C130.633 32.2718 132.983 30.6189 132.983 27.9859C132.983 25.3529 130.633 23.7001 128.243 23.7001ZM128.298 30.3511H125.23V25.6208H128.298C129.911 25.6208 130.826 26.8958 130.826 27.9859C130.826 29.0553 129.911 30.3511 128.298 30.3511Z" fill="black" fill-opacity="1"/>
<path fill-rule="evenodd" clip-rule="evenodd" d="M102.461 29.4439H102.535V28.6793H104.584V37.1091C104.584 40.5769 102.442 42 99.9094 42C97.5256 42 96.0916 40.4704 95.5515 39.2255L97.4321 38.4786C97.7677 39.2432 98.5872 40.1505 99.9094 40.1505C101.53 40.1505 102.535 39.1902 102.535 37.3937V36.718H102.461C101.977 37.2867 101.045 37.7848 99.872 37.7848C97.4136 37.7848 95.1604 35.7396 95.1604 33.1074C95.1604 30.4576 97.4137 28.3948 99.872 28.3948C101.045 28.3948 101.977 28.8927 102.461 29.4439ZM97.3206 33.1074C97.3206 34.7439 98.5683 35.9353 100.058 35.9353C101.53 35.9353 102.684 34.7439 102.684 33.1074C102.684 31.4538 101.53 30.2442 100.058 30.2442C98.5683 30.2442 97.3206 31.4538 97.3206 33.1074Z" fill="black" fill-opacity="1"/>
<path d="M106.074 37.5002H108.234V23.6996H106.074V37.5002Z" fill="black" fill-opacity="1"/>
<path fill-rule="evenodd" clip-rule="evenodd" d="M113.914 28.3948C116.465 28.3948 117.714 30.333 118.123 31.3826L118.346 31.916L111.772 34.5127C112.275 35.455 113.057 35.9353 114.156 35.9353C115.255 35.9353 116.019 35.4196 116.577 34.6369L118.254 35.7041C117.714 36.4687 116.41 37.7848 114.156 37.7848C111.363 37.7848 109.277 35.7219 109.277 33.0898C109.277 30.2976 111.381 28.3948 113.914 28.3948ZM113.989 30.2088C112.89 30.2088 111.363 31.1333 111.419 32.9475L115.813 31.205C115.572 30.6176 114.846 30.2088 113.989 30.2088Z" fill="black" fill-opacity="1"/>
<path d="M65.7474 29.8354V31.8271H70.7384C70.5894 32.9475 70.1983 33.7655 69.6023 34.3346C68.8762 35.0285 67.7401 35.793 65.7474 35.793C62.6745 35.793 60.2722 33.4278 60.2722 30.4934C60.2722 27.559 62.6745 25.1934 65.7474 25.1934C67.405 25.1934 68.6152 25.816 69.5092 26.6163L70.9805 25.2115C69.7328 24.0731 68.0751 23.2017 65.7474 23.2017C61.5384 23.2017 58 26.4741 58 30.4934C58 34.5127 61.5384 37.7848 65.7474 37.7848C68.0196 37.7848 69.7328 37.0738 71.0735 35.7396C72.4517 34.4235 72.8802 32.5741 72.8802 31.0803C72.8802 30.6176 72.8431 30.1911 72.7682 29.8354H65.7474Z" fill="black" fill-opacity="1"/>
<path fill-rule="evenodd" clip-rule="evenodd" d="M73.6189 33.0898C73.6189 30.3687 75.8351 28.3948 78.5545 28.3948C81.2732 28.3948 83.4895 30.3687 83.4895 33.0898C83.4895 35.793 81.2732 37.7848 78.5545 37.7848C75.8351 37.7848 73.6189 35.793 73.6189 33.0898ZM75.7792 33.0898C75.7792 34.7615 77.0643 35.9353 78.5545 35.9353C80.0441 35.9353 81.3292 34.7616 81.3292 33.0898C81.3292 31.4002 80.0441 30.2442 78.5545 30.2442C77.0643 30.2442 75.7792 31.4002 75.7792 33.0898Z" fill="black" fill-opacity="1"/>
<path fill-rule="evenodd" clip-rule="evenodd" d="M89.3203 28.3948C86.6012 28.3948 84.3854 30.3687 84.3854 33.0898C84.3854 35.793 86.6012 37.7848 89.3204 37.7848C92.0393 37.7848 94.2556 35.793 94.2556 33.0898C94.2556 30.3687 92.0392 28.3948 89.3203 28.3948ZM89.3203 35.9353C87.8308 35.9353 86.5455 34.7615 86.5455 33.0898C86.5455 31.4002 87.8308 30.2442 89.3204 30.2442C90.8101 30.2442 92.0952 31.4002 92.0952 33.0898C92.0952 34.7616 90.81 35.9353 89.3203 35.9353Z" fill="black" fill-opacity="1"/>
<path d="M37.5024 25.9444L23.6038 11.6895C24.1725 11.4036 24.8769 11.3829 25.5058 11.7488L42.1355 21.4243L37.5024 25.9444Z" fill="black" fill-opacity="1"/>
<path d="M37.0729 26.3634L23.1077 12.0401C22.7387 12.3948 22.5 12.8947 22.5 13.4775V38.9676C22.5 39.4377 22.6551 39.8534 22.9083 40.1826L37.0729 26.3634Z" fill="black" fill-opacity="1"/>
<path d="M42.6737 21.7374L37.9212 26.374L42.1492 30.7104L48.2585 27.0449C49.0414 26.5751 49.0338 25.4378 48.2446 24.9787L42.6737 21.7374Z" fill="black" fill-opacity="1"/>
<path d="M37.4918 26.793L41.6205 31.0277L25.529 40.6826C24.7953 41.1228 23.9518 41.0299 23.3415 40.5981L37.4918 26.793Z" fill="black" fill-opacity="1"/>
</svg>
