<svg width="20" height="20" viewBox="0 0 20 20" fill="none" xmlns="http://www.w3.org/2000/svg">
<path d="M3.91667 3H8.90851C9.60534 3 10.0387 3.63559 9.87619 4.41798L7.55213 15.5842C7.38808 16.3639 6.69045 17 5.99312 17H1.00176C0.305914 17 -0.128457 16.3639 0.0341008 15.5842L2.35911 4.41798C2.52171 3.63559 3.21899 3 3.91667 3Z" fill="#E21836"/>
<path d="M8.49327 3H14.2337C14.9305 3 14.6163 3.63559 14.4524 4.41798L12.1287 15.5842C11.9657 16.3639 12.0165 17 11.3184 17H5.57788C4.8797 17 4.44766 16.3639 4.61166 15.5842L6.93527 4.41798C7.10022 3.63559 7.7961 3 8.49327 3Z" fill="#00447C"/>
<path d="M14.0062 3H18.9981C19.6958 3 20.1292 3.63559 19.9653 4.41798L17.6417 15.5842C17.4776 16.3639 16.7795 17 16.0818 17H11.0923C10.3941 17 9.9611 16.3639 10.1246 15.5842L12.4487 4.41798C12.6113 3.63559 13.308 3 14.0062 3Z" fill="#007B84"/>
<path d="M4.86955 7.74434C4.35621 7.75021 4.20459 7.74434 4.1562 7.73156C4.13756 7.83052 3.79118 9.61873 3.79018 9.62024C3.71559 9.98202 3.66134 10.2399 3.477 10.4064C3.37236 10.5032 3.25019 10.5499 3.10858 10.5499C2.88091 10.5499 2.74832 10.4234 2.72603 10.1835L2.72177 10.1011C2.72177 10.1011 2.79115 9.61657 2.79115 9.61382C2.79115 9.61382 3.15471 7.98425 3.21978 7.76886C3.22319 7.75657 3.22419 7.75021 3.22504 7.74434C2.51739 7.75129 2.39191 7.74434 2.3833 7.73156C2.37854 7.74908 2.36101 7.85014 2.36101 7.85014L1.98981 9.6868L1.95793 9.84257L1.89624 10.3521C1.89624 10.5032 1.92276 10.6266 1.97557 10.7309C2.14471 11.0616 2.62714 11.1112 2.90004 11.1112C3.25169 11.1112 3.58154 11.0276 3.8044 10.8749C4.19136 10.6191 4.2926 10.2192 4.38286 9.86381L4.42469 9.68152C4.42469 9.68152 4.79923 7.98905 4.86284 7.76886C4.8653 7.75657 4.86625 7.75021 4.86955 7.74434ZM6.14379 9.10969C6.05352 9.10969 5.88852 9.13416 5.7403 9.2155C5.68655 9.24638 5.63566 9.28206 5.58201 9.31758L5.63045 9.12192L5.6039 9.08899C5.28962 9.16019 5.2193 9.16973 4.92901 9.2155L4.90467 9.23361C4.87096 9.54634 4.84105 9.78151 4.71607 10.3962C4.66849 10.6228 4.6191 10.8516 4.5696 11.0776L4.58298 11.1063C4.88047 11.0888 4.97074 11.0888 5.22931 11.0936L5.2502 11.0681C5.28306 10.8798 5.28732 10.8356 5.3601 10.4542C5.39427 10.2735 5.4656 9.8761 5.50076 9.73467C5.56533 9.70114 5.6291 9.66821 5.68996 9.66821C5.83487 9.66821 5.81719 9.8097 5.81163 9.86602C5.80542 9.96067 5.75262 10.2697 5.69847 10.5351L5.66231 10.7064C5.63716 10.8329 5.60951 10.9559 5.58431 11.0813L5.59528 11.1063C5.88852 11.0888 5.97794 11.0888 6.22834 11.0936L6.2578 11.0681C6.30303 10.774 6.31631 10.6953 6.3966 10.267L6.43703 10.0703C6.51547 9.68524 6.55489 9.48996 6.49553 9.33095C6.43277 9.1527 6.28214 9.10969 6.14379 9.10969ZM7.56725 9.51281C7.41141 9.54634 7.31198 9.56865 7.2132 9.5831C7.11522 9.60067 7.01975 9.61657 6.86912 9.64002L6.8572 9.65214L6.84623 9.66179C6.83055 9.78733 6.81958 9.89583 6.79879 10.0234C6.78111 10.1554 6.75401 10.3053 6.70983 10.5207C6.67561 10.6856 6.65798 10.743 6.63855 10.801C6.61956 10.859 6.59862 10.9154 6.56015 11.0776L6.56917 11.0926L6.57673 11.1063C6.71749 11.0988 6.80961 11.0935 6.90428 11.0926C6.99881 11.0888 7.09674 11.0926 7.24836 11.0935L7.26159 11.0814L7.27586 11.0681C7.29775 10.9218 7.30101 10.8825 7.31444 10.8111C7.32766 10.7346 7.35055 10.6287 7.40665 10.3457C7.43315 10.2128 7.46276 10.0803 7.49026 9.94472C7.51881 9.80964 7.54876 9.67661 7.57722 9.54375L7.57296 9.52769L7.56725 9.51281ZM7.57055 8.96923C7.42894 8.87571 7.18039 8.90541 7.01308 9.03461C6.84628 9.16122 6.82729 9.34098 6.9684 9.43573C7.10761 9.52672 7.35716 9.49961 7.52302 9.36927C7.68947 9.23991 7.71026 9.06183 7.57055 8.96923ZM8.42707 11.1356C8.71365 11.1356 9.00734 11.0473 9.22844 10.785C9.3985 10.5723 9.4765 10.2559 9.5035 10.1256C9.59151 9.6937 9.52298 9.49206 9.43697 9.36922C9.30629 9.18202 9.07536 9.12198 8.83577 9.12198C8.69171 9.12198 8.34863 9.13788 8.08054 9.41444C7.88809 9.61393 7.79912 9.88462 7.74548 10.1441C7.69133 10.4085 7.62906 10.8846 8.02023 11.0617C8.1409 11.1197 8.31492 11.1356 8.42707 11.1356ZM8.40468 10.1639C8.47075 9.83681 8.54875 9.56229 8.74781 9.56229C8.9038 9.56229 8.91512 9.76652 8.84574 10.0947C8.83337 10.1675 8.77641 10.4383 8.69937 10.5537C8.64562 10.6388 8.58196 10.6904 8.51163 10.6904C8.49074 10.6904 8.36626 10.6904 8.36431 10.4836C8.36331 10.3814 8.38194 10.2771 8.40468 10.1639ZM10.2198 11.0936L10.2422 11.0681C10.274 10.8798 10.2792 10.8355 10.3495 10.4543C10.3847 10.2735 10.4574 9.87615 10.4916 9.73467C10.5564 9.70109 10.619 9.6681 10.6818 9.6681C10.8257 9.6681 10.8082 9.80959 10.8025 9.86597C10.7973 9.96072 10.7445 10.2697 10.6893 10.535L10.6552 10.7063C10.629 10.8329 10.6005 10.9558 10.5753 11.0813L10.5863 11.1064C10.8805 11.0888 10.9665 11.0888 11.2184 11.0936L11.2488 11.0681C11.293 10.7739 11.3049 10.6952 11.3876 10.2671L11.427 10.0702C11.5059 9.68513 11.5458 9.49001 11.4874 9.33095C11.4228 9.15276 11.2712 9.10969 11.1348 9.10969C11.0444 9.10969 10.8785 9.13411 10.7312 9.2155C10.6785 9.24644 10.6257 9.28196 10.5739 9.31764L10.619 9.12198L10.5948 9.08888C10.2806 9.16025 10.2088 9.16973 9.91891 9.2155L9.89667 9.23361C9.8615 9.54639 9.8329 9.7814 9.70792 10.3963C9.66033 10.6229 9.61094 10.8516 9.56155 11.0777L9.57483 11.1064C9.87277 11.0888 9.96174 11.0888 10.2198 11.0936ZM12.3814 11.1063C12.3999 11.0053 12.5107 10.4064 12.5107 10.4064C12.5107 10.4064 12.6043 9.96703 12.61 9.95113C12.61 9.95113 12.6394 9.90537 12.6689 9.88726H12.7122C13.1209 9.88726 13.5824 9.88726 13.9441 9.58946C14.1903 9.38523 14.3585 9.08366 14.4336 8.71708C14.4531 8.62723 14.4674 8.52034 14.4674 8.41346C14.4674 8.2731 14.4422 8.1342 14.3695 8.0257C14.185 7.7369 13.8177 7.73156 13.3937 7.72941C13.3924 7.72941 13.1846 7.73156 13.1846 7.73156C12.6419 7.73905 12.4242 7.7369 12.3348 7.72461C12.3272 7.76886 12.313 7.84756 12.313 7.84756C12.313 7.84756 12.1185 8.85598 12.1185 8.8576C12.1185 8.8576 11.6533 11.0016 11.6314 11.1026C12.1053 11.0962 12.2996 11.0962 12.3814 11.1063ZM12.7416 9.315C12.7416 9.315 12.9484 8.30862 12.9474 8.31245L12.9541 8.26081L12.957 8.22146L13.0396 8.231C13.0396 8.231 13.466 8.27197 13.4759 8.2731C13.6442 8.34592 13.7136 8.53371 13.6651 8.77879C13.621 9.00275 13.4912 9.19108 13.3243 9.28201C13.1869 9.35909 13.0187 9.3655 12.8453 9.3655H12.7331L12.7416 9.315ZM14.0287 10.1825C13.9741 10.4431 13.9113 10.9191 14.3005 11.0888C14.4247 11.1479 14.5359 11.1655 14.6489 11.159C14.7683 11.1518 14.8788 11.0848 14.9813 10.9884C14.9721 11.0281 14.9628 11.0677 14.9536 11.1075L14.9712 11.1329C15.2512 11.1197 15.338 11.1197 15.6414 11.1223L15.6689 11.0988C15.7132 10.8074 15.7549 10.5245 15.87 9.96708C15.9261 9.70006 15.9821 9.43568 16.0396 9.16973L16.0306 9.14047C15.7174 9.20542 15.6337 9.21932 15.3325 9.26708L15.3096 9.28794C15.3065 9.315 15.3034 9.34103 15.3005 9.36701C15.2536 9.28233 15.1857 9.21005 15.081 9.16499C14.947 9.10602 14.6323 9.18197 14.3619 9.45756C14.1719 9.65435 14.0806 9.92391 14.0287 10.1825ZM14.6865 10.1984C14.7536 9.87723 14.8306 9.60547 15.0301 9.60547C15.1563 9.60547 15.2227 9.73574 15.2092 9.95798C15.1985 10.0134 15.187 10.0718 15.1732 10.1378C15.1533 10.2333 15.1316 10.3279 15.1105 10.4227C15.0891 10.4875 15.0642 10.5486 15.0368 10.5894C14.9854 10.6708 14.8633 10.7213 14.793 10.7213C14.773 10.7213 14.6499 10.7213 14.6456 10.5181C14.6447 10.4169 14.6633 10.3128 14.6865 10.1984ZM18.1214 9.13788L18.0971 9.10694C17.7873 9.17723 17.7312 9.18838 17.4465 9.2314L17.4255 9.25484C17.3515 9.54483 17.1577 9.83799 17.043 10.1245C17.0267 9.79568 17.0131 9.46673 16.9978 9.13788L16.9707 9.10694C16.6461 9.17723 16.6384 9.18838 16.3386 9.2314L16.3153 9.25484C16.312 9.266 16.312 9.27824 16.31 9.2916L16.312 9.29635C16.3494 9.51066 16.3405 9.4629 16.378 9.80107C16.3956 9.96708 16.4189 10.134 16.4365 10.2979C16.466 10.5723 16.4826 10.7074 16.5187 11.1261C16.2263 11.6661 16.024 12.2545 15.6086 12.7015L15.9963 12.7089C16.224 12.7079 16.3671 12.5887 16.4441 12.4286C17.0205 11.3425 17.5528 10.2294 18.1214 9.13788Z" fill="#FEFEFE"/>
</svg>
