<svg width="40" height="40" viewBox="0 0 40 40" fill="none" xmlns="http://www.w3.org/2000/svg">
<path fill-rule="evenodd" clip-rule="evenodd" d="M4 9C4 7.89543 4.89543 7 6 7H34C35.1046 7 36 7.89543 36 9V24C36 25.1046 35.1046 26 34 26H23V30H27.4649C27.7992 30 28.1114 30.1671 28.2969 30.4453L29.3782 32.0672C29.644 32.4659 29.3581 33 28.8789 33H11.1212C10.6419 33 10.3561 32.4659 10.6219 32.0672L11.7032 30.4453C11.8886 30.1671 12.2009 30 12.5352 30H17V26H6C4.89543 26 4 25.1046 4 24V9ZM6 8.6H34C34.2209 8.6 34.4 8.77909 34.4 9V24C34.4 24.2209 34.2209 24.4 34 24.4H6C5.77909 24.4 5.6 24.2209 5.6 24V9C5.6 8.77909 5.77909 8.6 6 8.6Z" fill="#CADAF3"/>
<path d="M9 20C9 18.8954 9.89543 18 11 18H18C19.1046 18 20 18.8954 20 20V36C20 37.1046 19.1046 38 18 38H11C9.89543 38 9 37.1046 9 36L9 20Z" fill="#CADAF3"/>
<path fill-rule="evenodd" clip-rule="evenodd" d="M9 20C9 18.8954 9.89543 18 11 18H18C19.1046 18 20 18.8954 20 20V36C20 37.1046 19.1046 38 18 38H11C9.89543 38 9 37.1046 9 36V20ZM11 19.6H18C18.2209 19.6 18.4 19.7791 18.4 20V34H10.6V20C10.6 19.7791 10.7791 19.6 11 19.6Z" fill="#82A5DB"/>
</svg>
