<svg width="37" height="55" viewBox="0 0 37 55" fill="none" xmlns="http://www.w3.org/2000/svg">
<path d="M18.0162 1.23093L18.4717 0L18.9272 1.23093C19.3238 2.30279 20.1689 3.14789 21.2408 3.54452L22.4717 4L21.2408 4.45548C20.1689 4.85211 19.3238 5.69721 18.9272 6.76907L18.4717 8L18.0162 6.76907C17.6196 5.69721 16.7745 4.85211 15.7026 4.45548L14.4717 4L15.7026 3.54452C16.7745 3.14789 17.6196 2.30279 18.0162 1.23093Z" fill="#B2C8EB" fill-opacity="0.7"/>
<path d="M5.5 14.25L4.50619 16.9357C4.1941 17.7791 3.52913 18.4441 2.68573 18.7562L0 19.75L2.68573 20.7438C3.52913 21.0559 4.1941 21.7209 4.50619 22.5643L5.5 25.25L6.49381 22.5643C6.8059 21.7209 7.47087 21.0559 8.31427 20.7438L11 19.75L8.31427 18.7562C7.47087 18.4441 6.8059 17.7791 6.49381 16.9357L5.5 14.25Z" fill="#B2C8EB" fill-opacity="0.7"/>
<path d="M29.6924 40.2109L28.2398 44.1366C27.9617 44.8879 27.3694 45.4803 26.618 45.7583L22.6924 47.2109L26.618 48.6636C27.3694 48.9416 27.9617 49.534 28.2398 50.2853L29.6924 54.2109L31.145 50.2853C31.423 49.534 32.0154 48.9416 32.7667 48.6636L36.6924 47.2109L32.7667 45.7583C32.0154 45.4803 31.423 44.8879 31.145 44.1366L29.6924 40.2109Z" fill="#B2C8EB" fill-opacity="0.7"/>
</svg>
