<svg width="40" height="40" viewBox="0 0 40 40" fill="none" xmlns="http://www.w3.org/2000/svg">
<path fill-rule="evenodd" clip-rule="evenodd" d="M10.4615 17H29.5385C30.8979 17 32 18.1342 32 19.5333V33.4667C32 34.8658 30.8979 36 29.5385 36H10.4615C9.10207 36 8 34.8658 8 33.4667V19.5333C8 18.1342 9.10207 17 10.4615 17ZM22.1279 24.9308C22.1279 25.7411 21.6749 26.4455 21.0083 26.8047V28.6215C21.0083 29.178 20.5572 29.6292 20.0007 29.6292C19.4442 29.6292 18.993 29.178 18.993 28.6215V26.8047C18.3264 26.4455 17.8734 25.7411 17.8734 24.9308C17.8734 23.7559 18.8258 22.8035 20.0007 22.8035C21.1755 22.8035 22.1279 23.7559 22.1279 24.9308Z" fill="#CADAF3"/>
<path fill-rule="evenodd" clip-rule="evenodd" d="M12 13C12 8.58172 15.5817 5 20 5C24.4183 5 28 8.58172 28 13V17H26V13C26 9.68629 23.3137 7 20 7C16.6863 7 14 9.68629 14 13V17H12V13Z" fill="#82A5DB"/>
<path d="M4.5 4L5.31312 6.19741C5.56846 6.88747 6.11253 7.43154 6.80259 7.68688L9 8.5L6.80259 9.31311C6.11253 9.56846 5.56846 10.1125 5.31312 10.8026L4.5 13L3.68688 10.8026C3.43154 10.1125 2.88747 9.56846 2.19741 9.31311L0 8.5L2.19741 7.68688C2.88747 7.43154 3.43154 6.88747 3.68688 6.19741L4.5 4Z" fill="#B2C8EB"/>
</svg>
