<svg width="40" height="40" viewBox="0 0 40 40" fill="none" xmlns="http://www.w3.org/2000/svg">
<path d="M24.4 15C24.4 15.7732 23.7732 16.4 23 16.4C22.2268 16.4 21.6 15.7732 21.6 15C21.6 14.2268 22.2268 13.6 23 13.6C23.7732 13.6 24.4 14.2268 24.4 15Z" fill="#CADAF3"/>
<path d="M24.4 25C24.4 25.7732 23.7732 26.4 23 26.4C22.2268 26.4 21.6 25.7732 21.6 25C21.6 24.2268 22.2268 23.6 23 23.6C23.7732 23.6 24.4 24.2268 24.4 25Z" fill="#CADAF3"/>
<path d="M14 21.4C14.7732 21.4 15.4 20.7732 15.4 20C15.4 19.2268 14.7732 18.6 14 18.6C13.2268 18.6 12.6 19.2268 12.6 20C12.6 20.7732 13.2268 21.4 14 21.4Z" fill="#CADAF3"/>
<path fill-rule="evenodd" clip-rule="evenodd" d="M6 9.86462L19.9993 5L34 9.86462C34 21.1436 30.9736 29.1176 19.9993 37C9.02503 29.1176 6 21.1436 6 9.86462ZM26 15C26 16.6569 24.6569 18 23 18C22.2001 18 21.4733 17.6869 20.9355 17.1767L16.8918 19.1985C16.9623 19.4537 17 19.7224 17 20C17 20.2776 16.9623 20.5463 16.8918 20.8015L20.9355 22.8233C21.4733 22.3131 22.2001 22 23 22C24.6569 22 26 23.3431 26 25C26 26.6569 24.6569 28 23 28C21.3431 28 20 26.6569 20 25C20 24.7224 20.0377 24.4537 20.1082 24.1986L16.0645 22.1767C15.5267 22.6869 14.7999 23 14 23C12.3431 23 11 21.6569 11 20C11 18.3431 12.3431 17 14 17C14.7999 17 15.5267 17.3131 16.0645 17.8233L20.1082 15.8014C20.0377 15.5463 20 15.2776 20 15C20 13.3431 21.3431 12 23 12C24.6569 12 26 13.3431 26 15Z" fill="#CADAF3"/>
</svg>
