<svg width="40" height="40" viewBox="0 0 40 40" fill="none" xmlns="http://www.w3.org/2000/svg">
<path d="M19.2 5.27771L6 9.86456C6 13.2443 6.27161 16.3273 6.94733 19.2H19.2V5.27771Z" fill="#82A5DB"/>
<path d="M7.37262 20.8C9.09303 26.5793 12.6457 31.53 19.2 36.4152V20.8H7.37262Z" fill="#82A5DB"/>
<path d="M20.8 36.4142C27.3534 31.5294 30.9063 26.5789 32.627 20.8H20.8V36.4142Z" fill="#82A5DB"/>
<path d="M33.0524 19.2H20.8V5.27813L34 9.86456C34 13.2443 33.7283 16.3273 33.0524 19.2Z" fill="#82A5DB"/>
<path d="M33.0524 19.2H20.8008V5.27344L34 9.86455C34 13.2443 33.7283 16.3273 33.0524 19.2Z" fill="#CADAF3"/>
<path d="M7.37256 20.8H19.1999V36.4142C12.646 31.5293 9.09294 26.5792 7.37256 20.8Z" fill="#CADAF3"/>
</svg>
