<svg width="110" height="110" viewBox="0 0 110 110" fill="none" xmlns="http://www.w3.org/2000/svg">
<path d="M105 65C105 89.8528 84.8528 110 60 110C35.1472 110 15 89.8528 15 65C15 40.1472 35.1472 20 60 20C84.8528 20 105 40.1472 105 65Z" fill="#B2C8EB" fill-opacity="0.3"/>
<path d="M98 65C98 85.9868 80.9868 103 60 103C39.0132 103 22 85.9868 22 65C22 44.0132 39.0132 27 60 27C80.9868 27 98 44.0132 98 65Z" fill="#B2C8EB" fill-opacity="0.3"/>
<path d="M90 65C90 81.5685 76.5685 95 60 95C43.4315 95 30 81.5685 30 65C30 48.4315 43.4315 35 60 35C76.5685 35 90 48.4315 90 65Z" fill="#B2C8EB" fill-opacity="0.75"/>
<path fill-rule="evenodd" clip-rule="evenodd" d="M55.5508 76.6967L78.8746 53.3356C79.5484 52.6608 79.5484 51.5668 78.8746 50.892C78.2009 50.2172 77.1086 50.2172 76.4348 50.892L55.5508 71.8094L46.1992 62.4429C45.5255 61.7681 44.4332 61.7681 43.7594 62.4429C43.0857 63.1177 43.0857 64.2117 43.7594 64.8865L55.5508 76.6967Z" fill="white"/>
<path d="M24.9072 93.1715L55.002 20.2744C56.643 20.0931 58.3107 20 60.0001 20C74.0111 20 86.5265 26.4032 94.7796 36.443L64.5043 109.777C63.0229 109.925 61.5203 110 60.0001 110C45.8106 110 33.155 103.433 24.9072 93.1715Z" fill="white" fill-opacity="0.25"/>
<path d="M86.5 0L87.8489 3.36483C88.107 4.00884 88.6571 4.5166 89.3548 4.7549L93 6L89.3548 7.2451C88.6571 7.4834 88.107 7.99116 87.8489 8.63517L86.5 12L85.1511 8.63517C84.893 7.99116 84.3429 7.4834 83.6452 7.2451L80 6L83.6452 4.7549C84.3429 4.5166 84.893 4.00884 85.1511 3.36483L86.5 0Z" fill="#B2C8EB"/>
<path d="M5.5 84L6.64134 87.0844C6.85979 87.6748 7.32523 88.1402 7.91557 88.3587L11 89.5L7.91557 90.6413C7.32523 90.8598 6.85979 91.3252 6.64134 91.9156L5.5 95L4.35866 91.9156C4.14021 91.3252 3.67477 90.8598 3.08443 90.6413L0 89.5L3.08443 88.3587C3.67477 88.1402 4.14021 87.6748 4.35866 87.0844L5.5 84Z" fill="#B2C8EB"/>
<path d="M105 21L105.903 23.4416C106.187 24.2083 106.792 24.8128 107.558 25.0965L110 26L107.558 26.9035C106.792 27.1872 106.187 27.7917 105.903 28.5584L105 31L104.097 28.5584C103.813 27.7917 103.208 27.1872 102.442 26.9035L100 26L102.442 25.0965C103.208 24.8128 103.813 24.2083 104.097 23.4416L105 21Z" fill="#B2C8EB"/>
</svg>
