<svg width="40" height="40" viewBox="0 0 40 40" fill="none" xmlns="http://www.w3.org/2000/svg">
<path d="M38 20.2308C38 23.9642 34.7853 26.9917 30.8163 27H25.9V21C25.9 19.6745 24.8255 18.6 23.5 18.6C22.1745 18.6 21.1 19.6745 21.1 21V22.1939C20.9829 21.9826 20.8316 21.7855 20.6464 21.6109L16.5 17.7014L12.3536 21.6109C11.3891 22.5202 11.3445 24.0392 12.2538 25.0036C12.7505 25.5304 13.4292 25.7828 14.1 25.7551V27H11C6.02944 27 2 23.2116 2 18.5385C2 13.8653 6.02944 10.0769 11 10.0769C11.4708 10.0769 11.9331 10.1109 12.3844 10.1764C14.2363 7.08664 17.7589 5 21.8 5C27.2202 5 31.7078 8.7539 32.4819 13.6472C35.6471 14.3594 38 17.0367 38 20.2308Z" fill="#CADAF3"/>
<path fill-rule="evenodd" clip-rule="evenodd" d="M16.5 32.8C16.9418 32.8 17.3 32.4419 17.3 32V22.8539L18.4511 23.9393C18.7726 24.2424 19.2789 24.2275 19.582 23.906C19.8851 23.5845 19.8702 23.0782 19.5488 22.7751L16.5 19.9005L13.4511 22.7751C13.1297 23.0782 13.1148 23.5845 13.4179 23.906C13.721 24.2275 14.2273 24.2424 14.5488 23.9393L15.7 22.8539V32C15.7 32.4419 16.0581 32.8 16.5 32.8Z" fill="#82A5DB"/>
<path fill-rule="evenodd" clip-rule="evenodd" d="M23.5 20.2C23.9418 20.2 24.3 20.5581 24.3 21V30.1461L25.4511 29.0607C25.7726 28.7576 26.2789 28.7725 26.582 29.094C26.8851 29.4155 26.8702 29.9218 26.5488 30.2249L23.5 33.0995L20.4511 30.2249C20.1297 29.9218 20.1148 29.4155 20.4179 29.094C20.721 28.7725 21.2273 28.7576 21.5488 29.0607L22.7 30.1461V21C22.7 20.5581 23.0581 20.2 23.5 20.2Z" fill="#82A5DB"/>
</svg>
