<svg width="37" height="51" viewBox="0 0 37 51" fill="none" xmlns="http://www.w3.org/2000/svg">
<path d="M18.832 1.23093L18.3765 0L17.921 1.23093C17.5244 2.30279 16.6793 3.14789 15.6074 3.54452L14.3765 4L15.6074 4.45548C16.6793 4.85211 17.5244 5.69721 17.921 6.76907L18.3765 8L18.832 6.76907C19.2286 5.69721 20.0737 4.85211 21.1455 4.45548L22.3765 4L21.1455 3.54452C20.0737 3.14789 19.2286 2.30279 18.832 1.23093Z" fill="#B2C8EB" fill-opacity="0.7"/>
<path d="M31.3481 10.25L32.3419 12.9357C32.654 13.7791 33.319 14.4441 34.1624 14.7562L36.8481 15.75L34.1624 16.7438C33.319 17.0559 32.654 17.7209 32.3419 18.5643L31.3481 21.25L30.3543 18.5643C30.0423 17.7209 29.3773 17.0559 28.5339 16.7438L25.8481 15.75L28.5339 14.7562C29.3773 14.4441 30.0423 13.7791 30.3543 12.9357L31.3481 10.25Z" fill="#B2C8EB" fill-opacity="0.7"/>
<path d="M7.15576 36.2109L8.60838 40.1366C8.8864 40.8879 9.47879 41.4803 10.2301 41.7583L14.1558 43.2109L10.2301 44.6636C9.47879 44.9416 8.8864 45.534 8.60838 46.2853L7.15576 50.2109L5.70314 46.2853C5.42513 45.534 4.83273 44.9416 4.08141 44.6636L0.155762 43.2109L4.08141 41.7583C4.83273 41.4803 5.42513 40.8879 5.70314 40.1366L7.15576 36.2109Z" fill="#B2C8EB" fill-opacity="0.7"/>
</svg>
