<svg width="320" height="244" viewBox="0 0 320 244" fill="none" xmlns="http://www.w3.org/2000/svg">             
<defs> 
    <style> 
        .star_l {      
            transform-origin: 19px 50px;                   
            animation: scale-star 2s ease-in-out 1.5s backwards;                        
        }     
        .star_m {      
            transform-origin: 43px 27px;             
            animation: scale-star 2s ease-in-out 1.3s backwards;                                  
        }  
        .star_s {        
            transform-origin: 30px 15px;            
            animation: scale-star 2s ease-in-out 1.7s backwards;    
        }         
        .cloud {            
            transform-origin: center center;       
            animation: scale-cloud 4s ease-in-out;                                 
        } 
        .table {     
            animation: fill-opacity-table 4s ease-in-out;                      
        } 
        .shield {      
            animation: fill-opacity-shield 1.2s ease-in-out;                                    
        } 
        .share { 
            transform-origin: 140px 112px;  
            animation: scale-share 4s ease-in-out;   
        }        
        .monitor { 
            transform-origin: 198px 154px;     
            animation: scale-monitor 4s ease-in-out;                        
        }
        .keyboard { 
            transform-origin: 220px 170px;          
            animation: scale-monitor 4s ease-in-out;                           
        }
        .mouse {  
            transform-origin: 254px 164px;                  
            animation: scale-monitor 4s ease-in-out;                         
        }
        .tablet {       
            transform-origin: 140px 180px;                   
            animation: scale-tablet 4s ease-in-out;                          
        }
        .mob {  
            transform-origin: 102px 206px;                   
            animation: scale-mob 4s ease-in-out;                               
        }
        .backups { 
            animation: backups 2.7s ease-in-out ;   
        }
        .backups_2 { 
            animation: backups 2.7s ease-in-out 0.2s backwards;       
        }

        .pass {  
            animation: fill-opacity-pass 4s ease-in-out; 
        }
        @keyframes scale-star {            
            0%, 90% {    
                transform: scale(0);    
            }
            95% {    
                transform: scale(1.7);  
            }    
            100% { 
                transform: scale(1);       
            }        
        } 
        @keyframes scale-cloud {                                  
            0%, 5% {     
                transform: scale(0);               
            }    
            15% {          
                transform: scale(1);      
            }          
        }  
        @keyframes scale-monitor {                                     
            0%, 20% {     
                transform: scale(0);                
            }             
            27% {        
                transform: scale(1.1);               
            }   
            32% {          
                transform: scale(1);      
            }          
        }  
        @keyframes scale-tablet {                                          
            0%, 27% {         
                transform: scale(0);               
            } 
            34% {       
                transform: scale(1.1);               
            }               
            39% {       
                transform: scale(1);                 
            }                
        }
        @keyframes scale-mob {                                                                 
            0%, 32% {     
                transform: scale(0);                      
            }             
            39% {       
                transform: scale(1.1);               
            }   
            44% {          
                transform: scale(1);          
            }          
        }
        @keyframes scale-share {                                                                                
            0%, 40% {     
                transform: scale(0);               
            }             
            45% {          
                transform: scale(3);           
            }  
            50% {          
                transform: scale(1);          
            }         
        }
        @keyframes fill-opacity-table {                                                                     
            0%, 15% {  
                fill-opacity:0.25;
            }
            25%, 100% {    
                fill-opacity:1;             
            }            
        }   
        @keyframes fill-opacity-shield {                                                                                              
            0%, 60% {  
                fill-opacity:0;
            }
            100% {    
                fill-opacity:default;                  
            }            
        }      
        @keyframes backups {                                                                                                     
            0%, 90% {   
                fill-opacity:0;
                transform: translate(-30px, 40px);    
            }
            100% {    
                fill-opacity:default;                                     
            }            
        } 
        @keyframes backups {                                                                                                     
            0%, 90% {   
                fill-opacity:0;
                transform: translate(-30px, 20px);     
            }
            100% {    
                fill-opacity:default;                                     
            }            
        } 
        @keyframes fill-opacity-pass {                                                                       
            0%, 50% {  
                fill-opacity:0;
               
            }
            60%, 100% {    
                fill-opacity:1;                       
            }            
        }                 

    </style>     
</defs>  

<path class="star_s" d="M30.4984 12.4424L30.1442 11.481L29.79 12.4424C29.4815 13.2796 28.8243 13.9397 27.9908 14.2495L27.0336 14.6052L27.9908 14.961C28.8243 15.2708 29.4815 15.9308 29.79 16.768L30.1442 17.7294L30.4984 16.768C30.8068 15.9308 31.464 15.2708 32.2975 14.961L33.2548 14.6052L32.2975 14.2495C31.464 13.9397 30.8068 13.2796 30.4984 12.4424Z" fill="#B2C8EB" fill-opacity="0.7"/>
<path class="star_m" d="M42.5814 21.4568L43.5635 24.1227C43.872 24.9599 44.5292 25.62 45.3627 25.9297L48.017 26.9162L45.3627 27.9027C44.5292 28.2125 43.872 28.8725 43.5635 29.7097L42.5814 32.3756L41.5992 29.7097C41.2907 28.8725 40.6336 28.2125 39.8 27.9027L37.1457 26.9162L39.8 25.9297C40.6336 25.62 41.2907 24.9599 41.5992 24.1227L42.5814 21.4568Z" fill="#B2C8EB" fill-opacity="0.7"/>
<path class="star_l" d="M18.7465 42.5982L20.2608 46.7084C20.5506 47.4951 21.1682 48.1153 21.9514 48.4064L26.0438 49.9274L21.9514 51.4483C21.1682 51.7394 20.5506 52.3596 20.2608 53.1463L18.7465 57.2565L17.2322 53.1463C16.9424 52.3596 16.3248 51.7394 15.5416 51.4483L11.4492 49.9274L15.5416 48.4064C16.3248 48.1153 16.9424 47.4951 17.2322 46.7084L18.7465 42.5982Z" fill="#B2C8EB" fill-opacity="0.7"/>

<path class="backups"
    d="M260.777 30.8979L238.337 23.2608C238.337 23.2608 238.447 22.9998 238.447 22.536C238.447 22.3072 238.453 19.2994 238.459 16.2513C238.466 13.1206 238.472 9.9474 238.472 9.6995C238.472 9.21023 238.669 8.87432 239.195 9.04497L252.764 13.3496L253.237 12.1512C253.355 11.8522 253.684 11.6961 253.989 11.7939L260.393 13.8331C260.873 13.9872 261.183 14.1791 261.183 14.7092V30.0433C261.183 30.5215 261.183 30.898 260.777 30.8979Z" fill="#B2C8EB" fill-opacity="0.6"/>
<path class="backups"
    d="M260.809 30.9034L238.324 23.2343C238.324 23.2343 238.112 23.141 237.644 22.6057C237.287 22.1975 232.382 15.8354 230.072 12.8356C229.707 12.3615 230.171 11.7019 230.74 11.8829L252.07 18.6647C252.439 18.7821 252.761 19.0116 252.987 19.3272C255.757 23.1834 260.809 30.9034 260.809 30.9034Z" fill="#B2C8EB" fill-opacity="0.6"/>

<path class="backups_2"
    d="M249.929 51.7316L227.489 43.1373C227.489 43.1373 227.599 42.8764 227.599 42.4126C227.599 42.1873 227.605 39.3493 227.611 36.4343L227.612 36.2518C227.618 33.2252 227.625 30.1727 227.625 29.9261C227.625 29.4368 227.821 29.1009 228.348 29.2715L241.917 33.9536L242.325 32.8196C242.443 32.5206 242.772 32.3645 243.077 32.4624L249.545 34.6668C250.026 34.8209 250.335 35.0128 250.335 35.5429V50.8771C250.335 51.3553 250.335 51.7317 249.929 51.7316Z" fill="#B2C8EB" fill-opacity="0.6"/>
<path class="backups_2"
    d="M249.94 51.7309L227.456 43.1154C227.456 43.1154 227.243 43.0221 226.776 42.4867C226.423 42.0833 221.626 35.8622 219.285 32.8216C218.912 32.3386 219.399 31.6685 219.972 31.8735L241.242 39.484C241.586 39.6071 241.884 39.8284 242.098 40.1258C244.863 43.9722 249.94 51.7309 249.94 51.7309Z" fill="#B2C8EB" fill-opacity="0.6"/>



<path class="shield"            
 fill="#B2C8EB" fill-opacity="0.7" d="M140.306 58.9943C139.434 58.5976 138.412 58.7502 137.693 59.3843L100.781 91.9332C100.237 92.413 99.9355 93.1082 100.033 93.829C100.453 96.9409 102.445 106.151 111.809 117.952C121.36 129.988 133.531 138.296 137.533 140.855C138.347 141.376 139.365 141.332 140.126 140.736C145.035 136.892 162.984 121.805 168.615 102.673C173.33 86.6556 174.627 79.2731 174.983 76.3955C175.101 75.4493 174.565 74.5874 173.7 74.1938L140.306 58.9943Z"/>
<path class="shield"
fill-rule="evenodd" clip-rule="evenodd" fill="#2962FF" fill-opacity="0.6" d="M146.489 101.532C146.446 99.2034 146.149 96.9178 145.371 95.2377C144.942 94.3112 144.335 93.4989 143.474 93C142.595 92.4899 141.314 92.4092 140.168 92.6768C137.859 93.2154 136.26 95.054 135.256 97.2756C134.274 99.4506 133.798 102.121 133.775 104.732L132.802 104.978C131.765 105.237 131 106.07 131 107.426V119.558C131 120.731 131.905 121.981 132.983 121.683L147.411 117.725C148.442 117.421 148.998 116.824 148.998 115.65L149 103.458C149 102.285 148.097 101.155 146.967 101.411L146.489 101.532ZM144.667 101.994C144.656 99.5828 144.373 97.433 143.715 96.0116C143.384 95.2978 142.991 94.839 142.561 94.5892C142.149 94.3507 141.358 94.2831 140.581 94.4643C139.043 94.8232 137.799 96.0875 136.92 98.0335C136.124 99.7967 135.684 102.011 135.612 104.266L144.667 101.994Z"/>
<path class="share"
fill-rule="evenodd" clip-rule="evenodd" fill="#ffffff" d="M141.922 109.843C142.656 109.843 143.251 109.078 143.251 108.133C143.251 107.188 142.656 106.422 141.922 106.422C141.189 106.422 140.594 107.188 140.594 108.133C140.594 108.244 140.602 108.352 140.618 108.457L138.19 110.859C137.992 110.709 137.762 110.624 137.517 110.624C136.783 110.624 136.188 111.39 136.188 112.334C136.188 113.279 136.783 114.045 137.517 114.045C137.953 114.045 138.34 113.775 138.582 113.357L140.601 114.308C140.67 115.169 141.235 115.841 141.922 115.841C142.656 115.841 143.251 115.075 143.251 114.13C143.251 113.185 142.656 112.419 141.922 112.419C141.495 112.419 141.114 112.68 140.871 113.084L138.836 112.125C138.83 112.069 138.823 112.013 138.813 111.959L141.216 109.582C141.421 109.748 141.663 109.843 141.922 109.843Z"/>

<g class="cloud">    
<path d="M235.57 106.123L305.798 138.923C304.138 153.756 293.506 163.147 293.506 163.147L225.267 128.141C225.267 128.141 233.422 120.088 235.57 106.123Z" fill="#B2C8EB" fill-opacity="0.1"/>
<path d="M28.7225 104.065C-0.38147 117.584 -3.44497 171.048 39.3669 185.182L224.792 128.646C245.318 107.137 238.578 61.3553 196.913 74.5676C196.913 49.63 178.714 28.9186 152.491 20.182C126.269 11.4453 86.8934 19.973 79.2718 52.1372C74.6282 49.134 55.3802 47.7034 42.8151 58.8972C30.2501 70.0909 24.5347 86.1442 28.7225 104.065Z" fill="url(#paint0_linear_11591_102547)"/>
<path fill-rule="evenodd" clip-rule="evenodd" d="M78.7206 51.8226C73.2648 49.0481 54.9324 48.1024 42.8151 58.8972C30.2501 70.0909 24.5347 86.1442 28.7225 104.065C-0.38147 117.584 -3.44497 171.048 39.3669 185.182L224.792 128.646C245.218 107.243 238.643 61.8024 197.522 74.378C197.32 74.4398 197.117 74.503 196.913 74.5676C196.913 74.354 196.912 74.1407 196.909 73.9277C196.601 49.2761 178.489 28.8438 152.491 20.182C126.439 11.5021 87.4048 19.8628 79.4245 51.5128C79.3722 51.72 79.3213 51.9281 79.2718 52.1372C79.1063 52.0301 78.9223 51.9251 78.7206 51.8226ZM224.462 128.107C234.487 117.509 237.833 101.001 233.599 88.7876C231.481 82.6773 227.477 77.6672 221.485 74.9772C215.488 72.2848 207.415 71.8788 197.097 75.1509L196.274 75.3228L196.304 74.5676C196.304 49.9624 178.345 29.4401 152.3 20.7625C139.316 16.4367 123.056 16.3839 109.112 21.3977C95.1799 26.4067 83.6161 36.4458 79.8643 52.2788L78.9421 52.6515C77.8916 51.9721 75.9217 51.3352 73.2971 50.9579C70.6928 50.5835 67.5072 50.4736 64.0718 50.8023C57.1948 51.4602 49.3776 53.8686 43.2193 59.3548C30.8168 70.4037 25.1803 86.2296 29.3155 103.925L28.9782 104.62C14.7034 111.251 6.74743 127.726 7.68433 144.359C8.61628 160.903 18.352 177.523 39.3747 184.54L224.462 128.107Z" fill="#B2C8EB"/>
<path d="M196.719 75.0748C239.352 61.9231 244.224 107.495 224.735 128.293L292.948 163.466C317.614 141.445 306.651 89.7555 267.977 106.577C267.977 78.6405 256.71 57.9469 227.475 48.1594L163.83 25.2206C163.83 25.2206 196.719 39.9016 196.719 75.0748Z" fill="#448AFF" fill-opacity="0.07"/>
<path class="table"
    d="M40.0566 184.956L98.6089 233.833L292.573 163.345L224.735 128.6L40.0566 184.956Z" fill="white"/>
<path fill-rule="evenodd" clip-rule="evenodd" d="M98.4878 234.526L38.7979 184.7L224.793 127.942L294.1 163.44L98.4878 234.526ZM98.6087 233.832L292.573 163.344L224.735 128.599L40.0565 184.955L98.6087 233.832Z" fill="#BDCFEB"/>
<path d="M23.7383 176.925C28.0456 180.329 33.2352 183.159 39.3655 185.183L98.3564 234.426C88.7998 230.871 81.51 226.287 76.1261 221.09L23.7383 176.925Z" fill="#448AFF" fill-opacity="0.1"/>
<path d="M290.394 104.374C285.582 102.756 277.283 102.868 268.224 106.808L196.396 75.0488C205.162 72.2691 212.79 71.6776 220.068 73.9843L290.394 104.374C291.088 104.607 291.709 104.877 292.25 105.176L290.394 104.374Z" fill="url(#paint1_linear_11591_102547)" fill-opacity="0.5"/>
<path fill-rule="evenodd" clip-rule="evenodd" d="M197.265 75.0993L268.226 106.475C275.497 103.338 282.293 102.64 287.215 103.334L219.962 74.2718C212.982 72.0635 205.661 72.5426 197.265 75.0993ZM290.503 104.088L220.174 73.6977L220.16 73.6931C212.802 71.3613 205.107 71.9663 196.304 74.7575L196.273 75.3291L268.224 107.143L268.346 107.09C277.344 103.175 285.559 103.075 290.285 104.66L292.13 105.457L292.397 104.909C291.841 104.601 291.206 104.326 290.503 104.088Z" fill="#B2C8EB"/>
<path d="M155.113 73.8006L84.7708 40.2242C80.7796 46.8136 79.9014 52.1464 79.9014 52.1464L149.211 88.2282C149.211 88.2282 152.037 79.987 155.113 73.8006Z" fill="#B2C8EB" fill-opacity="0.1"/>
<path d="M91.6792 131.417L27.5582 89.9451C27.5582 89.9451 27.4173 97.0927 28.9255 104.132L92.9477 148.331L91.6792 131.417Z" fill="#B2C8EB" fill-opacity="0.1"/>
<path d="M81.5207 154.291L20.0663 110.761C20.0663 110.761 16.3528 113.919 12.6985 120.953C9.04426 127.988 7.82617 134.716 7.82617 134.716L65.381 178.76C69.0352 164.384 81.5207 154.291 81.5207 154.291Z" fill="url(#paint2_linear_11591_102547)" fill-opacity="0.3"/>
<path d="M157.539 22.7058L217.878 45.2464C217.878 45.2464 198.849 43.8783 188.496 48.1603L117.01 19.1174C140.186 14.088 157.539 22.7058 157.539 22.7058Z" fill="url(#paint3_linear_11591_102547)"/>
<path d="M93.5386 118.531C93.5386 118.531 102.573 91.4687 126.629 87.5566L58.2397 51.7531C41.4301 55.1523 32.0288 71.8842 29.9746 79.4272L93.5386 118.531Z" fill="url(#paint4_linear_11591_102547)"/>
<path d="M175.562 33.0461L249.046 61.4378C259.248 71.0722 263.229 82.3149 263.229 82.3149L192.247 53.3913C186.326 40.4843 175.562 33.0461 175.562 33.0461Z" fill="url(#paint5_linear_11591_102547)"/>

<g class="monitor"> 
    <path d="M213.812 158.037C214.725 157.731 214.897 157.182 214.632 156.724C214.367 156.267 207.403 152.733 207.403 152.733L222.744 147.81C223.254 147.646 223.32 146.947 222.85 146.69L220.963 145.658C220.229 145.257 219.364 145.176 218.569 145.434L206.037 149.503C206.037 149.503 203.827 148.33 202.913 147.872C201.571 148.356 189.861 152.035 185.573 153.605C184.677 154.035 183.92 155.323 182.95 156.926L137.062 171.698L141.683 174.105L190.361 158.357C192.308 159.675 195.474 161.605 197.52 162.525C198.717 163.063 199.39 163.078 200.628 162.711C204.291 161.626 213.05 158.292 213.812 158.037Z" fill="url(#paint0_linear_11620_102746)"/>
    <path d="M199.746 161.556C198.68 161.556 197.639 161.256 196.731 160.687L186.603 154.301C185.025 153.304 184.349 151.31 184.995 149.554L187.699 142.226L201.281 137.907L200.94 144.93C200.855 146.673 201.744 148.294 203.26 149.15L213.894 154.264C214.15 154.411 214.132 155.096 214.113 155.604C214.107 155.726 214.107 155.848 214.107 155.959C214.107 156.436 213.882 157.029 213.243 157.243L201.573 161.25C200.989 161.452 200.367 161.556 199.746 161.556Z" fill="#BED0EE"/>
    <path d="M199.838 160.352C198.809 160.352 197.798 160.058 196.927 159.508L187.499 153.501C185.708 152.234 185.404 151.139 186.25 149.017L188.869 141.915L201.69 137.657L201.361 144.435C201.275 146.13 202.14 147.696 203.614 148.527L213.493 153.782C213.913 154.021 214.151 154.473 214.108 154.963C214.065 155.452 213.749 155.856 213.286 156.015L201.61 160.052C201.038 160.248 200.441 160.352 199.838 160.352Z" fill="#E3ECFB"/>
    <path d="M186.127 151.231L201.38 146.356C201.38 146.356 201.081 145.897 201.081 144.609C201.081 143.321 201.23 140.807 201.23 140.807C201.23 140.807 190.175 144.047 188.078 144.833C187.839 145.62 187.525 146.535 187.173 147.435C186.576 148.96 185.965 150.447 186.127 151.231Z" fill="url(#paint1_linear_11620_102746)"/>
    <path d="M165.981 151.134C165.281 151.134 163.442 149.69 162.753 149.146C162.632 149.054 162.534 148.975 162.461 148.92C161.901 148.497 161.584 147.849 161.584 147.146V98.888C161.584 97.7319 162.364 96.7531 163.484 96.5023L223.42 80.965C223.573 80.9283 223.731 80.91 223.883 80.91C224.285 80.91 224.669 81.0262 225.01 81.2464C225.138 81.3321 225.314 81.436 225.528 81.5584C226.143 81.9193 227.586 82.7573 227.586 83.2651L228.049 129.314C228.049 130.501 227.263 131.547 226.143 131.877L166.042 151.134C166.03 151.128 166.012 151.134 165.981 151.134Z" fill="url(#paint2_linear_11620_102746)"/>
    <path d="M186.126 151.231L201.379 146.356C201.379 146.356 201.08 145.897 201.08 144.609C201.08 143.321 201.229 140.807 201.229 140.807L188.077 144.833C188.077 144.833 185.629 149.9 186.126 151.231Z" fill="url(#paint3_linear_11620_102746)"/>
    <path fill-rule="evenodd" clip-rule="evenodd" d="M165.939 151.331C165.913 151.326 165.886 151.32 165.858 151.314C165.745 151.288 165.635 151.254 165.528 151.214C164.363 150.795 162.453 149.549 161.979 149.189C161.382 148.73 160.98 148.009 160.98 147.171V98.913C160.98 97.6284 161.876 96.509 163.124 96.2276L223.493 80.6412C223.67 80.5984 223.846 80.5801 224.017 80.5801C224.486 80.5801 225.459 80.9312 225.83 81.182C225.979 81.2803 226.219 81.4092 226.499 81.5599C226.982 81.8191 227.584 82.1428 228.049 82.4858L228.009 82.5284C228.627 82.8899 229.066 83.4468 229.066 84.1518V130.067C229.066 131.376 228.201 132.538 226.94 132.905L201.849 140.61L201.665 144.447C201.591 146.013 202.401 147.488 203.766 148.258L213.638 153.513C214.21 153.838 214.459 154.424 214.411 154.984C214.42 155.191 214.413 155.407 214.407 155.609C214.403 155.731 214.4 155.847 214.4 155.954C214.4 156.615 214.059 157.282 213.334 157.532L201.665 161.539C201.037 161.759 200.386 161.863 199.734 161.863C198.626 161.863 197.523 161.551 196.561 160.946L186.433 154.559C184.721 153.483 184.002 151.348 184.703 149.446L186.191 145.418L167.12 151.275C166.718 151.392 166.316 151.404 165.939 151.331ZM186.925 145.193L185.281 149.641C184.685 151.262 185.312 153.11 186.768 154.027L196.896 160.413C197.749 160.952 198.735 161.239 199.746 161.239C200.337 161.239 200.922 161.141 201.482 160.952L213.151 156.945C213.646 156.776 213.771 156.346 213.801 156.091C213.679 156.181 213.539 156.255 213.383 156.308L201.707 160.346C201.098 160.554 200.465 160.658 199.837 160.658C198.759 160.658 197.694 160.358 196.762 159.771L187.334 153.764C185.452 152.436 185.044 151.207 185.963 148.907L187.386 145.051L186.925 145.193ZM188.117 144.827L186.536 149.115C185.738 151.115 186.006 152.075 187.681 153.262L197.084 159.251C197.907 159.771 198.857 160.046 199.831 160.046C200.404 160.046 200.964 159.948 201.506 159.764L213.182 155.727C213.535 155.605 213.766 155.311 213.803 154.938C213.839 154.559 213.663 154.229 213.34 154.045L203.479 148.803C201.89 147.903 200.97 146.227 201.055 144.417L201.229 140.8L188.117 144.827ZM226.031 82.0078L226.122 82.0607C225.92 82.0666 225.722 82.0905 225.533 82.1333L166.042 97.903C164.787 98.1843 163.898 99.2976 163.898 100.588V148.846C163.898 149.255 163.993 149.636 164.159 149.972C163.722 149.716 163.218 149.378 162.649 148.932C162.625 148.913 162.602 148.894 162.58 148.877L162.517 148.827L162.479 148.797L162.416 148.75C162.392 148.731 162.37 148.715 162.351 148.7C161.87 148.333 161.596 147.776 161.596 147.171V98.913C161.596 97.9036 162.278 97.0473 163.252 96.827L223.627 81.2407C223.755 81.2101 223.889 81.1918 224.017 81.1918C224.358 81.1918 225.209 81.5001 225.502 81.6897C225.629 81.7753 225.818 81.8854 226.031 82.0078Z" fill="#305594"/>
    <path d="M226.562 121.436L166.748 139.102V100.901L226.562 85.1925V121.436Z" fill="#82A5DB"/>
    <path d="M228.438 130.043V124.819L164.507 144.143V148.841C164.507 149.899 165.366 150.761 166.413 150.761C166.59 150.761 166.772 150.731 166.949 150.682L226.751 132.294C227.744 132.007 228.438 131.083 228.438 130.043Z" fill="#E3ECFB"/>
    <defs>
    <linearGradient id="paint0_linear_11620_102746" x1="221.443" y1="146.292" x2="141.501" y2="172.591" gradientUnits="userSpaceOnUse">
    <stop stop-color="#B2C8EB" stop-opacity="0.4"/>
    <stop offset="0.165324" stop-color="#B2C8EB" stop-opacity="0.6"/>
    <stop offset="0.388963" stop-color="#B2C8EB" stop-opacity="0.6"/>
    <stop offset="1" stop-color="#B2C8EB" stop-opacity="0.2"/>
    </linearGradient>
    <linearGradient id="paint1_linear_11620_102746" x1="194.21" y1="143.158" x2="196.062" y2="148.493" gradientUnits="userSpaceOnUse">
    <stop stop-color="#B2C8EB"/>
    <stop offset="1" stop-color="#B2C8EB" stop-opacity="0"/>
    </linearGradient>
    <linearGradient id="paint2_linear_11620_102746" x1="163.821" y1="97.0797" x2="162.631" y2="99.5807" gradientUnits="userSpaceOnUse">
    <stop stop-color="white"/>
    <stop offset="1" stop-color="#BDD0EE"/>
    </linearGradient>
    <linearGradient id="paint3_linear_11620_102746" x1="194.209" y1="143.158" x2="196.061" y2="148.493" gradientUnits="userSpaceOnUse">
    <stop stop-color="#B2C8EB"/>
    <stop offset="1" stop-color="#B2C8EB" stop-opacity="0"/>
    </linearGradient>
    </defs>
</g>   

<g class="keyboard"> 
    <path d="M243.157 170.733C243.473 170.612 243.761 170.144 243.473 169.917C243.184 169.691 228.837 160.255 228.837 160.255L195.201 172.785C195.201 172.785 193.026 175.033 194.029 175.547C195.031 176.061 208.402 182.569 209.397 182.642C210.392 182.715 242.841 170.855 243.157 170.733Z" fill="url(#paint0_linear_11620_102882)"/>
    <path d="M229.486 160.354L243.225 169.378C243.436 169.516 243.398 169.838 243.159 169.922L210.089 181.58C209.718 181.711 209.307 181.654 208.985 181.426L196.618 172.694C196.547 173.277 196.166 173.722 195.706 173.722C195.195 173.722 194.781 173.173 194.781 172.497C194.781 171.9 195.103 171.403 195.529 171.294L228.432 160.218C228.785 160.099 229.174 160.149 229.486 160.354Z" fill="#E3ECFB"/>
    <path fill-rule="evenodd" clip-rule="evenodd" d="M229.655 160.939L228.153 161.445C227.982 161.502 227.911 161.683 227.961 161.833L227.77 161.702C227.691 161.648 227.592 161.634 227.501 161.664L225.846 162.222C225.676 162.279 225.605 162.458 225.654 162.608L225.468 162.479C225.389 162.424 225.289 162.41 225.198 162.44L223.548 162.996C223.378 163.053 223.307 163.231 223.354 163.381L223.173 163.253C223.094 163.198 222.993 163.183 222.901 163.214L221.187 163.791C221.018 163.848 220.947 164.026 220.994 164.175L220.815 164.049C220.736 163.993 220.634 163.978 220.543 164.009L218.766 164.607C218.597 164.664 218.525 164.842 218.572 164.991L218.394 164.864C218.314 164.808 218.213 164.793 218.121 164.824L216.403 165.403C216.234 165.46 216.162 165.638 216.209 165.787L216.03 165.66C215.951 165.604 215.85 165.59 215.758 165.62L214.105 166.177C213.936 166.234 213.864 166.412 213.911 166.561L213.732 166.435C213.653 166.378 213.552 166.364 213.46 166.395L211.721 166.98C211.552 167.037 211.48 167.215 211.528 167.364L211.349 167.238C211.269 167.182 211.168 167.167 211.076 167.198L209.399 167.763C209.23 167.82 209.158 167.997 209.205 168.147L209.027 168.02C208.947 167.964 208.846 167.949 208.754 167.98L207.095 168.539C206.926 168.596 206.854 168.773 206.902 168.923L206.723 168.796C206.643 168.74 206.542 168.725 206.45 168.756L204.73 169.336C204.561 169.393 204.489 169.57 204.536 169.72L204.357 169.593C204.278 169.537 204.177 169.522 204.085 169.553L202.447 170.105C202.278 170.162 202.207 170.339 202.254 170.488L202.075 170.362C201.996 170.306 201.895 170.291 201.803 170.322L200.105 170.894C199.936 170.951 199.865 171.128 199.912 171.277L199.733 171.151C199.654 171.095 199.553 171.08 199.461 171.111L197.69 171.707C197.454 171.787 197.408 172.103 197.612 172.247L198.484 172.865C198.563 172.921 198.665 172.936 198.757 172.904L200.521 172.303C200.689 172.245 200.76 172.068 200.713 171.919L200.89 172.044C200.969 172.101 201.071 172.115 201.163 172.084L202.854 171.508C203.022 171.45 203.093 171.273 203.046 171.124L203.223 171.249C203.302 171.305 203.404 171.32 203.496 171.289L205.127 170.732C205.296 170.675 205.367 170.498 205.32 170.349L205.496 170.474C205.576 170.53 205.677 170.545 205.769 170.513L207.484 169.929C207.652 169.872 207.723 169.695 207.676 169.546L207.853 169.67C207.932 169.727 208.034 169.742 208.126 169.71L209.779 169.147C209.947 169.089 210.018 168.912 209.971 168.763L210.147 168.888C210.227 168.944 210.329 168.959 210.421 168.928L212.092 168.358C212.26 168.301 212.331 168.124 212.284 167.975L212.461 168.099C212.54 168.156 212.642 168.17 212.734 168.139L214.466 167.548C214.635 167.491 214.706 167.314 214.659 167.165L214.835 167.29C214.915 167.346 215.016 167.361 215.109 167.329L216.755 166.768C216.924 166.711 216.995 166.534 216.948 166.385L217.124 166.509C217.204 166.566 217.305 166.581 217.398 166.549L219.109 165.965C219.278 165.908 219.349 165.731 219.302 165.582L219.478 165.707C219.558 165.763 219.66 165.778 219.752 165.746L221.521 165.143C221.69 165.086 221.761 164.909 221.714 164.76L221.89 164.885C221.97 164.941 222.071 164.956 222.164 164.924L223.875 164.341C224.043 164.283 224.115 164.106 224.067 163.956L224.246 164.082C224.325 164.138 224.427 164.153 224.518 164.121L226.168 163.559C226.337 163.501 226.408 163.323 226.359 163.173L226.542 163.301C226.622 163.356 226.722 163.37 226.814 163.339L228.469 162.775C228.639 162.717 228.71 162.537 228.66 162.387L228.848 162.516C228.927 162.57 229.027 162.584 229.118 162.553L230.636 162.036C230.877 161.954 230.917 161.63 230.705 161.49L229.918 160.973C229.84 160.922 229.743 160.909 229.655 160.939ZM228.23 161.677C228.183 161.693 228.174 161.757 228.215 161.785L228.986 162.314C229.001 162.325 229.021 162.328 229.039 162.322L230.558 161.804C230.606 161.788 230.614 161.723 230.572 161.695L229.785 161.178C229.769 161.167 229.75 161.165 229.732 161.171L228.23 161.677ZM225.924 162.454C225.876 162.47 225.867 162.533 225.909 162.562L226.681 163.1C226.697 163.111 226.717 163.113 226.735 163.107L228.39 162.543C228.438 162.527 228.447 162.463 228.405 162.434L227.632 161.904C227.617 161.893 227.597 161.89 227.579 161.896L225.924 162.454ZM199.538 171.343C199.557 171.337 199.577 171.34 199.593 171.351L200.458 171.963C200.499 171.992 200.49 172.055 200.443 172.071L198.679 172.672C198.66 172.679 198.64 172.676 198.624 172.665L197.752 172.047C197.711 172.018 197.72 171.955 197.768 171.939L199.538 171.343ZM201.88 170.554C201.898 170.548 201.919 170.551 201.935 170.562L202.791 171.168C202.832 171.197 202.822 171.26 202.775 171.276L201.085 171.852C201.066 171.859 201.046 171.856 201.03 171.844L200.167 171.234C200.126 171.205 200.136 171.142 200.183 171.126L201.88 170.554ZM204.162 169.785C204.181 169.779 204.201 169.782 204.217 169.793L205.064 170.393C205.105 170.422 205.096 170.485 205.049 170.501L203.418 171.057C203.399 171.063 203.379 171.06 203.363 171.049L202.509 170.445C202.468 170.416 202.477 170.353 202.525 170.337L204.162 169.785ZM206.528 168.988C206.546 168.982 206.567 168.985 206.582 168.996L207.421 169.589C207.462 169.618 207.452 169.681 207.405 169.697L205.691 170.282C205.673 170.288 205.652 170.285 205.636 170.274L204.791 169.676C204.751 169.647 204.76 169.584 204.807 169.568L206.528 168.988ZM208.832 168.212C208.85 168.206 208.87 168.209 208.886 168.22L209.716 168.807C209.756 168.836 209.747 168.899 209.7 168.915L208.048 169.478C208.029 169.485 208.009 169.482 207.993 169.47L207.157 168.879C207.116 168.85 207.125 168.787 207.173 168.771L208.832 168.212ZM211.154 167.43C211.172 167.423 211.192 167.426 211.208 167.438L212.029 168.018C212.07 168.047 212.06 168.11 212.013 168.126L210.342 168.696C210.324 168.702 210.304 168.699 210.288 168.688L209.461 168.103C209.42 168.074 209.429 168.011 209.476 167.995L211.154 167.43ZM213.538 166.627C213.556 166.62 213.576 166.623 213.592 166.635L214.404 167.209C214.444 167.238 214.435 167.301 214.388 167.317L212.656 167.907C212.637 167.914 212.617 167.911 212.601 167.899L211.783 167.32C211.742 167.292 211.751 167.228 211.799 167.212L213.538 166.627ZM215.836 165.852C215.854 165.846 215.874 165.849 215.89 165.86L216.692 166.428C216.733 166.457 216.724 166.52 216.677 166.536L215.03 167.098C215.012 167.104 214.991 167.101 214.976 167.09L214.167 166.517C214.126 166.488 214.135 166.425 214.182 166.409L215.836 165.852ZM218.199 165.056C218.217 165.05 218.237 165.053 218.253 165.064L219.047 165.626C219.087 165.655 219.078 165.718 219.031 165.734L217.319 166.317C217.301 166.324 217.28 166.321 217.265 166.309L216.465 165.743C216.424 165.714 216.433 165.651 216.48 165.635L218.199 165.056ZM220.62 164.241C220.638 164.234 220.659 164.237 220.674 164.249L221.459 164.804C221.499 164.832 221.49 164.895 221.443 164.911L219.673 165.515C219.655 165.521 219.635 165.518 219.619 165.507L218.828 164.947C218.787 164.918 218.796 164.855 218.844 164.839L220.62 164.241ZM222.979 163.446C222.997 163.44 223.017 163.443 223.033 163.454L223.812 164.001C223.853 164.03 223.844 164.093 223.796 164.109L222.085 164.693C222.067 164.699 222.047 164.696 222.031 164.685L221.249 164.131C221.208 164.103 221.217 164.039 221.265 164.023L222.979 163.446ZM225.275 162.672C225.294 162.666 225.314 162.669 225.329 162.68L226.104 163.219C226.145 163.248 226.137 163.311 226.089 163.327L224.44 163.89C224.422 163.896 224.402 163.893 224.386 163.882L223.61 163.336C223.569 163.308 223.578 163.244 223.625 163.228L225.275 162.672Z" fill="#45669F"/>
    <path fill-rule="evenodd" clip-rule="evenodd" d="M231.489 162.001L232.881 162.922C233.092 163.062 233.051 163.385 232.812 163.467L230.486 164.266C230.395 164.298 230.294 164.284 230.215 164.229L230.031 164.102C230.08 164.251 230.01 164.43 229.84 164.488L228.243 165.037C228.151 165.069 228.049 165.055 227.97 164.999L227.791 164.874C227.839 165.023 227.768 165.2 227.6 165.258L226.008 165.805C225.916 165.837 225.814 165.823 225.734 165.766L225.56 165.642C225.607 165.791 225.536 165.968 225.368 166.026L223.716 166.594C223.623 166.625 223.521 166.611 223.441 166.554L223.269 166.431C223.315 166.58 223.244 166.756 223.077 166.813L221.367 167.401C221.275 167.433 221.172 167.418 221.093 167.361L220.92 167.238C220.967 167.387 220.896 167.563 220.728 167.62L219.075 168.189C218.982 168.221 218.88 168.206 218.8 168.149L218.628 168.026C218.675 168.175 218.604 168.351 218.436 168.408L216.847 168.955C216.754 168.986 216.652 168.972 216.572 168.915L216.4 168.792C216.447 168.941 216.376 169.117 216.208 169.174L214.535 169.749C214.442 169.781 214.34 169.766 214.26 169.709L214.088 169.587C214.134 169.735 214.063 169.911 213.896 169.969L212.283 170.524C212.19 170.555 212.088 170.541 212.008 170.484L211.836 170.361C211.882 170.51 211.811 170.686 211.644 170.743L210.048 171.292C209.956 171.323 209.854 171.309 209.774 171.252L209.602 171.129C209.648 171.278 209.577 171.454 209.41 171.511L207.754 172.08C207.662 172.112 207.559 172.097 207.48 172.04L207.307 171.918C207.354 172.066 207.283 172.242 207.115 172.3L205.541 172.841C205.448 172.873 205.346 172.858 205.266 172.801L205.094 172.678C205.14 172.827 205.069 173.003 204.902 173.061L203.269 173.622C203.176 173.654 203.074 173.639 202.994 173.582L202.822 173.459C202.868 173.608 202.797 173.784 202.63 173.842L200.927 174.427C200.834 174.459 200.732 174.444 200.652 174.387L199.311 173.431C199.109 173.287 199.154 172.973 199.389 172.892L201.093 172.308C201.185 172.276 201.287 172.291 201.367 172.348L201.54 172.47C201.493 172.322 201.564 172.146 201.732 172.088L203.366 171.527C203.458 171.496 203.56 171.511 203.64 171.567L203.813 171.69C203.766 171.542 203.837 171.366 204.005 171.308L205.58 170.767C205.673 170.736 205.775 170.75 205.855 170.807L206.027 170.93C205.981 170.782 206.052 170.605 206.22 170.548L207.876 169.98C207.968 169.948 208.071 169.963 208.15 170.02L208.323 170.142C208.276 169.994 208.347 169.818 208.515 169.76L210.111 169.212C210.204 169.181 210.306 169.196 210.386 169.252L210.558 169.375C210.512 169.227 210.583 169.051 210.75 168.993L212.364 168.439C212.457 168.407 212.559 168.422 212.639 168.479L212.811 168.602C212.765 168.453 212.836 168.277 213.004 168.22L214.678 167.645C214.77 167.613 214.873 167.628 214.952 167.685L215.125 167.808C215.078 167.659 215.15 167.483 215.317 167.426L216.907 166.88C217 166.848 217.102 166.863 217.182 166.92L217.354 167.043C217.308 166.894 217.379 166.718 217.546 166.661L219.2 166.093C219.293 166.061 219.395 166.076 219.475 166.133L219.647 166.256C219.601 166.107 219.672 165.931 219.84 165.874L221.55 165.287C221.642 165.255 221.745 165.27 221.825 165.327L221.997 165.449C221.951 165.301 222.022 165.125 222.189 165.067L223.836 164.502C223.928 164.47 224.03 164.485 224.11 164.541L224.285 164.665C224.238 164.516 224.309 164.34 224.477 164.282L226.06 163.739C226.152 163.707 226.253 163.721 226.333 163.777L226.512 163.903C226.464 163.753 226.535 163.576 226.703 163.518L228.29 162.974C228.381 162.942 228.481 162.956 228.561 163.011L228.745 163.138C228.696 162.989 228.766 162.81 228.936 162.752L231.223 161.967C231.312 161.936 231.41 161.949 231.489 162.001ZM231.301 162.198C231.319 162.192 231.339 162.195 231.355 162.205L232.746 163.126C232.789 163.154 232.781 163.219 232.733 163.235L230.407 164.035C230.389 164.041 230.369 164.038 230.353 164.027L229 163.092C228.958 163.063 228.967 163 229.014 162.983L231.301 162.198ZM201.226 172.547C201.21 172.536 201.19 172.533 201.171 172.539L199.468 173.124C199.421 173.14 199.412 173.203 199.452 173.232L200.793 174.187C200.809 174.199 200.83 174.202 200.848 174.195L202.551 173.61C202.598 173.594 202.607 173.531 202.567 173.502L201.226 172.547ZM203.19 173.391C203.171 173.397 203.151 173.394 203.135 173.383L201.795 172.427C201.755 172.399 201.764 172.336 201.811 172.32L203.444 171.759C203.463 171.753 203.483 171.756 203.499 171.767L204.838 172.721C204.879 172.75 204.87 172.813 204.823 172.829L203.19 173.391ZM205.462 172.61C205.443 172.616 205.423 172.613 205.407 172.602L204.068 171.647C204.028 171.619 204.037 171.556 204.084 171.54L205.659 170.999C205.678 170.993 205.698 170.996 205.714 171.007L207.052 171.961C207.093 171.989 207.083 172.052 207.037 172.068L205.462 172.61ZM208.009 170.219C207.993 170.208 207.973 170.205 207.954 170.211L206.298 170.779C206.251 170.796 206.242 170.858 206.283 170.887L207.621 171.841C207.636 171.852 207.657 171.855 207.675 171.849L209.331 171.28C209.378 171.264 209.387 171.201 209.346 171.172L208.009 170.219ZM209.97 171.06C209.951 171.066 209.931 171.063 209.915 171.052L208.578 170.099C208.538 170.071 208.547 170.008 208.594 169.992L210.19 169.444C210.208 169.438 210.229 169.441 210.245 169.452L211.58 170.404C211.621 170.433 211.612 170.496 211.565 170.512L209.97 171.06ZM212.204 170.292C212.185 170.298 212.165 170.295 212.149 170.284L210.814 169.332C210.773 169.303 210.782 169.241 210.829 169.225L212.443 168.671C212.462 168.664 212.482 168.667 212.498 168.679L213.833 169.63C213.873 169.659 213.864 169.721 213.817 169.738L212.204 170.292ZM214.812 167.885C214.796 167.873 214.775 167.87 214.757 167.877L213.082 168.451C213.036 168.467 213.026 168.53 213.067 168.559L214.401 169.51C214.417 169.521 214.438 169.524 214.456 169.518L216.129 168.943C216.176 168.927 216.185 168.864 216.145 168.835L214.812 167.885ZM216.768 168.723C216.75 168.729 216.729 168.726 216.713 168.715L215.38 167.765C215.34 167.736 215.349 167.673 215.396 167.657L216.986 167.112C217.004 167.105 217.025 167.108 217.041 167.12L218.373 168.069C218.413 168.098 218.404 168.161 218.357 168.177L216.768 168.723ZM218.996 167.957C218.978 167.964 218.957 167.961 218.941 167.949L217.61 167C217.569 166.971 217.578 166.908 217.625 166.892L219.279 166.325C219.298 166.318 219.318 166.321 219.334 166.333L220.665 167.281C220.706 167.31 220.696 167.373 220.649 167.389L218.996 167.957ZM221.684 165.526C221.668 165.515 221.647 165.512 221.629 165.518L219.918 166.105C219.871 166.121 219.862 166.184 219.903 166.213L221.234 167.161C221.249 167.173 221.27 167.176 221.288 167.169L222.998 166.582C223.045 166.566 223.054 166.503 223.013 166.474L221.684 165.526ZM223.637 166.362C223.618 166.368 223.598 166.365 223.582 166.354L222.252 165.407C222.212 165.378 222.221 165.315 222.268 165.299L223.915 164.734C223.933 164.727 223.954 164.73 223.97 164.741L225.304 165.686C225.345 165.715 225.336 165.778 225.289 165.794L223.637 166.362ZM225.929 165.574C225.911 165.58 225.891 165.577 225.875 165.566L224.54 164.621C224.5 164.593 224.509 164.53 224.556 164.514L226.139 163.97C226.157 163.964 226.178 163.967 226.194 163.978L227.536 164.919C227.577 164.947 227.568 165.011 227.521 165.027L225.929 165.574ZM228.423 163.213C228.407 163.202 228.387 163.199 228.368 163.205L226.782 163.749C226.735 163.766 226.726 163.829 226.767 163.858L228.109 164.798C228.125 164.809 228.145 164.812 228.164 164.806L229.762 164.257C229.809 164.24 229.818 164.177 229.776 164.148L228.423 163.213Z" fill="#45669F"/>
    <path fill-rule="evenodd" clip-rule="evenodd" d="M229.757 164.757L231.349 164.212C231.44 164.181 231.541 164.195 231.62 164.249L231.835 164.398C231.758 164.242 231.827 164.035 232.011 163.972L233.475 163.474C233.563 163.444 233.661 163.457 233.739 163.508L237.351 165.879C237.563 166.018 237.524 166.341 237.285 166.424L236.178 166.811C236.084 166.844 235.979 166.828 235.899 166.769L235.806 166.702C235.814 166.83 235.741 166.962 235.601 167.01L233.997 167.566C233.905 167.598 233.803 167.584 233.723 167.528L233.546 167.404C233.594 167.552 233.523 167.73 233.355 167.788L231.756 168.342C231.664 168.374 231.562 168.359 231.482 168.303L231.308 168.18C231.355 168.328 231.285 168.505 231.117 168.563L229.458 169.138C229.365 169.17 229.263 169.155 229.182 169.098L229.012 168.976C229.058 169.125 228.987 169.3 228.82 169.358L227.103 169.953C227.01 169.985 226.908 169.97 226.828 169.913L226.657 169.792C226.703 169.94 226.633 170.116 226.466 170.174L224.804 170.749C224.712 170.781 224.609 170.766 224.529 170.709L224.358 170.588C224.405 170.736 224.334 170.912 224.167 170.97L222.57 171.522C222.478 171.555 222.375 171.54 222.295 171.483L222.124 171.361C222.171 171.51 222.1 171.685 221.933 171.743L220.252 172.325C220.159 172.357 220.057 172.343 219.977 172.286L219.806 172.164C219.852 172.312 219.781 172.488 219.614 172.546L217.994 173.107C217.901 173.139 217.798 173.125 217.718 173.068L217.547 172.946C217.594 173.094 217.523 173.27 217.356 173.328L215.753 173.883C215.66 173.915 215.558 173.9 215.478 173.843L215.307 173.722C215.353 173.87 215.283 174.046 215.115 174.104L213.453 174.68C213.36 174.712 213.258 174.697 213.177 174.64L213.007 174.518C213.053 174.667 212.982 174.843 212.815 174.9L211.233 175.448C211.14 175.48 211.038 175.466 210.958 175.409L210.787 175.287C210.833 175.435 210.763 175.611 210.596 175.669L208.955 176.237C208.863 176.269 208.76 176.254 208.68 176.197L208.509 176.076C208.556 176.224 208.485 176.4 208.318 176.458L205.274 177.512C205.181 177.544 205.079 177.529 204.999 177.472L203.65 176.511C203.447 176.367 203.492 176.054 203.727 175.973L206.775 174.922C206.868 174.89 206.97 174.905 207.05 174.962L207.222 175.084C207.175 174.935 207.246 174.759 207.414 174.702L209.056 174.135C209.149 174.103 209.251 174.118 209.331 174.175L209.503 174.298C209.456 174.149 209.527 173.973 209.695 173.915L211.279 173.369C211.372 173.337 211.474 173.352 211.554 173.409L211.726 173.531C211.679 173.383 211.75 173.207 211.918 173.149L213.583 172.575C213.675 172.543 213.778 172.558 213.858 172.615L214.029 172.737C213.983 172.588 214.054 172.412 214.221 172.355L215.826 171.801C215.919 171.769 216.021 171.784 216.101 171.841L216.273 171.963C216.227 171.815 216.298 171.639 216.465 171.581L218.088 171.022C218.18 170.99 218.283 171.005 218.363 171.061L218.535 171.184C218.488 171.035 218.559 170.859 218.726 170.802L220.41 170.221C220.502 170.189 220.605 170.204 220.685 170.261L220.856 170.383C220.81 170.235 220.881 170.059 221.048 170.001L222.647 169.45C222.739 169.418 222.842 169.433 222.922 169.49L223.094 169.612C223.047 169.464 223.118 169.288 223.285 169.23L224.949 168.656C225.042 168.624 225.144 168.639 225.224 168.696L225.396 168.818C225.349 168.67 225.42 168.494 225.587 168.436L227.307 167.843C227.4 167.811 227.502 167.826 227.582 167.883L227.754 168.005C227.707 167.857 227.778 167.681 227.946 167.623L229.601 167.052C229.694 167.021 229.795 167.035 229.875 167.092L230.05 167.215C230.003 167.066 230.073 166.89 230.241 166.832L231.834 166.283C231.925 166.251 232.027 166.265 232.107 166.321L232.285 166.446C232.237 166.297 232.307 166.119 232.476 166.061L234.071 165.511C234.098 165.502 234.126 165.497 234.155 165.495L233.931 165.332L233.51 165.478C233.419 165.51 233.318 165.496 233.238 165.441L233.055 165.315C233.104 165.464 233.034 165.643 232.864 165.701L231.263 166.252C231.171 166.284 231.07 166.27 230.99 166.214L230.812 166.089C230.86 166.238 230.789 166.415 230.621 166.473L229.026 167.022C228.934 167.054 228.832 167.04 228.752 166.983L228.577 166.86C228.624 167.008 228.553 167.185 228.386 167.243L226.73 167.813C226.637 167.845 226.535 167.83 226.455 167.773L226.283 167.651C226.329 167.799 226.258 167.975 226.091 168.033L224.378 168.622C224.286 168.654 224.183 168.64 224.103 168.583L223.931 168.46C223.978 168.609 223.907 168.785 223.739 168.842L222.083 169.413C221.99 169.445 221.888 169.43 221.808 169.373L221.636 169.25C221.682 169.399 221.611 169.575 221.444 169.633L219.852 170.181C219.759 170.213 219.657 170.198 219.577 170.141L219.405 170.018C219.451 170.167 219.38 170.343 219.213 170.401L217.536 170.978C217.443 171.01 217.341 170.995 217.261 170.938L217.089 170.816C217.136 170.964 217.065 171.14 216.897 171.198L215.28 171.754C215.188 171.786 215.085 171.771 215.006 171.715L214.833 171.592C214.88 171.741 214.809 171.917 214.642 171.974L213.043 172.525C212.95 172.556 212.848 172.542 212.768 172.485L212.596 172.362C212.643 172.511 212.572 172.687 212.404 172.745L210.746 173.316C210.653 173.347 210.551 173.333 210.471 173.276L210.299 173.153C210.345 173.302 210.274 173.478 210.107 173.535L208.529 174.079C208.436 174.111 208.334 174.096 208.254 174.039L208.082 173.916C208.128 174.065 208.057 174.241 207.89 174.299L206.254 174.862C206.161 174.894 206.059 174.879 205.979 174.822L205.807 174.699C205.853 174.848 205.782 175.024 205.615 175.082L203.066 175.959C202.974 175.991 202.871 175.976 202.791 175.919L201.448 174.962C201.245 174.818 201.29 174.504 201.525 174.423L204.079 173.549C204.171 173.517 204.273 173.532 204.353 173.589L204.526 173.712C204.48 173.564 204.551 173.387 204.719 173.33L206.358 172.769C206.45 172.737 206.552 172.752 206.632 172.809L206.805 172.932C206.759 172.783 206.83 172.607 206.998 172.55L208.578 172.009C208.671 171.977 208.773 171.992 208.853 172.049L209.026 172.172C208.979 172.023 209.051 171.847 209.218 171.789L210.88 171.22C210.972 171.189 211.074 171.204 211.154 171.26L211.327 171.384C211.281 171.235 211.352 171.059 211.52 171.001L213.121 170.453C213.214 170.421 213.316 170.436 213.396 170.493L213.569 170.616C213.522 170.468 213.593 170.291 213.761 170.234L215.381 169.679C215.473 169.648 215.575 169.663 215.655 169.719L215.828 169.843C215.782 169.694 215.853 169.518 216.021 169.46L217.7 168.885C217.793 168.853 217.895 168.868 217.975 168.925L218.148 169.048C218.101 168.9 218.173 168.723 218.34 168.666L219.935 168.12C220.028 168.088 220.13 168.103 220.21 168.16L220.383 168.283C220.336 168.135 220.408 167.958 220.575 167.901L222.235 167.333C222.327 167.301 222.43 167.316 222.509 167.373L222.683 167.496C222.636 167.347 222.707 167.171 222.875 167.113L224.591 166.526C224.683 166.494 224.785 166.509 224.865 166.566L225.038 166.689C224.992 166.54 225.063 166.364 225.231 166.307L226.883 165.741C226.976 165.709 227.077 165.724 227.157 165.78L227.333 165.905C227.286 165.756 227.357 165.579 227.525 165.521L229.114 164.977C229.205 164.946 229.307 164.96 229.386 165.016L229.566 165.142C229.518 164.993 229.589 164.815 229.757 164.757ZM229.821 165.097C229.78 165.068 229.789 165.005 229.836 164.988L231.428 164.443C231.446 164.437 231.466 164.44 231.482 164.451L232.8 165.361C232.841 165.39 232.833 165.453 232.785 165.47L231.184 166.021C231.166 166.027 231.146 166.024 231.13 166.013L229.821 165.097ZM202.987 175.728C202.969 175.734 202.948 175.731 202.932 175.72L201.588 174.763C201.548 174.734 201.557 174.671 201.604 174.655L204.157 173.781C204.176 173.774 204.196 173.777 204.212 173.789L205.551 174.742C205.592 174.771 205.583 174.834 205.536 174.85L202.987 175.728ZM206.175 174.63C206.156 174.637 206.136 174.634 206.12 174.622L204.782 173.669C204.741 173.641 204.75 173.578 204.797 173.562L206.436 173C206.455 172.994 206.475 172.997 206.491 173.008L207.826 173.959C207.867 173.988 207.858 174.051 207.811 174.067L206.175 174.63ZM208.712 172.248C208.696 172.237 208.675 172.234 208.657 172.24L207.076 172.781C207.029 172.797 207.02 172.86 207.061 172.889L208.395 173.839C208.411 173.851 208.431 173.854 208.45 173.847L210.028 173.304C210.075 173.288 210.084 173.225 210.043 173.196L208.712 172.248ZM210.667 173.084C210.648 173.09 210.628 173.087 210.612 173.076L209.281 172.129C209.241 172.1 209.25 172.037 209.297 172.021L210.958 171.452C210.977 171.446 210.997 171.449 211.013 171.46L212.341 172.405C212.381 172.434 212.372 172.497 212.325 172.513L210.667 173.084ZM212.964 172.293C212.945 172.3 212.925 172.297 212.909 172.285L211.583 171.341C211.542 171.312 211.551 171.249 211.598 171.233L213.2 170.685C213.218 170.678 213.239 170.681 213.255 170.693L214.578 171.635C214.619 171.664 214.609 171.727 214.563 171.743L212.964 172.293ZM215.514 169.919C215.498 169.908 215.478 169.905 215.459 169.911L213.84 170.466C213.793 170.482 213.784 170.544 213.824 170.573L215.146 171.515C215.162 171.526 215.183 171.529 215.201 171.523L216.818 170.966C216.865 170.95 216.874 170.887 216.834 170.859L215.514 169.919ZM217.457 170.746C217.438 170.753 217.418 170.75 217.402 170.738L216.084 169.8C216.043 169.771 216.052 169.708 216.099 169.692L217.779 169.117C217.797 169.11 217.818 169.113 217.834 169.125L219.149 170.061C219.19 170.09 219.181 170.153 219.134 170.169L217.457 170.746ZM219.773 169.949C219.754 169.956 219.734 169.953 219.718 169.941L218.403 169.005C218.363 168.977 218.372 168.914 218.419 168.898L220.014 168.352C220.032 168.345 220.053 168.348 220.069 168.36L221.38 169.293C221.421 169.322 221.412 169.385 221.365 169.401L219.773 169.949ZM222.368 167.572C222.352 167.561 222.332 167.558 222.314 167.564L220.654 168.132C220.607 168.148 220.598 168.211 220.638 168.24L221.949 169.173C221.965 169.185 221.985 169.188 222.004 169.181L223.66 168.611C223.707 168.595 223.716 168.532 223.676 168.503L222.368 167.572ZM224.299 168.391C224.281 168.397 224.26 168.394 224.244 168.383L222.938 167.453C222.897 167.424 222.907 167.361 222.954 167.345L224.669 166.758C224.688 166.751 224.708 166.754 224.724 166.766L226.028 167.694C226.068 167.722 226.059 167.785 226.012 167.801L224.299 168.391ZM226.651 167.581C226.632 167.588 226.612 167.585 226.596 167.573L225.294 166.646C225.253 166.617 225.262 166.554 225.309 166.538L226.962 165.973C226.981 165.966 227.001 165.969 227.017 165.98L228.322 166.904C228.363 166.932 228.354 166.995 228.307 167.011L226.651 167.581ZM229.247 165.217C229.231 165.205 229.211 165.203 229.192 165.209L227.604 165.753C227.556 165.769 227.547 165.832 227.588 165.861L228.892 166.783C228.908 166.794 228.929 166.797 228.947 166.791L230.542 166.242C230.589 166.226 230.598 166.163 230.557 166.134L229.247 165.217ZM232.555 166.293C232.508 166.309 232.499 166.372 232.54 166.401L233.862 167.327C233.878 167.338 233.899 167.341 233.917 167.335L235.522 166.779C235.569 166.763 235.578 166.699 235.537 166.671L234.204 165.75C234.188 165.739 234.168 165.737 234.15 165.743L232.555 166.293ZM205.139 177.272C205.155 177.284 205.176 177.287 205.194 177.28L208.238 176.226C208.285 176.21 208.294 176.147 208.254 176.119L206.909 175.161C206.893 175.15 206.873 175.147 206.854 175.153L203.806 176.204C203.759 176.22 203.75 176.283 203.791 176.312L205.139 177.272ZM208.821 175.998C208.837 176.009 208.857 176.012 208.876 176.006L210.516 175.438C210.563 175.421 210.572 175.359 210.531 175.33L209.19 174.375C209.174 174.363 209.154 174.36 209.135 174.367L207.493 174.933C207.446 174.949 207.437 175.012 207.477 175.041L208.821 175.998ZM211.358 173.6C211.377 173.594 211.397 173.597 211.413 173.608L212.751 174.561C212.792 174.59 212.783 174.653 212.736 174.669L211.154 175.217C211.135 175.223 211.115 175.22 211.099 175.209L209.758 174.254C209.718 174.226 209.727 174.163 209.774 174.147L211.358 173.6ZM213.318 174.44C213.334 174.452 213.355 174.455 213.373 174.448L215.036 173.873C215.083 173.856 215.092 173.794 215.051 173.765L213.717 172.814C213.701 172.803 213.68 172.8 213.662 172.806L211.997 173.38C211.95 173.397 211.941 173.459 211.981 173.488L213.318 174.44ZM215.619 173.644C215.635 173.655 215.655 173.658 215.674 173.652L217.277 173.097C217.323 173.08 217.332 173.018 217.292 172.989L215.96 172.041C215.944 172.029 215.924 172.026 215.905 172.033L214.3 172.586C214.253 172.602 214.244 172.665 214.285 172.694L215.619 173.644ZM218.167 171.253C218.185 171.247 218.206 171.25 218.222 171.261L219.55 172.207C219.591 172.236 219.582 172.299 219.535 172.315L217.914 172.876C217.896 172.882 217.875 172.879 217.859 172.868L216.528 171.92C216.488 171.892 216.497 171.829 216.544 171.813L218.167 171.253ZM220.117 172.086C220.133 172.097 220.154 172.1 220.172 172.094L221.853 171.512C221.9 171.496 221.909 171.433 221.869 171.404L220.544 170.461C220.528 170.449 220.507 170.446 220.489 170.453L218.805 171.033C218.758 171.049 218.749 171.112 218.79 171.141L220.117 172.086ZM222.436 171.283C222.452 171.295 222.472 171.298 222.491 171.291L224.087 170.738C224.134 170.722 224.143 170.659 224.103 170.631L222.781 169.689C222.765 169.678 222.744 169.675 222.726 169.681L221.127 170.233C221.08 170.249 221.071 170.311 221.112 170.34L222.436 171.283ZM225.028 168.888C225.047 168.881 225.067 168.884 225.083 168.896L226.402 169.835C226.442 169.863 226.433 169.926 226.386 169.942L224.725 170.518C224.706 170.524 224.686 170.521 224.67 170.51L223.349 169.569C223.309 169.54 223.318 169.477 223.364 169.461L225.028 168.888ZM226.969 169.714C226.985 169.725 227.005 169.728 227.024 169.722L228.741 169.127C228.788 169.111 228.797 169.048 228.756 169.019L227.441 168.083C227.425 168.071 227.405 168.068 227.386 168.075L225.667 168.668C225.62 168.684 225.611 168.747 225.651 168.775L226.969 169.714ZM229.323 168.898C229.339 168.91 229.36 168.913 229.378 168.906L231.038 168.332C231.085 168.315 231.094 168.253 231.053 168.224L229.735 167.292C229.719 167.28 229.699 167.277 229.68 167.284L228.025 167.855C227.978 167.871 227.969 167.934 228.009 167.962L229.323 168.898ZM231.913 166.514C231.931 166.508 231.951 166.511 231.967 166.522L233.291 167.449C233.332 167.477 233.323 167.54 233.276 167.557L231.677 168.11C231.658 168.117 231.638 168.114 231.622 168.103L230.305 167.171C230.264 167.142 230.273 167.079 230.32 167.063L231.913 166.514ZM233.606 163.713C233.59 163.703 233.571 163.7 233.553 163.706L232.089 164.204C232.043 164.22 232.033 164.282 232.073 164.311L232.642 164.732L233.376 165.239C233.392 165.25 233.412 165.253 233.43 165.247L233.941 165.069C233.96 165.062 233.981 165.066 233.997 165.077L236.042 166.571C236.058 166.583 236.079 166.586 236.098 166.58L237.205 166.193C237.253 166.176 237.26 166.112 237.218 166.084L233.606 163.713Z" fill="#45669F"/>
    <path fill-rule="evenodd" clip-rule="evenodd" d="M238.299 166.382L239.643 167.27C239.854 167.409 239.814 167.731 239.575 167.814L234.892 169.446C234.8 169.479 234.698 169.464 234.618 169.409L234.442 169.285C234.49 169.434 234.42 169.611 234.252 169.67L232.675 170.219C232.582 170.252 232.48 170.237 232.4 170.181L232.227 170.059C232.274 170.207 232.204 170.383 232.037 170.442L230.399 171.013C230.306 171.045 230.203 171.03 230.123 170.973L229.953 170.852C230 171.001 229.929 171.176 229.762 171.234L228.066 171.826C227.974 171.858 227.871 171.843 227.791 171.786L227.621 171.665C227.667 171.814 227.597 171.989 227.43 172.047L225.79 172.619C225.697 172.651 225.594 172.637 225.514 172.58L225.344 172.459C225.39 172.607 225.32 172.783 225.153 172.841L223.577 173.39C223.484 173.423 223.381 173.408 223.301 173.351L223.131 173.23C223.178 173.378 223.107 173.554 222.94 173.612L221.28 174.191C221.187 174.223 221.085 174.209 221.004 174.151L220.835 174.031C220.881 174.179 220.811 174.355 220.644 174.413L219.043 174.971C218.95 175.003 218.848 174.988 218.767 174.931L218.597 174.81C218.644 174.959 218.573 175.134 218.407 175.192L216.824 175.744C216.731 175.776 216.628 175.762 216.548 175.705L216.378 175.584C216.425 175.732 216.354 175.908 216.188 175.966L214.546 176.538C214.453 176.571 214.35 176.556 214.27 176.499L214.1 176.378C214.146 176.526 214.076 176.702 213.909 176.76L212.347 177.305C212.254 177.337 212.151 177.322 212.071 177.265L211.901 177.144C211.947 177.293 211.877 177.468 211.71 177.526L210.091 178.091C209.998 178.123 209.895 178.109 209.815 178.052L209.645 177.931C209.691 178.079 209.621 178.255 209.454 178.313L207.355 179.045C207.262 179.077 207.159 179.062 207.079 179.005L205.74 178.053C205.538 177.909 205.582 177.595 205.817 177.514L207.92 176.785C208.013 176.753 208.115 176.768 208.196 176.825L208.367 176.946C208.32 176.798 208.391 176.622 208.558 176.564L210.18 176.002C210.273 175.97 210.376 175.984 210.456 176.041L210.627 176.163C210.58 176.014 210.651 175.839 210.818 175.781L212.383 175.238C212.476 175.206 212.579 175.221 212.659 175.278L212.83 175.399C212.783 175.251 212.854 175.075 213.021 175.017L214.666 174.447C214.759 174.415 214.861 174.43 214.941 174.487L215.112 174.608C215.066 174.46 215.137 174.284 215.304 174.226L216.889 173.676C216.982 173.644 217.084 173.659 217.165 173.716L217.336 173.838C217.289 173.689 217.36 173.513 217.527 173.455L219.13 172.9C219.223 172.867 219.326 172.882 219.406 172.939L219.577 173.061C219.53 172.912 219.601 172.737 219.768 172.679L221.431 172.102C221.524 172.07 221.627 172.085 221.707 172.142L221.878 172.263C221.831 172.115 221.902 171.939 222.069 171.881L223.648 171.334C223.741 171.302 223.843 171.316 223.924 171.373L224.095 171.495C224.048 171.347 224.119 171.171 224.286 171.113L225.929 170.543C226.022 170.511 226.124 170.526 226.204 170.583L226.375 170.704C226.329 170.556 226.4 170.38 226.567 170.322L228.266 169.733C228.359 169.701 228.461 169.716 228.541 169.773L228.712 169.895C228.666 169.746 228.736 169.57 228.904 169.512L230.538 168.946C230.631 168.914 230.733 168.928 230.813 168.985L230.987 169.107C230.94 168.959 231.01 168.782 231.178 168.724L232.749 168.179C232.841 168.148 232.942 168.162 233.022 168.218L233.2 168.342C233.152 168.193 233.222 168.015 233.39 167.957L238.032 166.348C238.121 166.317 238.22 166.33 238.299 166.382ZM238.112 166.58C238.13 166.573 238.149 166.576 238.165 166.586L239.509 167.474C239.551 167.502 239.543 167.566 239.495 167.583L234.812 169.215C234.794 169.222 234.773 169.219 234.757 169.208L233.455 168.297C233.414 168.268 233.423 168.205 233.47 168.189L238.112 166.58ZM208.055 177.024C208.039 177.013 208.018 177.01 208 177.016L205.896 177.745C205.849 177.762 205.84 177.824 205.881 177.853L207.22 178.806C207.236 178.817 207.256 178.82 207.275 178.813L209.374 178.082C209.421 178.065 209.43 178.003 209.39 177.974L208.055 177.024ZM210.315 176.241C210.299 176.229 210.279 176.227 210.26 176.233L208.637 176.795C208.59 176.812 208.582 176.874 208.622 176.903L209.956 177.852C209.972 177.863 209.992 177.866 210.011 177.86L211.63 177.295C211.677 177.279 211.686 177.216 211.646 177.188L210.315 176.241ZM212.267 177.073C212.248 177.08 212.228 177.077 212.212 177.066L210.882 176.12C210.842 176.091 210.851 176.028 210.898 176.012L212.463 175.469C212.481 175.463 212.502 175.466 212.518 175.477L213.844 176.421C213.885 176.45 213.876 176.513 213.829 176.529L212.267 177.073ZM214.466 176.307C214.447 176.313 214.427 176.311 214.411 176.299L213.085 175.356C213.045 175.327 213.054 175.265 213.1 175.248L214.746 174.678C214.764 174.672 214.785 174.675 214.801 174.686L216.123 175.627C216.163 175.656 216.155 175.718 216.108 175.735L214.466 176.307ZM217.024 173.916C217.008 173.904 216.987 173.901 216.969 173.908L215.383 174.457C215.336 174.474 215.327 174.536 215.368 174.565L216.689 175.505C216.705 175.516 216.726 175.519 216.744 175.513L218.327 174.961C218.374 174.945 218.382 174.882 218.342 174.854L217.024 173.916ZM218.963 174.739C218.945 174.746 218.924 174.743 218.908 174.732L217.591 173.794C217.551 173.766 217.559 173.703 217.606 173.687L219.21 173.131C219.228 173.124 219.249 173.127 219.265 173.139L220.579 174.074C220.62 174.103 220.611 174.165 220.564 174.181L218.963 174.739ZM221.2 173.96C221.182 173.966 221.161 173.963 221.145 173.952L219.832 173.018C219.792 172.989 219.801 172.926 219.848 172.91L221.511 172.333C221.529 172.327 221.55 172.33 221.566 172.341L222.876 173.273C222.916 173.302 222.907 173.365 222.861 173.381L221.2 173.96ZM223.783 171.573C223.767 171.562 223.746 171.559 223.728 171.565L222.148 172.112C222.101 172.129 222.093 172.191 222.133 172.22L223.442 173.151C223.458 173.163 223.478 173.166 223.497 173.159L225.073 172.61C225.12 172.593 225.129 172.531 225.089 172.502L223.783 171.573ZM225.71 172.388C225.691 172.394 225.671 172.391 225.655 172.38L224.35 171.452C224.31 171.423 224.318 171.36 224.365 171.344L226.009 170.775C226.027 170.768 226.048 170.771 226.064 170.782L227.365 171.708C227.406 171.737 227.397 171.8 227.35 171.816L225.71 172.388ZM227.987 171.594C227.968 171.601 227.947 171.598 227.931 171.586L226.631 170.661C226.59 170.632 226.599 170.57 226.646 170.554L228.345 169.965C228.364 169.958 228.384 169.961 228.4 169.972L229.698 170.896C229.738 170.924 229.729 170.987 229.683 171.003L227.987 171.594ZM230.673 169.185C230.657 169.173 230.636 169.171 230.618 169.177L228.983 169.744C228.936 169.76 228.927 169.823 228.968 169.851L230.264 170.774C230.28 170.785 230.301 170.788 230.319 170.781L231.957 170.211C232.004 170.194 232.013 170.131 231.972 170.103L230.673 169.185ZM232.595 169.988C232.576 169.995 232.556 169.992 232.54 169.98L231.242 169.063C231.201 169.035 231.21 168.972 231.257 168.955L232.828 168.411C232.847 168.404 232.867 168.407 232.883 168.418L234.187 169.33C234.228 169.359 234.219 169.422 234.172 169.438L232.595 169.988Z" fill="#45669F"/>
    <path fill-rule="evenodd" clip-rule="evenodd" d="M241.946 168.892L241.414 168.541C241.335 168.489 241.237 168.476 241.147 168.508L239.587 169.05C239.418 169.109 239.348 169.287 239.397 169.436L238.199 168.61C238.119 168.555 238.018 168.541 237.927 168.573L236.356 169.12C236.121 169.202 236.077 169.517 236.282 169.66L236.816 170.034C236.786 170.035 236.756 170.041 236.726 170.051L235.147 170.605C234.98 170.664 234.91 170.84 234.957 170.988L233.776 170.154C233.696 170.097 233.594 170.083 233.501 170.115L231.869 170.684C231.702 170.742 231.631 170.917 231.678 171.066L231.508 170.945C231.428 170.888 231.325 170.873 231.232 170.905L228.611 171.819C228.444 171.877 228.374 172.053 228.42 172.201L228.25 172.08C228.17 172.023 228.067 172.008 227.974 172.041L217.418 175.719C217.251 175.777 217.181 175.953 217.227 176.101L217.057 175.98C216.977 175.923 216.874 175.908 216.781 175.941L214.678 176.674C214.511 176.732 214.441 176.908 214.487 177.056L214.317 176.935C214.237 176.878 214.134 176.863 214.041 176.896L212.458 177.447C212.292 177.505 212.221 177.681 212.268 177.829L212.098 177.708C212.017 177.651 211.915 177.637 211.822 177.669L210.233 178.223C210.066 178.281 209.996 178.456 210.042 178.605L209.872 178.484C209.792 178.427 209.689 178.412 209.596 178.444L207.991 179.004C207.757 179.085 207.713 179.399 207.916 179.543L209.532 180.685C209.612 180.742 209.715 180.756 209.808 180.724L211.401 180.163C211.567 180.105 211.637 179.929 211.591 179.781L211.758 179.901C211.839 179.958 211.942 179.973 212.035 179.94L213.619 179.382C213.785 179.324 213.855 179.149 213.809 179.001L213.977 179.12C214.057 179.177 214.16 179.192 214.254 179.159L215.831 178.604C215.997 178.545 216.067 178.37 216.021 178.222L216.189 178.342C216.269 178.399 216.372 178.413 216.466 178.381L218.562 177.643C218.729 177.584 218.799 177.409 218.752 177.261L218.92 177.38C219.001 177.438 219.104 177.452 219.197 177.419L229.718 173.716C229.884 173.658 229.955 173.483 229.908 173.335L230.076 173.454C230.157 173.511 230.26 173.526 230.353 173.493L232.966 172.574C233.132 172.515 233.202 172.34 233.155 172.192L233.323 172.311C233.404 172.369 233.507 172.383 233.6 172.35L235.234 171.775C235.401 171.716 235.471 171.541 235.424 171.392L235.594 171.513C235.675 171.57 235.777 171.584 235.87 171.551L237.451 170.995C237.619 170.936 237.688 170.759 237.641 170.611L237.815 170.733C237.895 170.789 237.997 170.803 238.09 170.77L239.669 170.214C239.837 170.155 239.906 169.977 239.858 169.828L240.037 169.952C240.117 170.007 240.218 170.021 240.31 169.989L241.879 169.436C242.117 169.353 242.157 169.031 241.946 168.892ZM241.28 168.745C241.265 168.735 241.245 168.733 241.227 168.739L239.666 169.281C239.619 169.298 239.611 169.361 239.652 169.39L240.175 169.751C240.191 169.762 240.211 169.764 240.229 169.758L241.799 169.206C241.846 169.189 241.854 169.125 241.812 169.097L241.28 168.745ZM238.061 168.811C238.045 168.8 238.025 168.798 238.007 168.804L236.436 169.351C236.389 169.368 236.38 169.431 236.421 169.459L236.99 169.857L238.704 169.255L238.061 168.811ZM237.954 170.532L237.237 170.03L238.953 169.427L239.603 169.875C239.644 169.904 239.636 169.967 239.588 169.983L238.009 170.539C237.99 170.546 237.97 170.543 237.954 170.532ZM235.228 170.836C235.181 170.853 235.172 170.915 235.213 170.944L235.734 171.313C235.751 171.324 235.771 171.327 235.79 171.32L237.371 170.764C237.418 170.747 237.426 170.684 237.386 170.656L236.862 170.289C236.846 170.278 236.825 170.275 236.807 170.282L235.228 170.836ZM233.636 170.354C233.62 170.342 233.6 170.339 233.581 170.346L231.948 170.915C231.902 170.931 231.893 170.994 231.933 171.023L233.464 172.112C233.48 172.123 233.501 172.126 233.519 172.119L235.154 171.544C235.2 171.528 235.209 171.465 235.169 171.436L233.636 170.354ZM228.691 172.05C228.644 172.066 228.635 172.129 228.675 172.158L230.217 173.254C230.233 173.266 230.254 173.269 230.272 173.262L232.885 172.343C232.932 172.326 232.94 172.264 232.9 172.235L231.367 171.145C231.351 171.133 231.331 171.13 231.312 171.137L228.691 172.05ZM228.109 172.28C228.093 172.268 228.073 172.265 228.054 172.272L217.498 175.95C217.451 175.966 217.442 176.029 217.483 176.058L219.061 177.181C219.077 177.192 219.098 177.195 219.116 177.188L229.638 173.486C229.684 173.469 229.693 173.407 229.653 173.378L228.109 172.28ZM214.758 176.905C214.711 176.921 214.702 176.984 214.742 177.013L216.33 178.142C216.346 178.153 216.366 178.156 216.385 178.15L218.482 177.412C218.528 177.395 218.537 177.333 218.497 177.304L216.916 176.18C216.9 176.168 216.88 176.165 216.861 176.172L214.758 176.905ZM214.176 177.135C214.16 177.123 214.14 177.12 214.121 177.127L212.538 177.678C212.491 177.695 212.483 177.757 212.523 177.786L214.118 178.92C214.134 178.932 214.154 178.935 214.173 178.928L215.751 178.373C215.797 178.357 215.806 178.294 215.766 178.265L214.176 177.135ZM210.313 178.454C210.266 178.47 210.257 178.533 210.297 178.562L211.899 179.701C211.915 179.713 211.936 179.716 211.955 179.709L213.539 179.152C213.585 179.135 213.594 179.073 213.554 179.044L211.957 177.908C211.941 177.897 211.92 177.894 211.902 177.9L210.313 178.454ZM209.731 178.684C209.715 178.672 209.695 178.669 209.676 178.676L208.071 179.235C208.024 179.251 208.016 179.314 208.056 179.343L209.672 180.485C209.688 180.497 209.709 180.499 209.727 180.493L211.32 179.932C211.367 179.916 211.376 179.853 211.335 179.825L209.731 178.684Z" fill="#45669F"/>
    <path fill-rule="evenodd" clip-rule="evenodd" d="M229.652 160.099C229.262 159.842 228.777 159.78 228.335 159.929L195.427 171.006L195.427 171.005C195.177 171.076 194.965 171.24 194.809 171.446C194.598 171.726 194.477 172.098 194.477 172.497C194.477 172.896 194.598 173.269 194.809 173.548C195.02 173.828 195.334 174.028 195.706 174.028C195.815 174.028 195.92 174.011 196.019 173.979L196.035 173.973C196.051 173.968 196.066 173.962 196.081 173.956L197.261 173.522L208.81 181.677C209.212 181.961 209.726 182.032 210.19 181.869L243.26 170.211C243.737 170.043 243.814 169.4 243.392 169.122L229.652 160.099ZM196.282 172.831L195.242 172.096C195.217 172.078 195.193 172.058 195.171 172.038C195.118 172.171 195.086 172.327 195.086 172.497C195.086 172.775 195.171 173.015 195.295 173.179C195.418 173.342 195.566 173.416 195.706 173.416C195.845 173.416 195.993 173.342 196.117 173.179C196.187 173.085 196.245 172.967 196.282 172.831ZM228.529 160.509C228.794 160.419 229.085 160.457 229.319 160.611L243.058 169.634L209.988 181.292C209.71 181.39 209.401 181.347 209.16 181.177L195.593 171.596L228.529 160.509Z" fill="#305594"/>
    <defs>
    <linearGradient id="paint0_linear_11620_102882" x1="198.727" y1="171.892" x2="193.999" y2="176.042" gradientUnits="userSpaceOnUse">
    <stop offset="0.21875" stop-color="#B2C8EB" stop-opacity="0.7"/>
    <stop offset="0.983896" stop-color="#B2C8EB" stop-opacity="0.3"/>
    </linearGradient>
    </defs>
    </g>

<g class="mouse"> 
<path d="M245.507 165.084L246.655 164.584L250.903 163.124C254.628 164.098 262.55 166.01 262.269 166.698C261.733 168.01 260.608 168.593 258.846 168.952C257.252 169.277 255.539 169.29 251.779 167.892C249.069 166.884 245.507 165.084 245.507 165.084Z" fill="url(#paint0_linear_11620_102936)"/>
<path d="M257.434 167.471C259.874 167.809 261.747 167.067 261.959 166.516C262.172 165.964 262.039 164.97 262.039 164.97C262.039 164.97 246.982 162.946 246.04 163.537L246.747 164.247C250.397 165.193 256.035 167.278 257.434 167.471Z" fill="#BDD0EE"/>
<path d="M261.94 164.548C260.88 162.064 254.3 161.088 251.496 161.488C250.938 161.568 250.18 161.697 249.575 161.887C248.057 162.362 246.882 163.029 246.04 163.537C246.629 163.537 247.054 163.412 248.734 163.56C253.933 164.017 256.042 165.768 257.252 166.375C258.462 166.983 262.788 166.535 261.94 164.548Z" fill="#E3ECFB"/>
<path fill-rule="evenodd" clip-rule="evenodd" d="M262.136 164.465C261.843 163.778 261.183 163.221 260.356 162.778C259.525 162.332 258.496 161.984 257.422 161.729C255.276 161.221 252.902 161.072 251.467 161.277C250.907 161.357 250.134 161.488 249.512 161.683C247.98 162.163 246.793 162.835 245.947 163.344C245.941 163.348 245.934 163.352 245.927 163.356L245.7 163.498L246.637 164.44L246.694 164.454C248.476 164.916 250.736 165.651 252.749 166.306L252.869 166.345C253.889 166.677 254.841 166.986 255.626 167.224C256.405 167.461 257.036 167.633 257.406 167.684C258.653 167.856 259.759 167.754 260.587 167.534C261 167.425 261.349 167.284 261.613 167.131C261.867 166.983 262.078 166.802 262.159 166.593C262.281 166.275 262.299 165.853 262.292 165.532C262.289 165.367 262.279 165.221 262.269 165.115L262.265 165.072L262.263 165.048C262.264 164.862 262.223 164.666 262.136 164.465ZM251.527 161.701C252.895 161.506 255.214 161.646 257.324 162.146C258.377 162.396 259.367 162.733 260.155 163.156C260.948 163.581 261.508 164.078 261.745 164.633C261.837 164.849 261.853 165.03 261.823 165.182C261.793 165.334 261.713 165.476 261.584 165.608C261.319 165.879 260.865 166.09 260.316 166.228C259.773 166.365 259.165 166.425 258.619 166.413C258.067 166.4 257.607 166.315 257.348 166.185C257.153 166.087 256.938 165.961 256.683 165.812L256.682 165.811L256.679 165.809C256.547 165.731 256.404 165.647 256.248 165.558C255.794 165.299 255.247 165.005 254.573 164.715C253.224 164.135 251.375 163.578 248.753 163.348C247.861 163.269 247.31 163.267 246.906 163.282C247.643 162.873 248.552 162.433 249.639 162.092C250.227 161.908 250.97 161.78 251.527 161.701ZM261.857 165.939C261.51 166.275 260.981 166.502 260.42 166.643C259.836 166.791 259.189 166.853 258.61 166.841C258.037 166.828 257.502 166.741 257.157 166.568C256.951 166.464 256.716 166.327 256.453 166.173L256.451 166.171L256.336 166.104L256.24 166.048L256.165 166.004L256.096 165.965L256.037 165.93C255.592 165.676 255.06 165.39 254.406 165.109C253.098 164.547 251.293 164.001 248.716 163.774C247.519 163.669 246.984 163.703 246.547 163.731L246.535 163.731L246.857 164.054C248.642 164.52 250.886 165.25 252.873 165.896L253.001 165.938C254.021 166.27 254.969 166.577 255.749 166.814C256.535 167.052 257.133 167.214 257.464 167.26C258.656 167.425 259.706 167.325 260.478 167.12C260.865 167.018 261.176 166.89 261.399 166.76C261.633 166.624 261.735 166.506 261.761 166.439C261.814 166.302 261.843 166.125 261.857 165.939Z" fill="#305594"/>
<defs>
<linearGradient id="paint0_linear_11620_102936" x1="249.021" y1="164.949" x2="248.413" y2="166.916" gradientUnits="userSpaceOnUse">
<stop stop-color="#B2C8EB" stop-opacity="0.7"/>
<stop offset="0.983896" stop-color="#B2C8EB" stop-opacity="0.3"/>
</linearGradient>
</defs>
</g>

<g class="tablet"> 
<path d="M165.599 180.71C166.159 181.134 166.089 182.133 165.599 182.307C154.45 186.108 131.819 193.685 130.338 194.146C128.857 194.607 127.417 194.12 126.869 193.675L119.753 188.542C119.753 188.542 107.195 187.664 106.88 187.609C106.565 187.553 105.16 186.175 105.257 185.966C105.353 185.756 105.825 185.743 108.571 185.501C108.571 185.501 105.708 177.74 106.279 177.587C106.878 177.427 132.498 170.062 145.398 166.782C145.398 166.782 165.038 180.285 165.599 180.71Z" fill="url(#paint0_linear_11620_102692)"/>
<path d="M126.999 192.307L106.892 177.877C106.228 177.43 106.432 176.623 107.205 176.402L143.142 165.899C143.41 165.826 143.69 165.869 143.922 166.022L164.992 179.914C165.649 180.354 165.509 181.357 164.76 181.602L130.982 192.863C129.636 193.298 128.169 193.096 126.999 192.307Z" fill="#E3ECFB"/>
<path d="M156.242 175.499C157.026 175.218 156.826 174.913 156.627 174.796L143.948 166.36L106.922 177.54L120.286 187.118C132.24 183.185 144.393 179.751 156.242 175.499Z" fill="#C4D5F0"/>
<path d="M114.877 166.004L106.654 176.782C106.49 177.002 106.703 177.302 106.959 177.216L116.253 174.482L114.877 166.004Z" fill="#BED0EE"/>
<path d="M121.253 186.104C120.486 186.104 119.042 185.211 118.513 184.752C118.123 184.416 117.867 183.945 117.782 183.425L113.817 159.525C113.616 158.314 114.219 156.852 115.729 156.522L148.925 147.04C149.242 146.973 149.528 146.936 149.778 146.936C150.076 146.936 150.326 146.985 150.533 147.077C150.649 147.132 150.777 147.187 150.917 147.242C151.544 147.505 152.33 147.835 152.439 148.392L156.005 172.328C156.237 173.478 155.573 174.616 154.507 174.934L121.424 186.073C121.381 186.098 121.32 186.104 121.253 186.104Z" fill="url(#paint1_linear_11620_102692)"/>
<path fill-rule="evenodd" clip-rule="evenodd" d="M152.644 148.054C152.327 147.579 151.652 147.295 151.102 147.063C150.967 147.006 150.84 146.953 150.728 146.9C150.496 146.796 150.204 146.735 149.851 146.735C149.583 146.735 149.278 146.772 148.925 146.845L115.656 156.229C113.975 156.596 113.293 158.254 113.512 159.581L114.562 165.913L106.542 176.427C106.376 176.58 106.261 176.772 106.213 176.986C106.116 177.41 106.299 177.844 106.718 178.128L126.826 192.558L126.83 192.56C128.077 193.402 129.642 193.617 131.076 193.154L131.078 193.153L164.854 181.892L164.855 181.892C165.845 181.568 166.031 180.241 165.161 179.659L157.065 174.321C157.357 173.8 157.47 173.173 157.342 172.543L153.188 149.488C153.077 148.926 152.926 148.423 152.644 148.054ZM149.851 147.347C150.1 147.347 150.314 147.383 150.478 147.463L150.521 147.483C150.44 147.496 150.357 147.512 150.271 147.53L116.728 157.158C115.047 157.525 114.639 158.731 114.858 160.058L118.872 184.3C118.896 184.447 118.931 184.588 118.978 184.724C118.878 184.651 118.789 184.58 118.713 184.514C118.378 184.227 118.153 183.817 118.08 183.364L114.115 159.465C113.938 158.394 114.462 157.103 115.796 156.81L149.053 147.432C149.351 147.377 149.619 147.347 149.851 147.347ZM120.211 186.15C119.461 185.832 118.672 185.305 118.311 184.991C117.885 184.618 117.58 184.098 117.477 183.48L116.047 174.862L107.049 177.509C107.006 177.523 106.964 177.532 106.923 177.536L106.925 177.543L106.959 177.541C106.988 177.569 107.022 177.596 107.061 177.622L107.065 177.625L127.173 192.055C128.263 192.789 129.631 192.977 130.888 192.572L130.889 192.572L164.664 181.311L164.666 181.311C165.174 181.145 165.268 180.466 164.823 180.168L156.704 174.815C156.416 175.123 156.049 175.359 155.624 175.485L121.947 186.3C121.787 186.349 121.626 186.379 121.466 186.393C121.401 186.409 121.331 186.417 121.253 186.417C121.125 186.417 120.984 186.397 120.834 186.361C120.617 186.32 120.408 186.249 120.211 186.15ZM115.909 174.265L106.947 176.901L114.689 166.752L115.909 174.265Z" fill="#305594"/>
<path d="M117.41 159.41L121.214 183.743L155.016 173.039L150.752 149.794L117.41 159.41Z" fill="#82A5DB"/>
<defs>
<linearGradient id="paint0_linear_11620_102692" x1="128.873" y1="180.36" x2="102.322" y2="184.513" gradientUnits="userSpaceOnUse">
<stop offset="0.447917" stop-color="#B2C8EB" stop-opacity="0.7"/>
<stop offset="0.999948" stop-color="#B2C8EB" stop-opacity="0.3"/>
</linearGradient>
<linearGradient id="paint1_linear_11620_102692" x1="115.241" y1="157.136" x2="114.499" y2="159.222" gradientUnits="userSpaceOnUse">
<stop stop-color="white"/>
<stop offset="1" stop-color="#BDD0EE"/>
</linearGradient>
</defs>
</g>  

<g class="mob"> 
<path d="M86.4653 203.295C86.026 202.822 86.5569 202.113 86.8498 201.934L99.0654 197.761C105.916 202.866 119.187 213.28 119.392 213.597C119.598 213.915 119.331 214.5 118.988 214.643C115.285 215.946 107.839 218.561 107.286 218.687C106.596 218.844 105.894 218.71 105.016 218.175C104.313 217.746 86.9046 203.768 86.4653 203.295Z" fill="url(#paint0_linear_11620_102828)"/>
<path d="M107.496 217.816C106.709 217.84 105.937 217.581 105.32 217.091L87.7646 203.066C87.2701 202.663 86.9371 202.285 86.9015 201.776C86.8725 201.318 87.141 200.735 87.7979 200.533L99.1231 197.365C99.1928 197.342 99.2729 197.335 99.3582 197.332C99.9453 197.314 100.736 197.704 101.26 198.101L119.149 211.54C119.856 212.159 119.583 213.106 119.524 213.289C119.395 213.672 119.116 213.927 118.59 214.135L108.471 217.645C108.162 217.74 107.833 217.806 107.496 217.816Z" fill="url(#paint1_linear_11620_102828)"/>
<path fill-rule="evenodd" clip-rule="evenodd" d="M87.7793 200.272L87.7345 200.287C86.9481 200.523 86.618 201.229 86.6551 201.788C86.6946 202.422 87.1247 202.858 87.6142 203.262L105.039 217.078C105.713 217.617 106.54 217.884 107.378 217.859C107.734 217.848 108.089 217.781 108.432 217.665L118.561 214.15C119.062 213.953 119.466 213.673 119.641 213.153C119.816 212.633 119.874 211.728 119.177 211.124L100.99 197.603C100.906 197.539 100.813 197.474 100.713 197.409L100.456 197.217C99.8648 196.771 99.097 196.629 98.3848 196.827L87.8684 200.242C87.8377 200.251 87.8079 200.261 87.7793 200.272ZM107.895 216.571L118.984 212.74C119.084 212.705 119.171 212.656 119.246 212.594C119.229 212.784 119.184 212.932 119.164 212.991C119.062 213.297 118.828 213.501 118.396 213.676L108.267 217.191C107.973 217.29 107.669 217.35 107.358 217.36C106.63 217.382 105.914 217.142 105.348 216.69L87.929 202.879C87.4706 202.504 87.1846 202.185 87.1566 201.762C87.1481 201.638 87.1729 201.45 87.2662 201.269C87.3071 201.446 87.4056 201.614 87.5677 201.744L105.632 216.182C106.271 216.692 107.124 216.837 107.895 216.571Z" fill="#305594"/>
<path d="M117.808 211.066L105.884 215.186L88.5802 201.335L99.8913 197.584L117.808 211.066Z" fill="#82A5DB"/>
<defs>
<linearGradient id="paint0_linear_11620_102828" x1="95.4733" y1="207.489" x2="93.0362" y2="208.699" gradientUnits="userSpaceOnUse">
<stop stop-color="#B2C8EB" stop-opacity="0.7"/>
<stop offset="0.983896" stop-color="#B2C8EB" stop-opacity="0.3"/>
</linearGradient>
<linearGradient id="paint1_linear_11620_102828" x1="108.556" y1="217.058" x2="105.959" y2="217.777" gradientUnits="userSpaceOnUse">
<stop stop-color="#E6EEFB"/>
<stop offset="1" stop-color="#BDD0EE"/>
</linearGradient>
</defs>
</g>  

<g class="pass">
<path d="M214.418 108.618C214.418 111.365 212.755 113.653 210.556 114.147L186.209 121.107C185.817 121.234 185.405 121.302 184.979 121.302C182.354 121.302 180.225 118.716 180.225 115.526C180.225 112.714 181.88 110.371 184.07 109.856L208.432 103.18C208.825 103.056 209.238 102.99 209.664 102.99C212.29 102.99 214.418 105.509 214.418 108.618Z" fill="white"/>
<path d="M106.494 204.113C107.119 204.635 107.284 205.468 106.865 205.975C106.761 206.099 106.632 206.193 106.487 206.255L106.489 206.258L100.758 208.196L100.757 208.193C100.323 208.336 99.7713 208.221 99.3307 207.853C98.7065 207.331 98.5407 206.498 98.9604 205.991C99.1041 205.818 99.2979 205.705 99.5157 205.653L104.987 203.799L104.989 203.802C105.434 203.617 106.026 203.722 106.494 204.113Z" fill="white"/>
<path d="M144.974 166.912C146.351 166.531 147.379 165.051 147.379 163.283C147.379 161.226 145.989 159.559 144.274 159.559C144.026 159.559 143.784 159.594 143.553 159.66L143.552 159.659L127.491 164.708C126.094 165.076 125.047 166.587 125.047 168.395C125.047 170.479 126.437 172.168 128.152 172.168C128.483 172.168 128.802 172.105 129.101 171.988L144.974 166.913L144.974 166.912Z" fill="white"/>
<path d="M208.951 107.25L209.771 107.714L209.049 108.673L210.179 108.522V109.461L209.057 109.327L209.78 110.241L208.933 110.728L208.474 109.647L207.974 110.742L207.194 110.245L207.907 109.321L206.808 109.463V108.522L207.9 108.665L207.19 107.734L208.014 107.258L208.486 108.327L208.951 107.25Z" fill="#2979FF"/>
<path d="M203.575 108.776L204.394 109.24L203.673 110.199L204.803 110.048V110.987L203.68 110.853L204.404 111.767L203.557 112.254L203.098 111.173L202.597 112.268L201.817 111.771L202.531 110.847L201.432 110.989V110.048L202.524 110.191L201.813 109.26L202.638 108.784L203.11 109.853L203.575 108.776Z" fill="#2979FF"/>
<path d="M199.017 110.794L198.198 110.329L197.733 111.406L197.26 110.337L196.436 110.813L197.146 111.744L196.054 111.602V112.542L197.153 112.4L196.44 113.324L197.22 113.821L197.72 112.726L198.179 113.808L199.026 113.321L198.303 112.406L199.425 112.541V111.601L198.295 111.752L199.017 110.794Z" fill="#2979FF"/>
<path d="M192.822 111.847L193.641 112.312L192.919 113.27L194.049 113.119V114.059L192.927 113.924L193.65 114.839L192.803 115.326L192.344 114.244L191.844 115.339L191.064 114.843L191.777 113.918L190.678 114.06V113.12L191.77 113.262L191.06 112.331L191.884 111.856L192.357 112.924L192.822 111.847Z" fill="#2979FF"/>
<path d="M188.264 113.825L187.445 113.36L186.98 114.438L186.507 113.369L185.683 113.845L186.394 114.776L185.301 114.633V115.574L186.4 115.431L185.687 116.356L186.467 116.853L186.968 115.758L187.427 116.839L188.274 116.352L187.55 115.437L188.672 115.572V114.633L187.542 114.784L188.264 113.825Z" fill="#2979FF"/>
<path d="M105.701 204.582L105.949 204.722L105.789 204.934L106.038 204.901V205.185L105.792 205.156L105.952 205.357L105.697 205.504L105.595 205.263L105.482 205.508L105.246 205.357L105.403 205.155L105.162 205.186V204.901L105.401 204.932L105.245 204.727L105.493 204.584L105.598 204.821L105.701 204.582Z" fill="#2979FF"/>
<path d="M104.38 205.039L104.627 205.18L104.468 205.391L104.716 205.358V205.643L104.471 205.613L104.63 205.814L104.375 205.961L104.273 205.72L104.161 205.965L103.925 205.815L104.081 205.612L103.841 205.643V205.358L104.08 205.39L103.923 205.185L104.172 205.041L104.277 205.279L104.38 205.039Z" fill="#2979FF"/>
<path d="M103.306 205.605L103.059 205.465L102.956 205.704L102.851 205.467L102.602 205.61L102.759 205.815L102.52 205.784V206.069L102.76 206.038L102.604 206.24L102.84 206.391L102.952 206.145L103.055 206.386L103.309 206.24L103.15 206.039L103.395 206.068V205.784L103.147 205.817L103.306 205.605Z" fill="#2979FF"/>
<path d="M101.738 205.935L101.985 206.076L101.825 206.288L102.074 206.255V206.539L101.829 206.509L101.988 206.711L101.733 206.857L101.631 206.616L101.519 206.861L101.282 206.711L101.439 206.508L101.199 206.54V206.255L101.437 206.286L101.281 206.081L101.529 205.938L101.634 206.175L101.738 205.935Z" fill="#2979FF"/>
<path d="M100.664 206.527L100.417 206.386L100.314 206.626L100.209 206.388L99.9602 206.532L100.117 206.737L99.8779 206.706V206.99L100.118 206.959L99.9618 207.162L100.198 207.312L100.31 207.067L100.412 207.308L100.667 207.162L100.508 206.96L100.753 206.99V206.705L100.505 206.739L100.664 206.527Z" fill="#2979FF"/>
<path d="M144.496 162.802L143.97 162.503L143.655 163.233L143.335 162.509L142.805 162.815L143.287 163.446L142.545 163.35V163.954L143.292 163.857L142.807 164.485L143.308 164.804L143.647 164.063L143.958 164.795L144.503 164.482L144.012 163.861L144.774 163.953V163.349L144.007 163.452L144.496 162.802Z" fill="#2979FF"/>
<path d="M140.91 163.916L140.384 163.617L140.069 164.347L139.749 163.623L139.219 163.928L139.701 164.56L138.959 164.463V165.067L139.705 164.971L139.221 165.598L139.722 165.917L140.061 165.176L140.371 165.908L140.916 165.595L140.425 164.975L141.188 165.066V164.463L140.421 164.565L140.91 163.916Z" fill="#2979FF"/>
<path d="M136.797 164.717L137.323 165.015L136.834 165.665L137.601 165.563V166.166L136.839 166.075L137.329 166.695L136.785 167.008L136.474 166.276L136.135 167.017L135.634 166.698L136.118 166.07L135.372 166.167V165.563L136.114 165.66L135.632 165.028L136.162 164.722L136.482 165.447L136.797 164.717Z" fill="#2979FF"/>
<path d="M133.735 166.185L133.209 165.887L132.894 166.616L132.574 165.892L132.044 166.198L132.526 166.83L131.784 166.733V167.337L132.531 167.24L132.046 167.868L132.547 168.187L132.886 167.446L133.197 168.178L133.742 167.865L133.251 167.245L134.013 167.336V166.732L133.246 166.835L133.735 166.185Z" fill="#2979FF"/>
<path d="M129.623 167.006L130.149 167.305L129.66 167.955L130.426 167.852V168.456L129.664 168.364L130.155 168.985L129.61 169.298L129.3 168.566L128.961 169.307L128.46 168.988L128.944 168.36L128.198 168.457V167.853L128.94 167.949L128.458 167.318L128.987 167.012L129.308 167.736L129.623 167.006Z" fill="#2979FF"/>
</g>

<path d="M221.022 46.4817C221.022 46.4817 266.365 53.3749 267.974 106.427L245.651 181.326L173.597 207.213L221.022 46.4817Z" fill="white" fill-opacity="0.3"/>
<path d="M107.189 96.7904C93.1805 109.33 88.8162 129.016 93.485 149.091C70.2429 155.666 60.5481 180.312 64.5066 200.571C67.6788 216.805 81.9132 228.996 98.3575 234.425L107.229 231.49L150.115 88.3326C139.408 82.7092 117.406 87.6439 107.189 96.7904Z" fill="white" fill-opacity="0.3"/>
<path d="M245.54 180.496L285.058 166.369L300.867 113.444C296.743 107.921 289.52 98.8005 268.075 106.319L245.54 180.496Z" fill="url(#paint6_linear_11591_102547)" fill-opacity="0.1" style="mix-blend-mode:multiply"/>
<path d="M93.4849 149.09C65.4689 154.289 40.8026 213.013 98.3574 234.423L293.354 163.429C318.021 141.408 306.651 89.7542 267.976 106.576C267.976 82.5624 256.709 57.9456 227.475 48.1581C198.241 38.3706 158.014 52.1922 149.517 88.225C144.34 84.8606 121.197 84.2489 107.189 96.7889C93.1804 109.329 88.8161 129.014 93.4849 149.09Z" fill="white" fill-opacity="0.1"/>
<path fill-rule="evenodd" clip-rule="evenodd" d="M228.53 47.8742C257.062 57.8284 268.298 81.9779 268.581 105.658C277.99 101.765 285.849 101.885 291.981 104.712C298.287 107.619 302.658 113.342 304.995 120.241C309.659 134.012 306.295 152.697 293.759 163.888L293.562 164.006L98.5655 235L98.1464 234.999C86.3334 230.604 77.923 224.634 72.2773 217.845L23.7387 176.925C-2.03469 156.557 3.78498 115.649 28.7216 104.065C24.5337 86.1447 30.2486 70.0913 42.8137 58.8976C55.0382 48.0072 73.693 49.0102 79.2891 52.0619C86.9547 19.9603 126.289 11.453 152.491 20.1827L228.53 47.8742ZM72.566 162.887C77.8313 155.801 84.7304 150.587 91.9825 148.792L28.663 104.768C16.6172 110.523 9.14325 123.325 7.82019 137.259C6.48679 151.302 11.413 166.406 24.1153 176.444L24.1229 176.45L70.4791 215.53C61.676 203.353 61.1733 189.018 65.3269 176.733C66.5423 173.138 68.1601 169.709 70.0906 166.553C70.8675 165.284 71.6946 164.059 72.566 162.887ZM130.121 86.1357C130.614 86.0625 131.105 85.9965 131.592 85.9373C132.109 85.8745 132.621 85.8196 133.129 85.7722C136.681 85.4402 139.985 85.4766 142.755 85.7739C143.045 85.8051 143.331 85.8393 143.611 85.8763L79.4207 52.8517L79.3947 52.8348C78.2547 52.093 76.2099 51.4154 73.53 51.0102C70.8679 50.6077 67.637 50.4827 64.1667 50.8037C57.2202 51.4462 49.3759 53.8692 43.2178 59.3552C30.8688 70.3564 25.2275 86.0936 29.2611 103.696L92.5519 147.7C88.4121 127.993 92.9262 108.738 106.782 96.3342C113.491 90.3283 122.232 87.3065 130.121 86.1357ZM217.848 45.2209L152.289 20.76C139.307 16.4375 123.052 16.386 109.111 21.3985C95.3163 26.3582 83.8433 36.2493 79.9766 51.8134L148.664 87.102C148.821 87.1677 148.971 87.2351 149.114 87.3043C153.159 71.1681 163.546 59.5215 176.401 52.4894C176.844 52.2467 177.291 52.0096 177.74 51.778C178.639 51.3146 179.549 50.8731 180.468 50.4537C192.181 45.1131 205.509 43.338 217.848 45.2209ZM150.11 88.3678C154.309 70.5624 166.344 58.2377 180.972 51.5677C195.611 44.8926 212.818 43.8973 227.283 48.7402C256.209 58.4247 267.368 82.7591 267.368 106.578L268.219 107.139C277.772 102.984 285.548 103.093 291.473 105.824C297.404 108.558 301.585 113.972 303.842 120.635C308.354 133.959 305.096 152.057 293.037 162.896L98.3606 233.773C84.1915 228.462 75.1252 220.886 69.8926 212.467C64.6341 204.006 63.2157 194.644 64.4359 185.763C65.657 176.877 69.5196 168.484 74.8052 161.995C80.0952 155.501 86.7722 150.96 93.5961 149.693L94.0785 148.953C89.447 129.037 93.7927 109.603 107.594 97.2474C114.475 91.0877 123.63 88.1367 131.738 87.1519C135.788 86.66 139.557 86.6611 142.625 86.9904C145.72 87.3226 148.017 87.9804 149.187 88.7404L150.11 88.3678Z" fill="#B2C8EB"/>

<defs>
<linearGradient id="paint0_linear_11591_102547" x1="240.818" y1="90.9023" x2="9.31699" y2="154.87" gradientUnits="userSpaceOnUse">
<stop stop-color="#B2C8EB" stop-opacity="0.5"/>
<stop offset="1" stop-color="#B2C8EB" stop-opacity="0.15"/>
</linearGradient>
<linearGradient id="paint1_linear_11591_102547" x1="224.54" y1="87.3546" x2="230.179" y2="75.1238" gradientUnits="userSpaceOnUse">
<stop stop-color="white" stop-opacity="0.6"/>
<stop offset="1" stop-color="white" stop-opacity="0"/>
</linearGradient>
<linearGradient id="paint2_linear_11591_102547" x1="53.8606" y1="126.101" x2="36.7408" y2="152.549" gradientUnits="userSpaceOnUse">
<stop stop-color="white" stop-opacity="0.6"/>
<stop offset="0.0001" stop-color="white" stop-opacity="0.5"/>
<stop offset="1" stop-color="white" stop-opacity="0.1"/>
</linearGradient>
<linearGradient id="paint3_linear_11591_102547" x1="176.916" y1="26.1879" x2="173.863" y2="40.4078" gradientUnits="userSpaceOnUse">
<stop stop-color="white" stop-opacity="0.5"/>
<stop stop-color="white" stop-opacity="0.6"/>
<stop offset="1" stop-color="white" stop-opacity="0.1"/>
</linearGradient>
<linearGradient id="paint4_linear_11591_102547" x1="86.1265" y1="65.3196" x2="67.0761" y2="102.841" gradientUnits="userSpaceOnUse">
<stop stop-color="white" stop-opacity="0.6"/>
<stop offset="0.0001" stop-color="white" stop-opacity="0.5"/>
<stop offset="1" stop-color="white" stop-opacity="0.05"/>
</linearGradient>
<linearGradient id="paint5_linear_11591_102547" x1="226.484" y1="51.1115" x2="220.731" y2="64.9639" gradientUnits="userSpaceOnUse">
<stop stop-color="white"/>
<stop offset="0.0001" stop-color="white" stop-opacity="0.3"/>
<stop offset="1" stop-color="white" stop-opacity="0.1"/>
</linearGradient>
<linearGradient id="paint6_linear_11591_102547" x1="281.474" y1="105.562" x2="259.373" y2="175.548" gradientUnits="userSpaceOnUse">
<stop stop-color="#2979FF"/>
<stop offset="1" stop-color="#2979FF" stop-opacity="0.2"/>  
</linearGradient>
</defs>
</g>   
</svg>
