<svg width="40" height="40" viewBox="0 0 40 40" fill="none" xmlns="http://www.w3.org/2000/svg">
<path fill-rule="evenodd" clip-rule="evenodd" d="M6 7C6 5.89543 6.89543 5 8 5H32C33.1046 5 34 5.89543 34 7V9C34 10.1046 33.1046 11 32 11H8C6.89543 11 6 10.1046 6 9V7ZM18.9283 6.6H32C32.2209 6.6 32.4 6.77909 32.4 7V9C32.4 9.22091 32.2209 9.4 32 9.4H18.9283C19.2819 9.03925 19.5 8.54509 19.5 8C19.5 7.45491 19.2819 6.96075 18.9283 6.6Z" fill="#CADAF3"/>
<path d="M6 16C6 14.8954 6.89543 14 8 14H32C33.1046 14 34 14.8954 34 16V17.5372C33.4884 17.2832 32.9537 17.0687 32.4 16.8976V16C32.4 15.7791 32.2209 15.6 32 15.6H23.9283C24.2819 15.9608 24.5 16.4549 24.5 17C24.5 17.1842 24.4751 17.3626 24.4285 17.532C23.1928 18.1436 22.0911 18.9848 21.1791 20H8C6.89543 20 6 19.1046 6 18V16Z" fill="#CADAF3"/>
<path d="M19.2696 23H8C6.89543 23 6 23.8954 6 25V27C6 28.1046 6.89543 29 8 29H18.5659C18.4788 28.4784 18.4291 27.9441 18.4196 27.4H13.9283C14.2819 27.0392 14.5 26.5451 14.5 26C14.5 25.4549 14.2819 24.9608 13.9283 24.6H18.7355C18.8724 24.0487 19.0516 23.5142 19.2696 23Z" fill="#CADAF3"/>
<path fill-rule="evenodd" clip-rule="evenodd" d="M29.209 36.4C34.285 36.4 38.4 32.285 38.4 27.209C38.4 22.1329 34.285 18.018 29.209 18.018C24.1329 18.018 20.018 22.1329 20.018 27.209C20.018 32.285 24.1329 36.4 29.209 36.4ZM29.209 38C35.1687 38 40 33.1687 40 27.209C40 21.2493 35.1687 16.418 29.209 16.418C23.2493 16.418 18.418 21.2493 18.418 27.209C18.418 33.1687 23.2493 38 29.209 38Z" fill="#82A5DB"/>
<path d="M35.5185 27.2088C35.5185 30.6934 32.6937 33.5183 29.2091 33.5183C25.7245 33.5183 22.8997 30.6934 22.8997 27.2088C22.8997 23.7242 25.7245 20.8994 29.2091 20.8994C32.6937 20.8994 35.5185 23.7242 35.5185 27.2088Z" fill="#82A5DB"/>
<path d="M28.543 29.8994V25.8682C28.3607 25.9749 28.1719 26.057 27.9766 26.1143C27.7812 26.1689 27.5599 26.2093 27.3125 26.2354V24.9854C27.6641 24.9255 27.9909 24.8317 28.293 24.7041C28.5977 24.5739 28.9089 24.3968 29.2266 24.1729H30.207V29.8994H28.543Z" fill="white"/>
</svg>
