<svg width="40" height="40" viewBox="0 0 40 40" fill="none" xmlns="http://www.w3.org/2000/svg">
<path fill-rule="evenodd" clip-rule="evenodd" d="M10 7C10 5.89543 10.8954 5 12 5H26C27.1046 5 28 5.89543 28 7V37H10V7ZM11.6 23V11H26.4V23H11.6Z" fill="#CADAF3"/>
<path d="M33.8 16.8336C34.5064 16.525 35 15.8201 35 15C35 13.8954 34.1046 13 33 13C31.8955 13 31 13.8954 31 15C31 15.8201 31.4937 16.525 32.2 16.8336V24C32.2 25.7673 30.7673 27.2 29 27.2H28V28.8H29C31.651 28.8 33.8 26.651 33.8 24V16.8336Z" fill="#82A5DB"/>
<path fill-rule="evenodd" clip-rule="evenodd" d="M15 14.2C15.4418 14.2 15.8 14.5581 15.8 15V19C15.8 19.4418 15.4418 19.8 15 19.8C14.5581 19.8 14.2 19.4418 14.2 19V15C14.2 14.5581 14.5581 14.2 15 14.2ZM19.033 14.2C19.4748 14.2 19.833 14.5581 19.833 15V19C19.833 19.4418 19.4748 19.8 19.033 19.8C18.5911 19.8 18.233 19.4418 18.233 19V15C18.233 14.5581 18.5911 14.2 19.033 14.2ZM23 14.2C23.4418 14.2 23.8 14.5581 23.8 15V19C23.8 19.4418 23.4418 19.8 23 19.8C22.5581 19.8 22.2 19.4418 22.2 19V15C22.2 14.5581 22.5581 14.2 23 14.2Z" fill="#82A5DB"/>
</svg>
