<svg width="20" height="20" viewBox="0 0 20 20" fill="none" xmlns="http://www.w3.org/2000/svg">
<path fill-rule="evenodd" clip-rule="evenodd" d="M18 10C18 14.4183 14.4183 18 10 18C5.58172 18 2 14.4183 2 10C2 5.58172 5.58172 2 10 2C14.4183 2 18 5.58172 18 10ZM16.96 10C16.96 13.8439 13.8439 16.96 10 16.96C6.1561 16.96 3.04 13.8439 3.04 10C3.04 6.1561 6.1561 3.04 10 3.04C13.8439 3.04 16.96 6.1561 16.96 10Z" fill="#31A629"/>
<path d="M6.15503 10.0103L8.7704 12.7453L13.8452 7.64209" stroke="#31A629" stroke-width="1.3" stroke-linecap="round"/>
</svg>
