<svg width="20" height="20" viewBox="0 0 20 20" fill="none" xmlns="http://www.w3.org/2000/svg">
<path fill-rule="evenodd" clip-rule="evenodd" d="M10 18C14.4183 18 18 14.4183 18 10C18 5.58172 14.4183 2 10 2C5.58172 2 2 5.58172 2 10C2 14.4183 5.58172 18 10 18ZM10 16.96C13.8439 16.96 16.96 13.8439 16.96 10C16.96 6.1561 13.8439 3.04 10 3.04C6.1561 3.04 3.04 6.1561 3.04 10C3.04 13.8439 6.1561 16.96 10 16.96ZM10.0523 5.954C10.507 5.954 10.8703 6.33245 10.8516 6.78674L10.659 11.4907H9.34647L9.15119 6.78719C9.13232 6.33274 9.49565 5.95401 9.95049 5.95401L10.0523 5.954ZM10.0003 14.2907C10.4134 14.2907 10.7482 13.9559 10.7482 13.5428C10.7482 13.1298 10.4134 12.7949 10.0003 12.7949C9.58726 12.7949 9.25241 13.1298 9.25241 13.5428C9.25241 13.9559 9.58726 14.2907 10.0003 14.2907Z" fill="black" fill-opacity="0.4"/>
</svg>
