<svg width="20" height="20" viewBox="0 0 20 20" fill="none" xmlns="http://www.w3.org/2000/svg">
<path fill-rule="evenodd" clip-rule="evenodd" d="M2 10C2 14.4183 5.58172 18 10 18C14.4183 18 18 14.4183 18 10C18 5.58172 14.4183 2 10 2C5.58172 2 2 5.58172 2 10ZM10 16.96C6.1561 16.96 3.04 13.8439 3.04 10C3.04 6.1561 6.1561 3.04 10 3.04C13.8439 3.04 16.96 6.1561 16.96 10C16.96 13.8439 13.8439 16.96 10 16.96Z" fill="#2979FF"/>
<path d="M10.54 10.8771C10.54 11.1643 10.3072 11.3971 10.0201 11.3971C9.73287 11.3971 9.50006 11.1643 9.50007 10.8771C9.50007 9.8 9.50007 8.6 9.50007 5.52001C9.50007 5.23282 9.73287 5 10.0201 5C10.3072 5 10.54 5.23282 10.54 5.52001C10.54 8.94371 10.54 7.76969 10.54 10.8771Z" fill="#2979FF"/>
<path d="M9.79017 11.3616C9.54145 11.218 9.45623 10.9 9.59982 10.6513C9.74341 10.4026 10.0614 10.3174 10.3102 10.461C11.243 10.9995 11.3526 11.0594 14.02 12.5994C14.2687 12.743 14.3539 13.061 14.2103 13.3097C14.0667 13.5584 13.7487 13.6436 13.5 13.5C10.535 11.7882 12.4813 12.9153 9.79017 11.3616Z" fill="#2979FF"/>
</svg>
