<svg width="20" height="20" viewBox="0 0 20 20" fill="none" xmlns="http://www.w3.org/2000/svg">
<path fill-rule="evenodd" clip-rule="evenodd" d="M10 18C5.58172 18 2 14.4183 2 10C2 5.58172 5.58172 2 10 2C14.4183 2 18 5.58172 18 10C18 14.4183 14.4183 18 10 18ZM3.04 10C3.04 13.8439 6.1561 16.96 10 16.96C13.8439 16.96 16.96 13.8439 16.96 10C16.96 6.1561 13.8439 3.04 10 3.04C6.1561 3.04 3.04 6.1561 3.04 10ZM10 5C10.1706 5 10.3392 5.00855 10.5054 5.02523C9.56865 6.08369 9 7.4755 9 9.00012C9 11.374 10.3786 13.4259 12.379 14.3989C11.6715 14.7823 10.8612 15 10 15C7.23858 15 5 12.7614 5 10C5 7.23858 7.23858 5 10 5Z" fill="#FFB800"/>
</svg>
