<svg width="20" height="20" viewBox="0 0 20 20" fill="none" xmlns="http://www.w3.org/2000/svg">
<path d="M12.6771 9.46497C12.9643 9.46497 13.1971 9.69778 13.1971 9.98496C13.1971 10.2721 12.9643 10.5049 12.6771 10.5049C11.6 10.5049 10.4 10.5049 7.32001 10.5049C7.03282 10.5049 6.8 10.2721 6.8 9.98496C6.8 9.69778 7.03282 9.46497 7.32001 9.46497C10.7437 9.46497 9.56969 9.46497 12.6771 9.46497Z" fill="black" fill-opacity="0.4"/>
<path fill-rule="evenodd" clip-rule="evenodd" d="M10 18C14.4183 18 18 14.4183 18 10C18 5.58172 14.4183 2 10 2C5.58172 2 2 5.58172 2 10C2 14.4183 5.58172 18 10 18ZM16.96 10C16.96 13.8439 13.8439 16.96 10 16.96C6.1561 16.96 3.04 13.8439 3.04 10C3.04 6.1561 6.1561 3.04 10 3.04C13.8439 3.04 16.96 6.1561 16.96 10Z" fill="black" fill-opacity="0.4"/>
</svg>
