<svg width="24" height="24" viewBox="0 0 24 24" fill="none" xmlns="http://www.w3.org/2000/svg">
<mask id="path-1-inside-1_19169_12711" fill="white">
<path fill-rule="evenodd" clip-rule="evenodd" d="M11 4C11 3.44772 10.5523 3 10 3H4C3.44772 3 3 3.44772 3 4V10C3 10.5523 3.44772 11 4 11H10C10.5523 11 11 10.5523 11 10V4ZM11 14C11 13.4477 10.5523 13 10 13H4C3.44772 13 3 13.4477 3 14V20C3 20.5523 3.44772 21 4 21H10C10.5523 21 11 20.5523 11 20V14ZM13 4C13 3.44772 13.4477 3 14 3H20C20.5523 3 21 3.44772 21 4V10C21 10.5523 20.5523 11 20 11H14C13.4477 11 13 10.5523 13 10V4ZM21 14C21 13.4477 20.5523 13 20 13H14C13.4477 13 13 13.4477 13 14V20C13 20.5523 13.4477 21 14 21H20C20.5523 21 21 20.5523 21 20V14Z"/>
</mask>
<path d="M4 4.6H10V1.4H4V4.6ZM4.6 10V4H1.4V10H4.6ZM10 9.4H4V12.6H10V9.4ZM9.4 4V10H12.6V4H9.4ZM4 14.6H10V11.4H4V14.6ZM4.6 20V14H1.4V20H4.6ZM10 19.4H4V22.6H10V19.4ZM9.4 14V20H12.6V14H9.4ZM20 1.4H14V4.6H20V1.4ZM22.6 10V4H19.4V10H22.6ZM14 12.6H20V9.4H14V12.6ZM11.4 4V10H14.6V4H11.4ZM14 14.6H20V11.4H14V14.6ZM14.6 20V14H11.4V20H14.6ZM20 19.4H14V22.6H20V19.4ZM19.4 14V20H22.6V14H19.4ZM20 22.6C21.4359 22.6 22.6 21.4359 22.6 20H19.4C19.4 19.6686 19.6686 19.4 20 19.4V22.6ZM11.4 20C11.4 21.4359 12.5641 22.6 14 22.6V19.4C14.3314 19.4 14.6 19.6686 14.6 20H11.4ZM20 14.6C19.6686 14.6 19.4 14.3314 19.4 14H22.6C22.6 12.5641 21.4359 11.4 20 11.4V14.6ZM14 11.4C12.5641 11.4 11.4 12.5641 11.4 14H14.6C14.6 14.3314 14.3314 14.6 14 14.6V11.4ZM14 9.4C14.3314 9.4 14.6 9.66863 14.6 10H11.4C11.4 11.4359 12.5641 12.6 14 12.6V9.4ZM19.4 10C19.4 9.66863 19.6686 9.4 20 9.4V12.6C21.4359 12.6 22.6 11.4359 22.6 10H19.4ZM14 1.4C12.5641 1.4 11.4 2.56406 11.4 4H14.6C14.6 4.33137 14.3314 4.6 14 4.6V1.4ZM20 4.6C19.6686 4.6 19.4 4.33137 19.4 4H22.6C22.6 2.56406 21.4359 1.4 20 1.4V4.6ZM10 22.6C11.4359 22.6 12.6 21.4359 12.6 20H9.4C9.4 19.6686 9.66863 19.4 10 19.4V22.6ZM1.4 20C1.4 21.4359 2.56406 22.6 4 22.6V19.4C4.33137 19.4 4.6 19.6686 4.6 20H1.4ZM10 14.6C9.66863 14.6 9.4 14.3314 9.4 14H12.6C12.6 12.5641 11.4359 11.4 10 11.4V14.6ZM4 11.4C2.56406 11.4 1.4 12.5641 1.4 14H4.6C4.6 14.3314 4.33137 14.6 4 14.6V11.4ZM10 12.6C11.4359 12.6 12.6 11.4359 12.6 10H9.4C9.4 9.66863 9.66863 9.4 10 9.4V12.6ZM1.4 10C1.4 11.4359 2.56406 12.6 4 12.6V9.4C4.33137 9.4 4.6 9.66863 4.6 10H1.4ZM10 4.6C9.66863 4.6 9.4 4.33137 9.4 4H12.6C12.6 2.56406 11.4359 1.4 10 1.4V4.6ZM4 1.4C2.56406 1.4 1.4 2.56406 1.4 4H4.6C4.6 4.33137 4.33137 4.6 4 4.6V1.4Z" fill="white" fill-opacity="0.87" mask="url(#path-1-inside-1_19169_12711)"/>
</svg>
