<svg width="24" height="24" viewBox="0 0 24 24" fill="none" xmlns="http://www.w3.org/2000/svg">
<path fill-rule="evenodd" clip-rule="evenodd" d="M3.49995 4.2002C3.05812 4.2002 2.69995 4.55837 2.69995 5.0002C2.69995 5.44202 3.05812 5.8002 3.49995 5.8002H10.5C10.9418 5.8002 11.3 5.44202 11.3 5.0002C11.3 4.55837 10.9418 4.2002 10.5 4.2002H3.49995ZM3.49995 11.2002C3.05812 11.2002 2.69995 11.5584 2.69995 12.0002C2.69995 12.442 3.05812 12.8002 3.49995 12.8002H10.5C10.9418 12.8002 11.3 12.442 11.3 12.0002C11.3 11.5584 10.9418 11.2002 10.5 11.2002H3.49995ZM2.69995 19.0002C2.69995 18.5584 3.05812 18.2002 3.49995 18.2002H10.5C10.9418 18.2002 11.3 18.5584 11.3 19.0002C11.3 19.442 10.9418 19.8002 10.5 19.8002H3.49995C3.05812 19.8002 2.69995 19.442 2.69995 19.0002ZM13.5 4.2002C13.0581 4.2002 12.7 4.55837 12.7 5.0002C12.7 5.44202 13.0581 5.8002 13.5 5.8002L20.5 5.8002C20.9418 5.8002 21.3 5.44202 21.3 5.0002C21.3 4.55837 20.9418 4.2002 20.5 4.2002H13.5ZM12.7 12.0002C12.7 11.5584 13.0581 11.2002 13.5 11.2002L20.5 11.2002C20.9418 11.2002 21.3 11.5584 21.3 12.0002C21.3 12.442 20.9418 12.8002 20.5 12.8002H13.5C13.0581 12.8002 12.7 12.442 12.7 12.0002ZM13.5 18.2002C13.0581 18.2002 12.7 18.5584 12.7 19.0002C12.7 19.442 13.0581 19.8002 13.5 19.8002H20.5C20.9418 19.8002 21.3 19.442 21.3 19.0002C21.3 18.5584 20.9418 18.2002 20.5 18.2002L13.5 18.2002Z" fill="black" fill-opacity="0.87"/>
</svg>
