<svg width="24" height="24" viewBox="0 0 24 24" fill="none" xmlns="http://www.w3.org/2000/svg">
<path fill-rule="evenodd" clip-rule="evenodd" d="M4.50001 3.19995C3.5059 3.19995 2.70001 4.00584 2.70001 4.99995C2.70001 5.99406 3.5059 6.79995 4.50001 6.79995C5.49412 6.79995 6.30001 5.99406 6.30001 4.99995C6.30001 4.00584 5.49412 3.19995 4.50001 3.19995ZM7.70001 4.99995C7.70001 4.55812 8.05818 4.19995 8.50001 4.19995L20.5 4.19995C20.9418 4.19995 21.3 4.55812 21.3 4.99995C21.3 5.44178 20.9418 5.79995 20.5 5.79995L8.50001 5.79995C8.05818 5.79995 7.70001 5.44178 7.70001 4.99995ZM7.70001 12C7.70001 11.5581 8.05818 11.2 8.50001 11.2L20.5 11.2C20.9418 11.2 21.3 11.5581 21.3 12C21.3 12.4418 20.9418 12.8 20.5 12.8L8.50001 12.8C8.05818 12.8 7.70001 12.4418 7.70001 12ZM8.50001 18.2C8.05818 18.2 7.70001 18.5581 7.70001 19C7.70001 19.4418 8.05818 19.8 8.50001 19.8H20.5C20.9418 19.8 21.3 19.4418 21.3 19C21.3 18.5581 20.9418 18.2 20.5 18.2L8.50001 18.2ZM4.50001 17.2C3.5059 17.2 2.70001 18.0058 2.70001 19C2.70001 19.9941 3.5059 20.8 4.50001 20.8C5.49412 20.8 6.30001 19.9941 6.30001 19C6.30001 18.0058 5.49412 17.2 4.50001 17.2ZM4.50001 10.2C3.5059 10.2 2.70001 11.0058 2.70001 12C2.70001 12.9941 3.5059 13.8 4.50001 13.8C5.49412 13.8 6.30001 12.9941 6.30001 12C6.30001 11.0058 5.49412 10.2 4.50001 10.2Z" fill="black" fill-opacity="0.87"/>
</svg>
