<svg width="24" height="24" viewBox="0 0 24 24" fill="none" xmlns="http://www.w3.org/2000/svg">
<path fill-rule="evenodd" clip-rule="evenodd" d="M3.49998 4.3501C3.14099 4.3501 2.84998 4.64111 2.84998 5.0001C2.84998 5.35908 3.14099 5.6501 3.49998 5.6501H10.5C10.859 5.6501 11.15 5.35908 11.15 5.0001C11.15 4.64111 10.859 4.3501 10.5 4.3501H3.49998ZM3.49998 11.3501C3.14099 11.3501 2.84998 11.6411 2.84998 12.0001C2.84998 12.3591 3.14099 12.6501 3.49998 12.6501H10.5C10.859 12.6501 11.15 12.3591 11.15 12.0001C11.15 11.6411 10.859 11.3501 10.5 11.3501H3.49998ZM2.84998 19.0001C2.84998 18.6411 3.14099 18.3501 3.49998 18.3501H10.5C10.859 18.3501 11.15 18.6411 11.15 19.0001C11.15 19.3591 10.859 19.6501 10.5 19.6501H3.49998C3.14099 19.6501 2.84998 19.3591 2.84998 19.0001ZM13.5 4.3501C13.141 4.3501 12.85 4.64111 12.85 5.0001C12.85 5.35908 13.141 5.6501 13.5 5.6501L20.5 5.6501C20.859 5.6501 21.15 5.35908 21.15 5.0001C21.15 4.64111 20.859 4.3501 20.5 4.3501H13.5ZM12.85 12.0001C12.85 11.6411 13.141 11.3501 13.5 11.3501L20.5 11.3501C20.859 11.3501 21.15 11.6411 21.15 12.0001C21.15 12.3591 20.859 12.6501 20.5 12.6501L13.5 12.6501C13.141 12.6501 12.85 12.3591 12.85 12.0001ZM13.5 18.3501C13.141 18.3501 12.85 18.6411 12.85 19.0001C12.85 19.3591 13.141 19.6501 13.5 19.6501L20.5 19.6501C20.859 19.6501 21.15 19.3591 21.15 19.0001C21.15 18.6411 20.859 18.3501 20.5 18.3501H13.5Z" fill="white" fill-opacity="0.4"/>
</svg>
