<svg width="24" height="24" viewBox="0 0 24 24" fill="none" xmlns="http://www.w3.org/2000/svg">
<path fill-rule="evenodd" clip-rule="evenodd" d="M2.84998 5.0001C2.84998 4.08883 3.58871 3.3501 4.49998 3.3501C5.41125 3.3501 6.14998 4.08883 6.14998 5.0001C6.14998 5.91137 5.41125 6.6501 4.49998 6.6501C3.58871 6.6501 2.84998 5.91137 2.84998 5.0001ZM2.84998 12.0001C2.84998 11.0888 3.58871 10.3501 4.49998 10.3501C5.41125 10.3501 6.14998 11.0888 6.14998 12.0001C6.14998 12.9114 5.41125 13.6501 4.49998 13.6501C3.58871 13.6501 2.84998 12.9114 2.84998 12.0001ZM2.84998 19.0001C2.84998 18.0888 3.58871 17.3501 4.49998 17.3501C5.41125 17.3501 6.14998 18.0888 6.14998 19.0001C6.14998 19.9114 5.41125 20.6501 4.49998 20.6501C3.58871 20.6501 2.84998 19.9114 2.84998 19.0001ZM8.49998 4.3501C8.14099 4.3501 7.84998 4.64111 7.84998 5.0001C7.84998 5.35908 8.14099 5.6501 8.49998 5.6501L20.5 5.6501C20.859 5.6501 21.15 5.35908 21.15 5.0001C21.15 4.64111 20.859 4.3501 20.5 4.3501L8.49998 4.3501ZM8.49998 11.3501C8.14099 11.3501 7.84998 11.6411 7.84998 12.0001C7.84998 12.3591 8.14099 12.6501 8.49998 12.6501L20.5 12.6501C20.859 12.6501 21.15 12.3591 21.15 12.0001C21.15 11.6411 20.859 11.3501 20.5 11.3501L8.49998 11.3501ZM7.84998 19.0001C7.84998 18.6411 8.14099 18.3501 8.49998 18.3501L20.5 18.3501C20.859 18.3501 21.15 18.6411 21.15 19.0001C21.15 19.3591 20.859 19.6501 20.5 19.6501L8.49998 19.6501C8.14099 19.6501 7.84998 19.3591 7.84998 19.0001Z" fill="white" fill-opacity="0.4"/>
</svg>
