<svg width="20" height="20" viewBox="0 0 20 20" fill="none" xmlns="http://www.w3.org/2000/svg">
<path fill-rule="evenodd" clip-rule="evenodd" d="M14.5398 7.27475C14.2202 7.14417 13.7133 7 13.0866 7C11.4867 7 10.36 7.87873 10.3531 9.13505C10.3398 10.062 11.1598 10.5768 11.773 10.8859C12.3998 11.2017 12.6129 11.4078 12.6129 11.6893C12.6065 12.1216 12.1064 12.3209 11.6399 12.3209C10.9931 12.3209 10.6465 12.2182 10.1198 11.9777L9.90648 11.8745L9.67977 13.3232C10.0598 13.5015 10.7598 13.6597 11.4867 13.6667C13.1866 13.6667 14.2934 12.8015 14.3065 11.4627C14.313 10.7281 13.88 10.1652 12.9466 9.70518C12.3799 9.4099 12.0329 9.21079 12.0329 8.90866C12.0395 8.634 12.3264 8.35268 12.966 8.35268C13.4927 8.3389 13.8797 8.4693 14.1729 8.59978L14.3194 8.66831L14.5398 7.27475ZM8.66665 13.5707H7.04651L8.05986 7.11719H9.67992L8.66665 13.5707ZM17.3398 9.47881C17.3398 9.47881 16.8264 10.9137 16.693 11.2845H18.0397C17.973 10.9618 17.6662 9.41704 17.6662 9.41704L17.553 8.86096C17.5053 9.00416 17.4364 9.20104 17.3899 9.33382L17.3898 9.33401L17.3898 9.33403C17.3583 9.42392 17.3371 9.48437 17.3398 9.47881ZM17.4397 7.11719H18.6929L19.9999 13.5706H18.4998C18.4998 13.5706 18.353 12.8291 18.3065 12.6026H16.2264L15.8864 13.5706H14.1864L16.5929 7.65264C16.7596 7.2338 17.0532 7.11719 17.4397 7.11719ZM5.69331 7.11719L4.10665 11.5179L3.93327 10.6254C3.93322 10.6252 3.93317 10.625 3.93312 10.6248L3.36662 7.65966C3.27333 7.24749 2.98664 7.13078 2.63332 7.11719H0.0266671L0 7.24758C0.635751 7.41503 1.20437 7.65631 1.7026 7.95632L3.14664 13.5639H4.85989L7.40647 7.11719H5.69331Z" fill="#1434CB"/>
</svg>
